  0
SECTION
  2
HEADER
  9
$ANGBASE
  50
0.0
  9
$ANGDIR
  70
1
  9
$MEASUREMENT
  70
0
  0
ENDSEC
  0
SECTION
  2
TABLES
  0
TABLE
  2
LTYPE
  70
4
  0
LTYPE
  5
40F
  2
CONTINUOUS
  70
0
  3
Solid line
  72
65
  73
0
  40
0.0
  0
LTYPE
  5
410
  2
DASHDOT
 70
0
  3
Dash Dot ____ _ ____ _
 72
65
 73
4
 40
2.0
 49
1.25
 49
-0.25
 49
0.25
 49
-0.25
  0
LTYPE
  5
411
  2
DASHED
 70
0
  3
Dashed __ __ __ __ __
 72
65
 73
2
 40
0.75
 49
0.5
 49
-0.25
  0
LTYPE
  5
43B
  2
DOTTED
 70
0
  3
Dotted .  .  .  .
 72
65
 73
2
 40
0.2
 49
0.0
 49
-0.2
  0
ENDTAB
  0
TABLE
  2
STYLE
  70
4
  0
STYLE
  2
KICAD
  70
0
  40
0
  41
1
  42
1
  50
0
  71
0
  3
isocp.shx
  0
STYLE
  2
KICADB
  70
0
  40
0
  41
1
  42
1
  50
0
  71
0
  3
isocp.shx
  0
STYLE
  2
KICADI
  70
0
  40
0
  41
1
  42
1
  50
15
  71
0
  3
isocp.shx
  0
STYLE
  2
KICADBI
  70
0
  40
0
  41
1
  42
1
  50
15
  71
0
  3
isocp.shx
  0
ENDTAB
  0
TABLE
  2
LAYER
  70
1
  0
LAYER
  2
BLACK
  70
0
  62
7
  6
CONTINUOUS
  0
ENDTAB
  0
ENDSEC
  0
SECTION
  2
ENTITIES
0
LINE
8
BLACK
6
CONTINUOUS
10
0.403294
20
0.997408
11
0.408278
21
0.995663
0
LINE
8
BLACK
6
CONTINUOUS
10
0.408278
20
0.995663
11
0.412527
21
0.992527
0
LINE
8
BLACK
6
CONTINUOUS
10
0.412527
20
0.992527
11
0.427338
21
0.977717
0
LINE
8
BLACK
6
CONTINUOUS
10
0.427338
20
0.977717
11
0.56
21
0.977717
0
LINE
8
BLACK
6
CONTINUOUS
10
0.56
20
0.977717
11
0.562641
21
0.977519
0
LINE
8
BLACK
6
CONTINUOUS
10
0.562641
20
0.977519
11
0.56296
21
0.97742
0
LINE
8
BLACK
6
CONTINUOUS
10
0.56296
20
0.97742
11
0.563294
21
0.977408
0
LINE
8
BLACK
6
CONTINUOUS
10
0.563294
20
0.977408
11
0.565477
21
0.976644
0
LINE
8
BLACK
6
CONTINUOUS
10
0.565477
20
0.976644
11
0.567687
21
0.975962
0
LINE
8
BLACK
6
CONTINUOUS
10
0.567687
20
0.975962
11
0.567963
21
0.975774
0
LINE
8
BLACK
6
CONTINUOUS
10
0.567963
20
0.975774
11
0.568278
21
0.975663
0
LINE
8
BLACK
6
CONTINUOUS
10
0.568278
20
0.975663
11
0.570139
21
0.97429
0
LINE
8
BLACK
6
CONTINUOUS
10
0.570139
20
0.97429
11
0.57205
21
0.972987
0
LINE
8
BLACK
6
CONTINUOUS
10
0.57205
20
0.972987
11
0.572259
21
0.972726
0
LINE
8
BLACK
6
CONTINUOUS
10
0.572259
20
0.972726
11
0.572527
21
0.972527
0
LINE
8
BLACK
6
CONTINUOUS
10
0.572527
20
0.972527
11
0.712527
21
0.832527
0
LINE
8
BLACK
6
CONTINUOUS
10
0.712527
20
0.832527
11
0.714255
21
0.83052
0
LINE
8
BLACK
6
CONTINUOUS
10
0.714255
20
0.83052
11
0.714411
21
0.830225
0
LINE
8
BLACK
6
CONTINUOUS
10
0.714411
20
0.830225
11
0.714638
21
0.82998
0
LINE
8
BLACK
6
CONTINUOUS
10
0.714638
20
0.82998
11
0.715642
21
0.827896
0
LINE
8
BLACK
6
CONTINUOUS
10
0.715642
20
0.827896
11
0.716722
21
0.825851
0
LINE
8
BLACK
6
CONTINUOUS
10
0.716722
20
0.825851
11
0.716784
21
0.825523
0
LINE
8
BLACK
6
CONTINUOUS
10
0.716784
20
0.825523
11
0.716929
21
0.825222
0
LINE
8
BLACK
6
CONTINUOUS
10
0.716929
20
0.825222
11
0.717274
21
0.822934
0
LINE
8
BLACK
6
CONTINUOUS
10
0.717274
20
0.822934
11
0.717704
21
0.820662
0
LINE
8
BLACK
6
CONTINUOUS
10
0.717704
20
0.820662
11
0.717667
21
0.82033
0
LINE
8
BLACK
6
CONTINUOUS
10
0.717667
20
0.82033
11
0.717717
21
0.82
0
LINE
8
BLACK
6
CONTINUOUS
10
0.717717
20
0.82
11
0.717717
21
0.7
0
LINE
8
BLACK
6
CONTINUOUS
10
0.717717
20
0.7
11
0.717519
21
0.697359
0
LINE
8
BLACK
6
CONTINUOUS
10
0.717519
20
0.697359
11
0.71742
21
0.69704
0
LINE
8
BLACK
6
CONTINUOUS
10
0.71742
20
0.69704
11
0.717408
21
0.696706
0
LINE
8
BLACK
6
CONTINUOUS
10
0.717408
20
0.696706
11
0.716644
21
0.694524
0
LINE
8
BLACK
6
CONTINUOUS
10
0.716644
20
0.694524
11
0.715962
21
0.692313
0
LINE
8
BLACK
6
CONTINUOUS
10
0.715962
20
0.692313
11
0.715774
21
0.692037
0
LINE
8
BLACK
6
CONTINUOUS
10
0.715774
20
0.692037
11
0.715663
21
0.691722
0
LINE
8
BLACK
6
CONTINUOUS
10
0.715663
20
0.691722
11
0.71429
21
0.689861
0
LINE
8
BLACK
6
CONTINUOUS
10
0.71429
20
0.689861
11
0.712987
21
0.68795
0
LINE
8
BLACK
6
CONTINUOUS
10
0.712987
20
0.68795
11
0.712726
21
0.687741
0
LINE
8
BLACK
6
CONTINUOUS
10
0.712726
20
0.687741
11
0.712527
21
0.687473
0
LINE
8
BLACK
6
CONTINUOUS
10
0.712527
20
0.687473
11
0.635835
21
0.61078
0
LINE
8
BLACK
6
CONTINUOUS
10
0.635835
20
0.61078
11
0.632527
21
0.607473
0
LINE
8
BLACK
6
CONTINUOUS
10
0.632527
20
0.607473
11
0.63052
21
0.605745
0
LINE
8
BLACK
6
CONTINUOUS
10
0.63052
20
0.605745
11
0.630225
21
0.605589
0
LINE
8
BLACK
6
CONTINUOUS
10
0.630225
20
0.605589
11
0.62998
21
0.605362
0
LINE
8
BLACK
6
CONTINUOUS
10
0.62998
20
0.605362
11
0.627896
21
0.604358
0
LINE
8
BLACK
6
CONTINUOUS
10
0.627896
20
0.604358
11
0.625851
21
0.603278
0
LINE
8
BLACK
6
CONTINUOUS
10
0.625851
20
0.603278
11
0.625523
21
0.603216
0
LINE
8
BLACK
6
CONTINUOUS
10
0.625523
20
0.603216
11
0.625222
21
0.603071
0
LINE
8
BLACK
6
CONTINUOUS
10
0.625222
20
0.603071
11
0.622935
21
0.602726
0
LINE
8
BLACK
6
CONTINUOUS
10
0.622935
20
0.602726
11
0.620662
21
0.602296
0
LINE
8
BLACK
6
CONTINUOUS
10
0.620662
20
0.602296
11
0.62033
21
0.602333
0
LINE
8
BLACK
6
CONTINUOUS
10
0.62033
20
0.602333
11
0.62
21
0.602283
0
LINE
8
BLACK
6
CONTINUOUS
10
0.62
20
0.602283
11
0.588584
21
0.602283
0
LINE
8
BLACK
6
CONTINUOUS
10
0.588584
20
0.602283
11
0.553773
21
0.567473
0
LINE
8
BLACK
6
CONTINUOUS
10
0.553773
20
0.567473
11
0.551766
21
0.565745
0
LINE
8
BLACK
6
CONTINUOUS
10
0.551766
20
0.565745
11
0.551471
21
0.565589
0
LINE
8
BLACK
6
CONTINUOUS
10
0.551471
20
0.565589
11
0.551226
21
0.565362
0
LINE
8
BLACK
6
CONTINUOUS
10
0.551226
20
0.565362
11
0.549142
21
0.564358
0
LINE
8
BLACK
6
CONTINUOUS
10
0.549142
20
0.564358
11
0.547097
21
0.563278
0
LINE
8
BLACK
6
CONTINUOUS
10
0.547097
20
0.563278
11
0.546769
21
0.563216
0
LINE
8
BLACK
6
CONTINUOUS
10
0.546769
20
0.563216
11
0.546468
21
0.563071
0
LINE
8
BLACK
6
CONTINUOUS
10
0.546468
20
0.563071
11
0.544181
21
0.562726
0
LINE
8
BLACK
6
CONTINUOUS
10
0.544181
20
0.562726
11
0.541908
21
0.562296
0
LINE
8
BLACK
6
CONTINUOUS
10
0.541908
20
0.562296
11
0.541576
21
0.562333
0
LINE
8
BLACK
6
CONTINUOUS
10
0.541576
20
0.562333
11
0.541246
21
0.562283
0
LINE
8
BLACK
6
CONTINUOUS
10
0.541246
20
0.562283
11
0.424157
21
0.562283
0
LINE
8
BLACK
6
CONTINUOUS
10
0.424157
20
0.562283
11
0.426926
21
0.558811
0
LINE
8
BLACK
6
CONTINUOUS
10
0.426926
20
0.558811
11
0.432075
21
0.549894
0
LINE
8
BLACK
6
CONTINUOUS
10
0.432075
20
0.549894
11
0.435837
21
0.540308
0
LINE
8
BLACK
6
CONTINUOUS
10
0.435837
20
0.540308
11
0.438128
21
0.530269
0
LINE
8
BLACK
6
CONTINUOUS
10
0.438128
20
0.530269
11
0.438898
21
0.52
0
LINE
8
BLACK
6
CONTINUOUS
10
0.438898
20
0.52
11
0.438128
21
0.509731
0
LINE
8
BLACK
6
CONTINUOUS
10
0.438128
20
0.509731
11
0.435837
21
0.499692
0
LINE
8
BLACK
6
CONTINUOUS
10
0.435837
20
0.499692
11
0.432075
21
0.490106
0
LINE
8
BLACK
6
CONTINUOUS
10
0.432075
20
0.490106
11
0.426926
21
0.481189
0
LINE
8
BLACK
6
CONTINUOUS
10
0.426926
20
0.481189
11
0.420506
21
0.473138
0
LINE
8
BLACK
6
CONTINUOUS
10
0.420506
20
0.473138
11
0.412957
21
0.466134
0
LINE
8
BLACK
6
CONTINUOUS
10
0.412957
20
0.466134
11
0.404449
21
0.460333
0
LINE
8
BLACK
6
CONTINUOUS
10
0.404449
20
0.460333
11
0.395171
21
0.455865
0
LINE
8
BLACK
6
CONTINUOUS
10
0.395171
20
0.455865
11
0.385331
21
0.45283
0
LINE
8
BLACK
6
CONTINUOUS
10
0.385331
20
0.45283
11
0.375149
21
0.451295
0
LINE
8
BLACK
6
CONTINUOUS
10
0.375149
20
0.451295
11
0.364851
21
0.451295
0
LINE
8
BLACK
6
CONTINUOUS
10
0.364851
20
0.451295
11
0.354669
21
0.45283
0
LINE
8
BLACK
6
CONTINUOUS
10
0.354669
20
0.45283
11
0.344829
21
0.455865
0
LINE
8
BLACK
6
CONTINUOUS
10
0.344829
20
0.455865
11
0.335551
21
0.460333
0
LINE
8
BLACK
6
CONTINUOUS
10
0.335551
20
0.460333
11
0.327043
21
0.466134
0
LINE
8
BLACK
6
CONTINUOUS
10
0.327043
20
0.466134
11
0.319494
21
0.473138
0
LINE
8
BLACK
6
CONTINUOUS
10
0.319494
20
0.473138
11
0.313074
21
0.481189
0
LINE
8
BLACK
6
CONTINUOUS
10
0.313074
20
0.481189
11
0.307925
21
0.490106
0
LINE
8
BLACK
6
CONTINUOUS
10
0.307925
20
0.490106
11
0.304163
21
0.499692
0
LINE
8
BLACK
6
CONTINUOUS
10
0.304163
20
0.499692
11
0.301872
21
0.509731
0
LINE
8
BLACK
6
CONTINUOUS
10
0.301872
20
0.509731
11
0.301102
21
0.52
0
LINE
8
BLACK
6
CONTINUOUS
10
0.301102
20
0.52
11
0.301872
21
0.530269
0
LINE
8
BLACK
6
CONTINUOUS
10
0.301872
20
0.530269
11
0.304163
21
0.540308
0
LINE
8
BLACK
6
CONTINUOUS
10
0.304163
20
0.540308
11
0.307925
21
0.549894
0
LINE
8
BLACK
6
CONTINUOUS
10
0.307925
20
0.549894
11
0.313074
21
0.558811
0
LINE
8
BLACK
6
CONTINUOUS
10
0.313074
20
0.558811
11
0.315843
21
0.562283
0
LINE
8
BLACK
6
CONTINUOUS
10
0.315843
20
0.562283
11
0.22
21
0.562283
0
LINE
8
BLACK
6
CONTINUOUS
10
0.22
20
0.562283
11
0.22
21
0.55
0
LINE
8
BLACK
6
CONTINUOUS
10
0.22
20
0.55
11
0.16
21
0.55
0
LINE
8
BLACK
6
CONTINUOUS
10
0.16
20
0.55
11
0.16
21
0.61
0
LINE
8
BLACK
6
CONTINUOUS
10
0.16
20
0.61
11
0.22
21
0.61
0
LINE
8
BLACK
6
CONTINUOUS
10
0.22
20
0.61
11
0.22
21
0.597717
0
LINE
8
BLACK
6
CONTINUOUS
10
0.22
20
0.597717
11
0.533908
21
0.597717
0
LINE
8
BLACK
6
CONTINUOUS
10
0.533908
20
0.597717
11
0.568719
21
0.632527
0
LINE
8
BLACK
6
CONTINUOUS
10
0.568719
20
0.632527
11
0.570726
21
0.634255
0
LINE
8
BLACK
6
CONTINUOUS
10
0.570726
20
0.634255
11
0.571021
21
0.634411
0
LINE
8
BLACK
6
CONTINUOUS
10
0.571021
20
0.634411
11
0.571266
21
0.634638
0
LINE
8
BLACK
6
CONTINUOUS
10
0.571266
20
0.634638
11
0.57335
21
0.635641
0
LINE
8
BLACK
6
CONTINUOUS
10
0.57335
20
0.635641
11
0.575395
21
0.636722
0
LINE
8
BLACK
6
CONTINUOUS
10
0.575395
20
0.636722
11
0.575723
21
0.636784
0
LINE
8
BLACK
6
CONTINUOUS
10
0.575723
20
0.636784
11
0.576024
21
0.636929
0
LINE
8
BLACK
6
CONTINUOUS
10
0.576024
20
0.636929
11
0.578311
21
0.637274
0
LINE
8
BLACK
6
CONTINUOUS
10
0.578311
20
0.637274
11
0.580584
21
0.637704
0
LINE
8
BLACK
6
CONTINUOUS
10
0.580584
20
0.637704
11
0.580916
21
0.637667
0
LINE
8
BLACK
6
CONTINUOUS
10
0.580916
20
0.637667
11
0.581246
21
0.637717
0
LINE
8
BLACK
6
CONTINUOUS
10
0.581246
20
0.637717
11
0.612662
21
0.637717
0
LINE
8
BLACK
6
CONTINUOUS
10
0.612662
20
0.637717
11
0.682283
21
0.707338
0
LINE
8
BLACK
6
CONTINUOUS
10
0.682283
20
0.707338
11
0.682283
21
0.812662
0
LINE
8
BLACK
6
CONTINUOUS
10
0.682283
20
0.812662
11
0.552662
21
0.942283
0
LINE
8
BLACK
6
CONTINUOUS
10
0.552662
20
0.942283
11
0.42
21
0.942283
0
LINE
8
BLACK
6
CONTINUOUS
10
0.42
20
0.942283
11
0.417359
21
0.942481
0
LINE
8
BLACK
6
CONTINUOUS
10
0.417359
20
0.942481
11
0.41704
21
0.94258
0
LINE
8
BLACK
6
CONTINUOUS
10
0.41704
20
0.94258
11
0.416706
21
0.942592
0
LINE
8
BLACK
6
CONTINUOUS
10
0.416706
20
0.942592
11
0.414524
21
0.943356
0
LINE
8
BLACK
6
CONTINUOUS
10
0.414524
20
0.943356
11
0.412313
21
0.944038
0
LINE
8
BLACK
6
CONTINUOUS
10
0.412313
20
0.944038
11
0.412037
21
0.944226
0
LINE
8
BLACK
6
CONTINUOUS
10
0.412037
20
0.944226
11
0.411722
21
0.944337
0
LINE
8
BLACK
6
CONTINUOUS
10
0.411722
20
0.944337
11
0.409861
21
0.94571
0
LINE
8
BLACK
6
CONTINUOUS
10
0.409861
20
0.94571
11
0.40795
21
0.947013
0
LINE
8
BLACK
6
CONTINUOUS
10
0.40795
20
0.947013
11
0.407741
21
0.947274
0
LINE
8
BLACK
6
CONTINUOUS
10
0.407741
20
0.947274
11
0.407473
21
0.947473
0
LINE
8
BLACK
6
CONTINUOUS
10
0.407473
20
0.947473
11
0.387473
21
0.967473
0
LINE
8
BLACK
6
CONTINUOUS
10
0.387473
20
0.967473
11
0.385745
21
0.96948
0
LINE
8
BLACK
6
CONTINUOUS
10
0.385745
20
0.96948
11
0.383278
21
0.974149
0
LINE
8
BLACK
6
CONTINUOUS
10
0.383278
20
0.974149
11
0.382296
21
0.979338
0
LINE
8
BLACK
6
CONTINUOUS
10
0.382296
20
0.979338
11
0.382887
21
0.984585
0
LINE
8
BLACK
6
CONTINUOUS
10
0.382887
20
0.984585
11
0.384999
21
0.989426
0
LINE
8
BLACK
6
CONTINUOUS
10
0.384999
20
0.989426
11
0.388444
21
0.993429
0
LINE
8
BLACK
6
CONTINUOUS
10
0.388444
20
0.993429
11
0.392915
21
0.996238
0
LINE
8
BLACK
6
CONTINUOUS
10
0.392915
20
0.996238
11
0.398016
21
0.997605
0
LINE
8
BLACK
6
CONTINUOUS
10
0.398016
20
0.997605
11
0.403294
21
0.997408
0
LINE
8
BLACK
6
CONTINUOUS
10
0.685331
20
0.58717
11
0.695171
21
0.584135
0
LINE
8
BLACK
6
CONTINUOUS
10
0.695171
20
0.584135
11
0.704449
21
0.579667
0
LINE
8
BLACK
6
CONTINUOUS
10
0.704449
20
0.579667
11
0.712957
21
0.573866
0
LINE
8
BLACK
6
CONTINUOUS
10
0.712957
20
0.573866
11
0.720506
21
0.566862
0
LINE
8
BLACK
6
CONTINUOUS
10
0.720506
20
0.566862
11
0.726926
21
0.558811
0
LINE
8
BLACK
6
CONTINUOUS
10
0.726926
20
0.558811
11
0.732075
21
0.549894
0
LINE
8
BLACK
6
CONTINUOUS
10
0.732075
20
0.549894
11
0.735837
21
0.540308
0
LINE
8
BLACK
6
CONTINUOUS
10
0.735837
20
0.540308
11
0.738128
21
0.530269
0
LINE
8
BLACK
6
CONTINUOUS
10
0.738128
20
0.530269
11
0.738898
21
0.52
0
LINE
8
BLACK
6
CONTINUOUS
10
0.738898
20
0.52
11
0.738128
21
0.509731
0
LINE
8
BLACK
6
CONTINUOUS
10
0.738128
20
0.509731
11
0.735837
21
0.499692
0
LINE
8
BLACK
6
CONTINUOUS
10
0.735837
20
0.499692
11
0.732075
21
0.490106
0
LINE
8
BLACK
6
CONTINUOUS
10
0.732075
20
0.490106
11
0.726926
21
0.481189
0
LINE
8
BLACK
6
CONTINUOUS
10
0.726926
20
0.481189
11
0.720506
21
0.473138
0
LINE
8
BLACK
6
CONTINUOUS
10
0.720506
20
0.473138
11
0.712957
21
0.466134
0
LINE
8
BLACK
6
CONTINUOUS
10
0.712957
20
0.466134
11
0.704449
21
0.460333
0
LINE
8
BLACK
6
CONTINUOUS
10
0.704449
20
0.460333
11
0.695171
21
0.455865
0
LINE
8
BLACK
6
CONTINUOUS
10
0.695171
20
0.455865
11
0.685331
21
0.45283
0
LINE
8
BLACK
6
CONTINUOUS
10
0.685331
20
0.45283
11
0.675149
21
0.451295
0
LINE
8
BLACK
6
CONTINUOUS
10
0.675149
20
0.451295
11
0.664851
21
0.451295
0
LINE
8
BLACK
6
CONTINUOUS
10
0.664851
20
0.451295
11
0.654669
21
0.45283
0
LINE
8
BLACK
6
CONTINUOUS
10
0.654669
20
0.45283
11
0.644829
21
0.455865
0
LINE
8
BLACK
6
CONTINUOUS
10
0.644829
20
0.455865
11
0.635551
21
0.460333
0
LINE
8
BLACK
6
CONTINUOUS
10
0.635551
20
0.460333
11
0.627043
21
0.466134
0
LINE
8
BLACK
6
CONTINUOUS
10
0.627043
20
0.466134
11
0.619494
21
0.473138
0
LINE
8
BLACK
6
CONTINUOUS
10
0.619494
20
0.473138
11
0.613074
21
0.481189
0
LINE
8
BLACK
6
CONTINUOUS
10
0.613074
20
0.481189
11
0.607925
21
0.490106
0
LINE
8
BLACK
6
CONTINUOUS
10
0.607925
20
0.490106
11
0.604163
21
0.499692
0
LINE
8
BLACK
6
CONTINUOUS
10
0.604163
20
0.499692
11
0.601872
21
0.509731
0
LINE
8
BLACK
6
CONTINUOUS
10
0.601872
20
0.509731
11
0.601102
21
0.52
0
LINE
8
BLACK
6
CONTINUOUS
10
0.601102
20
0.52
11
0.601872
21
0.530269
0
LINE
8
BLACK
6
CONTINUOUS
10
0.601872
20
0.530269
11
0.604163
21
0.540308
0
LINE
8
BLACK
6
CONTINUOUS
10
0.604163
20
0.540308
11
0.607925
21
0.549894
0
LINE
8
BLACK
6
CONTINUOUS
10
0.607925
20
0.549894
11
0.613074
21
0.558811
0
LINE
8
BLACK
6
CONTINUOUS
10
0.613074
20
0.558811
11
0.619494
21
0.566862
0
LINE
8
BLACK
6
CONTINUOUS
10
0.619494
20
0.566862
11
0.627043
21
0.573866
0
LINE
8
BLACK
6
CONTINUOUS
10
0.627043
20
0.573866
11
0.635551
21
0.579667
0
LINE
8
BLACK
6
CONTINUOUS
10
0.635551
20
0.579667
11
0.644829
21
0.584135
0
LINE
8
BLACK
6
CONTINUOUS
10
0.644829
20
0.584135
11
0.654669
21
0.58717
0
LINE
8
BLACK
6
CONTINUOUS
10
0.654669
20
0.58717
11
0.664851
21
0.588705
0
LINE
8
BLACK
6
CONTINUOUS
10
0.664851
20
0.588705
11
0.675149
21
0.588705
0
LINE
8
BLACK
6
CONTINUOUS
10
0.675149
20
0.588705
11
0.685331
21
0.58717
0
LINE
8
BLACK
6
CONTINUOUS
10
0.12
20
0.55
11
0.06
21
0.55
0
LINE
8
BLACK
6
CONTINUOUS
10
0.06
20
0.55
11
0.06
21
0.61
0
LINE
8
BLACK
6
CONTINUOUS
10
0.06
20
0.61
11
0.12
21
0.61
0
LINE
8
BLACK
6
CONTINUOUS
10
0.12
20
0.61
11
0.12
21
0.55
0
LINE
8
BLACK
6
CONTINUOUS
10
0.22
20
0.857717
11
0.42
21
0.857717
0
LINE
8
BLACK
6
CONTINUOUS
10
0.42
20
0.857717
11
0.422641
21
0.857519
0
LINE
8
BLACK
6
CONTINUOUS
10
0.422641
20
0.857519
11
0.42296
21
0.85742
0
LINE
8
BLACK
6
CONTINUOUS
10
0.42296
20
0.85742
11
0.423294
21
0.857408
0
LINE
8
BLACK
6
CONTINUOUS
10
0.423294
20
0.857408
11
0.425477
21
0.856644
0
LINE
8
BLACK
6
CONTINUOUS
10
0.425477
20
0.856644
11
0.427687
21
0.855962
0
LINE
8
BLACK
6
CONTINUOUS
10
0.427687
20
0.855962
11
0.427963
21
0.855774
0
LINE
8
BLACK
6
CONTINUOUS
10
0.427963
20
0.855774
11
0.428278
21
0.855663
0
LINE
8
BLACK
6
CONTINUOUS
10
0.428278
20
0.855663
11
0.430139
21
0.85429
0
LINE
8
BLACK
6
CONTINUOUS
10
0.430139
20
0.85429
11
0.43205
21
0.852987
0
LINE
8
BLACK
6
CONTINUOUS
10
0.43205
20
0.852987
11
0.432259
21
0.852726
0
LINE
8
BLACK
6
CONTINUOUS
10
0.432259
20
0.852726
11
0.432527
21
0.852527
0
LINE
8
BLACK
6
CONTINUOUS
10
0.432527
20
0.852527
11
0.592527
21
0.692527
0
LINE
8
BLACK
6
CONTINUOUS
10
0.592527
20
0.692527
11
0.594255
21
0.69052
0
LINE
8
BLACK
6
CONTINUOUS
10
0.594255
20
0.69052
11
0.596722
21
0.685851
0
LINE
8
BLACK
6
CONTINUOUS
10
0.596722
20
0.685851
11
0.597704
21
0.680662
0
LINE
8
BLACK
6
CONTINUOUS
10
0.597704
20
0.680662
11
0.597113
21
0.675415
0
LINE
8
BLACK
6
CONTINUOUS
10
0.597113
20
0.675415
11
0.595001
21
0.670574
0
LINE
8
BLACK
6
CONTINUOUS
10
0.595001
20
0.670574
11
0.591556
21
0.666571
0
LINE
8
BLACK
6
CONTINUOUS
10
0.591556
20
0.666571
11
0.587085
21
0.663762
0
LINE
8
BLACK
6
CONTINUOUS
10
0.587085
20
0.663762
11
0.581984
21
0.662395
0
LINE
8
BLACK
6
CONTINUOUS
10
0.581984
20
0.662395
11
0.576706
21
0.662592
0
LINE
8
BLACK
6
CONTINUOUS
10
0.576706
20
0.662592
11
0.571722
21
0.664337
0
LINE
8
BLACK
6
CONTINUOUS
10
0.571722
20
0.664337
11
0.567473
21
0.667473
0
LINE
8
BLACK
6
CONTINUOUS
10
0.567473
20
0.667473
11
0.412662
21
0.822283
0
LINE
8
BLACK
6
CONTINUOUS
10
0.412662
20
0.822283
11
0.22
21
0.822283
0
LINE
8
BLACK
6
CONTINUOUS
10
0.22
20
0.822283
11
0.22
21
0.81
0
LINE
8
BLACK
6
CONTINUOUS
10
0.22
20
0.81
11
0.16
21
0.81
0
LINE
8
BLACK
6
CONTINUOUS
10
0.16
20
0.81
11
0.16
21
0.87
0
LINE
8
BLACK
6
CONTINUOUS
10
0.16
20
0.87
11
0.22
21
0.87
0
LINE
8
BLACK
6
CONTINUOUS
10
0.22
20
0.87
11
0.22
21
0.857717
0
LINE
8
BLACK
6
CONTINUOUS
10
0.12
20
0.81
11
0.06
21
0.81
0
LINE
8
BLACK
6
CONTINUOUS
10
0.06
20
0.81
11
0.06
21
0.87
0
LINE
8
BLACK
6
CONTINUOUS
10
0.06
20
0.87
11
0.12
21
0.87
0
LINE
8
BLACK
6
CONTINUOUS
10
0.12
20
0.87
11
0.12
21
0.81
0
LINE
8
BLACK
6
CONTINUOUS
10
0.12
20
1.01
11
0.06
21
1.01
0
LINE
8
BLACK
6
CONTINUOUS
10
0.06
20
1.01
11
0.06
21
1.07
0
LINE
8
BLACK
6
CONTINUOUS
10
0.06
20
1.07
11
0.12
21
1.07
0
LINE
8
BLACK
6
CONTINUOUS
10
0.12
20
1.07
11
0.12
21
1.01
0
LINE
8
BLACK
6
CONTINUOUS
10
0.22
20
1.01
11
0.16
21
1.01
0
LINE
8
BLACK
6
CONTINUOUS
10
0.16
20
1.01
11
0.16
21
1.07
0
LINE
8
BLACK
6
CONTINUOUS
10
0.16
20
1.07
11
0.22
21
1.07
0
LINE
8
BLACK
6
CONTINUOUS
10
0.22
20
1.07
11
0.22
21
1.01
0
LINE
8
BLACK
6
CONTINUOUS
10
0.385331
20
1.18717
11
0.395171
21
1.18413
0
LINE
8
BLACK
6
CONTINUOUS
10
0.395171
20
1.18413
11
0.404449
21
1.17967
0
LINE
8
BLACK
6
CONTINUOUS
10
0.404449
20
1.17967
11
0.412957
21
1.17387
0
LINE
8
BLACK
6
CONTINUOUS
10
0.412957
20
1.17387
11
0.420506
21
1.16686
0
LINE
8
BLACK
6
CONTINUOUS
10
0.420506
20
1.16686
11
0.426926
21
1.15881
0
LINE
8
BLACK
6
CONTINUOUS
10
0.426926
20
1.15881
11
0.432075
21
1.14989
0
LINE
8
BLACK
6
CONTINUOUS
10
0.432075
20
1.14989
11
0.435837
21
1.14031
0
LINE
8
BLACK
6
CONTINUOUS
10
0.435837
20
1.14031
11
0.438128
21
1.13027
0
LINE
8
BLACK
6
CONTINUOUS
10
0.438128
20
1.13027
11
0.438898
21
1.12
0
LINE
8
BLACK
6
CONTINUOUS
10
0.438898
20
1.12
11
0.438128
21
1.10973
0
LINE
8
BLACK
6
CONTINUOUS
10
0.438128
20
1.10973
11
0.435837
21
1.09969
0
LINE
8
BLACK
6
CONTINUOUS
10
0.435837
20
1.09969
11
0.432075
21
1.09011
0
LINE
8
BLACK
6
CONTINUOUS
10
0.432075
20
1.09011
11
0.426926
21
1.08119
0
LINE
8
BLACK
6
CONTINUOUS
10
0.426926
20
1.08119
11
0.420506
21
1.07314
0
LINE
8
BLACK
6
CONTINUOUS
10
0.420506
20
1.07314
11
0.412957
21
1.06613
0
LINE
8
BLACK
6
CONTINUOUS
10
0.412957
20
1.06613
11
0.404449
21
1.06033
0
LINE
8
BLACK
6
CONTINUOUS
10
0.404449
20
1.06033
11
0.395171
21
1.05587
0
LINE
8
BLACK
6
CONTINUOUS
10
0.395171
20
1.05587
11
0.385331
21
1.05283
0
LINE
8
BLACK
6
CONTINUOUS
10
0.385331
20
1.05283
11
0.375149
21
1.05129
0
LINE
8
BLACK
6
CONTINUOUS
10
0.375149
20
1.05129
11
0.364851
21
1.05129
0
LINE
8
BLACK
6
CONTINUOUS
10
0.364851
20
1.05129
11
0.354669
21
1.05283
0
LINE
8
BLACK
6
CONTINUOUS
10
0.354669
20
1.05283
11
0.344829
21
1.05587
0
LINE
8
BLACK
6
CONTINUOUS
10
0.344829
20
1.05587
11
0.335551
21
1.06033
0
LINE
8
BLACK
6
CONTINUOUS
10
0.335551
20
1.06033
11
0.327043
21
1.06613
0
LINE
8
BLACK
6
CONTINUOUS
10
0.327043
20
1.06613
11
0.319494
21
1.07314
0
LINE
8
BLACK
6
CONTINUOUS
10
0.319494
20
1.07314
11
0.313074
21
1.08119
0
LINE
8
BLACK
6
CONTINUOUS
10
0.313074
20
1.08119
11
0.307925
21
1.09011
0
LINE
8
BLACK
6
CONTINUOUS
10
0.307925
20
1.09011
11
0.304163
21
1.09969
0
LINE
8
BLACK
6
CONTINUOUS
10
0.304163
20
1.09969
11
0.301872
21
1.10973
0
LINE
8
BLACK
6
CONTINUOUS
10
0.301872
20
1.10973
11
0.301102
21
1.12
0
LINE
8
BLACK
6
CONTINUOUS
10
0.301102
20
1.12
11
0.301872
21
1.13027
0
LINE
8
BLACK
6
CONTINUOUS
10
0.301872
20
1.13027
11
0.304163
21
1.14031
0
LINE
8
BLACK
6
CONTINUOUS
10
0.304163
20
1.14031
11
0.307925
21
1.14989
0
LINE
8
BLACK
6
CONTINUOUS
10
0.307925
20
1.14989
11
0.313074
21
1.15881
0
LINE
8
BLACK
6
CONTINUOUS
10
0.313074
20
1.15881
11
0.319494
21
1.16686
0
LINE
8
BLACK
6
CONTINUOUS
10
0.319494
20
1.16686
11
0.327043
21
1.17387
0
LINE
8
BLACK
6
CONTINUOUS
10
0.327043
20
1.17387
11
0.335551
21
1.17967
0
LINE
8
BLACK
6
CONTINUOUS
10
0.335551
20
1.17967
11
0.344829
21
1.18413
0
LINE
8
BLACK
6
CONTINUOUS
10
0.344829
20
1.18413
11
0.354669
21
1.18717
0
LINE
8
BLACK
6
CONTINUOUS
10
0.354669
20
1.18717
11
0.364851
21
1.1887
0
LINE
8
BLACK
6
CONTINUOUS
10
0.364851
20
1.1887
11
0.375149
21
1.1887
0
LINE
8
BLACK
6
CONTINUOUS
10
0.375149
20
1.1887
11
0.385331
21
1.18717
0
LINE
8
BLACK
6
CONTINUOUS
10
0.784749
20
1.58624
11
0.786579
21
1.58413
0
LINE
8
BLACK
6
CONTINUOUS
10
0.786579
20
1.58413
11
0.787028
21
1.58207
0
LINE
8
BLACK
6
CONTINUOUS
10
0.787028
20
1.58207
11
0.787028
21
0.0179331
0
LINE
8
BLACK
6
CONTINUOUS
10
0.787028
20
0.0179331
11
0.78624
21
0.0152511
0
LINE
8
BLACK
6
CONTINUOUS
10
0.78624
20
0.0152511
11
0.784128
21
0.0134207
0
LINE
8
BLACK
6
CONTINUOUS
10
0.784128
20
0.0134207
11
0.782067
21
0.0129724
0
LINE
8
BLACK
6
CONTINUOUS
10
0.782067
20
0.0129724
11
0.0179331
21
0.0129724
0
LINE
8
BLACK
6
CONTINUOUS
10
0.0179331
20
0.0129724
11
0.0152511
21
0.0137599
0
LINE
8
BLACK
6
CONTINUOUS
10
0.0152511
20
0.0137599
11
0.0134207
21
0.0158724
0
LINE
8
BLACK
6
CONTINUOUS
10
0.0134207
20
0.0158724
11
0.0129724
21
0.0179331
0
LINE
8
BLACK
6
CONTINUOUS
10
0.0129724
20
0.0179331
11
0.0129724
21
0.548085
0
LINE
8
BLACK
6
CONTINUOUS
10
0.0129724
20
0.548085
11
0.0129724
21
1.00808
0
LINE
8
BLACK
6
CONTINUOUS
10
0.0129724
20
1.00808
11
0.0129724
21
1.12
0
LINE
8
BLACK
6
CONTINUOUS
10
0.0129724
20
1.12
11
0.0129724
21
1.58207
0
LINE
8
BLACK
6
CONTINUOUS
10
0.0129724
20
1.58207
11
0.0137599
21
1.58475
0
LINE
8
BLACK
6
CONTINUOUS
10
0.0137599
20
1.58475
11
0.0158724
21
1.58658
0
LINE
8
BLACK
6
CONTINUOUS
10
0.0158724
20
1.58658
11
0.0179331
21
1.58703
0
LINE
8
BLACK
6
CONTINUOUS
10
0.0179331
20
1.58703
11
0.782067
21
1.58703
0
LINE
8
BLACK
6
CONTINUOUS
10
0.782067
20
1.58703
11
0.784749
21
1.58624
0
LINE
8
BLACK
6
CONTINUOUS
10
0.399039
20
1.01792
11
0.399039
21
1.01792
0
LINE
8
BLACK
6
CONTINUOUS
10
0.399039
20
1.01792
11
0.391426
21
1.01695
0
LINE
8
BLACK
6
CONTINUOUS
10
0.391426
20
1.01695
11
0.391426
21
1.01695
0
LINE
8
BLACK
6
CONTINUOUS
10
0.391426
20
1.01695
11
0.391426
21
1.01695
0
LINE
8
BLACK
6
CONTINUOUS
10
0.391426
20
1.01695
11
0.384164
21
1.01447
0
LINE
8
BLACK
6
CONTINUOUS
10
0.384164
20
1.01447
11
0.37755
21
1.01057
0
LINE
8
BLACK
6
CONTINUOUS
10
0.37755
20
1.01057
11
0.37755
21
1.01057
0
LINE
8
BLACK
6
CONTINUOUS
10
0.37755
20
1.01057
11
0.371855
21
1.00543
0
LINE
8
BLACK
6
CONTINUOUS
10
0.371855
20
1.00543
11
0.371855
21
1.00543
0
LINE
8
BLACK
6
CONTINUOUS
10
0.371855
20
1.00543
11
0.367312
21
0.999242
0
LINE
8
BLACK
6
CONTINUOUS
10
0.367312
20
0.999242
11
0.367312
21
0.999242
0
LINE
8
BLACK
6
CONTINUOUS
10
0.367312
20
0.999242
11
0.364108
21
0.992268
0
LINE
8
BLACK
6
CONTINUOUS
10
0.364108
20
0.992268
11
0.362373
21
0.984792
0
LINE
8
BLACK
6
CONTINUOUS
10
0.362373
20
0.984792
11
0.362179
21
0.97712
0
LINE
8
BLACK
6
CONTINUOUS
10
0.362179
20
0.97712
11
0.362179
21
0.97712
0
LINE
8
BLACK
6
CONTINUOUS
10
0.362179
20
0.97712
11
0.363533
21
0.969565
0
LINE
8
BLACK
6
CONTINUOUS
10
0.363533
20
0.969565
11
0.36638
21
0.962438
0
LINE
8
BLACK
6
CONTINUOUS
10
0.36638
20
0.962438
11
0.36638
21
0.962438
0
LINE
8
BLACK
6
CONTINUOUS
10
0.36638
20
0.962438
11
0.370603
21
0.95603
0
LINE
8
BLACK
6
CONTINUOUS
10
0.370603
20
0.95603
11
0.370603
21
0.95603
0
LINE
8
BLACK
6
CONTINUOUS
10
0.370603
20
0.95603
11
0.392979
21
0.933654
0
LINE
8
BLACK
6
CONTINUOUS
10
0.392979
20
0.933654
11
0.395293
21
0.93122
0
LINE
8
BLACK
6
CONTINUOUS
10
0.395293
20
0.93122
11
0.397187
21
0.929901
0
LINE
8
BLACK
6
CONTINUOUS
10
0.397187
20
0.929901
11
0.397338
21
0.929788
0
LINE
8
BLACK
6
CONTINUOUS
10
0.397338
20
0.929788
11
0.399127
21
0.928329
0
LINE
8
BLACK
6
CONTINUOUS
10
0.399127
20
0.928329
11
0.399127
21
0.928329
0
LINE
8
BLACK
6
CONTINUOUS
10
0.399127
20
0.928329
11
0.400267
21
0.927733
0
LINE
8
BLACK
6
CONTINUOUS
10
0.400267
20
0.927733
11
0.400536
21
0.92757
0
LINE
8
BLACK
6
CONTINUOUS
10
0.400536
20
0.92757
11
0.401592
21
0.926835
0
LINE
8
BLACK
6
CONTINUOUS
10
0.401592
20
0.926835
11
0.401592
21
0.926835
0
LINE
8
BLACK
6
CONTINUOUS
10
0.401592
20
0.926835
11
0.403714
21
0.925925
0
LINE
8
BLACK
6
CONTINUOUS
10
0.403714
20
0.925925
11
0.403884
21
0.925844
0
LINE
8
BLACK
6
CONTINUOUS
10
0.403884
20
0.925844
11
0.405929
21
0.924775
0
LINE
8
BLACK
6
CONTINUOUS
10
0.405929
20
0.924775
11
0.40593
21
0.924775
0
LINE
8
BLACK
6
CONTINUOUS
10
0.40593
20
0.924775
11
0.407166
21
0.924422
0
LINE
8
BLACK
6
CONTINUOUS
10
0.407166
20
0.924422
11
0.407462
21
0.924316
0
LINE
8
BLACK
6
CONTINUOUS
10
0.407462
20
0.924316
11
0.408645
21
0.923809
0
LINE
8
BLACK
6
CONTINUOUS
10
0.408645
20
0.923809
11
0.410906
21
0.923344
0
LINE
8
BLACK
6
CONTINUOUS
10
0.410906
20
0.923344
11
0.411089
21
0.923299
0
LINE
8
BLACK
6
CONTINUOUS
10
0.411089
20
0.923299
11
0.413308
21
0.922664
0
LINE
8
BLACK
6
CONTINUOUS
10
0.413308
20
0.922664
11
0.414591
21
0.922566
0
LINE
8
BLACK
6
CONTINUOUS
10
0.414591
20
0.922566
11
0.414902
21
0.922523
0
LINE
8
BLACK
6
CONTINUOUS
10
0.414902
20
0.922523
11
0.416163
21
0.922264
0
LINE
8
BLACK
6
CONTINUOUS
10
0.416163
20
0.922264
11
0.418471
21
0.922264
0
LINE
8
BLACK
6
CONTINUOUS
10
0.418471
20
0.922264
11
0.418659
21
0.922257
0
LINE
8
BLACK
6
CONTINUOUS
10
0.418659
20
0.922257
11
0.419854
21
0.922166
0
LINE
8
BLACK
6
CONTINUOUS
10
0.419854
20
0.922166
11
0.420961
21
0.922081
0
LINE
8
BLACK
6
CONTINUOUS
10
0.420961
20
0.922081
11
0.420961
21
0.922081
0
LINE
8
BLACK
6
CONTINUOUS
10
0.420961
20
0.922081
11
0.420961
21
0.922081
0
LINE
8
BLACK
6
CONTINUOUS
10
0.420961
20
0.922081
11
0.421473
21
0.922146
0
LINE
8
BLACK
6
CONTINUOUS
10
0.421473
20
0.922146
11
0.422237
21
0.922244
0
LINE
8
BLACK
6
CONTINUOUS
10
0.422237
20
0.922244
11
0.422551
21
0.922264
0
LINE
8
BLACK
6
CONTINUOUS
10
0.422551
20
0.922264
11
0.542314
21
0.922264
0
LINE
8
BLACK
6
CONTINUOUS
10
0.542314
20
0.922264
11
0.544996
21
0.921476
0
LINE
8
BLACK
6
CONTINUOUS
10
0.544996
20
0.921476
11
0.545822
21
0.920811
0
LINE
8
BLACK
6
CONTINUOUS
10
0.545822
20
0.920811
11
0.660811
21
0.805822
0
LINE
8
BLACK
6
CONTINUOUS
10
0.660811
20
0.805822
11
0.66215
21
0.803369
0
LINE
8
BLACK
6
CONTINUOUS
10
0.66215
20
0.803369
11
0.662264
21
0.802314
0
LINE
8
BLACK
6
CONTINUOUS
10
0.662264
20
0.802314
11
0.662264
21
0.717686
0
LINE
8
BLACK
6
CONTINUOUS
10
0.662264
20
0.717686
11
0.661476
21
0.715004
0
LINE
8
BLACK
6
CONTINUOUS
10
0.661476
20
0.715004
11
0.660811
21
0.714178
0
LINE
8
BLACK
6
CONTINUOUS
10
0.660811
20
0.714178
11
0.626283
21
0.67965
0
LINE
8
BLACK
6
CONTINUOUS
10
0.626283
20
0.67965
11
0.62383
21
0.67831
0
LINE
8
BLACK
6
CONTINUOUS
10
0.62383
20
0.67831
11
0.621042
21
0.67851
0
LINE
8
BLACK
6
CONTINUOUS
10
0.621042
20
0.67851
11
0.618804
21
0.680185
0
LINE
8
BLACK
6
CONTINUOUS
10
0.618804
20
0.680185
11
0.617884
21
0.682636
0
LINE
8
BLACK
6
CONTINUOUS
10
0.617884
20
0.682636
11
0.617866
21
0.682633
0
LINE
8
BLACK
6
CONTINUOUS
10
0.617866
20
0.682633
11
0.617848
21
0.68273
0
LINE
8
BLACK
6
CONTINUOUS
10
0.617848
20
0.68273
11
0.617829
21
0.682782
0
LINE
8
BLACK
6
CONTINUOUS
10
0.617829
20
0.682782
11
0.617821
21
0.682879
0
LINE
8
BLACK
6
CONTINUOUS
10
0.617821
20
0.682879
11
0.617821
21
0.68288
0
LINE
8
BLACK
6
CONTINUOUS
10
0.617821
20
0.68288
11
0.616467
21
0.690435
0
LINE
8
BLACK
6
CONTINUOUS
10
0.616467
20
0.690435
11
0.61362
21
0.697562
0
LINE
8
BLACK
6
CONTINUOUS
10
0.61362
20
0.697562
11
0.609397
21
0.70397
0
LINE
8
BLACK
6
CONTINUOUS
10
0.609397
20
0.70397
11
0.447021
21
0.866346
0
LINE
8
BLACK
6
CONTINUOUS
10
0.447021
20
0.866346
11
0.444707
21
0.86878
0
LINE
8
BLACK
6
CONTINUOUS
10
0.444707
20
0.86878
11
0.443428
21
0.86967
0
LINE
8
BLACK
6
CONTINUOUS
10
0.443428
20
0.86967
11
0.442812
21
0.870099
0
LINE
8
BLACK
6
CONTINUOUS
10
0.442812
20
0.870099
11
0.442663
21
0.870212
0
LINE
8
BLACK
6
CONTINUOUS
10
0.442663
20
0.870212
11
0.440873
21
0.871671
0
LINE
8
BLACK
6
CONTINUOUS
10
0.440873
20
0.871671
11
0.439732
21
0.872267
0
LINE
8
BLACK
6
CONTINUOUS
10
0.439732
20
0.872267
11
0.439464
21
0.872429
0
LINE
8
BLACK
6
CONTINUOUS
10
0.439464
20
0.872429
11
0.438408
21
0.873165
0
LINE
8
BLACK
6
CONTINUOUS
10
0.438408
20
0.873165
11
0.436286
21
0.874075
0
LINE
8
BLACK
6
CONTINUOUS
10
0.436286
20
0.874075
11
0.436117
21
0.874155
0
LINE
8
BLACK
6
CONTINUOUS
10
0.436117
20
0.874155
11
0.43407
21
0.875225
0
LINE
8
BLACK
6
CONTINUOUS
10
0.43407
20
0.875225
11
0.432833
21
0.875579
0
LINE
8
BLACK
6
CONTINUOUS
10
0.432833
20
0.875579
11
0.432537
21
0.875684
0
LINE
8
BLACK
6
CONTINUOUS
10
0.432537
20
0.875684
11
0.431355
21
0.876191
0
LINE
8
BLACK
6
CONTINUOUS
10
0.431355
20
0.876191
11
0.431355
21
0.876191
0
LINE
8
BLACK
6
CONTINUOUS
10
0.431355
20
0.876191
11
0.431355
21
0.876191
0
LINE
8
BLACK
6
CONTINUOUS
10
0.431355
20
0.876191
11
0.431355
21
0.876191
0
LINE
8
BLACK
6
CONTINUOUS
10
0.431355
20
0.876191
11
0.430115
21
0.876446
0
LINE
8
BLACK
6
CONTINUOUS
10
0.430115
20
0.876446
11
0.429093
21
0.876656
0
LINE
8
BLACK
6
CONTINUOUS
10
0.429093
20
0.876656
11
0.428911
21
0.876701
0
LINE
8
BLACK
6
CONTINUOUS
10
0.428911
20
0.876701
11
0.426692
21
0.877336
0
LINE
8
BLACK
6
CONTINUOUS
10
0.426692
20
0.877336
11
0.425409
21
0.877434
0
LINE
8
BLACK
6
CONTINUOUS
10
0.425409
20
0.877434
11
0.425098
21
0.877477
0
LINE
8
BLACK
6
CONTINUOUS
10
0.425098
20
0.877477
11
0.423837
21
0.877736
0
LINE
8
BLACK
6
CONTINUOUS
10
0.423837
20
0.877736
11
0.423837
21
0.877736
0
LINE
8
BLACK
6
CONTINUOUS
10
0.423837
20
0.877736
11
0.421529
21
0.877736
0
LINE
8
BLACK
6
CONTINUOUS
10
0.421529
20
0.877736
11
0.421341
21
0.877743
0
LINE
8
BLACK
6
CONTINUOUS
10
0.421341
20
0.877743
11
0.419039
21
0.877919
0
LINE
8
BLACK
6
CONTINUOUS
10
0.419039
20
0.877919
11
0.417763
21
0.877756
0
LINE
8
BLACK
6
CONTINUOUS
10
0.417763
20
0.877756
11
0.417449
21
0.877736
0
LINE
8
BLACK
6
CONTINUOUS
10
0.417449
20
0.877736
11
0.2417
21
0.877736
0
LINE
8
BLACK
6
CONTINUOUS
10
0.2417
20
0.877736
11
0.239018
21
0.878524
0
LINE
8
BLACK
6
CONTINUOUS
10
0.239018
20
0.878524
11
0.237728
21
0.879724
0
LINE
8
BLACK
6
CONTINUOUS
10
0.237728
20
0.879724
11
0.234302
21
0.884302
0
LINE
8
BLACK
6
CONTINUOUS
10
0.234302
20
0.884302
11
0.229693
21
0.887751
0
LINE
8
BLACK
6
CONTINUOUS
10
0.229693
20
0.887751
11
0.229693
21
0.887751
0
LINE
8
BLACK
6
CONTINUOUS
10
0.229693
20
0.887751
11
0.229693
21
0.887752
0
LINE
8
BLACK
6
CONTINUOUS
10
0.229693
20
0.887752
11
0.224299
21
0.889763
0
LINE
8
BLACK
6
CONTINUOUS
10
0.224299
20
0.889763
11
0.224299
21
0.889763
0
LINE
8
BLACK
6
CONTINUOUS
10
0.224299
20
0.889763
11
0.224299
21
0.889763
0
LINE
8
BLACK
6
CONTINUOUS
10
0.224299
20
0.889763
11
0.221915
21
0.89002
0
LINE
8
BLACK
6
CONTINUOUS
10
0.221915
20
0.89002
11
0.221915
21
0.89002
0
LINE
8
BLACK
6
CONTINUOUS
10
0.221915
20
0.89002
11
0.221915
21
0.89002
0
LINE
8
BLACK
6
CONTINUOUS
10
0.221915
20
0.89002
11
0.158085
21
0.89002
0
LINE
8
BLACK
6
CONTINUOUS
10
0.158085
20
0.89002
11
0.158085
21
0.89002
0
LINE
8
BLACK
6
CONTINUOUS
10
0.158085
20
0.89002
11
0.158085
21
0.89002
0
LINE
8
BLACK
6
CONTINUOUS
10
0.158085
20
0.89002
11
0.155701
21
0.889763
0
LINE
8
BLACK
6
CONTINUOUS
10
0.155701
20
0.889763
11
0.155701
21
0.889763
0
LINE
8
BLACK
6
CONTINUOUS
10
0.155701
20
0.889763
11
0.152633
21
0.888619
0
LINE
8
BLACK
6
CONTINUOUS
10
0.152633
20
0.888619
11
0.150307
21
0.887752
0
LINE
8
BLACK
6
CONTINUOUS
10
0.150307
20
0.887752
11
0.150307
21
0.887751
0
LINE
8
BLACK
6
CONTINUOUS
10
0.150307
20
0.887751
11
0.150307
21
0.887751
0
LINE
8
BLACK
6
CONTINUOUS
10
0.150307
20
0.887751
11
0.145698
21
0.884302
0
LINE
8
BLACK
6
CONTINUOUS
10
0.145698
20
0.884302
11
0.143971
21
0.881994
0
LINE
8
BLACK
6
CONTINUOUS
10
0.143971
20
0.881994
11
0.141734
21
0.880319
0
LINE
8
BLACK
6
CONTINUOUS
10
0.141734
20
0.880319
11
0.138946
21
0.88012
0
LINE
8
BLACK
6
CONTINUOUS
10
0.138946
20
0.88012
11
0.136492
21
0.881459
0
LINE
8
BLACK
6
CONTINUOUS
10
0.136492
20
0.881459
11
0.136029
21
0.881994
0
LINE
8
BLACK
6
CONTINUOUS
10
0.136029
20
0.881994
11
0.134302
21
0.884302
0
LINE
8
BLACK
6
CONTINUOUS
10
0.134302
20
0.884302
11
0.129693
21
0.887751
0
LINE
8
BLACK
6
CONTINUOUS
10
0.129693
20
0.887751
11
0.129693
21
0.887751
0
LINE
8
BLACK
6
CONTINUOUS
10
0.129693
20
0.887751
11
0.129693
21
0.887752
0
LINE
8
BLACK
6
CONTINUOUS
10
0.129693
20
0.887752
11
0.124299
21
0.889763
0
LINE
8
BLACK
6
CONTINUOUS
10
0.124299
20
0.889763
11
0.124299
21
0.889763
0
LINE
8
BLACK
6
CONTINUOUS
10
0.124299
20
0.889763
11
0.124299
21
0.889763
0
LINE
8
BLACK
6
CONTINUOUS
10
0.124299
20
0.889763
11
0.121915
21
0.89002
0
LINE
8
BLACK
6
CONTINUOUS
10
0.121915
20
0.89002
11
0.121915
21
0.89002
0
LINE
8
BLACK
6
CONTINUOUS
10
0.121915
20
0.89002
11
0.121915
21
0.89002
0
LINE
8
BLACK
6
CONTINUOUS
10
0.121915
20
0.89002
11
0.0580851
21
0.89002
0
LINE
8
BLACK
6
CONTINUOUS
10
0.0580851
20
0.89002
11
0.0580848
21
0.89002
0
LINE
8
BLACK
6
CONTINUOUS
10
0.0580848
20
0.89002
11
0.0580846
21
0.89002
0
LINE
8
BLACK
6
CONTINUOUS
10
0.0580846
20
0.89002
11
0.0557009
21
0.889763
0
LINE
8
BLACK
6
CONTINUOUS
10
0.0557009
20
0.889763
11
0.0557006
21
0.889763
0
LINE
8
BLACK
6
CONTINUOUS
10
0.0557006
20
0.889763
11
0.0526329
21
0.888619
0
LINE
8
BLACK
6
CONTINUOUS
10
0.0526329
20
0.888619
11
0.0503069
21
0.887752
0
LINE
8
BLACK
6
CONTINUOUS
10
0.0503069
20
0.887752
11
0.0503069
21
0.887751
0
LINE
8
BLACK
6
CONTINUOUS
10
0.0503069
20
0.887751
11
0.0503068
21
0.887751
0
LINE
8
BLACK
6
CONTINUOUS
10
0.0503068
20
0.887751
11
0.0459055
21
0.884457
0
LINE
8
BLACK
6
CONTINUOUS
10
0.0459055
20
0.884457
11
0.0459055
21
0.795543
0
LINE
8
BLACK
6
CONTINUOUS
10
0.0459055
20
0.795543
11
0.0503068
21
0.792249
0
LINE
8
BLACK
6
CONTINUOUS
10
0.0503068
20
0.792249
11
0.050307
21
0.792248
0
LINE
8
BLACK
6
CONTINUOUS
10
0.050307
20
0.792248
11
0.0557006
21
0.790237
0
LINE
8
BLACK
6
CONTINUOUS
10
0.0557006
20
0.790237
11
0.0557009
21
0.790237
0
LINE
8
BLACK
6
CONTINUOUS
10
0.0557009
20
0.790237
11
0.0580846
21
0.78998
0
LINE
8
BLACK
6
CONTINUOUS
10
0.0580846
20
0.78998
11
0.0580851
21
0.78998
0
LINE
8
BLACK
6
CONTINUOUS
10
0.0580851
20
0.78998
11
0.121915
21
0.78998
0
LINE
8
BLACK
6
CONTINUOUS
10
0.121915
20
0.78998
11
0.124299
21
0.790237
0
LINE
8
BLACK
6
CONTINUOUS
10
0.124299
20
0.790237
11
0.124299
21
0.790237
0
LINE
8
BLACK
6
CONTINUOUS
10
0.124299
20
0.790237
11
0.129693
21
0.792248
0
LINE
8
BLACK
6
CONTINUOUS
10
0.129693
20
0.792248
11
0.129693
21
0.792249
0
LINE
8
BLACK
6
CONTINUOUS
10
0.129693
20
0.792249
11
0.134302
21
0.795698
0
LINE
8
BLACK
6
CONTINUOUS
10
0.134302
20
0.795698
11
0.136029
21
0.798006
0
LINE
8
BLACK
6
CONTINUOUS
10
0.136029
20
0.798006
11
0.138266
21
0.799681
0
LINE
8
BLACK
6
CONTINUOUS
10
0.138266
20
0.799681
11
0.141054
21
0.79988
0
LINE
8
BLACK
6
CONTINUOUS
10
0.141054
20
0.79988
11
0.143508
21
0.79854
0
LINE
8
BLACK
6
CONTINUOUS
10
0.143508
20
0.79854
11
0.143971
21
0.798006
0
LINE
8
BLACK
6
CONTINUOUS
10
0.143971
20
0.798006
11
0.145698
21
0.795698
0
LINE
8
BLACK
6
CONTINUOUS
10
0.145698
20
0.795698
11
0.150307
21
0.792249
0
LINE
8
BLACK
6
CONTINUOUS
10
0.150307
20
0.792249
11
0.150307
21
0.792248
0
LINE
8
BLACK
6
CONTINUOUS
10
0.150307
20
0.792248
11
0.155701
21
0.790237
0
LINE
8
BLACK
6
CONTINUOUS
10
0.155701
20
0.790237
11
0.155701
21
0.790237
0
LINE
8
BLACK
6
CONTINUOUS
10
0.155701
20
0.790237
11
0.158085
21
0.78998
0
LINE
8
BLACK
6
CONTINUOUS
10
0.158085
20
0.78998
11
0.158085
21
0.78998
0
LINE
8
BLACK
6
CONTINUOUS
10
0.158085
20
0.78998
11
0.221915
21
0.78998
0
LINE
8
BLACK
6
CONTINUOUS
10
0.221915
20
0.78998
11
0.224299
21
0.790237
0
LINE
8
BLACK
6
CONTINUOUS
10
0.224299
20
0.790237
11
0.224299
21
0.790237
0
LINE
8
BLACK
6
CONTINUOUS
10
0.224299
20
0.790237
11
0.229693
21
0.792248
0
LINE
8
BLACK
6
CONTINUOUS
10
0.229693
20
0.792248
11
0.229693
21
0.792249
0
LINE
8
BLACK
6
CONTINUOUS
10
0.229693
20
0.792249
11
0.234302
21
0.795698
0
LINE
8
BLACK
6
CONTINUOUS
10
0.234302
20
0.795698
11
0.237728
21
0.800276
0
LINE
8
BLACK
6
CONTINUOUS
10
0.237728
20
0.800276
11
0.239966
21
0.801951
0
LINE
8
BLACK
6
CONTINUOUS
10
0.239966
20
0.801951
11
0.2417
21
0.802264
0
LINE
8
BLACK
6
CONTINUOUS
10
0.2417
20
0.802264
11
0.402314
21
0.802264
0
LINE
8
BLACK
6
CONTINUOUS
10
0.402314
20
0.802264
11
0.404996
21
0.801476
0
LINE
8
BLACK
6
CONTINUOUS
10
0.404996
20
0.801476
11
0.405822
21
0.800811
0
LINE
8
BLACK
6
CONTINUOUS
10
0.405822
20
0.800811
11
0.553621
21
0.653011
0
LINE
8
BLACK
6
CONTINUOUS
10
0.553621
20
0.653011
11
0.554961
21
0.650558
0
LINE
8
BLACK
6
CONTINUOUS
10
0.554961
20
0.650558
11
0.554762
21
0.64777
0
LINE
8
BLACK
6
CONTINUOUS
10
0.554762
20
0.64777
11
0.553878
21
0.646355
0
LINE
8
BLACK
6
CONTINUOUS
10
0.553878
20
0.646355
11
0.553908
21
0.646332
0
LINE
8
BLACK
6
CONTINUOUS
10
0.553908
20
0.646332
11
0.553754
21
0.646133
0
LINE
8
BLACK
6
CONTINUOUS
10
0.553754
20
0.646133
11
0.553754
21
0.646133
0
LINE
8
BLACK
6
CONTINUOUS
10
0.553754
20
0.646133
11
0.552966
21
0.645115
0
LINE
8
BLACK
6
CONTINUOUS
10
0.552966
20
0.645115
11
0.552759
21
0.64488
0
LINE
8
BLACK
6
CONTINUOUS
10
0.552759
20
0.64488
11
0.537899
21
0.63002
0
LINE
8
BLACK
6
CONTINUOUS
10
0.537899
20
0.63002
11
0.527068
21
0.619189
0
LINE
8
BLACK
6
CONTINUOUS
10
0.527068
20
0.619189
11
0.524615
21
0.61785
0
LINE
8
BLACK
6
CONTINUOUS
10
0.524615
20
0.61785
11
0.52356
21
0.617736
0
LINE
8
BLACK
6
CONTINUOUS
10
0.52356
20
0.617736
11
0.2417
21
0.617736
0
LINE
8
BLACK
6
CONTINUOUS
10
0.2417
20
0.617736
11
0.239018
21
0.618524
0
LINE
8
BLACK
6
CONTINUOUS
10
0.239018
20
0.618524
11
0.237728
21
0.619724
0
LINE
8
BLACK
6
CONTINUOUS
10
0.237728
20
0.619724
11
0.234302
21
0.624302
0
LINE
8
BLACK
6
CONTINUOUS
10
0.234302
20
0.624302
11
0.229693
21
0.627751
0
LINE
8
BLACK
6
CONTINUOUS
10
0.229693
20
0.627751
11
0.229693
21
0.627751
0
LINE
8
BLACK
6
CONTINUOUS
10
0.229693
20
0.627751
11
0.229693
21
0.627752
0
LINE
8
BLACK
6
CONTINUOUS
10
0.229693
20
0.627752
11
0.224299
21
0.629763
0
LINE
8
BLACK
6
CONTINUOUS
10
0.224299
20
0.629763
11
0.224299
21
0.629763
0
LINE
8
BLACK
6
CONTINUOUS
10
0.224299
20
0.629763
11
0.224299
21
0.629763
0
LINE
8
BLACK
6
CONTINUOUS
10
0.224299
20
0.629763
11
0.221915
21
0.63002
0
LINE
8
BLACK
6
CONTINUOUS
10
0.221915
20
0.63002
11
0.221915
21
0.63002
0
LINE
8
BLACK
6
CONTINUOUS
10
0.221915
20
0.63002
11
0.221915
21
0.63002
0
LINE
8
BLACK
6
CONTINUOUS
10
0.221915
20
0.63002
11
0.158085
21
0.63002
0
LINE
8
BLACK
6
CONTINUOUS
10
0.158085
20
0.63002
11
0.158085
21
0.63002
0
LINE
8
BLACK
6
CONTINUOUS
10
0.158085
20
0.63002
11
0.158085
21
0.63002
0
LINE
8
BLACK
6
CONTINUOUS
10
0.158085
20
0.63002
11
0.155701
21
0.629763
0
LINE
8
BLACK
6
CONTINUOUS
10
0.155701
20
0.629763
11
0.155701
21
0.629763
0
LINE
8
BLACK
6
CONTINUOUS
10
0.155701
20
0.629763
11
0.152633
21
0.628619
0
LINE
8
BLACK
6
CONTINUOUS
10
0.152633
20
0.628619
11
0.150307
21
0.627752
0
LINE
8
BLACK
6
CONTINUOUS
10
0.150307
20
0.627752
11
0.150307
21
0.627751
0
LINE
8
BLACK
6
CONTINUOUS
10
0.150307
20
0.627751
11
0.150307
21
0.627751
0
LINE
8
BLACK
6
CONTINUOUS
10
0.150307
20
0.627751
11
0.145698
21
0.624302
0
LINE
8
BLACK
6
CONTINUOUS
10
0.145698
20
0.624302
11
0.143971
21
0.621994
0
LINE
8
BLACK
6
CONTINUOUS
10
0.143971
20
0.621994
11
0.141734
21
0.620319
0
LINE
8
BLACK
6
CONTINUOUS
10
0.141734
20
0.620319
11
0.138946
21
0.62012
0
LINE
8
BLACK
6
CONTINUOUS
10
0.138946
20
0.62012
11
0.136492
21
0.621459
0
LINE
8
BLACK
6
CONTINUOUS
10
0.136492
20
0.621459
11
0.136029
21
0.621994
0
LINE
8
BLACK
6
CONTINUOUS
10
0.136029
20
0.621994
11
0.134302
21
0.624302
0
LINE
8
BLACK
6
CONTINUOUS
10
0.134302
20
0.624302
11
0.129693
21
0.627751
0
LINE
8
BLACK
6
CONTINUOUS
10
0.129693
20
0.627751
11
0.129693
21
0.627751
0
LINE
8
BLACK
6
CONTINUOUS
10
0.129693
20
0.627751
11
0.129693
21
0.627752
0
LINE
8
BLACK
6
CONTINUOUS
10
0.129693
20
0.627752
11
0.124299
21
0.629763
0
LINE
8
BLACK
6
CONTINUOUS
10
0.124299
20
0.629763
11
0.124299
21
0.629763
0
LINE
8
BLACK
6
CONTINUOUS
10
0.124299
20
0.629763
11
0.124299
21
0.629763
0
LINE
8
BLACK
6
CONTINUOUS
10
0.124299
20
0.629763
11
0.121915
21
0.63002
0
LINE
8
BLACK
6
CONTINUOUS
10
0.121915
20
0.63002
11
0.121915
21
0.63002
0
LINE
8
BLACK
6
CONTINUOUS
10
0.121915
20
0.63002
11
0.121915
21
0.63002
0
LINE
8
BLACK
6
CONTINUOUS
10
0.121915
20
0.63002
11
0.0580851
21
0.63002
0
LINE
8
BLACK
6
CONTINUOUS
10
0.0580851
20
0.63002
11
0.0580848
21
0.63002
0
LINE
8
BLACK
6
CONTINUOUS
10
0.0580848
20
0.63002
11
0.0580846
21
0.63002
0
LINE
8
BLACK
6
CONTINUOUS
10
0.0580846
20
0.63002
11
0.0557009
21
0.629763
0
LINE
8
BLACK
6
CONTINUOUS
10
0.0557009
20
0.629763
11
0.0557006
21
0.629763
0
LINE
8
BLACK
6
CONTINUOUS
10
0.0557006
20
0.629763
11
0.0526329
21
0.628619
0
LINE
8
BLACK
6
CONTINUOUS
10
0.0526329
20
0.628619
11
0.0503069
21
0.627752
0
LINE
8
BLACK
6
CONTINUOUS
10
0.0503069
20
0.627752
11
0.0503069
21
0.627751
0
LINE
8
BLACK
6
CONTINUOUS
10
0.0503069
20
0.627751
11
0.0503068
21
0.627751
0
LINE
8
BLACK
6
CONTINUOUS
10
0.0503068
20
0.627751
11
0.0459055
21
0.624457
0
LINE
8
BLACK
6
CONTINUOUS
10
0.0459055
20
0.624457
11
0.0459055
21
0.535543
0
LINE
8
BLACK
6
CONTINUOUS
10
0.0459055
20
0.535543
11
0.0503068
21
0.532249
0
LINE
8
BLACK
6
CONTINUOUS
10
0.0503068
20
0.532249
11
0.050307
21
0.532248
0
LINE
8
BLACK
6
CONTINUOUS
10
0.050307
20
0.532248
11
0.0557006
21
0.530237
0
LINE
8
BLACK
6
CONTINUOUS
10
0.0557006
20
0.530237
11
0.0557009
21
0.530237
0
LINE
8
BLACK
6
CONTINUOUS
10
0.0557009
20
0.530237
11
0.0580846
21
0.52998
0
LINE
8
BLACK
6
CONTINUOUS
10
0.0580846
20
0.52998
11
0.0580851
21
0.52998
0
LINE
8
BLACK
6
CONTINUOUS
10
0.0580851
20
0.52998
11
0.121915
21
0.52998
0
LINE
8
BLACK
6
CONTINUOUS
10
0.121915
20
0.52998
11
0.124299
21
0.530237
0
LINE
8
BLACK
6
CONTINUOUS
10
0.124299
20
0.530237
11
0.124299
21
0.530237
0
LINE
8
BLACK
6
CONTINUOUS
10
0.124299
20
0.530237
11
0.129693
21
0.532248
0
LINE
8
BLACK
6
CONTINUOUS
10
0.129693
20
0.532248
11
0.129693
21
0.532249
0
LINE
8
BLACK
6
CONTINUOUS
10
0.129693
20
0.532249
11
0.134302
21
0.535698
0
LINE
8
BLACK
6
CONTINUOUS
10
0.134302
20
0.535698
11
0.136029
21
0.538006
0
LINE
8
BLACK
6
CONTINUOUS
10
0.136029
20
0.538006
11
0.138266
21
0.539681
0
LINE
8
BLACK
6
CONTINUOUS
10
0.138266
20
0.539681
11
0.141054
21
0.53988
0
LINE
8
BLACK
6
CONTINUOUS
10
0.141054
20
0.53988
11
0.143508
21
0.53854
0
LINE
8
BLACK
6
CONTINUOUS
10
0.143508
20
0.53854
11
0.143971
21
0.538006
0
LINE
8
BLACK
6
CONTINUOUS
10
0.143971
20
0.538006
11
0.145698
21
0.535698
0
LINE
8
BLACK
6
CONTINUOUS
10
0.145698
20
0.535698
11
0.150307
21
0.532249
0
LINE
8
BLACK
6
CONTINUOUS
10
0.150307
20
0.532249
11
0.150307
21
0.532248
0
LINE
8
BLACK
6
CONTINUOUS
10
0.150307
20
0.532248
11
0.155701
21
0.530237
0
LINE
8
BLACK
6
CONTINUOUS
10
0.155701
20
0.530237
11
0.155701
21
0.530237
0
LINE
8
BLACK
6
CONTINUOUS
10
0.155701
20
0.530237
11
0.158085
21
0.52998
0
LINE
8
BLACK
6
CONTINUOUS
10
0.158085
20
0.52998
11
0.158085
21
0.52998
0
LINE
8
BLACK
6
CONTINUOUS
10
0.158085
20
0.52998
11
0.221915
21
0.52998
0
LINE
8
BLACK
6
CONTINUOUS
10
0.221915
20
0.52998
11
0.224299
21
0.530237
0
LINE
8
BLACK
6
CONTINUOUS
10
0.224299
20
0.530237
11
0.224299
21
0.530237
0
LINE
8
BLACK
6
CONTINUOUS
10
0.224299
20
0.530237
11
0.229693
21
0.532248
0
LINE
8
BLACK
6
CONTINUOUS
10
0.229693
20
0.532248
11
0.229693
21
0.532249
0
LINE
8
BLACK
6
CONTINUOUS
10
0.229693
20
0.532249
11
0.234302
21
0.535698
0
LINE
8
BLACK
6
CONTINUOUS
10
0.234302
20
0.535698
11
0.237728
21
0.540276
0
LINE
8
BLACK
6
CONTINUOUS
10
0.237728
20
0.540276
11
0.239966
21
0.541951
0
LINE
8
BLACK
6
CONTINUOUS
10
0.239966
20
0.541951
11
0.2417
21
0.542264
0
LINE
8
BLACK
6
CONTINUOUS
10
0.2417
20
0.542264
11
0.277725
21
0.542264
0
LINE
8
BLACK
6
CONTINUOUS
10
0.277725
20
0.542264
11
0.280407
21
0.541476
0
LINE
8
BLACK
6
CONTINUOUS
10
0.280407
20
0.541476
11
0.282237
21
0.539364
0
LINE
8
BLACK
6
CONTINUOUS
10
0.282237
20
0.539364
11
0.282635
21
0.536597
0
LINE
8
BLACK
6
CONTINUOUS
10
0.282635
20
0.536597
11
0.28259
21
0.536335
0
LINE
8
BLACK
6
CONTINUOUS
10
0.28259
20
0.536335
11
0.281654
21
0.531631
0
LINE
8
BLACK
6
CONTINUOUS
10
0.281654
20
0.531631
11
0.281654
21
0.531631
0
LINE
8
BLACK
6
CONTINUOUS
10
0.281654
20
0.531631
11
0.280892
21
0.52
0
LINE
8
BLACK
6
CONTINUOUS
10
0.280892
20
0.52
11
0.280892
21
0.52
0
LINE
8
BLACK
6
CONTINUOUS
10
0.280892
20
0.52
11
0.281654
21
0.508369
0
LINE
8
BLACK
6
CONTINUOUS
10
0.281654
20
0.508369
11
0.281654
21
0.508369
0
LINE
8
BLACK
6
CONTINUOUS
10
0.281654
20
0.508369
11
0.283928
21
0.496937
0
LINE
8
BLACK
6
CONTINUOUS
10
0.283928
20
0.496937
11
0.283928
21
0.496937
0
LINE
8
BLACK
6
CONTINUOUS
10
0.283928
20
0.496937
11
0.287675
21
0.4859
0
LINE
8
BLACK
6
CONTINUOUS
10
0.287675
20
0.4859
11
0.287675
21
0.4859
0
LINE
8
BLACK
6
CONTINUOUS
10
0.287675
20
0.4859
11
0.29283
21
0.475446
0
LINE
8
BLACK
6
CONTINUOUS
10
0.29283
20
0.475446
11
0.299305
21
0.465755
0
LINE
8
BLACK
6
CONTINUOUS
10
0.299305
20
0.465755
11
0.299306
21
0.465755
0
LINE
8
BLACK
6
CONTINUOUS
10
0.299306
20
0.465755
11
0.299306
21
0.465754
0
LINE
8
BLACK
6
CONTINUOUS
10
0.299306
20
0.465754
11
0.306991
21
0.456991
0
LINE
8
BLACK
6
CONTINUOUS
10
0.306991
20
0.456991
11
0.315754
21
0.449306
0
LINE
8
BLACK
6
CONTINUOUS
10
0.315754
20
0.449306
11
0.315755
21
0.449306
0
LINE
8
BLACK
6
CONTINUOUS
10
0.315755
20
0.449306
11
0.315755
21
0.449305
0
LINE
8
BLACK
6
CONTINUOUS
10
0.315755
20
0.449305
11
0.325446
21
0.44283
0
LINE
8
BLACK
6
CONTINUOUS
10
0.325446
20
0.44283
11
0.3359
21
0.437675
0
LINE
8
BLACK
6
CONTINUOUS
10
0.3359
20
0.437675
11
0.3359
21
0.437675
0
LINE
8
BLACK
6
CONTINUOUS
10
0.3359
20
0.437675
11
0.346937
21
0.433928
0
LINE
8
BLACK
6
CONTINUOUS
10
0.346937
20
0.433928
11
0.346937
21
0.433928
0
LINE
8
BLACK
6
CONTINUOUS
10
0.346937
20
0.433928
11
0.346937
21
0.433928
0
LINE
8
BLACK
6
CONTINUOUS
10
0.346937
20
0.433928
11
0.348851
21
0.433547
0
LINE
8
BLACK
6
CONTINUOUS
10
0.348851
20
0.433547
11
0.358369
21
0.431654
0
LINE
8
BLACK
6
CONTINUOUS
10
0.358369
20
0.431654
11
0.358369
21
0.431654
0
LINE
8
BLACK
6
CONTINUOUS
10
0.358369
20
0.431654
11
0.37
21
0.430892
0
LINE
8
BLACK
6
CONTINUOUS
10
0.37
20
0.430892
11
0.37
21
0.430892
0
LINE
8
BLACK
6
CONTINUOUS
10
0.37
20
0.430892
11
0.37
21
0.430892
0
LINE
8
BLACK
6
CONTINUOUS
10
0.37
20
0.430892
11
0.381631
21
0.431654
0
LINE
8
BLACK
6
CONTINUOUS
10
0.381631
20
0.431654
11
0.381631
21
0.431654
0
LINE
8
BLACK
6
CONTINUOUS
10
0.381631
20
0.431654
11
0.389235
21
0.433167
0
LINE
8
BLACK
6
CONTINUOUS
10
0.389235
20
0.433167
11
0.393063
21
0.433928
0
LINE
8
BLACK
6
CONTINUOUS
10
0.393063
20
0.433928
11
0.393063
21
0.433928
0
LINE
8
BLACK
6
CONTINUOUS
10
0.393063
20
0.433928
11
0.393063
21
0.433928
0
LINE
8
BLACK
6
CONTINUOUS
10
0.393063
20
0.433928
11
0.4041
21
0.437675
0
LINE
8
BLACK
6
CONTINUOUS
10
0.4041
20
0.437675
11
0.4041
21
0.437675
0
LINE
8
BLACK
6
CONTINUOUS
10
0.4041
20
0.437675
11
0.4041
21
0.437675
0
LINE
8
BLACK
6
CONTINUOUS
10
0.4041
20
0.437675
11
0.404866
21
0.438052
0
LINE
8
BLACK
6
CONTINUOUS
10
0.404866
20
0.438052
11
0.414554
21
0.44283
0
LINE
8
BLACK
6
CONTINUOUS
10
0.414554
20
0.44283
11
0.424245
21
0.449305
0
LINE
8
BLACK
6
CONTINUOUS
10
0.424245
20
0.449305
11
0.424245
21
0.449306
0
LINE
8
BLACK
6
CONTINUOUS
10
0.424245
20
0.449306
11
0.424246
21
0.449306
0
LINE
8
BLACK
6
CONTINUOUS
10
0.424246
20
0.449306
11
0.433009
21
0.456991
0
LINE
8
BLACK
6
CONTINUOUS
10
0.433009
20
0.456991
11
0.440694
21
0.465754
0
LINE
8
BLACK
6
CONTINUOUS
10
0.440694
20
0.465754
11
0.44717
21
0.475446
0
LINE
8
BLACK
6
CONTINUOUS
10
0.44717
20
0.475446
11
0.452325
21
0.4859
0
LINE
8
BLACK
6
CONTINUOUS
10
0.452325
20
0.4859
11
0.456072
21
0.496937
0
LINE
8
BLACK
6
CONTINUOUS
10
0.456072
20
0.496937
11
0.458346
21
0.508369
0
LINE
8
BLACK
6
CONTINUOUS
10
0.458346
20
0.508369
11
0.459108
21
0.52
0
LINE
8
BLACK
6
CONTINUOUS
10
0.459108
20
0.52
11
0.458346
21
0.531631
0
LINE
8
BLACK
6
CONTINUOUS
10
0.458346
20
0.531631
11
0.45741
21
0.536335
0
LINE
8
BLACK
6
CONTINUOUS
10
0.45741
20
0.536335
11
0.457659
21
0.539119
0
LINE
8
BLACK
6
CONTINUOUS
10
0.457659
20
0.539119
11
0.459374
21
0.541327
0
LINE
8
BLACK
6
CONTINUOUS
10
0.459374
20
0.541327
11
0.46201
21
0.542257
0
LINE
8
BLACK
6
CONTINUOUS
10
0.46201
20
0.542257
11
0.462275
21
0.542264
0
LINE
8
BLACK
6
CONTINUOUS
10
0.462275
20
0.542264
11
0.540769
21
0.542264
0
LINE
8
BLACK
6
CONTINUOUS
10
0.540769
20
0.542264
11
0.544126
21
0.542179
0
LINE
8
BLACK
6
CONTINUOUS
10
0.544126
20
0.542179
11
0.544126
21
0.542179
0
LINE
8
BLACK
6
CONTINUOUS
10
0.544126
20
0.542179
11
0.546398
21
0.542586
0
LINE
8
BLACK
6
CONTINUOUS
10
0.546398
20
0.542586
11
0.546585
21
0.542612
0
LINE
8
BLACK
6
CONTINUOUS
10
0.546585
20
0.542612
11
0.548881
21
0.542846
0
LINE
8
BLACK
6
CONTINUOUS
10
0.548881
20
0.542846
11
0.548882
21
0.542846
0
LINE
8
BLACK
6
CONTINUOUS
10
0.548882
20
0.542846
11
0.550109
21
0.543231
0
LINE
8
BLACK
6
CONTINUOUS
10
0.550109
20
0.543231
11
0.550414
21
0.543306
0
LINE
8
BLACK
6
CONTINUOUS
10
0.550414
20
0.543306
11
0.551681
21
0.543533
0
LINE
8
BLACK
6
CONTINUOUS
10
0.551681
20
0.543533
11
0.553824
21
0.544389
0
LINE
8
BLACK
6
CONTINUOUS
10
0.553824
20
0.544389
11
0.554001
21
0.544452
0
LINE
8
BLACK
6
CONTINUOUS
10
0.554001
20
0.544452
11
0.554932
21
0.544744
0
LINE
8
BLACK
6
CONTINUOUS
10
0.554932
20
0.544744
11
0.556204
21
0.545143
0
LINE
8
BLACK
6
CONTINUOUS
10
0.556204
20
0.545143
11
0.556204
21
0.545143
0
LINE
8
BLACK
6
CONTINUOUS
10
0.556204
20
0.545143
11
0.557329
21
0.545768
0
LINE
8
BLACK
6
CONTINUOUS
10
0.557329
20
0.545768
11
0.557613
21
0.545902
0
LINE
8
BLACK
6
CONTINUOUS
10
0.557613
20
0.545902
11
0.557805
21
0.545979
0
LINE
8
BLACK
6
CONTINUOUS
10
0.557805
20
0.545979
11
0.558808
21
0.54638
0
LINE
8
BLACK
6
CONTINUOUS
10
0.558808
20
0.54638
11
0.559984
21
0.547155
0
LINE
8
BLACK
6
CONTINUOUS
10
0.559984
20
0.547155
11
0.560735
21
0.54765
0
LINE
8
BLACK
6
CONTINUOUS
10
0.560735
20
0.54765
11
0.560896
21
0.547748
0
LINE
8
BLACK
6
CONTINUOUS
10
0.560896
20
0.547748
11
0.561175
21
0.547902
0
LINE
8
BLACK
6
CONTINUOUS
10
0.561175
20
0.547902
11
0.562915
21
0.548868
0
LINE
8
BLACK
6
CONTINUOUS
10
0.562915
20
0.548868
11
0.563891
21
0.549706
0
LINE
8
BLACK
6
CONTINUOUS
10
0.563891
20
0.549706
11
0.564142
21
0.549895
0
LINE
8
BLACK
6
CONTINUOUS
10
0.564142
20
0.549895
11
0.564943
21
0.550423
0
LINE
8
BLACK
6
CONTINUOUS
10
0.564943
20
0.550423
11
0.565216
21
0.550603
0
LINE
8
BLACK
6
CONTINUOUS
10
0.565216
20
0.550603
11
0.565216
21
0.550603
0
LINE
8
BLACK
6
CONTINUOUS
10
0.565216
20
0.550603
11
0.565216
21
0.550603
0
LINE
8
BLACK
6
CONTINUOUS
10
0.565216
20
0.550603
11
0.566032
21
0.551419
0
LINE
8
BLACK
6
CONTINUOUS
10
0.566032
20
0.551419
11
0.566849
21
0.552236
0
LINE
8
BLACK
6
CONTINUOUS
10
0.566849
20
0.552236
11
0.566986
21
0.552363
0
LINE
8
BLACK
6
CONTINUOUS
10
0.566986
20
0.552363
11
0.568738
21
0.553867
0
LINE
8
BLACK
6
CONTINUOUS
10
0.568738
20
0.553867
11
0.569526
21
0.554884
0
LINE
8
BLACK
6
CONTINUOUS
10
0.569526
20
0.554884
11
0.569733
21
0.55512
0
LINE
8
BLACK
6
CONTINUOUS
10
0.569733
20
0.55512
11
0.584878
21
0.570265
0
LINE
8
BLACK
6
CONTINUOUS
10
0.584878
20
0.570265
11
0.587331
21
0.571604
0
LINE
8
BLACK
6
CONTINUOUS
10
0.587331
20
0.571604
11
0.590119
21
0.571405
0
LINE
8
BLACK
6
CONTINUOUS
10
0.590119
20
0.571405
11
0.592357
21
0.56973
0
LINE
8
BLACK
6
CONTINUOUS
10
0.592357
20
0.56973
11
0.593333
21
0.567111
0
LINE
8
BLACK
6
CONTINUOUS
10
0.593333
20
0.567111
11
0.592834
21
0.564563
0
LINE
8
BLACK
6
CONTINUOUS
10
0.592834
20
0.564563
11
0.587675
21
0.5541
0
LINE
8
BLACK
6
CONTINUOUS
10
0.587675
20
0.5541
11
0.587675
21
0.5541
0
LINE
8
BLACK
6
CONTINUOUS
10
0.587675
20
0.5541
11
0.583928
21
0.543063
0
LINE
8
BLACK
6
CONTINUOUS
10
0.583928
20
0.543063
11
0.583928
21
0.543063
0
LINE
8
BLACK
6
CONTINUOUS
10
0.583928
20
0.543063
11
0.583928
21
0.543063
0
LINE
8
BLACK
6
CONTINUOUS
10
0.583928
20
0.543063
11
0.583613
21
0.541476
0
LINE
8
BLACK
6
CONTINUOUS
10
0.583613
20
0.541476
11
0.581654
21
0.531631
0
LINE
8
BLACK
6
CONTINUOUS
10
0.581654
20
0.531631
11
0.581654
21
0.531631
0
LINE
8
BLACK
6
CONTINUOUS
10
0.581654
20
0.531631
11
0.580892
21
0.52
0
LINE
8
BLACK
6
CONTINUOUS
10
0.580892
20
0.52
11
0.580892
21
0.52
0
LINE
8
BLACK
6
CONTINUOUS
10
0.580892
20
0.52
11
0.581654
21
0.508369
0
LINE
8
BLACK
6
CONTINUOUS
10
0.581654
20
0.508369
11
0.581654
21
0.508369
0
LINE
8
BLACK
6
CONTINUOUS
10
0.581654
20
0.508369
11
0.583928
21
0.496937
0
LINE
8
BLACK
6
CONTINUOUS
10
0.583928
20
0.496937
11
0.583928
21
0.496937
0
LINE
8
BLACK
6
CONTINUOUS
10
0.583928
20
0.496937
11
0.587675
21
0.4859
0
LINE
8
BLACK
6
CONTINUOUS
10
0.587675
20
0.4859
11
0.587675
21
0.4859
0
LINE
8
BLACK
6
CONTINUOUS
10
0.587675
20
0.4859
11
0.59283
21
0.475446
0
LINE
8
BLACK
6
CONTINUOUS
10
0.59283
20
0.475446
11
0.599305
21
0.465755
0
LINE
8
BLACK
6
CONTINUOUS
10
0.599305
20
0.465755
11
0.599306
21
0.465755
0
LINE
8
BLACK
6
CONTINUOUS
10
0.599306
20
0.465755
11
0.599306
21
0.465754
0
LINE
8
BLACK
6
CONTINUOUS
10
0.599306
20
0.465754
11
0.606991
21
0.456991
0
LINE
8
BLACK
6
CONTINUOUS
10
0.606991
20
0.456991
11
0.615754
21
0.449306
0
LINE
8
BLACK
6
CONTINUOUS
10
0.615754
20
0.449306
11
0.615755
21
0.449306
0
LINE
8
BLACK
6
CONTINUOUS
10
0.615755
20
0.449306
11
0.615755
21
0.449305
0
LINE
8
BLACK
6
CONTINUOUS
10
0.615755
20
0.449305
11
0.625446
21
0.44283
0
LINE
8
BLACK
6
CONTINUOUS
10
0.625446
20
0.44283
11
0.6359
21
0.437675
0
LINE
8
BLACK
6
CONTINUOUS
10
0.6359
20
0.437675
11
0.6359
21
0.437675
0
LINE
8
BLACK
6
CONTINUOUS
10
0.6359
20
0.437675
11
0.646937
21
0.433928
0
LINE
8
BLACK
6
CONTINUOUS
10
0.646937
20
0.433928
11
0.646937
21
0.433928
0
LINE
8
BLACK
6
CONTINUOUS
10
0.646937
20
0.433928
11
0.646937
21
0.433928
0
LINE
8
BLACK
6
CONTINUOUS
10
0.646937
20
0.433928
11
0.648851
21
0.433547
0
LINE
8
BLACK
6
CONTINUOUS
10
0.648851
20
0.433547
11
0.658369
21
0.431654
0
LINE
8
BLACK
6
CONTINUOUS
10
0.658369
20
0.431654
11
0.658369
21
0.431654
0
LINE
8
BLACK
6
CONTINUOUS
10
0.658369
20
0.431654
11
0.67
21
0.430892
0
LINE
8
BLACK
6
CONTINUOUS
10
0.67
20
0.430892
11
0.67
21
0.430892
0
LINE
8
BLACK
6
CONTINUOUS
10
0.67
20
0.430892
11
0.67
21
0.430892
0
LINE
8
BLACK
6
CONTINUOUS
10
0.67
20
0.430892
11
0.681631
21
0.431654
0
LINE
8
BLACK
6
CONTINUOUS
10
0.681631
20
0.431654
11
0.681631
21
0.431654
0
LINE
8
BLACK
6
CONTINUOUS
10
0.681631
20
0.431654
11
0.689235
21
0.433167
0
LINE
8
BLACK
6
CONTINUOUS
10
0.689235
20
0.433167
11
0.693063
21
0.433928
0
LINE
8
BLACK
6
CONTINUOUS
10
0.693063
20
0.433928
11
0.693063
21
0.433928
0
LINE
8
BLACK
6
CONTINUOUS
10
0.693063
20
0.433928
11
0.693063
21
0.433928
0
LINE
8
BLACK
6
CONTINUOUS
10
0.693063
20
0.433928
11
0.7041
21
0.437675
0
LINE
8
BLACK
6
CONTINUOUS
10
0.7041
20
0.437675
11
0.7041
21
0.437675
0
LINE
8
BLACK
6
CONTINUOUS
10
0.7041
20
0.437675
11
0.7041
21
0.437675
0
LINE
8
BLACK
6
CONTINUOUS
10
0.7041
20
0.437675
11
0.704866
21
0.438052
0
LINE
8
BLACK
6
CONTINUOUS
10
0.704866
20
0.438052
11
0.714554
21
0.44283
0
LINE
8
BLACK
6
CONTINUOUS
10
0.714554
20
0.44283
11
0.724245
21
0.449305
0
LINE
8
BLACK
6
CONTINUOUS
10
0.724245
20
0.449305
11
0.724245
21
0.449306
0
LINE
8
BLACK
6
CONTINUOUS
10
0.724245
20
0.449306
11
0.724246
21
0.449306
0
LINE
8
BLACK
6
CONTINUOUS
10
0.724246
20
0.449306
11
0.733009
21
0.456991
0
LINE
8
BLACK
6
CONTINUOUS
10
0.733009
20
0.456991
11
0.740694
21
0.465754
0
LINE
8
BLACK
6
CONTINUOUS
10
0.740694
20
0.465754
11
0.74717
21
0.475446
0
LINE
8
BLACK
6
CONTINUOUS
10
0.74717
20
0.475446
11
0.752325
21
0.4859
0
LINE
8
BLACK
6
CONTINUOUS
10
0.752325
20
0.4859
11
0.756072
21
0.496937
0
LINE
8
BLACK
6
CONTINUOUS
10
0.756072
20
0.496937
11
0.758346
21
0.508369
0
LINE
8
BLACK
6
CONTINUOUS
10
0.758346
20
0.508369
11
0.759108
21
0.52
0
LINE
8
BLACK
6
CONTINUOUS
10
0.759108
20
0.52
11
0.758346
21
0.531631
0
LINE
8
BLACK
6
CONTINUOUS
10
0.758346
20
0.531631
11
0.756072
21
0.543063
0
LINE
8
BLACK
6
CONTINUOUS
10
0.756072
20
0.543063
11
0.752325
21
0.5541
0
LINE
8
BLACK
6
CONTINUOUS
10
0.752325
20
0.5541
11
0.74717
21
0.564554
0
LINE
8
BLACK
6
CONTINUOUS
10
0.74717
20
0.564554
11
0.740694
21
0.574246
0
LINE
8
BLACK
6
CONTINUOUS
10
0.740694
20
0.574246
11
0.733009
21
0.583009
0
LINE
8
BLACK
6
CONTINUOUS
10
0.733009
20
0.583009
11
0.724246
21
0.590694
0
LINE
8
BLACK
6
CONTINUOUS
10
0.724246
20
0.590694
11
0.714554
21
0.59717
0
LINE
8
BLACK
6
CONTINUOUS
10
0.714554
20
0.59717
11
0.7041
21
0.602325
0
LINE
8
BLACK
6
CONTINUOUS
10
0.7041
20
0.602325
11
0.693063
21
0.606072
0
LINE
8
BLACK
6
CONTINUOUS
10
0.693063
20
0.606072
11
0.681631
21
0.608346
0
LINE
8
BLACK
6
CONTINUOUS
10
0.681631
20
0.608346
11
0.673863
21
0.608855
0
LINE
8
BLACK
6
CONTINUOUS
10
0.673863
20
0.608855
11
0.671238
21
0.609816
0
LINE
8
BLACK
6
CONTINUOUS
10
0.671238
20
0.609816
11
0.66955
21
0.612044
0
LINE
8
BLACK
6
CONTINUOUS
10
0.66955
20
0.612044
11
0.669334
21
0.614831
0
LINE
8
BLACK
6
CONTINUOUS
10
0.669334
20
0.614831
11
0.670659
21
0.617292
0
LINE
8
BLACK
6
CONTINUOUS
10
0.670659
20
0.617292
11
0.67068
21
0.617313
0
LINE
8
BLACK
6
CONTINUOUS
10
0.67068
20
0.617313
11
0.726346
21
0.672979
0
LINE
8
BLACK
6
CONTINUOUS
10
0.726346
20
0.672979
11
0.72878
21
0.675293
0
LINE
8
BLACK
6
CONTINUOUS
10
0.72878
20
0.675293
11
0.730099
21
0.677188
0
LINE
8
BLACK
6
CONTINUOUS
10
0.730099
20
0.677188
11
0.730212
21
0.677337
0
LINE
8
BLACK
6
CONTINUOUS
10
0.730212
20
0.677337
11
0.731168
21
0.67851
0
LINE
8
BLACK
6
CONTINUOUS
10
0.731168
20
0.67851
11
0.731671
21
0.679127
0
LINE
8
BLACK
6
CONTINUOUS
10
0.731671
20
0.679127
11
0.731944
21
0.67965
0
LINE
8
BLACK
6
CONTINUOUS
10
0.731944
20
0.67965
11
0.732267
21
0.680267
0
LINE
8
BLACK
6
CONTINUOUS
10
0.732267
20
0.680267
11
0.73243
21
0.680536
0
LINE
8
BLACK
6
CONTINUOUS
10
0.73243
20
0.680536
11
0.733165
21
0.681592
0
LINE
8
BLACK
6
CONTINUOUS
10
0.733165
20
0.681592
11
0.734075
21
0.683714
0
LINE
8
BLACK
6
CONTINUOUS
10
0.734075
20
0.683714
11
0.734156
21
0.683883
0
LINE
8
BLACK
6
CONTINUOUS
10
0.734156
20
0.683883
11
0.734843
21
0.6852
0
LINE
8
BLACK
6
CONTINUOUS
10
0.734843
20
0.6852
11
0.735224
21
0.685929
0
LINE
8
BLACK
6
CONTINUOUS
10
0.735224
20
0.685929
11
0.735225
21
0.68593
0
LINE
8
BLACK
6
CONTINUOUS
10
0.735225
20
0.68593
11
0.735579
21
0.687167
0
LINE
8
BLACK
6
CONTINUOUS
10
0.735579
20
0.687167
11
0.735684
21
0.687462
0
LINE
8
BLACK
6
CONTINUOUS
10
0.735684
20
0.687462
11
0.736191
21
0.688645
0
LINE
8
BLACK
6
CONTINUOUS
10
0.736191
20
0.688645
11
0.736656
21
0.690907
0
LINE
8
BLACK
6
CONTINUOUS
10
0.736656
20
0.690907
11
0.736701
21
0.69109
0
LINE
8
BLACK
6
CONTINUOUS
10
0.736701
20
0.69109
11
0.737336
21
0.693308
0
LINE
8
BLACK
6
CONTINUOUS
10
0.737336
20
0.693308
11
0.737434
21
0.694591
0
LINE
8
BLACK
6
CONTINUOUS
10
0.737434
20
0.694591
11
0.737477
21
0.694902
0
LINE
8
BLACK
6
CONTINUOUS
10
0.737477
20
0.694902
11
0.737736
21
0.696163
0
LINE
8
BLACK
6
CONTINUOUS
10
0.737736
20
0.696163
11
0.737736
21
0.698471
0
LINE
8
BLACK
6
CONTINUOUS
10
0.737736
20
0.698471
11
0.737743
21
0.698659
0
LINE
8
BLACK
6
CONTINUOUS
10
0.737743
20
0.698659
11
0.737919
21
0.700961
0
LINE
8
BLACK
6
CONTINUOUS
10
0.737919
20
0.700961
11
0.737756
21
0.702237
0
LINE
8
BLACK
6
CONTINUOUS
10
0.737756
20
0.702237
11
0.737736
21
0.702551
0
LINE
8
BLACK
6
CONTINUOUS
10
0.737736
20
0.702551
11
0.737736
21
0.819523
0
LINE
8
BLACK
6
CONTINUOUS
10
0.737736
20
0.819523
11
0.737821
21
0.82288
0
LINE
8
BLACK
6
CONTINUOUS
10
0.737821
20
0.82288
11
0.737414
21
0.825152
0
LINE
8
BLACK
6
CONTINUOUS
10
0.737414
20
0.825152
11
0.737388
21
0.825339
0
LINE
8
BLACK
6
CONTINUOUS
10
0.737388
20
0.825339
11
0.737308
21
0.826127
0
LINE
8
BLACK
6
CONTINUOUS
10
0.737308
20
0.826127
11
0.737154
21
0.827635
0
LINE
8
BLACK
6
CONTINUOUS
10
0.737154
20
0.827635
11
0.737001
21
0.828125
0
LINE
8
BLACK
6
CONTINUOUS
10
0.737001
20
0.828125
11
0.736769
21
0.828863
0
LINE
8
BLACK
6
CONTINUOUS
10
0.736769
20
0.828863
11
0.736694
21
0.829169
0
LINE
8
BLACK
6
CONTINUOUS
10
0.736694
20
0.829169
11
0.736467
21
0.830434
0
LINE
8
BLACK
6
CONTINUOUS
10
0.736467
20
0.830434
11
0.736467
21
0.830435
0
LINE
8
BLACK
6
CONTINUOUS
10
0.736467
20
0.830435
11
0.735611
21
0.832579
0
LINE
8
BLACK
6
CONTINUOUS
10
0.735611
20
0.832579
11
0.735548
21
0.832755
0
LINE
8
BLACK
6
CONTINUOUS
10
0.735548
20
0.832755
11
0.734857
21
0.834958
0
LINE
8
BLACK
6
CONTINUOUS
10
0.734857
20
0.834958
11
0.734232
21
0.836083
0
LINE
8
BLACK
6
CONTINUOUS
10
0.734232
20
0.836083
11
0.734098
21
0.836367
0
LINE
8
BLACK
6
CONTINUOUS
10
0.734098
20
0.836367
11
0.73362
21
0.837562
0
LINE
8
BLACK
6
CONTINUOUS
10
0.73362
20
0.837562
11
0.732349
21
0.83949
0
LINE
8
BLACK
6
CONTINUOUS
10
0.732349
20
0.83949
11
0.732253
21
0.839649
0
LINE
8
BLACK
6
CONTINUOUS
10
0.732253
20
0.839649
11
0.731132
21
0.841669
0
LINE
8
BLACK
6
CONTINUOUS
10
0.731132
20
0.841669
11
0.730294
21
0.842645
0
LINE
8
BLACK
6
CONTINUOUS
10
0.730294
20
0.842645
11
0.730105
21
0.842895
0
LINE
8
BLACK
6
CONTINUOUS
10
0.730105
20
0.842895
11
0.729397
21
0.84397
0
LINE
8
BLACK
6
CONTINUOUS
10
0.729397
20
0.84397
11
0.727764
21
0.845603
0
LINE
8
BLACK
6
CONTINUOUS
10
0.727764
20
0.845603
11
0.727637
21
0.84574
0
LINE
8
BLACK
6
CONTINUOUS
10
0.727637
20
0.84574
11
0.72754
21
0.845853
0
LINE
8
BLACK
6
CONTINUOUS
10
0.72754
20
0.845853
11
0.726133
21
0.847492
0
LINE
8
BLACK
6
CONTINUOUS
10
0.726133
20
0.847492
11
0.725115
21
0.84828
0
LINE
8
BLACK
6
CONTINUOUS
10
0.725115
20
0.84828
11
0.72488
21
0.848487
0
LINE
8
BLACK
6
CONTINUOUS
10
0.72488
20
0.848487
11
0.587021
21
0.986346
0
LINE
8
BLACK
6
CONTINUOUS
10
0.587021
20
0.986346
11
0.584707
21
0.98878
0
LINE
8
BLACK
6
CONTINUOUS
10
0.584707
20
0.98878
11
0.583428
21
0.98967
0
LINE
8
BLACK
6
CONTINUOUS
10
0.583428
20
0.98967
11
0.582812
21
0.990099
0
LINE
8
BLACK
6
CONTINUOUS
10
0.582812
20
0.990099
11
0.582663
21
0.990212
0
LINE
8
BLACK
6
CONTINUOUS
10
0.582663
20
0.990212
11
0.580873
21
0.991671
0
LINE
8
BLACK
6
CONTINUOUS
10
0.580873
20
0.991671
11
0.579732
21
0.992267
0
LINE
8
BLACK
6
CONTINUOUS
10
0.579732
20
0.992267
11
0.579464
21
0.992429
0
LINE
8
BLACK
6
CONTINUOUS
10
0.579464
20
0.992429
11
0.578408
21
0.993165
0
LINE
8
BLACK
6
CONTINUOUS
10
0.578408
20
0.993165
11
0.576286
21
0.994075
0
LINE
8
BLACK
6
CONTINUOUS
10
0.576286
20
0.994075
11
0.576117
21
0.994155
0
LINE
8
BLACK
6
CONTINUOUS
10
0.576117
20
0.994155
11
0.57407
21
0.995225
0
LINE
8
BLACK
6
CONTINUOUS
10
0.57407
20
0.995225
11
0.572833
21
0.995579
0
LINE
8
BLACK
6
CONTINUOUS
10
0.572833
20
0.995579
11
0.572537
21
0.995684
0
LINE
8
BLACK
6
CONTINUOUS
10
0.572537
20
0.995684
11
0.571355
21
0.996191
0
LINE
8
BLACK
6
CONTINUOUS
10
0.571355
20
0.996191
11
0.571355
21
0.996191
0
LINE
8
BLACK
6
CONTINUOUS
10
0.571355
20
0.996191
11
0.571355
21
0.996191
0
LINE
8
BLACK
6
CONTINUOUS
10
0.571355
20
0.996191
11
0.571355
21
0.996191
0
LINE
8
BLACK
6
CONTINUOUS
10
0.571355
20
0.996191
11
0.570115
21
0.996446
0
LINE
8
BLACK
6
CONTINUOUS
10
0.570115
20
0.996446
11
0.569093
21
0.996656
0
LINE
8
BLACK
6
CONTINUOUS
10
0.569093
20
0.996656
11
0.568911
21
0.996701
0
LINE
8
BLACK
6
CONTINUOUS
10
0.568911
20
0.996701
11
0.566692
21
0.997336
0
LINE
8
BLACK
6
CONTINUOUS
10
0.566692
20
0.997336
11
0.565409
21
0.997434
0
LINE
8
BLACK
6
CONTINUOUS
10
0.565409
20
0.997434
11
0.565098
21
0.997477
0
LINE
8
BLACK
6
CONTINUOUS
10
0.565098
20
0.997477
11
0.563837
21
0.997736
0
LINE
8
BLACK
6
CONTINUOUS
10
0.563837
20
0.997736
11
0.563837
21
0.997736
0
LINE
8
BLACK
6
CONTINUOUS
10
0.563837
20
0.997736
11
0.561529
21
0.997736
0
LINE
8
BLACK
6
CONTINUOUS
10
0.561529
20
0.997736
11
0.561341
21
0.997743
0
LINE
8
BLACK
6
CONTINUOUS
10
0.561341
20
0.997743
11
0.559039
21
0.997919
0
LINE
8
BLACK
6
CONTINUOUS
10
0.559039
20
0.997919
11
0.557763
21
0.997756
0
LINE
8
BLACK
6
CONTINUOUS
10
0.557763
20
0.997756
11
0.557449
21
0.997736
0
LINE
8
BLACK
6
CONTINUOUS
10
0.557449
20
0.997736
11
0.437686
21
0.997736
0
LINE
8
BLACK
6
CONTINUOUS
10
0.437686
20
0.997736
11
0.435004
21
0.998524
0
LINE
8
BLACK
6
CONTINUOUS
10
0.435004
20
0.998524
11
0.434178
21
0.999189
0
LINE
8
BLACK
6
CONTINUOUS
10
0.434178
20
0.999189
11
0.42533
21
1.00804
0
LINE
8
BLACK
6
CONTINUOUS
10
0.42533
20
1.00804
11
0.420873
21
1.01167
0
LINE
8
BLACK
6
CONTINUOUS
10
0.420873
20
1.01167
11
0.41407
21
1.01522
0
LINE
8
BLACK
6
CONTINUOUS
10
0.41407
20
1.01522
11
0.406692
21
1.01734
0
LINE
8
BLACK
6
CONTINUOUS
10
0.406692
20
1.01734
11
0.399039
21
1.01792
0
LINE
8
BLACK
6
CONTINUOUS
10
0.399039
20
1.01792
11
0.399039
21
1.01792
0
LINE
8
BLACK
6
CONTINUOUS
10
0.0580848
20
1.09002
11
0.0580846
21
1.09002
0
LINE
8
BLACK
6
CONTINUOUS
10
0.0580846
20
1.09002
11
0.0557009
21
1.08976
0
LINE
8
BLACK
6
CONTINUOUS
10
0.0557009
20
1.08976
11
0.0557006
21
1.08976
0
LINE
8
BLACK
6
CONTINUOUS
10
0.0557006
20
1.08976
11
0.0526329
21
1.08862
0
LINE
8
BLACK
6
CONTINUOUS
10
0.0526329
20
1.08862
11
0.0503069
21
1.08775
0
LINE
8
BLACK
6
CONTINUOUS
10
0.0503069
20
1.08775
11
0.0503069
21
1.08775
0
LINE
8
BLACK
6
CONTINUOUS
10
0.0503069
20
1.08775
11
0.0503068
21
1.08775
0
LINE
8
BLACK
6
CONTINUOUS
10
0.0503068
20
1.08775
11
0.0459055
21
1.08446
0
LINE
8
BLACK
6
CONTINUOUS
10
0.0459055
20
1.08446
11
0.0459055
21
0.995543
0
LINE
8
BLACK
6
CONTINUOUS
10
0.0459055
20
0.995543
11
0.0503068
21
0.992249
0
LINE
8
BLACK
6
CONTINUOUS
10
0.0503068
20
0.992249
11
0.050307
21
0.992248
0
LINE
8
BLACK
6
CONTINUOUS
10
0.050307
20
0.992248
11
0.0557006
21
0.990237
0
LINE
8
BLACK
6
CONTINUOUS
10
0.0557006
20
0.990237
11
0.0557009
21
0.990237
0
LINE
8
BLACK
6
CONTINUOUS
10
0.0557009
20
0.990237
11
0.0580846
21
0.98998
0
LINE
8
BLACK
6
CONTINUOUS
10
0.0580846
20
0.98998
11
0.0580851
21
0.98998
0
LINE
8
BLACK
6
CONTINUOUS
10
0.0580851
20
0.98998
11
0.121915
21
0.98998
0
LINE
8
BLACK
6
CONTINUOUS
10
0.121915
20
0.98998
11
0.124299
21
0.990237
0
LINE
8
BLACK
6
CONTINUOUS
10
0.124299
20
0.990237
11
0.124299
21
0.990237
0
LINE
8
BLACK
6
CONTINUOUS
10
0.124299
20
0.990237
11
0.129693
21
0.992248
0
LINE
8
BLACK
6
CONTINUOUS
10
0.129693
20
0.992248
11
0.129693
21
0.992249
0
LINE
8
BLACK
6
CONTINUOUS
10
0.129693
20
0.992249
11
0.134302
21
0.995698
0
LINE
8
BLACK
6
CONTINUOUS
10
0.134302
20
0.995698
11
0.136029
21
0.998006
0
LINE
8
BLACK
6
CONTINUOUS
10
0.136029
20
0.998006
11
0.138266
21
0.999681
0
LINE
8
BLACK
6
CONTINUOUS
10
0.138266
20
0.999681
11
0.141054
21
0.99988
0
LINE
8
BLACK
6
CONTINUOUS
10
0.141054
20
0.99988
11
0.143508
21
0.99854
0
LINE
8
BLACK
6
CONTINUOUS
10
0.143508
20
0.99854
11
0.143971
21
0.998006
0
LINE
8
BLACK
6
CONTINUOUS
10
0.143971
20
0.998006
11
0.145698
21
0.995698
0
LINE
8
BLACK
6
CONTINUOUS
10
0.145698
20
0.995698
11
0.150307
21
0.992249
0
LINE
8
BLACK
6
CONTINUOUS
10
0.150307
20
0.992249
11
0.150307
21
0.992248
0
LINE
8
BLACK
6
CONTINUOUS
10
0.150307
20
0.992248
11
0.155701
21
0.990237
0
LINE
8
BLACK
6
CONTINUOUS
10
0.155701
20
0.990237
11
0.155701
21
0.990237
0
LINE
8
BLACK
6
CONTINUOUS
10
0.155701
20
0.990237
11
0.158085
21
0.98998
0
LINE
8
BLACK
6
CONTINUOUS
10
0.158085
20
0.98998
11
0.158085
21
0.98998
0
LINE
8
BLACK
6
CONTINUOUS
10
0.158085
20
0.98998
11
0.221915
21
0.98998
0
LINE
8
BLACK
6
CONTINUOUS
10
0.221915
20
0.98998
11
0.224299
21
0.990237
0
LINE
8
BLACK
6
CONTINUOUS
10
0.224299
20
0.990237
11
0.224299
21
0.990237
0
LINE
8
BLACK
6
CONTINUOUS
10
0.224299
20
0.990237
11
0.229693
21
0.992248
0
LINE
8
BLACK
6
CONTINUOUS
10
0.229693
20
0.992248
11
0.229693
21
0.992249
0
LINE
8
BLACK
6
CONTINUOUS
10
0.229693
20
0.992249
11
0.234302
21
0.995698
0
LINE
8
BLACK
6
CONTINUOUS
10
0.234302
20
0.995698
11
0.237751
21
1.00031
0
LINE
8
BLACK
6
CONTINUOUS
10
0.237751
20
1.00031
11
0.237752
21
1.00031
0
LINE
8
BLACK
6
CONTINUOUS
10
0.237752
20
1.00031
11
0.239763
21
1.0057
0
LINE
8
BLACK
6
CONTINUOUS
10
0.239763
20
1.0057
11
0.239763
21
1.0057
0
LINE
8
BLACK
6
CONTINUOUS
10
0.239763
20
1.0057
11
0.24002
21
1.00808
0
LINE
8
BLACK
6
CONTINUOUS
10
0.24002
20
1.00808
11
0.24002
21
1.00809
0
LINE
8
BLACK
6
CONTINUOUS
10
0.24002
20
1.00809
11
0.24002
21
1.07191
0
LINE
8
BLACK
6
CONTINUOUS
10
0.24002
20
1.07191
11
0.24002
21
1.07192
0
LINE
8
BLACK
6
CONTINUOUS
10
0.24002
20
1.07192
11
0.239763
21
1.0743
0
LINE
8
BLACK
6
CONTINUOUS
10
0.239763
20
1.0743
11
0.239763
21
1.0743
0
LINE
8
BLACK
6
CONTINUOUS
10
0.239763
20
1.0743
11
0.239336
21
1.07545
0
LINE
8
BLACK
6
CONTINUOUS
10
0.239336
20
1.07545
11
0.237752
21
1.07969
0
LINE
8
BLACK
6
CONTINUOUS
10
0.237752
20
1.07969
11
0.234302
21
1.0843
0
LINE
8
BLACK
6
CONTINUOUS
10
0.234302
20
1.0843
11
0.229693
21
1.08775
0
LINE
8
BLACK
6
CONTINUOUS
10
0.229693
20
1.08775
11
0.224299
21
1.08976
0
LINE
8
BLACK
6
CONTINUOUS
10
0.224299
20
1.08976
11
0.224299
21
1.08976
0
LINE
8
BLACK
6
CONTINUOUS
10
0.224299
20
1.08976
11
0.224299
21
1.08976
0
LINE
8
BLACK
6
CONTINUOUS
10
0.224299
20
1.08976
11
0.221915
21
1.09002
0
LINE
8
BLACK
6
CONTINUOUS
10
0.221915
20
1.09002
11
0.221915
21
1.09002
0
LINE
8
BLACK
6
CONTINUOUS
10
0.221915
20
1.09002
11
0.221915
21
1.09002
0
LINE
8
BLACK
6
CONTINUOUS
10
0.221915
20
1.09002
11
0.158085
21
1.09002
0
LINE
8
BLACK
6
CONTINUOUS
10
0.158085
20
1.09002
11
0.158085
21
1.09002
0
LINE
8
BLACK
6
CONTINUOUS
10
0.158085
20
1.09002
11
0.158085
21
1.09002
0
LINE
8
BLACK
6
CONTINUOUS
10
0.158085
20
1.09002
11
0.155701
21
1.08976
0
LINE
8
BLACK
6
CONTINUOUS
10
0.155701
20
1.08976
11
0.155701
21
1.08976
0
LINE
8
BLACK
6
CONTINUOUS
10
0.155701
20
1.08976
11
0.152633
21
1.08862
0
LINE
8
BLACK
6
CONTINUOUS
10
0.152633
20
1.08862
11
0.150307
21
1.08775
0
LINE
8
BLACK
6
CONTINUOUS
10
0.150307
20
1.08775
11
0.150307
21
1.08775
0
LINE
8
BLACK
6
CONTINUOUS
10
0.150307
20
1.08775
11
0.150307
21
1.08775
0
LINE
8
BLACK
6
CONTINUOUS
10
0.150307
20
1.08775
11
0.145698
21
1.0843
0
LINE
8
BLACK
6
CONTINUOUS
10
0.145698
20
1.0843
11
0.143971
21
1.08199
0
LINE
8
BLACK
6
CONTINUOUS
10
0.143971
20
1.08199
11
0.141734
21
1.08032
0
LINE
8
BLACK
6
CONTINUOUS
10
0.141734
20
1.08032
11
0.138946
21
1.08012
0
LINE
8
BLACK
6
CONTINUOUS
10
0.138946
20
1.08012
11
0.136492
21
1.08146
0
LINE
8
BLACK
6
CONTINUOUS
10
0.136492
20
1.08146
11
0.136029
21
1.08199
0
LINE
8
BLACK
6
CONTINUOUS
10
0.136029
20
1.08199
11
0.134302
21
1.0843
0
LINE
8
BLACK
6
CONTINUOUS
10
0.134302
20
1.0843
11
0.129693
21
1.08775
0
LINE
8
BLACK
6
CONTINUOUS
10
0.129693
20
1.08775
11
0.129693
21
1.08775
0
LINE
8
BLACK
6
CONTINUOUS
10
0.129693
20
1.08775
11
0.129693
21
1.08775
0
LINE
8
BLACK
6
CONTINUOUS
10
0.129693
20
1.08775
11
0.124299
21
1.08976
0
LINE
8
BLACK
6
CONTINUOUS
10
0.124299
20
1.08976
11
0.124299
21
1.08976
0
LINE
8
BLACK
6
CONTINUOUS
10
0.124299
20
1.08976
11
0.124299
21
1.08976
0
LINE
8
BLACK
6
CONTINUOUS
10
0.124299
20
1.08976
11
0.121915
21
1.09002
0
LINE
8
BLACK
6
CONTINUOUS
10
0.121915
20
1.09002
11
0.121915
21
1.09002
0
LINE
8
BLACK
6
CONTINUOUS
10
0.121915
20
1.09002
11
0.121915
21
1.09002
0
LINE
8
BLACK
6
CONTINUOUS
10
0.121915
20
1.09002
11
0.0580851
21
1.09002
0
LINE
8
BLACK
6
CONTINUOUS
10
0.0580851
20
1.09002
11
0.0580848
21
1.09002
0
LINE
8
BLACK
6
CONTINUOUS
10
0.365015
20
1.20878
11
0.358369
21
1.20835
0
LINE
8
BLACK
6
CONTINUOUS
10
0.358369
20
1.20835
11
0.346937
21
1.20607
0
LINE
8
BLACK
6
CONTINUOUS
10
0.346937
20
1.20607
11
0.3359
21
1.20233
0
LINE
8
BLACK
6
CONTINUOUS
10
0.3359
20
1.20233
11
0.325446
21
1.19717
0
LINE
8
BLACK
6
CONTINUOUS
10
0.325446
20
1.19717
11
0.315754
21
1.19069
0
LINE
8
BLACK
6
CONTINUOUS
10
0.315754
20
1.19069
11
0.306991
21
1.18301
0
LINE
8
BLACK
6
CONTINUOUS
10
0.306991
20
1.18301
11
0.299306
21
1.17425
0
LINE
8
BLACK
6
CONTINUOUS
10
0.299306
20
1.17425
11
0.299306
21
1.17425
0
LINE
8
BLACK
6
CONTINUOUS
10
0.299306
20
1.17425
11
0.299305
21
1.17425
0
LINE
8
BLACK
6
CONTINUOUS
10
0.299305
20
1.17425
11
0.29283
21
1.16455
0
LINE
8
BLACK
6
CONTINUOUS
10
0.29283
20
1.16455
11
0.287675
21
1.1541
0
LINE
8
BLACK
6
CONTINUOUS
10
0.287675
20
1.1541
11
0.287675
21
1.1541
0
LINE
8
BLACK
6
CONTINUOUS
10
0.287675
20
1.1541
11
0.283928
21
1.14306
0
LINE
8
BLACK
6
CONTINUOUS
10
0.283928
20
1.14306
11
0.283928
21
1.14306
0
LINE
8
BLACK
6
CONTINUOUS
10
0.283928
20
1.14306
11
0.281654
21
1.13163
0
LINE
8
BLACK
6
CONTINUOUS
10
0.281654
20
1.13163
11
0.281654
21
1.13163
0
LINE
8
BLACK
6
CONTINUOUS
10
0.281654
20
1.13163
11
0.280892
21
1.12
0
LINE
8
BLACK
6
CONTINUOUS
10
0.280892
20
1.12
11
0.280892
21
1.12
0
LINE
8
BLACK
6
CONTINUOUS
10
0.280892
20
1.12
11
0.281654
21
1.10837
0
LINE
8
BLACK
6
CONTINUOUS
10
0.281654
20
1.10837
11
0.281654
21
1.10837
0
LINE
8
BLACK
6
CONTINUOUS
10
0.281654
20
1.10837
11
0.283928
21
1.09694
0
LINE
8
BLACK
6
CONTINUOUS
10
0.283928
20
1.09694
11
0.283928
21
1.09694
0
LINE
8
BLACK
6
CONTINUOUS
10
0.283928
20
1.09694
11
0.287675
21
1.0859
0
LINE
8
BLACK
6
CONTINUOUS
10
0.287675
20
1.0859
11
0.287675
21
1.0859
0
LINE
8
BLACK
6
CONTINUOUS
10
0.287675
20
1.0859
11
0.29283
21
1.07545
0
LINE
8
BLACK
6
CONTINUOUS
10
0.29283
20
1.07545
11
0.299305
21
1.06575
0
LINE
8
BLACK
6
CONTINUOUS
10
0.299305
20
1.06575
11
0.299306
21
1.06575
0
LINE
8
BLACK
6
CONTINUOUS
10
0.299306
20
1.06575
11
0.299306
21
1.06575
0
LINE
8
BLACK
6
CONTINUOUS
10
0.299306
20
1.06575
11
0.306991
21
1.05699
0
LINE
8
BLACK
6
CONTINUOUS
10
0.306991
20
1.05699
11
0.315754
21
1.04931
0
LINE
8
BLACK
6
CONTINUOUS
10
0.315754
20
1.04931
11
0.315755
21
1.04931
0
LINE
8
BLACK
6
CONTINUOUS
10
0.315755
20
1.04931
11
0.315755
21
1.04931
0
LINE
8
BLACK
6
CONTINUOUS
10
0.315755
20
1.04931
11
0.325446
21
1.04283
0
LINE
8
BLACK
6
CONTINUOUS
10
0.325446
20
1.04283
11
0.3359
21
1.03767
0
LINE
8
BLACK
6
CONTINUOUS
10
0.3359
20
1.03767
11
0.3359
21
1.03767
0
LINE
8
BLACK
6
CONTINUOUS
10
0.3359
20
1.03767
11
0.346937
21
1.03393
0
LINE
8
BLACK
6
CONTINUOUS
10
0.346937
20
1.03393
11
0.346937
21
1.03393
0
LINE
8
BLACK
6
CONTINUOUS
10
0.346937
20
1.03393
11
0.346937
21
1.03393
0
LINE
8
BLACK
6
CONTINUOUS
10
0.346937
20
1.03393
11
0.348851
21
1.03355
0
LINE
8
BLACK
6
CONTINUOUS
10
0.348851
20
1.03355
11
0.358369
21
1.03165
0
LINE
8
BLACK
6
CONTINUOUS
10
0.358369
20
1.03165
11
0.358369
21
1.03165
0
LINE
8
BLACK
6
CONTINUOUS
10
0.358369
20
1.03165
11
0.37
21
1.03089
0
LINE
8
BLACK
6
CONTINUOUS
10
0.37
20
1.03089
11
0.37
21
1.03089
0
LINE
8
BLACK
6
CONTINUOUS
10
0.37
20
1.03089
11
0.37
21
1.03089
0
LINE
8
BLACK
6
CONTINUOUS
10
0.37
20
1.03089
11
0.381631
21
1.03165
0
LINE
8
BLACK
6
CONTINUOUS
10
0.381631
20
1.03165
11
0.381631
21
1.03165
0
LINE
8
BLACK
6
CONTINUOUS
10
0.381631
20
1.03165
11
0.389235
21
1.03317
0
LINE
8
BLACK
6
CONTINUOUS
10
0.389235
20
1.03317
11
0.393063
21
1.03393
0
LINE
8
BLACK
6
CONTINUOUS
10
0.393063
20
1.03393
11
0.393063
21
1.03393
0
LINE
8
BLACK
6
CONTINUOUS
10
0.393063
20
1.03393
11
0.393063
21
1.03393
0
LINE
8
BLACK
6
CONTINUOUS
10
0.393063
20
1.03393
11
0.4041
21
1.03767
0
LINE
8
BLACK
6
CONTINUOUS
10
0.4041
20
1.03767
11
0.4041
21
1.03767
0
LINE
8
BLACK
6
CONTINUOUS
10
0.4041
20
1.03767
11
0.4041
21
1.03767
0
LINE
8
BLACK
6
CONTINUOUS
10
0.4041
20
1.03767
11
0.404866
21
1.03805
0
LINE
8
BLACK
6
CONTINUOUS
10
0.404866
20
1.03805
11
0.414554
21
1.04283
0
LINE
8
BLACK
6
CONTINUOUS
10
0.414554
20
1.04283
11
0.424245
21
1.04931
0
LINE
8
BLACK
6
CONTINUOUS
10
0.424245
20
1.04931
11
0.424245
21
1.04931
0
LINE
8
BLACK
6
CONTINUOUS
10
0.424245
20
1.04931
11
0.424246
21
1.04931
0
LINE
8
BLACK
6
CONTINUOUS
10
0.424246
20
1.04931
11
0.433009
21
1.05699
0
LINE
8
BLACK
6
CONTINUOUS
10
0.433009
20
1.05699
11
0.440694
21
1.06575
0
LINE
8
BLACK
6
CONTINUOUS
10
0.440694
20
1.06575
11
0.44717
21
1.07545
0
LINE
8
BLACK
6
CONTINUOUS
10
0.44717
20
1.07545
11
0.452325
21
1.0859
0
LINE
8
BLACK
6
CONTINUOUS
10
0.452325
20
1.0859
11
0.456072
21
1.09694
0
LINE
8
BLACK
6
CONTINUOUS
10
0.456072
20
1.09694
11
0.458346
21
1.10837
0
LINE
8
BLACK
6
CONTINUOUS
10
0.458346
20
1.10837
11
0.459108
21
1.12
0
LINE
8
BLACK
6
CONTINUOUS
10
0.459108
20
1.12
11
0.458346
21
1.13163
0
LINE
8
BLACK
6
CONTINUOUS
10
0.458346
20
1.13163
11
0.456072
21
1.14306
0
LINE
8
BLACK
6
CONTINUOUS
10
0.456072
20
1.14306
11
0.452325
21
1.1541
0
LINE
8
BLACK
6
CONTINUOUS
10
0.452325
20
1.1541
11
0.44717
21
1.16455
0
LINE
8
BLACK
6
CONTINUOUS
10
0.44717
20
1.16455
11
0.440694
21
1.17425
0
LINE
8
BLACK
6
CONTINUOUS
10
0.440694
20
1.17425
11
0.433009
21
1.18301
0
LINE
8
BLACK
6
CONTINUOUS
10
0.433009
20
1.18301
11
0.424246
21
1.19069
0
LINE
8
BLACK
6
CONTINUOUS
10
0.424246
20
1.19069
11
0.414554
21
1.19717
0
LINE
8
BLACK
6
CONTINUOUS
10
0.414554
20
1.19717
11
0.4041
21
1.20233
0
LINE
8
BLACK
6
CONTINUOUS
10
0.4041
20
1.20233
11
0.393063
21
1.20607
0
LINE
8
BLACK
6
CONTINUOUS
10
0.393063
20
1.20607
11
0.381631
21
1.20835
0
LINE
8
BLACK
6
CONTINUOUS
10
0.381631
20
1.20835
11
0.374362
21
1.20882
0
LINE
8
BLACK
6
CONTINUOUS
10
0.374362
20
1.20882
11
0.37
21
1.20911
0
LINE
8
BLACK
6
CONTINUOUS
10
0.37
20
1.20911
11
0.37
21
1.20911
0
LINE
8
BLACK
6
CONTINUOUS
10
0.37
20
1.20911
11
0.365015
21
1.20878
0
CIRCLE
8
BLACK
10
0.09
20
0.68
40
0.00688976
0
CIRCLE
8
BLACK
10
0.19
20
0.68
40
0.00688976
0
CIRCLE
8
BLACK
10
0.09
20
0.58
40
0.00688976
0
CIRCLE
8
BLACK
10
0.19
20
0.58
40
0.00688976
0
CIRCLE
8
BLACK
10
0.09
20
0.48
40
0.00688976
0
CIRCLE
8
BLACK
10
0.19
20
0.48
40
0.00688976
0
CIRCLE
8
BLACK
10
0.09
20
1.14
40
0.00688976
0
CIRCLE
8
BLACK
10
0.19
20
1.14
40
0.00688976
0
CIRCLE
8
BLACK
10
0.09
20
1.04
40
0.00688976
0
CIRCLE
8
BLACK
10
0.19
20
1.04
40
0.00688976
0
CIRCLE
8
BLACK
10
0.09
20
0.94
40
0.00688976
0
CIRCLE
8
BLACK
10
0.19
20
0.94
40
0.00688976
0
CIRCLE
8
BLACK
10
0.2
20
0.2
40
0.00688976
0
CIRCLE
8
BLACK
10
0.2
20
1.4
40
0.00688976
0
CIRCLE
8
BLACK
10
0.6
20
0.2
40
0.00688976
0
CIRCLE
8
BLACK
10
0.6
20
1.4
40
0.00688976
0
CIRCLE
8
BLACK
10
0.67
20
0.52
40
0.00688976
0
CIRCLE
8
BLACK
10
0.67
20
1.12
40
0.00688976
0
CIRCLE
8
BLACK
10
0.37
20
1.12
40
0.00688976
0
CIRCLE
8
BLACK
10
0.37
20
0.52
40
0.00688976
0
CIRCLE
8
BLACK
10
0.09
20
0.84
40
0.00688976
0
CIRCLE
8
BLACK
10
0.19
20
0.84
40
0.00688976
0
CIRCLE
8
BLACK
10
0.7
20
0.82
40
0.00787402
0
CIRCLE
8
BLACK
10
0.7
20
0.82
40
0.00787402
0
CIRCLE
8
BLACK
10
0.4
20
0.98
40
0.00787402
0
CIRCLE
8
BLACK
10
0.26
20
0.96
40
0.00787402
0
CIRCLE
8
BLACK
10
0.58
20
0.68
40
0.00787402
  0
ENDSEC
  0
EOF
