  0
SECTION
  2
HEADER
  9
$ANGBASE
  50
0.0
  9
$ANGDIR
  70
1
  9
$MEASUREMENT
  70
0
  0
ENDSEC
  0
SECTION
  2
TABLES
  0
TABLE
  2
LTYPE
  70
4
  0
LTYPE
  5
40F
  2
CONTINUOUS
  70
0
  3
Solid line
  72
65
  73
0
  40
0.0
  0
LTYPE
  5
410
  2
DASHDOT
 70
0
  3
Dash Dot ____ _ ____ _
 72
65
 73
4
 40
2.0
 49
1.25
 49
-0.25
 49
0.25
 49
-0.25
  0
LTYPE
  5
411
  2
DASHED
 70
0
  3
Dashed __ __ __ __ __
 72
65
 73
2
 40
0.75
 49
0.5
 49
-0.25
  0
LTYPE
  5
43B
  2
DOTTED
 70
0
  3
Dotted .  .  .  .
 72
65
 73
2
 40
0.2
 49
0.0
 49
-0.2
  0
ENDTAB
  0
TABLE
  2
STYLE
  70
4
  0
STYLE
  2
KICAD
  70
0
  40
0
  41
1
  42
1
  50
0
  71
0
  3
isocp.shx
  0
STYLE
  2
KICADB
  70
0
  40
0
  41
1
  42
1
  50
0
  71
0
  3
isocp.shx
  0
STYLE
  2
KICADI
  70
0
  40
0
  41
1
  42
1
  50
15
  71
0
  3
isocp.shx
  0
STYLE
  2
KICADBI
  70
0
  40
0
  41
1
  42
1
  50
15
  71
0
  3
isocp.shx
  0
ENDTAB
  0
TABLE
  2
LAYER
  70
1
  0
LAYER
  2
BLACK
  70
0
  62
7
  6
CONTINUOUS
  0
ENDTAB
  0
ENDSEC
  0
SECTION
  2
ENTITIES
0
LINE
8
BLACK
6
CONTINUOUS
10
0.419958
20
0.656218
11
0.422165
21
0.653451
0
LINE
8
BLACK
6
CONTINUOUS
10
0.422165
20
0.653451
11
0.422279
21
0.652953
0
LINE
8
BLACK
6
CONTINUOUS
10
0.422279
20
0.652953
11
0.46
21
0.652953
0
LINE
8
BLACK
6
CONTINUOUS
10
0.46
20
0.652953
11
0.46101
21
0.652775
0
LINE
8
BLACK
6
CONTINUOUS
10
0.46101
20
0.652775
11
0.462557
21
0.651476
0
LINE
8
BLACK
6
CONTINUOUS
10
0.462557
20
0.651476
11
0.462908
21
0.649487
0
LINE
8
BLACK
6
CONTINUOUS
10
0.462908
20
0.649487
11
0.461898
21
0.647738
0
LINE
8
BLACK
6
CONTINUOUS
10
0.461898
20
0.647738
11
0.461747
21
0.647683
0
LINE
8
BLACK
6
CONTINUOUS
10
0.461747
20
0.647683
11
0.462599
21
0.64733
0
LINE
8
BLACK
6
CONTINUOUS
10
0.462599
20
0.64733
11
0.463229
21
0.64581
0
LINE
8
BLACK
6
CONTINUOUS
10
0.463229
20
0.64581
11
0.463229
21
0.62611
0
LINE
8
BLACK
6
CONTINUOUS
10
0.463229
20
0.62611
11
0.462599
21
0.62459
0
LINE
8
BLACK
6
CONTINUOUS
10
0.462599
20
0.62459
11
0.461079
21
0.62396
0
LINE
8
BLACK
6
CONTINUOUS
10
0.461079
20
0.62396
11
0.459558
21
0.62459
0
LINE
8
BLACK
6
CONTINUOUS
10
0.459558
20
0.62459
11
0.458929
21
0.62611
0
LINE
8
BLACK
6
CONTINUOUS
10
0.458929
20
0.62611
11
0.458929
21
0.634279
0
LINE
8
BLACK
6
CONTINUOUS
10
0.458929
20
0.634279
11
0.454512
21
0.634279
0
LINE
8
BLACK
6
CONTINUOUS
10
0.454512
20
0.634279
11
0.452992
21
0.634909
0
LINE
8
BLACK
6
CONTINUOUS
10
0.452992
20
0.634909
11
0.452362
21
0.636429
0
LINE
8
BLACK
6
CONTINUOUS
10
0.452362
20
0.636429
11
0.452992
21
0.637949
0
LINE
8
BLACK
6
CONTINUOUS
10
0.452992
20
0.637949
11
0.454512
21
0.638579
0
LINE
8
BLACK
6
CONTINUOUS
10
0.454512
20
0.638579
11
0.458929
21
0.638579
0
LINE
8
BLACK
6
CONTINUOUS
10
0.458929
20
0.638579
11
0.458929
21
0.64366
0
LINE
8
BLACK
6
CONTINUOUS
10
0.458929
20
0.64366
11
0.451698
21
0.64366
0
LINE
8
BLACK
6
CONTINUOUS
10
0.451698
20
0.64366
11
0.450177
21
0.64429
0
LINE
8
BLACK
6
CONTINUOUS
10
0.450177
20
0.64429
11
0.449548
21
0.64581
0
LINE
8
BLACK
6
CONTINUOUS
10
0.449548
20
0.64581
11
0.45006
21
0.647047
0
LINE
8
BLACK
6
CONTINUOUS
10
0.45006
20
0.647047
11
0.422953
21
0.647047
0
LINE
8
BLACK
6
CONTINUOUS
10
0.422953
20
0.647047
11
0.422953
21
0.592953
0
LINE
8
BLACK
6
CONTINUOUS
10
0.422953
20
0.592953
11
0.46
21
0.592953
0
LINE
8
BLACK
6
CONTINUOUS
10
0.46
20
0.592953
11
0.46101
21
0.592775
0
LINE
8
BLACK
6
CONTINUOUS
10
0.46101
20
0.592775
11
0.462557
21
0.591476
0
LINE
8
BLACK
6
CONTINUOUS
10
0.462557
20
0.591476
11
0.462908
21
0.589487
0
LINE
8
BLACK
6
CONTINUOUS
10
0.462908
20
0.589487
11
0.461898
21
0.587738
0
LINE
8
BLACK
6
CONTINUOUS
10
0.461898
20
0.587738
11
0.46
21
0.587047
0
LINE
8
BLACK
6
CONTINUOUS
10
0.46
20
0.587047
11
0.42
21
0.587047
0
LINE
8
BLACK
6
CONTINUOUS
10
0.42
20
0.587047
11
0.419616
21
0.587115
0
LINE
8
BLACK
6
CONTINUOUS
10
0.419616
20
0.587115
11
0.419487
21
0.587092
0
LINE
8
BLACK
6
CONTINUOUS
10
0.419487
20
0.587092
11
0.419374
21
0.587158
0
LINE
8
BLACK
6
CONTINUOUS
10
0.419374
20
0.587158
11
0.41899
21
0.587225
0
LINE
8
BLACK
6
CONTINUOUS
10
0.41899
20
0.587225
11
0.418402
21
0.587718
0
LINE
8
BLACK
6
CONTINUOUS
10
0.418402
20
0.587718
11
0.417738
21
0.588102
0
LINE
8
BLACK
6
CONTINUOUS
10
0.417738
20
0.588102
11
0.417647
21
0.588352
0
LINE
8
BLACK
6
CONTINUOUS
10
0.417647
20
0.588352
11
0.417443
21
0.588524
0
LINE
8
BLACK
6
CONTINUOUS
10
0.417443
20
0.588524
11
0.41731
21
0.589279
0
LINE
8
BLACK
6
CONTINUOUS
10
0.41731
20
0.589279
11
0.417047
21
0.59
0
LINE
8
BLACK
6
CONTINUOUS
10
0.417047
20
0.59
11
0.417047
21
0.64238
0
LINE
8
BLACK
6
CONTINUOUS
10
0.417047
20
0.64238
11
0.41677
21
0.642247
0
LINE
8
BLACK
6
CONTINUOUS
10
0.41677
20
0.642247
11
0.41323
21
0.642247
0
LINE
8
BLACK
6
CONTINUOUS
10
0.41323
20
0.642247
11
0.410042
21
0.643782
0
LINE
8
BLACK
6
CONTINUOUS
10
0.410042
20
0.643782
11
0.407835
21
0.646549
0
LINE
8
BLACK
6
CONTINUOUS
10
0.407835
20
0.646549
11
0.407047
21
0.65
0
LINE
8
BLACK
6
CONTINUOUS
10
0.407047
20
0.65
11
0.407835
21
0.653451
0
LINE
8
BLACK
6
CONTINUOUS
10
0.407835
20
0.653451
11
0.410042
21
0.656218
0
LINE
8
BLACK
6
CONTINUOUS
10
0.410042
20
0.656218
11
0.41323
21
0.657753
0
LINE
8
BLACK
6
CONTINUOUS
10
0.41323
20
0.657753
11
0.41677
21
0.657753
0
LINE
8
BLACK
6
CONTINUOUS
10
0.41677
20
0.657753
11
0.419958
21
0.656218
0
LINE
8
BLACK
6
CONTINUOUS
10
0.413433
20
0.648433
11
0.415
21
0.647784
0
LINE
8
BLACK
6
CONTINUOUS
10
0.415
20
0.647784
11
0.416567
21
0.648433
0
LINE
8
BLACK
6
CONTINUOUS
10
0.416567
20
0.648433
11
0.417047
21
0.649593
0
LINE
8
BLACK
6
CONTINUOUS
10
0.417047
20
0.649593
11
0.417047
21
0.65
0
LINE
8
BLACK
6
CONTINUOUS
10
0.417047
20
0.65
11
0.417098
21
0.650286
0
LINE
8
BLACK
6
CONTINUOUS
10
0.417098
20
0.650286
11
0.416567
21
0.651567
0
LINE
8
BLACK
6
CONTINUOUS
10
0.416567
20
0.651567
11
0.415
21
0.652216
0
LINE
8
BLACK
6
CONTINUOUS
10
0.415
20
0.652216
11
0.413433
21
0.651567
0
LINE
8
BLACK
6
CONTINUOUS
10
0.413433
20
0.651567
11
0.412784
21
0.65
0
LINE
8
BLACK
6
CONTINUOUS
10
0.412784
20
0.65
11
0.413433
21
0.648433
0
LINE
8
BLACK
6
CONTINUOUS
10
0.540384
20
0.652885
11
0.540513
21
0.652908
0
LINE
8
BLACK
6
CONTINUOUS
10
0.540513
20
0.652908
11
0.540626
21
0.652842
0
LINE
8
BLACK
6
CONTINUOUS
10
0.540626
20
0.652842
11
0.54101
21
0.652775
0
LINE
8
BLACK
6
CONTINUOUS
10
0.54101
20
0.652775
11
0.541598
21
0.652282
0
LINE
8
BLACK
6
CONTINUOUS
10
0.541598
20
0.652282
11
0.542262
21
0.651898
0
LINE
8
BLACK
6
CONTINUOUS
10
0.542262
20
0.651898
11
0.542353
21
0.651648
0
LINE
8
BLACK
6
CONTINUOUS
10
0.542353
20
0.651648
11
0.542557
21
0.651476
0
LINE
8
BLACK
6
CONTINUOUS
10
0.542557
20
0.651476
11
0.54269
21
0.650721
0
LINE
8
BLACK
6
CONTINUOUS
10
0.54269
20
0.650721
11
0.542953
21
0.65
0
LINE
8
BLACK
6
CONTINUOUS
10
0.542953
20
0.65
11
0.542953
21
0.59
0
LINE
8
BLACK
6
CONTINUOUS
10
0.542953
20
0.59
11
0.542885
21
0.589616
0
LINE
8
BLACK
6
CONTINUOUS
10
0.542885
20
0.589616
11
0.542908
21
0.589487
0
LINE
8
BLACK
6
CONTINUOUS
10
0.542908
20
0.589487
11
0.542842
21
0.589374
0
LINE
8
BLACK
6
CONTINUOUS
10
0.542842
20
0.589374
11
0.542775
21
0.58899
0
LINE
8
BLACK
6
CONTINUOUS
10
0.542775
20
0.58899
11
0.542282
21
0.588402
0
LINE
8
BLACK
6
CONTINUOUS
10
0.542282
20
0.588402
11
0.541898
21
0.587738
0
LINE
8
BLACK
6
CONTINUOUS
10
0.541898
20
0.587738
11
0.541648
21
0.587647
0
LINE
8
BLACK
6
CONTINUOUS
10
0.541648
20
0.587647
11
0.541476
21
0.587443
0
LINE
8
BLACK
6
CONTINUOUS
10
0.541476
20
0.587443
11
0.540721
21
0.58731
0
LINE
8
BLACK
6
CONTINUOUS
10
0.540721
20
0.58731
11
0.54
21
0.587047
0
LINE
8
BLACK
6
CONTINUOUS
10
0.54
20
0.587047
11
0.5
21
0.587047
0
LINE
8
BLACK
6
CONTINUOUS
10
0.5
20
0.587047
11
0.49899
21
0.587225
0
LINE
8
BLACK
6
CONTINUOUS
10
0.49899
20
0.587225
11
0.497443
21
0.588524
0
LINE
8
BLACK
6
CONTINUOUS
10
0.497443
20
0.588524
11
0.497092
21
0.590513
0
LINE
8
BLACK
6
CONTINUOUS
10
0.497092
20
0.590513
11
0.498102
21
0.592262
0
LINE
8
BLACK
6
CONTINUOUS
10
0.498102
20
0.592262
11
0.5
21
0.592953
0
LINE
8
BLACK
6
CONTINUOUS
10
0.5
20
0.592953
11
0.537047
21
0.592953
0
LINE
8
BLACK
6
CONTINUOUS
10
0.537047
20
0.592953
11
0.537047
21
0.647047
0
LINE
8
BLACK
6
CONTINUOUS
10
0.537047
20
0.647047
11
0.513458
21
0.647047
0
LINE
8
BLACK
6
CONTINUOUS
10
0.513458
20
0.647047
11
0.513525
21
0.647003
0
LINE
8
BLACK
6
CONTINUOUS
10
0.513525
20
0.647003
11
0.515283
21
0.644365
0
LINE
8
BLACK
6
CONTINUOUS
10
0.515283
20
0.644365
11
0.516762
21
0.642886
0
LINE
8
BLACK
6
CONTINUOUS
10
0.516762
20
0.642886
11
0.518326
21
0.642104
0
LINE
8
BLACK
6
CONTINUOUS
10
0.518326
20
0.642104
11
0.519404
21
0.640861
0
LINE
8
BLACK
6
CONTINUOUS
10
0.519404
20
0.640861
11
0.519287
21
0.63922
0
LINE
8
BLACK
6
CONTINUOUS
10
0.519287
20
0.63922
11
0.518044
21
0.638142
0
LINE
8
BLACK
6
CONTINUOUS
10
0.518044
20
0.638142
11
0.516403
21
0.638258
0
LINE
8
BLACK
6
CONTINUOUS
10
0.516403
20
0.638258
11
0.514527
21
0.639197
0
LINE
8
BLACK
6
CONTINUOUS
10
0.514527
20
0.639197
11
0.514295
21
0.639464
0
LINE
8
BLACK
6
CONTINUOUS
10
0.514295
20
0.639464
11
0.513968
21
0.639599
0
LINE
8
BLACK
6
CONTINUOUS
10
0.513968
20
0.639599
11
0.513886
21
0.639681
0
LINE
8
BLACK
6
CONTINUOUS
10
0.513886
20
0.639681
11
0.513886
21
0.62826
0
LINE
8
BLACK
6
CONTINUOUS
10
0.513886
20
0.62826
11
0.517364
21
0.62826
0
LINE
8
BLACK
6
CONTINUOUS
10
0.517364
20
0.62826
11
0.518885
21
0.62763
0
LINE
8
BLACK
6
CONTINUOUS
10
0.518885
20
0.62763
11
0.519514
21
0.62611
0
LINE
8
BLACK
6
CONTINUOUS
10
0.519514
20
0.62611
11
0.518885
21
0.62459
0
LINE
8
BLACK
6
CONTINUOUS
10
0.518885
20
0.62459
11
0.517364
21
0.62396
0
LINE
8
BLACK
6
CONTINUOUS
10
0.517364
20
0.62396
11
0.511736
21
0.62396
0
LINE
8
BLACK
6
CONTINUOUS
10
0.511736
20
0.62396
11
0.506107
21
0.62396
0
LINE
8
BLACK
6
CONTINUOUS
10
0.506107
20
0.62396
11
0.504587
21
0.62459
0
LINE
8
BLACK
6
CONTINUOUS
10
0.504587
20
0.62459
11
0.503957
21
0.62611
0
LINE
8
BLACK
6
CONTINUOUS
10
0.503957
20
0.62611
11
0.504587
21
0.62763
0
LINE
8
BLACK
6
CONTINUOUS
10
0.504587
20
0.62763
11
0.506107
21
0.62826
0
LINE
8
BLACK
6
CONTINUOUS
10
0.506107
20
0.62826
11
0.509586
21
0.62826
0
LINE
8
BLACK
6
CONTINUOUS
10
0.509586
20
0.62826
11
0.509586
21
0.64581
0
LINE
8
BLACK
6
CONTINUOUS
10
0.509586
20
0.64581
11
0.50967
21
0.646015
0
LINE
8
BLACK
6
CONTINUOUS
10
0.50967
20
0.646015
11
0.509627
21
0.646232
0
LINE
8
BLACK
6
CONTINUOUS
10
0.509627
20
0.646232
11
0.509976
21
0.646752
0
LINE
8
BLACK
6
CONTINUOUS
10
0.509976
20
0.646752
11
0.510098
21
0.647047
0
LINE
8
BLACK
6
CONTINUOUS
10
0.510098
20
0.647047
11
0.5
21
0.647047
0
LINE
8
BLACK
6
CONTINUOUS
10
0.5
20
0.647047
11
0.49899
21
0.647225
0
LINE
8
BLACK
6
CONTINUOUS
10
0.49899
20
0.647225
11
0.497443
21
0.648524
0
LINE
8
BLACK
6
CONTINUOUS
10
0.497443
20
0.648524
11
0.497092
21
0.650513
0
LINE
8
BLACK
6
CONTINUOUS
10
0.497092
20
0.650513
11
0.498102
21
0.652262
0
LINE
8
BLACK
6
CONTINUOUS
10
0.498102
20
0.652262
11
0.5
21
0.652953
0
LINE
8
BLACK
6
CONTINUOUS
10
0.5
20
0.652953
11
0.54
21
0.652953
0
LINE
8
BLACK
6
CONTINUOUS
10
0.54
20
0.652953
11
0.540384
21
0.652885
0
LINE
8
BLACK
6
CONTINUOUS
10
0.478237
20
0.61983
11
0.478867
21
0.61831
0
LINE
8
BLACK
6
CONTINUOUS
10
0.478867
20
0.61831
11
0.478237
21
0.61679
0
LINE
8
BLACK
6
CONTINUOUS
10
0.478237
20
0.61679
11
0.476717
21
0.61616
0
LINE
8
BLACK
6
CONTINUOUS
10
0.476717
20
0.61616
11
0.469259
21
0.61616
0
LINE
8
BLACK
6
CONTINUOUS
10
0.469259
20
0.61616
11
0.472706
21
0.612221
0
LINE
8
BLACK
6
CONTINUOUS
10
0.472706
20
0.612221
11
0.472948
21
0.611504
0
LINE
8
BLACK
6
CONTINUOUS
10
0.472948
20
0.611504
11
0.473238
21
0.610805
0
LINE
8
BLACK
6
CONTINUOUS
10
0.473238
20
0.610805
11
0.473209
21
0.610735
0
LINE
8
BLACK
6
CONTINUOUS
10
0.473209
20
0.610735
11
0.473233
21
0.610662
0
LINE
8
BLACK
6
CONTINUOUS
10
0.473233
20
0.610662
11
0.472898
21
0.609984
0
LINE
8
BLACK
6
CONTINUOUS
10
0.472898
20
0.609984
11
0.472608
21
0.609285
0
LINE
8
BLACK
6
CONTINUOUS
10
0.472608
20
0.609285
11
0.472538
21
0.609256
0
LINE
8
BLACK
6
CONTINUOUS
10
0.472538
20
0.609256
11
0.472504
21
0.609187
0
LINE
8
BLACK
6
CONTINUOUS
10
0.472504
20
0.609187
11
0.471787
21
0.608945
0
LINE
8
BLACK
6
CONTINUOUS
10
0.471787
20
0.608945
11
0.471088
21
0.608655
0
LINE
8
BLACK
6
CONTINUOUS
10
0.471088
20
0.608655
11
0.468781
21
0.608655
0
LINE
8
BLACK
6
CONTINUOUS
10
0.468781
20
0.608655
11
0.467671
21
0.6081
0
LINE
8
BLACK
6
CONTINUOUS
10
0.467671
20
0.6081
11
0.467226
21
0.607655
0
LINE
8
BLACK
6
CONTINUOUS
10
0.467226
20
0.607655
11
0.466671
21
0.606545
0
LINE
8
BLACK
6
CONTINUOUS
10
0.466671
20
0.606545
11
0.466671
21
0.60287
0
LINE
8
BLACK
6
CONTINUOUS
10
0.466671
20
0.60287
11
0.467226
21
0.60176
0
LINE
8
BLACK
6
CONTINUOUS
10
0.467226
20
0.60176
11
0.467671
21
0.601315
0
LINE
8
BLACK
6
CONTINUOUS
10
0.467671
20
0.601315
11
0.468781
21
0.60076
0
LINE
8
BLACK
6
CONTINUOUS
10
0.468781
20
0.60076
11
0.473395
21
0.60076
0
LINE
8
BLACK
6
CONTINUOUS
10
0.473395
20
0.60076
11
0.474505
21
0.601315
0
LINE
8
BLACK
6
CONTINUOUS
10
0.474505
20
0.601315
11
0.475196
21
0.602006
0
LINE
8
BLACK
6
CONTINUOUS
10
0.475196
20
0.602006
11
0.476717
21
0.602636
0
LINE
8
BLACK
6
CONTINUOUS
10
0.476717
20
0.602636
11
0.478237
21
0.602006
0
LINE
8
BLACK
6
CONTINUOUS
10
0.478237
20
0.602006
11
0.478867
21
0.600486
0
LINE
8
BLACK
6
CONTINUOUS
10
0.478867
20
0.600486
11
0.478237
21
0.598966
0
LINE
8
BLACK
6
CONTINUOUS
10
0.478237
20
0.598966
11
0.477299
21
0.598028
0
LINE
8
BLACK
6
CONTINUOUS
10
0.477299
20
0.598028
11
0.476972
21
0.597892
0
LINE
8
BLACK
6
CONTINUOUS
10
0.476972
20
0.597892
11
0.47674
21
0.597625
0
LINE
8
BLACK
6
CONTINUOUS
10
0.47674
20
0.597625
11
0.474864
21
0.596687
0
LINE
8
BLACK
6
CONTINUOUS
10
0.474864
20
0.596687
11
0.474365
21
0.596651
0
LINE
8
BLACK
6
CONTINUOUS
10
0.474365
20
0.596651
11
0.473902
21
0.59646
0
LINE
8
BLACK
6
CONTINUOUS
10
0.473902
20
0.59646
11
0.468274
21
0.59646
0
LINE
8
BLACK
6
CONTINUOUS
10
0.468274
20
0.59646
11
0.467811
21
0.596651
0
LINE
8
BLACK
6
CONTINUOUS
10
0.467811
20
0.596651
11
0.467312
21
0.596687
0
LINE
8
BLACK
6
CONTINUOUS
10
0.467312
20
0.596687
11
0.465436
21
0.597625
0
LINE
8
BLACK
6
CONTINUOUS
10
0.465436
20
0.597625
11
0.465204
21
0.597892
0
LINE
8
BLACK
6
CONTINUOUS
10
0.465204
20
0.597892
11
0.464877
21
0.598028
0
LINE
8
BLACK
6
CONTINUOUS
10
0.464877
20
0.598028
11
0.463939
21
0.598966
0
LINE
8
BLACK
6
CONTINUOUS
10
0.463939
20
0.598966
11
0.463804
21
0.599293
0
LINE
8
BLACK
6
CONTINUOUS
10
0.463804
20
0.599293
11
0.463536
21
0.599525
0
LINE
8
BLACK
6
CONTINUOUS
10
0.463536
20
0.599525
11
0.462598
21
0.601401
0
LINE
8
BLACK
6
CONTINUOUS
10
0.462598
20
0.601401
11
0.462563
21
0.6019
0
LINE
8
BLACK
6
CONTINUOUS
10
0.462563
20
0.6019
11
0.462371
21
0.602362
0
LINE
8
BLACK
6
CONTINUOUS
10
0.462371
20
0.602362
11
0.462371
21
0.607053
0
LINE
8
BLACK
6
CONTINUOUS
10
0.462371
20
0.607053
11
0.462563
21
0.607515
0
LINE
8
BLACK
6
CONTINUOUS
10
0.462563
20
0.607515
11
0.462598
21
0.608014
0
LINE
8
BLACK
6
CONTINUOUS
10
0.462598
20
0.608014
11
0.463536
21
0.609891
0
LINE
8
BLACK
6
CONTINUOUS
10
0.463536
20
0.609891
11
0.463804
21
0.610122
0
LINE
8
BLACK
6
CONTINUOUS
10
0.463804
20
0.610122
11
0.463939
21
0.610449
0
LINE
8
BLACK
6
CONTINUOUS
10
0.463939
20
0.610449
11
0.464877
21
0.611387
0
LINE
8
BLACK
6
CONTINUOUS
10
0.464877
20
0.611387
11
0.465204
21
0.611523
0
LINE
8
BLACK
6
CONTINUOUS
10
0.465204
20
0.611523
11
0.465436
21
0.61179
0
LINE
8
BLACK
6
CONTINUOUS
10
0.465436
20
0.61179
11
0.466781
21
0.612463
0
LINE
8
BLACK
6
CONTINUOUS
10
0.466781
20
0.612463
11
0.462903
21
0.616894
0
LINE
8
BLACK
6
CONTINUOUS
10
0.462903
20
0.616894
11
0.462661
21
0.617611
0
LINE
8
BLACK
6
CONTINUOUS
10
0.462661
20
0.617611
11
0.462371
21
0.61831
0
LINE
8
BLACK
6
CONTINUOUS
10
0.462371
20
0.61831
11
0.462401
21
0.618381
0
LINE
8
BLACK
6
CONTINUOUS
10
0.462401
20
0.618381
11
0.462376
21
0.618453
0
LINE
8
BLACK
6
CONTINUOUS
10
0.462376
20
0.618453
11
0.462712
21
0.619131
0
LINE
8
BLACK
6
CONTINUOUS
10
0.462712
20
0.619131
11
0.463001
21
0.61983
0
LINE
8
BLACK
6
CONTINUOUS
10
0.463001
20
0.61983
11
0.463072
21
0.619859
0
LINE
8
BLACK
6
CONTINUOUS
10
0.463072
20
0.619859
11
0.463106
21
0.619928
0
LINE
8
BLACK
6
CONTINUOUS
10
0.463106
20
0.619928
11
0.463822
21
0.62017
0
LINE
8
BLACK
6
CONTINUOUS
10
0.463822
20
0.62017
11
0.464521
21
0.62046
0
LINE
8
BLACK
6
CONTINUOUS
10
0.464521
20
0.62046
11
0.476717
21
0.62046
0
LINE
8
BLACK
6
CONTINUOUS
10
0.476717
20
0.62046
11
0.478237
21
0.61983
0
LINE
8
BLACK
6
CONTINUOUS
10
0.489239
20
0.620325
11
0.489592
21
0.62035
0
LINE
8
BLACK
6
CONTINUOUS
10
0.489592
20
0.62035
11
0.492406
21
0.619412
0
LINE
8
BLACK
6
CONTINUOUS
10
0.492406
20
0.619412
11
0.492784
21
0.619084
0
LINE
8
BLACK
6
CONTINUOUS
10
0.492784
20
0.619084
11
0.493246
21
0.618892
0
LINE
8
BLACK
6
CONTINUOUS
10
0.493246
20
0.618892
11
0.495123
21
0.617016
0
LINE
8
BLACK
6
CONTINUOUS
10
0.495123
20
0.617016
11
0.495258
21
0.616689
0
LINE
8
BLACK
6
CONTINUOUS
10
0.495258
20
0.616689
11
0.495525
21
0.616457
0
LINE
8
BLACK
6
CONTINUOUS
10
0.495525
20
0.616457
11
0.496463
21
0.614581
0
LINE
8
BLACK
6
CONTINUOUS
10
0.496463
20
0.614581
11
0.496481
21
0.614337
0
LINE
8
BLACK
6
CONTINUOUS
10
0.496481
20
0.614337
11
0.496626
21
0.614141
0
LINE
8
BLACK
6
CONTINUOUS
10
0.496626
20
0.614141
11
0.497564
21
0.610389
0
LINE
8
BLACK
6
CONTINUOUS
10
0.497564
20
0.610389
11
0.497524
21
0.610119
0
LINE
8
BLACK
6
CONTINUOUS
10
0.497524
20
0.610119
11
0.497629
21
0.609867
0
LINE
8
BLACK
6
CONTINUOUS
10
0.497629
20
0.609867
11
0.497629
21
0.607053
0
LINE
8
BLACK
6
CONTINUOUS
10
0.497629
20
0.607053
11
0.497524
21
0.606801
0
LINE
8
BLACK
6
CONTINUOUS
10
0.497524
20
0.606801
11
0.497564
21
0.606531
0
LINE
8
BLACK
6
CONTINUOUS
10
0.497564
20
0.606531
11
0.496626
21
0.602779
0
LINE
8
BLACK
6
CONTINUOUS
10
0.496626
20
0.602779
11
0.496481
21
0.602583
0
LINE
8
BLACK
6
CONTINUOUS
10
0.496481
20
0.602583
11
0.496463
21
0.602339
0
LINE
8
BLACK
6
CONTINUOUS
10
0.496463
20
0.602339
11
0.495525
21
0.600463
0
LINE
8
BLACK
6
CONTINUOUS
10
0.495525
20
0.600463
11
0.495258
21
0.600231
0
LINE
8
BLACK
6
CONTINUOUS
10
0.495258
20
0.600231
11
0.495123
21
0.599904
0
LINE
8
BLACK
6
CONTINUOUS
10
0.495123
20
0.599904
11
0.493246
21
0.598028
0
LINE
8
BLACK
6
CONTINUOUS
10
0.493246
20
0.598028
11
0.492784
21
0.597836
0
LINE
8
BLACK
6
CONTINUOUS
10
0.492784
20
0.597836
11
0.492406
21
0.597508
0
LINE
8
BLACK
6
CONTINUOUS
10
0.492406
20
0.597508
11
0.489592
21
0.59657
0
LINE
8
BLACK
6
CONTINUOUS
10
0.489592
20
0.59657
11
0.489239
21
0.596595
0
LINE
8
BLACK
6
CONTINUOUS
10
0.489239
20
0.596595
11
0.488912
21
0.59646
0
LINE
8
BLACK
6
CONTINUOUS
10
0.488912
20
0.59646
11
0.487036
21
0.59646
0
LINE
8
BLACK
6
CONTINUOUS
10
0.487036
20
0.59646
11
0.486709
21
0.596595
0
LINE
8
BLACK
6
CONTINUOUS
10
0.486709
20
0.596595
11
0.486356
21
0.59657
0
LINE
8
BLACK
6
CONTINUOUS
10
0.486356
20
0.59657
11
0.483541
21
0.597508
0
LINE
8
BLACK
6
CONTINUOUS
10
0.483541
20
0.597508
11
0.483163
21
0.597836
0
LINE
8
BLACK
6
CONTINUOUS
10
0.483163
20
0.597836
11
0.482701
21
0.598028
0
LINE
8
BLACK
6
CONTINUOUS
10
0.482701
20
0.598028
11
0.481763
21
0.598966
0
LINE
8
BLACK
6
CONTINUOUS
10
0.481763
20
0.598966
11
0.481133
21
0.600486
0
LINE
8
BLACK
6
CONTINUOUS
10
0.481133
20
0.600486
11
0.481763
21
0.602006
0
LINE
8
BLACK
6
CONTINUOUS
10
0.481763
20
0.602006
11
0.483283
21
0.602636
0
LINE
8
BLACK
6
CONTINUOUS
10
0.483283
20
0.602636
11
0.484804
21
0.602006
0
LINE
8
BLACK
6
CONTINUOUS
10
0.484804
20
0.602006
11
0.485383
21
0.601427
0
LINE
8
BLACK
6
CONTINUOUS
10
0.485383
20
0.601427
11
0.487385
21
0.60076
0
LINE
8
BLACK
6
CONTINUOUS
10
0.487385
20
0.60076
11
0.488563
21
0.60076
0
LINE
8
BLACK
6
CONTINUOUS
10
0.488563
20
0.60076
11
0.490565
21
0.601427
0
LINE
8
BLACK
6
CONTINUOUS
10
0.490565
20
0.601427
11
0.491835
21
0.602698
0
LINE
8
BLACK
6
CONTINUOUS
10
0.491835
20
0.602698
11
0.492512
21
0.604051
0
LINE
8
BLACK
6
CONTINUOUS
10
0.492512
20
0.604051
11
0.493329
21
0.607318
0
LINE
8
BLACK
6
CONTINUOUS
10
0.493329
20
0.607318
11
0.493329
21
0.609602
0
LINE
8
BLACK
6
CONTINUOUS
10
0.493329
20
0.609602
11
0.492512
21
0.612869
0
LINE
8
BLACK
6
CONTINUOUS
10
0.492512
20
0.612869
11
0.491835
21
0.614222
0
LINE
8
BLACK
6
CONTINUOUS
10
0.491835
20
0.614222
11
0.490565
21
0.615493
0
LINE
8
BLACK
6
CONTINUOUS
10
0.490565
20
0.615493
11
0.488563
21
0.61616
0
LINE
8
BLACK
6
CONTINUOUS
10
0.488563
20
0.61616
11
0.487385
21
0.61616
0
LINE
8
BLACK
6
CONTINUOUS
10
0.487385
20
0.61616
11
0.485383
21
0.615493
0
LINE
8
BLACK
6
CONTINUOUS
10
0.485383
20
0.615493
11
0.484804
21
0.614914
0
LINE
8
BLACK
6
CONTINUOUS
10
0.484804
20
0.614914
11
0.483283
21
0.614284
0
LINE
8
BLACK
6
CONTINUOUS
10
0.483283
20
0.614284
11
0.481763
21
0.614914
0
LINE
8
BLACK
6
CONTINUOUS
10
0.481763
20
0.614914
11
0.481133
21
0.616434
0
LINE
8
BLACK
6
CONTINUOUS
10
0.481133
20
0.616434
11
0.481763
21
0.617954
0
LINE
8
BLACK
6
CONTINUOUS
10
0.481763
20
0.617954
11
0.482701
21
0.618892
0
LINE
8
BLACK
6
CONTINUOUS
10
0.482701
20
0.618892
11
0.483163
21
0.619084
0
LINE
8
BLACK
6
CONTINUOUS
10
0.483163
20
0.619084
11
0.483541
21
0.619412
0
LINE
8
BLACK
6
CONTINUOUS
10
0.483541
20
0.619412
11
0.486356
21
0.62035
0
LINE
8
BLACK
6
CONTINUOUS
10
0.486356
20
0.62035
11
0.486709
21
0.620325
0
LINE
8
BLACK
6
CONTINUOUS
10
0.486709
20
0.620325
11
0.487036
21
0.62046
0
LINE
8
BLACK
6
CONTINUOUS
10
0.487036
20
0.62046
11
0.488912
21
0.62046
0
LINE
8
BLACK
6
CONTINUOUS
10
0.488912
20
0.62046
11
0.489239
21
0.620325
0
LINE
8
BLACK
6
CONTINUOUS
10
0.41129
20
0.635638
11
0.411861
21
0.634259
0
LINE
8
BLACK
6
CONTINUOUS
10
0.411861
20
0.634259
11
0.41129
21
0.632881
0
LINE
8
BLACK
6
CONTINUOUS
10
0.41129
20
0.632881
11
0.409911
21
0.632309
0
LINE
8
BLACK
6
CONTINUOUS
10
0.409911
20
0.632309
11
0.402276
21
0.632309
0
LINE
8
BLACK
6
CONTINUOUS
10
0.402276
20
0.632309
11
0.401622
21
0.631656
0
LINE
8
BLACK
6
CONTINUOUS
10
0.401622
20
0.631656
11
0.411081
21
0.624562
0
LINE
8
BLACK
6
CONTINUOUS
10
0.411081
20
0.624562
11
0.411841
21
0.623278
0
LINE
8
BLACK
6
CONTINUOUS
10
0.411841
20
0.623278
11
0.411471
21
0.621832
0
LINE
8
BLACK
6
CONTINUOUS
10
0.411471
20
0.621832
11
0.410186
21
0.621072
0
LINE
8
BLACK
6
CONTINUOUS
10
0.410186
20
0.621072
11
0.408741
21
0.621442
0
LINE
8
BLACK
6
CONTINUOUS
10
0.408741
20
0.621442
11
0.398837
21
0.62887
0
LINE
8
BLACK
6
CONTINUOUS
10
0.398837
20
0.62887
11
0.39159
21
0.621624
0
LINE
8
BLACK
6
CONTINUOUS
10
0.39159
20
0.621624
11
0.390211
21
0.621052
0
LINE
8
BLACK
6
CONTINUOUS
10
0.390211
20
0.621052
11
0.388832
21
0.621624
0
LINE
8
BLACK
6
CONTINUOUS
10
0.388832
20
0.621624
11
0.388261
21
0.623002
0
LINE
8
BLACK
6
CONTINUOUS
10
0.388261
20
0.623002
11
0.388832
21
0.624381
0
LINE
8
BLACK
6
CONTINUOUS
10
0.388832
20
0.624381
11
0.39676
21
0.632309
0
LINE
8
BLACK
6
CONTINUOUS
10
0.39676
20
0.632309
11
0.390211
21
0.632309
0
LINE
8
BLACK
6
CONTINUOUS
10
0.390211
20
0.632309
11
0.388832
21
0.632881
0
LINE
8
BLACK
6
CONTINUOUS
10
0.388832
20
0.632881
11
0.388261
21
0.634259
0
LINE
8
BLACK
6
CONTINUOUS
10
0.388261
20
0.634259
11
0.388832
21
0.635638
0
LINE
8
BLACK
6
CONTINUOUS
10
0.388832
20
0.635638
11
0.390211
21
0.636209
0
LINE
8
BLACK
6
CONTINUOUS
10
0.390211
20
0.636209
11
0.409911
21
0.636209
0
LINE
8
BLACK
6
CONTINUOUS
10
0.409911
20
0.636209
11
0.41129
21
0.635638
0
LINE
8
BLACK
6
CONTINUOUS
10
0.480423
20
0.640764
11
0.481052
21
0.639243
0
LINE
8
BLACK
6
CONTINUOUS
10
0.481052
20
0.639243
11
0.481052
21
0.628924
0
LINE
8
BLACK
6
CONTINUOUS
10
0.481052
20
0.628924
11
0.480861
21
0.628462
0
LINE
8
BLACK
6
CONTINUOUS
10
0.480861
20
0.628462
11
0.480825
21
0.627963
0
LINE
8
BLACK
6
CONTINUOUS
10
0.480825
20
0.627963
11
0.479887
21
0.626087
0
LINE
8
BLACK
6
CONTINUOUS
10
0.479887
20
0.626087
11
0.479372
21
0.62564
0
LINE
8
BLACK
6
CONTINUOUS
10
0.479372
20
0.62564
11
0.478926
21
0.625125
0
LINE
8
BLACK
6
CONTINUOUS
10
0.478926
20
0.625125
11
0.47705
21
0.624187
0
LINE
8
BLACK
6
CONTINUOUS
10
0.47705
20
0.624187
11
0.47655
21
0.624151
0
LINE
8
BLACK
6
CONTINUOUS
10
0.47655
20
0.624151
11
0.476088
21
0.62396
0
LINE
8
BLACK
6
CONTINUOUS
10
0.476088
20
0.62396
11
0.473274
21
0.62396
0
LINE
8
BLACK
6
CONTINUOUS
10
0.473274
20
0.62396
11
0.472811
21
0.624151
0
LINE
8
BLACK
6
CONTINUOUS
10
0.472811
20
0.624151
11
0.472312
21
0.624187
0
LINE
8
BLACK
6
CONTINUOUS
10
0.472312
20
0.624187
11
0.471721
21
0.624483
0
LINE
8
BLACK
6
CONTINUOUS
10
0.471721
20
0.624483
11
0.47046
21
0.62396
0
LINE
8
BLACK
6
CONTINUOUS
10
0.47046
20
0.62396
11
0.468939
21
0.62459
0
LINE
8
BLACK
6
CONTINUOUS
10
0.468939
20
0.62459
11
0.46831
21
0.62611
0
LINE
8
BLACK
6
CONTINUOUS
10
0.46831
20
0.62611
11
0.46831
21
0.639243
0
LINE
8
BLACK
6
CONTINUOUS
10
0.46831
20
0.639243
11
0.468939
21
0.640764
0
LINE
8
BLACK
6
CONTINUOUS
10
0.468939
20
0.640764
11
0.47046
21
0.641393
0
LINE
8
BLACK
6
CONTINUOUS
10
0.47046
20
0.641393
11
0.47198
21
0.640764
0
LINE
8
BLACK
6
CONTINUOUS
10
0.47198
20
0.640764
11
0.47261
21
0.639243
0
LINE
8
BLACK
6
CONTINUOUS
10
0.47261
20
0.639243
11
0.47261
21
0.628877
0
LINE
8
BLACK
6
CONTINUOUS
10
0.47261
20
0.628877
11
0.472671
21
0.628815
0
LINE
8
BLACK
6
CONTINUOUS
10
0.472671
20
0.628815
11
0.473781
21
0.62826
0
LINE
8
BLACK
6
CONTINUOUS
10
0.473781
20
0.62826
11
0.475581
21
0.62826
0
LINE
8
BLACK
6
CONTINUOUS
10
0.475581
20
0.62826
11
0.476362
21
0.628651
0
LINE
8
BLACK
6
CONTINUOUS
10
0.476362
20
0.628651
11
0.476752
21
0.629432
0
LINE
8
BLACK
6
CONTINUOUS
10
0.476752
20
0.629432
11
0.476752
21
0.639243
0
LINE
8
BLACK
6
CONTINUOUS
10
0.476752
20
0.639243
11
0.477382
21
0.640764
0
LINE
8
BLACK
6
CONTINUOUS
10
0.477382
20
0.640764
11
0.478902
21
0.641393
0
LINE
8
BLACK
6
CONTINUOUS
10
0.478902
20
0.641393
11
0.480423
21
0.640764
0
LINE
8
BLACK
6
CONTINUOUS
10
0.494374
20
0.647768
11
0.494873
21
0.647733
0
LINE
8
BLACK
6
CONTINUOUS
10
0.494873
20
0.647733
11
0.49675
21
0.646795
0
LINE
8
BLACK
6
CONTINUOUS
10
0.49675
20
0.646795
11
0.496981
21
0.646528
0
LINE
8
BLACK
6
CONTINUOUS
10
0.496981
20
0.646528
11
0.497308
21
0.646392
0
LINE
8
BLACK
6
CONTINUOUS
10
0.497308
20
0.646392
11
0.498246
21
0.645454
0
LINE
8
BLACK
6
CONTINUOUS
10
0.498246
20
0.645454
11
0.498382
21
0.645127
0
LINE
8
BLACK
6
CONTINUOUS
10
0.498382
20
0.645127
11
0.498649
21
0.644895
0
LINE
8
BLACK
6
CONTINUOUS
10
0.498649
20
0.644895
11
0.499587
21
0.643019
0
LINE
8
BLACK
6
CONTINUOUS
10
0.499587
20
0.643019
11
0.499605
21
0.642775
0
LINE
8
BLACK
6
CONTINUOUS
10
0.499605
20
0.642775
11
0.49975
21
0.642579
0
LINE
8
BLACK
6
CONTINUOUS
10
0.49975
20
0.642579
11
0.500688
21
0.638827
0
LINE
8
BLACK
6
CONTINUOUS
10
0.500688
20
0.638827
11
0.500648
21
0.638557
0
LINE
8
BLACK
6
CONTINUOUS
10
0.500648
20
0.638557
11
0.500752
21
0.638305
0
LINE
8
BLACK
6
CONTINUOUS
10
0.500752
20
0.638305
11
0.500752
21
0.633615
0
LINE
8
BLACK
6
CONTINUOUS
10
0.500752
20
0.633615
11
0.500648
21
0.633363
0
LINE
8
BLACK
6
CONTINUOUS
10
0.500648
20
0.633363
11
0.500688
21
0.633093
0
LINE
8
BLACK
6
CONTINUOUS
10
0.500688
20
0.633093
11
0.49975
21
0.629341
0
LINE
8
BLACK
6
CONTINUOUS
10
0.49975
20
0.629341
11
0.499605
21
0.629145
0
LINE
8
BLACK
6
CONTINUOUS
10
0.499605
20
0.629145
11
0.499587
21
0.628901
0
LINE
8
BLACK
6
CONTINUOUS
10
0.499587
20
0.628901
11
0.498649
21
0.627025
0
LINE
8
BLACK
6
CONTINUOUS
10
0.498649
20
0.627025
11
0.498382
21
0.626793
0
LINE
8
BLACK
6
CONTINUOUS
10
0.498382
20
0.626793
11
0.498246
21
0.626466
0
LINE
8
BLACK
6
CONTINUOUS
10
0.498246
20
0.626466
11
0.497308
21
0.625528
0
LINE
8
BLACK
6
CONTINUOUS
10
0.497308
20
0.625528
11
0.496981
21
0.625392
0
LINE
8
BLACK
6
CONTINUOUS
10
0.496981
20
0.625392
11
0.49675
21
0.625125
0
LINE
8
BLACK
6
CONTINUOUS
10
0.49675
20
0.625125
11
0.494873
21
0.624187
0
LINE
8
BLACK
6
CONTINUOUS
10
0.494873
20
0.624187
11
0.494374
21
0.624151
0
LINE
8
BLACK
6
CONTINUOUS
10
0.494374
20
0.624151
11
0.493912
21
0.62396
0
LINE
8
BLACK
6
CONTINUOUS
10
0.493912
20
0.62396
11
0.492036
21
0.62396
0
LINE
8
BLACK
6
CONTINUOUS
10
0.492036
20
0.62396
11
0.491573
21
0.624151
0
LINE
8
BLACK
6
CONTINUOUS
10
0.491573
20
0.624151
11
0.491074
21
0.624187
0
LINE
8
BLACK
6
CONTINUOUS
10
0.491074
20
0.624187
11
0.489198
21
0.625125
0
LINE
8
BLACK
6
CONTINUOUS
10
0.489198
20
0.625125
11
0.488966
21
0.625392
0
LINE
8
BLACK
6
CONTINUOUS
10
0.488966
20
0.625392
11
0.488639
21
0.625528
0
LINE
8
BLACK
6
CONTINUOUS
10
0.488639
20
0.625528
11
0.487701
21
0.626466
0
LINE
8
BLACK
6
CONTINUOUS
10
0.487701
20
0.626466
11
0.487566
21
0.626793
0
LINE
8
BLACK
6
CONTINUOUS
10
0.487566
20
0.626793
11
0.487298
21
0.627025
0
LINE
8
BLACK
6
CONTINUOUS
10
0.487298
20
0.627025
11
0.48636
21
0.628901
0
LINE
8
BLACK
6
CONTINUOUS
10
0.48636
20
0.628901
11
0.486343
21
0.629145
0
LINE
8
BLACK
6
CONTINUOUS
10
0.486343
20
0.629145
11
0.486197
21
0.629341
0
LINE
8
BLACK
6
CONTINUOUS
10
0.486197
20
0.629341
11
0.485259
21
0.633093
0
LINE
8
BLACK
6
CONTINUOUS
10
0.485259
20
0.633093
11
0.4853
21
0.633363
0
LINE
8
BLACK
6
CONTINUOUS
10
0.4853
20
0.633363
11
0.485195
21
0.633615
0
LINE
8
BLACK
6
CONTINUOUS
10
0.485195
20
0.633615
11
0.485195
21
0.638305
0
LINE
8
BLACK
6
CONTINUOUS
10
0.485195
20
0.638305
11
0.4853
21
0.638557
0
LINE
8
BLACK
6
CONTINUOUS
10
0.4853
20
0.638557
11
0.485259
21
0.638827
0
LINE
8
BLACK
6
CONTINUOUS
10
0.485259
20
0.638827
11
0.486197
21
0.642579
0
LINE
8
BLACK
6
CONTINUOUS
10
0.486197
20
0.642579
11
0.486343
21
0.642775
0
LINE
8
BLACK
6
CONTINUOUS
10
0.486343
20
0.642775
11
0.48636
21
0.643019
0
LINE
8
BLACK
6
CONTINUOUS
10
0.48636
20
0.643019
11
0.487298
21
0.644895
0
LINE
8
BLACK
6
CONTINUOUS
10
0.487298
20
0.644895
11
0.487566
21
0.645127
0
LINE
8
BLACK
6
CONTINUOUS
10
0.487566
20
0.645127
11
0.487701
21
0.645454
0
LINE
8
BLACK
6
CONTINUOUS
10
0.487701
20
0.645454
11
0.488639
21
0.646392
0
LINE
8
BLACK
6
CONTINUOUS
10
0.488639
20
0.646392
11
0.488966
21
0.646528
0
LINE
8
BLACK
6
CONTINUOUS
10
0.488966
20
0.646528
11
0.489198
21
0.646795
0
LINE
8
BLACK
6
CONTINUOUS
10
0.489198
20
0.646795
11
0.491074
21
0.647733
0
LINE
8
BLACK
6
CONTINUOUS
10
0.491074
20
0.647733
11
0.491573
21
0.647768
0
LINE
8
BLACK
6
CONTINUOUS
10
0.491573
20
0.647768
11
0.492036
21
0.64796
0
LINE
8
BLACK
6
CONTINUOUS
10
0.492036
20
0.64796
11
0.493912
21
0.64796
0
LINE
8
BLACK
6
CONTINUOUS
10
0.493912
20
0.64796
11
0.494374
21
0.647768
0
LINE
8
BLACK
6
CONTINUOUS
10
0.491433
20
0.643105
11
0.490988
21
0.64266
0
LINE
8
BLACK
6
CONTINUOUS
10
0.490988
20
0.64266
11
0.490312
21
0.641307
0
LINE
8
BLACK
6
CONTINUOUS
10
0.490312
20
0.641307
11
0.489495
21
0.63804
0
LINE
8
BLACK
6
CONTINUOUS
10
0.489495
20
0.63804
11
0.489495
21
0.633879
0
LINE
8
BLACK
6
CONTINUOUS
10
0.489495
20
0.633879
11
0.490312
21
0.630613
0
LINE
8
BLACK
6
CONTINUOUS
10
0.490312
20
0.630613
11
0.490988
21
0.62926
0
LINE
8
BLACK
6
CONTINUOUS
10
0.490988
20
0.62926
11
0.491433
21
0.628815
0
LINE
8
BLACK
6
CONTINUOUS
10
0.491433
20
0.628815
11
0.492543
21
0.62826
0
LINE
8
BLACK
6
CONTINUOUS
10
0.492543
20
0.62826
11
0.493404
21
0.62826
0
LINE
8
BLACK
6
CONTINUOUS
10
0.493404
20
0.62826
11
0.494514
21
0.628815
0
LINE
8
BLACK
6
CONTINUOUS
10
0.494514
20
0.628815
11
0.494959
21
0.62926
0
LINE
8
BLACK
6
CONTINUOUS
10
0.494959
20
0.62926
11
0.495636
21
0.630613
0
LINE
8
BLACK
6
CONTINUOUS
10
0.495636
20
0.630613
11
0.496452
21
0.633879
0
LINE
8
BLACK
6
CONTINUOUS
10
0.496452
20
0.633879
11
0.496452
21
0.63804
0
LINE
8
BLACK
6
CONTINUOUS
10
0.496452
20
0.63804
11
0.495636
21
0.641307
0
LINE
8
BLACK
6
CONTINUOUS
10
0.495636
20
0.641307
11
0.494959
21
0.64266
0
LINE
8
BLACK
6
CONTINUOUS
10
0.494959
20
0.64266
11
0.494514
21
0.643105
0
LINE
8
BLACK
6
CONTINUOUS
10
0.494514
20
0.643105
11
0.493404
21
0.64366
0
LINE
8
BLACK
6
CONTINUOUS
10
0.493404
20
0.64366
11
0.492543
21
0.64366
0
LINE
8
BLACK
6
CONTINUOUS
10
0.492543
20
0.64366
11
0.491433
21
0.643105
0
LINE
8
BLACK
6
CONTINUOUS
10
0.270133
20
0.692339
11
0.272329
21
0.690143
0
LINE
8
BLACK
6
CONTINUOUS
10
0.272329
20
0.690143
11
0.273133
21
0.687143
0
LINE
8
BLACK
6
CONTINUOUS
10
0.273133
20
0.687143
11
0.273133
21
0.652857
0
LINE
8
BLACK
6
CONTINUOUS
10
0.273133
20
0.652857
11
0.272329
21
0.649857
0
LINE
8
BLACK
6
CONTINUOUS
10
0.272329
20
0.649857
11
0.270133
21
0.647661
0
LINE
8
BLACK
6
CONTINUOUS
10
0.270133
20
0.647661
11
0.267133
21
0.646857
0
LINE
8
BLACK
6
CONTINUOUS
10
0.267133
20
0.646857
11
0.264133
21
0.647661
0
LINE
8
BLACK
6
CONTINUOUS
10
0.264133
20
0.647661
11
0.261937
21
0.649857
0
LINE
8
BLACK
6
CONTINUOUS
10
0.261937
20
0.649857
11
0.261133
21
0.652857
0
LINE
8
BLACK
6
CONTINUOUS
10
0.261133
20
0.652857
11
0.261133
21
0.664
0
LINE
8
BLACK
6
CONTINUOUS
10
0.261133
20
0.664
11
0.207133
21
0.664
0
LINE
8
BLACK
6
CONTINUOUS
10
0.207133
20
0.664
11
0.205814
21
0.664354
0
LINE
8
BLACK
6
CONTINUOUS
10
0.205814
20
0.664354
11
0.204474
21
0.664621
0
LINE
8
BLACK
6
CONTINUOUS
10
0.204474
20
0.664621
11
0.204325
21
0.664752
0
LINE
8
BLACK
6
CONTINUOUS
10
0.204325
20
0.664752
11
0.204133
21
0.664804
0
LINE
8
BLACK
6
CONTINUOUS
10
0.204133
20
0.664804
11
0.203167
21
0.66577
0
LINE
8
BLACK
6
CONTINUOUS
10
0.203167
20
0.66577
11
0.202141
21
0.666672
0
LINE
8
BLACK
6
CONTINUOUS
10
0.202141
20
0.666672
11
0.202077
21
0.66686
0
LINE
8
BLACK
6
CONTINUOUS
10
0.202077
20
0.66686
11
0.201937
21
0.667
0
LINE
8
BLACK
6
CONTINUOUS
10
0.201937
20
0.667
11
0.201583
21
0.66832
0
LINE
8
BLACK
6
CONTINUOUS
10
0.201583
20
0.66832
11
0.201146
21
0.669614
0
LINE
8
BLACK
6
CONTINUOUS
10
0.201146
20
0.669614
11
0.201184
21
0.669808
0
LINE
8
BLACK
6
CONTINUOUS
10
0.201184
20
0.669808
11
0.201133
21
0.67
0
LINE
8
BLACK
6
CONTINUOUS
10
0.201133
20
0.67
11
0.201487
21
0.67132
0
LINE
8
BLACK
6
CONTINUOUS
10
0.201487
20
0.67132
11
0.201755
21
0.672659
0
LINE
8
BLACK
6
CONTINUOUS
10
0.201755
20
0.672659
11
0.201886
21
0.672808
0
LINE
8
BLACK
6
CONTINUOUS
10
0.201886
20
0.672808
11
0.201937
21
0.673
0
LINE
8
BLACK
6
CONTINUOUS
10
0.201937
20
0.673
11
0.202903
21
0.673966
0
LINE
8
BLACK
6
CONTINUOUS
10
0.202903
20
0.673966
11
0.203805
21
0.674992
0
LINE
8
BLACK
6
CONTINUOUS
10
0.203805
20
0.674992
11
0.211882
21
0.680377
0
LINE
8
BLACK
6
CONTINUOUS
10
0.211882
20
0.680377
11
0.216488
21
0.684983
0
LINE
8
BLACK
6
CONTINUOUS
10
0.216488
20
0.684983
11
0.218909
21
0.689826
0
LINE
8
BLACK
6
CONTINUOUS
10
0.218909
20
0.689826
11
0.22097
21
0.69215
0
LINE
8
BLACK
6
CONTINUOUS
10
0.22097
20
0.69215
11
0.223916
21
0.693132
0
LINE
8
BLACK
6
CONTINUOUS
10
0.223916
20
0.693132
11
0.226959
21
0.692509
0
LINE
8
BLACK
6
CONTINUOUS
10
0.226959
20
0.692509
11
0.229283
21
0.690449
0
LINE
8
BLACK
6
CONTINUOUS
10
0.229283
20
0.690449
11
0.230265
21
0.687502
0
LINE
8
BLACK
6
CONTINUOUS
10
0.230265
20
0.687502
11
0.229643
21
0.68446
0
LINE
8
BLACK
6
CONTINUOUS
10
0.229643
20
0.68446
11
0.226785
21
0.678745
0
LINE
8
BLACK
6
CONTINUOUS
10
0.226785
20
0.678745
11
0.226144
21
0.678022
0
LINE
8
BLACK
6
CONTINUOUS
10
0.226144
20
0.678022
11
0.225661
21
0.677186
0
LINE
8
BLACK
6
CONTINUOUS
10
0.225661
20
0.677186
11
0.224476
21
0.676
0
LINE
8
BLACK
6
CONTINUOUS
10
0.224476
20
0.676
11
0.261133
21
0.676
0
LINE
8
BLACK
6
CONTINUOUS
10
0.261133
20
0.676
11
0.261133
21
0.687143
0
LINE
8
BLACK
6
CONTINUOUS
10
0.261133
20
0.687143
11
0.261937
21
0.690143
0
LINE
8
BLACK
6
CONTINUOUS
10
0.261937
20
0.690143
11
0.264133
21
0.692339
0
LINE
8
BLACK
6
CONTINUOUS
10
0.264133
20
0.692339
11
0.267133
21
0.693143
0
LINE
8
BLACK
6
CONTINUOUS
10
0.267133
20
0.693143
11
0.270133
21
0.692339
0
LINE
8
BLACK
6
CONTINUOUS
10
0.380035
20
0.716641
11
0.380164
21
0.716652
0
LINE
8
BLACK
6
CONTINUOUS
10
0.380164
20
0.716652
11
0.380229
21
0.716606
0
LINE
8
BLACK
6
CONTINUOUS
10
0.380229
20
0.716606
11
0.38041
21
0.716575
0
LINE
8
BLACK
6
CONTINUOUS
10
0.38041
20
0.716575
11
0.381091
21
0.716003
0
LINE
8
BLACK
6
CONTINUOUS
10
0.381091
20
0.716003
11
0.381819
21
0.715494
0
LINE
8
BLACK
6
CONTINUOUS
10
0.381819
20
0.715494
11
0.381854
21
0.715363
0
LINE
8
BLACK
6
CONTINUOUS
10
0.381854
20
0.715363
11
0.381957
21
0.715276
0
LINE
8
BLACK
6
CONTINUOUS
10
0.381957
20
0.715276
11
0.382111
21
0.714401
0
LINE
8
BLACK
6
CONTINUOUS
10
0.382111
20
0.714401
11
0.382341
21
0.713543
0
LINE
8
BLACK
6
CONTINUOUS
10
0.382341
20
0.713543
11
0.382284
21
0.71342
0
LINE
8
BLACK
6
CONTINUOUS
10
0.382284
20
0.71342
11
0.382308
21
0.713287
0
LINE
8
BLACK
6
CONTINUOUS
10
0.382308
20
0.713287
11
0.381863
21
0.712517
0
LINE
8
BLACK
6
CONTINUOUS
10
0.381863
20
0.712517
11
0.381488
21
0.711712
0
LINE
8
BLACK
6
CONTINUOUS
10
0.381488
20
0.711712
11
0.347129
21
0.677353
0
LINE
8
BLACK
6
CONTINUOUS
10
0.347129
20
0.677353
11
0.3813
21
0.677353
0
LINE
8
BLACK
6
CONTINUOUS
10
0.3813
20
0.677353
11
0.38231
21
0.677175
0
LINE
8
BLACK
6
CONTINUOUS
10
0.38231
20
0.677175
11
0.383857
21
0.675876
0
LINE
8
BLACK
6
CONTINUOUS
10
0.383857
20
0.675876
11
0.384208
21
0.673887
0
LINE
8
BLACK
6
CONTINUOUS
10
0.384208
20
0.673887
11
0.383198
21
0.672138
0
LINE
8
BLACK
6
CONTINUOUS
10
0.383198
20
0.672138
11
0.3813
21
0.671447
0
LINE
8
BLACK
6
CONTINUOUS
10
0.3813
20
0.671447
11
0.2987
21
0.671447
0
LINE
8
BLACK
6
CONTINUOUS
10
0.2987
20
0.671447
11
0.29769
21
0.671625
0
LINE
8
BLACK
6
CONTINUOUS
10
0.29769
20
0.671625
11
0.296143
21
0.672924
0
LINE
8
BLACK
6
CONTINUOUS
10
0.296143
20
0.672924
11
0.295792
21
0.674913
0
LINE
8
BLACK
6
CONTINUOUS
10
0.295792
20
0.674913
11
0.296802
21
0.676662
0
LINE
8
BLACK
6
CONTINUOUS
10
0.296802
20
0.676662
11
0.2987
21
0.677353
0
LINE
8
BLACK
6
CONTINUOUS
10
0.2987
20
0.677353
11
0.334614
21
0.677353
0
LINE
8
BLACK
6
CONTINUOUS
10
0.334614
20
0.677353
11
0.298564
21
0.711661
0
LINE
8
BLACK
6
CONTINUOUS
10
0.298564
20
0.711661
11
0.298129
21
0.712251
0
LINE
8
BLACK
6
CONTINUOUS
10
0.298129
20
0.712251
11
0.298043
21
0.712324
0
LINE
8
BLACK
6
CONTINUOUS
10
0.298043
20
0.712324
11
0.298033
21
0.712382
0
LINE
8
BLACK
6
CONTINUOUS
10
0.298033
20
0.712382
11
0.297956
21
0.712486
0
LINE
8
BLACK
6
CONTINUOUS
10
0.297956
20
0.712486
11
0.297852
21
0.713404
0
LINE
8
BLACK
6
CONTINUOUS
10
0.297852
20
0.713404
11
0.297692
21
0.714313
0
LINE
8
BLACK
6
CONTINUOUS
10
0.297692
20
0.714313
11
0.297741
21
0.714397
0
LINE
8
BLACK
6
CONTINUOUS
10
0.297741
20
0.714397
11
0.29773
21
0.714493
0
LINE
8
BLACK
6
CONTINUOUS
10
0.29773
20
0.714493
11
0.29824
21
0.715263
0
LINE
8
BLACK
6
CONTINUOUS
10
0.29824
20
0.715263
11
0.298702
21
0.716062
0
LINE
8
BLACK
6
CONTINUOUS
10
0.298702
20
0.716062
11
0.298793
21
0.716095
0
LINE
8
BLACK
6
CONTINUOUS
10
0.298793
20
0.716095
11
0.298847
21
0.716176
0
LINE
8
BLACK
6
CONTINUOUS
10
0.298847
20
0.716176
11
0.299733
21
0.716437
0
LINE
8
BLACK
6
CONTINUOUS
10
0.299733
20
0.716437
11
0.3006
21
0.716753
0
LINE
8
BLACK
6
CONTINUOUS
10
0.3006
20
0.716753
11
0.3794
21
0.716753
0
LINE
8
BLACK
6
CONTINUOUS
10
0.3794
20
0.716753
11
0.380035
21
0.716641
0
LINE
8
BLACK
6
CONTINUOUS
10
0.307986
20
0.710847
11
0.340924
21
0.6795
0
LINE
8
BLACK
6
CONTINUOUS
10
0.340924
20
0.6795
11
0.372271
21
0.710847
0
LINE
8
BLACK
6
CONTINUOUS
10
0.372271
20
0.710847
11
0.307986
21
0.710847
0
LINE
8
BLACK
6
CONTINUOUS
10
0.270133
20
0.749482
11
0.272329
21
0.747286
0
LINE
8
BLACK
6
CONTINUOUS
10
0.272329
20
0.747286
11
0.273133
21
0.744286
0
LINE
8
BLACK
6
CONTINUOUS
10
0.273133
20
0.744286
11
0.273133
21
0.73
0
LINE
8
BLACK
6
CONTINUOUS
10
0.273133
20
0.73
11
0.272883
21
0.729067
0
LINE
8
BLACK
6
CONTINUOUS
10
0.272883
20
0.729067
11
0.272825
21
0.728103
0
LINE
8
BLACK
6
CONTINUOUS
10
0.272825
20
0.728103
11
0.269968
21
0.719531
0
LINE
8
BLACK
6
CONTINUOUS
10
0.269968
20
0.719531
11
0.269208
21
0.71838
0
LINE
8
BLACK
6
CONTINUOUS
10
0.269208
20
0.71838
11
0.268519
21
0.717186
0
LINE
8
BLACK
6
CONTINUOUS
10
0.268519
20
0.717186
11
0.262804
21
0.711472
0
LINE
8
BLACK
6
CONTINUOUS
10
0.262804
20
0.711472
11
0.261968
21
0.710989
0
LINE
8
BLACK
6
CONTINUOUS
10
0.261968
20
0.710989
11
0.261245
21
0.710348
0
LINE
8
BLACK
6
CONTINUOUS
10
0.261245
20
0.710348
11
0.255531
21
0.707491
0
LINE
8
BLACK
6
CONTINUOUS
10
0.255531
20
0.707491
11
0.254882
21
0.707358
0
LINE
8
BLACK
6
CONTINUOUS
10
0.254882
20
0.707358
11
0.254303
21
0.707036
0
LINE
8
BLACK
6
CONTINUOUS
10
0.254303
20
0.707036
11
0.242874
21
0.704179
0
LINE
8
BLACK
6
CONTINUOUS
10
0.242874
20
0.704179
11
0.242134
21
0.704192
0
LINE
8
BLACK
6
CONTINUOUS
10
0.242134
20
0.704192
11
0.241419
21
0.704
0
LINE
8
BLACK
6
CONTINUOUS
10
0.241419
20
0.704
11
0.232847
21
0.704
0
LINE
8
BLACK
6
CONTINUOUS
10
0.232847
20
0.704
11
0.232132
21
0.704192
0
LINE
8
BLACK
6
CONTINUOUS
10
0.232132
20
0.704192
11
0.231392
21
0.704179
0
LINE
8
BLACK
6
CONTINUOUS
10
0.231392
20
0.704179
11
0.219964
21
0.707036
0
LINE
8
BLACK
6
CONTINUOUS
10
0.219964
20
0.707036
11
0.219384
21
0.707358
0
LINE
8
BLACK
6
CONTINUOUS
10
0.219384
20
0.707358
11
0.218736
21
0.707491
0
LINE
8
BLACK
6
CONTINUOUS
10
0.218736
20
0.707491
11
0.213021
21
0.710348
0
LINE
8
BLACK
6
CONTINUOUS
10
0.213021
20
0.710348
11
0.212298
21
0.710989
0
LINE
8
BLACK
6
CONTINUOUS
10
0.212298
20
0.710989
11
0.211462
21
0.711472
0
LINE
8
BLACK
6
CONTINUOUS
10
0.211462
20
0.711472
11
0.205748
21
0.717186
0
LINE
8
BLACK
6
CONTINUOUS
10
0.205748
20
0.717186
11
0.205058
21
0.71838
0
LINE
8
BLACK
6
CONTINUOUS
10
0.205058
20
0.71838
11
0.204298
21
0.719531
0
LINE
8
BLACK
6
CONTINUOUS
10
0.204298
20
0.719531
11
0.201441
21
0.728103
0
LINE
8
BLACK
6
CONTINUOUS
10
0.201441
20
0.728103
11
0.201383
21
0.729067
0
LINE
8
BLACK
6
CONTINUOUS
10
0.201383
20
0.729067
11
0.201133
21
0.73
0
LINE
8
BLACK
6
CONTINUOUS
10
0.201133
20
0.73
11
0.201133
21
0.744286
0
LINE
8
BLACK
6
CONTINUOUS
10
0.201133
20
0.744286
11
0.201937
21
0.747286
0
LINE
8
BLACK
6
CONTINUOUS
10
0.201937
20
0.747286
11
0.204133
21
0.749482
0
LINE
8
BLACK
6
CONTINUOUS
10
0.204133
20
0.749482
11
0.207133
21
0.750286
0
LINE
8
BLACK
6
CONTINUOUS
10
0.207133
20
0.750286
11
0.267133
21
0.750286
0
LINE
8
BLACK
6
CONTINUOUS
10
0.267133
20
0.750286
11
0.270133
21
0.749482
0
LINE
8
BLACK
6
CONTINUOUS
10
0.213133
20
0.730974
11
0.215234
21
0.72467
0
LINE
8
BLACK
6
CONTINUOUS
10
0.215234
20
0.72467
11
0.219259
21
0.720645
0
LINE
8
BLACK
6
CONTINUOUS
10
0.219259
20
0.720645
11
0.223513
21
0.718518
0
LINE
8
BLACK
6
CONTINUOUS
10
0.223513
20
0.718518
11
0.233586
21
0.716
0
LINE
8
BLACK
6
CONTINUOUS
10
0.233586
20
0.716
11
0.24068
21
0.716
0
LINE
8
BLACK
6
CONTINUOUS
10
0.24068
20
0.716
11
0.250753
21
0.718518
0
LINE
8
BLACK
6
CONTINUOUS
10
0.250753
20
0.718518
11
0.255008
21
0.720645
0
LINE
8
BLACK
6
CONTINUOUS
10
0.255008
20
0.720645
11
0.259032
21
0.72467
0
LINE
8
BLACK
6
CONTINUOUS
10
0.259032
20
0.72467
11
0.261133
21
0.730974
0
LINE
8
BLACK
6
CONTINUOUS
10
0.261133
20
0.730974
11
0.261133
21
0.738286
0
LINE
8
BLACK
6
CONTINUOUS
10
0.261133
20
0.738286
11
0.213133
21
0.738286
0
LINE
8
BLACK
6
CONTINUOUS
10
0.213133
20
0.738286
11
0.213133
21
0.730974
0
LINE
8
BLACK
6
CONTINUOUS
10
0.609596
20
0.862255
11
0.609725
21
0.862278
0
LINE
8
BLACK
6
CONTINUOUS
10
0.609725
20
0.862278
11
0.609839
21
0.862212
0
LINE
8
BLACK
6
CONTINUOUS
10
0.609839
20
0.862212
11
0.610223
21
0.862145
0
LINE
8
BLACK
6
CONTINUOUS
10
0.610223
20
0.862145
11
0.61081
21
0.861652
0
LINE
8
BLACK
6
CONTINUOUS
10
0.61081
20
0.861652
11
0.611475
21
0.861268
0
LINE
8
BLACK
6
CONTINUOUS
10
0.611475
20
0.861268
11
0.611566
21
0.861018
0
LINE
8
BLACK
6
CONTINUOUS
10
0.611566
20
0.861018
11
0.61177
21
0.860846
0
LINE
8
BLACK
6
CONTINUOUS
10
0.61177
20
0.860846
11
0.611903
21
0.860091
0
LINE
8
BLACK
6
CONTINUOUS
10
0.611903
20
0.860091
11
0.612165
21
0.85937
0
LINE
8
BLACK
6
CONTINUOUS
10
0.612165
20
0.85937
11
0.612165
21
0.78063
0
LINE
8
BLACK
6
CONTINUOUS
10
0.612165
20
0.78063
11
0.612098
21
0.780246
0
LINE
8
BLACK
6
CONTINUOUS
10
0.612098
20
0.780246
11
0.612121
21
0.780117
0
LINE
8
BLACK
6
CONTINUOUS
10
0.612121
20
0.780117
11
0.612055
21
0.780004
0
LINE
8
BLACK
6
CONTINUOUS
10
0.612055
20
0.780004
11
0.611987
21
0.77962
0
LINE
8
BLACK
6
CONTINUOUS
10
0.611987
20
0.77962
11
0.611494
21
0.779032
0
LINE
8
BLACK
6
CONTINUOUS
10
0.611494
20
0.779032
11
0.611111
21
0.778368
0
LINE
8
BLACK
6
CONTINUOUS
10
0.611111
20
0.778368
11
0.61086
21
0.778277
0
LINE
8
BLACK
6
CONTINUOUS
10
0.61086
20
0.778277
11
0.610689
21
0.778073
0
LINE
8
BLACK
6
CONTINUOUS
10
0.610689
20
0.778073
11
0.609933
21
0.777939
0
LINE
8
BLACK
6
CONTINUOUS
10
0.609933
20
0.777939
11
0.609213
21
0.777677
0
LINE
8
BLACK
6
CONTINUOUS
10
0.609213
20
0.777677
11
0.510787
21
0.777677
0
LINE
8
BLACK
6
CONTINUOUS
10
0.510787
20
0.777677
11
0.510404
21
0.777745
0
LINE
8
BLACK
6
CONTINUOUS
10
0.510404
20
0.777745
11
0.510275
21
0.777722
0
LINE
8
BLACK
6
CONTINUOUS
10
0.510275
20
0.777722
11
0.510161
21
0.777788
0
LINE
8
BLACK
6
CONTINUOUS
10
0.510161
20
0.777788
11
0.509777
21
0.777855
0
LINE
8
BLACK
6
CONTINUOUS
10
0.509777
20
0.777855
11
0.50919
21
0.778348
0
LINE
8
BLACK
6
CONTINUOUS
10
0.50919
20
0.778348
11
0.508525
21
0.778732
0
LINE
8
BLACK
6
CONTINUOUS
10
0.508525
20
0.778732
11
0.508434
21
0.778982
0
LINE
8
BLACK
6
CONTINUOUS
10
0.508434
20
0.778982
11
0.50823
21
0.779154
0
LINE
8
BLACK
6
CONTINUOUS
10
0.50823
20
0.779154
11
0.508097
21
0.779909
0
LINE
8
BLACK
6
CONTINUOUS
10
0.508097
20
0.779909
11
0.507835
21
0.78063
0
LINE
8
BLACK
6
CONTINUOUS
10
0.507835
20
0.78063
11
0.507835
21
0.85937
0
LINE
8
BLACK
6
CONTINUOUS
10
0.507835
20
0.85937
11
0.507902
21
0.859754
0
LINE
8
BLACK
6
CONTINUOUS
10
0.507902
20
0.859754
11
0.507879
21
0.859883
0
LINE
8
BLACK
6
CONTINUOUS
10
0.507879
20
0.859883
11
0.507945
21
0.859996
0
LINE
8
BLACK
6
CONTINUOUS
10
0.507945
20
0.859996
11
0.508013
21
0.86038
0
LINE
8
BLACK
6
CONTINUOUS
10
0.508013
20
0.86038
11
0.508506
21
0.860968
0
LINE
8
BLACK
6
CONTINUOUS
10
0.508506
20
0.860968
11
0.508889
21
0.861632
0
LINE
8
BLACK
6
CONTINUOUS
10
0.508889
20
0.861632
11
0.50914
21
0.861723
0
LINE
8
BLACK
6
CONTINUOUS
10
0.50914
20
0.861723
11
0.509311
21
0.861927
0
LINE
8
BLACK
6
CONTINUOUS
10
0.509311
20
0.861927
11
0.510067
21
0.86206
0
LINE
8
BLACK
6
CONTINUOUS
10
0.510067
20
0.86206
11
0.510787
21
0.862323
0
LINE
8
BLACK
6
CONTINUOUS
10
0.510787
20
0.862323
11
0.609213
21
0.862323
0
LINE
8
BLACK
6
CONTINUOUS
10
0.609213
20
0.862323
11
0.609596
21
0.862255
0
LINE
8
BLACK
6
CONTINUOUS
10
0.51374
20
0.856417
11
0.51374
21
0.783583
0
LINE
8
BLACK
6
CONTINUOUS
10
0.51374
20
0.783583
11
0.591503
21
0.783583
0
LINE
8
BLACK
6
CONTINUOUS
10
0.591503
20
0.783583
11
0.590927
21
0.78493
0
LINE
8
BLACK
6
CONTINUOUS
10
0.590927
20
0.78493
11
0.591513
21
0.786863
0
LINE
8
BLACK
6
CONTINUOUS
10
0.591513
20
0.786863
11
0.594826
21
0.791279
0
LINE
8
BLACK
6
CONTINUOUS
10
0.594826
20
0.791279
11
0.58903
21
0.793598
0
LINE
8
BLACK
6
CONTINUOUS
10
0.58903
20
0.793598
11
0.588158
21
0.794138
0
LINE
8
BLACK
6
CONTINUOUS
10
0.588158
20
0.794138
11
0.58777
21
0.794862
0
LINE
8
BLACK
6
CONTINUOUS
10
0.58777
20
0.794862
11
0.586238
21
0.792819
0
LINE
8
BLACK
6
CONTINUOUS
10
0.586238
20
0.792819
11
0.585489
21
0.792118
0
LINE
8
BLACK
6
CONTINUOUS
10
0.585489
20
0.792118
11
0.583522
21
0.791659
0
LINE
8
BLACK
6
CONTINUOUS
10
0.583522
20
0.791659
11
0.581721
21
0.792572
0
LINE
8
BLACK
6
CONTINUOUS
10
0.581721
20
0.792572
11
0.580927
21
0.79443
0
LINE
8
BLACK
6
CONTINUOUS
10
0.580927
20
0.79443
11
0.581513
21
0.796363
0
LINE
8
BLACK
6
CONTINUOUS
10
0.581513
20
0.796363
11
0.584826
21
0.800779
0
LINE
8
BLACK
6
CONTINUOUS
10
0.584826
20
0.800779
11
0.57903
21
0.803098
0
LINE
8
BLACK
6
CONTINUOUS
10
0.57903
20
0.803098
11
0.578158
21
0.803638
0
LINE
8
BLACK
6
CONTINUOUS
10
0.578158
20
0.803638
11
0.577204
21
0.805418
0
LINE
8
BLACK
6
CONTINUOUS
10
0.577204
20
0.805418
11
0.577617
21
0.807396
0
LINE
8
BLACK
6
CONTINUOUS
10
0.577617
20
0.807396
11
0.579204
21
0.808645
0
LINE
8
BLACK
6
CONTINUOUS
10
0.579204
20
0.808645
11
0.581223
21
0.808581
0
LINE
8
BLACK
6
CONTINUOUS
10
0.581223
20
0.808581
11
0.586547
21
0.806451
0
LINE
8
BLACK
6
CONTINUOUS
10
0.586547
20
0.806451
11
0.586547
21
0.811464
0
LINE
8
BLACK
6
CONTINUOUS
10
0.586547
20
0.811464
11
0.586725
21
0.812474
0
LINE
8
BLACK
6
CONTINUOUS
10
0.586725
20
0.812474
11
0.588024
21
0.814021
0
LINE
8
BLACK
6
CONTINUOUS
10
0.588024
20
0.814021
11
0.590013
21
0.814372
0
LINE
8
BLACK
6
CONTINUOUS
10
0.590013
20
0.814372
11
0.591762
21
0.813362
0
LINE
8
BLACK
6
CONTINUOUS
10
0.591762
20
0.813362
11
0.592453
21
0.811464
0
LINE
8
BLACK
6
CONTINUOUS
10
0.592453
20
0.811464
11
0.592453
21
0.806451
0
LINE
8
BLACK
6
CONTINUOUS
10
0.592453
20
0.806451
11
0.597777
21
0.808581
0
LINE
8
BLACK
6
CONTINUOUS
10
0.597777
20
0.808581
11
0.598781
21
0.808791
0
LINE
8
BLACK
6
CONTINUOUS
10
0.598781
20
0.808791
11
0.6007
21
0.80816
0
LINE
8
BLACK
6
CONTINUOUS
10
0.6007
20
0.80816
11
0.601764
21
0.806443
0
LINE
8
BLACK
6
CONTINUOUS
10
0.601764
20
0.806443
11
0.601476
21
0.804444
0
LINE
8
BLACK
6
CONTINUOUS
10
0.601476
20
0.804444
11
0.601192
21
0.804191
0
LINE
8
BLACK
6
CONTINUOUS
10
0.601192
20
0.804191
11
0.601762
21
0.803862
0
LINE
8
BLACK
6
CONTINUOUS
10
0.601762
20
0.803862
11
0.602453
21
0.801964
0
LINE
8
BLACK
6
CONTINUOUS
10
0.602453
20
0.801964
11
0.602453
21
0.796951
0
LINE
8
BLACK
6
CONTINUOUS
10
0.602453
20
0.796951
11
0.60626
21
0.798474
0
LINE
8
BLACK
6
CONTINUOUS
10
0.60626
20
0.798474
11
0.60626
21
0.856417
0
LINE
8
BLACK
6
CONTINUOUS
10
0.60626
20
0.856417
11
0.51374
21
0.856417
0
LINE
8
BLACK
6
CONTINUOUS
10
0.596435
20
0.783583
11
0.602564
21
0.783583
0
LINE
8
BLACK
6
CONTINUOUS
10
0.602564
20
0.783583
11
0.5995
21
0.787669
0
LINE
8
BLACK
6
CONTINUOUS
10
0.5995
20
0.787669
11
0.596435
21
0.783583
0
LINE
8
BLACK
6
CONTINUOUS
10
0.604174
20
0.791279
11
0.60626
21
0.788498
0
LINE
8
BLACK
6
CONTINUOUS
10
0.60626
20
0.788498
11
0.60626
21
0.792114
0
LINE
8
BLACK
6
CONTINUOUS
10
0.60626
20
0.792114
11
0.604174
21
0.791279
0
LINE
8
BLACK
6
CONTINUOUS
10
0.594174
20
0.800779
11
0.596547
21
0.797615
0
LINE
8
BLACK
6
CONTINUOUS
10
0.596547
20
0.797615
11
0.596547
21
0.801729
0
LINE
8
BLACK
6
CONTINUOUS
10
0.596547
20
0.801729
11
0.594174
21
0.800779
0
LINE
8
BLACK
6
CONTINUOUS
10
0.623376
20
0.872098
11
0.623505
21
0.872121
0
LINE
8
BLACK
6
CONTINUOUS
10
0.623505
20
0.872121
11
0.623618
21
0.872055
0
LINE
8
BLACK
6
CONTINUOUS
10
0.623618
20
0.872055
11
0.624002
21
0.871987
0
LINE
8
BLACK
6
CONTINUOUS
10
0.624002
20
0.871987
11
0.62459
21
0.871494
0
LINE
8
BLACK
6
CONTINUOUS
10
0.62459
20
0.871494
11
0.625254
21
0.871111
0
LINE
8
BLACK
6
CONTINUOUS
10
0.625254
20
0.871111
11
0.625345
21
0.87086
0
LINE
8
BLACK
6
CONTINUOUS
10
0.625345
20
0.87086
11
0.625549
21
0.870689
0
LINE
8
BLACK
6
CONTINUOUS
10
0.625549
20
0.870689
11
0.625683
21
0.869933
0
LINE
8
BLACK
6
CONTINUOUS
10
0.625683
20
0.869933
11
0.625945
21
0.869213
0
LINE
8
BLACK
6
CONTINUOUS
10
0.625945
20
0.869213
11
0.625945
21
0.795735
0
LINE
8
BLACK
6
CONTINUOUS
10
0.625945
20
0.795735
11
0.627024
21
0.797021
0
LINE
8
BLACK
6
CONTINUOUS
10
0.627024
20
0.797021
11
0.629013
21
0.797372
0
LINE
8
BLACK
6
CONTINUOUS
10
0.629013
20
0.797372
11
0.630261
21
0.796651
0
LINE
8
BLACK
6
CONTINUOUS
10
0.630261
20
0.796651
11
0.631513
21
0.796872
0
LINE
8
BLACK
6
CONTINUOUS
10
0.631513
20
0.796872
11
0.633262
21
0.795862
0
LINE
8
BLACK
6
CONTINUOUS
10
0.633262
20
0.795862
11
0.633953
21
0.793964
0
LINE
8
BLACK
6
CONTINUOUS
10
0.633953
20
0.793964
11
0.633953
21
0.790451
0
LINE
8
BLACK
6
CONTINUOUS
10
0.633953
20
0.790451
11
0.636777
21
0.791581
0
LINE
8
BLACK
6
CONTINUOUS
10
0.636777
20
0.791581
11
0.637781
21
0.791791
0
LINE
8
BLACK
6
CONTINUOUS
10
0.637781
20
0.791791
11
0.639682
21
0.791166
0
LINE
8
BLACK
6
CONTINUOUS
10
0.639682
20
0.791166
11
0.640281
21
0.791291
0
LINE
8
BLACK
6
CONTINUOUS
10
0.640281
20
0.791291
11
0.6422
21
0.79066
0
LINE
8
BLACK
6
CONTINUOUS
10
0.6422
20
0.79066
11
0.643264
21
0.788943
0
LINE
8
BLACK
6
CONTINUOUS
10
0.643264
20
0.788943
11
0.642976
21
0.786944
0
LINE
8
BLACK
6
CONTINUOUS
10
0.642976
20
0.786944
11
0.64175
21
0.785848
0
LINE
8
BLACK
6
CONTINUOUS
10
0.64175
20
0.785848
11
0.641476
21
0.783944
0
LINE
8
BLACK
6
CONTINUOUS
10
0.641476
20
0.783944
11
0.63997
21
0.782598
0
LINE
8
BLACK
6
CONTINUOUS
10
0.63997
20
0.782598
11
0.637058
21
0.781433
0
LINE
8
BLACK
6
CONTINUOUS
10
0.637058
20
0.781433
11
0.638986
21
0.778863
0
LINE
8
BLACK
6
CONTINUOUS
10
0.638986
20
0.778863
11
0.63945
21
0.777948
0
LINE
8
BLACK
6
CONTINUOUS
10
0.63945
20
0.777948
11
0.63934
21
0.775931
0
LINE
8
BLACK
6
CONTINUOUS
10
0.63934
20
0.775931
11
0.637959
21
0.774457
0
LINE
8
BLACK
6
CONTINUOUS
10
0.637959
20
0.774457
11
0.637923
21
0.774453
0
LINE
8
BLACK
6
CONTINUOUS
10
0.637923
20
0.774453
11
0.63784
21
0.772931
0
LINE
8
BLACK
6
CONTINUOUS
10
0.63784
20
0.772931
11
0.636459
21
0.771457
0
LINE
8
BLACK
6
CONTINUOUS
10
0.636459
20
0.771457
11
0.634454
21
0.771215
0
LINE
8
BLACK
6
CONTINUOUS
10
0.634454
20
0.771215
11
0.632762
21
0.772319
0
LINE
8
BLACK
6
CONTINUOUS
10
0.632762
20
0.772319
11
0.6295
21
0.776669
0
LINE
8
BLACK
6
CONTINUOUS
10
0.6295
20
0.776669
11
0.626238
21
0.772319
0
LINE
8
BLACK
6
CONTINUOUS
10
0.626238
20
0.772319
11
0.625945
21
0.772045
0
LINE
8
BLACK
6
CONTINUOUS
10
0.625945
20
0.772045
11
0.625945
21
0.770787
0
LINE
8
BLACK
6
CONTINUOUS
10
0.625945
20
0.770787
11
0.625877
21
0.770404
0
LINE
8
BLACK
6
CONTINUOUS
10
0.625877
20
0.770404
11
0.6259
21
0.770275
0
LINE
8
BLACK
6
CONTINUOUS
10
0.6259
20
0.770275
11
0.625834
21
0.770161
0
LINE
8
BLACK
6
CONTINUOUS
10
0.625834
20
0.770161
11
0.625767
21
0.769777
0
LINE
8
BLACK
6
CONTINUOUS
10
0.625767
20
0.769777
11
0.625274
21
0.76919
0
LINE
8
BLACK
6
CONTINUOUS
10
0.625274
20
0.76919
11
0.62489
21
0.768525
0
LINE
8
BLACK
6
CONTINUOUS
10
0.62489
20
0.768525
11
0.62464
21
0.768434
0
LINE
8
BLACK
6
CONTINUOUS
10
0.62464
20
0.768434
11
0.624469
21
0.76823
0
LINE
8
BLACK
6
CONTINUOUS
10
0.624469
20
0.76823
11
0.623713
21
0.768097
0
LINE
8
BLACK
6
CONTINUOUS
10
0.623713
20
0.768097
11
0.622992
21
0.767835
0
LINE
8
BLACK
6
CONTINUOUS
10
0.622992
20
0.767835
11
0.497008
21
0.767835
0
LINE
8
BLACK
6
CONTINUOUS
10
0.497008
20
0.767835
11
0.496624
21
0.767902
0
LINE
8
BLACK
6
CONTINUOUS
10
0.496624
20
0.767902
11
0.496495
21
0.767879
0
LINE
8
BLACK
6
CONTINUOUS
10
0.496495
20
0.767879
11
0.496381
21
0.767945
0
LINE
8
BLACK
6
CONTINUOUS
10
0.496381
20
0.767945
11
0.495998
21
0.768013
0
LINE
8
BLACK
6
CONTINUOUS
10
0.495998
20
0.768013
11
0.49541
21
0.768506
0
LINE
8
BLACK
6
CONTINUOUS
10
0.49541
20
0.768506
11
0.494746
21
0.768889
0
LINE
8
BLACK
6
CONTINUOUS
10
0.494746
20
0.768889
11
0.494655
21
0.76914
0
LINE
8
BLACK
6
CONTINUOUS
10
0.494655
20
0.76914
11
0.494451
21
0.769311
0
LINE
8
BLACK
6
CONTINUOUS
10
0.494451
20
0.769311
11
0.494317
21
0.770067
0
LINE
8
BLACK
6
CONTINUOUS
10
0.494317
20
0.770067
11
0.494055
21
0.770787
0
LINE
8
BLACK
6
CONTINUOUS
10
0.494055
20
0.770787
11
0.494055
21
0.869213
0
LINE
8
BLACK
6
CONTINUOUS
10
0.494055
20
0.869213
11
0.494123
21
0.869596
0
LINE
8
BLACK
6
CONTINUOUS
10
0.494123
20
0.869596
11
0.4941
21
0.869725
0
LINE
8
BLACK
6
CONTINUOUS
10
0.4941
20
0.869725
11
0.494166
21
0.869839
0
LINE
8
BLACK
6
CONTINUOUS
10
0.494166
20
0.869839
11
0.494233
21
0.870223
0
LINE
8
BLACK
6
CONTINUOUS
10
0.494233
20
0.870223
11
0.494726
21
0.87081
0
LINE
8
BLACK
6
CONTINUOUS
10
0.494726
20
0.87081
11
0.49511
21
0.871475
0
LINE
8
BLACK
6
CONTINUOUS
10
0.49511
20
0.871475
11
0.49536
21
0.871566
0
LINE
8
BLACK
6
CONTINUOUS
10
0.49536
20
0.871566
11
0.495531
21
0.87177
0
LINE
8
BLACK
6
CONTINUOUS
10
0.495531
20
0.87177
11
0.496287
21
0.871903
0
LINE
8
BLACK
6
CONTINUOUS
10
0.496287
20
0.871903
11
0.497008
21
0.872165
0
LINE
8
BLACK
6
CONTINUOUS
10
0.497008
20
0.872165
11
0.622992
21
0.872165
0
LINE
8
BLACK
6
CONTINUOUS
10
0.622992
20
0.872165
11
0.623376
21
0.872098
0
LINE
8
BLACK
6
CONTINUOUS
10
0.499961
20
0.86626
11
0.499961
21
0.77374
0
LINE
8
BLACK
6
CONTINUOUS
10
0.499961
20
0.77374
11
0.620039
21
0.77374
0
LINE
8
BLACK
6
CONTINUOUS
10
0.620039
20
0.77374
11
0.620039
21
0.777167
0
LINE
8
BLACK
6
CONTINUOUS
10
0.620039
20
0.777167
11
0.619927
21
0.77743
0
LINE
8
BLACK
6
CONTINUOUS
10
0.619927
20
0.77743
11
0.620039
21
0.777799
0
LINE
8
BLACK
6
CONTINUOUS
10
0.620039
20
0.777799
11
0.620039
21
0.782194
0
LINE
8
BLACK
6
CONTINUOUS
10
0.620039
20
0.782194
11
0.61903
21
0.782598
0
LINE
8
BLACK
6
CONTINUOUS
10
0.61903
20
0.782598
11
0.618158
21
0.783138
0
LINE
8
BLACK
6
CONTINUOUS
10
0.618158
20
0.783138
11
0.617204
21
0.784918
0
LINE
8
BLACK
6
CONTINUOUS
10
0.617204
20
0.784918
11
0.617516
21
0.786416
0
LINE
8
BLACK
6
CONTINUOUS
10
0.617516
20
0.786416
11
0.617158
21
0.786638
0
LINE
8
BLACK
6
CONTINUOUS
10
0.617158
20
0.786638
11
0.616204
21
0.788418
0
LINE
8
BLACK
6
CONTINUOUS
10
0.616204
20
0.788418
11
0.616617
21
0.790396
0
LINE
8
BLACK
6
CONTINUOUS
10
0.616617
20
0.790396
11
0.618204
21
0.791645
0
LINE
8
BLACK
6
CONTINUOUS
10
0.618204
20
0.791645
11
0.620039
21
0.791587
0
LINE
8
BLACK
6
CONTINUOUS
10
0.620039
20
0.791587
11
0.620039
21
0.86626
0
LINE
8
BLACK
6
CONTINUOUS
10
0.620039
20
0.86626
11
0.499961
21
0.86626
0
LINE
8
BLACK
6
CONTINUOUS
10
0.658809
20
0.885877
11
0.658938
21
0.8859
0
LINE
8
BLACK
6
CONTINUOUS
10
0.658938
20
0.8859
11
0.659052
21
0.885834
0
LINE
8
BLACK
6
CONTINUOUS
10
0.659052
20
0.885834
11
0.659435
21
0.885767
0
LINE
8
BLACK
6
CONTINUOUS
10
0.659435
20
0.885767
11
0.660023
21
0.885274
0
LINE
8
BLACK
6
CONTINUOUS
10
0.660023
20
0.885274
11
0.660687
21
0.88489
0
LINE
8
BLACK
6
CONTINUOUS
10
0.660687
20
0.88489
11
0.660778
21
0.88464
0
LINE
8
BLACK
6
CONTINUOUS
10
0.660778
20
0.88464
11
0.660982
21
0.884469
0
LINE
8
BLACK
6
CONTINUOUS
10
0.660982
20
0.884469
11
0.661116
21
0.883713
0
LINE
8
BLACK
6
CONTINUOUS
10
0.661116
20
0.883713
11
0.661378
21
0.882992
0
LINE
8
BLACK
6
CONTINUOUS
10
0.661378
20
0.882992
11
0.661378
21
0.76926
0
LINE
8
BLACK
6
CONTINUOUS
10
0.661378
20
0.76926
11
0.662013
21
0.769372
0
LINE
8
BLACK
6
CONTINUOUS
10
0.662013
20
0.769372
11
0.663762
21
0.768362
0
LINE
8
BLACK
6
CONTINUOUS
10
0.663762
20
0.768362
11
0.664453
21
0.766464
0
LINE
8
BLACK
6
CONTINUOUS
10
0.664453
20
0.766464
11
0.664453
21
0.761451
0
LINE
8
BLACK
6
CONTINUOUS
10
0.664453
20
0.761451
11
0.669777
21
0.763581
0
LINE
8
BLACK
6
CONTINUOUS
10
0.669777
20
0.763581
11
0.670781
21
0.763791
0
LINE
8
BLACK
6
CONTINUOUS
10
0.670781
20
0.763791
11
0.6727
21
0.76316
0
LINE
8
BLACK
6
CONTINUOUS
10
0.6727
20
0.76316
11
0.673764
21
0.761443
0
LINE
8
BLACK
6
CONTINUOUS
10
0.673764
20
0.761443
11
0.673476
21
0.759444
0
LINE
8
BLACK
6
CONTINUOUS
10
0.673476
20
0.759444
11
0.673262
21
0.759253
0
LINE
8
BLACK
6
CONTINUOUS
10
0.673262
20
0.759253
11
0.673764
21
0.758443
0
LINE
8
BLACK
6
CONTINUOUS
10
0.673764
20
0.758443
11
0.673476
21
0.756444
0
LINE
8
BLACK
6
CONTINUOUS
10
0.673476
20
0.756444
11
0.67197
21
0.755098
0
LINE
8
BLACK
6
CONTINUOUS
10
0.67197
20
0.755098
11
0.667905
21
0.753472
0
LINE
8
BLACK
6
CONTINUOUS
10
0.667905
20
0.753472
11
0.669486
21
0.751363
0
LINE
8
BLACK
6
CONTINUOUS
10
0.669486
20
0.751363
11
0.66995
21
0.750448
0
LINE
8
BLACK
6
CONTINUOUS
10
0.66995
20
0.750448
11
0.66984
21
0.748431
0
LINE
8
BLACK
6
CONTINUOUS
10
0.66984
20
0.748431
11
0.669588
21
0.748162
0
LINE
8
BLACK
6
CONTINUOUS
10
0.669588
20
0.748162
11
0.66995
21
0.747448
0
LINE
8
BLACK
6
CONTINUOUS
10
0.66995
20
0.747448
11
0.66984
21
0.745431
0
LINE
8
BLACK
6
CONTINUOUS
10
0.66984
20
0.745431
11
0.668459
21
0.743957
0
LINE
8
BLACK
6
CONTINUOUS
10
0.668459
20
0.743957
11
0.666454
21
0.743715
0
LINE
8
BLACK
6
CONTINUOUS
10
0.666454
20
0.743715
11
0.664762
21
0.744819
0
LINE
8
BLACK
6
CONTINUOUS
10
0.664762
20
0.744819
11
0.6615
21
0.749169
0
LINE
8
BLACK
6
CONTINUOUS
10
0.6615
20
0.749169
11
0.658238
21
0.744819
0
LINE
8
BLACK
6
CONTINUOUS
10
0.658238
20
0.744819
11
0.657489
21
0.744118
0
LINE
8
BLACK
6
CONTINUOUS
10
0.657489
20
0.744118
11
0.655522
21
0.743659
0
LINE
8
BLACK
6
CONTINUOUS
10
0.655522
20
0.743659
11
0.653721
21
0.744572
0
LINE
8
BLACK
6
CONTINUOUS
10
0.653721
20
0.744572
11
0.652927
21
0.74643
0
LINE
8
BLACK
6
CONTINUOUS
10
0.652927
20
0.74643
11
0.653459
21
0.748184
0
LINE
8
BLACK
6
CONTINUOUS
10
0.653459
20
0.748184
11
0.652927
21
0.74943
0
LINE
8
BLACK
6
CONTINUOUS
10
0.652927
20
0.74943
11
0.653513
21
0.751363
0
LINE
8
BLACK
6
CONTINUOUS
10
0.653513
20
0.751363
11
0.655095
21
0.753472
0
LINE
8
BLACK
6
CONTINUOUS
10
0.655095
20
0.753472
11
0.653636
21
0.754055
0
LINE
8
BLACK
6
CONTINUOUS
10
0.653636
20
0.754055
11
0.461575
21
0.754055
0
LINE
8
BLACK
6
CONTINUOUS
10
0.461575
20
0.754055
11
0.461191
21
0.754123
0
LINE
8
BLACK
6
CONTINUOUS
10
0.461191
20
0.754123
11
0.461062
21
0.7541
0
LINE
8
BLACK
6
CONTINUOUS
10
0.461062
20
0.7541
11
0.460948
21
0.754166
0
LINE
8
BLACK
6
CONTINUOUS
10
0.460948
20
0.754166
11
0.460565
21
0.754233
0
LINE
8
BLACK
6
CONTINUOUS
10
0.460565
20
0.754233
11
0.459977
21
0.754726
0
LINE
8
BLACK
6
CONTINUOUS
10
0.459977
20
0.754726
11
0.459313
21
0.75511
0
LINE
8
BLACK
6
CONTINUOUS
10
0.459313
20
0.75511
11
0.459222
21
0.75536
0
LINE
8
BLACK
6
CONTINUOUS
10
0.459222
20
0.75536
11
0.459018
21
0.755531
0
LINE
8
BLACK
6
CONTINUOUS
10
0.459018
20
0.755531
11
0.458884
21
0.756287
0
LINE
8
BLACK
6
CONTINUOUS
10
0.458884
20
0.756287
11
0.458622
21
0.757008
0
LINE
8
BLACK
6
CONTINUOUS
10
0.458622
20
0.757008
11
0.458622
21
0.882992
0
LINE
8
BLACK
6
CONTINUOUS
10
0.458622
20
0.882992
11
0.45869
21
0.883376
0
LINE
8
BLACK
6
CONTINUOUS
10
0.45869
20
0.883376
11
0.458667
21
0.883505
0
LINE
8
BLACK
6
CONTINUOUS
10
0.458667
20
0.883505
11
0.458732
21
0.883618
0
LINE
8
BLACK
6
CONTINUOUS
10
0.458732
20
0.883618
11
0.4588
21
0.884002
0
LINE
8
BLACK
6
CONTINUOUS
10
0.4588
20
0.884002
11
0.459293
21
0.88459
0
LINE
8
BLACK
6
CONTINUOUS
10
0.459293
20
0.88459
11
0.459677
21
0.885254
0
LINE
8
BLACK
6
CONTINUOUS
10
0.459677
20
0.885254
11
0.459927
21
0.885345
0
LINE
8
BLACK
6
CONTINUOUS
10
0.459927
20
0.885345
11
0.460098
21
0.885549
0
LINE
8
BLACK
6
CONTINUOUS
10
0.460098
20
0.885549
11
0.460854
21
0.885683
0
LINE
8
BLACK
6
CONTINUOUS
10
0.460854
20
0.885683
11
0.461575
21
0.885945
0
LINE
8
BLACK
6
CONTINUOUS
10
0.461575
20
0.885945
11
0.658425
21
0.885945
0
LINE
8
BLACK
6
CONTINUOUS
10
0.658425
20
0.885945
11
0.658809
21
0.885877
0
LINE
8
BLACK
6
CONTINUOUS
10
0.464528
20
0.880039
11
0.464528
21
0.759961
0
LINE
8
BLACK
6
CONTINUOUS
10
0.464528
20
0.759961
11
0.649449
21
0.759961
0
LINE
8
BLACK
6
CONTINUOUS
10
0.649449
20
0.759961
11
0.649204
21
0.760418
0
LINE
8
BLACK
6
CONTINUOUS
10
0.649204
20
0.760418
11
0.649617
21
0.762396
0
LINE
8
BLACK
6
CONTINUOUS
10
0.649617
20
0.762396
11
0.651204
21
0.763645
0
LINE
8
BLACK
6
CONTINUOUS
10
0.651204
20
0.763645
11
0.653223
21
0.763581
0
LINE
8
BLACK
6
CONTINUOUS
10
0.653223
20
0.763581
11
0.655472
21
0.762681
0
LINE
8
BLACK
6
CONTINUOUS
10
0.655472
20
0.762681
11
0.655472
21
0.880039
0
LINE
8
BLACK
6
CONTINUOUS
10
0.655472
20
0.880039
11
0.464528
21
0.880039
0
LINE
8
BLACK
6
CONTINUOUS
10
0.698179
20
0.92131
11
0.698308
21
0.921333
0
LINE
8
BLACK
6
CONTINUOUS
10
0.698308
20
0.921333
11
0.698422
21
0.921267
0
LINE
8
BLACK
6
CONTINUOUS
10
0.698422
20
0.921267
11
0.698805
21
0.9212
0
LINE
8
BLACK
6
CONTINUOUS
10
0.698805
20
0.9212
11
0.699393
21
0.920707
0
LINE
8
BLACK
6
CONTINUOUS
10
0.699393
20
0.920707
11
0.700057
21
0.920323
0
LINE
8
BLACK
6
CONTINUOUS
10
0.700057
20
0.920323
11
0.700148
21
0.920073
0
LINE
8
BLACK
6
CONTINUOUS
10
0.700148
20
0.920073
11
0.700352
21
0.919902
0
LINE
8
BLACK
6
CONTINUOUS
10
0.700352
20
0.919902
11
0.700486
21
0.919146
0
LINE
8
BLACK
6
CONTINUOUS
10
0.700486
20
0.919146
11
0.700748
21
0.918425
0
LINE
8
BLACK
6
CONTINUOUS
10
0.700748
20
0.918425
11
0.700748
21
0.721575
0
LINE
8
BLACK
6
CONTINUOUS
10
0.700748
20
0.721575
11
0.70068
21
0.721191
0
LINE
8
BLACK
6
CONTINUOUS
10
0.70068
20
0.721191
11
0.700703
21
0.721062
0
LINE
8
BLACK
6
CONTINUOUS
10
0.700703
20
0.721062
11
0.700638
21
0.720948
0
LINE
8
BLACK
6
CONTINUOUS
10
0.700638
20
0.720948
11
0.70057
21
0.720565
0
LINE
8
BLACK
6
CONTINUOUS
10
0.70057
20
0.720565
11
0.700077
21
0.719977
0
LINE
8
BLACK
6
CONTINUOUS
10
0.700077
20
0.719977
11
0.699693
21
0.719313
0
LINE
8
BLACK
6
CONTINUOUS
10
0.699693
20
0.719313
11
0.699443
21
0.719222
0
LINE
8
BLACK
6
CONTINUOUS
10
0.699443
20
0.719222
11
0.699272
21
0.719018
0
LINE
8
BLACK
6
CONTINUOUS
10
0.699272
20
0.719018
11
0.698516
21
0.718884
0
LINE
8
BLACK
6
CONTINUOUS
10
0.698516
20
0.718884
11
0.697795
21
0.718622
0
LINE
8
BLACK
6
CONTINUOUS
10
0.697795
20
0.718622
11
0.422205
21
0.718622
0
LINE
8
BLACK
6
CONTINUOUS
10
0.422205
20
0.718622
11
0.421821
21
0.71869
0
LINE
8
BLACK
6
CONTINUOUS
10
0.421821
20
0.71869
11
0.421692
21
0.718667
0
LINE
8
BLACK
6
CONTINUOUS
10
0.421692
20
0.718667
11
0.421578
21
0.718732
0
LINE
8
BLACK
6
CONTINUOUS
10
0.421578
20
0.718732
11
0.421195
21
0.7188
0
LINE
8
BLACK
6
CONTINUOUS
10
0.421195
20
0.7188
11
0.420607
21
0.719293
0
LINE
8
BLACK
6
CONTINUOUS
10
0.420607
20
0.719293
11
0.419943
21
0.719677
0
LINE
8
BLACK
6
CONTINUOUS
10
0.419943
20
0.719677
11
0.419852
21
0.719927
0
LINE
8
BLACK
6
CONTINUOUS
10
0.419852
20
0.719927
11
0.419648
21
0.720098
0
LINE
8
BLACK
6
CONTINUOUS
10
0.419648
20
0.720098
11
0.419514
21
0.720854
0
LINE
8
BLACK
6
CONTINUOUS
10
0.419514
20
0.720854
11
0.419252
21
0.721575
0
LINE
8
BLACK
6
CONTINUOUS
10
0.419252
20
0.721575
11
0.419252
21
0.918425
0
LINE
8
BLACK
6
CONTINUOUS
10
0.419252
20
0.918425
11
0.41932
21
0.918809
0
LINE
8
BLACK
6
CONTINUOUS
10
0.41932
20
0.918809
11
0.419297
21
0.918938
0
LINE
8
BLACK
6
CONTINUOUS
10
0.419297
20
0.918938
11
0.419362
21
0.919052
0
LINE
8
BLACK
6
CONTINUOUS
10
0.419362
20
0.919052
11
0.41943
21
0.919435
0
LINE
8
BLACK
6
CONTINUOUS
10
0.41943
20
0.919435
11
0.419923
21
0.920023
0
LINE
8
BLACK
6
CONTINUOUS
10
0.419923
20
0.920023
11
0.420307
21
0.920687
0
LINE
8
BLACK
6
CONTINUOUS
10
0.420307
20
0.920687
11
0.420557
21
0.920778
0
LINE
8
BLACK
6
CONTINUOUS
10
0.420557
20
0.920778
11
0.420728
21
0.920982
0
LINE
8
BLACK
6
CONTINUOUS
10
0.420728
20
0.920982
11
0.421484
21
0.921116
0
LINE
8
BLACK
6
CONTINUOUS
10
0.421484
20
0.921116
11
0.422205
21
0.921378
0
LINE
8
BLACK
6
CONTINUOUS
10
0.422205
20
0.921378
11
0.697795
21
0.921378
0
LINE
8
BLACK
6
CONTINUOUS
10
0.697795
20
0.921378
11
0.698179
21
0.92131
0
LINE
8
BLACK
6
CONTINUOUS
10
0.425157
20
0.915472
11
0.425157
21
0.724528
0
LINE
8
BLACK
6
CONTINUOUS
10
0.425157
20
0.724528
11
0.694843
21
0.724528
0
LINE
8
BLACK
6
CONTINUOUS
10
0.694843
20
0.724528
11
0.694843
21
0.915472
0
LINE
8
BLACK
6
CONTINUOUS
10
0.694843
20
0.915472
11
0.425157
21
0.915472
0
LINE
8
BLACK
6
CONTINUOUS
10
0.410783
20
0.779211
11
0.411761
21
0.778083
0
LINE
8
BLACK
6
CONTINUOUS
10
0.411761
20
0.778083
11
0.411655
21
0.776595
0
LINE
8
BLACK
6
CONTINUOUS
10
0.411655
20
0.776595
11
0.410527
21
0.775617
0
LINE
8
BLACK
6
CONTINUOUS
10
0.410527
20
0.775617
11
0.406232
21
0.774185
0
LINE
8
BLACK
6
CONTINUOUS
10
0.406232
20
0.774185
11
0.406232
21
0.767615
0
LINE
8
BLACK
6
CONTINUOUS
10
0.406232
20
0.767615
11
0.410527
21
0.766183
0
LINE
8
BLACK
6
CONTINUOUS
10
0.410527
20
0.766183
11
0.411655
21
0.765205
0
LINE
8
BLACK
6
CONTINUOUS
10
0.411655
20
0.765205
11
0.411761
21
0.763717
0
LINE
8
BLACK
6
CONTINUOUS
10
0.411761
20
0.763717
11
0.410783
21
0.762589
0
LINE
8
BLACK
6
CONTINUOUS
10
0.410783
20
0.762589
11
0.409294
21
0.762483
0
LINE
8
BLACK
6
CONTINUOUS
10
0.409294
20
0.762483
11
0.389594
21
0.76905
0
LINE
8
BLACK
6
CONTINUOUS
10
0.389594
20
0.76905
11
0.389484
21
0.769145
0
LINE
8
BLACK
6
CONTINUOUS
10
0.389484
20
0.769145
11
0.389339
21
0.769156
0
LINE
8
BLACK
6
CONTINUOUS
10
0.389339
20
0.769156
11
0.388934
21
0.769623
0
LINE
8
BLACK
6
CONTINUOUS
10
0.388934
20
0.769623
11
0.388467
21
0.770028
0
LINE
8
BLACK
6
CONTINUOUS
10
0.388467
20
0.770028
11
0.388456
21
0.770173
0
LINE
8
BLACK
6
CONTINUOUS
10
0.388456
20
0.770173
11
0.388361
21
0.770283
0
LINE
8
BLACK
6
CONTINUOUS
10
0.388361
20
0.770283
11
0.388405
21
0.7709
0
LINE
8
BLACK
6
CONTINUOUS
10
0.388405
20
0.7709
11
0.388361
21
0.771517
0
LINE
8
BLACK
6
CONTINUOUS
10
0.388361
20
0.771517
11
0.388456
21
0.771627
0
LINE
8
BLACK
6
CONTINUOUS
10
0.388456
20
0.771627
11
0.388467
21
0.771772
0
LINE
8
BLACK
6
CONTINUOUS
10
0.388467
20
0.771772
11
0.388934
21
0.772177
0
LINE
8
BLACK
6
CONTINUOUS
10
0.388934
20
0.772177
11
0.389339
21
0.772644
0
LINE
8
BLACK
6
CONTINUOUS
10
0.389339
20
0.772644
11
0.389484
21
0.772654
0
LINE
8
BLACK
6
CONTINUOUS
10
0.389484
20
0.772654
11
0.389594
21
0.77275
0
LINE
8
BLACK
6
CONTINUOUS
10
0.389594
20
0.77275
11
0.409294
21
0.779317
0
LINE
8
BLACK
6
CONTINUOUS
10
0.409294
20
0.779317
11
0.410783
21
0.779211
0
LINE
8
BLACK
6
CONTINUOUS
10
0.396377
20
0.7709
11
0.402332
21
0.768915
0
LINE
8
BLACK
6
CONTINUOUS
10
0.402332
20
0.768915
11
0.402332
21
0.772885
0
LINE
8
BLACK
6
CONTINUOUS
10
0.402332
20
0.772885
11
0.396377
21
0.7709
0
LINE
8
BLACK
6
CONTINUOUS
10
0.257458
20
0.876218
11
0.259665
21
0.873451
0
LINE
8
BLACK
6
CONTINUOUS
10
0.259665
20
0.873451
11
0.259779
21
0.872953
0
LINE
8
BLACK
6
CONTINUOUS
10
0.259779
20
0.872953
11
0.2975
21
0.872953
0
LINE
8
BLACK
6
CONTINUOUS
10
0.2975
20
0.872953
11
0.29851
21
0.872775
0
LINE
8
BLACK
6
CONTINUOUS
10
0.29851
20
0.872775
11
0.300057
21
0.871476
0
LINE
8
BLACK
6
CONTINUOUS
10
0.300057
20
0.871476
11
0.300408
21
0.869487
0
LINE
8
BLACK
6
CONTINUOUS
10
0.300408
20
0.869487
11
0.299398
21
0.867738
0
LINE
8
BLACK
6
CONTINUOUS
10
0.299398
20
0.867738
11
0.2975
21
0.867047
0
LINE
8
BLACK
6
CONTINUOUS
10
0.2975
20
0.867047
11
0.260453
21
0.867047
0
LINE
8
BLACK
6
CONTINUOUS
10
0.260453
20
0.867047
11
0.260453
21
0.812953
0
LINE
8
BLACK
6
CONTINUOUS
10
0.260453
20
0.812953
11
0.2975
21
0.812953
0
LINE
8
BLACK
6
CONTINUOUS
10
0.2975
20
0.812953
11
0.29851
21
0.812775
0
LINE
8
BLACK
6
CONTINUOUS
10
0.29851
20
0.812775
11
0.300057
21
0.811476
0
LINE
8
BLACK
6
CONTINUOUS
10
0.300057
20
0.811476
11
0.300408
21
0.809487
0
LINE
8
BLACK
6
CONTINUOUS
10
0.300408
20
0.809487
11
0.299398
21
0.807738
0
LINE
8
BLACK
6
CONTINUOUS
10
0.299398
20
0.807738
11
0.2975
21
0.807047
0
LINE
8
BLACK
6
CONTINUOUS
10
0.2975
20
0.807047
11
0.2575
21
0.807047
0
LINE
8
BLACK
6
CONTINUOUS
10
0.2575
20
0.807047
11
0.257116
21
0.807115
0
LINE
8
BLACK
6
CONTINUOUS
10
0.257116
20
0.807115
11
0.256987
21
0.807092
0
LINE
8
BLACK
6
CONTINUOUS
10
0.256987
20
0.807092
11
0.256874
21
0.807158
0
LINE
8
BLACK
6
CONTINUOUS
10
0.256874
20
0.807158
11
0.25649
21
0.807225
0
LINE
8
BLACK
6
CONTINUOUS
10
0.25649
20
0.807225
11
0.255902
21
0.807718
0
LINE
8
BLACK
6
CONTINUOUS
10
0.255902
20
0.807718
11
0.255238
21
0.808102
0
LINE
8
BLACK
6
CONTINUOUS
10
0.255238
20
0.808102
11
0.255147
21
0.808352
0
LINE
8
BLACK
6
CONTINUOUS
10
0.255147
20
0.808352
11
0.254943
21
0.808524
0
LINE
8
BLACK
6
CONTINUOUS
10
0.254943
20
0.808524
11
0.25481
21
0.809279
0
LINE
8
BLACK
6
CONTINUOUS
10
0.25481
20
0.809279
11
0.254547
21
0.81
0
LINE
8
BLACK
6
CONTINUOUS
10
0.254547
20
0.81
11
0.254547
21
0.86238
0
LINE
8
BLACK
6
CONTINUOUS
10
0.254547
20
0.86238
11
0.25427
21
0.862247
0
LINE
8
BLACK
6
CONTINUOUS
10
0.25427
20
0.862247
11
0.25073
21
0.862247
0
LINE
8
BLACK
6
CONTINUOUS
10
0.25073
20
0.862247
11
0.247542
21
0.863782
0
LINE
8
BLACK
6
CONTINUOUS
10
0.247542
20
0.863782
11
0.245335
21
0.866549
0
LINE
8
BLACK
6
CONTINUOUS
10
0.245335
20
0.866549
11
0.244547
21
0.87
0
LINE
8
BLACK
6
CONTINUOUS
10
0.244547
20
0.87
11
0.245335
21
0.873451
0
LINE
8
BLACK
6
CONTINUOUS
10
0.245335
20
0.873451
11
0.247542
21
0.876218
0
LINE
8
BLACK
6
CONTINUOUS
10
0.247542
20
0.876218
11
0.25073
21
0.877753
0
LINE
8
BLACK
6
CONTINUOUS
10
0.25073
20
0.877753
11
0.25427
21
0.877753
0
LINE
8
BLACK
6
CONTINUOUS
10
0.25427
20
0.877753
11
0.257458
21
0.876218
0
LINE
8
BLACK
6
CONTINUOUS
10
0.250933
20
0.868433
11
0.2525
21
0.867784
0
LINE
8
BLACK
6
CONTINUOUS
10
0.2525
20
0.867784
11
0.254067
21
0.868433
0
LINE
8
BLACK
6
CONTINUOUS
10
0.254067
20
0.868433
11
0.254547
21
0.869593
0
LINE
8
BLACK
6
CONTINUOUS
10
0.254547
20
0.869593
11
0.254547
21
0.87
0
LINE
8
BLACK
6
CONTINUOUS
10
0.254547
20
0.87
11
0.254598
21
0.870286
0
LINE
8
BLACK
6
CONTINUOUS
10
0.254598
20
0.870286
11
0.254067
21
0.871567
0
LINE
8
BLACK
6
CONTINUOUS
10
0.254067
20
0.871567
11
0.2525
21
0.872216
0
LINE
8
BLACK
6
CONTINUOUS
10
0.2525
20
0.872216
11
0.250933
21
0.871567
0
LINE
8
BLACK
6
CONTINUOUS
10
0.250933
20
0.871567
11
0.250284
21
0.87
0
LINE
8
BLACK
6
CONTINUOUS
10
0.250284
20
0.87
11
0.250933
21
0.868433
0
LINE
8
BLACK
6
CONTINUOUS
10
0.377884
20
0.872885
11
0.378013
21
0.872908
0
LINE
8
BLACK
6
CONTINUOUS
10
0.378013
20
0.872908
11
0.378126
21
0.872842
0
LINE
8
BLACK
6
CONTINUOUS
10
0.378126
20
0.872842
11
0.37851
21
0.872775
0
LINE
8
BLACK
6
CONTINUOUS
10
0.37851
20
0.872775
11
0.379098
21
0.872282
0
LINE
8
BLACK
6
CONTINUOUS
10
0.379098
20
0.872282
11
0.379762
21
0.871898
0
LINE
8
BLACK
6
CONTINUOUS
10
0.379762
20
0.871898
11
0.379853
21
0.871648
0
LINE
8
BLACK
6
CONTINUOUS
10
0.379853
20
0.871648
11
0.380057
21
0.871476
0
LINE
8
BLACK
6
CONTINUOUS
10
0.380057
20
0.871476
11
0.38019
21
0.870721
0
LINE
8
BLACK
6
CONTINUOUS
10
0.38019
20
0.870721
11
0.380453
21
0.87
0
LINE
8
BLACK
6
CONTINUOUS
10
0.380453
20
0.87
11
0.380453
21
0.81
0
LINE
8
BLACK
6
CONTINUOUS
10
0.380453
20
0.81
11
0.380385
21
0.809616
0
LINE
8
BLACK
6
CONTINUOUS
10
0.380385
20
0.809616
11
0.380408
21
0.809487
0
LINE
8
BLACK
6
CONTINUOUS
10
0.380408
20
0.809487
11
0.380342
21
0.809374
0
LINE
8
BLACK
6
CONTINUOUS
10
0.380342
20
0.809374
11
0.380275
21
0.80899
0
LINE
8
BLACK
6
CONTINUOUS
10
0.380275
20
0.80899
11
0.379782
21
0.808402
0
LINE
8
BLACK
6
CONTINUOUS
10
0.379782
20
0.808402
11
0.379398
21
0.807738
0
LINE
8
BLACK
6
CONTINUOUS
10
0.379398
20
0.807738
11
0.379148
21
0.807647
0
LINE
8
BLACK
6
CONTINUOUS
10
0.379148
20
0.807647
11
0.378976
21
0.807443
0
LINE
8
BLACK
6
CONTINUOUS
10
0.378976
20
0.807443
11
0.378221
21
0.80731
0
LINE
8
BLACK
6
CONTINUOUS
10
0.378221
20
0.80731
11
0.3775
21
0.807047
0
LINE
8
BLACK
6
CONTINUOUS
10
0.3775
20
0.807047
11
0.3375
21
0.807047
0
LINE
8
BLACK
6
CONTINUOUS
10
0.3375
20
0.807047
11
0.33649
21
0.807225
0
LINE
8
BLACK
6
CONTINUOUS
10
0.33649
20
0.807225
11
0.334943
21
0.808524
0
LINE
8
BLACK
6
CONTINUOUS
10
0.334943
20
0.808524
11
0.334592
21
0.810513
0
LINE
8
BLACK
6
CONTINUOUS
10
0.334592
20
0.810513
11
0.335602
21
0.812262
0
LINE
8
BLACK
6
CONTINUOUS
10
0.335602
20
0.812262
11
0.3375
21
0.812953
0
LINE
8
BLACK
6
CONTINUOUS
10
0.3375
20
0.812953
11
0.374547
21
0.812953
0
LINE
8
BLACK
6
CONTINUOUS
10
0.374547
20
0.812953
11
0.374547
21
0.867047
0
LINE
8
BLACK
6
CONTINUOUS
10
0.374547
20
0.867047
11
0.3375
21
0.867047
0
LINE
8
BLACK
6
CONTINUOUS
10
0.3375
20
0.867047
11
0.33649
21
0.867225
0
LINE
8
BLACK
6
CONTINUOUS
10
0.33649
20
0.867225
11
0.334943
21
0.868524
0
LINE
8
BLACK
6
CONTINUOUS
10
0.334943
20
0.868524
11
0.334592
21
0.870513
0
LINE
8
BLACK
6
CONTINUOUS
10
0.334592
20
0.870513
11
0.335602
21
0.872262
0
LINE
8
BLACK
6
CONTINUOUS
10
0.335602
20
0.872262
11
0.3375
21
0.872953
0
LINE
8
BLACK
6
CONTINUOUS
10
0.3375
20
0.872953
11
0.3775
21
0.872953
0
LINE
8
BLACK
6
CONTINUOUS
10
0.3775
20
0.872953
11
0.377884
21
0.872885
0
LINE
8
BLACK
6
CONTINUOUS
10
0.310927
20
0.840268
11
0.311426
21
0.840233
0
LINE
8
BLACK
6
CONTINUOUS
10
0.311426
20
0.840233
11
0.313302
21
0.839295
0
LINE
8
BLACK
6
CONTINUOUS
10
0.313302
20
0.839295
11
0.313534
21
0.839028
0
LINE
8
BLACK
6
CONTINUOUS
10
0.313534
20
0.839028
11
0.313861
21
0.838892
0
LINE
8
BLACK
6
CONTINUOUS
10
0.313861
20
0.838892
11
0.314799
21
0.837954
0
LINE
8
BLACK
6
CONTINUOUS
10
0.314799
20
0.837954
11
0.315429
21
0.836434
0
LINE
8
BLACK
6
CONTINUOUS
10
0.315429
20
0.836434
11
0.314799
21
0.834914
0
LINE
8
BLACK
6
CONTINUOUS
10
0.314799
20
0.834914
11
0.313279
21
0.834284
0
LINE
8
BLACK
6
CONTINUOUS
10
0.313279
20
0.834284
11
0.311758
21
0.834914
0
LINE
8
BLACK
6
CONTINUOUS
10
0.311758
20
0.834914
11
0.311067
21
0.835605
0
LINE
8
BLACK
6
CONTINUOUS
10
0.311067
20
0.835605
11
0.309957
21
0.83616
0
LINE
8
BLACK
6
CONTINUOUS
10
0.309957
20
0.83616
11
0.306281
21
0.83616
0
LINE
8
BLACK
6
CONTINUOUS
10
0.306281
20
0.83616
11
0.305171
21
0.835605
0
LINE
8
BLACK
6
CONTINUOUS
10
0.305171
20
0.835605
11
0.304726
21
0.83516
0
LINE
8
BLACK
6
CONTINUOUS
10
0.304726
20
0.83516
11
0.304171
21
0.83405
0
LINE
8
BLACK
6
CONTINUOUS
10
0.304171
20
0.83405
11
0.304171
21
0.83303
0
LINE
8
BLACK
6
CONTINUOUS
10
0.304171
20
0.83303
11
0.304839
21
0.831028
0
LINE
8
BLACK
6
CONTINUOUS
10
0.304839
20
0.831028
11
0.315737
21
0.82013
0
LINE
8
BLACK
6
CONTINUOUS
10
0.315737
20
0.82013
11
0.316367
21
0.81861
0
LINE
8
BLACK
6
CONTINUOUS
10
0.316367
20
0.81861
11
0.315737
21
0.81709
0
LINE
8
BLACK
6
CONTINUOUS
10
0.315737
20
0.81709
11
0.314217
21
0.81646
0
LINE
8
BLACK
6
CONTINUOUS
10
0.314217
20
0.81646
11
0.302021
21
0.81646
0
LINE
8
BLACK
6
CONTINUOUS
10
0.302021
20
0.81646
11
0.300501
21
0.81709
0
LINE
8
BLACK
6
CONTINUOUS
10
0.300501
20
0.81709
11
0.299871
21
0.81861
0
LINE
8
BLACK
6
CONTINUOUS
10
0.299871
20
0.81861
11
0.300501
21
0.82013
0
LINE
8
BLACK
6
CONTINUOUS
10
0.300501
20
0.82013
11
0.302021
21
0.82076
0
LINE
8
BLACK
6
CONTINUOUS
10
0.302021
20
0.82076
11
0.309026
21
0.82076
0
LINE
8
BLACK
6
CONTINUOUS
10
0.309026
20
0.82076
11
0.301439
21
0.828347
0
LINE
8
BLACK
6
CONTINUOUS
10
0.301439
20
0.828347
11
0.301248
21
0.828809
0
LINE
8
BLACK
6
CONTINUOUS
10
0.301248
20
0.828809
11
0.30092
21
0.829187
0
LINE
8
BLACK
6
CONTINUOUS
10
0.30092
20
0.829187
11
0.299982
21
0.832002
0
LINE
8
BLACK
6
CONTINUOUS
10
0.299982
20
0.832002
11
0.300007
21
0.832354
0
LINE
8
BLACK
6
CONTINUOUS
10
0.300007
20
0.832354
11
0.299871
21
0.832681
0
LINE
8
BLACK
6
CONTINUOUS
10
0.299871
20
0.832681
11
0.299871
21
0.834558
0
LINE
8
BLACK
6
CONTINUOUS
10
0.299871
20
0.834558
11
0.300063
21
0.83502
0
LINE
8
BLACK
6
CONTINUOUS
10
0.300063
20
0.83502
11
0.300098
21
0.835519
0
LINE
8
BLACK
6
CONTINUOUS
10
0.300098
20
0.835519
11
0.301036
21
0.837395
0
LINE
8
BLACK
6
CONTINUOUS
10
0.301036
20
0.837395
11
0.301304
21
0.837627
0
LINE
8
BLACK
6
CONTINUOUS
10
0.301304
20
0.837627
11
0.301439
21
0.837954
0
LINE
8
BLACK
6
CONTINUOUS
10
0.301439
20
0.837954
11
0.302377
21
0.838892
0
LINE
8
BLACK
6
CONTINUOUS
10
0.302377
20
0.838892
11
0.302704
21
0.839028
0
LINE
8
BLACK
6
CONTINUOUS
10
0.302704
20
0.839028
11
0.302936
21
0.839295
0
LINE
8
BLACK
6
CONTINUOUS
10
0.302936
20
0.839295
11
0.304812
21
0.840233
0
LINE
8
BLACK
6
CONTINUOUS
10
0.304812
20
0.840233
11
0.305311
21
0.840268
0
LINE
8
BLACK
6
CONTINUOUS
10
0.305311
20
0.840268
11
0.305774
21
0.84046
0
LINE
8
BLACK
6
CONTINUOUS
10
0.305774
20
0.84046
11
0.310464
21
0.84046
0
LINE
8
BLACK
6
CONTINUOUS
10
0.310464
20
0.84046
11
0.310927
21
0.840268
0
LINE
8
BLACK
6
CONTINUOUS
10
0.333561
20
0.83983
11
0.33419
21
0.83831
0
LINE
8
BLACK
6
CONTINUOUS
10
0.33419
20
0.83831
11
0.33419
21
0.81861
0
LINE
8
BLACK
6
CONTINUOUS
10
0.33419
20
0.81861
11
0.333561
21
0.81709
0
LINE
8
BLACK
6
CONTINUOUS
10
0.333561
20
0.81709
11
0.33204
21
0.81646
0
LINE
8
BLACK
6
CONTINUOUS
10
0.33204
20
0.81646
11
0.33052
21
0.81709
0
LINE
8
BLACK
6
CONTINUOUS
10
0.33052
20
0.81709
11
0.32989
21
0.81861
0
LINE
8
BLACK
6
CONTINUOUS
10
0.32989
20
0.81861
11
0.32989
21
0.825841
0
LINE
8
BLACK
6
CONTINUOUS
10
0.32989
20
0.825841
11
0.328469
21
0.825841
0
LINE
8
BLACK
6
CONTINUOUS
10
0.328469
20
0.825841
11
0.322545
21
0.817377
0
LINE
8
BLACK
6
CONTINUOUS
10
0.322545
20
0.817377
11
0.321157
21
0.816493
0
LINE
8
BLACK
6
CONTINUOUS
10
0.321157
20
0.816493
11
0.31955
21
0.816849
0
LINE
8
BLACK
6
CONTINUOUS
10
0.31955
20
0.816849
11
0.318666
21
0.818236
0
LINE
8
BLACK
6
CONTINUOUS
10
0.318666
20
0.818236
11
0.319022
21
0.819843
0
LINE
8
BLACK
6
CONTINUOUS
10
0.319022
20
0.819843
11
0.32343
21
0.82614
0
LINE
8
BLACK
6
CONTINUOUS
10
0.32343
20
0.82614
11
0.321698
21
0.827006
0
LINE
8
BLACK
6
CONTINUOUS
10
0.321698
20
0.827006
11
0.321466
21
0.827273
0
LINE
8
BLACK
6
CONTINUOUS
10
0.321466
20
0.827273
11
0.321139
21
0.827409
0
LINE
8
BLACK
6
CONTINUOUS
10
0.321139
20
0.827409
11
0.320201
21
0.828347
0
LINE
8
BLACK
6
CONTINUOUS
10
0.320201
20
0.828347
11
0.320066
21
0.828674
0
LINE
8
BLACK
6
CONTINUOUS
10
0.320066
20
0.828674
11
0.319798
21
0.828906
0
LINE
8
BLACK
6
CONTINUOUS
10
0.319798
20
0.828906
11
0.31886
21
0.830782
0
LINE
8
BLACK
6
CONTINUOUS
10
0.31886
20
0.830782
11
0.318825
21
0.831281
0
LINE
8
BLACK
6
CONTINUOUS
10
0.318825
20
0.831281
11
0.318633
21
0.831743
0
LINE
8
BLACK
6
CONTINUOUS
10
0.318633
20
0.831743
11
0.318633
21
0.834558
0
LINE
8
BLACK
6
CONTINUOUS
10
0.318633
20
0.834558
11
0.318825
21
0.83502
0
LINE
8
BLACK
6
CONTINUOUS
10
0.318825
20
0.83502
11
0.31886
21
0.835519
0
LINE
8
BLACK
6
CONTINUOUS
10
0.31886
20
0.835519
11
0.319798
21
0.837395
0
LINE
8
BLACK
6
CONTINUOUS
10
0.319798
20
0.837395
11
0.320066
21
0.837627
0
LINE
8
BLACK
6
CONTINUOUS
10
0.320066
20
0.837627
11
0.320201
21
0.837954
0
LINE
8
BLACK
6
CONTINUOUS
10
0.320201
20
0.837954
11
0.321139
21
0.838892
0
LINE
8
BLACK
6
CONTINUOUS
10
0.321139
20
0.838892
11
0.321466
21
0.839028
0
LINE
8
BLACK
6
CONTINUOUS
10
0.321466
20
0.839028
11
0.321698
21
0.839295
0
LINE
8
BLACK
6
CONTINUOUS
10
0.321698
20
0.839295
11
0.323574
21
0.840233
0
LINE
8
BLACK
6
CONTINUOUS
10
0.323574
20
0.840233
11
0.324073
21
0.840268
0
LINE
8
BLACK
6
CONTINUOUS
10
0.324073
20
0.840268
11
0.324536
21
0.84046
0
LINE
8
BLACK
6
CONTINUOUS
10
0.324536
20
0.84046
11
0.33204
21
0.84046
0
LINE
8
BLACK
6
CONTINUOUS
10
0.33204
20
0.84046
11
0.333561
21
0.83983
0
LINE
8
BLACK
6
CONTINUOUS
10
0.323933
20
0.835605
11
0.323488
21
0.83516
0
LINE
8
BLACK
6
CONTINUOUS
10
0.323488
20
0.83516
11
0.322933
21
0.83405
0
LINE
8
BLACK
6
CONTINUOUS
10
0.322933
20
0.83405
11
0.322933
21
0.832251
0
LINE
8
BLACK
6
CONTINUOUS
10
0.322933
20
0.832251
11
0.323488
21
0.831141
0
LINE
8
BLACK
6
CONTINUOUS
10
0.323488
20
0.831141
11
0.323933
21
0.830696
0
LINE
8
BLACK
6
CONTINUOUS
10
0.323933
20
0.830696
11
0.325043
21
0.830141
0
LINE
8
BLACK
6
CONTINUOUS
10
0.325043
20
0.830141
11
0.32989
21
0.830141
0
LINE
8
BLACK
6
CONTINUOUS
10
0.32989
20
0.830141
11
0.32989
21
0.83616
0
LINE
8
BLACK
6
CONTINUOUS
10
0.32989
20
0.83616
11
0.325043
21
0.83616
0
LINE
8
BLACK
6
CONTINUOUS
10
0.325043
20
0.83616
11
0.323933
21
0.835605
0
LINE
8
BLACK
6
CONTINUOUS
10
0.32918
20
0.86733
11
0.329809
21
0.86581
0
LINE
8
BLACK
6
CONTINUOUS
10
0.329809
20
0.86581
11
0.329809
21
0.84611
0
LINE
8
BLACK
6
CONTINUOUS
10
0.329809
20
0.84611
11
0.32918
21
0.84459
0
LINE
8
BLACK
6
CONTINUOUS
10
0.32918
20
0.84459
11
0.327659
21
0.84396
0
LINE
8
BLACK
6
CONTINUOUS
10
0.327659
20
0.84396
11
0.326139
21
0.84459
0
LINE
8
BLACK
6
CONTINUOUS
10
0.326139
20
0.84459
11
0.325509
21
0.84611
0
LINE
8
BLACK
6
CONTINUOUS
10
0.325509
20
0.84611
11
0.325509
21
0.853341
0
LINE
8
BLACK
6
CONTINUOUS
10
0.325509
20
0.853341
11
0.324088
21
0.853341
0
LINE
8
BLACK
6
CONTINUOUS
10
0.324088
20
0.853341
11
0.318164
21
0.844877
0
LINE
8
BLACK
6
CONTINUOUS
10
0.318164
20
0.844877
11
0.316776
21
0.843993
0
LINE
8
BLACK
6
CONTINUOUS
10
0.316776
20
0.843993
11
0.315169
21
0.844349
0
LINE
8
BLACK
6
CONTINUOUS
10
0.315169
20
0.844349
11
0.314285
21
0.845736
0
LINE
8
BLACK
6
CONTINUOUS
10
0.314285
20
0.845736
11
0.314641
21
0.847343
0
LINE
8
BLACK
6
CONTINUOUS
10
0.314641
20
0.847343
11
0.319049
21
0.85364
0
LINE
8
BLACK
6
CONTINUOUS
10
0.319049
20
0.85364
11
0.317317
21
0.854506
0
LINE
8
BLACK
6
CONTINUOUS
10
0.317317
20
0.854506
11
0.317085
21
0.854773
0
LINE
8
BLACK
6
CONTINUOUS
10
0.317085
20
0.854773
11
0.316758
21
0.854909
0
LINE
8
BLACK
6
CONTINUOUS
10
0.316758
20
0.854909
11
0.31582
21
0.855847
0
LINE
8
BLACK
6
CONTINUOUS
10
0.31582
20
0.855847
11
0.315685
21
0.856174
0
LINE
8
BLACK
6
CONTINUOUS
10
0.315685
20
0.856174
11
0.315417
21
0.856406
0
LINE
8
BLACK
6
CONTINUOUS
10
0.315417
20
0.856406
11
0.314479
21
0.858282
0
LINE
8
BLACK
6
CONTINUOUS
10
0.314479
20
0.858282
11
0.314444
21
0.858781
0
LINE
8
BLACK
6
CONTINUOUS
10
0.314444
20
0.858781
11
0.314252
21
0.859243
0
LINE
8
BLACK
6
CONTINUOUS
10
0.314252
20
0.859243
11
0.314252
21
0.862058
0
LINE
8
BLACK
6
CONTINUOUS
10
0.314252
20
0.862058
11
0.314444
21
0.86252
0
LINE
8
BLACK
6
CONTINUOUS
10
0.314444
20
0.86252
11
0.314479
21
0.863019
0
LINE
8
BLACK
6
CONTINUOUS
10
0.314479
20
0.863019
11
0.315417
21
0.864895
0
LINE
8
BLACK
6
CONTINUOUS
10
0.315417
20
0.864895
11
0.315685
21
0.865127
0
LINE
8
BLACK
6
CONTINUOUS
10
0.315685
20
0.865127
11
0.31582
21
0.865454
0
LINE
8
BLACK
6
CONTINUOUS
10
0.31582
20
0.865454
11
0.316758
21
0.866392
0
LINE
8
BLACK
6
CONTINUOUS
10
0.316758
20
0.866392
11
0.317085
21
0.866528
0
LINE
8
BLACK
6
CONTINUOUS
10
0.317085
20
0.866528
11
0.317317
21
0.866795
0
LINE
8
BLACK
6
CONTINUOUS
10
0.317317
20
0.866795
11
0.319193
21
0.867733
0
LINE
8
BLACK
6
CONTINUOUS
10
0.319193
20
0.867733
11
0.319692
21
0.867768
0
LINE
8
BLACK
6
CONTINUOUS
10
0.319692
20
0.867768
11
0.320155
21
0.86796
0
LINE
8
BLACK
6
CONTINUOUS
10
0.320155
20
0.86796
11
0.327659
21
0.86796
0
LINE
8
BLACK
6
CONTINUOUS
10
0.327659
20
0.86796
11
0.32918
21
0.86733
0
LINE
8
BLACK
6
CONTINUOUS
10
0.319552
20
0.863105
11
0.319107
21
0.86266
0
LINE
8
BLACK
6
CONTINUOUS
10
0.319107
20
0.86266
11
0.318552
21
0.86155
0
LINE
8
BLACK
6
CONTINUOUS
10
0.318552
20
0.86155
11
0.318552
21
0.859751
0
LINE
8
BLACK
6
CONTINUOUS
10
0.318552
20
0.859751
11
0.319107
21
0.858641
0
LINE
8
BLACK
6
CONTINUOUS
10
0.319107
20
0.858641
11
0.319552
21
0.858196
0
LINE
8
BLACK
6
CONTINUOUS
10
0.319552
20
0.858196
11
0.320662
21
0.857641
0
LINE
8
BLACK
6
CONTINUOUS
10
0.320662
20
0.857641
11
0.325509
21
0.857641
0
LINE
8
BLACK
6
CONTINUOUS
10
0.325509
20
0.857641
11
0.325509
21
0.86366
0
LINE
8
BLACK
6
CONTINUOUS
10
0.325509
20
0.86366
11
0.320662
21
0.86366
0
LINE
8
BLACK
6
CONTINUOUS
10
0.320662
20
0.86366
11
0.319552
21
0.863105
0
LINE
8
BLACK
6
CONTINUOUS
10
0.352262
20
0.944398
11
0.352953
21
0.9425
0
LINE
8
BLACK
6
CONTINUOUS
10
0.352953
20
0.9425
11
0.352953
21
0.9025
0
LINE
8
BLACK
6
CONTINUOUS
10
0.352953
20
0.9025
11
0.352885
21
0.902116
0
LINE
8
BLACK
6
CONTINUOUS
10
0.352885
20
0.902116
11
0.352908
21
0.901987
0
LINE
8
BLACK
6
CONTINUOUS
10
0.352908
20
0.901987
11
0.352842
21
0.901874
0
LINE
8
BLACK
6
CONTINUOUS
10
0.352842
20
0.901874
11
0.352775
21
0.90149
0
LINE
8
BLACK
6
CONTINUOUS
10
0.352775
20
0.90149
11
0.352282
21
0.900902
0
LINE
8
BLACK
6
CONTINUOUS
10
0.352282
20
0.900902
11
0.351898
21
0.900238
0
LINE
8
BLACK
6
CONTINUOUS
10
0.351898
20
0.900238
11
0.351648
21
0.900147
0
LINE
8
BLACK
6
CONTINUOUS
10
0.351648
20
0.900147
11
0.351476
21
0.899943
0
LINE
8
BLACK
6
CONTINUOUS
10
0.351476
20
0.899943
11
0.350721
21
0.89981
0
LINE
8
BLACK
6
CONTINUOUS
10
0.350721
20
0.89981
11
0.35
21
0.899547
0
LINE
8
BLACK
6
CONTINUOUS
10
0.35
20
0.899547
11
0.29
21
0.899547
0
LINE
8
BLACK
6
CONTINUOUS
10
0.29
20
0.899547
11
0.289616
21
0.899615
0
LINE
8
BLACK
6
CONTINUOUS
10
0.289616
20
0.899615
11
0.289487
21
0.899592
0
LINE
8
BLACK
6
CONTINUOUS
10
0.289487
20
0.899592
11
0.289374
21
0.899658
0
LINE
8
BLACK
6
CONTINUOUS
10
0.289374
20
0.899658
11
0.28899
21
0.899725
0
LINE
8
BLACK
6
CONTINUOUS
10
0.28899
20
0.899725
11
0.288402
21
0.900218
0
LINE
8
BLACK
6
CONTINUOUS
10
0.288402
20
0.900218
11
0.287738
21
0.900602
0
LINE
8
BLACK
6
CONTINUOUS
10
0.287738
20
0.900602
11
0.287647
21
0.900852
0
LINE
8
BLACK
6
CONTINUOUS
10
0.287647
20
0.900852
11
0.287443
21
0.901024
0
LINE
8
BLACK
6
CONTINUOUS
10
0.287443
20
0.901024
11
0.28731
21
0.901779
0
LINE
8
BLACK
6
CONTINUOUS
10
0.28731
20
0.901779
11
0.287047
21
0.9025
0
LINE
8
BLACK
6
CONTINUOUS
10
0.287047
20
0.9025
11
0.287047
21
0.9425
0
LINE
8
BLACK
6
CONTINUOUS
10
0.287047
20
0.9425
11
0.287225
21
0.94351
0
LINE
8
BLACK
6
CONTINUOUS
10
0.287225
20
0.94351
11
0.288524
21
0.945057
0
LINE
8
BLACK
6
CONTINUOUS
10
0.288524
20
0.945057
11
0.290513
21
0.945408
0
LINE
8
BLACK
6
CONTINUOUS
10
0.290513
20
0.945408
11
0.292262
21
0.944398
0
LINE
8
BLACK
6
CONTINUOUS
10
0.292262
20
0.944398
11
0.292953
21
0.9425
0
LINE
8
BLACK
6
CONTINUOUS
10
0.292953
20
0.9425
11
0.292953
21
0.905453
0
LINE
8
BLACK
6
CONTINUOUS
10
0.292953
20
0.905453
11
0.347047
21
0.905453
0
LINE
8
BLACK
6
CONTINUOUS
10
0.347047
20
0.905453
11
0.347047
21
0.9425
0
LINE
8
BLACK
6
CONTINUOUS
10
0.347047
20
0.9425
11
0.347225
21
0.94351
0
LINE
8
BLACK
6
CONTINUOUS
10
0.347225
20
0.94351
11
0.348524
21
0.945057
0
LINE
8
BLACK
6
CONTINUOUS
10
0.348524
20
0.945057
11
0.350513
21
0.945408
0
LINE
8
BLACK
6
CONTINUOUS
10
0.350513
20
0.945408
11
0.352262
21
0.944398
0
LINE
8
BLACK
6
CONTINUOUS
10
0.31791
20
0.959799
11
0.31854
21
0.958279
0
LINE
8
BLACK
6
CONTINUOUS
10
0.31854
20
0.958279
11
0.31854
21
0.947021
0
LINE
8
BLACK
6
CONTINUOUS
10
0.31854
20
0.947021
11
0.31791
21
0.945501
0
LINE
8
BLACK
6
CONTINUOUS
10
0.31791
20
0.945501
11
0.31639
21
0.944871
0
LINE
8
BLACK
6
CONTINUOUS
10
0.31639
20
0.944871
11
0.31487
21
0.945501
0
LINE
8
BLACK
6
CONTINUOUS
10
0.31487
20
0.945501
11
0.31424
21
0.947021
0
LINE
8
BLACK
6
CONTINUOUS
10
0.31424
20
0.947021
11
0.31424
21
0.9505
0
LINE
8
BLACK
6
CONTINUOUS
10
0.31424
20
0.9505
11
0.29669
21
0.9505
0
LINE
8
BLACK
6
CONTINUOUS
10
0.29669
20
0.9505
11
0.296485
21
0.950585
0
LINE
8
BLACK
6
CONTINUOUS
10
0.296485
20
0.950585
11
0.296268
21
0.950542
0
LINE
8
BLACK
6
CONTINUOUS
10
0.296268
20
0.950542
11
0.295748
21
0.95089
0
LINE
8
BLACK
6
CONTINUOUS
10
0.295748
20
0.95089
11
0.29517
21
0.95113
0
LINE
8
BLACK
6
CONTINUOUS
10
0.29517
20
0.95113
11
0.295085
21
0.951334
0
LINE
8
BLACK
6
CONTINUOUS
10
0.295085
20
0.951334
11
0.294901
21
0.951457
0
LINE
8
BLACK
6
CONTINUOUS
10
0.294901
20
0.951457
11
0.29478
21
0.952071
0
LINE
8
BLACK
6
CONTINUOUS
10
0.29478
20
0.952071
11
0.29454
21
0.95265
0
LINE
8
BLACK
6
CONTINUOUS
10
0.29454
20
0.95265
11
0.294625
21
0.952854
0
LINE
8
BLACK
6
CONTINUOUS
10
0.294625
20
0.952854
11
0.294582
21
0.953072
0
LINE
8
BLACK
6
CONTINUOUS
10
0.294582
20
0.953072
11
0.29493
21
0.953592
0
LINE
8
BLACK
6
CONTINUOUS
10
0.29493
20
0.953592
11
0.29517
21
0.95417
0
LINE
8
BLACK
6
CONTINUOUS
10
0.29517
20
0.95417
11
0.295374
21
0.954255
0
LINE
8
BLACK
6
CONTINUOUS
10
0.295374
20
0.954255
11
0.295497
21
0.954439
0
LINE
8
BLACK
6
CONTINUOUS
10
0.295497
20
0.954439
11
0.298135
21
0.956197
0
LINE
8
BLACK
6
CONTINUOUS
10
0.298135
20
0.956197
11
0.299613
21
0.957676
0
LINE
8
BLACK
6
CONTINUOUS
10
0.299613
20
0.957676
11
0.300396
21
0.95924
0
LINE
8
BLACK
6
CONTINUOUS
10
0.300396
20
0.95924
11
0.301639
21
0.960318
0
LINE
8
BLACK
6
CONTINUOUS
10
0.301639
20
0.960318
11
0.30328
21
0.960202
0
LINE
8
BLACK
6
CONTINUOUS
10
0.30328
20
0.960202
11
0.304358
21
0.958958
0
LINE
8
BLACK
6
CONTINUOUS
10
0.304358
20
0.958958
11
0.304242
21
0.957317
0
LINE
8
BLACK
6
CONTINUOUS
10
0.304242
20
0.957317
11
0.303303
21
0.955441
0
LINE
8
BLACK
6
CONTINUOUS
10
0.303303
20
0.955441
11
0.303036
21
0.955209
0
LINE
8
BLACK
6
CONTINUOUS
10
0.303036
20
0.955209
11
0.302901
21
0.954882
0
LINE
8
BLACK
6
CONTINUOUS
10
0.302901
20
0.954882
11
0.302819
21
0.9548
0
LINE
8
BLACK
6
CONTINUOUS
10
0.302819
20
0.9548
11
0.31424
21
0.9548
0
LINE
8
BLACK
6
CONTINUOUS
10
0.31424
20
0.9548
11
0.31424
21
0.958279
0
LINE
8
BLACK
6
CONTINUOUS
10
0.31424
20
0.958279
11
0.31487
21
0.959799
0
LINE
8
BLACK
6
CONTINUOUS
10
0.31487
20
0.959799
11
0.31639
21
0.960429
0
LINE
8
BLACK
6
CONTINUOUS
10
0.31639
20
0.960429
11
0.31791
21
0.959799
0
LINE
8
BLACK
6
CONTINUOUS
10
0.34541
20
0.96418
11
0.34604
21
0.962659
0
LINE
8
BLACK
6
CONTINUOUS
10
0.34604
20
0.962659
11
0.34541
21
0.961139
0
LINE
8
BLACK
6
CONTINUOUS
10
0.34541
20
0.961139
11
0.34389
21
0.960509
0
LINE
8
BLACK
6
CONTINUOUS
10
0.34389
20
0.960509
11
0.336659
21
0.960509
0
LINE
8
BLACK
6
CONTINUOUS
10
0.336659
20
0.960509
11
0.336659
21
0.959088
0
LINE
8
BLACK
6
CONTINUOUS
10
0.336659
20
0.959088
11
0.345123
21
0.953164
0
LINE
8
BLACK
6
CONTINUOUS
10
0.345123
20
0.953164
11
0.346007
21
0.951776
0
LINE
8
BLACK
6
CONTINUOUS
10
0.346007
20
0.951776
11
0.345651
21
0.950169
0
LINE
8
BLACK
6
CONTINUOUS
10
0.345651
20
0.950169
11
0.344264
21
0.949285
0
LINE
8
BLACK
6
CONTINUOUS
10
0.344264
20
0.949285
11
0.342657
21
0.949641
0
LINE
8
BLACK
6
CONTINUOUS
10
0.342657
20
0.949641
11
0.33636
21
0.954049
0
LINE
8
BLACK
6
CONTINUOUS
10
0.33636
20
0.954049
11
0.335494
21
0.952317
0
LINE
8
BLACK
6
CONTINUOUS
10
0.335494
20
0.952317
11
0.335227
21
0.952085
0
LINE
8
BLACK
6
CONTINUOUS
10
0.335227
20
0.952085
11
0.335091
21
0.951758
0
LINE
8
BLACK
6
CONTINUOUS
10
0.335091
20
0.951758
11
0.334153
21
0.95082
0
LINE
8
BLACK
6
CONTINUOUS
10
0.334153
20
0.95082
11
0.333826
21
0.950685
0
LINE
8
BLACK
6
CONTINUOUS
10
0.333826
20
0.950685
11
0.333594
21
0.950417
0
LINE
8
BLACK
6
CONTINUOUS
10
0.333594
20
0.950417
11
0.331718
21
0.949479
0
LINE
8
BLACK
6
CONTINUOUS
10
0.331718
20
0.949479
11
0.331219
21
0.949444
0
LINE
8
BLACK
6
CONTINUOUS
10
0.331219
20
0.949444
11
0.330757
21
0.949252
0
LINE
8
BLACK
6
CONTINUOUS
10
0.330757
20
0.949252
11
0.327942
21
0.949252
0
LINE
8
BLACK
6
CONTINUOUS
10
0.327942
20
0.949252
11
0.32748
21
0.949444
0
LINE
8
BLACK
6
CONTINUOUS
10
0.32748
20
0.949444
11
0.326981
21
0.949479
0
LINE
8
BLACK
6
CONTINUOUS
10
0.326981
20
0.949479
11
0.325105
21
0.950417
0
LINE
8
BLACK
6
CONTINUOUS
10
0.325105
20
0.950417
11
0.324873
21
0.950685
0
LINE
8
BLACK
6
CONTINUOUS
10
0.324873
20
0.950685
11
0.324546
21
0.95082
0
LINE
8
BLACK
6
CONTINUOUS
10
0.324546
20
0.95082
11
0.323608
21
0.951758
0
LINE
8
BLACK
6
CONTINUOUS
10
0.323608
20
0.951758
11
0.323472
21
0.952085
0
LINE
8
BLACK
6
CONTINUOUS
10
0.323472
20
0.952085
11
0.323205
21
0.952317
0
LINE
8
BLACK
6
CONTINUOUS
10
0.323205
20
0.952317
11
0.322267
21
0.954193
0
LINE
8
BLACK
6
CONTINUOUS
10
0.322267
20
0.954193
11
0.322231
21
0.954692
0
LINE
8
BLACK
6
CONTINUOUS
10
0.322231
20
0.954692
11
0.32204
21
0.955155
0
LINE
8
BLACK
6
CONTINUOUS
10
0.32204
20
0.955155
11
0.32204
21
0.962659
0
LINE
8
BLACK
6
CONTINUOUS
10
0.32204
20
0.962659
11
0.32267
21
0.96418
0
LINE
8
BLACK
6
CONTINUOUS
10
0.32267
20
0.96418
11
0.32419
21
0.964809
0
LINE
8
BLACK
6
CONTINUOUS
10
0.32419
20
0.964809
11
0.34389
21
0.964809
0
LINE
8
BLACK
6
CONTINUOUS
10
0.34389
20
0.964809
11
0.34541
21
0.96418
0
LINE
8
BLACK
6
CONTINUOUS
10
0.32634
20
0.955662
11
0.326895
21
0.954552
0
LINE
8
BLACK
6
CONTINUOUS
10
0.326895
20
0.954552
11
0.32734
21
0.954107
0
LINE
8
BLACK
6
CONTINUOUS
10
0.32734
20
0.954107
11
0.32845
21
0.953552
0
LINE
8
BLACK
6
CONTINUOUS
10
0.32845
20
0.953552
11
0.330249
21
0.953552
0
LINE
8
BLACK
6
CONTINUOUS
10
0.330249
20
0.953552
11
0.331359
21
0.954107
0
LINE
8
BLACK
6
CONTINUOUS
10
0.331359
20
0.954107
11
0.331804
21
0.954552
0
LINE
8
BLACK
6
CONTINUOUS
10
0.331804
20
0.954552
11
0.332359
21
0.955662
0
LINE
8
BLACK
6
CONTINUOUS
10
0.332359
20
0.955662
11
0.332359
21
0.960509
0
LINE
8
BLACK
6
CONTINUOUS
10
0.332359
20
0.960509
11
0.32634
21
0.960509
0
LINE
8
BLACK
6
CONTINUOUS
10
0.32634
20
0.960509
11
0.32634
21
0.955662
0
LINE
8
BLACK
6
CONTINUOUS
10
0.31791
20
0.978561
11
0.31854
21
0.97704
0
LINE
8
BLACK
6
CONTINUOUS
10
0.31854
20
0.97704
11
0.31791
21
0.97552
0
LINE
8
BLACK
6
CONTINUOUS
10
0.31791
20
0.97552
11
0.31639
21
0.97489
0
LINE
8
BLACK
6
CONTINUOUS
10
0.31639
20
0.97489
11
0.309159
21
0.97489
0
LINE
8
BLACK
6
CONTINUOUS
10
0.309159
20
0.97489
11
0.309159
21
0.973469
0
LINE
8
BLACK
6
CONTINUOUS
10
0.309159
20
0.973469
11
0.317623
21
0.967545
0
LINE
8
BLACK
6
CONTINUOUS
10
0.317623
20
0.967545
11
0.318507
21
0.966157
0
LINE
8
BLACK
6
CONTINUOUS
10
0.318507
20
0.966157
11
0.318151
21
0.96455
0
LINE
8
BLACK
6
CONTINUOUS
10
0.318151
20
0.96455
11
0.316764
21
0.963666
0
LINE
8
BLACK
6
CONTINUOUS
10
0.316764
20
0.963666
11
0.315157
21
0.964022
0
LINE
8
BLACK
6
CONTINUOUS
10
0.315157
20
0.964022
11
0.30886
21
0.96843
0
LINE
8
BLACK
6
CONTINUOUS
10
0.30886
20
0.96843
11
0.307994
21
0.966698
0
LINE
8
BLACK
6
CONTINUOUS
10
0.307994
20
0.966698
11
0.307727
21
0.966466
0
LINE
8
BLACK
6
CONTINUOUS
10
0.307727
20
0.966466
11
0.307591
21
0.966139
0
LINE
8
BLACK
6
CONTINUOUS
10
0.307591
20
0.966139
11
0.306653
21
0.965201
0
LINE
8
BLACK
6
CONTINUOUS
10
0.306653
20
0.965201
11
0.306326
21
0.965066
0
LINE
8
BLACK
6
CONTINUOUS
10
0.306326
20
0.965066
11
0.306094
21
0.964798
0
LINE
8
BLACK
6
CONTINUOUS
10
0.306094
20
0.964798
11
0.304218
21
0.96386
0
LINE
8
BLACK
6
CONTINUOUS
10
0.304218
20
0.96386
11
0.303719
21
0.963825
0
LINE
8
BLACK
6
CONTINUOUS
10
0.303719
20
0.963825
11
0.303257
21
0.963633
0
LINE
8
BLACK
6
CONTINUOUS
10
0.303257
20
0.963633
11
0.300442
21
0.963633
0
LINE
8
BLACK
6
CONTINUOUS
10
0.300442
20
0.963633
11
0.29998
21
0.963825
0
LINE
8
BLACK
6
CONTINUOUS
10
0.29998
20
0.963825
11
0.299481
21
0.96386
0
LINE
8
BLACK
6
CONTINUOUS
10
0.299481
20
0.96386
11
0.297605
21
0.964798
0
LINE
8
BLACK
6
CONTINUOUS
10
0.297605
20
0.964798
11
0.297373
21
0.965066
0
LINE
8
BLACK
6
CONTINUOUS
10
0.297373
20
0.965066
11
0.297046
21
0.965201
0
LINE
8
BLACK
6
CONTINUOUS
10
0.297046
20
0.965201
11
0.296108
21
0.966139
0
LINE
8
BLACK
6
CONTINUOUS
10
0.296108
20
0.966139
11
0.295972
21
0.966466
0
LINE
8
BLACK
6
CONTINUOUS
10
0.295972
20
0.966466
11
0.295705
21
0.966698
0
LINE
8
BLACK
6
CONTINUOUS
10
0.295705
20
0.966698
11
0.294767
21
0.968574
0
LINE
8
BLACK
6
CONTINUOUS
10
0.294767
20
0.968574
11
0.294731
21
0.969073
0
LINE
8
BLACK
6
CONTINUOUS
10
0.294731
20
0.969073
11
0.29454
21
0.969536
0
LINE
8
BLACK
6
CONTINUOUS
10
0.29454
20
0.969536
11
0.29454
21
0.97704
0
LINE
8
BLACK
6
CONTINUOUS
10
0.29454
20
0.97704
11
0.29517
21
0.978561
0
LINE
8
BLACK
6
CONTINUOUS
10
0.29517
20
0.978561
11
0.29669
21
0.97919
0
LINE
8
BLACK
6
CONTINUOUS
10
0.29669
20
0.97919
11
0.31639
21
0.97919
0
LINE
8
BLACK
6
CONTINUOUS
10
0.31639
20
0.97919
11
0.31791
21
0.978561
0
LINE
8
BLACK
6
CONTINUOUS
10
0.29884
20
0.970043
11
0.299395
21
0.968933
0
LINE
8
BLACK
6
CONTINUOUS
10
0.299395
20
0.968933
11
0.29984
21
0.968488
0
LINE
8
BLACK
6
CONTINUOUS
10
0.29984
20
0.968488
11
0.30095
21
0.967933
0
LINE
8
BLACK
6
CONTINUOUS
10
0.30095
20
0.967933
11
0.302749
21
0.967933
0
LINE
8
BLACK
6
CONTINUOUS
10
0.302749
20
0.967933
11
0.303859
21
0.968488
0
LINE
8
BLACK
6
CONTINUOUS
10
0.303859
20
0.968488
11
0.304304
21
0.968933
0
LINE
8
BLACK
6
CONTINUOUS
10
0.304304
20
0.968933
11
0.304859
21
0.970043
0
LINE
8
BLACK
6
CONTINUOUS
10
0.304859
20
0.970043
11
0.304859
21
0.97489
0
LINE
8
BLACK
6
CONTINUOUS
10
0.304859
20
0.97489
11
0.29884
21
0.97489
0
LINE
8
BLACK
6
CONTINUOUS
10
0.29884
20
0.97489
11
0.29884
21
0.970043
0
LINE
8
BLACK
6
CONTINUOUS
10
0.619958
20
1.03622
11
0.622165
21
1.03345
0
LINE
8
BLACK
6
CONTINUOUS
10
0.622165
20
1.03345
11
0.622279
21
1.03295
0
LINE
8
BLACK
6
CONTINUOUS
10
0.622279
20
1.03295
11
0.66
21
1.03295
0
LINE
8
BLACK
6
CONTINUOUS
10
0.66
20
1.03295
11
0.66101
21
1.03277
0
LINE
8
BLACK
6
CONTINUOUS
10
0.66101
20
1.03277
11
0.662557
21
1.03148
0
LINE
8
BLACK
6
CONTINUOUS
10
0.662557
20
1.03148
11
0.662908
21
1.02949
0
LINE
8
BLACK
6
CONTINUOUS
10
0.662908
20
1.02949
11
0.661898
21
1.02774
0
LINE
8
BLACK
6
CONTINUOUS
10
0.661898
20
1.02774
11
0.66
21
1.02705
0
LINE
8
BLACK
6
CONTINUOUS
10
0.66
20
1.02705
11
0.653335
21
1.02705
0
LINE
8
BLACK
6
CONTINUOUS
10
0.653335
20
1.02705
11
0.653848
21
1.02581
0
LINE
8
BLACK
6
CONTINUOUS
10
0.653848
20
1.02581
11
0.653848
21
1.00611
0
LINE
8
BLACK
6
CONTINUOUS
10
0.653848
20
1.00611
11
0.653218
21
1.00459
0
LINE
8
BLACK
6
CONTINUOUS
10
0.653218
20
1.00459
11
0.651698
21
1.00396
0
LINE
8
BLACK
6
CONTINUOUS
10
0.651698
20
1.00396
11
0.650177
21
1.00459
0
LINE
8
BLACK
6
CONTINUOUS
10
0.650177
20
1.00459
11
0.649548
21
1.00611
0
LINE
8
BLACK
6
CONTINUOUS
10
0.649548
20
1.00611
11
0.649548
21
1.01428
0
LINE
8
BLACK
6
CONTINUOUS
10
0.649548
20
1.01428
11
0.645131
21
1.01428
0
LINE
8
BLACK
6
CONTINUOUS
10
0.645131
20
1.01428
11
0.643611
21
1.01491
0
LINE
8
BLACK
6
CONTINUOUS
10
0.643611
20
1.01491
11
0.642981
21
1.01643
0
LINE
8
BLACK
6
CONTINUOUS
10
0.642981
20
1.01643
11
0.643611
21
1.01795
0
LINE
8
BLACK
6
CONTINUOUS
10
0.643611
20
1.01795
11
0.645131
21
1.01858
0
LINE
8
BLACK
6
CONTINUOUS
10
0.645131
20
1.01858
11
0.649548
21
1.01858
0
LINE
8
BLACK
6
CONTINUOUS
10
0.649548
20
1.01858
11
0.649548
21
1.02366
0
LINE
8
BLACK
6
CONTINUOUS
10
0.649548
20
1.02366
11
0.642317
21
1.02366
0
LINE
8
BLACK
6
CONTINUOUS
10
0.642317
20
1.02366
11
0.640796
21
1.02429
0
LINE
8
BLACK
6
CONTINUOUS
10
0.640796
20
1.02429
11
0.640167
21
1.02581
0
LINE
8
BLACK
6
CONTINUOUS
10
0.640167
20
1.02581
11
0.640679
21
1.02705
0
LINE
8
BLACK
6
CONTINUOUS
10
0.640679
20
1.02705
11
0.622953
21
1.02705
0
LINE
8
BLACK
6
CONTINUOUS
10
0.622953
20
1.02705
11
0.622953
21
0.972953
0
LINE
8
BLACK
6
CONTINUOUS
10
0.622953
20
0.972953
11
0.66
21
0.972953
0
LINE
8
BLACK
6
CONTINUOUS
10
0.66
20
0.972953
11
0.66101
21
0.972775
0
LINE
8
BLACK
6
CONTINUOUS
10
0.66101
20
0.972775
11
0.662557
21
0.971476
0
LINE
8
BLACK
6
CONTINUOUS
10
0.662557
20
0.971476
11
0.662908
21
0.969487
0
LINE
8
BLACK
6
CONTINUOUS
10
0.662908
20
0.969487
11
0.661898
21
0.967738
0
LINE
8
BLACK
6
CONTINUOUS
10
0.661898
20
0.967738
11
0.66
21
0.967047
0
LINE
8
BLACK
6
CONTINUOUS
10
0.66
20
0.967047
11
0.62
21
0.967047
0
LINE
8
BLACK
6
CONTINUOUS
10
0.62
20
0.967047
11
0.619616
21
0.967115
0
LINE
8
BLACK
6
CONTINUOUS
10
0.619616
20
0.967115
11
0.619487
21
0.967092
0
LINE
8
BLACK
6
CONTINUOUS
10
0.619487
20
0.967092
11
0.619374
21
0.967158
0
LINE
8
BLACK
6
CONTINUOUS
10
0.619374
20
0.967158
11
0.61899
21
0.967225
0
LINE
8
BLACK
6
CONTINUOUS
10
0.61899
20
0.967225
11
0.618402
21
0.967718
0
LINE
8
BLACK
6
CONTINUOUS
10
0.618402
20
0.967718
11
0.617738
21
0.968102
0
LINE
8
BLACK
6
CONTINUOUS
10
0.617738
20
0.968102
11
0.617647
21
0.968352
0
LINE
8
BLACK
6
CONTINUOUS
10
0.617647
20
0.968352
11
0.617443
21
0.968524
0
LINE
8
BLACK
6
CONTINUOUS
10
0.617443
20
0.968524
11
0.61731
21
0.969279
0
LINE
8
BLACK
6
CONTINUOUS
10
0.61731
20
0.969279
11
0.617047
21
0.97
0
LINE
8
BLACK
6
CONTINUOUS
10
0.617047
20
0.97
11
0.617047
21
1.02238
0
LINE
8
BLACK
6
CONTINUOUS
10
0.617047
20
1.02238
11
0.61677
21
1.02225
0
LINE
8
BLACK
6
CONTINUOUS
10
0.61677
20
1.02225
11
0.61323
21
1.02225
0
LINE
8
BLACK
6
CONTINUOUS
10
0.61323
20
1.02225
11
0.610042
21
1.02378
0
LINE
8
BLACK
6
CONTINUOUS
10
0.610042
20
1.02378
11
0.607835
21
1.02655
0
LINE
8
BLACK
6
CONTINUOUS
10
0.607835
20
1.02655
11
0.607047
21
1.03
0
LINE
8
BLACK
6
CONTINUOUS
10
0.607047
20
1.03
11
0.607835
21
1.03345
0
LINE
8
BLACK
6
CONTINUOUS
10
0.607835
20
1.03345
11
0.610042
21
1.03622
0
LINE
8
BLACK
6
CONTINUOUS
10
0.610042
20
1.03622
11
0.61323
21
1.03775
0
LINE
8
BLACK
6
CONTINUOUS
10
0.61323
20
1.03775
11
0.61677
21
1.03775
0
LINE
8
BLACK
6
CONTINUOUS
10
0.61677
20
1.03775
11
0.619958
21
1.03622
0
LINE
8
BLACK
6
CONTINUOUS
10
0.613433
20
1.02843
11
0.615
21
1.02778
0
LINE
8
BLACK
6
CONTINUOUS
10
0.615
20
1.02778
11
0.616567
21
1.02843
0
LINE
8
BLACK
6
CONTINUOUS
10
0.616567
20
1.02843
11
0.617047
21
1.02959
0
LINE
8
BLACK
6
CONTINUOUS
10
0.617047
20
1.02959
11
0.617047
21
1.03
0
LINE
8
BLACK
6
CONTINUOUS
10
0.617047
20
1.03
11
0.617098
21
1.03029
0
LINE
8
BLACK
6
CONTINUOUS
10
0.617098
20
1.03029
11
0.616567
21
1.03157
0
LINE
8
BLACK
6
CONTINUOUS
10
0.616567
20
1.03157
11
0.615
21
1.03222
0
LINE
8
BLACK
6
CONTINUOUS
10
0.615
20
1.03222
11
0.613433
21
1.03157
0
LINE
8
BLACK
6
CONTINUOUS
10
0.613433
20
1.03157
11
0.612784
21
1.03
0
LINE
8
BLACK
6
CONTINUOUS
10
0.612784
20
1.03
11
0.613433
21
1.02843
0
LINE
8
BLACK
6
CONTINUOUS
10
0.740384
20
1.03289
11
0.740513
21
1.03291
0
LINE
8
BLACK
6
CONTINUOUS
10
0.740513
20
1.03291
11
0.740626
21
1.03284
0
LINE
8
BLACK
6
CONTINUOUS
10
0.740626
20
1.03284
11
0.74101
21
1.03277
0
LINE
8
BLACK
6
CONTINUOUS
10
0.74101
20
1.03277
11
0.741598
21
1.03228
0
LINE
8
BLACK
6
CONTINUOUS
10
0.741598
20
1.03228
11
0.742262
21
1.0319
0
LINE
8
BLACK
6
CONTINUOUS
10
0.742262
20
1.0319
11
0.742353
21
1.03165
0
LINE
8
BLACK
6
CONTINUOUS
10
0.742353
20
1.03165
11
0.742557
21
1.03148
0
LINE
8
BLACK
6
CONTINUOUS
10
0.742557
20
1.03148
11
0.74269
21
1.03072
0
LINE
8
BLACK
6
CONTINUOUS
10
0.74269
20
1.03072
11
0.742953
21
1.03
0
LINE
8
BLACK
6
CONTINUOUS
10
0.742953
20
1.03
11
0.742953
21
0.97
0
LINE
8
BLACK
6
CONTINUOUS
10
0.742953
20
0.97
11
0.742885
21
0.969616
0
LINE
8
BLACK
6
CONTINUOUS
10
0.742885
20
0.969616
11
0.742908
21
0.969487
0
LINE
8
BLACK
6
CONTINUOUS
10
0.742908
20
0.969487
11
0.742842
21
0.969374
0
LINE
8
BLACK
6
CONTINUOUS
10
0.742842
20
0.969374
11
0.742775
21
0.96899
0
LINE
8
BLACK
6
CONTINUOUS
10
0.742775
20
0.96899
11
0.742282
21
0.968402
0
LINE
8
BLACK
6
CONTINUOUS
10
0.742282
20
0.968402
11
0.741898
21
0.967738
0
LINE
8
BLACK
6
CONTINUOUS
10
0.741898
20
0.967738
11
0.741648
21
0.967647
0
LINE
8
BLACK
6
CONTINUOUS
10
0.741648
20
0.967647
11
0.741476
21
0.967443
0
LINE
8
BLACK
6
CONTINUOUS
10
0.741476
20
0.967443
11
0.740721
21
0.96731
0
LINE
8
BLACK
6
CONTINUOUS
10
0.740721
20
0.96731
11
0.74
21
0.967047
0
LINE
8
BLACK
6
CONTINUOUS
10
0.74
20
0.967047
11
0.7
21
0.967047
0
LINE
8
BLACK
6
CONTINUOUS
10
0.7
20
0.967047
11
0.69899
21
0.967225
0
LINE
8
BLACK
6
CONTINUOUS
10
0.69899
20
0.967225
11
0.697443
21
0.968524
0
LINE
8
BLACK
6
CONTINUOUS
10
0.697443
20
0.968524
11
0.697092
21
0.970513
0
LINE
8
BLACK
6
CONTINUOUS
10
0.697092
20
0.970513
11
0.698102
21
0.972262
0
LINE
8
BLACK
6
CONTINUOUS
10
0.698102
20
0.972262
11
0.7
21
0.972953
0
LINE
8
BLACK
6
CONTINUOUS
10
0.7
20
0.972953
11
0.737047
21
0.972953
0
LINE
8
BLACK
6
CONTINUOUS
10
0.737047
20
0.972953
11
0.737047
21
1.02705
0
LINE
8
BLACK
6
CONTINUOUS
10
0.737047
20
1.02705
11
0.722839
21
1.02705
0
LINE
8
BLACK
6
CONTINUOUS
10
0.722839
20
1.02705
11
0.722906
21
1.027
0
LINE
8
BLACK
6
CONTINUOUS
10
0.722906
20
1.027
11
0.724664
21
1.02437
0
LINE
8
BLACK
6
CONTINUOUS
10
0.724664
20
1.02437
11
0.726143
21
1.02289
0
LINE
8
BLACK
6
CONTINUOUS
10
0.726143
20
1.02289
11
0.727707
21
1.0221
0
LINE
8
BLACK
6
CONTINUOUS
10
0.727707
20
1.0221
11
0.728785
21
1.02086
0
LINE
8
BLACK
6
CONTINUOUS
10
0.728785
20
1.02086
11
0.728668
21
1.01922
0
LINE
8
BLACK
6
CONTINUOUS
10
0.728668
20
1.01922
11
0.727425
21
1.01814
0
LINE
8
BLACK
6
CONTINUOUS
10
0.727425
20
1.01814
11
0.725784
21
1.01826
0
LINE
8
BLACK
6
CONTINUOUS
10
0.725784
20
1.01826
11
0.723907
21
1.0192
0
LINE
8
BLACK
6
CONTINUOUS
10
0.723907
20
1.0192
11
0.723676
21
1.01946
0
LINE
8
BLACK
6
CONTINUOUS
10
0.723676
20
1.01946
11
0.723349
21
1.0196
0
LINE
8
BLACK
6
CONTINUOUS
10
0.723349
20
1.0196
11
0.723267
21
1.01968
0
LINE
8
BLACK
6
CONTINUOUS
10
0.723267
20
1.01968
11
0.723267
21
1.00826
0
LINE
8
BLACK
6
CONTINUOUS
10
0.723267
20
1.00826
11
0.726745
21
1.00826
0
LINE
8
BLACK
6
CONTINUOUS
10
0.726745
20
1.00826
11
0.728265
21
1.00763
0
LINE
8
BLACK
6
CONTINUOUS
10
0.728265
20
1.00763
11
0.728895
21
1.00611
0
LINE
8
BLACK
6
CONTINUOUS
10
0.728895
20
1.00611
11
0.728265
21
1.00459
0
LINE
8
BLACK
6
CONTINUOUS
10
0.728265
20
1.00459
11
0.726745
21
1.00396
0
LINE
8
BLACK
6
CONTINUOUS
10
0.726745
20
1.00396
11
0.721117
21
1.00396
0
LINE
8
BLACK
6
CONTINUOUS
10
0.721117
20
1.00396
11
0.715488
21
1.00396
0
LINE
8
BLACK
6
CONTINUOUS
10
0.715488
20
1.00396
11
0.713968
21
1.00459
0
LINE
8
BLACK
6
CONTINUOUS
10
0.713968
20
1.00459
11
0.713338
21
1.00611
0
LINE
8
BLACK
6
CONTINUOUS
10
0.713338
20
1.00611
11
0.713968
21
1.00763
0
LINE
8
BLACK
6
CONTINUOUS
10
0.713968
20
1.00763
11
0.715488
21
1.00826
0
LINE
8
BLACK
6
CONTINUOUS
10
0.715488
20
1.00826
11
0.718967
21
1.00826
0
LINE
8
BLACK
6
CONTINUOUS
10
0.718967
20
1.00826
11
0.718967
21
1.02581
0
LINE
8
BLACK
6
CONTINUOUS
10
0.718967
20
1.02581
11
0.719051
21
1.02601
0
LINE
8
BLACK
6
CONTINUOUS
10
0.719051
20
1.02601
11
0.719008
21
1.02623
0
LINE
8
BLACK
6
CONTINUOUS
10
0.719008
20
1.02623
11
0.719357
21
1.02675
0
LINE
8
BLACK
6
CONTINUOUS
10
0.719357
20
1.02675
11
0.719479
21
1.02705
0
LINE
8
BLACK
6
CONTINUOUS
10
0.719479
20
1.02705
11
0.705626
21
1.02705
0
LINE
8
BLACK
6
CONTINUOUS
10
0.705626
20
1.02705
11
0.706131
21
1.02679
0
LINE
8
BLACK
6
CONTINUOUS
10
0.706131
20
1.02679
11
0.706362
21
1.02653
0
LINE
8
BLACK
6
CONTINUOUS
10
0.706362
20
1.02653
11
0.706689
21
1.02639
0
LINE
8
BLACK
6
CONTINUOUS
10
0.706689
20
1.02639
11
0.707627
21
1.02545
0
LINE
8
BLACK
6
CONTINUOUS
10
0.707627
20
1.02545
11
0.707763
21
1.02513
0
LINE
8
BLACK
6
CONTINUOUS
10
0.707763
20
1.02513
11
0.70803
21
1.0249
0
LINE
8
BLACK
6
CONTINUOUS
10
0.70803
20
1.0249
11
0.708968
21
1.02302
0
LINE
8
BLACK
6
CONTINUOUS
10
0.708968
20
1.02302
11
0.708986
21
1.02278
0
LINE
8
BLACK
6
CONTINUOUS
10
0.708986
20
1.02278
11
0.709131
21
1.02258
0
LINE
8
BLACK
6
CONTINUOUS
10
0.709131
20
1.02258
11
0.710069
21
1.01883
0
LINE
8
BLACK
6
CONTINUOUS
10
0.710069
20
1.01883
11
0.710029
21
1.01856
0
LINE
8
BLACK
6
CONTINUOUS
10
0.710029
20
1.01856
11
0.710133
21
1.01831
0
LINE
8
BLACK
6
CONTINUOUS
10
0.710133
20
1.01831
11
0.710133
21
1.01361
0
LINE
8
BLACK
6
CONTINUOUS
10
0.710133
20
1.01361
11
0.710029
21
1.01336
0
LINE
8
BLACK
6
CONTINUOUS
10
0.710029
20
1.01336
11
0.710069
21
1.01309
0
LINE
8
BLACK
6
CONTINUOUS
10
0.710069
20
1.01309
11
0.709131
21
1.00934
0
LINE
8
BLACK
6
CONTINUOUS
10
0.709131
20
1.00934
11
0.708986
21
1.00914
0
LINE
8
BLACK
6
CONTINUOUS
10
0.708986
20
1.00914
11
0.708968
21
1.0089
0
LINE
8
BLACK
6
CONTINUOUS
10
0.708968
20
1.0089
11
0.70803
21
1.00702
0
LINE
8
BLACK
6
CONTINUOUS
10
0.70803
20
1.00702
11
0.707763
21
1.00679
0
LINE
8
BLACK
6
CONTINUOUS
10
0.707763
20
1.00679
11
0.707627
21
1.00647
0
LINE
8
BLACK
6
CONTINUOUS
10
0.707627
20
1.00647
11
0.706689
21
1.00553
0
LINE
8
BLACK
6
CONTINUOUS
10
0.706689
20
1.00553
11
0.706362
21
1.00539
0
LINE
8
BLACK
6
CONTINUOUS
10
0.706362
20
1.00539
11
0.706131
21
1.00513
0
LINE
8
BLACK
6
CONTINUOUS
10
0.706131
20
1.00513
11
0.704254
21
1.00419
0
LINE
8
BLACK
6
CONTINUOUS
10
0.704254
20
1.00419
11
0.703755
21
1.00415
0
LINE
8
BLACK
6
CONTINUOUS
10
0.703755
20
1.00415
11
0.703293
21
1.00396
0
LINE
8
BLACK
6
CONTINUOUS
10
0.703293
20
1.00396
11
0.701417
21
1.00396
0
LINE
8
BLACK
6
CONTINUOUS
10
0.701417
20
1.00396
11
0.700954
21
1.00415
0
LINE
8
BLACK
6
CONTINUOUS
10
0.700954
20
1.00415
11
0.700455
21
1.00419
0
LINE
8
BLACK
6
CONTINUOUS
10
0.700455
20
1.00419
11
0.698579
21
1.00513
0
LINE
8
BLACK
6
CONTINUOUS
10
0.698579
20
1.00513
11
0.698347
21
1.00539
0
LINE
8
BLACK
6
CONTINUOUS
10
0.698347
20
1.00539
11
0.69802
21
1.00553
0
LINE
8
BLACK
6
CONTINUOUS
10
0.69802
20
1.00553
11
0.697082
21
1.00647
0
LINE
8
BLACK
6
CONTINUOUS
10
0.697082
20
1.00647
11
0.696947
21
1.00679
0
LINE
8
BLACK
6
CONTINUOUS
10
0.696947
20
1.00679
11
0.696679
21
1.00702
0
LINE
8
BLACK
6
CONTINUOUS
10
0.696679
20
1.00702
11
0.695741
21
1.0089
0
LINE
8
BLACK
6
CONTINUOUS
10
0.695741
20
1.0089
11
0.695724
21
1.00914
0
LINE
8
BLACK
6
CONTINUOUS
10
0.695724
20
1.00914
11
0.695578
21
1.00934
0
LINE
8
BLACK
6
CONTINUOUS
10
0.695578
20
1.00934
11
0.69464
21
1.01309
0
LINE
8
BLACK
6
CONTINUOUS
10
0.69464
20
1.01309
11
0.69468
21
1.01336
0
LINE
8
BLACK
6
CONTINUOUS
10
0.69468
20
1.01336
11
0.694576
21
1.01361
0
LINE
8
BLACK
6
CONTINUOUS
10
0.694576
20
1.01361
11
0.694576
21
1.01831
0
LINE
8
BLACK
6
CONTINUOUS
10
0.694576
20
1.01831
11
0.69468
21
1.01856
0
LINE
8
BLACK
6
CONTINUOUS
10
0.69468
20
1.01856
11
0.69464
21
1.01883
0
LINE
8
BLACK
6
CONTINUOUS
10
0.69464
20
1.01883
11
0.695578
21
1.02258
0
LINE
8
BLACK
6
CONTINUOUS
10
0.695578
20
1.02258
11
0.695724
21
1.02278
0
LINE
8
BLACK
6
CONTINUOUS
10
0.695724
20
1.02278
11
0.695741
21
1.02302
0
LINE
8
BLACK
6
CONTINUOUS
10
0.695741
20
1.02302
11
0.696679
21
1.0249
0
LINE
8
BLACK
6
CONTINUOUS
10
0.696679
20
1.0249
11
0.696947
21
1.02513
0
LINE
8
BLACK
6
CONTINUOUS
10
0.696947
20
1.02513
11
0.697082
21
1.02545
0
LINE
8
BLACK
6
CONTINUOUS
10
0.697082
20
1.02545
11
0.69802
21
1.02639
0
LINE
8
BLACK
6
CONTINUOUS
10
0.69802
20
1.02639
11
0.698347
21
1.02653
0
LINE
8
BLACK
6
CONTINUOUS
10
0.698347
20
1.02653
11
0.698579
21
1.02679
0
LINE
8
BLACK
6
CONTINUOUS
10
0.698579
20
1.02679
11
0.699322
21
1.02717
0
LINE
8
BLACK
6
CONTINUOUS
10
0.699322
20
1.02717
11
0.69899
21
1.02723
0
LINE
8
BLACK
6
CONTINUOUS
10
0.69899
20
1.02723
11
0.697443
21
1.02852
0
LINE
8
BLACK
6
CONTINUOUS
10
0.697443
20
1.02852
11
0.697092
21
1.03051
0
LINE
8
BLACK
6
CONTINUOUS
10
0.697092
20
1.03051
11
0.698102
21
1.03226
0
LINE
8
BLACK
6
CONTINUOUS
10
0.698102
20
1.03226
11
0.7
21
1.03295
0
LINE
8
BLACK
6
CONTINUOUS
10
0.7
20
1.03295
11
0.74
21
1.03295
0
LINE
8
BLACK
6
CONTINUOUS
10
0.74
20
1.03295
11
0.740384
21
1.03289
0
LINE
8
BLACK
6
CONTINUOUS
10
0.700814
20
1.0231
11
0.700369
21
1.02266
0
LINE
8
BLACK
6
CONTINUOUS
10
0.700369
20
1.02266
11
0.699693
21
1.02131
0
LINE
8
BLACK
6
CONTINUOUS
10
0.699693
20
1.02131
11
0.698876
21
1.01804
0
LINE
8
BLACK
6
CONTINUOUS
10
0.698876
20
1.01804
11
0.698876
21
1.01388
0
LINE
8
BLACK
6
CONTINUOUS
10
0.698876
20
1.01388
11
0.699693
21
1.01061
0
LINE
8
BLACK
6
CONTINUOUS
10
0.699693
20
1.01061
11
0.700369
21
1.00926
0
LINE
8
BLACK
6
CONTINUOUS
10
0.700369
20
1.00926
11
0.700814
21
1.00882
0
LINE
8
BLACK
6
CONTINUOUS
10
0.700814
20
1.00882
11
0.701924
21
1.00826
0
LINE
8
BLACK
6
CONTINUOUS
10
0.701924
20
1.00826
11
0.702785
21
1.00826
0
LINE
8
BLACK
6
CONTINUOUS
10
0.702785
20
1.00826
11
0.703895
21
1.00882
0
LINE
8
BLACK
6
CONTINUOUS
10
0.703895
20
1.00882
11
0.70434
21
1.00926
0
LINE
8
BLACK
6
CONTINUOUS
10
0.70434
20
1.00926
11
0.705017
21
1.01061
0
LINE
8
BLACK
6
CONTINUOUS
10
0.705017
20
1.01061
11
0.705833
21
1.01388
0
LINE
8
BLACK
6
CONTINUOUS
10
0.705833
20
1.01388
11
0.705833
21
1.01804
0
LINE
8
BLACK
6
CONTINUOUS
10
0.705833
20
1.01804
11
0.705017
21
1.02131
0
LINE
8
BLACK
6
CONTINUOUS
10
0.705017
20
1.02131
11
0.70434
21
1.02266
0
LINE
8
BLACK
6
CONTINUOUS
10
0.70434
20
1.02266
11
0.703895
21
1.0231
0
LINE
8
BLACK
6
CONTINUOUS
10
0.703895
20
1.0231
11
0.702785
21
1.02366
0
LINE
8
BLACK
6
CONTINUOUS
10
0.702785
20
1.02366
11
0.701924
21
1.02366
0
LINE
8
BLACK
6
CONTINUOUS
10
0.701924
20
1.02366
11
0.700814
21
1.0231
0
LINE
8
BLACK
6
CONTINUOUS
10
0.55541
20
1.0226
11
0.55604
21
1.02108
0
LINE
8
BLACK
6
CONTINUOUS
10
0.55604
20
1.02108
11
0.55541
21
1.01956
0
LINE
8
BLACK
6
CONTINUOUS
10
0.55541
20
1.01956
11
0.55389
21
1.01893
0
LINE
8
BLACK
6
CONTINUOUS
10
0.55389
20
1.01893
11
0.545721
21
1.01893
0
LINE
8
BLACK
6
CONTINUOUS
10
0.545721
20
1.01893
11
0.545721
21
1.01451
0
LINE
8
BLACK
6
CONTINUOUS
10
0.545721
20
1.01451
11
0.545091
21
1.01299
0
LINE
8
BLACK
6
CONTINUOUS
10
0.545091
20
1.01299
11
0.543571
21
1.01236
0
LINE
8
BLACK
6
CONTINUOUS
10
0.543571
20
1.01236
11
0.542051
21
1.01299
0
LINE
8
BLACK
6
CONTINUOUS
10
0.542051
20
1.01299
11
0.541421
21
1.01451
0
LINE
8
BLACK
6
CONTINUOUS
10
0.541421
20
1.01451
11
0.541421
21
1.01893
0
LINE
8
BLACK
6
CONTINUOUS
10
0.541421
20
1.01893
11
0.53634
21
1.01893
0
LINE
8
BLACK
6
CONTINUOUS
10
0.53634
20
1.01893
11
0.53634
21
1.0117
0
LINE
8
BLACK
6
CONTINUOUS
10
0.53634
20
1.0117
11
0.53571
21
1.01018
0
LINE
8
BLACK
6
CONTINUOUS
10
0.53571
20
1.01018
11
0.53419
21
1.00955
0
LINE
8
BLACK
6
CONTINUOUS
10
0.53419
20
1.00955
11
0.532953
21
1.01006
0
LINE
8
BLACK
6
CONTINUOUS
10
0.532953
20
1.01006
11
0.532953
21
0.982953
0
LINE
8
BLACK
6
CONTINUOUS
10
0.532953
20
0.982953
11
0.587047
21
0.982953
0
LINE
8
BLACK
6
CONTINUOUS
10
0.587047
20
0.982953
11
0.587047
21
1.02
0
LINE
8
BLACK
6
CONTINUOUS
10
0.587047
20
1.02
11
0.587225
21
1.02101
0
LINE
8
BLACK
6
CONTINUOUS
10
0.587225
20
1.02101
11
0.588524
21
1.02256
0
LINE
8
BLACK
6
CONTINUOUS
10
0.588524
20
1.02256
11
0.590513
21
1.02291
0
LINE
8
BLACK
6
CONTINUOUS
10
0.590513
20
1.02291
11
0.592262
21
1.0219
0
LINE
8
BLACK
6
CONTINUOUS
10
0.592262
20
1.0219
11
0.592953
21
1.02
0
LINE
8
BLACK
6
CONTINUOUS
10
0.592953
20
1.02
11
0.592953
21
0.98
0
LINE
8
BLACK
6
CONTINUOUS
10
0.592953
20
0.98
11
0.592885
21
0.979616
0
LINE
8
BLACK
6
CONTINUOUS
10
0.592885
20
0.979616
11
0.592908
21
0.979487
0
LINE
8
BLACK
6
CONTINUOUS
10
0.592908
20
0.979487
11
0.592842
21
0.979374
0
LINE
8
BLACK
6
CONTINUOUS
10
0.592842
20
0.979374
11
0.592775
21
0.97899
0
LINE
8
BLACK
6
CONTINUOUS
10
0.592775
20
0.97899
11
0.592282
21
0.978402
0
LINE
8
BLACK
6
CONTINUOUS
10
0.592282
20
0.978402
11
0.591898
21
0.977738
0
LINE
8
BLACK
6
CONTINUOUS
10
0.591898
20
0.977738
11
0.591648
21
0.977647
0
LINE
8
BLACK
6
CONTINUOUS
10
0.591648
20
0.977647
11
0.591476
21
0.977443
0
LINE
8
BLACK
6
CONTINUOUS
10
0.591476
20
0.977443
11
0.590721
21
0.97731
0
LINE
8
BLACK
6
CONTINUOUS
10
0.590721
20
0.97731
11
0.59
21
0.977047
0
LINE
8
BLACK
6
CONTINUOUS
10
0.59
20
0.977047
11
0.537486
21
0.977047
0
LINE
8
BLACK
6
CONTINUOUS
10
0.537486
20
0.977047
11
0.537953
21
0.975
0
LINE
8
BLACK
6
CONTINUOUS
10
0.537953
20
0.975
11
0.537165
21
0.971549
0
LINE
8
BLACK
6
CONTINUOUS
10
0.537165
20
0.971549
11
0.534958
21
0.968782
0
LINE
8
BLACK
6
CONTINUOUS
10
0.534958
20
0.968782
11
0.53177
21
0.967247
0
LINE
8
BLACK
6
CONTINUOUS
10
0.53177
20
0.967247
11
0.52823
21
0.967247
0
LINE
8
BLACK
6
CONTINUOUS
10
0.52823
20
0.967247
11
0.525042
21
0.968782
0
LINE
8
BLACK
6
CONTINUOUS
10
0.525042
20
0.968782
11
0.522835
21
0.971549
0
LINE
8
BLACK
6
CONTINUOUS
10
0.522835
20
0.971549
11
0.522047
21
0.975
0
LINE
8
BLACK
6
CONTINUOUS
10
0.522047
20
0.975
11
0.522835
21
0.978451
0
LINE
8
BLACK
6
CONTINUOUS
10
0.522835
20
0.978451
11
0.525042
21
0.981218
0
LINE
8
BLACK
6
CONTINUOUS
10
0.525042
20
0.981218
11
0.527047
21
0.982184
0
LINE
8
BLACK
6
CONTINUOUS
10
0.527047
20
0.982184
11
0.527047
21
1.02
0
LINE
8
BLACK
6
CONTINUOUS
10
0.527047
20
1.02
11
0.527225
21
1.02101
0
LINE
8
BLACK
6
CONTINUOUS
10
0.527225
20
1.02101
11
0.528524
21
1.02256
0
LINE
8
BLACK
6
CONTINUOUS
10
0.528524
20
1.02256
11
0.530513
21
1.02291
0
LINE
8
BLACK
6
CONTINUOUS
10
0.530513
20
1.02291
11
0.532262
21
1.0219
0
LINE
8
BLACK
6
CONTINUOUS
10
0.532262
20
1.0219
11
0.532317
21
1.02175
0
LINE
8
BLACK
6
CONTINUOUS
10
0.532317
20
1.02175
11
0.53267
21
1.0226
0
LINE
8
BLACK
6
CONTINUOUS
10
0.53267
20
1.0226
11
0.53419
21
1.02323
0
LINE
8
BLACK
6
CONTINUOUS
10
0.53419
20
1.02323
11
0.55389
21
1.02323
0
LINE
8
BLACK
6
CONTINUOUS
10
0.55389
20
1.02323
11
0.55541
21
1.0226
0
LINE
8
BLACK
6
CONTINUOUS
10
0.528433
20
0.973433
11
0.53
21
0.972784
0
LINE
8
BLACK
6
CONTINUOUS
10
0.53
20
0.972784
11
0.531567
21
0.973433
0
LINE
8
BLACK
6
CONTINUOUS
10
0.531567
20
0.973433
11
0.532216
21
0.975
0
LINE
8
BLACK
6
CONTINUOUS
10
0.532216
20
0.975
11
0.531567
21
0.976567
0
LINE
8
BLACK
6
CONTINUOUS
10
0.531567
20
0.976567
11
0.530407
21
0.977047
0
LINE
8
BLACK
6
CONTINUOUS
10
0.530407
20
0.977047
11
0.53
21
0.977047
0
LINE
8
BLACK
6
CONTINUOUS
10
0.53
20
0.977047
11
0.529714
21
0.977098
0
LINE
8
BLACK
6
CONTINUOUS
10
0.529714
20
0.977098
11
0.528433
21
0.976567
0
LINE
8
BLACK
6
CONTINUOUS
10
0.528433
20
0.976567
11
0.527784
21
0.975
0
LINE
8
BLACK
6
CONTINUOUS
10
0.527784
20
0.975
11
0.528433
21
0.973433
0
LINE
8
BLACK
6
CONTINUOUS
10
0.673427
20
1.00027
11
0.673926
21
1.00023
0
LINE
8
BLACK
6
CONTINUOUS
10
0.673926
20
1.00023
11
0.675802
21
0.999295
0
LINE
8
BLACK
6
CONTINUOUS
10
0.675802
20
0.999295
11
0.676034
21
0.999028
0
LINE
8
BLACK
6
CONTINUOUS
10
0.676034
20
0.999028
11
0.676361
21
0.998892
0
LINE
8
BLACK
6
CONTINUOUS
10
0.676361
20
0.998892
11
0.677299
21
0.997954
0
LINE
8
BLACK
6
CONTINUOUS
10
0.677299
20
0.997954
11
0.677929
21
0.996434
0
LINE
8
BLACK
6
CONTINUOUS
10
0.677929
20
0.996434
11
0.677299
21
0.994914
0
LINE
8
BLACK
6
CONTINUOUS
10
0.677299
20
0.994914
11
0.675779
21
0.994284
0
LINE
8
BLACK
6
CONTINUOUS
10
0.675779
20
0.994284
11
0.674258
21
0.994914
0
LINE
8
BLACK
6
CONTINUOUS
10
0.674258
20
0.994914
11
0.673567
21
0.995605
0
LINE
8
BLACK
6
CONTINUOUS
10
0.673567
20
0.995605
11
0.672457
21
0.99616
0
LINE
8
BLACK
6
CONTINUOUS
10
0.672457
20
0.99616
11
0.668781
21
0.99616
0
LINE
8
BLACK
6
CONTINUOUS
10
0.668781
20
0.99616
11
0.667671
21
0.995605
0
LINE
8
BLACK
6
CONTINUOUS
10
0.667671
20
0.995605
11
0.667226
21
0.99516
0
LINE
8
BLACK
6
CONTINUOUS
10
0.667226
20
0.99516
11
0.666671
21
0.99405
0
LINE
8
BLACK
6
CONTINUOUS
10
0.666671
20
0.99405
11
0.666671
21
0.99303
0
LINE
8
BLACK
6
CONTINUOUS
10
0.666671
20
0.99303
11
0.667339
21
0.991028
0
LINE
8
BLACK
6
CONTINUOUS
10
0.667339
20
0.991028
11
0.678237
21
0.98013
0
LINE
8
BLACK
6
CONTINUOUS
10
0.678237
20
0.98013
11
0.678867
21
0.97861
0
LINE
8
BLACK
6
CONTINUOUS
10
0.678867
20
0.97861
11
0.678237
21
0.97709
0
LINE
8
BLACK
6
CONTINUOUS
10
0.678237
20
0.97709
11
0.676717
21
0.97646
0
LINE
8
BLACK
6
CONTINUOUS
10
0.676717
20
0.97646
11
0.664521
21
0.97646
0
LINE
8
BLACK
6
CONTINUOUS
10
0.664521
20
0.97646
11
0.663001
21
0.97709
0
LINE
8
BLACK
6
CONTINUOUS
10
0.663001
20
0.97709
11
0.662371
21
0.97861
0
LINE
8
BLACK
6
CONTINUOUS
10
0.662371
20
0.97861
11
0.663001
21
0.98013
0
LINE
8
BLACK
6
CONTINUOUS
10
0.663001
20
0.98013
11
0.664521
21
0.98076
0
LINE
8
BLACK
6
CONTINUOUS
10
0.664521
20
0.98076
11
0.671526
21
0.98076
0
LINE
8
BLACK
6
CONTINUOUS
10
0.671526
20
0.98076
11
0.663939
21
0.988347
0
LINE
8
BLACK
6
CONTINUOUS
10
0.663939
20
0.988347
11
0.663748
21
0.988809
0
LINE
8
BLACK
6
CONTINUOUS
10
0.663748
20
0.988809
11
0.66342
21
0.989187
0
LINE
8
BLACK
6
CONTINUOUS
10
0.66342
20
0.989187
11
0.662482
21
0.992002
0
LINE
8
BLACK
6
CONTINUOUS
10
0.662482
20
0.992002
11
0.662507
21
0.992354
0
LINE
8
BLACK
6
CONTINUOUS
10
0.662507
20
0.992354
11
0.662371
21
0.992681
0
LINE
8
BLACK
6
CONTINUOUS
10
0.662371
20
0.992681
11
0.662371
21
0.994558
0
LINE
8
BLACK
6
CONTINUOUS
10
0.662371
20
0.994558
11
0.662563
21
0.99502
0
LINE
8
BLACK
6
CONTINUOUS
10
0.662563
20
0.99502
11
0.662598
21
0.995519
0
LINE
8
BLACK
6
CONTINUOUS
10
0.662598
20
0.995519
11
0.663536
21
0.997395
0
LINE
8
BLACK
6
CONTINUOUS
10
0.663536
20
0.997395
11
0.663804
21
0.997627
0
LINE
8
BLACK
6
CONTINUOUS
10
0.663804
20
0.997627
11
0.663939
21
0.997954
0
LINE
8
BLACK
6
CONTINUOUS
10
0.663939
20
0.997954
11
0.664877
21
0.998892
0
LINE
8
BLACK
6
CONTINUOUS
10
0.664877
20
0.998892
11
0.665204
21
0.999028
0
LINE
8
BLACK
6
CONTINUOUS
10
0.665204
20
0.999028
11
0.665436
21
0.999295
0
LINE
8
BLACK
6
CONTINUOUS
10
0.665436
20
0.999295
11
0.667312
21
1.00023
0
LINE
8
BLACK
6
CONTINUOUS
10
0.667312
20
1.00023
11
0.667811
21
1.00027
0
LINE
8
BLACK
6
CONTINUOUS
10
0.667811
20
1.00027
11
0.668274
21
1.00046
0
LINE
8
BLACK
6
CONTINUOUS
10
0.668274
20
1.00046
11
0.672964
21
1.00046
0
LINE
8
BLACK
6
CONTINUOUS
10
0.672964
20
1.00046
11
0.673427
21
1.00027
0
LINE
8
BLACK
6
CONTINUOUS
10
0.689239
20
1.00032
11
0.689592
21
1.00035
0
LINE
8
BLACK
6
CONTINUOUS
10
0.689592
20
1.00035
11
0.692406
21
0.999412
0
LINE
8
BLACK
6
CONTINUOUS
10
0.692406
20
0.999412
11
0.692784
21
0.999084
0
LINE
8
BLACK
6
CONTINUOUS
10
0.692784
20
0.999084
11
0.693246
21
0.998892
0
LINE
8
BLACK
6
CONTINUOUS
10
0.693246
20
0.998892
11
0.695123
21
0.997016
0
LINE
8
BLACK
6
CONTINUOUS
10
0.695123
20
0.997016
11
0.695258
21
0.996689
0
LINE
8
BLACK
6
CONTINUOUS
10
0.695258
20
0.996689
11
0.695525
21
0.996457
0
LINE
8
BLACK
6
CONTINUOUS
10
0.695525
20
0.996457
11
0.696463
21
0.994581
0
LINE
8
BLACK
6
CONTINUOUS
10
0.696463
20
0.994581
11
0.696481
21
0.994337
0
LINE
8
BLACK
6
CONTINUOUS
10
0.696481
20
0.994337
11
0.696626
21
0.994141
0
LINE
8
BLACK
6
CONTINUOUS
10
0.696626
20
0.994141
11
0.697564
21
0.990389
0
LINE
8
BLACK
6
CONTINUOUS
10
0.697564
20
0.990389
11
0.697524
21
0.990119
0
LINE
8
BLACK
6
CONTINUOUS
10
0.697524
20
0.990119
11
0.697629
21
0.989867
0
LINE
8
BLACK
6
CONTINUOUS
10
0.697629
20
0.989867
11
0.697629
21
0.987053
0
LINE
8
BLACK
6
CONTINUOUS
10
0.697629
20
0.987053
11
0.697524
21
0.986801
0
LINE
8
BLACK
6
CONTINUOUS
10
0.697524
20
0.986801
11
0.697564
21
0.986531
0
LINE
8
BLACK
6
CONTINUOUS
10
0.697564
20
0.986531
11
0.696626
21
0.982779
0
LINE
8
BLACK
6
CONTINUOUS
10
0.696626
20
0.982779
11
0.696481
21
0.982583
0
LINE
8
BLACK
6
CONTINUOUS
10
0.696481
20
0.982583
11
0.696463
21
0.982339
0
LINE
8
BLACK
6
CONTINUOUS
10
0.696463
20
0.982339
11
0.695525
21
0.980463
0
LINE
8
BLACK
6
CONTINUOUS
10
0.695525
20
0.980463
11
0.695258
21
0.980231
0
LINE
8
BLACK
6
CONTINUOUS
10
0.695258
20
0.980231
11
0.695123
21
0.979904
0
LINE
8
BLACK
6
CONTINUOUS
10
0.695123
20
0.979904
11
0.693246
21
0.978028
0
LINE
8
BLACK
6
CONTINUOUS
10
0.693246
20
0.978028
11
0.692784
21
0.977836
0
LINE
8
BLACK
6
CONTINUOUS
10
0.692784
20
0.977836
11
0.692406
21
0.977508
0
LINE
8
BLACK
6
CONTINUOUS
10
0.692406
20
0.977508
11
0.689592
21
0.97657
0
LINE
8
BLACK
6
CONTINUOUS
10
0.689592
20
0.97657
11
0.689239
21
0.976595
0
LINE
8
BLACK
6
CONTINUOUS
10
0.689239
20
0.976595
11
0.688912
21
0.97646
0
LINE
8
BLACK
6
CONTINUOUS
10
0.688912
20
0.97646
11
0.687036
21
0.97646
0
LINE
8
BLACK
6
CONTINUOUS
10
0.687036
20
0.97646
11
0.686709
21
0.976595
0
LINE
8
BLACK
6
CONTINUOUS
10
0.686709
20
0.976595
11
0.686356
21
0.97657
0
LINE
8
BLACK
6
CONTINUOUS
10
0.686356
20
0.97657
11
0.683541
21
0.977508
0
LINE
8
BLACK
6
CONTINUOUS
10
0.683541
20
0.977508
11
0.683163
21
0.977836
0
LINE
8
BLACK
6
CONTINUOUS
10
0.683163
20
0.977836
11
0.682701
21
0.978028
0
LINE
8
BLACK
6
CONTINUOUS
10
0.682701
20
0.978028
11
0.681763
21
0.978966
0
LINE
8
BLACK
6
CONTINUOUS
10
0.681763
20
0.978966
11
0.681133
21
0.980486
0
LINE
8
BLACK
6
CONTINUOUS
10
0.681133
20
0.980486
11
0.681763
21
0.982006
0
LINE
8
BLACK
6
CONTINUOUS
10
0.681763
20
0.982006
11
0.683283
21
0.982636
0
LINE
8
BLACK
6
CONTINUOUS
10
0.683283
20
0.982636
11
0.684804
21
0.982006
0
LINE
8
BLACK
6
CONTINUOUS
10
0.684804
20
0.982006
11
0.685383
21
0.981427
0
LINE
8
BLACK
6
CONTINUOUS
10
0.685383
20
0.981427
11
0.687385
21
0.98076
0
LINE
8
BLACK
6
CONTINUOUS
10
0.687385
20
0.98076
11
0.688563
21
0.98076
0
LINE
8
BLACK
6
CONTINUOUS
10
0.688563
20
0.98076
11
0.690565
21
0.981427
0
LINE
8
BLACK
6
CONTINUOUS
10
0.690565
20
0.981427
11
0.691835
21
0.982698
0
LINE
8
BLACK
6
CONTINUOUS
10
0.691835
20
0.982698
11
0.692512
21
0.984051
0
LINE
8
BLACK
6
CONTINUOUS
10
0.692512
20
0.984051
11
0.693329
21
0.987318
0
LINE
8
BLACK
6
CONTINUOUS
10
0.693329
20
0.987318
11
0.693329
21
0.989602
0
LINE
8
BLACK
6
CONTINUOUS
10
0.693329
20
0.989602
11
0.692512
21
0.992869
0
LINE
8
BLACK
6
CONTINUOUS
10
0.692512
20
0.992869
11
0.691835
21
0.994222
0
LINE
8
BLACK
6
CONTINUOUS
10
0.691835
20
0.994222
11
0.690565
21
0.995493
0
LINE
8
BLACK
6
CONTINUOUS
10
0.690565
20
0.995493
11
0.688563
21
0.99616
0
LINE
8
BLACK
6
CONTINUOUS
10
0.688563
20
0.99616
11
0.687385
21
0.99616
0
LINE
8
BLACK
6
CONTINUOUS
10
0.687385
20
0.99616
11
0.685383
21
0.995493
0
LINE
8
BLACK
6
CONTINUOUS
10
0.685383
20
0.995493
11
0.684804
21
0.994914
0
LINE
8
BLACK
6
CONTINUOUS
10
0.684804
20
0.994914
11
0.683283
21
0.994284
0
LINE
8
BLACK
6
CONTINUOUS
10
0.683283
20
0.994284
11
0.681763
21
0.994914
0
LINE
8
BLACK
6
CONTINUOUS
10
0.681763
20
0.994914
11
0.681133
21
0.996434
0
LINE
8
BLACK
6
CONTINUOUS
10
0.681133
20
0.996434
11
0.681763
21
0.997954
0
LINE
8
BLACK
6
CONTINUOUS
10
0.681763
20
0.997954
11
0.682701
21
0.998892
0
LINE
8
BLACK
6
CONTINUOUS
10
0.682701
20
0.998892
11
0.683163
21
0.999084
0
LINE
8
BLACK
6
CONTINUOUS
10
0.683163
20
0.999084
11
0.683541
21
0.999412
0
LINE
8
BLACK
6
CONTINUOUS
10
0.683541
20
0.999412
11
0.686356
21
1.00035
0
LINE
8
BLACK
6
CONTINUOUS
10
0.686356
20
1.00035
11
0.686709
21
1.00032
0
LINE
8
BLACK
6
CONTINUOUS
10
0.686709
20
1.00032
11
0.687036
21
1.00046
0
LINE
8
BLACK
6
CONTINUOUS
10
0.687036
20
1.00046
11
0.688912
21
1.00046
0
LINE
8
BLACK
6
CONTINUOUS
10
0.688912
20
1.00046
11
0.689239
21
1.00032
0
LINE
8
BLACK
6
CONTINUOUS
10
0.354958
20
1.03372
11
0.357165
21
1.03095
0
LINE
8
BLACK
6
CONTINUOUS
10
0.357165
20
1.03095
11
0.357953
21
1.0275
0
LINE
8
BLACK
6
CONTINUOUS
10
0.357953
20
1.0275
11
0.357165
21
1.02405
0
LINE
8
BLACK
6
CONTINUOUS
10
0.357165
20
1.02405
11
0.354958
21
1.02128
0
LINE
8
BLACK
6
CONTINUOUS
10
0.354958
20
1.02128
11
0.352953
21
1.02032
0
LINE
8
BLACK
6
CONTINUOUS
10
0.352953
20
1.02032
11
0.352953
21
0.9825
0
LINE
8
BLACK
6
CONTINUOUS
10
0.352953
20
0.9825
11
0.352775
21
0.98149
0
LINE
8
BLACK
6
CONTINUOUS
10
0.352775
20
0.98149
11
0.351476
21
0.979943
0
LINE
8
BLACK
6
CONTINUOUS
10
0.351476
20
0.979943
11
0.349487
21
0.979592
0
LINE
8
BLACK
6
CONTINUOUS
10
0.349487
20
0.979592
11
0.347738
21
0.980602
0
LINE
8
BLACK
6
CONTINUOUS
10
0.347738
20
0.980602
11
0.347047
21
0.9825
0
LINE
8
BLACK
6
CONTINUOUS
10
0.347047
20
0.9825
11
0.347047
21
1.01955
0
LINE
8
BLACK
6
CONTINUOUS
10
0.347047
20
1.01955
11
0.292953
21
1.01955
0
LINE
8
BLACK
6
CONTINUOUS
10
0.292953
20
1.01955
11
0.292953
21
0.9825
0
LINE
8
BLACK
6
CONTINUOUS
10
0.292953
20
0.9825
11
0.292775
21
0.98149
0
LINE
8
BLACK
6
CONTINUOUS
10
0.292775
20
0.98149
11
0.291476
21
0.979943
0
LINE
8
BLACK
6
CONTINUOUS
10
0.291476
20
0.979943
11
0.289487
21
0.979592
0
LINE
8
BLACK
6
CONTINUOUS
10
0.289487
20
0.979592
11
0.287738
21
0.980602
0
LINE
8
BLACK
6
CONTINUOUS
10
0.287738
20
0.980602
11
0.287047
21
0.9825
0
LINE
8
BLACK
6
CONTINUOUS
10
0.287047
20
0.9825
11
0.287047
21
1.0225
0
LINE
8
BLACK
6
CONTINUOUS
10
0.287047
20
1.0225
11
0.287115
21
1.02288
0
LINE
8
BLACK
6
CONTINUOUS
10
0.287115
20
1.02288
11
0.287092
21
1.02301
0
LINE
8
BLACK
6
CONTINUOUS
10
0.287092
20
1.02301
11
0.287158
21
1.02313
0
LINE
8
BLACK
6
CONTINUOUS
10
0.287158
20
1.02313
11
0.287225
21
1.02351
0
LINE
8
BLACK
6
CONTINUOUS
10
0.287225
20
1.02351
11
0.287718
21
1.0241
0
LINE
8
BLACK
6
CONTINUOUS
10
0.287718
20
1.0241
11
0.288102
21
1.02476
0
LINE
8
BLACK
6
CONTINUOUS
10
0.288102
20
1.02476
11
0.288352
21
1.02485
0
LINE
8
BLACK
6
CONTINUOUS
10
0.288352
20
1.02485
11
0.288524
21
1.02506
0
LINE
8
BLACK
6
CONTINUOUS
10
0.288524
20
1.02506
11
0.289279
21
1.02519
0
LINE
8
BLACK
6
CONTINUOUS
10
0.289279
20
1.02519
11
0.29
21
1.02545
0
LINE
8
BLACK
6
CONTINUOUS
10
0.29
20
1.02545
11
0.342514
21
1.02545
0
LINE
8
BLACK
6
CONTINUOUS
10
0.342514
20
1.02545
11
0.342047
21
1.0275
0
LINE
8
BLACK
6
CONTINUOUS
10
0.342047
20
1.0275
11
0.342835
21
1.03095
0
LINE
8
BLACK
6
CONTINUOUS
10
0.342835
20
1.03095
11
0.345042
21
1.03372
0
LINE
8
BLACK
6
CONTINUOUS
10
0.345042
20
1.03372
11
0.34823
21
1.03525
0
LINE
8
BLACK
6
CONTINUOUS
10
0.34823
20
1.03525
11
0.35177
21
1.03525
0
LINE
8
BLACK
6
CONTINUOUS
10
0.35177
20
1.03525
11
0.354958
21
1.03372
0
LINE
8
BLACK
6
CONTINUOUS
10
0.348433
20
1.02593
11
0.349593
21
1.02545
0
LINE
8
BLACK
6
CONTINUOUS
10
0.349593
20
1.02545
11
0.35
21
1.02545
0
LINE
8
BLACK
6
CONTINUOUS
10
0.35
20
1.02545
11
0.350286
21
1.0254
0
LINE
8
BLACK
6
CONTINUOUS
10
0.350286
20
1.0254
11
0.351567
21
1.02593
0
LINE
8
BLACK
6
CONTINUOUS
10
0.351567
20
1.02593
11
0.352216
21
1.0275
0
LINE
8
BLACK
6
CONTINUOUS
10
0.352216
20
1.0275
11
0.351567
21
1.02907
0
LINE
8
BLACK
6
CONTINUOUS
10
0.351567
20
1.02907
11
0.35
21
1.02972
0
LINE
8
BLACK
6
CONTINUOUS
10
0.35
20
1.02972
11
0.348433
21
1.02907
0
LINE
8
BLACK
6
CONTINUOUS
10
0.348433
20
1.02907
11
0.347784
21
1.0275
0
LINE
8
BLACK
6
CONTINUOUS
10
0.347784
20
1.0275
11
0.348433
21
1.02593
0
LINE
8
BLACK
6
CONTINUOUS
10
0.66717
20
1.0212
11
0.667669
21
1.02117
0
LINE
8
BLACK
6
CONTINUOUS
10
0.667669
20
1.02117
11
0.66826
21
1.02087
0
LINE
8
BLACK
6
CONTINUOUS
10
0.66826
20
1.02087
11
0.669521
21
1.02139
0
LINE
8
BLACK
6
CONTINUOUS
10
0.669521
20
1.02139
11
0.671042
21
1.02076
0
LINE
8
BLACK
6
CONTINUOUS
10
0.671042
20
1.02076
11
0.671671
21
1.01924
0
LINE
8
BLACK
6
CONTINUOUS
10
0.671671
20
1.01924
11
0.671671
21
1.00611
0
LINE
8
BLACK
6
CONTINUOUS
10
0.671671
20
1.00611
11
0.671042
21
1.00459
0
LINE
8
BLACK
6
CONTINUOUS
10
0.671042
20
1.00459
11
0.669521
21
1.00396
0
LINE
8
BLACK
6
CONTINUOUS
10
0.669521
20
1.00396
11
0.668001
21
1.00459
0
LINE
8
BLACK
6
CONTINUOUS
10
0.668001
20
1.00459
11
0.667371
21
1.00611
0
LINE
8
BLACK
6
CONTINUOUS
10
0.667371
20
1.00611
11
0.667371
21
1.01648
0
LINE
8
BLACK
6
CONTINUOUS
10
0.667371
20
1.01648
11
0.66731
21
1.01654
0
LINE
8
BLACK
6
CONTINUOUS
10
0.66731
20
1.01654
11
0.6662
21
1.01709
0
LINE
8
BLACK
6
CONTINUOUS
10
0.6662
20
1.01709
11
0.6644
21
1.01709
0
LINE
8
BLACK
6
CONTINUOUS
10
0.6644
20
1.01709
11
0.663619
21
1.0167
0
LINE
8
BLACK
6
CONTINUOUS
10
0.663619
20
1.0167
11
0.663229
21
1.01592
0
LINE
8
BLACK
6
CONTINUOUS
10
0.663229
20
1.01592
11
0.663229
21
1.00611
0
LINE
8
BLACK
6
CONTINUOUS
10
0.663229
20
1.00611
11
0.662599
21
1.00459
0
LINE
8
BLACK
6
CONTINUOUS
10
0.662599
20
1.00459
11
0.661079
21
1.00396
0
LINE
8
BLACK
6
CONTINUOUS
10
0.661079
20
1.00396
11
0.659558
21
1.00459
0
LINE
8
BLACK
6
CONTINUOUS
10
0.659558
20
1.00459
11
0.658929
21
1.00611
0
LINE
8
BLACK
6
CONTINUOUS
10
0.658929
20
1.00611
11
0.658929
21
1.01643
0
LINE
8
BLACK
6
CONTINUOUS
10
0.658929
20
1.01643
11
0.65912
21
1.01689
0
LINE
8
BLACK
6
CONTINUOUS
10
0.65912
20
1.01689
11
0.659156
21
1.01739
0
LINE
8
BLACK
6
CONTINUOUS
10
0.659156
20
1.01739
11
0.660094
21
1.01927
0
LINE
8
BLACK
6
CONTINUOUS
10
0.660094
20
1.01927
11
0.660609
21
1.01971
0
LINE
8
BLACK
6
CONTINUOUS
10
0.660609
20
1.01971
11
0.661055
21
1.02023
0
LINE
8
BLACK
6
CONTINUOUS
10
0.661055
20
1.02023
11
0.662931
21
1.02117
0
LINE
8
BLACK
6
CONTINUOUS
10
0.662931
20
1.02117
11
0.663431
21
1.0212
0
LINE
8
BLACK
6
CONTINUOUS
10
0.663431
20
1.0212
11
0.663893
21
1.02139
0
LINE
8
BLACK
6
CONTINUOUS
10
0.663893
20
1.02139
11
0.666707
21
1.02139
0
LINE
8
BLACK
6
CONTINUOUS
10
0.666707
20
1.02139
11
0.66717
21
1.0212
0
LINE
8
BLACK
6
CONTINUOUS
10
0.684993
20
1.02777
11
0.685492
21
1.02773
0
LINE
8
BLACK
6
CONTINUOUS
10
0.685492
20
1.02773
11
0.687369
21
1.02679
0
LINE
8
BLACK
6
CONTINUOUS
10
0.687369
20
1.02679
11
0.6876
21
1.02653
0
LINE
8
BLACK
6
CONTINUOUS
10
0.6876
20
1.02653
11
0.687927
21
1.02639
0
LINE
8
BLACK
6
CONTINUOUS
10
0.687927
20
1.02639
11
0.688865
21
1.02545
0
LINE
8
BLACK
6
CONTINUOUS
10
0.688865
20
1.02545
11
0.689001
21
1.02513
0
LINE
8
BLACK
6
CONTINUOUS
10
0.689001
20
1.02513
11
0.689268
21
1.0249
0
LINE
8
BLACK
6
CONTINUOUS
10
0.689268
20
1.0249
11
0.690206
21
1.02302
0
LINE
8
BLACK
6
CONTINUOUS
10
0.690206
20
1.02302
11
0.690224
21
1.02278
0
LINE
8
BLACK
6
CONTINUOUS
10
0.690224
20
1.02278
11
0.690369
21
1.02258
0
LINE
8
BLACK
6
CONTINUOUS
10
0.690369
20
1.02258
11
0.691307
21
1.01883
0
LINE
8
BLACK
6
CONTINUOUS
10
0.691307
20
1.01883
11
0.691267
21
1.01856
0
LINE
8
BLACK
6
CONTINUOUS
10
0.691267
20
1.01856
11
0.691371
21
1.01831
0
LINE
8
BLACK
6
CONTINUOUS
10
0.691371
20
1.01831
11
0.691371
21
1.01361
0
LINE
8
BLACK
6
CONTINUOUS
10
0.691371
20
1.01361
11
0.691267
21
1.01336
0
LINE
8
BLACK
6
CONTINUOUS
10
0.691267
20
1.01336
11
0.691307
21
1.01309
0
LINE
8
BLACK
6
CONTINUOUS
10
0.691307
20
1.01309
11
0.690369
21
1.00934
0
LINE
8
BLACK
6
CONTINUOUS
10
0.690369
20
1.00934
11
0.690224
21
1.00914
0
LINE
8
BLACK
6
CONTINUOUS
10
0.690224
20
1.00914
11
0.690206
21
1.0089
0
LINE
8
BLACK
6
CONTINUOUS
10
0.690206
20
1.0089
11
0.689268
21
1.00702
0
LINE
8
BLACK
6
CONTINUOUS
10
0.689268
20
1.00702
11
0.689001
21
1.00679
0
LINE
8
BLACK
6
CONTINUOUS
10
0.689001
20
1.00679
11
0.688865
21
1.00647
0
LINE
8
BLACK
6
CONTINUOUS
10
0.688865
20
1.00647
11
0.687927
21
1.00553
0
LINE
8
BLACK
6
CONTINUOUS
10
0.687927
20
1.00553
11
0.6876
21
1.00539
0
LINE
8
BLACK
6
CONTINUOUS
10
0.6876
20
1.00539
11
0.687369
21
1.00513
0
LINE
8
BLACK
6
CONTINUOUS
10
0.687369
20
1.00513
11
0.685492
21
1.00419
0
LINE
8
BLACK
6
CONTINUOUS
10
0.685492
20
1.00419
11
0.684993
21
1.00415
0
LINE
8
BLACK
6
CONTINUOUS
10
0.684993
20
1.00415
11
0.684531
21
1.00396
0
LINE
8
BLACK
6
CONTINUOUS
10
0.684531
20
1.00396
11
0.682655
21
1.00396
0
LINE
8
BLACK
6
CONTINUOUS
10
0.682655
20
1.00396
11
0.682192
21
1.00415
0
LINE
8
BLACK
6
CONTINUOUS
10
0.682192
20
1.00415
11
0.681693
21
1.00419
0
LINE
8
BLACK
6
CONTINUOUS
10
0.681693
20
1.00419
11
0.679817
21
1.00513
0
LINE
8
BLACK
6
CONTINUOUS
10
0.679817
20
1.00513
11
0.679585
21
1.00539
0
LINE
8
BLACK
6
CONTINUOUS
10
0.679585
20
1.00539
11
0.679258
21
1.00553
0
LINE
8
BLACK
6
CONTINUOUS
10
0.679258
20
1.00553
11
0.67832
21
1.00647
0
LINE
8
BLACK
6
CONTINUOUS
10
0.67832
20
1.00647
11
0.678185
21
1.00679
0
LINE
8
BLACK
6
CONTINUOUS
10
0.678185
20
1.00679
11
0.677917
21
1.00702
0
LINE
8
BLACK
6
CONTINUOUS
10
0.677917
20
1.00702
11
0.676979
21
1.0089
0
LINE
8
BLACK
6
CONTINUOUS
10
0.676979
20
1.0089
11
0.676962
21
1.00914
0
LINE
8
BLACK
6
CONTINUOUS
10
0.676962
20
1.00914
11
0.676817
21
1.00934
0
LINE
8
BLACK
6
CONTINUOUS
10
0.676817
20
1.00934
11
0.675878
21
1.01309
0
LINE
8
BLACK
6
CONTINUOUS
10
0.675878
20
1.01309
11
0.675919
21
1.01336
0
LINE
8
BLACK
6
CONTINUOUS
10
0.675919
20
1.01336
11
0.675814
21
1.01361
0
LINE
8
BLACK
6
CONTINUOUS
10
0.675814
20
1.01361
11
0.675814
21
1.01831
0
LINE
8
BLACK
6
CONTINUOUS
10
0.675814
20
1.01831
11
0.675919
21
1.01856
0
LINE
8
BLACK
6
CONTINUOUS
10
0.675919
20
1.01856
11
0.675878
21
1.01883
0
LINE
8
BLACK
6
CONTINUOUS
10
0.675878
20
1.01883
11
0.676817
21
1.02258
0
LINE
8
BLACK
6
CONTINUOUS
10
0.676817
20
1.02258
11
0.676962
21
1.02278
0
LINE
8
BLACK
6
CONTINUOUS
10
0.676962
20
1.02278
11
0.676979
21
1.02302
0
LINE
8
BLACK
6
CONTINUOUS
10
0.676979
20
1.02302
11
0.677917
21
1.0249
0
LINE
8
BLACK
6
CONTINUOUS
10
0.677917
20
1.0249
11
0.678185
21
1.02513
0
LINE
8
BLACK
6
CONTINUOUS
10
0.678185
20
1.02513
11
0.67832
21
1.02545
0
LINE
8
BLACK
6
CONTINUOUS
10
0.67832
20
1.02545
11
0.679258
21
1.02639
0
LINE
8
BLACK
6
CONTINUOUS
10
0.679258
20
1.02639
11
0.679585
21
1.02653
0
LINE
8
BLACK
6
CONTINUOUS
10
0.679585
20
1.02653
11
0.679817
21
1.02679
0
LINE
8
BLACK
6
CONTINUOUS
10
0.679817
20
1.02679
11
0.681693
21
1.02773
0
LINE
8
BLACK
6
CONTINUOUS
10
0.681693
20
1.02773
11
0.682192
21
1.02777
0
LINE
8
BLACK
6
CONTINUOUS
10
0.682192
20
1.02777
11
0.682655
21
1.02796
0
LINE
8
BLACK
6
CONTINUOUS
10
0.682655
20
1.02796
11
0.684531
21
1.02796
0
LINE
8
BLACK
6
CONTINUOUS
10
0.684531
20
1.02796
11
0.684993
21
1.02777
0
LINE
8
BLACK
6
CONTINUOUS
10
0.682052
20
1.0231
11
0.681607
21
1.02266
0
LINE
8
BLACK
6
CONTINUOUS
10
0.681607
20
1.02266
11
0.680931
21
1.02131
0
LINE
8
BLACK
6
CONTINUOUS
10
0.680931
20
1.02131
11
0.680114
21
1.01804
0
LINE
8
BLACK
6
CONTINUOUS
10
0.680114
20
1.01804
11
0.680114
21
1.01388
0
LINE
8
BLACK
6
CONTINUOUS
10
0.680114
20
1.01388
11
0.680931
21
1.01061
0
LINE
8
BLACK
6
CONTINUOUS
10
0.680931
20
1.01061
11
0.681607
21
1.00926
0
LINE
8
BLACK
6
CONTINUOUS
10
0.681607
20
1.00926
11
0.682052
21
1.00882
0
LINE
8
BLACK
6
CONTINUOUS
10
0.682052
20
1.00882
11
0.683162
21
1.00826
0
LINE
8
BLACK
6
CONTINUOUS
10
0.683162
20
1.00826
11
0.684023
21
1.00826
0
LINE
8
BLACK
6
CONTINUOUS
10
0.684023
20
1.00826
11
0.685134
21
1.00882
0
LINE
8
BLACK
6
CONTINUOUS
10
0.685134
20
1.00882
11
0.685578
21
1.00926
0
LINE
8
BLACK
6
CONTINUOUS
10
0.685578
20
1.00926
11
0.686255
21
1.01061
0
LINE
8
BLACK
6
CONTINUOUS
10
0.686255
20
1.01061
11
0.687071
21
1.01388
0
LINE
8
BLACK
6
CONTINUOUS
10
0.687071
20
1.01388
11
0.687071
21
1.01804
0
LINE
8
BLACK
6
CONTINUOUS
10
0.687071
20
1.01804
11
0.686255
21
1.02131
0
LINE
8
BLACK
6
CONTINUOUS
10
0.686255
20
1.02131
11
0.685578
21
1.02266
0
LINE
8
BLACK
6
CONTINUOUS
10
0.685578
20
1.02266
11
0.685134
21
1.0231
0
LINE
8
BLACK
6
CONTINUOUS
10
0.685134
20
1.0231
11
0.684023
21
1.02366
0
LINE
8
BLACK
6
CONTINUOUS
10
0.684023
20
1.02366
11
0.683162
21
1.02366
0
LINE
8
BLACK
6
CONTINUOUS
10
0.683162
20
1.02366
11
0.682052
21
1.0231
0
LINE
8
BLACK
6
CONTINUOUS
10
0.58291
20
1.0373
11
0.58354
21
1.03578
0
LINE
8
BLACK
6
CONTINUOUS
10
0.58354
20
1.03578
11
0.58354
21
1.02452
0
LINE
8
BLACK
6
CONTINUOUS
10
0.58354
20
1.02452
11
0.58291
21
1.023
0
LINE
8
BLACK
6
CONTINUOUS
10
0.58291
20
1.023
11
0.58139
21
1.02237
0
LINE
8
BLACK
6
CONTINUOUS
10
0.58139
20
1.02237
11
0.57987
21
1.023
0
LINE
8
BLACK
6
CONTINUOUS
10
0.57987
20
1.023
11
0.57924
21
1.02452
0
LINE
8
BLACK
6
CONTINUOUS
10
0.57924
20
1.02452
11
0.57924
21
1.028
0
LINE
8
BLACK
6
CONTINUOUS
10
0.57924
20
1.028
11
0.56169
21
1.028
0
LINE
8
BLACK
6
CONTINUOUS
10
0.56169
20
1.028
11
0.561485
21
1.02808
0
LINE
8
BLACK
6
CONTINUOUS
10
0.561485
20
1.02808
11
0.561268
21
1.02804
0
LINE
8
BLACK
6
CONTINUOUS
10
0.561268
20
1.02804
11
0.560748
21
1.02839
0
LINE
8
BLACK
6
CONTINUOUS
10
0.560748
20
1.02839
11
0.56017
21
1.02863
0
LINE
8
BLACK
6
CONTINUOUS
10
0.56017
20
1.02863
11
0.560085
21
1.02883
0
LINE
8
BLACK
6
CONTINUOUS
10
0.560085
20
1.02883
11
0.559901
21
1.02896
0
LINE
8
BLACK
6
CONTINUOUS
10
0.559901
20
1.02896
11
0.55978
21
1.02957
0
LINE
8
BLACK
6
CONTINUOUS
10
0.55978
20
1.02957
11
0.55954
21
1.03015
0
LINE
8
BLACK
6
CONTINUOUS
10
0.55954
20
1.03015
11
0.559625
21
1.03035
0
LINE
8
BLACK
6
CONTINUOUS
10
0.559625
20
1.03035
11
0.559582
21
1.03057
0
LINE
8
BLACK
6
CONTINUOUS
10
0.559582
20
1.03057
11
0.55993
21
1.03109
0
LINE
8
BLACK
6
CONTINUOUS
10
0.55993
20
1.03109
11
0.56017
21
1.03167
0
LINE
8
BLACK
6
CONTINUOUS
10
0.56017
20
1.03167
11
0.560374
21
1.03175
0
LINE
8
BLACK
6
CONTINUOUS
10
0.560374
20
1.03175
11
0.560497
21
1.03194
0
LINE
8
BLACK
6
CONTINUOUS
10
0.560497
20
1.03194
11
0.563135
21
1.0337
0
LINE
8
BLACK
6
CONTINUOUS
10
0.563135
20
1.0337
11
0.564613
21
1.03518
0
LINE
8
BLACK
6
CONTINUOUS
10
0.564613
20
1.03518
11
0.565396
21
1.03674
0
LINE
8
BLACK
6
CONTINUOUS
10
0.565396
20
1.03674
11
0.566639
21
1.03782
0
LINE
8
BLACK
6
CONTINUOUS
10
0.566639
20
1.03782
11
0.56828
21
1.0377
0
LINE
8
BLACK
6
CONTINUOUS
10
0.56828
20
1.0377
11
0.569358
21
1.03646
0
LINE
8
BLACK
6
CONTINUOUS
10
0.569358
20
1.03646
11
0.569242
21
1.03482
0
LINE
8
BLACK
6
CONTINUOUS
10
0.569242
20
1.03482
11
0.568303
21
1.03294
0
LINE
8
BLACK
6
CONTINUOUS
10
0.568303
20
1.03294
11
0.568036
21
1.03271
0
LINE
8
BLACK
6
CONTINUOUS
10
0.568036
20
1.03271
11
0.567901
21
1.03238
0
LINE
8
BLACK
6
CONTINUOUS
10
0.567901
20
1.03238
11
0.567819
21
1.0323
0
LINE
8
BLACK
6
CONTINUOUS
10
0.567819
20
1.0323
11
0.57924
21
1.0323
0
LINE
8
BLACK
6
CONTINUOUS
10
0.57924
20
1.0323
11
0.57924
21
1.03578
0
LINE
8
BLACK
6
CONTINUOUS
10
0.57924
20
1.03578
11
0.57987
21
1.0373
0
LINE
8
BLACK
6
CONTINUOUS
10
0.57987
20
1.0373
11
0.58139
21
1.03793
0
LINE
8
BLACK
6
CONTINUOUS
10
0.58139
20
1.03793
11
0.58291
21
1.0373
0
LINE
8
BLACK
6
CONTINUOUS
10
0.55541
20
1.04042
11
0.55604
21
1.0389
0
LINE
8
BLACK
6
CONTINUOUS
10
0.55604
20
1.0389
11
0.55541
21
1.03738
0
LINE
8
BLACK
6
CONTINUOUS
10
0.55541
20
1.03738
11
0.55389
21
1.03675
0
LINE
8
BLACK
6
CONTINUOUS
10
0.55389
20
1.03675
11
0.543523
21
1.03675
0
LINE
8
BLACK
6
CONTINUOUS
10
0.543523
20
1.03675
11
0.543462
21
1.03669
0
LINE
8
BLACK
6
CONTINUOUS
10
0.543462
20
1.03669
11
0.542907
21
1.03558
0
LINE
8
BLACK
6
CONTINUOUS
10
0.542907
20
1.03558
11
0.542907
21
1.03378
0
LINE
8
BLACK
6
CONTINUOUS
10
0.542907
20
1.03378
11
0.543297
21
1.033
0
LINE
8
BLACK
6
CONTINUOUS
10
0.543297
20
1.033
11
0.544078
21
1.03261
0
LINE
8
BLACK
6
CONTINUOUS
10
0.544078
20
1.03261
11
0.55389
21
1.03261
0
LINE
8
BLACK
6
CONTINUOUS
10
0.55389
20
1.03261
11
0.55541
21
1.03198
0
LINE
8
BLACK
6
CONTINUOUS
10
0.55541
20
1.03198
11
0.55604
21
1.03046
0
LINE
8
BLACK
6
CONTINUOUS
10
0.55604
20
1.03046
11
0.55541
21
1.02894
0
LINE
8
BLACK
6
CONTINUOUS
10
0.55541
20
1.02894
11
0.55389
21
1.02831
0
LINE
8
BLACK
6
CONTINUOUS
10
0.55389
20
1.02831
11
0.543571
21
1.02831
0
LINE
8
BLACK
6
CONTINUOUS
10
0.543571
20
1.02831
11
0.543109
21
1.0285
0
LINE
8
BLACK
6
CONTINUOUS
10
0.543109
20
1.0285
11
0.542609
21
1.02854
0
LINE
8
BLACK
6
CONTINUOUS
10
0.542609
20
1.02854
11
0.540733
21
1.02947
0
LINE
8
BLACK
6
CONTINUOUS
10
0.540733
20
1.02947
11
0.540287
21
1.02999
0
LINE
8
BLACK
6
CONTINUOUS
10
0.540287
20
1.02999
11
0.539772
21
1.03044
0
LINE
8
BLACK
6
CONTINUOUS
10
0.539772
20
1.03044
11
0.538834
21
1.03231
0
LINE
8
BLACK
6
CONTINUOUS
10
0.538834
20
1.03231
11
0.538798
21
1.03281
0
LINE
8
BLACK
6
CONTINUOUS
10
0.538798
20
1.03281
11
0.538607
21
1.03327
0
LINE
8
BLACK
6
CONTINUOUS
10
0.538607
20
1.03327
11
0.538607
21
1.03609
0
LINE
8
BLACK
6
CONTINUOUS
10
0.538607
20
1.03609
11
0.538798
21
1.03655
0
LINE
8
BLACK
6
CONTINUOUS
10
0.538798
20
1.03655
11
0.538834
21
1.03705
0
LINE
8
BLACK
6
CONTINUOUS
10
0.538834
20
1.03705
11
0.539129
21
1.03764
0
LINE
8
BLACK
6
CONTINUOUS
10
0.539129
20
1.03764
11
0.538607
21
1.0389
0
LINE
8
BLACK
6
CONTINUOUS
10
0.538607
20
1.0389
11
0.539236
21
1.04042
0
LINE
8
BLACK
6
CONTINUOUS
10
0.539236
20
1.04042
11
0.540757
21
1.04105
0
LINE
8
BLACK
6
CONTINUOUS
10
0.540757
20
1.04105
11
0.55389
21
1.04105
0
LINE
8
BLACK
6
CONTINUOUS
10
0.55389
20
1.04105
11
0.55541
21
1.04042
0
LINE
8
BLACK
6
CONTINUOUS
10
0.573199
20
1.05752
11
0.573469
21
1.05756
0
LINE
8
BLACK
6
CONTINUOUS
10
0.573469
20
1.05756
11
0.577221
21
1.05663
0
LINE
8
BLACK
6
CONTINUOUS
10
0.577221
20
1.05663
11
0.577417
21
1.05648
0
LINE
8
BLACK
6
CONTINUOUS
10
0.577417
20
1.05648
11
0.577661
21
1.05646
0
LINE
8
BLACK
6
CONTINUOUS
10
0.577661
20
1.05646
11
0.579537
21
1.05553
0
LINE
8
BLACK
6
CONTINUOUS
10
0.579537
20
1.05553
11
0.579769
21
1.05526
0
LINE
8
BLACK
6
CONTINUOUS
10
0.579769
20
1.05526
11
0.580096
21
1.05512
0
LINE
8
BLACK
6
CONTINUOUS
10
0.580096
20
1.05512
11
0.581972
21
1.05325
0
LINE
8
BLACK
6
CONTINUOUS
10
0.581972
20
1.05325
11
0.582164
21
1.05278
0
LINE
8
BLACK
6
CONTINUOUS
10
0.582164
20
1.05278
11
0.582492
21
1.05241
0
LINE
8
BLACK
6
CONTINUOUS
10
0.582492
20
1.05241
11
0.58343
21
1.04959
0
LINE
8
BLACK
6
CONTINUOUS
10
0.58343
20
1.04959
11
0.583405
21
1.04924
0
LINE
8
BLACK
6
CONTINUOUS
10
0.583405
20
1.04924
11
0.58354
21
1.04891
0
LINE
8
BLACK
6
CONTINUOUS
10
0.58354
20
1.04891
11
0.58354
21
1.04704
0
LINE
8
BLACK
6
CONTINUOUS
10
0.58354
20
1.04704
11
0.583405
21
1.04671
0
LINE
8
BLACK
6
CONTINUOUS
10
0.583405
20
1.04671
11
0.58343
21
1.04636
0
LINE
8
BLACK
6
CONTINUOUS
10
0.58343
20
1.04636
11
0.582492
21
1.04354
0
LINE
8
BLACK
6
CONTINUOUS
10
0.582492
20
1.04354
11
0.582164
21
1.04316
0
LINE
8
BLACK
6
CONTINUOUS
10
0.582164
20
1.04316
11
0.581972
21
1.0427
0
LINE
8
BLACK
6
CONTINUOUS
10
0.581972
20
1.0427
11
0.581034
21
1.04176
0
LINE
8
BLACK
6
CONTINUOUS
10
0.581034
20
1.04176
11
0.579514
21
1.04113
0
LINE
8
BLACK
6
CONTINUOUS
10
0.579514
20
1.04113
11
0.577994
21
1.04176
0
LINE
8
BLACK
6
CONTINUOUS
10
0.577994
20
1.04176
11
0.577364
21
1.04328
0
LINE
8
BLACK
6
CONTINUOUS
10
0.577364
20
1.04328
11
0.577994
21
1.0448
0
LINE
8
BLACK
6
CONTINUOUS
10
0.577994
20
1.0448
11
0.578573
21
1.04538
0
LINE
8
BLACK
6
CONTINUOUS
10
0.578573
20
1.04538
11
0.57924
21
1.04738
0
LINE
8
BLACK
6
CONTINUOUS
10
0.57924
20
1.04738
11
0.57924
21
1.04856
0
LINE
8
BLACK
6
CONTINUOUS
10
0.57924
20
1.04856
11
0.578573
21
1.05056
0
LINE
8
BLACK
6
CONTINUOUS
10
0.578573
20
1.05056
11
0.577302
21
1.05184
0
LINE
8
BLACK
6
CONTINUOUS
10
0.577302
20
1.05184
11
0.575949
21
1.05251
0
LINE
8
BLACK
6
CONTINUOUS
10
0.575949
20
1.05251
11
0.572683
21
1.05333
0
LINE
8
BLACK
6
CONTINUOUS
10
0.572683
20
1.05333
11
0.570398
21
1.05333
0
LINE
8
BLACK
6
CONTINUOUS
10
0.570398
20
1.05333
11
0.567131
21
1.05251
0
LINE
8
BLACK
6
CONTINUOUS
10
0.567131
20
1.05251
11
0.565778
21
1.05184
0
LINE
8
BLACK
6
CONTINUOUS
10
0.565778
20
1.05184
11
0.564507
21
1.05056
0
LINE
8
BLACK
6
CONTINUOUS
10
0.564507
20
1.05056
11
0.56384
21
1.04856
0
LINE
8
BLACK
6
CONTINUOUS
10
0.56384
20
1.04856
11
0.56384
21
1.04738
0
LINE
8
BLACK
6
CONTINUOUS
10
0.56384
20
1.04738
11
0.564507
21
1.04538
0
LINE
8
BLACK
6
CONTINUOUS
10
0.564507
20
1.04538
11
0.565086
21
1.0448
0
LINE
8
BLACK
6
CONTINUOUS
10
0.565086
20
1.0448
11
0.565716
21
1.04328
0
LINE
8
BLACK
6
CONTINUOUS
10
0.565716
20
1.04328
11
0.565086
21
1.04176
0
LINE
8
BLACK
6
CONTINUOUS
10
0.565086
20
1.04176
11
0.563566
21
1.04113
0
LINE
8
BLACK
6
CONTINUOUS
10
0.563566
20
1.04113
11
0.562046
21
1.04176
0
LINE
8
BLACK
6
CONTINUOUS
10
0.562046
20
1.04176
11
0.561108
21
1.0427
0
LINE
8
BLACK
6
CONTINUOUS
10
0.561108
20
1.0427
11
0.560916
21
1.04316
0
LINE
8
BLACK
6
CONTINUOUS
10
0.560916
20
1.04316
11
0.560588
21
1.04354
0
LINE
8
BLACK
6
CONTINUOUS
10
0.560588
20
1.04354
11
0.55965
21
1.04636
0
LINE
8
BLACK
6
CONTINUOUS
10
0.55965
20
1.04636
11
0.559675
21
1.04671
0
LINE
8
BLACK
6
CONTINUOUS
10
0.559675
20
1.04671
11
0.55954
21
1.04704
0
LINE
8
BLACK
6
CONTINUOUS
10
0.55954
20
1.04704
11
0.55954
21
1.04891
0
LINE
8
BLACK
6
CONTINUOUS
10
0.55954
20
1.04891
11
0.559675
21
1.04924
0
LINE
8
BLACK
6
CONTINUOUS
10
0.559675
20
1.04924
11
0.55965
21
1.04959
0
LINE
8
BLACK
6
CONTINUOUS
10
0.55965
20
1.04959
11
0.560588
21
1.05241
0
LINE
8
BLACK
6
CONTINUOUS
10
0.560588
20
1.05241
11
0.560916
21
1.05278
0
LINE
8
BLACK
6
CONTINUOUS
10
0.560916
20
1.05278
11
0.561108
21
1.05325
0
LINE
8
BLACK
6
CONTINUOUS
10
0.561108
20
1.05325
11
0.562984
21
1.05512
0
LINE
8
BLACK
6
CONTINUOUS
10
0.562984
20
1.05512
11
0.563311
21
1.05526
0
LINE
8
BLACK
6
CONTINUOUS
10
0.563311
20
1.05526
11
0.563543
21
1.05553
0
LINE
8
BLACK
6
CONTINUOUS
10
0.563543
20
1.05553
11
0.565419
21
1.05646
0
LINE
8
BLACK
6
CONTINUOUS
10
0.565419
20
1.05646
11
0.565663
21
1.05648
0
LINE
8
BLACK
6
CONTINUOUS
10
0.565663
20
1.05648
11
0.565859
21
1.05663
0
LINE
8
BLACK
6
CONTINUOUS
10
0.565859
20
1.05663
11
0.569611
21
1.05756
0
LINE
8
BLACK
6
CONTINUOUS
10
0.569611
20
1.05756
11
0.569881
21
1.05752
0
LINE
8
BLACK
6
CONTINUOUS
10
0.569881
20
1.05752
11
0.570133
21
1.05763
0
LINE
8
BLACK
6
CONTINUOUS
10
0.570133
20
1.05763
11
0.572947
21
1.05763
0
LINE
8
BLACK
6
CONTINUOUS
10
0.572947
20
1.05763
11
0.573199
21
1.05752
0
LINE
8
BLACK
6
CONTINUOUS
10
0.546637
20
1.06065
11
0.546907
21
1.06069
0
LINE
8
BLACK
6
CONTINUOUS
10
0.546907
20
1.06069
11
0.550659
21
1.05975
0
LINE
8
BLACK
6
CONTINUOUS
10
0.550659
20
1.05975
11
0.550855
21
1.0596
0
LINE
8
BLACK
6
CONTINUOUS
10
0.550855
20
1.0596
11
0.551099
21
1.05959
0
LINE
8
BLACK
6
CONTINUOUS
10
0.551099
20
1.05959
11
0.552975
21
1.05865
0
LINE
8
BLACK
6
CONTINUOUS
10
0.552975
20
1.05865
11
0.553207
21
1.05838
0
LINE
8
BLACK
6
CONTINUOUS
10
0.553207
20
1.05838
11
0.553534
21
1.05825
0
LINE
8
BLACK
6
CONTINUOUS
10
0.553534
20
1.05825
11
0.554472
21
1.05731
0
LINE
8
BLACK
6
CONTINUOUS
10
0.554472
20
1.05731
11
0.554608
21
1.05698
0
LINE
8
BLACK
6
CONTINUOUS
10
0.554608
20
1.05698
11
0.554875
21
1.05675
0
LINE
8
BLACK
6
CONTINUOUS
10
0.554875
20
1.05675
11
0.555813
21
1.05487
0
LINE
8
BLACK
6
CONTINUOUS
10
0.555813
20
1.05487
11
0.555848
21
1.05437
0
LINE
8
BLACK
6
CONTINUOUS
10
0.555848
20
1.05437
11
0.55604
21
1.05391
0
LINE
8
BLACK
6
CONTINUOUS
10
0.55604
20
1.05391
11
0.55604
21
1.05204
0
LINE
8
BLACK
6
CONTINUOUS
10
0.55604
20
1.05204
11
0.555848
21
1.05157
0
LINE
8
BLACK
6
CONTINUOUS
10
0.555848
20
1.05157
11
0.555813
21
1.05107
0
LINE
8
BLACK
6
CONTINUOUS
10
0.555813
20
1.05107
11
0.554875
21
1.0492
0
LINE
8
BLACK
6
CONTINUOUS
10
0.554875
20
1.0492
11
0.554608
21
1.04897
0
LINE
8
BLACK
6
CONTINUOUS
10
0.554608
20
1.04897
11
0.554472
21
1.04864
0
LINE
8
BLACK
6
CONTINUOUS
10
0.554472
20
1.04864
11
0.553534
21
1.0477
0
LINE
8
BLACK
6
CONTINUOUS
10
0.553534
20
1.0477
11
0.553207
21
1.04757
0
LINE
8
BLACK
6
CONTINUOUS
10
0.553207
20
1.04757
11
0.552975
21
1.0473
0
LINE
8
BLACK
6
CONTINUOUS
10
0.552975
20
1.0473
11
0.551099
21
1.04636
0
LINE
8
BLACK
6
CONTINUOUS
10
0.551099
20
1.04636
11
0.550855
21
1.04634
0
LINE
8
BLACK
6
CONTINUOUS
10
0.550855
20
1.04634
11
0.550659
21
1.0462
0
LINE
8
BLACK
6
CONTINUOUS
10
0.550659
20
1.0462
11
0.546907
21
1.04526
0
LINE
8
BLACK
6
CONTINUOUS
10
0.546907
20
1.04526
11
0.546637
21
1.0453
0
LINE
8
BLACK
6
CONTINUOUS
10
0.546637
20
1.0453
11
0.546385
21
1.0452
0
LINE
8
BLACK
6
CONTINUOUS
10
0.546385
20
1.0452
11
0.541695
21
1.0452
0
LINE
8
BLACK
6
CONTINUOUS
10
0.541695
20
1.0452
11
0.541443
21
1.0453
0
LINE
8
BLACK
6
CONTINUOUS
10
0.541443
20
1.0453
11
0.541173
21
1.04526
0
LINE
8
BLACK
6
CONTINUOUS
10
0.541173
20
1.04526
11
0.537421
21
1.0462
0
LINE
8
BLACK
6
CONTINUOUS
10
0.537421
20
1.0462
11
0.537225
21
1.04634
0
LINE
8
BLACK
6
CONTINUOUS
10
0.537225
20
1.04634
11
0.536981
21
1.04636
0
LINE
8
BLACK
6
CONTINUOUS
10
0.536981
20
1.04636
11
0.535105
21
1.0473
0
LINE
8
BLACK
6
CONTINUOUS
10
0.535105
20
1.0473
11
0.534873
21
1.04757
0
LINE
8
BLACK
6
CONTINUOUS
10
0.534873
20
1.04757
11
0.534546
21
1.0477
0
LINE
8
BLACK
6
CONTINUOUS
10
0.534546
20
1.0477
11
0.533608
21
1.04864
0
LINE
8
BLACK
6
CONTINUOUS
10
0.533608
20
1.04864
11
0.533472
21
1.04897
0
LINE
8
BLACK
6
CONTINUOUS
10
0.533472
20
1.04897
11
0.533205
21
1.0492
0
LINE
8
BLACK
6
CONTINUOUS
10
0.533205
20
1.0492
11
0.532267
21
1.05107
0
LINE
8
BLACK
6
CONTINUOUS
10
0.532267
20
1.05107
11
0.532231
21
1.05157
0
LINE
8
BLACK
6
CONTINUOUS
10
0.532231
20
1.05157
11
0.53204
21
1.05204
0
LINE
8
BLACK
6
CONTINUOUS
10
0.53204
20
1.05204
11
0.53204
21
1.05391
0
LINE
8
BLACK
6
CONTINUOUS
10
0.53204
20
1.05391
11
0.532231
21
1.05437
0
LINE
8
BLACK
6
CONTINUOUS
10
0.532231
20
1.05437
11
0.532267
21
1.05487
0
LINE
8
BLACK
6
CONTINUOUS
10
0.532267
20
1.05487
11
0.533205
21
1.05675
0
LINE
8
BLACK
6
CONTINUOUS
10
0.533205
20
1.05675
11
0.533472
21
1.05698
0
LINE
8
BLACK
6
CONTINUOUS
10
0.533472
20
1.05698
11
0.533608
21
1.05731
0
LINE
8
BLACK
6
CONTINUOUS
10
0.533608
20
1.05731
11
0.534546
21
1.05825
0
LINE
8
BLACK
6
CONTINUOUS
10
0.534546
20
1.05825
11
0.534873
21
1.05838
0
LINE
8
BLACK
6
CONTINUOUS
10
0.534873
20
1.05838
11
0.535105
21
1.05865
0
LINE
8
BLACK
6
CONTINUOUS
10
0.535105
20
1.05865
11
0.536981
21
1.05959
0
LINE
8
BLACK
6
CONTINUOUS
10
0.536981
20
1.05959
11
0.537225
21
1.0596
0
LINE
8
BLACK
6
CONTINUOUS
10
0.537225
20
1.0596
11
0.537421
21
1.05975
0
LINE
8
BLACK
6
CONTINUOUS
10
0.537421
20
1.05975
11
0.541173
21
1.06069
0
LINE
8
BLACK
6
CONTINUOUS
10
0.541173
20
1.06069
11
0.541443
21
1.06065
0
LINE
8
BLACK
6
CONTINUOUS
10
0.541443
20
1.06065
11
0.541695
21
1.06075
0
LINE
8
BLACK
6
CONTINUOUS
10
0.541695
20
1.06075
11
0.546385
21
1.06075
0
LINE
8
BLACK
6
CONTINUOUS
10
0.546385
20
1.06075
11
0.546637
21
1.06065
0
LINE
8
BLACK
6
CONTINUOUS
10
0.538693
20
1.05564
11
0.53734
21
1.05496
0
LINE
8
BLACK
6
CONTINUOUS
10
0.53734
20
1.05496
11
0.536895
21
1.05451
0
LINE
8
BLACK
6
CONTINUOUS
10
0.536895
20
1.05451
11
0.53634
21
1.0534
0
LINE
8
BLACK
6
CONTINUOUS
10
0.53634
20
1.0534
11
0.53634
21
1.05254
0
LINE
8
BLACK
6
CONTINUOUS
10
0.53634
20
1.05254
11
0.536895
21
1.05143
0
LINE
8
BLACK
6
CONTINUOUS
10
0.536895
20
1.05143
11
0.53734
21
1.05099
0
LINE
8
BLACK
6
CONTINUOUS
10
0.53734
20
1.05099
11
0.538693
21
1.05031
0
LINE
8
BLACK
6
CONTINUOUS
10
0.538693
20
1.05031
11
0.541959
21
1.0495
0
LINE
8
BLACK
6
CONTINUOUS
10
0.541959
20
1.0495
11
0.54612
21
1.0495
0
LINE
8
BLACK
6
CONTINUOUS
10
0.54612
20
1.0495
11
0.549387
21
1.05031
0
LINE
8
BLACK
6
CONTINUOUS
10
0.549387
20
1.05031
11
0.55074
21
1.05099
0
LINE
8
BLACK
6
CONTINUOUS
10
0.55074
20
1.05099
11
0.551185
21
1.05143
0
LINE
8
BLACK
6
CONTINUOUS
10
0.551185
20
1.05143
11
0.55174
21
1.05254
0
LINE
8
BLACK
6
CONTINUOUS
10
0.55174
20
1.05254
11
0.55174
21
1.0534
0
LINE
8
BLACK
6
CONTINUOUS
10
0.55174
20
1.0534
11
0.551185
21
1.05451
0
LINE
8
BLACK
6
CONTINUOUS
10
0.551185
20
1.05451
11
0.55074
21
1.05496
0
LINE
8
BLACK
6
CONTINUOUS
10
0.55074
20
1.05496
11
0.549387
21
1.05564
0
LINE
8
BLACK
6
CONTINUOUS
10
0.549387
20
1.05564
11
0.546121
21
1.05645
0
LINE
8
BLACK
6
CONTINUOUS
10
0.546121
20
1.05645
11
0.541959
21
1.05645
0
LINE
8
BLACK
6
CONTINUOUS
10
0.541959
20
1.05645
11
0.538693
21
1.05564
0
LINE
8
BLACK
6
CONTINUOUS
10
0.590384
20
1.10289
11
0.590513
21
1.10291
0
LINE
8
BLACK
6
CONTINUOUS
10
0.590513
20
1.10291
11
0.590626
21
1.10284
0
LINE
8
BLACK
6
CONTINUOUS
10
0.590626
20
1.10284
11
0.59101
21
1.10277
0
LINE
8
BLACK
6
CONTINUOUS
10
0.59101
20
1.10277
11
0.591598
21
1.10228
0
LINE
8
BLACK
6
CONTINUOUS
10
0.591598
20
1.10228
11
0.592262
21
1.1019
0
LINE
8
BLACK
6
CONTINUOUS
10
0.592262
20
1.1019
11
0.592353
21
1.10165
0
LINE
8
BLACK
6
CONTINUOUS
10
0.592353
20
1.10165
11
0.592557
21
1.10148
0
LINE
8
BLACK
6
CONTINUOUS
10
0.592557
20
1.10148
11
0.59269
21
1.10072
0
LINE
8
BLACK
6
CONTINUOUS
10
0.59269
20
1.10072
11
0.592953
21
1.1
0
LINE
8
BLACK
6
CONTINUOUS
10
0.592953
20
1.1
11
0.592953
21
1.06
0
LINE
8
BLACK
6
CONTINUOUS
10
0.592953
20
1.06
11
0.592775
21
1.05899
0
LINE
8
BLACK
6
CONTINUOUS
10
0.592775
20
1.05899
11
0.591476
21
1.05744
0
LINE
8
BLACK
6
CONTINUOUS
10
0.591476
20
1.05744
11
0.589487
21
1.05709
0
LINE
8
BLACK
6
CONTINUOUS
10
0.589487
20
1.05709
11
0.587738
21
1.0581
0
LINE
8
BLACK
6
CONTINUOUS
10
0.587738
20
1.0581
11
0.587047
21
1.06
0
LINE
8
BLACK
6
CONTINUOUS
10
0.587047
20
1.06
11
0.587047
21
1.09705
0
LINE
8
BLACK
6
CONTINUOUS
10
0.587047
20
1.09705
11
0.532953
21
1.09705
0
LINE
8
BLACK
6
CONTINUOUS
10
0.532953
20
1.09705
11
0.532953
21
1.07346
0
LINE
8
BLACK
6
CONTINUOUS
10
0.532953
20
1.07346
11
0.532997
21
1.07352
0
LINE
8
BLACK
6
CONTINUOUS
10
0.532997
20
1.07352
11
0.535635
21
1.07528
0
LINE
8
BLACK
6
CONTINUOUS
10
0.535635
20
1.07528
11
0.537113
21
1.07676
0
LINE
8
BLACK
6
CONTINUOUS
10
0.537113
20
1.07676
11
0.537896
21
1.07833
0
LINE
8
BLACK
6
CONTINUOUS
10
0.537896
20
1.07833
11
0.539139
21
1.0794
0
LINE
8
BLACK
6
CONTINUOUS
10
0.539139
20
1.0794
11
0.54078
21
1.07929
0
LINE
8
BLACK
6
CONTINUOUS
10
0.54078
20
1.07929
11
0.541858
21
1.07804
0
LINE
8
BLACK
6
CONTINUOUS
10
0.541858
20
1.07804
11
0.541742
21
1.0764
0
LINE
8
BLACK
6
CONTINUOUS
10
0.541742
20
1.0764
11
0.540803
21
1.07453
0
LINE
8
BLACK
6
CONTINUOUS
10
0.540803
20
1.07453
11
0.540536
21
1.07429
0
LINE
8
BLACK
6
CONTINUOUS
10
0.540536
20
1.07429
11
0.540401
21
1.07397
0
LINE
8
BLACK
6
CONTINUOUS
10
0.540401
20
1.07397
11
0.540319
21
1.07389
0
LINE
8
BLACK
6
CONTINUOUS
10
0.540319
20
1.07389
11
0.55174
21
1.07389
0
LINE
8
BLACK
6
CONTINUOUS
10
0.55174
20
1.07389
11
0.55174
21
1.07736
0
LINE
8
BLACK
6
CONTINUOUS
10
0.55174
20
1.07736
11
0.55237
21
1.07888
0
LINE
8
BLACK
6
CONTINUOUS
10
0.55237
20
1.07888
11
0.55389
21
1.07951
0
LINE
8
BLACK
6
CONTINUOUS
10
0.55389
20
1.07951
11
0.55541
21
1.07888
0
LINE
8
BLACK
6
CONTINUOUS
10
0.55541
20
1.07888
11
0.55604
21
1.07736
0
LINE
8
BLACK
6
CONTINUOUS
10
0.55604
20
1.07736
11
0.55604
21
1.06611
0
LINE
8
BLACK
6
CONTINUOUS
10
0.55604
20
1.06611
11
0.55541
21
1.06459
0
LINE
8
BLACK
6
CONTINUOUS
10
0.55541
20
1.06459
11
0.55389
21
1.06396
0
LINE
8
BLACK
6
CONTINUOUS
10
0.55389
20
1.06396
11
0.55237
21
1.06459
0
LINE
8
BLACK
6
CONTINUOUS
10
0.55237
20
1.06459
11
0.55174
21
1.06611
0
LINE
8
BLACK
6
CONTINUOUS
10
0.55174
20
1.06611
11
0.55174
21
1.06959
0
LINE
8
BLACK
6
CONTINUOUS
10
0.55174
20
1.06959
11
0.53419
21
1.06959
0
LINE
8
BLACK
6
CONTINUOUS
10
0.53419
20
1.06959
11
0.533985
21
1.06967
0
LINE
8
BLACK
6
CONTINUOUS
10
0.533985
20
1.06967
11
0.533768
21
1.06963
0
LINE
8
BLACK
6
CONTINUOUS
10
0.533768
20
1.06963
11
0.533248
21
1.06998
0
LINE
8
BLACK
6
CONTINUOUS
10
0.533248
20
1.06998
11
0.532953
21
1.0701
0
LINE
8
BLACK
6
CONTINUOUS
10
0.532953
20
1.0701
11
0.532953
21
1.06
0
LINE
8
BLACK
6
CONTINUOUS
10
0.532953
20
1.06
11
0.532775
21
1.05899
0
LINE
8
BLACK
6
CONTINUOUS
10
0.532775
20
1.05899
11
0.531476
21
1.05744
0
LINE
8
BLACK
6
CONTINUOUS
10
0.531476
20
1.05744
11
0.529487
21
1.05709
0
LINE
8
BLACK
6
CONTINUOUS
10
0.529487
20
1.05709
11
0.527738
21
1.0581
0
LINE
8
BLACK
6
CONTINUOUS
10
0.527738
20
1.0581
11
0.527047
21
1.06
0
LINE
8
BLACK
6
CONTINUOUS
10
0.527047
20
1.06
11
0.527047
21
1.1
0
LINE
8
BLACK
6
CONTINUOUS
10
0.527047
20
1.1
11
0.527115
21
1.10038
0
LINE
8
BLACK
6
CONTINUOUS
10
0.527115
20
1.10038
11
0.527092
21
1.10051
0
LINE
8
BLACK
6
CONTINUOUS
10
0.527092
20
1.10051
11
0.527158
21
1.10063
0
LINE
8
BLACK
6
CONTINUOUS
10
0.527158
20
1.10063
11
0.527225
21
1.10101
0
LINE
8
BLACK
6
CONTINUOUS
10
0.527225
20
1.10101
11
0.527718
21
1.1016
0
LINE
8
BLACK
6
CONTINUOUS
10
0.527718
20
1.1016
11
0.528102
21
1.10226
0
LINE
8
BLACK
6
CONTINUOUS
10
0.528102
20
1.10226
11
0.528352
21
1.10235
0
LINE
8
BLACK
6
CONTINUOUS
10
0.528352
20
1.10235
11
0.528524
21
1.10256
0
LINE
8
BLACK
6
CONTINUOUS
10
0.528524
20
1.10256
11
0.529279
21
1.10269
0
LINE
8
BLACK
6
CONTINUOUS
10
0.529279
20
1.10269
11
0.53
21
1.10295
0
LINE
8
BLACK
6
CONTINUOUS
10
0.53
20
1.10295
11
0.59
21
1.10295
0
LINE
8
BLACK
6
CONTINUOUS
10
0.59
20
1.10295
11
0.590384
21
1.10289
0
CIRCLE
8
BLACK
10
0.09
20
0.68
40
0.00688976
0
CIRCLE
8
BLACK
10
0.19
20
0.68
40
0.00688976
0
CIRCLE
8
BLACK
10
0.09
20
0.58
40
0.00688976
0
CIRCLE
8
BLACK
10
0.19
20
0.58
40
0.00688976
0
CIRCLE
8
BLACK
10
0.09
20
0.48
40
0.00688976
0
CIRCLE
8
BLACK
10
0.19
20
0.48
40
0.00688976
0
CIRCLE
8
BLACK
10
0.09
20
1.14
40
0.00688976
0
CIRCLE
8
BLACK
10
0.19
20
1.14
40
0.00688976
0
CIRCLE
8
BLACK
10
0.09
20
1.04
40
0.00688976
0
CIRCLE
8
BLACK
10
0.19
20
1.04
40
0.00688976
0
CIRCLE
8
BLACK
10
0.09
20
0.94
40
0.00688976
0
CIRCLE
8
BLACK
10
0.19
20
0.94
40
0.00688976
0
CIRCLE
8
BLACK
10
0.2
20
0.2
40
0.00688976
0
CIRCLE
8
BLACK
10
0.2
20
1.4
40
0.00688976
0
CIRCLE
8
BLACK
10
0.6
20
0.2
40
0.00688976
0
CIRCLE
8
BLACK
10
0.6
20
1.4
40
0.00688976
0
CIRCLE
8
BLACK
10
0.67
20
0.52
40
0.00688976
0
CIRCLE
8
BLACK
10
0.67
20
1.12
40
0.00688976
0
CIRCLE
8
BLACK
10
0.37
20
1.12
40
0.00688976
0
CIRCLE
8
BLACK
10
0.37
20
0.52
40
0.00688976
0
CIRCLE
8
BLACK
10
0.09
20
0.84
40
0.00688976
0
CIRCLE
8
BLACK
10
0.19
20
0.84
40
0.00688976
  0
ENDSEC
  0
EOF
