  0
SECTION
  2
HEADER
  9
$ANGBASE
  50
0.0
  9
$ANGDIR
  70
1
  9
$MEASUREMENT
  70
0
  0
ENDSEC
  0
SECTION
  2
TABLES
  0
TABLE
  2
LTYPE
  70
4
  0
LTYPE
  5
40F
  2
CONTINUOUS
  70
0
  3
Solid line
  72
65
  73
0
  40
0.0
  0
LTYPE
  5
410
  2
DASHDOT
 70
0
  3
Dash Dot ____ _ ____ _
 72
65
 73
4
 40
2.0
 49
1.25
 49
-0.25
 49
0.25
 49
-0.25
  0
LTYPE
  5
411
  2
DASHED
 70
0
  3
Dashed __ __ __ __ __
 72
65
 73
2
 40
0.75
 49
0.5
 49
-0.25
  0
LTYPE
  5
43B
  2
DOTTED
 70
0
  3
Dotted .  .  .  .
 72
65
 73
2
 40
0.2
 49
0.0
 49
-0.2
  0
ENDTAB
  0
TABLE
  2
STYLE
  70
4
  0
STYLE
  2
KICAD
  70
0
  40
0
  41
1
  42
1
  50
0
  71
0
  3
isocp.shx
  0
STYLE
  2
KICADB
  70
0
  40
0
  41
1
  42
1
  50
0
  71
0
  3
isocp.shx
  0
STYLE
  2
KICADI
  70
0
  40
0
  41
1
  42
1
  50
15
  71
0
  3
isocp.shx
  0
STYLE
  2
KICADBI
  70
0
  40
0
  41
1
  42
1
  50
15
  71
0
  3
isocp.shx
  0
ENDTAB
  0
TABLE
  2
LAYER
  70
1
  0
LAYER
  2
BLACK
  70
0
  62
7
  6
CONTINUOUS
  0
ENDTAB
  0
ENDSEC
  0
SECTION
  2
ENTITIES
0
LINE
8
BLACK
6
CONTINUOUS
10
0.610197
20
0.80622
11
0.643465
21
0.80622
0
LINE
8
BLACK
6
CONTINUOUS
10
0.643465
20
0.80622
11
0.643465
21
0.797362
0
LINE
8
BLACK
6
CONTINUOUS
10
0.643465
20
0.797362
11
0.648583
21
0.797362
0
LINE
8
BLACK
6
CONTINUOUS
10
0.648583
20
0.797362
11
0.670236
21
0.797362
0
LINE
8
BLACK
6
CONTINUOUS
10
0.670236
20
0.797362
11
0.670236
21
0.776693
0
LINE
8
BLACK
6
CONTINUOUS
10
0.670236
20
0.776693
11
0.707244
21
0.776693
0
LINE
8
BLACK
6
CONTINUOUS
10
0.707244
20
0.776693
11
0.707244
21
0.717638
0
LINE
8
BLACK
6
CONTINUOUS
10
0.707244
20
0.717638
11
0.695433
21
0.717638
0
LINE
8
BLACK
6
CONTINUOUS
10
0.695433
20
0.717638
11
0.695433
21
0.697953
0
LINE
8
BLACK
6
CONTINUOUS
10
0.695433
20
0.697953
11
0.677717
21
0.697953
0
LINE
8
BLACK
6
CONTINUOUS
10
0.677717
20
0.697953
11
0.677717
21
0.588318
0
LINE
8
BLACK
6
CONTINUOUS
10
0.677717
20
0.588318
11
0.685331
21
0.58717
0
LINE
8
BLACK
6
CONTINUOUS
10
0.685331
20
0.58717
11
0.695171
21
0.584135
0
LINE
8
BLACK
6
CONTINUOUS
10
0.695171
20
0.584135
11
0.704449
21
0.579667
0
LINE
8
BLACK
6
CONTINUOUS
10
0.704449
20
0.579667
11
0.712957
21
0.573866
0
LINE
8
BLACK
6
CONTINUOUS
10
0.712957
20
0.573866
11
0.720506
21
0.566862
0
LINE
8
BLACK
6
CONTINUOUS
10
0.720506
20
0.566862
11
0.726926
21
0.558811
0
LINE
8
BLACK
6
CONTINUOUS
10
0.726926
20
0.558811
11
0.732075
21
0.549894
0
LINE
8
BLACK
6
CONTINUOUS
10
0.732075
20
0.549894
11
0.735837
21
0.540308
0
LINE
8
BLACK
6
CONTINUOUS
10
0.735837
20
0.540308
11
0.738128
21
0.530269
0
LINE
8
BLACK
6
CONTINUOUS
10
0.738128
20
0.530269
11
0.738898
21
0.52
0
LINE
8
BLACK
6
CONTINUOUS
10
0.738898
20
0.52
11
0.738128
21
0.509731
0
LINE
8
BLACK
6
CONTINUOUS
10
0.738128
20
0.509731
11
0.735837
21
0.499692
0
LINE
8
BLACK
6
CONTINUOUS
10
0.735837
20
0.499692
11
0.732075
21
0.490106
0
LINE
8
BLACK
6
CONTINUOUS
10
0.732075
20
0.490106
11
0.726926
21
0.481189
0
LINE
8
BLACK
6
CONTINUOUS
10
0.726926
20
0.481189
11
0.720506
21
0.473138
0
LINE
8
BLACK
6
CONTINUOUS
10
0.720506
20
0.473138
11
0.712957
21
0.466134
0
LINE
8
BLACK
6
CONTINUOUS
10
0.712957
20
0.466134
11
0.704449
21
0.460333
0
LINE
8
BLACK
6
CONTINUOUS
10
0.704449
20
0.460333
11
0.695171
21
0.455865
0
LINE
8
BLACK
6
CONTINUOUS
10
0.695171
20
0.455865
11
0.685331
21
0.45283
0
LINE
8
BLACK
6
CONTINUOUS
10
0.685331
20
0.45283
11
0.675149
21
0.451295
0
LINE
8
BLACK
6
CONTINUOUS
10
0.675149
20
0.451295
11
0.664851
21
0.451295
0
LINE
8
BLACK
6
CONTINUOUS
10
0.664851
20
0.451295
11
0.654669
21
0.45283
0
LINE
8
BLACK
6
CONTINUOUS
10
0.654669
20
0.45283
11
0.644829
21
0.455865
0
LINE
8
BLACK
6
CONTINUOUS
10
0.644829
20
0.455865
11
0.635551
21
0.460333
0
LINE
8
BLACK
6
CONTINUOUS
10
0.635551
20
0.460333
11
0.627043
21
0.466134
0
LINE
8
BLACK
6
CONTINUOUS
10
0.627043
20
0.466134
11
0.619494
21
0.473138
0
LINE
8
BLACK
6
CONTINUOUS
10
0.619494
20
0.473138
11
0.613074
21
0.481189
0
LINE
8
BLACK
6
CONTINUOUS
10
0.613074
20
0.481189
11
0.607925
21
0.490106
0
LINE
8
BLACK
6
CONTINUOUS
10
0.607925
20
0.490106
11
0.604163
21
0.499692
0
LINE
8
BLACK
6
CONTINUOUS
10
0.604163
20
0.499692
11
0.601872
21
0.509731
0
LINE
8
BLACK
6
CONTINUOUS
10
0.601872
20
0.509731
11
0.601102
21
0.52
0
LINE
8
BLACK
6
CONTINUOUS
10
0.601102
20
0.52
11
0.601872
21
0.530269
0
LINE
8
BLACK
6
CONTINUOUS
10
0.601872
20
0.530269
11
0.604163
21
0.540308
0
LINE
8
BLACK
6
CONTINUOUS
10
0.604163
20
0.540308
11
0.607925
21
0.549894
0
LINE
8
BLACK
6
CONTINUOUS
10
0.607925
20
0.549894
11
0.613074
21
0.558811
0
LINE
8
BLACK
6
CONTINUOUS
10
0.613074
20
0.558811
11
0.619494
21
0.566862
0
LINE
8
BLACK
6
CONTINUOUS
10
0.619494
20
0.566862
11
0.627043
21
0.573866
0
LINE
8
BLACK
6
CONTINUOUS
10
0.627043
20
0.573866
11
0.635551
21
0.579667
0
LINE
8
BLACK
6
CONTINUOUS
10
0.635551
20
0.579667
11
0.642283
21
0.582909
0
LINE
8
BLACK
6
CONTINUOUS
10
0.642283
20
0.582909
11
0.642283
21
0.697953
0
LINE
8
BLACK
6
CONTINUOUS
10
0.642283
20
0.697953
11
0.624567
21
0.697953
0
LINE
8
BLACK
6
CONTINUOUS
10
0.624567
20
0.697953
11
0.624567
21
0.699512
0
LINE
8
BLACK
6
CONTINUOUS
10
0.624567
20
0.699512
11
0.592527
21
0.667473
0
LINE
8
BLACK
6
CONTINUOUS
10
0.592527
20
0.667473
11
0.59052
21
0.665745
0
LINE
8
BLACK
6
CONTINUOUS
10
0.59052
20
0.665745
11
0.585851
21
0.663278
0
LINE
8
BLACK
6
CONTINUOUS
10
0.585851
20
0.663278
11
0.580662
21
0.662296
0
LINE
8
BLACK
6
CONTINUOUS
10
0.580662
20
0.662296
11
0.575415
21
0.662887
0
LINE
8
BLACK
6
CONTINUOUS
10
0.575415
20
0.662887
11
0.570574
21
0.664999
0
LINE
8
BLACK
6
CONTINUOUS
10
0.570574
20
0.664999
11
0.566571
21
0.668444
0
LINE
8
BLACK
6
CONTINUOUS
10
0.566571
20
0.668444
11
0.563762
21
0.672915
0
LINE
8
BLACK
6
CONTINUOUS
10
0.563762
20
0.672915
11
0.562395
21
0.678016
0
LINE
8
BLACK
6
CONTINUOUS
10
0.562395
20
0.678016
11
0.562592
21
0.683294
0
LINE
8
BLACK
6
CONTINUOUS
10
0.562592
20
0.683294
11
0.564337
21
0.688278
0
LINE
8
BLACK
6
CONTINUOUS
10
0.564337
20
0.688278
11
0.567473
21
0.692527
0
LINE
8
BLACK
6
CONTINUOUS
10
0.567473
20
0.692527
11
0.612756
21
0.737811
0
LINE
8
BLACK
6
CONTINUOUS
10
0.612756
20
0.737811
11
0.612756
21
0.744213
0
LINE
8
BLACK
6
CONTINUOUS
10
0.612756
20
0.744213
11
0.607244
21
0.744213
0
LINE
8
BLACK
6
CONTINUOUS
10
0.607244
20
0.744213
11
0.585591
21
0.744213
0
LINE
8
BLACK
6
CONTINUOUS
10
0.585591
20
0.744213
11
0.585591
21
0.747165
0
LINE
8
BLACK
6
CONTINUOUS
10
0.585591
20
0.747165
11
0.576535
21
0.747165
0
LINE
8
BLACK
6
CONTINUOUS
10
0.576535
20
0.747165
11
0.576535
21
0.779646
0
LINE
8
BLACK
6
CONTINUOUS
10
0.576535
20
0.779646
11
0.574764
21
0.779646
0
LINE
8
BLACK
6
CONTINUOUS
10
0.574764
20
0.779646
11
0.574764
21
0.811142
0
LINE
8
BLACK
6
CONTINUOUS
10
0.574764
20
0.811142
11
0.610197
21
0.811142
0
LINE
8
BLACK
6
CONTINUOUS
10
0.610197
20
0.811142
11
0.610197
21
0.80622
0
LINE
8
BLACK
6
CONTINUOUS
10
0.66
20
1.00144
11
0.660217
21
1
0
LINE
8
BLACK
6
CONTINUOUS
10
0.660217
20
1
11
0.660217
21
0.942047
0
LINE
8
BLACK
6
CONTINUOUS
10
0.660217
20
0.942047
11
0.695433
21
0.942047
0
LINE
8
BLACK
6
CONTINUOUS
10
0.695433
20
0.942047
11
0.695433
21
0.922362
0
LINE
8
BLACK
6
CONTINUOUS
10
0.695433
20
0.922362
11
0.707244
21
0.922362
0
LINE
8
BLACK
6
CONTINUOUS
10
0.707244
20
0.922362
11
0.707244
21
0.870646
0
LINE
8
BLACK
6
CONTINUOUS
10
0.707244
20
0.870646
11
0.712527
21
0.865362
0
LINE
8
BLACK
6
CONTINUOUS
10
0.712527
20
0.865362
11
0.714255
21
0.863355
0
LINE
8
BLACK
6
CONTINUOUS
10
0.714255
20
0.863355
11
0.714411
21
0.86306
0
LINE
8
BLACK
6
CONTINUOUS
10
0.714411
20
0.86306
11
0.714638
21
0.862815
0
LINE
8
BLACK
6
CONTINUOUS
10
0.714638
20
0.862815
11
0.715641
21
0.860731
0
LINE
8
BLACK
6
CONTINUOUS
10
0.715641
20
0.860731
11
0.716722
21
0.858686
0
LINE
8
BLACK
6
CONTINUOUS
10
0.716722
20
0.858686
11
0.716784
21
0.858358
0
LINE
8
BLACK
6
CONTINUOUS
10
0.716784
20
0.858358
11
0.716929
21
0.858057
0
LINE
8
BLACK
6
CONTINUOUS
10
0.716929
20
0.858057
11
0.717274
21
0.855769
0
LINE
8
BLACK
6
CONTINUOUS
10
0.717274
20
0.855769
11
0.717704
21
0.853497
0
LINE
8
BLACK
6
CONTINUOUS
10
0.717704
20
0.853497
11
0.717667
21
0.853165
0
LINE
8
BLACK
6
CONTINUOUS
10
0.717667
20
0.853165
11
0.717717
21
0.852835
0
LINE
8
BLACK
6
CONTINUOUS
10
0.717717
20
0.852835
11
0.717717
21
0.82
0
LINE
8
BLACK
6
CONTINUOUS
10
0.717717
20
0.82
11
0.717519
21
0.817359
0
LINE
8
BLACK
6
CONTINUOUS
10
0.717519
20
0.817359
11
0.715962
21
0.812313
0
LINE
8
BLACK
6
CONTINUOUS
10
0.715962
20
0.812313
11
0.712987
21
0.80795
0
LINE
8
BLACK
6
CONTINUOUS
10
0.712987
20
0.80795
11
0.708858
21
0.804657
0
LINE
8
BLACK
6
CONTINUOUS
10
0.708858
20
0.804657
11
0.703942
21
0.802728
0
LINE
8
BLACK
6
CONTINUOUS
10
0.703942
20
0.802728
11
0.698676
21
0.802333
0
LINE
8
BLACK
6
CONTINUOUS
10
0.698676
20
0.802333
11
0.693527
21
0.803508
0
LINE
8
BLACK
6
CONTINUOUS
10
0.693527
20
0.803508
11
0.688954
21
0.806149
0
LINE
8
BLACK
6
CONTINUOUS
10
0.688954
20
0.806149
11
0.685362
21
0.81002
0
LINE
8
BLACK
6
CONTINUOUS
10
0.685362
20
0.81002
11
0.683071
21
0.814778
0
LINE
8
BLACK
6
CONTINUOUS
10
0.683071
20
0.814778
11
0.682283
21
0.82
0
LINE
8
BLACK
6
CONTINUOUS
10
0.682283
20
0.82
11
0.682283
21
0.845496
0
LINE
8
BLACK
6
CONTINUOUS
10
0.682283
20
0.845496
11
0.670236
21
0.857543
0
LINE
8
BLACK
6
CONTINUOUS
10
0.670236
20
0.857543
11
0.670236
21
0.842638
0
LINE
8
BLACK
6
CONTINUOUS
10
0.670236
20
0.842638
11
0.643465
21
0.842638
0
LINE
8
BLACK
6
CONTINUOUS
10
0.643465
20
0.842638
11
0.643465
21
0.83378
0
LINE
8
BLACK
6
CONTINUOUS
10
0.643465
20
0.83378
11
0.63874
21
0.83378
0
LINE
8
BLACK
6
CONTINUOUS
10
0.63874
20
0.83378
11
0.610197
21
0.83378
0
LINE
8
BLACK
6
CONTINUOUS
10
0.610197
20
0.83378
11
0.610197
21
0.828858
0
LINE
8
BLACK
6
CONTINUOUS
10
0.610197
20
0.828858
11
0.574764
21
0.828858
0
LINE
8
BLACK
6
CONTINUOUS
10
0.574764
20
0.828858
11
0.574764
21
0.860354
0
LINE
8
BLACK
6
CONTINUOUS
10
0.574764
20
0.860354
11
0.576535
21
0.860354
0
LINE
8
BLACK
6
CONTINUOUS
10
0.576535
20
0.860354
11
0.576535
21
0.892835
0
LINE
8
BLACK
6
CONTINUOUS
10
0.576535
20
0.892835
11
0.585591
21
0.892835
0
LINE
8
BLACK
6
CONTINUOUS
10
0.585591
20
0.892835
11
0.585591
21
0.895787
0
LINE
8
BLACK
6
CONTINUOUS
10
0.585591
20
0.895787
11
0.612756
21
0.895787
0
LINE
8
BLACK
6
CONTINUOUS
10
0.612756
20
0.895787
11
0.612756
21
0.922362
0
LINE
8
BLACK
6
CONTINUOUS
10
0.612756
20
0.922362
11
0.624567
21
0.922362
0
LINE
8
BLACK
6
CONTINUOUS
10
0.624567
20
0.922362
11
0.624567
21
0.942047
0
LINE
8
BLACK
6
CONTINUOUS
10
0.624567
20
0.942047
11
0.624783
21
0.942047
0
LINE
8
BLACK
6
CONTINUOUS
10
0.624783
20
0.942047
11
0.624783
21
0.982283
0
LINE
8
BLACK
6
CONTINUOUS
10
0.624783
20
0.982283
11
0.5625
21
0.982283
0
LINE
8
BLACK
6
CONTINUOUS
10
0.5625
20
0.982283
11
0.559859
21
0.982481
0
LINE
8
BLACK
6
CONTINUOUS
10
0.559859
20
0.982481
11
0.55954
21
0.98258
0
LINE
8
BLACK
6
CONTINUOUS
10
0.55954
20
0.98258
11
0.559206
21
0.982592
0
LINE
8
BLACK
6
CONTINUOUS
10
0.559206
20
0.982592
11
0.557023
21
0.983356
0
LINE
8
BLACK
6
CONTINUOUS
10
0.557023
20
0.983356
11
0.554813
21
0.984038
0
LINE
8
BLACK
6
CONTINUOUS
10
0.554813
20
0.984038
11
0.554537
21
0.984226
0
LINE
8
BLACK
6
CONTINUOUS
10
0.554537
20
0.984226
11
0.554222
21
0.984336
0
LINE
8
BLACK
6
CONTINUOUS
10
0.554222
20
0.984336
11
0.553323
21
0.985
0
LINE
8
BLACK
6
CONTINUOUS
10
0.553323
20
0.985
11
0.5325
21
0.985
0
LINE
8
BLACK
6
CONTINUOUS
10
0.5325
20
0.985
11
0.5325
21
1.02
0
LINE
8
BLACK
6
CONTINUOUS
10
0.5325
20
1.02
11
0.557624
21
1.02
0
LINE
8
BLACK
6
CONTINUOUS
10
0.557624
20
1.02
11
0.558016
21
1.02011
0
LINE
8
BLACK
6
CONTINUOUS
10
0.558016
20
1.02011
11
0.560826
21
1.02
0
LINE
8
BLACK
6
CONTINUOUS
10
0.560826
20
1.02
11
0.5875
21
1.02
0
LINE
8
BLACK
6
CONTINUOUS
10
0.5875
20
1.02
11
0.5875
21
1.01772
0
LINE
8
BLACK
6
CONTINUOUS
10
0.5875
20
1.01772
11
0.625
21
1.01772
0
LINE
8
BLACK
6
CONTINUOUS
10
0.625
20
1.01772
11
0.625
21
1.0275
0
LINE
8
BLACK
6
CONTINUOUS
10
0.625
20
1.0275
11
0.66
21
1.0275
0
LINE
8
BLACK
6
CONTINUOUS
10
0.66
20
1.0275
11
0.66
21
1.00144
0
LINE
8
BLACK
6
CONTINUOUS
10
0.321149
20
0.9425
11
0.3475
21
0.9425
0
LINE
8
BLACK
6
CONTINUOUS
10
0.3475
20
0.9425
11
0.3475
21
0.9075
0
LINE
8
BLACK
6
CONTINUOUS
10
0.3475
20
0.9075
11
0.327555
21
0.9075
0
LINE
8
BLACK
6
CONTINUOUS
10
0.327555
20
0.9075
11
0.297717
21
0.877662
0
LINE
8
BLACK
6
CONTINUOUS
10
0.297717
20
0.877662
11
0.297717
21
0.84
0
LINE
8
BLACK
6
CONTINUOUS
10
0.297717
20
0.84
11
0.297642
21
0.839008
0
LINE
8
BLACK
6
CONTINUOUS
10
0.297642
20
0.839008
11
0.297667
21
0.838676
0
LINE
8
BLACK
6
CONTINUOUS
10
0.297667
20
0.838676
11
0.297593
21
0.838352
0
LINE
8
BLACK
6
CONTINUOUS
10
0.297593
20
0.838352
11
0.297519
21
0.837359
0
LINE
8
BLACK
6
CONTINUOUS
10
0.297519
20
0.837359
11
0.2975
21
0.837299
0
LINE
8
BLACK
6
CONTINUOUS
10
0.2975
20
0.837299
11
0.2975
21
0.8125
0
LINE
8
BLACK
6
CONTINUOUS
10
0.2975
20
0.8125
11
0.2625
21
0.8125
0
LINE
8
BLACK
6
CONTINUOUS
10
0.2625
20
0.8125
11
0.2625
21
0.822283
0
LINE
8
BLACK
6
CONTINUOUS
10
0.2625
20
0.822283
11
0.22
21
0.822283
0
LINE
8
BLACK
6
CONTINUOUS
10
0.22
20
0.822283
11
0.22
21
0.81
0
LINE
8
BLACK
6
CONTINUOUS
10
0.22
20
0.81
11
0.16
21
0.81
0
LINE
8
BLACK
6
CONTINUOUS
10
0.16
20
0.81
11
0.16
21
0.822283
0
LINE
8
BLACK
6
CONTINUOUS
10
0.16
20
0.822283
11
0.12
21
0.822283
0
LINE
8
BLACK
6
CONTINUOUS
10
0.12
20
0.822283
11
0.12
21
0.81
0
LINE
8
BLACK
6
CONTINUOUS
10
0.12
20
0.81
11
0.06
21
0.81
0
LINE
8
BLACK
6
CONTINUOUS
10
0.06
20
0.81
11
0.06
21
0.87
0
LINE
8
BLACK
6
CONTINUOUS
10
0.06
20
0.87
11
0.12
21
0.87
0
LINE
8
BLACK
6
CONTINUOUS
10
0.12
20
0.87
11
0.12
21
0.857717
0
LINE
8
BLACK
6
CONTINUOUS
10
0.12
20
0.857717
11
0.16
21
0.857717
0
LINE
8
BLACK
6
CONTINUOUS
10
0.16
20
0.857717
11
0.16
21
0.87
0
LINE
8
BLACK
6
CONTINUOUS
10
0.16
20
0.87
11
0.22
21
0.87
0
LINE
8
BLACK
6
CONTINUOUS
10
0.22
20
0.87
11
0.22
21
0.857717
0
LINE
8
BLACK
6
CONTINUOUS
10
0.22
20
0.857717
11
0.262283
21
0.857717
0
LINE
8
BLACK
6
CONTINUOUS
10
0.262283
20
0.857717
11
0.262283
21
0.885
0
LINE
8
BLACK
6
CONTINUOUS
10
0.262283
20
0.885
11
0.262481
21
0.887641
0
LINE
8
BLACK
6
CONTINUOUS
10
0.262481
20
0.887641
11
0.26258
21
0.88796
0
LINE
8
BLACK
6
CONTINUOUS
10
0.26258
20
0.88796
11
0.262592
21
0.888294
0
LINE
8
BLACK
6
CONTINUOUS
10
0.262592
20
0.888294
11
0.263356
21
0.890477
0
LINE
8
BLACK
6
CONTINUOUS
10
0.263356
20
0.890477
11
0.264038
21
0.892687
0
LINE
8
BLACK
6
CONTINUOUS
10
0.264038
20
0.892687
11
0.264226
21
0.892963
0
LINE
8
BLACK
6
CONTINUOUS
10
0.264226
20
0.892963
11
0.264337
21
0.893278
0
LINE
8
BLACK
6
CONTINUOUS
10
0.264337
20
0.893278
11
0.26571
21
0.895139
0
LINE
8
BLACK
6
CONTINUOUS
10
0.26571
20
0.895139
11
0.267013
21
0.89705
0
LINE
8
BLACK
6
CONTINUOUS
10
0.267013
20
0.89705
11
0.267274
21
0.897259
0
LINE
8
BLACK
6
CONTINUOUS
10
0.267274
20
0.897259
11
0.267473
21
0.897527
0
LINE
8
BLACK
6
CONTINUOUS
10
0.267473
20
0.897527
11
0.2925
21
0.922555
0
LINE
8
BLACK
6
CONTINUOUS
10
0.2925
20
0.922555
11
0.2925
21
0.9425
0
LINE
8
BLACK
6
CONTINUOUS
10
0.2925
20
0.9425
11
0.318259
21
0.9425
0
LINE
8
BLACK
6
CONTINUOUS
10
0.318259
20
0.9425
11
0.319338
21
0.942704
0
LINE
8
BLACK
6
CONTINUOUS
10
0.319338
20
0.942704
11
0.321149
21
0.9425
0
LINE
8
BLACK
6
CONTINUOUS
10
0.385331
20
1.18717
11
0.395171
21
1.18413
0
LINE
8
BLACK
6
CONTINUOUS
10
0.395171
20
1.18413
11
0.404449
21
1.17967
0
LINE
8
BLACK
6
CONTINUOUS
10
0.404449
20
1.17967
11
0.412957
21
1.17387
0
LINE
8
BLACK
6
CONTINUOUS
10
0.412957
20
1.17387
11
0.420506
21
1.16686
0
LINE
8
BLACK
6
CONTINUOUS
10
0.420506
20
1.16686
11
0.426926
21
1.15881
0
LINE
8
BLACK
6
CONTINUOUS
10
0.426926
20
1.15881
11
0.432075
21
1.14989
0
LINE
8
BLACK
6
CONTINUOUS
10
0.432075
20
1.14989
11
0.435837
21
1.14031
0
LINE
8
BLACK
6
CONTINUOUS
10
0.435837
20
1.14031
11
0.438128
21
1.13027
0
LINE
8
BLACK
6
CONTINUOUS
10
0.438128
20
1.13027
11
0.438898
21
1.12
0
LINE
8
BLACK
6
CONTINUOUS
10
0.438898
20
1.12
11
0.438128
21
1.10973
0
LINE
8
BLACK
6
CONTINUOUS
10
0.438128
20
1.10973
11
0.435837
21
1.09969
0
LINE
8
BLACK
6
CONTINUOUS
10
0.435837
20
1.09969
11
0.432075
21
1.09011
0
LINE
8
BLACK
6
CONTINUOUS
10
0.432075
20
1.09011
11
0.429466
21
1.08559
0
LINE
8
BLACK
6
CONTINUOUS
10
0.429466
20
1.08559
11
0.472527
21
1.04253
0
LINE
8
BLACK
6
CONTINUOUS
10
0.472527
20
1.04253
11
0.474255
21
1.04052
0
LINE
8
BLACK
6
CONTINUOUS
10
0.474255
20
1.04052
11
0.474411
21
1.04022
0
LINE
8
BLACK
6
CONTINUOUS
10
0.474411
20
1.04022
11
0.474638
21
1.03998
0
LINE
8
BLACK
6
CONTINUOUS
10
0.474638
20
1.03998
11
0.475641
21
1.0379
0
LINE
8
BLACK
6
CONTINUOUS
10
0.475641
20
1.0379
11
0.476722
21
1.03585
0
LINE
8
BLACK
6
CONTINUOUS
10
0.476722
20
1.03585
11
0.476784
21
1.03552
0
LINE
8
BLACK
6
CONTINUOUS
10
0.476784
20
1.03552
11
0.476929
21
1.03522
0
LINE
8
BLACK
6
CONTINUOUS
10
0.476929
20
1.03522
11
0.477274
21
1.03293
0
LINE
8
BLACK
6
CONTINUOUS
10
0.477274
20
1.03293
11
0.477704
21
1.03066
0
LINE
8
BLACK
6
CONTINUOUS
10
0.477704
20
1.03066
11
0.477667
21
1.03033
0
LINE
8
BLACK
6
CONTINUOUS
10
0.477667
20
1.03033
11
0.477717
21
1.03
0
LINE
8
BLACK
6
CONTINUOUS
10
0.477717
20
1.03
11
0.477717
21
0.942047
0
LINE
8
BLACK
6
CONTINUOUS
10
0.477717
20
0.942047
11
0.495433
21
0.942047
0
LINE
8
BLACK
6
CONTINUOUS
10
0.495433
20
0.942047
11
0.495433
21
0.922362
0
LINE
8
BLACK
6
CONTINUOUS
10
0.495433
20
0.922362
11
0.507244
21
0.922362
0
LINE
8
BLACK
6
CONTINUOUS
10
0.507244
20
0.922362
11
0.507244
21
0.895787
0
LINE
8
BLACK
6
CONTINUOUS
10
0.507244
20
0.895787
11
0.512756
21
0.895787
0
LINE
8
BLACK
6
CONTINUOUS
10
0.512756
20
0.895787
11
0.534409
21
0.895787
0
LINE
8
BLACK
6
CONTINUOUS
10
0.534409
20
0.895787
11
0.534409
21
0.892835
0
LINE
8
BLACK
6
CONTINUOUS
10
0.534409
20
0.892835
11
0.543465
21
0.892835
0
LINE
8
BLACK
6
CONTINUOUS
10
0.543465
20
0.892835
11
0.543465
21
0.860354
0
LINE
8
BLACK
6
CONTINUOUS
10
0.543465
20
0.860354
11
0.545236
21
0.860354
0
LINE
8
BLACK
6
CONTINUOUS
10
0.545236
20
0.860354
11
0.545236
21
0.828858
0
LINE
8
BLACK
6
CONTINUOUS
10
0.545236
20
0.828858
11
0.509803
21
0.828858
0
LINE
8
BLACK
6
CONTINUOUS
10
0.509803
20
0.828858
11
0.509803
21
0.83378
0
LINE
8
BLACK
6
CONTINUOUS
10
0.509803
20
0.83378
11
0.48126
21
0.83378
0
LINE
8
BLACK
6
CONTINUOUS
10
0.48126
20
0.83378
11
0.476535
21
0.83378
0
LINE
8
BLACK
6
CONTINUOUS
10
0.476535
20
0.83378
11
0.476535
21
0.842638
0
LINE
8
BLACK
6
CONTINUOUS
10
0.476535
20
0.842638
11
0.471417
21
0.842638
0
LINE
8
BLACK
6
CONTINUOUS
10
0.471417
20
0.842638
11
0.449764
21
0.842638
0
LINE
8
BLACK
6
CONTINUOUS
10
0.449764
20
0.842638
11
0.449764
21
0.863307
0
LINE
8
BLACK
6
CONTINUOUS
10
0.449764
20
0.863307
11
0.424567
21
0.863307
0
LINE
8
BLACK
6
CONTINUOUS
10
0.424567
20
0.863307
11
0.412756
21
0.863307
0
LINE
8
BLACK
6
CONTINUOUS
10
0.412756
20
0.863307
11
0.412756
21
0.922362
0
LINE
8
BLACK
6
CONTINUOUS
10
0.412756
20
0.922362
11
0.424567
21
0.922362
0
LINE
8
BLACK
6
CONTINUOUS
10
0.424567
20
0.922362
11
0.424567
21
0.942047
0
LINE
8
BLACK
6
CONTINUOUS
10
0.424567
20
0.942047
11
0.442283
21
0.942047
0
LINE
8
BLACK
6
CONTINUOUS
10
0.442283
20
0.942047
11
0.442283
21
1.02266
0
LINE
8
BLACK
6
CONTINUOUS
10
0.442283
20
1.02266
11
0.404546
21
1.0604
0
LINE
8
BLACK
6
CONTINUOUS
10
0.404546
20
1.0604
11
0.404449
21
1.06033
0
LINE
8
BLACK
6
CONTINUOUS
10
0.404449
20
1.06033
11
0.395171
21
1.05587
0
LINE
8
BLACK
6
CONTINUOUS
10
0.395171
20
1.05587
11
0.385331
21
1.05283
0
LINE
8
BLACK
6
CONTINUOUS
10
0.385331
20
1.05283
11
0.375149
21
1.05129
0
LINE
8
BLACK
6
CONTINUOUS
10
0.375149
20
1.05129
11
0.364851
21
1.05129
0
LINE
8
BLACK
6
CONTINUOUS
10
0.364851
20
1.05129
11
0.354669
21
1.05283
0
LINE
8
BLACK
6
CONTINUOUS
10
0.354669
20
1.05283
11
0.344829
21
1.05587
0
LINE
8
BLACK
6
CONTINUOUS
10
0.344829
20
1.05587
11
0.335551
21
1.06033
0
LINE
8
BLACK
6
CONTINUOUS
10
0.335551
20
1.06033
11
0.327043
21
1.06613
0
LINE
8
BLACK
6
CONTINUOUS
10
0.327043
20
1.06613
11
0.319494
21
1.07314
0
LINE
8
BLACK
6
CONTINUOUS
10
0.319494
20
1.07314
11
0.313074
21
1.08119
0
LINE
8
BLACK
6
CONTINUOUS
10
0.313074
20
1.08119
11
0.307925
21
1.09011
0
LINE
8
BLACK
6
CONTINUOUS
10
0.307925
20
1.09011
11
0.304163
21
1.09969
0
LINE
8
BLACK
6
CONTINUOUS
10
0.304163
20
1.09969
11
0.303572
21
1.10228
0
LINE
8
BLACK
6
CONTINUOUS
10
0.303572
20
1.10228
11
0.279902
21
1.10228
0
LINE
8
BLACK
6
CONTINUOUS
10
0.279902
20
1.10228
11
0.277717
21
1.1001
0
LINE
8
BLACK
6
CONTINUOUS
10
0.277717
20
1.1001
11
0.277717
21
1.06
0
LINE
8
BLACK
6
CONTINUOUS
10
0.277717
20
1.06
11
0.277519
21
1.05736
0
LINE
8
BLACK
6
CONTINUOUS
10
0.277519
20
1.05736
11
0.27742
21
1.05704
0
LINE
8
BLACK
6
CONTINUOUS
10
0.27742
20
1.05704
11
0.277408
21
1.05671
0
LINE
8
BLACK
6
CONTINUOUS
10
0.277408
20
1.05671
11
0.276644
21
1.05452
0
LINE
8
BLACK
6
CONTINUOUS
10
0.276644
20
1.05452
11
0.275962
21
1.05231
0
LINE
8
BLACK
6
CONTINUOUS
10
0.275962
20
1.05231
11
0.275774
21
1.05204
0
LINE
8
BLACK
6
CONTINUOUS
10
0.275774
20
1.05204
11
0.275663
21
1.05172
0
LINE
8
BLACK
6
CONTINUOUS
10
0.275663
20
1.05172
11
0.27429
21
1.04986
0
LINE
8
BLACK
6
CONTINUOUS
10
0.27429
20
1.04986
11
0.272987
21
1.04795
0
LINE
8
BLACK
6
CONTINUOUS
10
0.272987
20
1.04795
11
0.272726
21
1.04774
0
LINE
8
BLACK
6
CONTINUOUS
10
0.272726
20
1.04774
11
0.272527
21
1.04747
0
LINE
8
BLACK
6
CONTINUOUS
10
0.272527
20
1.04747
11
0.252527
21
1.02747
0
LINE
8
BLACK
6
CONTINUOUS
10
0.252527
20
1.02747
11
0.25052
21
1.02575
0
LINE
8
BLACK
6
CONTINUOUS
10
0.25052
20
1.02575
11
0.250225
21
1.02559
0
LINE
8
BLACK
6
CONTINUOUS
10
0.250225
20
1.02559
11
0.24998
21
1.02536
0
LINE
8
BLACK
6
CONTINUOUS
10
0.24998
20
1.02536
11
0.247896
21
1.02436
0
LINE
8
BLACK
6
CONTINUOUS
10
0.247896
20
1.02436
11
0.245851
21
1.02328
0
LINE
8
BLACK
6
CONTINUOUS
10
0.245851
20
1.02328
11
0.245523
21
1.02322
0
LINE
8
BLACK
6
CONTINUOUS
10
0.245523
20
1.02322
11
0.245222
21
1.02307
0
LINE
8
BLACK
6
CONTINUOUS
10
0.245222
20
1.02307
11
0.242935
21
1.02273
0
LINE
8
BLACK
6
CONTINUOUS
10
0.242935
20
1.02273
11
0.240662
21
1.0223
0
LINE
8
BLACK
6
CONTINUOUS
10
0.240662
20
1.0223
11
0.24033
21
1.02233
0
LINE
8
BLACK
6
CONTINUOUS
10
0.24033
20
1.02233
11
0.24
21
1.02228
0
LINE
8
BLACK
6
CONTINUOUS
10
0.24
20
1.02228
11
0.22
21
1.02228
0
LINE
8
BLACK
6
CONTINUOUS
10
0.22
20
1.02228
11
0.22
21
1.01
0
LINE
8
BLACK
6
CONTINUOUS
10
0.22
20
1.01
11
0.16
21
1.01
0
LINE
8
BLACK
6
CONTINUOUS
10
0.16
20
1.01
11
0.16
21
1.02228
0
LINE
8
BLACK
6
CONTINUOUS
10
0.16
20
1.02228
11
0.12
21
1.02228
0
LINE
8
BLACK
6
CONTINUOUS
10
0.12
20
1.02228
11
0.12
21
1.01
0
LINE
8
BLACK
6
CONTINUOUS
10
0.12
20
1.01
11
0.06
21
1.01
0
LINE
8
BLACK
6
CONTINUOUS
10
0.06
20
1.01
11
0.06
21
1.07
0
LINE
8
BLACK
6
CONTINUOUS
10
0.06
20
1.07
11
0.12
21
1.07
0
LINE
8
BLACK
6
CONTINUOUS
10
0.12
20
1.07
11
0.12
21
1.05772
0
LINE
8
BLACK
6
CONTINUOUS
10
0.12
20
1.05772
11
0.16
21
1.05772
0
LINE
8
BLACK
6
CONTINUOUS
10
0.16
20
1.05772
11
0.16
21
1.07
0
LINE
8
BLACK
6
CONTINUOUS
10
0.16
20
1.07
11
0.22
21
1.07
0
LINE
8
BLACK
6
CONTINUOUS
10
0.22
20
1.07
11
0.22
21
1.05772
0
LINE
8
BLACK
6
CONTINUOUS
10
0.22
20
1.05772
11
0.232662
21
1.05772
0
LINE
8
BLACK
6
CONTINUOUS
10
0.232662
20
1.05772
11
0.242283
21
1.06734
0
LINE
8
BLACK
6
CONTINUOUS
10
0.242283
20
1.06734
11
0.242283
21
1.10744
0
LINE
8
BLACK
6
CONTINUOUS
10
0.242283
20
1.10744
11
0.242481
21
1.11008
0
LINE
8
BLACK
6
CONTINUOUS
10
0.242481
20
1.11008
11
0.24258
21
1.1104
0
LINE
8
BLACK
6
CONTINUOUS
10
0.24258
20
1.1104
11
0.242592
21
1.11073
0
LINE
8
BLACK
6
CONTINUOUS
10
0.242592
20
1.11073
11
0.243356
21
1.11291
0
LINE
8
BLACK
6
CONTINUOUS
10
0.243356
20
1.11291
11
0.244038
21
1.11512
0
LINE
8
BLACK
6
CONTINUOUS
10
0.244038
20
1.11512
11
0.244226
21
1.1154
0
LINE
8
BLACK
6
CONTINUOUS
10
0.244226
20
1.1154
11
0.244337
21
1.11571
0
LINE
8
BLACK
6
CONTINUOUS
10
0.244337
20
1.11571
11
0.24571
21
1.11758
0
LINE
8
BLACK
6
CONTINUOUS
10
0.24571
20
1.11758
11
0.247013
21
1.11949
0
LINE
8
BLACK
6
CONTINUOUS
10
0.247013
20
1.11949
11
0.247274
21
1.11969
0
LINE
8
BLACK
6
CONTINUOUS
10
0.247274
20
1.11969
11
0.247473
21
1.11996
0
LINE
8
BLACK
6
CONTINUOUS
10
0.247473
20
1.11996
11
0.260037
21
1.13253
0
LINE
8
BLACK
6
CONTINUOUS
10
0.260037
20
1.13253
11
0.262044
21
1.13425
0
LINE
8
BLACK
6
CONTINUOUS
10
0.262044
20
1.13425
11
0.262339
21
1.13441
0
LINE
8
BLACK
6
CONTINUOUS
10
0.262339
20
1.13441
11
0.262584
21
1.13464
0
LINE
8
BLACK
6
CONTINUOUS
10
0.262584
20
1.13464
11
0.264668
21
1.13564
0
LINE
8
BLACK
6
CONTINUOUS
10
0.264668
20
1.13564
11
0.266713
21
1.13672
0
LINE
8
BLACK
6
CONTINUOUS
10
0.266713
20
1.13672
11
0.267041
21
1.13678
0
LINE
8
BLACK
6
CONTINUOUS
10
0.267041
20
1.13678
11
0.267342
21
1.13693
0
LINE
8
BLACK
6
CONTINUOUS
10
0.267342
20
1.13693
11
0.269629
21
1.13727
0
LINE
8
BLACK
6
CONTINUOUS
10
0.269629
20
1.13727
11
0.271902
21
1.1377
0
LINE
8
BLACK
6
CONTINUOUS
10
0.271902
20
1.1377
11
0.272234
21
1.13767
0
LINE
8
BLACK
6
CONTINUOUS
10
0.272234
20
1.13767
11
0.272564
21
1.13772
0
LINE
8
BLACK
6
CONTINUOUS
10
0.272564
20
1.13772
11
0.303572
21
1.13772
0
LINE
8
BLACK
6
CONTINUOUS
10
0.303572
20
1.13772
11
0.304163
21
1.14031
0
LINE
8
BLACK
6
CONTINUOUS
10
0.304163
20
1.14031
11
0.307925
21
1.14989
0
LINE
8
BLACK
6
CONTINUOUS
10
0.307925
20
1.14989
11
0.313074
21
1.15881
0
LINE
8
BLACK
6
CONTINUOUS
10
0.313074
20
1.15881
11
0.319494
21
1.16686
0
LINE
8
BLACK
6
CONTINUOUS
10
0.319494
20
1.16686
11
0.327043
21
1.17387
0
LINE
8
BLACK
6
CONTINUOUS
10
0.327043
20
1.17387
11
0.335551
21
1.17967
0
LINE
8
BLACK
6
CONTINUOUS
10
0.335551
20
1.17967
11
0.344829
21
1.18413
0
LINE
8
BLACK
6
CONTINUOUS
10
0.344829
20
1.18413
11
0.354669
21
1.18717
0
LINE
8
BLACK
6
CONTINUOUS
10
0.354669
20
1.18717
11
0.364851
21
1.1887
0
LINE
8
BLACK
6
CONTINUOUS
10
0.364851
20
1.1887
11
0.375149
21
1.1887
0
LINE
8
BLACK
6
CONTINUOUS
10
0.375149
20
1.1887
11
0.385331
21
1.18717
0
LINE
8
BLACK
6
CONTINUOUS
10
0.382641
20
1.01752
11
0.38296
21
1.01742
0
LINE
8
BLACK
6
CONTINUOUS
10
0.38296
20
1.01742
11
0.383294
21
1.01741
0
LINE
8
BLACK
6
CONTINUOUS
10
0.383294
20
1.01741
11
0.385477
21
1.01664
0
LINE
8
BLACK
6
CONTINUOUS
10
0.385477
20
1.01664
11
0.387687
21
1.01596
0
LINE
8
BLACK
6
CONTINUOUS
10
0.387687
20
1.01596
11
0.387963
21
1.01577
0
LINE
8
BLACK
6
CONTINUOUS
10
0.387963
20
1.01577
11
0.388278
21
1.01566
0
LINE
8
BLACK
6
CONTINUOUS
10
0.388278
20
1.01566
11
0.390139
21
1.01429
0
LINE
8
BLACK
6
CONTINUOUS
10
0.390139
20
1.01429
11
0.39205
21
1.01299
0
LINE
8
BLACK
6
CONTINUOUS
10
0.39205
20
1.01299
11
0.392259
21
1.01273
0
LINE
8
BLACK
6
CONTINUOUS
10
0.392259
20
1.01273
11
0.392527
21
1.01253
0
LINE
8
BLACK
6
CONTINUOUS
10
0.392527
20
1.01253
11
0.412527
21
0.992527
0
LINE
8
BLACK
6
CONTINUOUS
10
0.412527
20
0.992527
11
0.414255
21
0.99052
0
LINE
8
BLACK
6
CONTINUOUS
10
0.414255
20
0.99052
11
0.416722
21
0.985851
0
LINE
8
BLACK
6
CONTINUOUS
10
0.416722
20
0.985851
11
0.417704
21
0.980662
0
LINE
8
BLACK
6
CONTINUOUS
10
0.417704
20
0.980662
11
0.417113
21
0.975415
0
LINE
8
BLACK
6
CONTINUOUS
10
0.417113
20
0.975415
11
0.415001
21
0.970574
0
LINE
8
BLACK
6
CONTINUOUS
10
0.415001
20
0.970574
11
0.411556
21
0.966571
0
LINE
8
BLACK
6
CONTINUOUS
10
0.411556
20
0.966571
11
0.407085
21
0.963762
0
LINE
8
BLACK
6
CONTINUOUS
10
0.407085
20
0.963762
11
0.401984
21
0.962395
0
LINE
8
BLACK
6
CONTINUOUS
10
0.401984
20
0.962395
11
0.396706
21
0.962592
0
LINE
8
BLACK
6
CONTINUOUS
10
0.396706
20
0.962592
11
0.391722
21
0.964337
0
LINE
8
BLACK
6
CONTINUOUS
10
0.391722
20
0.964337
11
0.387473
21
0.967473
0
LINE
8
BLACK
6
CONTINUOUS
10
0.387473
20
0.967473
11
0.372662
21
0.982283
0
LINE
8
BLACK
6
CONTINUOUS
10
0.372662
20
0.982283
11
0.32
21
0.982283
0
LINE
8
BLACK
6
CONTINUOUS
10
0.32
20
0.982283
11
0.317359
21
0.982481
0
LINE
8
BLACK
6
CONTINUOUS
10
0.317359
20
0.982481
11
0.317299
21
0.9825
0
LINE
8
BLACK
6
CONTINUOUS
10
0.317299
20
0.9825
11
0.2925
21
0.9825
0
LINE
8
BLACK
6
CONTINUOUS
10
0.2925
20
0.9825
11
0.2925
21
1.0175
0
LINE
8
BLACK
6
CONTINUOUS
10
0.2925
20
1.0175
11
0.318563
21
1.0175
0
LINE
8
BLACK
6
CONTINUOUS
10
0.318563
20
1.0175
11
0.32
21
1.01772
0
LINE
8
BLACK
6
CONTINUOUS
10
0.32
20
1.01772
11
0.38
21
1.01772
0
LINE
8
BLACK
6
CONTINUOUS
10
0.38
20
1.01772
11
0.382641
21
1.01752
0
LINE
8
BLACK
6
CONTINUOUS
10
0.37345
20
0.648817
11
0.4314
21
0.648817
0
LINE
8
BLACK
6
CONTINUOUS
10
0.4314
20
0.648817
11
0.434041
21
0.648619
0
LINE
8
BLACK
6
CONTINUOUS
10
0.434041
20
0.648619
11
0.43436
21
0.64852
0
LINE
8
BLACK
6
CONTINUOUS
10
0.43436
20
0.64852
11
0.434694
21
0.648508
0
LINE
8
BLACK
6
CONTINUOUS
10
0.434694
20
0.648508
11
0.436877
21
0.647744
0
LINE
8
BLACK
6
CONTINUOUS
10
0.436877
20
0.647744
11
0.437667
21
0.6475
0
LINE
8
BLACK
6
CONTINUOUS
10
0.437667
20
0.6475
11
0.46
21
0.6475
0
LINE
8
BLACK
6
CONTINUOUS
10
0.46
20
0.6475
11
0.46
21
0.621741
0
LINE
8
BLACK
6
CONTINUOUS
10
0.46
20
0.621741
11
0.460204
21
0.620662
0
LINE
8
BLACK
6
CONTINUOUS
10
0.460204
20
0.620662
11
0.46
21
0.618851
0
LINE
8
BLACK
6
CONTINUOUS
10
0.46
20
0.618851
11
0.46
21
0.5925
0
LINE
8
BLACK
6
CONTINUOUS
10
0.46
20
0.5925
11
0.425
21
0.5925
0
LINE
8
BLACK
6
CONTINUOUS
10
0.425
20
0.5925
11
0.425
21
0.612445
0
LINE
8
BLACK
6
CONTINUOUS
10
0.425
20
0.612445
11
0.424062
21
0.613383
0
LINE
8
BLACK
6
CONTINUOUS
10
0.424062
20
0.613383
11
0.37345
21
0.613383
0
LINE
8
BLACK
6
CONTINUOUS
10
0.37345
20
0.613383
11
0.37345
21
0.6055
0
LINE
8
BLACK
6
CONTINUOUS
10
0.37345
20
0.6055
11
0.357717
21
0.6055
0
LINE
8
BLACK
6
CONTINUOUS
10
0.357717
20
0.6055
11
0.357717
21
0.58763
0
LINE
8
BLACK
6
CONTINUOUS
10
0.357717
20
0.58763
11
0.364851
21
0.588705
0
LINE
8
BLACK
6
CONTINUOUS
10
0.364851
20
0.588705
11
0.375149
21
0.588705
0
LINE
8
BLACK
6
CONTINUOUS
10
0.375149
20
0.588705
11
0.385331
21
0.58717
0
LINE
8
BLACK
6
CONTINUOUS
10
0.385331
20
0.58717
11
0.395171
21
0.584135
0
LINE
8
BLACK
6
CONTINUOUS
10
0.395171
20
0.584135
11
0.404449
21
0.579667
0
LINE
8
BLACK
6
CONTINUOUS
10
0.404449
20
0.579667
11
0.412957
21
0.573866
0
LINE
8
BLACK
6
CONTINUOUS
10
0.412957
20
0.573866
11
0.420506
21
0.566862
0
LINE
8
BLACK
6
CONTINUOUS
10
0.420506
20
0.566862
11
0.426926
21
0.558811
0
LINE
8
BLACK
6
CONTINUOUS
10
0.426926
20
0.558811
11
0.432075
21
0.549894
0
LINE
8
BLACK
6
CONTINUOUS
10
0.432075
20
0.549894
11
0.435837
21
0.540308
0
LINE
8
BLACK
6
CONTINUOUS
10
0.435837
20
0.540308
11
0.438128
21
0.530269
0
LINE
8
BLACK
6
CONTINUOUS
10
0.438128
20
0.530269
11
0.438898
21
0.52
0
LINE
8
BLACK
6
CONTINUOUS
10
0.438898
20
0.52
11
0.438128
21
0.509731
0
LINE
8
BLACK
6
CONTINUOUS
10
0.438128
20
0.509731
11
0.435837
21
0.499692
0
LINE
8
BLACK
6
CONTINUOUS
10
0.435837
20
0.499692
11
0.432075
21
0.490106
0
LINE
8
BLACK
6
CONTINUOUS
10
0.432075
20
0.490106
11
0.426926
21
0.481189
0
LINE
8
BLACK
6
CONTINUOUS
10
0.426926
20
0.481189
11
0.420506
21
0.473138
0
LINE
8
BLACK
6
CONTINUOUS
10
0.420506
20
0.473138
11
0.412957
21
0.466134
0
LINE
8
BLACK
6
CONTINUOUS
10
0.412957
20
0.466134
11
0.404449
21
0.460333
0
LINE
8
BLACK
6
CONTINUOUS
10
0.404449
20
0.460333
11
0.395171
21
0.455865
0
LINE
8
BLACK
6
CONTINUOUS
10
0.395171
20
0.455865
11
0.385331
21
0.45283
0
LINE
8
BLACK
6
CONTINUOUS
10
0.385331
20
0.45283
11
0.375149
21
0.451295
0
LINE
8
BLACK
6
CONTINUOUS
10
0.375149
20
0.451295
11
0.364851
21
0.451295
0
LINE
8
BLACK
6
CONTINUOUS
10
0.364851
20
0.451295
11
0.354669
21
0.45283
0
LINE
8
BLACK
6
CONTINUOUS
10
0.354669
20
0.45283
11
0.344829
21
0.455865
0
LINE
8
BLACK
6
CONTINUOUS
10
0.344829
20
0.455865
11
0.335551
21
0.460333
0
LINE
8
BLACK
6
CONTINUOUS
10
0.335551
20
0.460333
11
0.327043
21
0.466134
0
LINE
8
BLACK
6
CONTINUOUS
10
0.327043
20
0.466134
11
0.319494
21
0.473138
0
LINE
8
BLACK
6
CONTINUOUS
10
0.319494
20
0.473138
11
0.313074
21
0.481189
0
LINE
8
BLACK
6
CONTINUOUS
10
0.313074
20
0.481189
11
0.307925
21
0.490106
0
LINE
8
BLACK
6
CONTINUOUS
10
0.307925
20
0.490106
11
0.304163
21
0.499692
0
LINE
8
BLACK
6
CONTINUOUS
10
0.304163
20
0.499692
11
0.301872
21
0.509731
0
LINE
8
BLACK
6
CONTINUOUS
10
0.301872
20
0.509731
11
0.301102
21
0.52
0
LINE
8
BLACK
6
CONTINUOUS
10
0.301102
20
0.52
11
0.301872
21
0.530269
0
LINE
8
BLACK
6
CONTINUOUS
10
0.301872
20
0.530269
11
0.304163
21
0.540308
0
LINE
8
BLACK
6
CONTINUOUS
10
0.304163
20
0.540308
11
0.307925
21
0.549894
0
LINE
8
BLACK
6
CONTINUOUS
10
0.307925
20
0.549894
11
0.310534
21
0.554411
0
LINE
8
BLACK
6
CONTINUOUS
10
0.310534
20
0.554411
11
0.302662
21
0.562283
0
LINE
8
BLACK
6
CONTINUOUS
10
0.302662
20
0.562283
11
0.2889
21
0.562283
0
LINE
8
BLACK
6
CONTINUOUS
10
0.2889
20
0.562283
11
0.22
21
0.562283
0
LINE
8
BLACK
6
CONTINUOUS
10
0.22
20
0.562283
11
0.22
21
0.55
0
LINE
8
BLACK
6
CONTINUOUS
10
0.22
20
0.55
11
0.16
21
0.55
0
LINE
8
BLACK
6
CONTINUOUS
10
0.16
20
0.55
11
0.16
21
0.562283
0
LINE
8
BLACK
6
CONTINUOUS
10
0.16
20
0.562283
11
0.12
21
0.562283
0
LINE
8
BLACK
6
CONTINUOUS
10
0.12
20
0.562283
11
0.12
21
0.55
0
LINE
8
BLACK
6
CONTINUOUS
10
0.12
20
0.55
11
0.06
21
0.55
0
LINE
8
BLACK
6
CONTINUOUS
10
0.06
20
0.55
11
0.06
21
0.61
0
LINE
8
BLACK
6
CONTINUOUS
10
0.06
20
0.61
11
0.12
21
0.61
0
LINE
8
BLACK
6
CONTINUOUS
10
0.12
20
0.61
11
0.12
21
0.597717
0
LINE
8
BLACK
6
CONTINUOUS
10
0.12
20
0.597717
11
0.16
21
0.597717
0
LINE
8
BLACK
6
CONTINUOUS
10
0.16
20
0.597717
11
0.16
21
0.61
0
LINE
8
BLACK
6
CONTINUOUS
10
0.16
20
0.61
11
0.22
21
0.61
0
LINE
8
BLACK
6
CONTINUOUS
10
0.22
20
0.61
11
0.22
21
0.597717
0
LINE
8
BLACK
6
CONTINUOUS
10
0.22
20
0.597717
11
0.281562
21
0.597717
0
LINE
8
BLACK
6
CONTINUOUS
10
0.281562
20
0.597717
11
0.30655
21
0.622705
0
LINE
8
BLACK
6
CONTINUOUS
10
0.30655
20
0.622705
11
0.30655
21
0.6567
0
LINE
8
BLACK
6
CONTINUOUS
10
0.30655
20
0.6567
11
0.37345
21
0.6567
0
LINE
8
BLACK
6
CONTINUOUS
10
0.37345
20
0.6567
11
0.37345
21
0.648817
0
LINE
8
BLACK
6
CONTINUOUS
10
0.784749
20
1.58624
11
0.786579
21
1.58413
0
LINE
8
BLACK
6
CONTINUOUS
10
0.786579
20
1.58413
11
0.787028
21
1.58207
0
LINE
8
BLACK
6
CONTINUOUS
10
0.787028
20
1.58207
11
0.787028
21
0.696772
0
LINE
8
BLACK
6
CONTINUOUS
10
0.787028
20
0.696772
11
0.762777
21
0.017756
0
LINE
8
BLACK
6
CONTINUOUS
10
0.762777
20
0.017756
11
0.761894
21
0.0151039
0
LINE
8
BLACK
6
CONTINUOUS
10
0.761894
20
0.0151039
11
0.759718
21
0.01335
0
LINE
8
BLACK
6
CONTINUOUS
10
0.759718
20
0.01335
11
0.757819
21
0.0129724
0
LINE
8
BLACK
6
CONTINUOUS
10
0.757819
20
0.0129724
11
0.0179331
21
0.0129724
0
LINE
8
BLACK
6
CONTINUOUS
10
0.0179331
20
0.0129724
11
0.0152511
21
0.0137599
0
LINE
8
BLACK
6
CONTINUOUS
10
0.0152511
20
0.0137599
11
0.0134207
21
0.0158724
0
LINE
8
BLACK
6
CONTINUOUS
10
0.0134207
20
0.0158724
11
0.0129724
21
0.0179331
0
LINE
8
BLACK
6
CONTINUOUS
10
0.0129724
20
0.0179331
11
0.0129724
21
0.548085
0
LINE
8
BLACK
6
CONTINUOUS
10
0.0129724
20
0.548085
11
0.0129724
21
0.808085
0
LINE
8
BLACK
6
CONTINUOUS
10
0.0129724
20
0.808085
11
0.0129724
21
1.58207
0
LINE
8
BLACK
6
CONTINUOUS
10
0.0129724
20
1.58207
11
0.0137599
21
1.58475
0
LINE
8
BLACK
6
CONTINUOUS
10
0.0137599
20
1.58475
11
0.0158724
21
1.58658
0
LINE
8
BLACK
6
CONTINUOUS
10
0.0158724
20
1.58658
11
0.0179331
21
1.58703
0
LINE
8
BLACK
6
CONTINUOUS
10
0.0179331
20
1.58703
11
0.782067
21
1.58703
0
LINE
8
BLACK
6
CONTINUOUS
10
0.782067
20
1.58703
11
0.784749
21
1.58624
0
LINE
8
BLACK
6
CONTINUOUS
10
0.365015
20
1.20878
11
0.358369
21
1.20835
0
LINE
8
BLACK
6
CONTINUOUS
10
0.358369
20
1.20835
11
0.346937
21
1.20607
0
LINE
8
BLACK
6
CONTINUOUS
10
0.346937
20
1.20607
11
0.3359
21
1.20233
0
LINE
8
BLACK
6
CONTINUOUS
10
0.3359
20
1.20233
11
0.325446
21
1.19717
0
LINE
8
BLACK
6
CONTINUOUS
10
0.325446
20
1.19717
11
0.315754
21
1.19069
0
LINE
8
BLACK
6
CONTINUOUS
10
0.315754
20
1.19069
11
0.306991
21
1.18301
0
LINE
8
BLACK
6
CONTINUOUS
10
0.306991
20
1.18301
11
0.299306
21
1.17425
0
LINE
8
BLACK
6
CONTINUOUS
10
0.299306
20
1.17425
11
0.299306
21
1.17425
0
LINE
8
BLACK
6
CONTINUOUS
10
0.299306
20
1.17425
11
0.299305
21
1.17425
0
LINE
8
BLACK
6
CONTINUOUS
10
0.299305
20
1.17425
11
0.29283
21
1.16455
0
LINE
8
BLACK
6
CONTINUOUS
10
0.29283
20
1.16455
11
0.290832
21
1.1605
0
LINE
8
BLACK
6
CONTINUOUS
10
0.290832
20
1.1605
11
0.28894
21
1.15845
0
LINE
8
BLACK
6
CONTINUOUS
10
0.28894
20
1.15845
11
0.286383
21
1.15774
0
LINE
8
BLACK
6
CONTINUOUS
10
0.286383
20
1.15774
11
0.273041
21
1.15774
0
LINE
8
BLACK
6
CONTINUOUS
10
0.273041
20
1.15774
11
0.269684
21
1.15782
0
LINE
8
BLACK
6
CONTINUOUS
10
0.269684
20
1.15782
11
0.269317
21
1.15776
0
LINE
8
BLACK
6
CONTINUOUS
10
0.269317
20
1.15776
11
0.267412
21
1.15741
0
LINE
8
BLACK
6
CONTINUOUS
10
0.267412
20
1.15741
11
0.267225
21
1.15739
0
LINE
8
BLACK
6
CONTINUOUS
10
0.267225
20
1.15739
11
0.266441
21
1.15731
0
LINE
8
BLACK
6
CONTINUOUS
10
0.266441
20
1.15731
11
0.264929
21
1.15715
0
LINE
8
BLACK
6
CONTINUOUS
10
0.264929
20
1.15715
11
0.264928
21
1.15715
0
LINE
8
BLACK
6
CONTINUOUS
10
0.264928
20
1.15715
11
0.264928
21
1.15715
0
LINE
8
BLACK
6
CONTINUOUS
10
0.264928
20
1.15715
11
0.264483
21
1.15701
0
LINE
8
BLACK
6
CONTINUOUS
10
0.264483
20
1.15701
11
0.263701
21
1.15677
0
LINE
8
BLACK
6
CONTINUOUS
10
0.263701
20
1.15677
11
0.263396
21
1.15669
0
LINE
8
BLACK
6
CONTINUOUS
10
0.263396
20
1.15669
11
0.262129
21
1.15647
0
LINE
8
BLACK
6
CONTINUOUS
10
0.262129
20
1.15647
11
0.261058
21
1.15604
0
LINE
8
BLACK
6
CONTINUOUS
10
0.261058
20
1.15604
11
0.259986
21
1.15561
0
LINE
8
BLACK
6
CONTINUOUS
10
0.259986
20
1.15561
11
0.259808
21
1.15555
0
LINE
8
BLACK
6
CONTINUOUS
10
0.259808
20
1.15555
11
0.257606
21
1.15486
0
LINE
8
BLACK
6
CONTINUOUS
10
0.257606
20
1.15486
11
0.256481
21
1.15423
0
LINE
8
BLACK
6
CONTINUOUS
10
0.256481
20
1.15423
11
0.256197
21
1.1541
0
LINE
8
BLACK
6
CONTINUOUS
10
0.256197
20
1.1541
11
0.255002
21
1.15362
0
LINE
8
BLACK
6
CONTINUOUS
10
0.255002
20
1.15362
11
0.255002
21
1.15362
0
LINE
8
BLACK
6
CONTINUOUS
10
0.255002
20
1.15362
11
0.253075
21
1.15235
0
LINE
8
BLACK
6
CONTINUOUS
10
0.253075
20
1.15235
11
0.252914
21
1.15225
0
LINE
8
BLACK
6
CONTINUOUS
10
0.252914
20
1.15225
11
0.250895
21
1.15113
0
LINE
8
BLACK
6
CONTINUOUS
10
0.250895
20
1.15113
11
0.249919
21
1.15029
0
LINE
8
BLACK
6
CONTINUOUS
10
0.249919
20
1.15029
11
0.249669
21
1.15011
0
LINE
8
BLACK
6
CONTINUOUS
10
0.249669
20
1.15011
11
0.248838
21
1.14956
0
LINE
8
BLACK
6
CONTINUOUS
10
0.248838
20
1.14956
11
0.248594
21
1.1494
0
LINE
8
BLACK
6
CONTINUOUS
10
0.248594
20
1.1494
11
0.248594
21
1.1494
0
LINE
8
BLACK
6
CONTINUOUS
10
0.248594
20
1.1494
11
0.247778
21
1.14858
0
LINE
8
BLACK
6
CONTINUOUS
10
0.247778
20
1.14858
11
0.246961
21
1.14776
0
LINE
8
BLACK
6
CONTINUOUS
10
0.246961
20
1.14776
11
0.246824
21
1.14764
0
LINE
8
BLACK
6
CONTINUOUS
10
0.246824
20
1.14764
11
0.245072
21
1.14613
0
LINE
8
BLACK
6
CONTINUOUS
10
0.245072
20
1.14613
11
0.244284
21
1.14512
0
LINE
8
BLACK
6
CONTINUOUS
10
0.244284
20
1.14512
11
0.244077
21
1.14488
0
LINE
8
BLACK
6
CONTINUOUS
10
0.244077
20
1.14488
11
0.233654
21
1.13446
0
LINE
8
BLACK
6
CONTINUOUS
10
0.233654
20
1.13446
11
0.23122
21
1.13214
0
LINE
8
BLACK
6
CONTINUOUS
10
0.23122
20
1.13214
11
0.229901
21
1.13025
0
LINE
8
BLACK
6
CONTINUOUS
10
0.229901
20
1.13025
11
0.229787
21
1.1301
0
LINE
8
BLACK
6
CONTINUOUS
10
0.229787
20
1.1301
11
0.228329
21
1.12831
0
LINE
8
BLACK
6
CONTINUOUS
10
0.228329
20
1.12831
11
0.227733
21
1.12717
0
LINE
8
BLACK
6
CONTINUOUS
10
0.227733
20
1.12717
11
0.22757
21
1.1269
0
LINE
8
BLACK
6
CONTINUOUS
10
0.22757
20
1.1269
11
0.226835
21
1.12584
0
LINE
8
BLACK
6
CONTINUOUS
10
0.226835
20
1.12584
11
0.225925
21
1.12372
0
LINE
8
BLACK
6
CONTINUOUS
10
0.225925
20
1.12372
11
0.225844
21
1.12355
0
LINE
8
BLACK
6
CONTINUOUS
10
0.225844
20
1.12355
11
0.224776
21
1.12151
0
LINE
8
BLACK
6
CONTINUOUS
10
0.224776
20
1.12151
11
0.224775
21
1.12151
0
LINE
8
BLACK
6
CONTINUOUS
10
0.224775
20
1.12151
11
0.224421
21
1.12027
0
LINE
8
BLACK
6
CONTINUOUS
10
0.224421
20
1.12027
11
0.224316
21
1.11997
0
LINE
8
BLACK
6
CONTINUOUS
10
0.224316
20
1.11997
11
0.223809
21
1.11879
0
LINE
8
BLACK
6
CONTINUOUS
10
0.223809
20
1.11879
11
0.223809
21
1.11879
0
LINE
8
BLACK
6
CONTINUOUS
10
0.223809
20
1.11879
11
0.223344
21
1.11653
0
LINE
8
BLACK
6
CONTINUOUS
10
0.223344
20
1.11653
11
0.223299
21
1.11635
0
LINE
8
BLACK
6
CONTINUOUS
10
0.223299
20
1.11635
11
0.222664
21
1.11413
0
LINE
8
BLACK
6
CONTINUOUS
10
0.222664
20
1.11413
11
0.222664
21
1.11413
0
LINE
8
BLACK
6
CONTINUOUS
10
0.222664
20
1.11413
11
0.222566
21
1.11284
0
LINE
8
BLACK
6
CONTINUOUS
10
0.222566
20
1.11284
11
0.222523
21
1.11253
0
LINE
8
BLACK
6
CONTINUOUS
10
0.222523
20
1.11253
11
0.222264
21
1.11127
0
LINE
8
BLACK
6
CONTINUOUS
10
0.222264
20
1.11127
11
0.222264
21
1.11127
0
LINE
8
BLACK
6
CONTINUOUS
10
0.222264
20
1.11127
11
0.222264
21
1.10896
0
LINE
8
BLACK
6
CONTINUOUS
10
0.222264
20
1.10896
11
0.222257
21
1.10878
0
LINE
8
BLACK
6
CONTINUOUS
10
0.222257
20
1.10878
11
0.222081
21
1.10648
0
LINE
8
BLACK
6
CONTINUOUS
10
0.222081
20
1.10648
11
0.222081
21
1.10647
0
LINE
8
BLACK
6
CONTINUOUS
10
0.222081
20
1.10647
11
0.222171
21
1.10577
0
LINE
8
BLACK
6
CONTINUOUS
10
0.222171
20
1.10577
11
0.222244
21
1.1052
0
LINE
8
BLACK
6
CONTINUOUS
10
0.222244
20
1.1052
11
0.222264
21
1.10489
0
LINE
8
BLACK
6
CONTINUOUS
10
0.222264
20
1.10489
11
0.222264
21
1.09498
0
LINE
8
BLACK
6
CONTINUOUS
10
0.222264
20
1.09498
11
0.221476
21
1.0923
0
LINE
8
BLACK
6
CONTINUOUS
10
0.221476
20
1.0923
11
0.219364
21
1.09047
0
LINE
8
BLACK
6
CONTINUOUS
10
0.219364
20
1.09047
11
0.217303
21
1.09002
0
LINE
8
BLACK
6
CONTINUOUS
10
0.217303
20
1.09002
11
0.158085
21
1.09002
0
LINE
8
BLACK
6
CONTINUOUS
10
0.158085
20
1.09002
11
0.158085
21
1.09002
0
LINE
8
BLACK
6
CONTINUOUS
10
0.158085
20
1.09002
11
0.158085
21
1.09002
0
LINE
8
BLACK
6
CONTINUOUS
10
0.158085
20
1.09002
11
0.155701
21
1.08976
0
LINE
8
BLACK
6
CONTINUOUS
10
0.155701
20
1.08976
11
0.155701
21
1.08976
0
LINE
8
BLACK
6
CONTINUOUS
10
0.155701
20
1.08976
11
0.152633
21
1.08862
0
LINE
8
BLACK
6
CONTINUOUS
10
0.152633
20
1.08862
11
0.150307
21
1.08775
0
LINE
8
BLACK
6
CONTINUOUS
10
0.150307
20
1.08775
11
0.150307
21
1.08775
0
LINE
8
BLACK
6
CONTINUOUS
10
0.150307
20
1.08775
11
0.150307
21
1.08775
0
LINE
8
BLACK
6
CONTINUOUS
10
0.150307
20
1.08775
11
0.145698
21
1.0843
0
LINE
8
BLACK
6
CONTINUOUS
10
0.145698
20
1.0843
11
0.143971
21
1.08199
0
LINE
8
BLACK
6
CONTINUOUS
10
0.143971
20
1.08199
11
0.141734
21
1.08032
0
LINE
8
BLACK
6
CONTINUOUS
10
0.141734
20
1.08032
11
0.138946
21
1.08012
0
LINE
8
BLACK
6
CONTINUOUS
10
0.138946
20
1.08012
11
0.136492
21
1.08146
0
LINE
8
BLACK
6
CONTINUOUS
10
0.136492
20
1.08146
11
0.136029
21
1.08199
0
LINE
8
BLACK
6
CONTINUOUS
10
0.136029
20
1.08199
11
0.134302
21
1.0843
0
LINE
8
BLACK
6
CONTINUOUS
10
0.134302
20
1.0843
11
0.129693
21
1.08775
0
LINE
8
BLACK
6
CONTINUOUS
10
0.129693
20
1.08775
11
0.129693
21
1.08775
0
LINE
8
BLACK
6
CONTINUOUS
10
0.129693
20
1.08775
11
0.129693
21
1.08775
0
LINE
8
BLACK
6
CONTINUOUS
10
0.129693
20
1.08775
11
0.124299
21
1.08976
0
LINE
8
BLACK
6
CONTINUOUS
10
0.124299
20
1.08976
11
0.124299
21
1.08976
0
LINE
8
BLACK
6
CONTINUOUS
10
0.124299
20
1.08976
11
0.124299
21
1.08976
0
LINE
8
BLACK
6
CONTINUOUS
10
0.124299
20
1.08976
11
0.121915
21
1.09002
0
LINE
8
BLACK
6
CONTINUOUS
10
0.121915
20
1.09002
11
0.121915
21
1.09002
0
LINE
8
BLACK
6
CONTINUOUS
10
0.121915
20
1.09002
11
0.121915
21
1.09002
0
LINE
8
BLACK
6
CONTINUOUS
10
0.121915
20
1.09002
11
0.0580851
21
1.09002
0
LINE
8
BLACK
6
CONTINUOUS
10
0.0580851
20
1.09002
11
0.0580848
21
1.09002
0
LINE
8
BLACK
6
CONTINUOUS
10
0.0580848
20
1.09002
11
0.0580846
21
1.09002
0
LINE
8
BLACK
6
CONTINUOUS
10
0.0580846
20
1.09002
11
0.0557009
21
1.08976
0
LINE
8
BLACK
6
CONTINUOUS
10
0.0557009
20
1.08976
11
0.0557006
21
1.08976
0
LINE
8
BLACK
6
CONTINUOUS
10
0.0557006
20
1.08976
11
0.0526329
21
1.08862
0
LINE
8
BLACK
6
CONTINUOUS
10
0.0526329
20
1.08862
11
0.0503069
21
1.08775
0
LINE
8
BLACK
6
CONTINUOUS
10
0.0503069
20
1.08775
11
0.0503069
21
1.08775
0
LINE
8
BLACK
6
CONTINUOUS
10
0.0503069
20
1.08775
11
0.0503068
21
1.08775
0
LINE
8
BLACK
6
CONTINUOUS
10
0.0503068
20
1.08775
11
0.0459055
21
1.08446
0
LINE
8
BLACK
6
CONTINUOUS
10
0.0459055
20
1.08446
11
0.0459055
21
0.995543
0
LINE
8
BLACK
6
CONTINUOUS
10
0.0459055
20
0.995543
11
0.0503068
21
0.992249
0
LINE
8
BLACK
6
CONTINUOUS
10
0.0503068
20
0.992249
11
0.050307
21
0.992248
0
LINE
8
BLACK
6
CONTINUOUS
10
0.050307
20
0.992248
11
0.0557006
21
0.990237
0
LINE
8
BLACK
6
CONTINUOUS
10
0.0557006
20
0.990237
11
0.0557009
21
0.990237
0
LINE
8
BLACK
6
CONTINUOUS
10
0.0557009
20
0.990237
11
0.0580846
21
0.98998
0
LINE
8
BLACK
6
CONTINUOUS
10
0.0580846
20
0.98998
11
0.0580851
21
0.98998
0
LINE
8
BLACK
6
CONTINUOUS
10
0.0580851
20
0.98998
11
0.121915
21
0.98998
0
LINE
8
BLACK
6
CONTINUOUS
10
0.121915
20
0.98998
11
0.124299
21
0.990237
0
LINE
8
BLACK
6
CONTINUOUS
10
0.124299
20
0.990237
11
0.124299
21
0.990237
0
LINE
8
BLACK
6
CONTINUOUS
10
0.124299
20
0.990237
11
0.129693
21
0.992248
0
LINE
8
BLACK
6
CONTINUOUS
10
0.129693
20
0.992248
11
0.129693
21
0.992249
0
LINE
8
BLACK
6
CONTINUOUS
10
0.129693
20
0.992249
11
0.134302
21
0.995698
0
LINE
8
BLACK
6
CONTINUOUS
10
0.134302
20
0.995698
11
0.136029
21
0.998006
0
LINE
8
BLACK
6
CONTINUOUS
10
0.136029
20
0.998006
11
0.138266
21
0.999681
0
LINE
8
BLACK
6
CONTINUOUS
10
0.138266
20
0.999681
11
0.141054
21
0.99988
0
LINE
8
BLACK
6
CONTINUOUS
10
0.141054
20
0.99988
11
0.143508
21
0.99854
0
LINE
8
BLACK
6
CONTINUOUS
10
0.143508
20
0.99854
11
0.143971
21
0.998006
0
LINE
8
BLACK
6
CONTINUOUS
10
0.143971
20
0.998006
11
0.145698
21
0.995698
0
LINE
8
BLACK
6
CONTINUOUS
10
0.145698
20
0.995698
11
0.150307
21
0.992249
0
LINE
8
BLACK
6
CONTINUOUS
10
0.150307
20
0.992249
11
0.150307
21
0.992248
0
LINE
8
BLACK
6
CONTINUOUS
10
0.150307
20
0.992248
11
0.155701
21
0.990237
0
LINE
8
BLACK
6
CONTINUOUS
10
0.155701
20
0.990237
11
0.155701
21
0.990237
0
LINE
8
BLACK
6
CONTINUOUS
10
0.155701
20
0.990237
11
0.158085
21
0.98998
0
LINE
8
BLACK
6
CONTINUOUS
10
0.158085
20
0.98998
11
0.158085
21
0.98998
0
LINE
8
BLACK
6
CONTINUOUS
10
0.158085
20
0.98998
11
0.221915
21
0.98998
0
LINE
8
BLACK
6
CONTINUOUS
10
0.221915
20
0.98998
11
0.224299
21
0.990237
0
LINE
8
BLACK
6
CONTINUOUS
10
0.224299
20
0.990237
11
0.224299
21
0.990237
0
LINE
8
BLACK
6
CONTINUOUS
10
0.224299
20
0.990237
11
0.229693
21
0.992248
0
LINE
8
BLACK
6
CONTINUOUS
10
0.229693
20
0.992248
11
0.229693
21
0.992249
0
LINE
8
BLACK
6
CONTINUOUS
10
0.229693
20
0.992249
11
0.234302
21
0.995698
0
LINE
8
BLACK
6
CONTINUOUS
10
0.234302
20
0.995698
11
0.237687
21
1.00022
0
LINE
8
BLACK
6
CONTINUOUS
10
0.237687
20
1.00022
11
0.239924
21
1.0019
0
LINE
8
BLACK
6
CONTINUOUS
10
0.239924
20
1.0019
11
0.241783
21
1.00221
0
LINE
8
BLACK
6
CONTINUOUS
10
0.241783
20
1.00221
11
0.24288
21
1.00218
0
LINE
8
BLACK
6
CONTINUOUS
10
0.24288
20
1.00218
11
0.24288
21
1.00218
0
LINE
8
BLACK
6
CONTINUOUS
10
0.24288
20
1.00218
11
0.245152
21
1.00259
0
LINE
8
BLACK
6
CONTINUOUS
10
0.245152
20
1.00259
11
0.245339
21
1.00261
0
LINE
8
BLACK
6
CONTINUOUS
10
0.245339
20
1.00261
11
0.247635
21
1.00285
0
LINE
8
BLACK
6
CONTINUOUS
10
0.247635
20
1.00285
11
0.247636
21
1.00285
0
LINE
8
BLACK
6
CONTINUOUS
10
0.247636
20
1.00285
11
0.248863
21
1.00323
0
LINE
8
BLACK
6
CONTINUOUS
10
0.248863
20
1.00323
11
0.249168
21
1.00331
0
LINE
8
BLACK
6
CONTINUOUS
10
0.249168
20
1.00331
11
0.250435
21
1.00353
0
LINE
8
BLACK
6
CONTINUOUS
10
0.250435
20
1.00353
11
0.252578
21
1.00439
0
LINE
8
BLACK
6
CONTINUOUS
10
0.252578
20
1.00439
11
0.252756
21
1.00445
0
LINE
8
BLACK
6
CONTINUOUS
10
0.252756
20
1.00445
11
0.253686
21
1.00474
0
LINE
8
BLACK
6
CONTINUOUS
10
0.253686
20
1.00474
11
0.254958
21
1.00514
0
LINE
8
BLACK
6
CONTINUOUS
10
0.254958
20
1.00514
11
0.254958
21
1.00514
0
LINE
8
BLACK
6
CONTINUOUS
10
0.254958
20
1.00514
11
0.256083
21
1.00577
0
LINE
8
BLACK
6
CONTINUOUS
10
0.256083
20
1.00577
11
0.256367
21
1.0059
0
LINE
8
BLACK
6
CONTINUOUS
10
0.256367
20
1.0059
11
0.256559
21
1.00598
0
LINE
8
BLACK
6
CONTINUOUS
10
0.256559
20
1.00598
11
0.257562
21
1.00638
0
LINE
8
BLACK
6
CONTINUOUS
10
0.257562
20
1.00638
11
0.259248
21
1.00749
0
LINE
8
BLACK
6
CONTINUOUS
10
0.259248
20
1.00749
11
0.259489
21
1.00765
0
LINE
8
BLACK
6
CONTINUOUS
10
0.259489
20
1.00765
11
0.25965
21
1.00775
0
LINE
8
BLACK
6
CONTINUOUS
10
0.25965
20
1.00775
11
0.260258
21
1.00808
0
LINE
8
BLACK
6
CONTINUOUS
10
0.260258
20
1.00808
11
0.261669
21
1.00887
0
LINE
8
BLACK
6
CONTINUOUS
10
0.261669
20
1.00887
11
0.262645
21
1.00971
0
LINE
8
BLACK
6
CONTINUOUS
10
0.262645
20
1.00971
11
0.262896
21
1.00989
0
LINE
8
BLACK
6
CONTINUOUS
10
0.262896
20
1.00989
11
0.263697
21
1.01042
0
LINE
8
BLACK
6
CONTINUOUS
10
0.263697
20
1.01042
11
0.26397
21
1.0106
0
LINE
8
BLACK
6
CONTINUOUS
10
0.26397
20
1.0106
11
0.26397
21
1.0106
0
LINE
8
BLACK
6
CONTINUOUS
10
0.26397
20
1.0106
11
0.26397
21
1.0106
0
LINE
8
BLACK
6
CONTINUOUS
10
0.26397
20
1.0106
11
0.264012
21
1.01064
0
LINE
8
BLACK
6
CONTINUOUS
10
0.264012
20
1.01064
11
0.264041
21
1.01066
0
LINE
8
BLACK
6
CONTINUOUS
10
0.264041
20
1.01066
11
0.264165
21
1.01076
0
LINE
8
BLACK
6
CONTINUOUS
10
0.264165
20
1.01076
11
0.264184
21
1.01074
0
LINE
8
BLACK
6
CONTINUOUS
10
0.264184
20
1.01074
11
0.266465
21
1.01198
0
LINE
8
BLACK
6
CONTINUOUS
10
0.266465
20
1.01198
11
0.269253
21
1.01179
0
LINE
8
BLACK
6
CONTINUOUS
10
0.269253
20
1.01179
11
0.271491
21
1.01011
0
LINE
8
BLACK
6
CONTINUOUS
10
0.271491
20
1.01011
11
0.272468
21
1.00749
0
LINE
8
BLACK
6
CONTINUOUS
10
0.272468
20
1.00749
11
0.27248
21
1.00714
0
LINE
8
BLACK
6
CONTINUOUS
10
0.27248
20
1.00714
11
0.27248
21
0.980585
0
LINE
8
BLACK
6
CONTINUOUS
10
0.27248
20
0.980585
11
0.272737
21
0.978201
0
LINE
8
BLACK
6
CONTINUOUS
10
0.272737
20
0.978201
11
0.272737
21
0.978201
0
LINE
8
BLACK
6
CONTINUOUS
10
0.272737
20
0.978201
11
0.274748
21
0.972807
0
LINE
8
BLACK
6
CONTINUOUS
10
0.274748
20
0.972807
11
0.274749
21
0.972807
0
LINE
8
BLACK
6
CONTINUOUS
10
0.274749
20
0.972807
11
0.278198
21
0.968198
0
LINE
8
BLACK
6
CONTINUOUS
10
0.278198
20
0.968198
11
0.280506
21
0.966471
0
LINE
8
BLACK
6
CONTINUOUS
10
0.280506
20
0.966471
11
0.282181
21
0.964234
0
LINE
8
BLACK
6
CONTINUOUS
10
0.282181
20
0.964234
11
0.28238
21
0.961446
0
LINE
8
BLACK
6
CONTINUOUS
10
0.28238
20
0.961446
11
0.28104
21
0.958992
0
LINE
8
BLACK
6
CONTINUOUS
10
0.28104
20
0.958992
11
0.280506
21
0.958529
0
LINE
8
BLACK
6
CONTINUOUS
10
0.280506
20
0.958529
11
0.278198
21
0.956802
0
LINE
8
BLACK
6
CONTINUOUS
10
0.278198
20
0.956802
11
0.274749
21
0.952193
0
LINE
8
BLACK
6
CONTINUOUS
10
0.274749
20
0.952193
11
0.274748
21
0.952193
0
LINE
8
BLACK
6
CONTINUOUS
10
0.274748
20
0.952193
11
0.272737
21
0.946799
0
LINE
8
BLACK
6
CONTINUOUS
10
0.272737
20
0.946799
11
0.272737
21
0.946799
0
LINE
8
BLACK
6
CONTINUOUS
10
0.272737
20
0.946799
11
0.27248
21
0.944415
0
LINE
8
BLACK
6
CONTINUOUS
10
0.27248
20
0.944415
11
0.27248
21
0.932902
0
LINE
8
BLACK
6
CONTINUOUS
10
0.27248
20
0.932902
11
0.271693
21
0.93022
0
LINE
8
BLACK
6
CONTINUOUS
10
0.271693
20
0.93022
11
0.271028
21
0.929395
0
LINE
8
BLACK
6
CONTINUOUS
10
0.271028
20
0.929395
11
0.26034
21
0.918707
0
LINE
8
BLACK
6
CONTINUOUS
10
0.26034
20
0.918707
11
0.253654
21
0.912021
0
LINE
8
BLACK
6
CONTINUOUS
10
0.253654
20
0.912021
11
0.25122
21
0.909707
0
LINE
8
BLACK
6
CONTINUOUS
10
0.25122
20
0.909707
11
0.249901
21
0.907812
0
LINE
8
BLACK
6
CONTINUOUS
10
0.249901
20
0.907812
11
0.249788
21
0.907662
0
LINE
8
BLACK
6
CONTINUOUS
10
0.249788
20
0.907662
11
0.249013
21
0.906713
0
LINE
8
BLACK
6
CONTINUOUS
10
0.249013
20
0.906713
11
0.248329
21
0.905873
0
LINE
8
BLACK
6
CONTINUOUS
10
0.248329
20
0.905873
11
0.247733
21
0.904733
0
LINE
8
BLACK
6
CONTINUOUS
10
0.247733
20
0.904733
11
0.24757
21
0.904464
0
LINE
8
BLACK
6
CONTINUOUS
10
0.24757
20
0.904464
11
0.246835
21
0.903408
0
LINE
8
BLACK
6
CONTINUOUS
10
0.246835
20
0.903408
11
0.245925
21
0.901286
0
LINE
8
BLACK
6
CONTINUOUS
10
0.245925
20
0.901286
11
0.245844
21
0.901116
0
LINE
8
BLACK
6
CONTINUOUS
10
0.245844
20
0.901116
11
0.244776
21
0.899071
0
LINE
8
BLACK
6
CONTINUOUS
10
0.244776
20
0.899071
11
0.244775
21
0.89907
0
LINE
8
BLACK
6
CONTINUOUS
10
0.244775
20
0.89907
11
0.244421
21
0.897834
0
LINE
8
BLACK
6
CONTINUOUS
10
0.244421
20
0.897834
11
0.244316
21
0.897538
0
LINE
8
BLACK
6
CONTINUOUS
10
0.244316
20
0.897538
11
0.243809
21
0.896355
0
LINE
8
BLACK
6
CONTINUOUS
10
0.243809
20
0.896355
11
0.243809
21
0.896355
0
LINE
8
BLACK
6
CONTINUOUS
10
0.243809
20
0.896355
11
0.243344
21
0.894094
0
LINE
8
BLACK
6
CONTINUOUS
10
0.243344
20
0.894094
11
0.243299
21
0.893911
0
LINE
8
BLACK
6
CONTINUOUS
10
0.243299
20
0.893911
11
0.242664
21
0.891692
0
LINE
8
BLACK
6
CONTINUOUS
10
0.242664
20
0.891692
11
0.242664
21
0.891692
0
LINE
8
BLACK
6
CONTINUOUS
10
0.242664
20
0.891692
11
0.242566
21
0.890409
0
LINE
8
BLACK
6
CONTINUOUS
10
0.242566
20
0.890409
11
0.242523
21
0.890098
0
LINE
8
BLACK
6
CONTINUOUS
10
0.242523
20
0.890098
11
0.242264
21
0.888837
0
LINE
8
BLACK
6
CONTINUOUS
10
0.242264
20
0.888837
11
0.242264
21
0.888837
0
LINE
8
BLACK
6
CONTINUOUS
10
0.242264
20
0.888837
11
0.242264
21
0.888251
0
LINE
8
BLACK
6
CONTINUOUS
10
0.242264
20
0.888251
11
0.241476
21
0.885569
0
LINE
8
BLACK
6
CONTINUOUS
10
0.241476
20
0.885569
11
0.239364
21
0.883739
0
LINE
8
BLACK
6
CONTINUOUS
10
0.239364
20
0.883739
11
0.236597
21
0.883341
0
LINE
8
BLACK
6
CONTINUOUS
10
0.236597
20
0.883341
11
0.23433
21
0.88428
0
LINE
8
BLACK
6
CONTINUOUS
10
0.23433
20
0.88428
11
0.234302
21
0.884301
0
LINE
8
BLACK
6
CONTINUOUS
10
0.234302
20
0.884301
11
0.234302
21
0.884302
0
LINE
8
BLACK
6
CONTINUOUS
10
0.234302
20
0.884302
11
0.229693
21
0.887752
0
LINE
8
BLACK
6
CONTINUOUS
10
0.229693
20
0.887752
11
0.224339
21
0.889748
0
LINE
8
BLACK
6
CONTINUOUS
10
0.224339
20
0.889748
11
0.224299
21
0.889763
0
LINE
8
BLACK
6
CONTINUOUS
10
0.224299
20
0.889763
11
0.224299
21
0.889763
0
LINE
8
BLACK
6
CONTINUOUS
10
0.224299
20
0.889763
11
0.224299
21
0.889763
0
LINE
8
BLACK
6
CONTINUOUS
10
0.224299
20
0.889763
11
0.224299
21
0.889763
0
LINE
8
BLACK
6
CONTINUOUS
10
0.224299
20
0.889763
11
0.224299
21
0.889763
0
LINE
8
BLACK
6
CONTINUOUS
10
0.224299
20
0.889763
11
0.221915
21
0.89002
0
LINE
8
BLACK
6
CONTINUOUS
10
0.221915
20
0.89002
11
0.221915
21
0.89002
0
LINE
8
BLACK
6
CONTINUOUS
10
0.221915
20
0.89002
11
0.221915
21
0.89002
0
LINE
8
BLACK
6
CONTINUOUS
10
0.221915
20
0.89002
11
0.158085
21
0.89002
0
LINE
8
BLACK
6
CONTINUOUS
10
0.158085
20
0.89002
11
0.158085
21
0.89002
0
LINE
8
BLACK
6
CONTINUOUS
10
0.158085
20
0.89002
11
0.158085
21
0.89002
0
LINE
8
BLACK
6
CONTINUOUS
10
0.158085
20
0.89002
11
0.155701
21
0.889763
0
LINE
8
BLACK
6
CONTINUOUS
10
0.155701
20
0.889763
11
0.155701
21
0.889763
0
LINE
8
BLACK
6
CONTINUOUS
10
0.155701
20
0.889763
11
0.153218
21
0.888837
0
LINE
8
BLACK
6
CONTINUOUS
10
0.153218
20
0.888837
11
0.150307
21
0.887752
0
LINE
8
BLACK
6
CONTINUOUS
10
0.150307
20
0.887752
11
0.150307
21
0.887751
0
LINE
8
BLACK
6
CONTINUOUS
10
0.150307
20
0.887751
11
0.150307
21
0.887751
0
LINE
8
BLACK
6
CONTINUOUS
10
0.150307
20
0.887751
11
0.145698
21
0.884302
0
LINE
8
BLACK
6
CONTINUOUS
10
0.145698
20
0.884302
11
0.143971
21
0.881994
0
LINE
8
BLACK
6
CONTINUOUS
10
0.143971
20
0.881994
11
0.141734
21
0.880319
0
LINE
8
BLACK
6
CONTINUOUS
10
0.141734
20
0.880319
11
0.138946
21
0.88012
0
LINE
8
BLACK
6
CONTINUOUS
10
0.138946
20
0.88012
11
0.136492
21
0.881459
0
LINE
8
BLACK
6
CONTINUOUS
10
0.136492
20
0.881459
11
0.136029
21
0.881994
0
LINE
8
BLACK
6
CONTINUOUS
10
0.136029
20
0.881994
11
0.134302
21
0.884302
0
LINE
8
BLACK
6
CONTINUOUS
10
0.134302
20
0.884302
11
0.129693
21
0.887751
0
LINE
8
BLACK
6
CONTINUOUS
10
0.129693
20
0.887751
11
0.129693
21
0.887751
0
LINE
8
BLACK
6
CONTINUOUS
10
0.129693
20
0.887751
11
0.129693
21
0.887752
0
LINE
8
BLACK
6
CONTINUOUS
10
0.129693
20
0.887752
11
0.124339
21
0.889748
0
LINE
8
BLACK
6
CONTINUOUS
10
0.124339
20
0.889748
11
0.124299
21
0.889763
0
LINE
8
BLACK
6
CONTINUOUS
10
0.124299
20
0.889763
11
0.124299
21
0.889763
0
LINE
8
BLACK
6
CONTINUOUS
10
0.124299
20
0.889763
11
0.124299
21
0.889763
0
LINE
8
BLACK
6
CONTINUOUS
10
0.124299
20
0.889763
11
0.124299
21
0.889763
0
LINE
8
BLACK
6
CONTINUOUS
10
0.124299
20
0.889763
11
0.124299
21
0.889763
0
LINE
8
BLACK
6
CONTINUOUS
10
0.124299
20
0.889763
11
0.121915
21
0.89002
0
LINE
8
BLACK
6
CONTINUOUS
10
0.121915
20
0.89002
11
0.121915
21
0.89002
0
LINE
8
BLACK
6
CONTINUOUS
10
0.121915
20
0.89002
11
0.121915
21
0.89002
0
LINE
8
BLACK
6
CONTINUOUS
10
0.121915
20
0.89002
11
0.0580851
21
0.89002
0
LINE
8
BLACK
6
CONTINUOUS
10
0.0580851
20
0.89002
11
0.0580848
21
0.89002
0
LINE
8
BLACK
6
CONTINUOUS
10
0.0580848
20
0.89002
11
0.0580846
21
0.89002
0
LINE
8
BLACK
6
CONTINUOUS
10
0.0580846
20
0.89002
11
0.0557009
21
0.889763
0
LINE
8
BLACK
6
CONTINUOUS
10
0.0557009
20
0.889763
11
0.0557006
21
0.889763
0
LINE
8
BLACK
6
CONTINUOUS
10
0.0557006
20
0.889763
11
0.0532182
21
0.888837
0
LINE
8
BLACK
6
CONTINUOUS
10
0.0532182
20
0.888837
11
0.0503069
21
0.887752
0
LINE
8
BLACK
6
CONTINUOUS
10
0.0503069
20
0.887752
11
0.0503069
21
0.887751
0
LINE
8
BLACK
6
CONTINUOUS
10
0.0503069
20
0.887751
11
0.0503068
21
0.887751
0
LINE
8
BLACK
6
CONTINUOUS
10
0.0503068
20
0.887751
11
0.0459055
21
0.884457
0
LINE
8
BLACK
6
CONTINUOUS
10
0.0459055
20
0.884457
11
0.0459055
21
0.795543
0
LINE
8
BLACK
6
CONTINUOUS
10
0.0459055
20
0.795543
11
0.0503068
21
0.792249
0
LINE
8
BLACK
6
CONTINUOUS
10
0.0503068
20
0.792249
11
0.050307
21
0.792248
0
LINE
8
BLACK
6
CONTINUOUS
10
0.050307
20
0.792248
11
0.0557006
21
0.790237
0
LINE
8
BLACK
6
CONTINUOUS
10
0.0557006
20
0.790237
11
0.0557009
21
0.790237
0
LINE
8
BLACK
6
CONTINUOUS
10
0.0557009
20
0.790237
11
0.0580846
21
0.78998
0
LINE
8
BLACK
6
CONTINUOUS
10
0.0580846
20
0.78998
11
0.0580851
21
0.78998
0
LINE
8
BLACK
6
CONTINUOUS
10
0.0580851
20
0.78998
11
0.121915
21
0.78998
0
LINE
8
BLACK
6
CONTINUOUS
10
0.121915
20
0.78998
11
0.124299
21
0.790237
0
LINE
8
BLACK
6
CONTINUOUS
10
0.124299
20
0.790237
11
0.124299
21
0.790237
0
LINE
8
BLACK
6
CONTINUOUS
10
0.124299
20
0.790237
11
0.129693
21
0.792248
0
LINE
8
BLACK
6
CONTINUOUS
10
0.129693
20
0.792248
11
0.129693
21
0.792249
0
LINE
8
BLACK
6
CONTINUOUS
10
0.129693
20
0.792249
11
0.134302
21
0.795698
0
LINE
8
BLACK
6
CONTINUOUS
10
0.134302
20
0.795698
11
0.136029
21
0.798006
0
LINE
8
BLACK
6
CONTINUOUS
10
0.136029
20
0.798006
11
0.138266
21
0.799681
0
LINE
8
BLACK
6
CONTINUOUS
10
0.138266
20
0.799681
11
0.141054
21
0.79988
0
LINE
8
BLACK
6
CONTINUOUS
10
0.141054
20
0.79988
11
0.143508
21
0.79854
0
LINE
8
BLACK
6
CONTINUOUS
10
0.143508
20
0.79854
11
0.143971
21
0.798006
0
LINE
8
BLACK
6
CONTINUOUS
10
0.143971
20
0.798006
11
0.145698
21
0.795698
0
LINE
8
BLACK
6
CONTINUOUS
10
0.145698
20
0.795698
11
0.150307
21
0.792249
0
LINE
8
BLACK
6
CONTINUOUS
10
0.150307
20
0.792249
11
0.150307
21
0.792248
0
LINE
8
BLACK
6
CONTINUOUS
10
0.150307
20
0.792248
11
0.155701
21
0.790237
0
LINE
8
BLACK
6
CONTINUOUS
10
0.155701
20
0.790237
11
0.155701
21
0.790237
0
LINE
8
BLACK
6
CONTINUOUS
10
0.155701
20
0.790237
11
0.158085
21
0.78998
0
LINE
8
BLACK
6
CONTINUOUS
10
0.158085
20
0.78998
11
0.158085
21
0.78998
0
LINE
8
BLACK
6
CONTINUOUS
10
0.158085
20
0.78998
11
0.221915
21
0.78998
0
LINE
8
BLACK
6
CONTINUOUS
10
0.221915
20
0.78998
11
0.224299
21
0.790237
0
LINE
8
BLACK
6
CONTINUOUS
10
0.224299
20
0.790237
11
0.224299
21
0.790237
0
LINE
8
BLACK
6
CONTINUOUS
10
0.224299
20
0.790237
11
0.229693
21
0.792248
0
LINE
8
BLACK
6
CONTINUOUS
10
0.229693
20
0.792248
11
0.229693
21
0.792249
0
LINE
8
BLACK
6
CONTINUOUS
10
0.229693
20
0.792249
11
0.234302
21
0.795698
0
LINE
8
BLACK
6
CONTINUOUS
10
0.234302
20
0.795698
11
0.237728
21
0.800276
0
LINE
8
BLACK
6
CONTINUOUS
10
0.237728
20
0.800276
11
0.239966
21
0.801951
0
LINE
8
BLACK
6
CONTINUOUS
10
0.239966
20
0.801951
11
0.2417
21
0.802264
0
LINE
8
BLACK
6
CONTINUOUS
10
0.2417
20
0.802264
11
0.242672
21
0.802264
0
LINE
8
BLACK
6
CONTINUOUS
10
0.242672
20
0.802264
11
0.245354
21
0.801476
0
LINE
8
BLACK
6
CONTINUOUS
10
0.245354
20
0.801476
11
0.246643
21
0.800276
0
LINE
8
BLACK
6
CONTINUOUS
10
0.246643
20
0.800276
11
0.248198
21
0.798198
0
LINE
8
BLACK
6
CONTINUOUS
10
0.248198
20
0.798198
11
0.252807
21
0.794749
0
LINE
8
BLACK
6
CONTINUOUS
10
0.252807
20
0.794749
11
0.252807
21
0.794748
0
LINE
8
BLACK
6
CONTINUOUS
10
0.252807
20
0.794748
11
0.258201
21
0.792737
0
LINE
8
BLACK
6
CONTINUOUS
10
0.258201
20
0.792737
11
0.258201
21
0.792737
0
LINE
8
BLACK
6
CONTINUOUS
10
0.258201
20
0.792737
11
0.260585
21
0.79248
0
LINE
8
BLACK
6
CONTINUOUS
10
0.260585
20
0.79248
11
0.260585
21
0.79248
0
LINE
8
BLACK
6
CONTINUOUS
10
0.260585
20
0.79248
11
0.299415
21
0.79248
0
LINE
8
BLACK
6
CONTINUOUS
10
0.299415
20
0.79248
11
0.301799
21
0.792737
0
LINE
8
BLACK
6
CONTINUOUS
10
0.301799
20
0.792737
11
0.301799
21
0.792737
0
LINE
8
BLACK
6
CONTINUOUS
10
0.301799
20
0.792737
11
0.307193
21
0.794748
0
LINE
8
BLACK
6
CONTINUOUS
10
0.307193
20
0.794748
11
0.307193
21
0.794749
0
LINE
8
BLACK
6
CONTINUOUS
10
0.307193
20
0.794749
11
0.311802
21
0.798198
0
LINE
8
BLACK
6
CONTINUOUS
10
0.311802
20
0.798198
11
0.315251
21
0.802807
0
LINE
8
BLACK
6
CONTINUOUS
10
0.315251
20
0.802807
11
0.315252
21
0.802807
0
LINE
8
BLACK
6
CONTINUOUS
10
0.315252
20
0.802807
11
0.315746
21
0.804132
0
LINE
8
BLACK
6
CONTINUOUS
10
0.315746
20
0.804132
11
0.316331
21
0.805701
0
LINE
8
BLACK
6
CONTINUOUS
10
0.316331
20
0.805701
11
0.317263
21
0.808201
0
LINE
8
BLACK
6
CONTINUOUS
10
0.317263
20
0.808201
11
0.317263
21
0.808201
0
LINE
8
BLACK
6
CONTINUOUS
10
0.317263
20
0.808201
11
0.31752
21
0.810585
0
LINE
8
BLACK
6
CONTINUOUS
10
0.31752
20
0.810585
11
0.31752
21
0.810585
0
LINE
8
BLACK
6
CONTINUOUS
10
0.31752
20
0.810585
11
0.31752
21
0.834605
0
LINE
8
BLACK
6
CONTINUOUS
10
0.31752
20
0.834605
11
0.317621
21
0.835603
0
LINE
8
BLACK
6
CONTINUOUS
10
0.317621
20
0.835603
11
0.317736
21
0.836162
0
LINE
8
BLACK
6
CONTINUOUS
10
0.317736
20
0.836162
11
0.317736
21
0.836163
0
LINE
8
BLACK
6
CONTINUOUS
10
0.317736
20
0.836163
11
0.317736
21
0.838981
0
LINE
8
BLACK
6
CONTINUOUS
10
0.317736
20
0.838981
11
0.317739
21
0.839107
0
LINE
8
BLACK
6
CONTINUOUS
10
0.317739
20
0.839107
11
0.317804
21
0.840387
0
LINE
8
BLACK
6
CONTINUOUS
10
0.317804
20
0.840387
11
0.317882
21
0.841921
0
LINE
8
BLACK
6
CONTINUOUS
10
0.317882
20
0.841921
11
0.317793
21
0.8425
0
LINE
8
BLACK
6
CONTINUOUS
10
0.317793
20
0.8425
11
0.317736
21
0.843251
0
LINE
8
BLACK
6
CONTINUOUS
10
0.317736
20
0.843251
11
0.317736
21
0.867314
0
LINE
8
BLACK
6
CONTINUOUS
10
0.317736
20
0.867314
11
0.318524
21
0.869996
0
LINE
8
BLACK
6
CONTINUOUS
10
0.318524
20
0.869996
11
0.319189
21
0.870822
0
LINE
8
BLACK
6
CONTINUOUS
10
0.319189
20
0.870822
11
0.334394
21
0.886027
0
LINE
8
BLACK
6
CONTINUOUS
10
0.334394
20
0.886027
11
0.336848
21
0.887367
0
LINE
8
BLACK
6
CONTINUOUS
10
0.336848
20
0.887367
11
0.337902
21
0.88748
0
LINE
8
BLACK
6
CONTINUOUS
10
0.337902
20
0.88748
11
0.349415
21
0.88748
0
LINE
8
BLACK
6
CONTINUOUS
10
0.349415
20
0.88748
11
0.351799
21
0.887737
0
LINE
8
BLACK
6
CONTINUOUS
10
0.351799
20
0.887737
11
0.351799
21
0.887737
0
LINE
8
BLACK
6
CONTINUOUS
10
0.351799
20
0.887737
11
0.357193
21
0.889748
0
LINE
8
BLACK
6
CONTINUOUS
10
0.357193
20
0.889748
11
0.357193
21
0.889749
0
LINE
8
BLACK
6
CONTINUOUS
10
0.357193
20
0.889749
11
0.361802
21
0.893198
0
LINE
8
BLACK
6
CONTINUOUS
10
0.361802
20
0.893198
11
0.365251
21
0.897807
0
LINE
8
BLACK
6
CONTINUOUS
10
0.365251
20
0.897807
11
0.365252
21
0.897807
0
LINE
8
BLACK
6
CONTINUOUS
10
0.365252
20
0.897807
11
0.367263
21
0.903201
0
LINE
8
BLACK
6
CONTINUOUS
10
0.367263
20
0.903201
11
0.367263
21
0.903201
0
LINE
8
BLACK
6
CONTINUOUS
10
0.367263
20
0.903201
11
0.36752
21
0.905585
0
LINE
8
BLACK
6
CONTINUOUS
10
0.36752
20
0.905585
11
0.36752
21
0.905585
0
LINE
8
BLACK
6
CONTINUOUS
10
0.36752
20
0.905585
11
0.36752
21
0.944415
0
LINE
8
BLACK
6
CONTINUOUS
10
0.36752
20
0.944415
11
0.36752
21
0.944415
0
LINE
8
BLACK
6
CONTINUOUS
10
0.36752
20
0.944415
11
0.367234
21
0.947074
0
LINE
8
BLACK
6
CONTINUOUS
10
0.367234
20
0.947074
11
0.36773
21
0.949824
0
LINE
8
BLACK
6
CONTINUOUS
10
0.36773
20
0.949824
11
0.369635
21
0.95187
0
LINE
8
BLACK
6
CONTINUOUS
10
0.369635
20
0.95187
11
0.372343
21
0.952561
0
LINE
8
BLACK
6
CONTINUOUS
10
0.372343
20
0.952561
11
0.374995
21
0.951679
0
LINE
8
BLACK
6
CONTINUOUS
10
0.374995
20
0.951679
11
0.375301
21
0.951449
0
LINE
8
BLACK
6
CONTINUOUS
10
0.375301
20
0.951449
11
0.379127
21
0.948329
0
LINE
8
BLACK
6
CONTINUOUS
10
0.379127
20
0.948329
11
0.385929
21
0.944776
0
LINE
8
BLACK
6
CONTINUOUS
10
0.385929
20
0.944776
11
0.38593
21
0.944775
0
LINE
8
BLACK
6
CONTINUOUS
10
0.38593
20
0.944775
11
0.393308
21
0.942664
0
LINE
8
BLACK
6
CONTINUOUS
10
0.393308
20
0.942664
11
0.393308
21
0.942664
0
LINE
8
BLACK
6
CONTINUOUS
10
0.393308
20
0.942664
11
0.393417
21
0.942656
0
LINE
8
BLACK
6
CONTINUOUS
10
0.393417
20
0.942656
11
0.393474
21
0.942634
0
LINE
8
BLACK
6
CONTINUOUS
10
0.393474
20
0.942634
11
0.393556
21
0.94262
0
LINE
8
BLACK
6
CONTINUOUS
10
0.393556
20
0.94262
11
0.393553
21
0.942604
0
LINE
8
BLACK
6
CONTINUOUS
10
0.393553
20
0.942604
11
0.396032
21
0.941667
0
LINE
8
BLACK
6
CONTINUOUS
10
0.396032
20
0.941667
11
0.397696
21
0.939422
0
LINE
8
BLACK
6
CONTINUOUS
10
0.397696
20
0.939422
11
0.397883
21
0.936633
0
LINE
8
BLACK
6
CONTINUOUS
10
0.397883
20
0.936633
11
0.397012
21
0.934737
0
LINE
8
BLACK
6
CONTINUOUS
10
0.397012
20
0.934737
11
0.395004
21
0.932055
0
LINE
8
BLACK
6
CONTINUOUS
10
0.395004
20
0.932055
11
0.395004
21
0.932055
0
LINE
8
BLACK
6
CONTINUOUS
10
0.395004
20
0.932055
11
0.392993
21
0.926662
0
LINE
8
BLACK
6
CONTINUOUS
10
0.392993
20
0.926662
11
0.392992
21
0.926661
0
LINE
8
BLACK
6
CONTINUOUS
10
0.392992
20
0.926661
11
0.392736
21
0.924278
0
LINE
8
BLACK
6
CONTINUOUS
10
0.392736
20
0.924278
11
0.392736
21
0.861392
0
LINE
8
BLACK
6
CONTINUOUS
10
0.392736
20
0.861392
11
0.392992
21
0.859008
0
LINE
8
BLACK
6
CONTINUOUS
10
0.392992
20
0.859008
11
0.392993
21
0.859008
0
LINE
8
BLACK
6
CONTINUOUS
10
0.392993
20
0.859008
11
0.395004
21
0.853614
0
LINE
8
BLACK
6
CONTINUOUS
10
0.395004
20
0.853614
11
0.395004
21
0.853614
0
LINE
8
BLACK
6
CONTINUOUS
10
0.395004
20
0.853614
11
0.398454
21
0.849005
0
LINE
8
BLACK
6
CONTINUOUS
10
0.398454
20
0.849005
11
0.403063
21
0.845556
0
LINE
8
BLACK
6
CONTINUOUS
10
0.403063
20
0.845556
11
0.403063
21
0.845556
0
LINE
8
BLACK
6
CONTINUOUS
10
0.403063
20
0.845556
11
0.408456
21
0.843544
0
LINE
8
BLACK
6
CONTINUOUS
10
0.408456
20
0.843544
11
0.408457
21
0.843544
0
LINE
8
BLACK
6
CONTINUOUS
10
0.408457
20
0.843544
11
0.410841
21
0.843287
0
LINE
8
BLACK
6
CONTINUOUS
10
0.410841
20
0.843287
11
0.410841
21
0.843287
0
LINE
8
BLACK
6
CONTINUOUS
10
0.410841
20
0.843287
11
0.422652
21
0.843287
0
LINE
8
BLACK
6
CONTINUOUS
10
0.422652
20
0.843287
11
0.425012
21
0.843287
0
LINE
8
BLACK
6
CONTINUOUS
10
0.425012
20
0.843287
11
0.427694
21
0.8425
0
LINE
8
BLACK
6
CONTINUOUS
10
0.427694
20
0.8425
11
0.429525
21
0.840387
0
LINE
8
BLACK
6
CONTINUOUS
10
0.429525
20
0.840387
11
0.429945
21
0.838857
0
LINE
8
BLACK
6
CONTINUOUS
10
0.429945
20
0.838857
11
0.43
21
0.838339
0
LINE
8
BLACK
6
CONTINUOUS
10
0.43
20
0.838339
11
0.43
21
0.838338
0
LINE
8
BLACK
6
CONTINUOUS
10
0.43
20
0.838338
11
0.432012
21
0.832945
0
LINE
8
BLACK
6
CONTINUOUS
10
0.432012
20
0.832945
11
0.432012
21
0.832945
0
LINE
8
BLACK
6
CONTINUOUS
10
0.432012
20
0.832945
11
0.435462
21
0.828336
0
LINE
8
BLACK
6
CONTINUOUS
10
0.435462
20
0.828336
11
0.440071
21
0.824886
0
LINE
8
BLACK
6
CONTINUOUS
10
0.440071
20
0.824886
11
0.440071
21
0.824886
0
LINE
8
BLACK
6
CONTINUOUS
10
0.440071
20
0.824886
11
0.445464
21
0.822874
0
LINE
8
BLACK
6
CONTINUOUS
10
0.445464
20
0.822874
11
0.445465
21
0.822874
0
LINE
8
BLACK
6
CONTINUOUS
10
0.445465
20
0.822874
11
0.447848
21
0.822618
0
LINE
8
BLACK
6
CONTINUOUS
10
0.447848
20
0.822618
11
0.447849
21
0.822618
0
LINE
8
BLACK
6
CONTINUOUS
10
0.447849
20
0.822618
11
0.4574
21
0.822618
0
LINE
8
BLACK
6
CONTINUOUS
10
0.4574
20
0.822618
11
0.460082
21
0.821831
0
LINE
8
BLACK
6
CONTINUOUS
10
0.460082
20
0.821831
11
0.461371
21
0.82063
0
LINE
8
BLACK
6
CONTINUOUS
10
0.461371
20
0.82063
11
0.462234
21
0.819478
0
LINE
8
BLACK
6
CONTINUOUS
10
0.462234
20
0.819478
11
0.466842
21
0.816028
0
LINE
8
BLACK
6
CONTINUOUS
10
0.466842
20
0.816028
11
0.466842
21
0.816028
0
LINE
8
BLACK
6
CONTINUOUS
10
0.466842
20
0.816028
11
0.472236
21
0.814016
0
LINE
8
BLACK
6
CONTINUOUS
10
0.472236
20
0.814016
11
0.472236
21
0.814016
0
LINE
8
BLACK
6
CONTINUOUS
10
0.472236
20
0.814016
11
0.47462
21
0.81376
0
LINE
8
BLACK
6
CONTINUOUS
10
0.47462
20
0.81376
11
0.474621
21
0.81376
0
LINE
8
BLACK
6
CONTINUOUS
10
0.474621
20
0.81376
11
0.479345
21
0.81376
0
LINE
8
BLACK
6
CONTINUOUS
10
0.479345
20
0.81376
11
0.494915
21
0.81376
0
LINE
8
BLACK
6
CONTINUOUS
10
0.494915
20
0.81376
11
0.497597
21
0.812972
0
LINE
8
BLACK
6
CONTINUOUS
10
0.497597
20
0.812972
11
0.497888
21
0.81277
0
LINE
8
BLACK
6
CONTINUOUS
10
0.497888
20
0.81277
11
0.50011
21
0.811107
0
LINE
8
BLACK
6
CONTINUOUS
10
0.50011
20
0.811107
11
0.50011
21
0.811107
0
LINE
8
BLACK
6
CONTINUOUS
10
0.50011
20
0.811107
11
0.505504
21
0.809095
0
LINE
8
BLACK
6
CONTINUOUS
10
0.505504
20
0.809095
11
0.505504
21
0.809095
0
LINE
8
BLACK
6
CONTINUOUS
10
0.505504
20
0.809095
11
0.507888
21
0.808839
0
LINE
8
BLACK
6
CONTINUOUS
10
0.507888
20
0.808839
11
0.507888
21
0.808839
0
LINE
8
BLACK
6
CONTINUOUS
10
0.507888
20
0.808839
11
0.509803
21
0.808839
0
LINE
8
BLACK
6
CONTINUOUS
10
0.509803
20
0.808839
11
0.509803
21
0.811142
0
LINE
8
BLACK
6
CONTINUOUS
10
0.509803
20
0.811142
11
0.545236
21
0.811142
0
LINE
8
BLACK
6
CONTINUOUS
10
0.545236
20
0.811142
11
0.545236
21
0.808839
0
LINE
8
BLACK
6
CONTINUOUS
10
0.545236
20
0.808839
11
0.547151
21
0.808839
0
LINE
8
BLACK
6
CONTINUOUS
10
0.547151
20
0.808839
11
0.547151
21
0.808839
0
LINE
8
BLACK
6
CONTINUOUS
10
0.547151
20
0.808839
11
0.547151
21
0.808839
0
LINE
8
BLACK
6
CONTINUOUS
10
0.547151
20
0.808839
11
0.547152
21
0.808839
0
LINE
8
BLACK
6
CONTINUOUS
10
0.547152
20
0.808839
11
0.549253
21
0.809065
0
LINE
8
BLACK
6
CONTINUOUS
10
0.549253
20
0.809065
11
0.552004
21
0.808568
0
LINE
8
BLACK
6
CONTINUOUS
10
0.552004
20
0.808568
11
0.55405
21
0.806664
0
LINE
8
BLACK
6
CONTINUOUS
10
0.55405
20
0.806664
11
0.554744
21
0.804132
0
LINE
8
BLACK
6
CONTINUOUS
10
0.554744
20
0.804132
11
0.554744
21
0.77773
0
LINE
8
BLACK
6
CONTINUOUS
10
0.554744
20
0.77773
11
0.555
21
0.775347
0
LINE
8
BLACK
6
CONTINUOUS
10
0.555
20
0.775347
11
0.555
21
0.775346
0
LINE
8
BLACK
6
CONTINUOUS
10
0.555
20
0.775346
11
0.556203
21
0.772122
0
LINE
8
BLACK
6
CONTINUOUS
10
0.556203
20
0.772122
11
0.556516
21
0.770389
0
LINE
8
BLACK
6
CONTINUOUS
10
0.556516
20
0.770389
11
0.556516
21
0.74525
0
LINE
8
BLACK
6
CONTINUOUS
10
0.556516
20
0.74525
11
0.556772
21
0.742866
0
LINE
8
BLACK
6
CONTINUOUS
10
0.556772
20
0.742866
11
0.556772
21
0.742866
0
LINE
8
BLACK
6
CONTINUOUS
10
0.556772
20
0.742866
11
0.558784
21
0.737472
0
LINE
8
BLACK
6
CONTINUOUS
10
0.558784
20
0.737472
11
0.558784
21
0.737472
0
LINE
8
BLACK
6
CONTINUOUS
10
0.558784
20
0.737472
11
0.562234
21
0.732864
0
LINE
8
BLACK
6
CONTINUOUS
10
0.562234
20
0.732864
11
0.566842
21
0.729414
0
LINE
8
BLACK
6
CONTINUOUS
10
0.566842
20
0.729414
11
0.56698
21
0.729339
0
LINE
8
BLACK
6
CONTINUOUS
10
0.56698
20
0.729339
11
0.567091
21
0.729228
0
LINE
8
BLACK
6
CONTINUOUS
10
0.567091
20
0.729228
11
0.567126
21
0.729201
0
LINE
8
BLACK
6
CONTINUOUS
10
0.567126
20
0.729201
11
0.567123
21
0.729196
0
LINE
8
BLACK
6
CONTINUOUS
10
0.567123
20
0.729196
11
0.568956
21
0.727362
0
LINE
8
BLACK
6
CONTINUOUS
10
0.568956
20
0.727362
11
0.56955
21
0.724631
0
LINE
8
BLACK
6
CONTINUOUS
10
0.56955
20
0.724631
11
0.568574
21
0.722012
0
LINE
8
BLACK
6
CONTINUOUS
10
0.568574
20
0.722012
11
0.56811
21
0.721477
0
LINE
8
BLACK
6
CONTINUOUS
10
0.56811
20
0.721477
11
0.551963
21
0.70533
0
LINE
8
BLACK
6
CONTINUOUS
10
0.551963
20
0.70533
11
0.550337
21
0.703336
0
LINE
8
BLACK
6
CONTINUOUS
10
0.550337
20
0.703336
11
0.548329
21
0.700873
0
LINE
8
BLACK
6
CONTINUOUS
10
0.548329
20
0.700873
11
0.544775
21
0.69407
0
LINE
8
BLACK
6
CONTINUOUS
10
0.544775
20
0.69407
11
0.543933
21
0.691125
0
LINE
8
BLACK
6
CONTINUOUS
10
0.543933
20
0.691125
11
0.543113
21
0.68826
0
LINE
8
BLACK
6
CONTINUOUS
10
0.543113
20
0.68826
11
0.542664
21
0.686692
0
LINE
8
BLACK
6
CONTINUOUS
10
0.542664
20
0.686692
11
0.542081
21
0.679039
0
LINE
8
BLACK
6
CONTINUOUS
10
0.542081
20
0.679039
11
0.542081
21
0.679039
0
LINE
8
BLACK
6
CONTINUOUS
10
0.542081
20
0.679039
11
0.543051
21
0.671426
0
LINE
8
BLACK
6
CONTINUOUS
10
0.543051
20
0.671426
11
0.543051
21
0.671426
0
LINE
8
BLACK
6
CONTINUOUS
10
0.543051
20
0.671426
11
0.543051
21
0.671426
0
LINE
8
BLACK
6
CONTINUOUS
10
0.543051
20
0.671426
11
0.54404
21
0.668534
0
LINE
8
BLACK
6
CONTINUOUS
10
0.54404
20
0.668534
11
0.545533
21
0.664164
0
LINE
8
BLACK
6
CONTINUOUS
10
0.545533
20
0.664164
11
0.545533
21
0.664163
0
LINE
8
BLACK
6
CONTINUOUS
10
0.545533
20
0.664163
11
0.549427
21
0.65755
0
LINE
8
BLACK
6
CONTINUOUS
10
0.549427
20
0.65755
11
0.554572
21
0.651855
0
LINE
8
BLACK
6
CONTINUOUS
10
0.554572
20
0.651855
11
0.554572
21
0.651855
0
LINE
8
BLACK
6
CONTINUOUS
10
0.554572
20
0.651855
11
0.560758
21
0.647312
0
LINE
8
BLACK
6
CONTINUOUS
10
0.560758
20
0.647312
11
0.560758
21
0.647312
0
LINE
8
BLACK
6
CONTINUOUS
10
0.560758
20
0.647312
11
0.567732
21
0.644108
0
LINE
8
BLACK
6
CONTINUOUS
10
0.567732
20
0.644108
11
0.575208
21
0.642373
0
LINE
8
BLACK
6
CONTINUOUS
10
0.575208
20
0.642373
11
0.58288
21
0.642179
0
LINE
8
BLACK
6
CONTINUOUS
10
0.58288
20
0.642179
11
0.58288
21
0.642179
0
LINE
8
BLACK
6
CONTINUOUS
10
0.58288
20
0.642179
11
0.58288
21
0.642179
0
LINE
8
BLACK
6
CONTINUOUS
10
0.58288
20
0.642179
11
0.588738
21
0.643229
0
LINE
8
BLACK
6
CONTINUOUS
10
0.588738
20
0.643229
11
0.590435
21
0.643533
0
LINE
8
BLACK
6
CONTINUOUS
10
0.590435
20
0.643533
11
0.590435
21
0.643533
0
LINE
8
BLACK
6
CONTINUOUS
10
0.590435
20
0.643533
11
0.597562
21
0.64638
0
LINE
8
BLACK
6
CONTINUOUS
10
0.597562
20
0.64638
11
0.597562
21
0.64638
0
LINE
8
BLACK
6
CONTINUOUS
10
0.597562
20
0.64638
11
0.60397
21
0.650603
0
LINE
8
BLACK
6
CONTINUOUS
10
0.60397
20
0.650603
11
0.60397
21
0.650603
0
LINE
8
BLACK
6
CONTINUOUS
10
0.60397
20
0.650603
11
0.60397
21
0.650603
0
LINE
8
BLACK
6
CONTINUOUS
10
0.60397
20
0.650603
11
0.613795
21
0.660428
0
LINE
8
BLACK
6
CONTINUOUS
10
0.613795
20
0.660428
11
0.616249
21
0.661768
0
LINE
8
BLACK
6
CONTINUOUS
10
0.616249
20
0.661768
11
0.619037
21
0.661569
0
LINE
8
BLACK
6
CONTINUOUS
10
0.619037
20
0.661569
11
0.621274
21
0.659893
0
LINE
8
BLACK
6
CONTINUOUS
10
0.621274
20
0.659893
11
0.622251
21
0.657275
0
LINE
8
BLACK
6
CONTINUOUS
10
0.622251
20
0.657275
11
0.622264
21
0.656921
0
LINE
8
BLACK
6
CONTINUOUS
10
0.622264
20
0.656921
11
0.622264
21
0.597695
0
LINE
8
BLACK
6
CONTINUOUS
10
0.622264
20
0.597695
11
0.621476
21
0.595013
0
LINE
8
BLACK
6
CONTINUOUS
10
0.621476
20
0.595013
11
0.620059
21
0.593571
0
LINE
8
BLACK
6
CONTINUOUS
10
0.620059
20
0.593571
11
0.615754
21
0.590694
0
LINE
8
BLACK
6
CONTINUOUS
10
0.615754
20
0.590694
11
0.606991
21
0.583009
0
LINE
8
BLACK
6
CONTINUOUS
10
0.606991
20
0.583009
11
0.599306
21
0.574246
0
LINE
8
BLACK
6
CONTINUOUS
10
0.599306
20
0.574246
11
0.599306
21
0.574245
0
LINE
8
BLACK
6
CONTINUOUS
10
0.599306
20
0.574245
11
0.599305
21
0.574245
0
LINE
8
BLACK
6
CONTINUOUS
10
0.599305
20
0.574245
11
0.59283
21
0.564554
0
LINE
8
BLACK
6
CONTINUOUS
10
0.59283
20
0.564554
11
0.587675
21
0.5541
0
LINE
8
BLACK
6
CONTINUOUS
10
0.587675
20
0.5541
11
0.587675
21
0.5541
0
LINE
8
BLACK
6
CONTINUOUS
10
0.587675
20
0.5541
11
0.583928
21
0.543063
0
LINE
8
BLACK
6
CONTINUOUS
10
0.583928
20
0.543063
11
0.583928
21
0.543063
0
LINE
8
BLACK
6
CONTINUOUS
10
0.583928
20
0.543063
11
0.583928
21
0.543063
0
LINE
8
BLACK
6
CONTINUOUS
10
0.583928
20
0.543063
11
0.583613
21
0.541476
0
LINE
8
BLACK
6
CONTINUOUS
10
0.583613
20
0.541476
11
0.581654
21
0.531631
0
LINE
8
BLACK
6
CONTINUOUS
10
0.581654
20
0.531631
11
0.581654
21
0.531631
0
LINE
8
BLACK
6
CONTINUOUS
10
0.581654
20
0.531631
11
0.580892
21
0.52
0
LINE
8
BLACK
6
CONTINUOUS
10
0.580892
20
0.52
11
0.580892
21
0.52
0
LINE
8
BLACK
6
CONTINUOUS
10
0.580892
20
0.52
11
0.581654
21
0.508369
0
LINE
8
BLACK
6
CONTINUOUS
10
0.581654
20
0.508369
11
0.581654
21
0.508369
0
LINE
8
BLACK
6
CONTINUOUS
10
0.581654
20
0.508369
11
0.583928
21
0.496937
0
LINE
8
BLACK
6
CONTINUOUS
10
0.583928
20
0.496937
11
0.583928
21
0.496937
0
LINE
8
BLACK
6
CONTINUOUS
10
0.583928
20
0.496937
11
0.587675
21
0.4859
0
LINE
8
BLACK
6
CONTINUOUS
10
0.587675
20
0.4859
11
0.587675
21
0.4859
0
LINE
8
BLACK
6
CONTINUOUS
10
0.587675
20
0.4859
11
0.59283
21
0.475446
0
LINE
8
BLACK
6
CONTINUOUS
10
0.59283
20
0.475446
11
0.599305
21
0.465755
0
LINE
8
BLACK
6
CONTINUOUS
10
0.599305
20
0.465755
11
0.599306
21
0.465755
0
LINE
8
BLACK
6
CONTINUOUS
10
0.599306
20
0.465755
11
0.599306
21
0.465754
0
LINE
8
BLACK
6
CONTINUOUS
10
0.599306
20
0.465754
11
0.606991
21
0.456991
0
LINE
8
BLACK
6
CONTINUOUS
10
0.606991
20
0.456991
11
0.615754
21
0.449306
0
LINE
8
BLACK
6
CONTINUOUS
10
0.615754
20
0.449306
11
0.615755
21
0.449306
0
LINE
8
BLACK
6
CONTINUOUS
10
0.615755
20
0.449306
11
0.615755
21
0.449305
0
LINE
8
BLACK
6
CONTINUOUS
10
0.615755
20
0.449305
11
0.625446
21
0.44283
0
LINE
8
BLACK
6
CONTINUOUS
10
0.625446
20
0.44283
11
0.6359
21
0.437675
0
LINE
8
BLACK
6
CONTINUOUS
10
0.6359
20
0.437675
11
0.6359
21
0.437675
0
LINE
8
BLACK
6
CONTINUOUS
10
0.6359
20
0.437675
11
0.646937
21
0.433928
0
LINE
8
BLACK
6
CONTINUOUS
10
0.646937
20
0.433928
11
0.646937
21
0.433928
0
LINE
8
BLACK
6
CONTINUOUS
10
0.646937
20
0.433928
11
0.646937
21
0.433928
0
LINE
8
BLACK
6
CONTINUOUS
10
0.646937
20
0.433928
11
0.648851
21
0.433547
0
LINE
8
BLACK
6
CONTINUOUS
10
0.648851
20
0.433547
11
0.658369
21
0.431654
0
LINE
8
BLACK
6
CONTINUOUS
10
0.658369
20
0.431654
11
0.658369
21
0.431654
0
LINE
8
BLACK
6
CONTINUOUS
10
0.658369
20
0.431654
11
0.67
21
0.430892
0
LINE
8
BLACK
6
CONTINUOUS
10
0.67
20
0.430892
11
0.67
21
0.430892
0
LINE
8
BLACK
6
CONTINUOUS
10
0.67
20
0.430892
11
0.67
21
0.430892
0
LINE
8
BLACK
6
CONTINUOUS
10
0.67
20
0.430892
11
0.681631
21
0.431654
0
LINE
8
BLACK
6
CONTINUOUS
10
0.681631
20
0.431654
11
0.681631
21
0.431654
0
LINE
8
BLACK
6
CONTINUOUS
10
0.681631
20
0.431654
11
0.689235
21
0.433167
0
LINE
8
BLACK
6
CONTINUOUS
10
0.689235
20
0.433167
11
0.693063
21
0.433928
0
LINE
8
BLACK
6
CONTINUOUS
10
0.693063
20
0.433928
11
0.693063
21
0.433928
0
LINE
8
BLACK
6
CONTINUOUS
10
0.693063
20
0.433928
11
0.693063
21
0.433928
0
LINE
8
BLACK
6
CONTINUOUS
10
0.693063
20
0.433928
11
0.7041
21
0.437675
0
LINE
8
BLACK
6
CONTINUOUS
10
0.7041
20
0.437675
11
0.7041
21
0.437675
0
LINE
8
BLACK
6
CONTINUOUS
10
0.7041
20
0.437675
11
0.7041
21
0.437675
0
LINE
8
BLACK
6
CONTINUOUS
10
0.7041
20
0.437675
11
0.704866
21
0.438052
0
LINE
8
BLACK
6
CONTINUOUS
10
0.704866
20
0.438052
11
0.714554
21
0.44283
0
LINE
8
BLACK
6
CONTINUOUS
10
0.714554
20
0.44283
11
0.724245
21
0.449305
0
LINE
8
BLACK
6
CONTINUOUS
10
0.724245
20
0.449305
11
0.724245
21
0.449306
0
LINE
8
BLACK
6
CONTINUOUS
10
0.724245
20
0.449306
11
0.724246
21
0.449306
0
LINE
8
BLACK
6
CONTINUOUS
10
0.724246
20
0.449306
11
0.733009
21
0.456991
0
LINE
8
BLACK
6
CONTINUOUS
10
0.733009
20
0.456991
11
0.740694
21
0.465754
0
LINE
8
BLACK
6
CONTINUOUS
10
0.740694
20
0.465754
11
0.74717
21
0.475446
0
LINE
8
BLACK
6
CONTINUOUS
10
0.74717
20
0.475446
11
0.752325
21
0.4859
0
LINE
8
BLACK
6
CONTINUOUS
10
0.752325
20
0.4859
11
0.756072
21
0.496937
0
LINE
8
BLACK
6
CONTINUOUS
10
0.756072
20
0.496937
11
0.758346
21
0.508369
0
LINE
8
BLACK
6
CONTINUOUS
10
0.758346
20
0.508369
11
0.759108
21
0.52
0
LINE
8
BLACK
6
CONTINUOUS
10
0.759108
20
0.52
11
0.758346
21
0.531631
0
LINE
8
BLACK
6
CONTINUOUS
10
0.758346
20
0.531631
11
0.756072
21
0.543063
0
LINE
8
BLACK
6
CONTINUOUS
10
0.756072
20
0.543063
11
0.752325
21
0.5541
0
LINE
8
BLACK
6
CONTINUOUS
10
0.752325
20
0.5541
11
0.74717
21
0.564554
0
LINE
8
BLACK
6
CONTINUOUS
10
0.74717
20
0.564554
11
0.740694
21
0.574246
0
LINE
8
BLACK
6
CONTINUOUS
10
0.740694
20
0.574246
11
0.733009
21
0.583009
0
LINE
8
BLACK
6
CONTINUOUS
10
0.733009
20
0.583009
11
0.724246
21
0.590694
0
LINE
8
BLACK
6
CONTINUOUS
10
0.724246
20
0.590694
11
0.714554
21
0.59717
0
LINE
8
BLACK
6
CONTINUOUS
10
0.714554
20
0.59717
11
0.7041
21
0.602325
0
LINE
8
BLACK
6
CONTINUOUS
10
0.7041
20
0.602325
11
0.701102
21
0.603343
0
LINE
8
BLACK
6
CONTINUOUS
10
0.701102
20
0.603343
11
0.698816
21
0.604951
0
LINE
8
BLACK
6
CONTINUOUS
10
0.698816
20
0.604951
11
0.697762
21
0.607539
0
LINE
8
BLACK
6
CONTINUOUS
10
0.697762
20
0.607539
11
0.697736
21
0.60804
0
LINE
8
BLACK
6
CONTINUOUS
10
0.697736
20
0.60804
11
0.697736
21
0.674001
0
LINE
8
BLACK
6
CONTINUOUS
10
0.697736
20
0.674001
11
0.698524
21
0.676683
0
LINE
8
BLACK
6
CONTINUOUS
10
0.698524
20
0.676683
11
0.700636
21
0.678513
0
LINE
8
BLACK
6
CONTINUOUS
10
0.700636
20
0.678513
11
0.700963
21
0.678649
0
LINE
8
BLACK
6
CONTINUOUS
10
0.700963
20
0.678649
11
0.705126
21
0.680201
0
LINE
8
BLACK
6
CONTINUOUS
10
0.705126
20
0.680201
11
0.705126
21
0.680201
0
LINE
8
BLACK
6
CONTINUOUS
10
0.705126
20
0.680201
11
0.709735
21
0.683651
0
LINE
8
BLACK
6
CONTINUOUS
10
0.709735
20
0.683651
11
0.713185
21
0.68826
0
LINE
8
BLACK
6
CONTINUOUS
10
0.713185
20
0.68826
11
0.713185
21
0.68826
0
LINE
8
BLACK
6
CONTINUOUS
10
0.713185
20
0.68826
11
0.715196
21
0.693653
0
LINE
8
BLACK
6
CONTINUOUS
10
0.715196
20
0.693653
11
0.715196
21
0.693654
0
LINE
8
BLACK
6
CONTINUOUS
10
0.715196
20
0.693654
11
0.715453
21
0.696037
0
LINE
8
BLACK
6
CONTINUOUS
10
0.715453
20
0.696037
11
0.715453
21
0.696038
0
LINE
8
BLACK
6
CONTINUOUS
10
0.715453
20
0.696038
11
0.715453
21
0.696292
0
LINE
8
BLACK
6
CONTINUOUS
10
0.715453
20
0.696292
11
0.71624
21
0.698974
0
LINE
8
BLACK
6
CONTINUOUS
10
0.71624
20
0.698974
11
0.717441
21
0.700263
0
LINE
8
BLACK
6
CONTINUOUS
10
0.717441
20
0.700263
11
0.721546
21
0.703336
0
LINE
8
BLACK
6
CONTINUOUS
10
0.721546
20
0.703336
11
0.724996
21
0.707945
0
LINE
8
BLACK
6
CONTINUOUS
10
0.724996
20
0.707945
11
0.724996
21
0.707945
0
LINE
8
BLACK
6
CONTINUOUS
10
0.724996
20
0.707945
11
0.727007
21
0.713338
0
LINE
8
BLACK
6
CONTINUOUS
10
0.727007
20
0.713338
11
0.727007
21
0.713339
0
LINE
8
BLACK
6
CONTINUOUS
10
0.727007
20
0.713339
11
0.727264
21
0.715722
0
LINE
8
BLACK
6
CONTINUOUS
10
0.727264
20
0.715722
11
0.727264
21
0.715723
0
LINE
8
BLACK
6
CONTINUOUS
10
0.727264
20
0.715723
11
0.727264
21
0.778608
0
LINE
8
BLACK
6
CONTINUOUS
10
0.727264
20
0.778608
11
0.727264
21
0.778608
0
LINE
8
BLACK
6
CONTINUOUS
10
0.727264
20
0.778608
11
0.727007
21
0.780992
0
LINE
8
BLACK
6
CONTINUOUS
10
0.727007
20
0.780992
11
0.727007
21
0.780992
0
LINE
8
BLACK
6
CONTINUOUS
10
0.727007
20
0.780992
11
0.724996
21
0.786386
0
LINE
8
BLACK
6
CONTINUOUS
10
0.724996
20
0.786386
11
0.724996
21
0.786386
0
LINE
8
BLACK
6
CONTINUOUS
10
0.724996
20
0.786386
11
0.724995
21
0.786386
0
LINE
8
BLACK
6
CONTINUOUS
10
0.724995
20
0.786386
11
0.724914
21
0.786535
0
LINE
8
BLACK
6
CONTINUOUS
10
0.724914
20
0.786535
11
0.724878
21
0.786701
0
LINE
8
BLACK
6
CONTINUOUS
10
0.724878
20
0.786701
11
0.724872
21
0.786718
0
LINE
8
BLACK
6
CONTINUOUS
10
0.724872
20
0.786718
11
0.724874
21
0.786719
0
LINE
8
BLACK
6
CONTINUOUS
10
0.724874
20
0.786719
11
0.72432
21
0.789266
0
LINE
8
BLACK
6
CONTINUOUS
10
0.72432
20
0.789266
11
0.725297
21
0.791885
0
LINE
8
BLACK
6
CONTINUOUS
10
0.725297
20
0.791885
11
0.72585
21
0.792508
0
LINE
8
BLACK
6
CONTINUOUS
10
0.72585
20
0.792508
11
0.72878
21
0.795293
0
LINE
8
BLACK
6
CONTINUOUS
10
0.72878
20
0.795293
11
0.729063
21
0.795698
0
LINE
8
BLACK
6
CONTINUOUS
10
0.729063
20
0.795698
11
0.733165
21
0.801592
0
LINE
8
BLACK
6
CONTINUOUS
10
0.733165
20
0.801592
11
0.733686
21
0.802807
0
LINE
8
BLACK
6
CONTINUOUS
10
0.733686
20
0.802807
11
0.736191
21
0.808645
0
LINE
8
BLACK
6
CONTINUOUS
10
0.736191
20
0.808645
11
0.737736
21
0.816163
0
LINE
8
BLACK
6
CONTINUOUS
10
0.737736
20
0.816163
11
0.737736
21
0.852357
0
LINE
8
BLACK
6
CONTINUOUS
10
0.737736
20
0.852357
11
0.737821
21
0.855715
0
LINE
8
BLACK
6
CONTINUOUS
10
0.737821
20
0.855715
11
0.737414
21
0.857987
0
LINE
8
BLACK
6
CONTINUOUS
10
0.737414
20
0.857987
11
0.737388
21
0.858174
0
LINE
8
BLACK
6
CONTINUOUS
10
0.737388
20
0.858174
11
0.737154
21
0.86047
0
LINE
8
BLACK
6
CONTINUOUS
10
0.737154
20
0.86047
11
0.737001
21
0.86096
0
LINE
8
BLACK
6
CONTINUOUS
10
0.737001
20
0.86096
11
0.736769
21
0.861698
0
LINE
8
BLACK
6
CONTINUOUS
10
0.736769
20
0.861698
11
0.736694
21
0.862003
0
LINE
8
BLACK
6
CONTINUOUS
10
0.736694
20
0.862003
11
0.736467
21
0.863269
0
LINE
8
BLACK
6
CONTINUOUS
10
0.736467
20
0.863269
11
0.736467
21
0.863269
0
LINE
8
BLACK
6
CONTINUOUS
10
0.736467
20
0.863269
11
0.735611
21
0.865413
0
LINE
8
BLACK
6
CONTINUOUS
10
0.735611
20
0.865413
11
0.735548
21
0.865591
0
LINE
8
BLACK
6
CONTINUOUS
10
0.735548
20
0.865591
11
0.734857
21
0.867793
0
LINE
8
BLACK
6
CONTINUOUS
10
0.734857
20
0.867793
11
0.734857
21
0.867793
0
LINE
8
BLACK
6
CONTINUOUS
10
0.734857
20
0.867793
11
0.734232
21
0.868919
0
LINE
8
BLACK
6
CONTINUOUS
10
0.734232
20
0.868919
11
0.734098
21
0.869201
0
LINE
8
BLACK
6
CONTINUOUS
10
0.734098
20
0.869201
11
0.73362
21
0.870396
0
LINE
8
BLACK
6
CONTINUOUS
10
0.73362
20
0.870396
11
0.732349
21
0.872325
0
LINE
8
BLACK
6
CONTINUOUS
10
0.732349
20
0.872325
11
0.732253
21
0.872484
0
LINE
8
BLACK
6
CONTINUOUS
10
0.732253
20
0.872484
11
0.731132
21
0.874503
0
LINE
8
BLACK
6
CONTINUOUS
10
0.731132
20
0.874503
11
0.730294
21
0.875479
0
LINE
8
BLACK
6
CONTINUOUS
10
0.730294
20
0.875479
11
0.730105
21
0.875731
0
LINE
8
BLACK
6
CONTINUOUS
10
0.730105
20
0.875731
11
0.729397
21
0.876805
0
LINE
8
BLACK
6
CONTINUOUS
10
0.729397
20
0.876805
11
0.728717
21
0.877485
0
LINE
8
BLACK
6
CONTINUOUS
10
0.728717
20
0.877485
11
0.727377
21
0.879938
0
LINE
8
BLACK
6
CONTINUOUS
10
0.727377
20
0.879938
11
0.727264
21
0.880993
0
LINE
8
BLACK
6
CONTINUOUS
10
0.727264
20
0.880993
11
0.727264
21
0.924277
0
LINE
8
BLACK
6
CONTINUOUS
10
0.727264
20
0.924277
11
0.727264
21
0.924278
0
LINE
8
BLACK
6
CONTINUOUS
10
0.727264
20
0.924278
11
0.727007
21
0.926661
0
LINE
8
BLACK
6
CONTINUOUS
10
0.727007
20
0.926661
11
0.727007
21
0.926662
0
LINE
8
BLACK
6
CONTINUOUS
10
0.727007
20
0.926662
11
0.726731
21
0.927403
0
LINE
8
BLACK
6
CONTINUOUS
10
0.726731
20
0.927403
11
0.724996
21
0.932055
0
LINE
8
BLACK
6
CONTINUOUS
10
0.724996
20
0.932055
11
0.721546
21
0.936664
0
LINE
8
BLACK
6
CONTINUOUS
10
0.721546
20
0.936664
11
0.717441
21
0.939737
0
LINE
8
BLACK
6
CONTINUOUS
10
0.717441
20
0.939737
11
0.715766
21
0.941975
0
LINE
8
BLACK
6
CONTINUOUS
10
0.715766
20
0.941975
11
0.715453
21
0.943708
0
LINE
8
BLACK
6
CONTINUOUS
10
0.715453
20
0.943708
11
0.715453
21
0.943962
0
LINE
8
BLACK
6
CONTINUOUS
10
0.715453
20
0.943962
11
0.715453
21
0.943963
0
LINE
8
BLACK
6
CONTINUOUS
10
0.715453
20
0.943963
11
0.715196
21
0.946346
0
LINE
8
BLACK
6
CONTINUOUS
10
0.715196
20
0.946346
11
0.715196
21
0.946347
0
LINE
8
BLACK
6
CONTINUOUS
10
0.715196
20
0.946347
11
0.714457
21
0.948329
0
LINE
8
BLACK
6
CONTINUOUS
10
0.714457
20
0.948329
11
0.713185
21
0.95174
0
LINE
8
BLACK
6
CONTINUOUS
10
0.713185
20
0.95174
11
0.713087
21
0.95187
0
LINE
8
BLACK
6
CONTINUOUS
10
0.713087
20
0.95187
11
0.709735
21
0.956349
0
LINE
8
BLACK
6
CONTINUOUS
10
0.709735
20
0.956349
11
0.705126
21
0.959799
0
LINE
8
BLACK
6
CONTINUOUS
10
0.705126
20
0.959799
11
0.705126
21
0.959799
0
LINE
8
BLACK
6
CONTINUOUS
10
0.705126
20
0.959799
11
0.705126
21
0.959799
0
LINE
8
BLACK
6
CONTINUOUS
10
0.705126
20
0.959799
11
0.699732
21
0.961811
0
LINE
8
BLACK
6
CONTINUOUS
10
0.699732
20
0.961811
11
0.699732
21
0.961811
0
LINE
8
BLACK
6
CONTINUOUS
10
0.699732
20
0.961811
11
0.699732
21
0.961811
0
LINE
8
BLACK
6
CONTINUOUS
10
0.699732
20
0.961811
11
0.697348
21
0.962067
0
LINE
8
BLACK
6
CONTINUOUS
10
0.697348
20
0.962067
11
0.697348
21
0.962067
0
LINE
8
BLACK
6
CONTINUOUS
10
0.697348
20
0.962067
11
0.697348
21
0.962067
0
LINE
8
BLACK
6
CONTINUOUS
10
0.697348
20
0.962067
11
0.697348
21
0.962067
0
LINE
8
BLACK
6
CONTINUOUS
10
0.697348
20
0.962067
11
0.685197
21
0.962067
0
LINE
8
BLACK
6
CONTINUOUS
10
0.685197
20
0.962067
11
0.682515
21
0.962854
0
LINE
8
BLACK
6
CONTINUOUS
10
0.682515
20
0.962854
11
0.680684
21
0.964967
0
LINE
8
BLACK
6
CONTINUOUS
10
0.680684
20
0.964967
11
0.680236
21
0.967028
0
LINE
8
BLACK
6
CONTINUOUS
10
0.680236
20
0.967028
11
0.680236
21
0.998981
0
LINE
8
BLACK
6
CONTINUOUS
10
0.680236
20
0.998981
11
0.680239
21
0.999107
0
LINE
8
BLACK
6
CONTINUOUS
10
0.680239
20
0.999107
11
0.6803
21
1.00031
0
LINE
8
BLACK
6
CONTINUOUS
10
0.6803
20
1.00031
11
0.680382
21
1.00192
0
LINE
8
BLACK
6
CONTINUOUS
10
0.680382
20
1.00192
11
0.680077
21
1.00391
0
LINE
8
BLACK
6
CONTINUOUS
10
0.680077
20
1.00391
11
0.68002
21
1.00466
0
LINE
8
BLACK
6
CONTINUOUS
10
0.68002
20
1.00466
11
0.68002
21
1.02941
0
LINE
8
BLACK
6
CONTINUOUS
10
0.68002
20
1.02941
11
0.68002
21
1.02942
0
LINE
8
BLACK
6
CONTINUOUS
10
0.68002
20
1.02942
11
0.679763
21
1.0318
0
LINE
8
BLACK
6
CONTINUOUS
10
0.679763
20
1.0318
11
0.679763
21
1.0318
0
LINE
8
BLACK
6
CONTINUOUS
10
0.679763
20
1.0318
11
0.678701
21
1.03465
0
LINE
8
BLACK
6
CONTINUOUS
10
0.678701
20
1.03465
11
0.677752
21
1.03719
0
LINE
8
BLACK
6
CONTINUOUS
10
0.677752
20
1.03719
11
0.67742
21
1.03764
0
LINE
8
BLACK
6
CONTINUOUS
10
0.67742
20
1.03764
11
0.674302
21
1.0418
0
LINE
8
BLACK
6
CONTINUOUS
10
0.674302
20
1.0418
11
0.669693
21
1.04525
0
LINE
8
BLACK
6
CONTINUOUS
10
0.669693
20
1.04525
11
0.669693
21
1.04525
0
LINE
8
BLACK
6
CONTINUOUS
10
0.669693
20
1.04525
11
0.669693
21
1.04525
0
LINE
8
BLACK
6
CONTINUOUS
10
0.669693
20
1.04525
11
0.664299
21
1.04726
0
LINE
8
BLACK
6
CONTINUOUS
10
0.664299
20
1.04726
11
0.664299
21
1.04726
0
LINE
8
BLACK
6
CONTINUOUS
10
0.664299
20
1.04726
11
0.664299
21
1.04726
0
LINE
8
BLACK
6
CONTINUOUS
10
0.664299
20
1.04726
11
0.661915
21
1.04752
0
LINE
8
BLACK
6
CONTINUOUS
10
0.661915
20
1.04752
11
0.661915
21
1.04752
0
LINE
8
BLACK
6
CONTINUOUS
10
0.661915
20
1.04752
11
0.661915
21
1.04752
0
LINE
8
BLACK
6
CONTINUOUS
10
0.661915
20
1.04752
11
0.623085
21
1.04752
0
LINE
8
BLACK
6
CONTINUOUS
10
0.623085
20
1.04752
11
0.623085
21
1.04752
0
LINE
8
BLACK
6
CONTINUOUS
10
0.623085
20
1.04752
11
0.623085
21
1.04752
0
LINE
8
BLACK
6
CONTINUOUS
10
0.623085
20
1.04752
11
0.620701
21
1.04726
0
LINE
8
BLACK
6
CONTINUOUS
10
0.620701
20
1.04726
11
0.620701
21
1.04726
0
LINE
8
BLACK
6
CONTINUOUS
10
0.620701
20
1.04726
11
0.618298
21
1.04637
0
LINE
8
BLACK
6
CONTINUOUS
10
0.618298
20
1.04637
11
0.615307
21
1.04525
0
LINE
8
BLACK
6
CONTINUOUS
10
0.615307
20
1.04525
11
0.615307
21
1.04525
0
LINE
8
BLACK
6
CONTINUOUS
10
0.615307
20
1.04525
11
0.615307
21
1.04525
0
LINE
8
BLACK
6
CONTINUOUS
10
0.615307
20
1.04525
11
0.610702
21
1.0418
0
LINE
8
BLACK
6
CONTINUOUS
10
0.610702
20
1.0418
11
0.610698
21
1.0418
0
LINE
8
BLACK
6
CONTINUOUS
10
0.610698
20
1.0418
11
0.609173
21
1.03976
0
LINE
8
BLACK
6
CONTINUOUS
10
0.609173
20
1.03976
11
0.609143
21
1.03972
0
LINE
8
BLACK
6
CONTINUOUS
10
0.609143
20
1.03972
11
0.606906
21
1.03805
0
LINE
8
BLACK
6
CONTINUOUS
10
0.606906
20
1.03805
11
0.605172
21
1.03774
0
LINE
8
BLACK
6
CONTINUOUS
10
0.605172
20
1.03774
11
0.598129
21
1.03774
0
LINE
8
BLACK
6
CONTINUOUS
10
0.598129
20
1.03774
11
0.596396
21
1.03805
0
LINE
8
BLACK
6
CONTINUOUS
10
0.596396
20
1.03805
11
0.591799
21
1.03976
0
LINE
8
BLACK
6
CONTINUOUS
10
0.591799
20
1.03976
11
0.591799
21
1.03976
0
LINE
8
BLACK
6
CONTINUOUS
10
0.591799
20
1.03976
11
0.591799
21
1.03976
0
LINE
8
BLACK
6
CONTINUOUS
10
0.591799
20
1.03976
11
0.589415
21
1.04002
0
LINE
8
BLACK
6
CONTINUOUS
10
0.589415
20
1.04002
11
0.589415
21
1.04002
0
LINE
8
BLACK
6
CONTINUOUS
10
0.589415
20
1.04002
11
0.589415
21
1.04002
0
LINE
8
BLACK
6
CONTINUOUS
10
0.589415
20
1.04002
11
0.589415
21
1.04002
0
LINE
8
BLACK
6
CONTINUOUS
10
0.589415
20
1.04002
11
0.564372
21
1.04002
0
LINE
8
BLACK
6
CONTINUOUS
10
0.564372
20
1.04002
11
0.564184
21
1.04003
0
LINE
8
BLACK
6
CONTINUOUS
10
0.564184
20
1.04003
11
0.559039
21
1.04042
0
LINE
8
BLACK
6
CONTINUOUS
10
0.559039
20
1.04042
11
0.556062
21
1.04004
0
LINE
8
BLACK
6
CONTINUOUS
10
0.556062
20
1.04004
11
0.555749
21
1.04002
0
LINE
8
BLACK
6
CONTINUOUS
10
0.555749
20
1.04002
11
0.530585
21
1.04002
0
LINE
8
BLACK
6
CONTINUOUS
10
0.530585
20
1.04002
11
0.530585
21
1.04002
0
LINE
8
BLACK
6
CONTINUOUS
10
0.530585
20
1.04002
11
0.530585
21
1.04002
0
LINE
8
BLACK
6
CONTINUOUS
10
0.530585
20
1.04002
11
0.528201
21
1.03976
0
LINE
8
BLACK
6
CONTINUOUS
10
0.528201
20
1.03976
11
0.528201
21
1.03976
0
LINE
8
BLACK
6
CONTINUOUS
10
0.528201
20
1.03976
11
0.525133
21
1.03862
0
LINE
8
BLACK
6
CONTINUOUS
10
0.525133
20
1.03862
11
0.522807
21
1.03775
0
LINE
8
BLACK
6
CONTINUOUS
10
0.522807
20
1.03775
11
0.522807
21
1.03775
0
LINE
8
BLACK
6
CONTINUOUS
10
0.522807
20
1.03775
11
0.522807
21
1.03775
0
LINE
8
BLACK
6
CONTINUOUS
10
0.522807
20
1.03775
11
0.518198
21
1.0343
0
LINE
8
BLACK
6
CONTINUOUS
10
0.518198
20
1.0343
11
0.514749
21
1.02969
0
LINE
8
BLACK
6
CONTINUOUS
10
0.514749
20
1.02969
11
0.514748
21
1.02969
0
LINE
8
BLACK
6
CONTINUOUS
10
0.514748
20
1.02969
11
0.512737
21
1.0243
0
LINE
8
BLACK
6
CONTINUOUS
10
0.512737
20
1.0243
11
0.512737
21
1.0243
0
LINE
8
BLACK
6
CONTINUOUS
10
0.512737
20
1.0243
11
0.51248
21
1.02192
0
LINE
8
BLACK
6
CONTINUOUS
10
0.51248
20
1.02192
11
0.51248
21
0.983085
0
LINE
8
BLACK
6
CONTINUOUS
10
0.51248
20
0.983085
11
0.512737
21
0.980701
0
LINE
8
BLACK
6
CONTINUOUS
10
0.512737
20
0.980701
11
0.512737
21
0.980701
0
LINE
8
BLACK
6
CONTINUOUS
10
0.512737
20
0.980701
11
0.514748
21
0.975307
0
LINE
8
BLACK
6
CONTINUOUS
10
0.514748
20
0.975307
11
0.514749
21
0.975307
0
LINE
8
BLACK
6
CONTINUOUS
10
0.514749
20
0.975307
11
0.518198
21
0.970698
0
LINE
8
BLACK
6
CONTINUOUS
10
0.518198
20
0.970698
11
0.522807
21
0.967249
0
LINE
8
BLACK
6
CONTINUOUS
10
0.522807
20
0.967249
11
0.522807
21
0.967248
0
LINE
8
BLACK
6
CONTINUOUS
10
0.522807
20
0.967248
11
0.528201
21
0.965237
0
LINE
8
BLACK
6
CONTINUOUS
10
0.528201
20
0.965237
11
0.528201
21
0.965237
0
LINE
8
BLACK
6
CONTINUOUS
10
0.528201
20
0.965237
11
0.530585
21
0.96498
0
LINE
8
BLACK
6
CONTINUOUS
10
0.530585
20
0.96498
11
0.530585
21
0.96498
0
LINE
8
BLACK
6
CONTINUOUS
10
0.530585
20
0.96498
11
0.547018
21
0.96498
0
LINE
8
BLACK
6
CONTINUOUS
10
0.547018
20
0.96498
11
0.548383
21
0.964789
0
LINE
8
BLACK
6
CONTINUOUS
10
0.548383
20
0.964789
11
0.549666
21
0.964421
0
LINE
8
BLACK
6
CONTINUOUS
10
0.549666
20
0.964421
11
0.549962
21
0.964316
0
LINE
8
BLACK
6
CONTINUOUS
10
0.549962
20
0.964316
11
0.551145
21
0.963809
0
LINE
8
BLACK
6
CONTINUOUS
10
0.551145
20
0.963809
11
0.551145
21
0.963809
0
LINE
8
BLACK
6
CONTINUOUS
10
0.551145
20
0.963809
11
0.553406
21
0.963344
0
LINE
8
BLACK
6
CONTINUOUS
10
0.553406
20
0.963344
11
0.553589
21
0.963299
0
LINE
8
BLACK
6
CONTINUOUS
10
0.553589
20
0.963299
11
0.555808
21
0.962664
0
LINE
8
BLACK
6
CONTINUOUS
10
0.555808
20
0.962664
11
0.555809
21
0.962664
0
LINE
8
BLACK
6
CONTINUOUS
10
0.555809
20
0.962664
11
0.557091
21
0.962566
0
LINE
8
BLACK
6
CONTINUOUS
10
0.557091
20
0.962566
11
0.557402
21
0.962523
0
LINE
8
BLACK
6
CONTINUOUS
10
0.557402
20
0.962523
11
0.558663
21
0.962264
0
LINE
8
BLACK
6
CONTINUOUS
10
0.558663
20
0.962264
11
0.560971
21
0.962264
0
LINE
8
BLACK
6
CONTINUOUS
10
0.560971
20
0.962264
11
0.561159
21
0.962257
0
LINE
8
BLACK
6
CONTINUOUS
10
0.561159
20
0.962257
11
0.562541
21
0.962151
0
LINE
8
BLACK
6
CONTINUOUS
10
0.562541
20
0.962151
11
0.563461
21
0.962081
0
LINE
8
BLACK
6
CONTINUOUS
10
0.563461
20
0.962081
11
0.563461
21
0.962081
0
LINE
8
BLACK
6
CONTINUOUS
10
0.563461
20
0.962081
11
0.563461
21
0.962081
0
LINE
8
BLACK
6
CONTINUOUS
10
0.563461
20
0.962081
11
0.564054
21
0.962157
0
LINE
8
BLACK
6
CONTINUOUS
10
0.564054
20
0.962157
11
0.564738
21
0.962244
0
LINE
8
BLACK
6
CONTINUOUS
10
0.564738
20
0.962244
11
0.565051
21
0.962264
0
LINE
8
BLACK
6
CONTINUOUS
10
0.565051
20
0.962264
11
0.599803
21
0.962264
0
LINE
8
BLACK
6
CONTINUOUS
10
0.599803
20
0.962264
11
0.602485
21
0.961476
0
LINE
8
BLACK
6
CONTINUOUS
10
0.602485
20
0.961476
11
0.604316
21
0.959364
0
LINE
8
BLACK
6
CONTINUOUS
10
0.604316
20
0.959364
11
0.604764
21
0.957303
0
LINE
8
BLACK
6
CONTINUOUS
10
0.604764
20
0.957303
11
0.604764
21
0.946109
0
LINE
8
BLACK
6
CONTINUOUS
10
0.604764
20
0.946109
11
0.60475
21
0.945844
0
LINE
8
BLACK
6
CONTINUOUS
10
0.60475
20
0.945844
11
0.604547
21
0.943962
0
LINE
8
BLACK
6
CONTINUOUS
10
0.604547
20
0.943962
11
0.604547
21
0.943708
0
LINE
8
BLACK
6
CONTINUOUS
10
0.604547
20
0.943708
11
0.60376
21
0.941026
0
LINE
8
BLACK
6
CONTINUOUS
10
0.60376
20
0.941026
11
0.602559
21
0.939737
0
LINE
8
BLACK
6
CONTINUOUS
10
0.602559
20
0.939737
11
0.598454
21
0.936664
0
LINE
8
BLACK
6
CONTINUOUS
10
0.598454
20
0.936664
11
0.595004
21
0.932055
0
LINE
8
BLACK
6
CONTINUOUS
10
0.595004
20
0.932055
11
0.595004
21
0.932055
0
LINE
8
BLACK
6
CONTINUOUS
10
0.595004
20
0.932055
11
0.592993
21
0.926662
0
LINE
8
BLACK
6
CONTINUOUS
10
0.592993
20
0.926662
11
0.592992
21
0.926661
0
LINE
8
BLACK
6
CONTINUOUS
10
0.592992
20
0.926661
11
0.592736
21
0.924278
0
LINE
8
BLACK
6
CONTINUOUS
10
0.592736
20
0.924278
11
0.592736
21
0.920768
0
LINE
8
BLACK
6
CONTINUOUS
10
0.592736
20
0.920768
11
0.591949
21
0.918086
0
LINE
8
BLACK
6
CONTINUOUS
10
0.591949
20
0.918086
11
0.589836
21
0.916255
0
LINE
8
BLACK
6
CONTINUOUS
10
0.589836
20
0.916255
11
0.587776
21
0.915807
0
LINE
8
BLACK
6
CONTINUOUS
10
0.587776
20
0.915807
11
0.583676
21
0.915807
0
LINE
8
BLACK
6
CONTINUOUS
10
0.583676
20
0.915807
11
0.583675
21
0.915807
0
LINE
8
BLACK
6
CONTINUOUS
10
0.583675
20
0.915807
11
0.583675
21
0.915807
0
LINE
8
BLACK
6
CONTINUOUS
10
0.583675
20
0.915807
11
0.581291
21
0.915551
0
LINE
8
BLACK
6
CONTINUOUS
10
0.581291
20
0.915551
11
0.581291
21
0.915551
0
LINE
8
BLACK
6
CONTINUOUS
10
0.581291
20
0.915551
11
0.578223
21
0.914406
0
LINE
8
BLACK
6
CONTINUOUS
10
0.578223
20
0.914406
11
0.575897
21
0.913539
0
LINE
8
BLACK
6
CONTINUOUS
10
0.575897
20
0.913539
11
0.575897
21
0.913539
0
LINE
8
BLACK
6
CONTINUOUS
10
0.575897
20
0.913539
11
0.575586
21
0.913369
0
LINE
8
BLACK
6
CONTINUOUS
10
0.575586
20
0.913369
11
0.575527
21
0.913477
0
LINE
8
BLACK
6
CONTINUOUS
10
0.575527
20
0.913477
11
0.573691
21
0.912754
0
LINE
8
BLACK
6
CONTINUOUS
10
0.573691
20
0.912754
11
0.572236
21
0.912598
0
LINE
8
BLACK
6
CONTINUOUS
10
0.572236
20
0.912598
11
0.572236
21
0.912598
0
LINE
8
BLACK
6
CONTINUOUS
10
0.572236
20
0.912598
11
0.569168
21
0.911454
0
LINE
8
BLACK
6
CONTINUOUS
10
0.569168
20
0.911454
11
0.566842
21
0.910586
0
LINE
8
BLACK
6
CONTINUOUS
10
0.566842
20
0.910586
11
0.562973
21
0.907689
0
LINE
8
BLACK
6
CONTINUOUS
10
0.562973
20
0.907689
11
0.560354
21
0.906713
0
LINE
8
BLACK
6
CONTINUOUS
10
0.560354
20
0.906713
11
0.557623
21
0.907307
0
LINE
8
BLACK
6
CONTINUOUS
10
0.557623
20
0.907307
11
0.557027
21
0.907689
0
LINE
8
BLACK
6
CONTINUOUS
10
0.557027
20
0.907689
11
0.553158
21
0.910586
0
LINE
8
BLACK
6
CONTINUOUS
10
0.553158
20
0.910586
11
0.547764
21
0.912598
0
LINE
8
BLACK
6
CONTINUOUS
10
0.547764
20
0.912598
11
0.547764
21
0.912598
0
LINE
8
BLACK
6
CONTINUOUS
10
0.547764
20
0.912598
11
0.547764
21
0.912598
0
LINE
8
BLACK
6
CONTINUOUS
10
0.547764
20
0.912598
11
0.546309
21
0.912754
0
LINE
8
BLACK
6
CONTINUOUS
10
0.546309
20
0.912754
11
0.544473
21
0.913477
0
LINE
8
BLACK
6
CONTINUOUS
10
0.544473
20
0.913477
11
0.544414
21
0.913369
0
LINE
8
BLACK
6
CONTINUOUS
10
0.544414
20
0.913369
11
0.544103
21
0.913539
0
LINE
8
BLACK
6
CONTINUOUS
10
0.544103
20
0.913539
11
0.544103
21
0.913539
0
LINE
8
BLACK
6
CONTINUOUS
10
0.544103
20
0.913539
11
0.538709
21
0.915551
0
LINE
8
BLACK
6
CONTINUOUS
10
0.538709
20
0.915551
11
0.538709
21
0.915551
0
LINE
8
BLACK
6
CONTINUOUS
10
0.538709
20
0.915551
11
0.538709
21
0.915551
0
LINE
8
BLACK
6
CONTINUOUS
10
0.538709
20
0.915551
11
0.536325
21
0.915807
0
LINE
8
BLACK
6
CONTINUOUS
10
0.536325
20
0.915807
11
0.536325
21
0.915807
0
LINE
8
BLACK
6
CONTINUOUS
10
0.536325
20
0.915807
11
0.536324
21
0.915807
0
LINE
8
BLACK
6
CONTINUOUS
10
0.536324
20
0.915807
11
0.536324
21
0.915807
0
LINE
8
BLACK
6
CONTINUOUS
10
0.536324
20
0.915807
11
0.532224
21
0.915807
0
LINE
8
BLACK
6
CONTINUOUS
10
0.532224
20
0.915807
11
0.529542
21
0.916595
0
LINE
8
BLACK
6
CONTINUOUS
10
0.529542
20
0.916595
11
0.527712
21
0.918707
0
LINE
8
BLACK
6
CONTINUOUS
10
0.527712
20
0.918707
11
0.527264
21
0.920768
0
LINE
8
BLACK
6
CONTINUOUS
10
0.527264
20
0.920768
11
0.527264
21
0.924277
0
LINE
8
BLACK
6
CONTINUOUS
10
0.527264
20
0.924277
11
0.527264
21
0.924278
0
LINE
8
BLACK
6
CONTINUOUS
10
0.527264
20
0.924278
11
0.527007
21
0.926661
0
LINE
8
BLACK
6
CONTINUOUS
10
0.527007
20
0.926661
11
0.527007
21
0.926662
0
LINE
8
BLACK
6
CONTINUOUS
10
0.527007
20
0.926662
11
0.526731
21
0.927403
0
LINE
8
BLACK
6
CONTINUOUS
10
0.526731
20
0.927403
11
0.524996
21
0.932055
0
LINE
8
BLACK
6
CONTINUOUS
10
0.524996
20
0.932055
11
0.521546
21
0.936664
0
LINE
8
BLACK
6
CONTINUOUS
10
0.521546
20
0.936664
11
0.517441
21
0.939737
0
LINE
8
BLACK
6
CONTINUOUS
10
0.517441
20
0.939737
11
0.515765
21
0.941974
0
LINE
8
BLACK
6
CONTINUOUS
10
0.515765
20
0.941974
11
0.515453
21
0.943708
0
LINE
8
BLACK
6
CONTINUOUS
10
0.515453
20
0.943708
11
0.515453
21
0.943962
0
LINE
8
BLACK
6
CONTINUOUS
10
0.515453
20
0.943962
11
0.515453
21
0.943963
0
LINE
8
BLACK
6
CONTINUOUS
10
0.515453
20
0.943963
11
0.515196
21
0.946346
0
LINE
8
BLACK
6
CONTINUOUS
10
0.515196
20
0.946346
11
0.515196
21
0.946347
0
LINE
8
BLACK
6
CONTINUOUS
10
0.515196
20
0.946347
11
0.514457
21
0.948329
0
LINE
8
BLACK
6
CONTINUOUS
10
0.514457
20
0.948329
11
0.513185
21
0.95174
0
LINE
8
BLACK
6
CONTINUOUS
10
0.513185
20
0.95174
11
0.513087
21
0.95187
0
LINE
8
BLACK
6
CONTINUOUS
10
0.513087
20
0.95187
11
0.509735
21
0.956349
0
LINE
8
BLACK
6
CONTINUOUS
10
0.509735
20
0.956349
11
0.505126
21
0.959799
0
LINE
8
BLACK
6
CONTINUOUS
10
0.505126
20
0.959799
11
0.505126
21
0.959799
0
LINE
8
BLACK
6
CONTINUOUS
10
0.505126
20
0.959799
11
0.505126
21
0.959799
0
LINE
8
BLACK
6
CONTINUOUS
10
0.505126
20
0.959799
11
0.500963
21
0.961351
0
LINE
8
BLACK
6
CONTINUOUS
10
0.500963
20
0.961351
11
0.498726
21
0.963026
0
LINE
8
BLACK
6
CONTINUOUS
10
0.498726
20
0.963026
11
0.497749
21
0.965645
0
LINE
8
BLACK
6
CONTINUOUS
10
0.497749
20
0.965645
11
0.497736
21
0.965999
0
LINE
8
BLACK
6
CONTINUOUS
10
0.497736
20
0.965999
11
0.497736
21
1.02952
0
LINE
8
BLACK
6
CONTINUOUS
10
0.497736
20
1.02952
11
0.497741
21
1.02969
0
LINE
8
BLACK
6
CONTINUOUS
10
0.497741
20
1.02969
11
0.497821
21
1.03288
0
LINE
8
BLACK
6
CONTINUOUS
10
0.497821
20
1.03288
11
0.497414
21
1.03515
0
LINE
8
BLACK
6
CONTINUOUS
10
0.497414
20
1.03515
11
0.497388
21
1.03534
0
LINE
8
BLACK
6
CONTINUOUS
10
0.497388
20
1.03534
11
0.497154
21
1.03764
0
LINE
8
BLACK
6
CONTINUOUS
10
0.497154
20
1.03764
11
0.496944
21
1.03831
0
LINE
8
BLACK
6
CONTINUOUS
10
0.496944
20
1.03831
11
0.496769
21
1.03886
0
LINE
8
BLACK
6
CONTINUOUS
10
0.496769
20
1.03886
11
0.496694
21
1.03917
0
LINE
8
BLACK
6
CONTINUOUS
10
0.496694
20
1.03917
11
0.496595
21
1.03972
0
LINE
8
BLACK
6
CONTINUOUS
10
0.496595
20
1.03972
11
0.496467
21
1.04043
0
LINE
8
BLACK
6
CONTINUOUS
10
0.496467
20
1.04043
11
0.495611
21
1.04258
0
LINE
8
BLACK
6
CONTINUOUS
10
0.495611
20
1.04258
11
0.495548
21
1.04276
0
LINE
8
BLACK
6
CONTINUOUS
10
0.495548
20
1.04276
11
0.495413
21
1.04319
0
LINE
8
BLACK
6
CONTINUOUS
10
0.495413
20
1.04319
11
0.494857
21
1.04496
0
LINE
8
BLACK
6
CONTINUOUS
10
0.494857
20
1.04496
11
0.494232
21
1.04608
0
LINE
8
BLACK
6
CONTINUOUS
10
0.494232
20
1.04608
11
0.494098
21
1.04637
0
LINE
8
BLACK
6
CONTINUOUS
10
0.494098
20
1.04637
11
0.49362
21
1.04756
0
LINE
8
BLACK
6
CONTINUOUS
10
0.49362
20
1.04756
11
0.49235
21
1.04949
0
LINE
8
BLACK
6
CONTINUOUS
10
0.49235
20
1.04949
11
0.492252
21
1.04965
0
LINE
8
BLACK
6
CONTINUOUS
10
0.492252
20
1.04965
11
0.491132
21
1.05167
0
LINE
8
BLACK
6
CONTINUOUS
10
0.491132
20
1.05167
11
0.490294
21
1.05264
0
LINE
8
BLACK
6
CONTINUOUS
10
0.490294
20
1.05264
11
0.490105
21
1.0529
0
LINE
8
BLACK
6
CONTINUOUS
10
0.490105
20
1.0529
11
0.489397
21
1.05397
0
LINE
8
BLACK
6
CONTINUOUS
10
0.489397
20
1.05397
11
0.487764
21
1.0556
0
LINE
8
BLACK
6
CONTINUOUS
10
0.487764
20
1.0556
11
0.487637
21
1.05574
0
LINE
8
BLACK
6
CONTINUOUS
10
0.487637
20
1.05574
11
0.486563
21
1.05699
0
LINE
8
BLACK
6
CONTINUOUS
10
0.486563
20
1.05699
11
0.486133
21
1.05749
0
LINE
8
BLACK
6
CONTINUOUS
10
0.486133
20
1.05749
11
0.485115
21
1.05828
0
LINE
8
BLACK
6
CONTINUOUS
10
0.485115
20
1.05828
11
0.48488
21
1.05849
0
LINE
8
BLACK
6
CONTINUOUS
10
0.48488
20
1.05849
11
0.455809
21
1.08756
0
LINE
8
BLACK
6
CONTINUOUS
10
0.455809
20
1.08756
11
0.45447
21
1.09001
0
LINE
8
BLACK
6
CONTINUOUS
10
0.45447
20
1.09001
11
0.45462
21
1.09266
0
LINE
8
BLACK
6
CONTINUOUS
10
0.45462
20
1.09266
11
0.456072
21
1.09694
0
LINE
8
BLACK
6
CONTINUOUS
10
0.456072
20
1.09694
11
0.456072
21
1.09694
0
LINE
8
BLACK
6
CONTINUOUS
10
0.456072
20
1.09694
11
0.456072
21
1.09694
0
LINE
8
BLACK
6
CONTINUOUS
10
0.456072
20
1.09694
11
0.458346
21
1.10837
0
LINE
8
BLACK
6
CONTINUOUS
10
0.458346
20
1.10837
11
0.458875
21
1.11644
0
LINE
8
BLACK
6
CONTINUOUS
10
0.458875
20
1.11644
11
0.459108
21
1.12
0
LINE
8
BLACK
6
CONTINUOUS
10
0.459108
20
1.12
11
0.459108
21
1.12
0
LINE
8
BLACK
6
CONTINUOUS
10
0.459108
20
1.12
11
0.458441
21
1.13017
0
LINE
8
BLACK
6
CONTINUOUS
10
0.458441
20
1.13017
11
0.458346
21
1.13163
0
LINE
8
BLACK
6
CONTINUOUS
10
0.458346
20
1.13163
11
0.456072
21
1.14306
0
LINE
8
BLACK
6
CONTINUOUS
10
0.456072
20
1.14306
11
0.452325
21
1.1541
0
LINE
8
BLACK
6
CONTINUOUS
10
0.452325
20
1.1541
11
0.44717
21
1.16455
0
LINE
8
BLACK
6
CONTINUOUS
10
0.44717
20
1.16455
11
0.440694
21
1.17425
0
LINE
8
BLACK
6
CONTINUOUS
10
0.440694
20
1.17425
11
0.433009
21
1.18301
0
LINE
8
BLACK
6
CONTINUOUS
10
0.433009
20
1.18301
11
0.424246
21
1.19069
0
LINE
8
BLACK
6
CONTINUOUS
10
0.424246
20
1.19069
11
0.414554
21
1.19717
0
LINE
8
BLACK
6
CONTINUOUS
10
0.414554
20
1.19717
11
0.4041
21
1.20233
0
LINE
8
BLACK
6
CONTINUOUS
10
0.4041
20
1.20233
11
0.393063
21
1.20607
0
LINE
8
BLACK
6
CONTINUOUS
10
0.393063
20
1.20607
11
0.381631
21
1.20835
0
LINE
8
BLACK
6
CONTINUOUS
10
0.381631
20
1.20835
11
0.374362
21
1.20882
0
LINE
8
BLACK
6
CONTINUOUS
10
0.374362
20
1.20882
11
0.37
21
1.20911
0
LINE
8
BLACK
6
CONTINUOUS
10
0.37
20
1.20911
11
0.37
21
1.20911
0
LINE
8
BLACK
6
CONTINUOUS
10
0.37
20
1.20911
11
0.365015
21
1.20878
0
LINE
8
BLACK
6
CONTINUOUS
10
0.0402366
20
0.545701
11
0.0402367
21
0.545701
0
LINE
8
BLACK
6
CONTINUOUS
10
0.0402367
20
0.545701
11
0.0422484
21
0.540307
0
LINE
8
BLACK
6
CONTINUOUS
10
0.0422484
20
0.540307
11
0.0422485
21
0.540307
0
LINE
8
BLACK
6
CONTINUOUS
10
0.0422485
20
0.540307
11
0.0456983
21
0.535698
0
LINE
8
BLACK
6
CONTINUOUS
10
0.0456983
20
0.535698
11
0.0503068
21
0.532249
0
LINE
8
BLACK
6
CONTINUOUS
10
0.0503068
20
0.532249
11
0.050307
21
0.532248
0
LINE
8
BLACK
6
CONTINUOUS
10
0.050307
20
0.532248
11
0.0557006
21
0.530237
0
LINE
8
BLACK
6
CONTINUOUS
10
0.0557006
20
0.530237
11
0.0557009
21
0.530237
0
LINE
8
BLACK
6
CONTINUOUS
10
0.0557009
20
0.530237
11
0.0580846
21
0.52998
0
LINE
8
BLACK
6
CONTINUOUS
10
0.0580846
20
0.52998
11
0.0580851
21
0.52998
0
LINE
8
BLACK
6
CONTINUOUS
10
0.0580851
20
0.52998
11
0.121915
21
0.52998
0
LINE
8
BLACK
6
CONTINUOUS
10
0.121915
20
0.52998
11
0.124299
21
0.530237
0
LINE
8
BLACK
6
CONTINUOUS
10
0.124299
20
0.530237
11
0.124299
21
0.530237
0
LINE
8
BLACK
6
CONTINUOUS
10
0.124299
20
0.530237
11
0.129693
21
0.532248
0
LINE
8
BLACK
6
CONTINUOUS
10
0.129693
20
0.532248
11
0.129693
21
0.532249
0
LINE
8
BLACK
6
CONTINUOUS
10
0.129693
20
0.532249
11
0.134302
21
0.535698
0
LINE
8
BLACK
6
CONTINUOUS
10
0.134302
20
0.535698
11
0.136029
21
0.538006
0
LINE
8
BLACK
6
CONTINUOUS
10
0.136029
20
0.538006
11
0.138266
21
0.539681
0
LINE
8
BLACK
6
CONTINUOUS
10
0.138266
20
0.539681
11
0.141054
21
0.53988
0
LINE
8
BLACK
6
CONTINUOUS
10
0.141054
20
0.53988
11
0.143508
21
0.53854
0
LINE
8
BLACK
6
CONTINUOUS
10
0.143508
20
0.53854
11
0.143971
21
0.538006
0
LINE
8
BLACK
6
CONTINUOUS
10
0.143971
20
0.538006
11
0.145698
21
0.535698
0
LINE
8
BLACK
6
CONTINUOUS
10
0.145698
20
0.535698
11
0.150307
21
0.532249
0
LINE
8
BLACK
6
CONTINUOUS
10
0.150307
20
0.532249
11
0.150307
21
0.532248
0
LINE
8
BLACK
6
CONTINUOUS
10
0.150307
20
0.532248
11
0.155701
21
0.530237
0
LINE
8
BLACK
6
CONTINUOUS
10
0.155701
20
0.530237
11
0.155701
21
0.530237
0
LINE
8
BLACK
6
CONTINUOUS
10
0.155701
20
0.530237
11
0.158085
21
0.52998
0
LINE
8
BLACK
6
CONTINUOUS
10
0.158085
20
0.52998
11
0.158085
21
0.52998
0
LINE
8
BLACK
6
CONTINUOUS
10
0.158085
20
0.52998
11
0.221915
21
0.52998
0
LINE
8
BLACK
6
CONTINUOUS
10
0.221915
20
0.52998
11
0.224299
21
0.530237
0
LINE
8
BLACK
6
CONTINUOUS
10
0.224299
20
0.530237
11
0.224299
21
0.530237
0
LINE
8
BLACK
6
CONTINUOUS
10
0.224299
20
0.530237
11
0.229693
21
0.532248
0
LINE
8
BLACK
6
CONTINUOUS
10
0.229693
20
0.532248
11
0.229693
21
0.532249
0
LINE
8
BLACK
6
CONTINUOUS
10
0.229693
20
0.532249
11
0.234302
21
0.535698
0
LINE
8
BLACK
6
CONTINUOUS
10
0.234302
20
0.535698
11
0.237728
21
0.540276
0
LINE
8
BLACK
6
CONTINUOUS
10
0.237728
20
0.540276
11
0.239966
21
0.541951
0
LINE
8
BLACK
6
CONTINUOUS
10
0.239966
20
0.541951
11
0.2417
21
0.542264
0
LINE
8
BLACK
6
CONTINUOUS
10
0.2417
20
0.542264
11
0.277725
21
0.542264
0
LINE
8
BLACK
6
CONTINUOUS
10
0.277725
20
0.542264
11
0.280407
21
0.541476
0
LINE
8
BLACK
6
CONTINUOUS
10
0.280407
20
0.541476
11
0.282237
21
0.539364
0
LINE
8
BLACK
6
CONTINUOUS
10
0.282237
20
0.539364
11
0.282635
21
0.536597
0
LINE
8
BLACK
6
CONTINUOUS
10
0.282635
20
0.536597
11
0.28259
21
0.536335
0
LINE
8
BLACK
6
CONTINUOUS
10
0.28259
20
0.536335
11
0.281654
21
0.531631
0
LINE
8
BLACK
6
CONTINUOUS
10
0.281654
20
0.531631
11
0.281654
21
0.531631
0
LINE
8
BLACK
6
CONTINUOUS
10
0.281654
20
0.531631
11
0.280892
21
0.52
0
LINE
8
BLACK
6
CONTINUOUS
10
0.280892
20
0.52
11
0.280892
21
0.52
0
LINE
8
BLACK
6
CONTINUOUS
10
0.280892
20
0.52
11
0.281654
21
0.508369
0
LINE
8
BLACK
6
CONTINUOUS
10
0.281654
20
0.508369
11
0.281654
21
0.508369
0
LINE
8
BLACK
6
CONTINUOUS
10
0.281654
20
0.508369
11
0.283928
21
0.496937
0
LINE
8
BLACK
6
CONTINUOUS
10
0.283928
20
0.496937
11
0.283928
21
0.496937
0
LINE
8
BLACK
6
CONTINUOUS
10
0.283928
20
0.496937
11
0.287675
21
0.4859
0
LINE
8
BLACK
6
CONTINUOUS
10
0.287675
20
0.4859
11
0.287675
21
0.4859
0
LINE
8
BLACK
6
CONTINUOUS
10
0.287675
20
0.4859
11
0.29283
21
0.475446
0
LINE
8
BLACK
6
CONTINUOUS
10
0.29283
20
0.475446
11
0.299305
21
0.465755
0
LINE
8
BLACK
6
CONTINUOUS
10
0.299305
20
0.465755
11
0.299306
21
0.465755
0
LINE
8
BLACK
6
CONTINUOUS
10
0.299306
20
0.465755
11
0.299306
21
0.465754
0
LINE
8
BLACK
6
CONTINUOUS
10
0.299306
20
0.465754
11
0.306991
21
0.456991
0
LINE
8
BLACK
6
CONTINUOUS
10
0.306991
20
0.456991
11
0.315754
21
0.449306
0
LINE
8
BLACK
6
CONTINUOUS
10
0.315754
20
0.449306
11
0.315755
21
0.449306
0
LINE
8
BLACK
6
CONTINUOUS
10
0.315755
20
0.449306
11
0.315755
21
0.449305
0
LINE
8
BLACK
6
CONTINUOUS
10
0.315755
20
0.449305
11
0.325446
21
0.44283
0
LINE
8
BLACK
6
CONTINUOUS
10
0.325446
20
0.44283
11
0.3359
21
0.437675
0
LINE
8
BLACK
6
CONTINUOUS
10
0.3359
20
0.437675
11
0.3359
21
0.437675
0
LINE
8
BLACK
6
CONTINUOUS
10
0.3359
20
0.437675
11
0.346937
21
0.433928
0
LINE
8
BLACK
6
CONTINUOUS
10
0.346937
20
0.433928
11
0.346937
21
0.433928
0
LINE
8
BLACK
6
CONTINUOUS
10
0.346937
20
0.433928
11
0.346937
21
0.433928
0
LINE
8
BLACK
6
CONTINUOUS
10
0.346937
20
0.433928
11
0.348851
21
0.433547
0
LINE
8
BLACK
6
CONTINUOUS
10
0.348851
20
0.433547
11
0.358369
21
0.431654
0
LINE
8
BLACK
6
CONTINUOUS
10
0.358369
20
0.431654
11
0.358369
21
0.431654
0
LINE
8
BLACK
6
CONTINUOUS
10
0.358369
20
0.431654
11
0.37
21
0.430892
0
LINE
8
BLACK
6
CONTINUOUS
10
0.37
20
0.430892
11
0.37
21
0.430892
0
LINE
8
BLACK
6
CONTINUOUS
10
0.37
20
0.430892
11
0.37
21
0.430892
0
LINE
8
BLACK
6
CONTINUOUS
10
0.37
20
0.430892
11
0.381631
21
0.431654
0
LINE
8
BLACK
6
CONTINUOUS
10
0.381631
20
0.431654
11
0.381631
21
0.431654
0
LINE
8
BLACK
6
CONTINUOUS
10
0.381631
20
0.431654
11
0.389235
21
0.433167
0
LINE
8
BLACK
6
CONTINUOUS
10
0.389235
20
0.433167
11
0.393063
21
0.433928
0
LINE
8
BLACK
6
CONTINUOUS
10
0.393063
20
0.433928
11
0.393063
21
0.433928
0
LINE
8
BLACK
6
CONTINUOUS
10
0.393063
20
0.433928
11
0.393063
21
0.433928
0
LINE
8
BLACK
6
CONTINUOUS
10
0.393063
20
0.433928
11
0.4041
21
0.437675
0
LINE
8
BLACK
6
CONTINUOUS
10
0.4041
20
0.437675
11
0.4041
21
0.437675
0
LINE
8
BLACK
6
CONTINUOUS
10
0.4041
20
0.437675
11
0.4041
21
0.437675
0
LINE
8
BLACK
6
CONTINUOUS
10
0.4041
20
0.437675
11
0.404866
21
0.438052
0
LINE
8
BLACK
6
CONTINUOUS
10
0.404866
20
0.438052
11
0.414554
21
0.44283
0
LINE
8
BLACK
6
CONTINUOUS
10
0.414554
20
0.44283
11
0.424245
21
0.449305
0
LINE
8
BLACK
6
CONTINUOUS
10
0.424245
20
0.449305
11
0.424245
21
0.449306
0
LINE
8
BLACK
6
CONTINUOUS
10
0.424245
20
0.449306
11
0.424246
21
0.449306
0
LINE
8
BLACK
6
CONTINUOUS
10
0.424246
20
0.449306
11
0.433009
21
0.456991
0
LINE
8
BLACK
6
CONTINUOUS
10
0.433009
20
0.456991
11
0.440694
21
0.465754
0
LINE
8
BLACK
6
CONTINUOUS
10
0.440694
20
0.465754
11
0.44717
21
0.475446
0
LINE
8
BLACK
6
CONTINUOUS
10
0.44717
20
0.475446
11
0.452325
21
0.4859
0
LINE
8
BLACK
6
CONTINUOUS
10
0.452325
20
0.4859
11
0.456072
21
0.496937
0
LINE
8
BLACK
6
CONTINUOUS
10
0.456072
20
0.496937
11
0.458346
21
0.508369
0
LINE
8
BLACK
6
CONTINUOUS
10
0.458346
20
0.508369
11
0.459108
21
0.52
0
LINE
8
BLACK
6
CONTINUOUS
10
0.459108
20
0.52
11
0.458346
21
0.531631
0
LINE
8
BLACK
6
CONTINUOUS
10
0.458346
20
0.531631
11
0.456072
21
0.543063
0
LINE
8
BLACK
6
CONTINUOUS
10
0.456072
20
0.543063
11
0.452325
21
0.5541
0
LINE
8
BLACK
6
CONTINUOUS
10
0.452325
20
0.5541
11
0.44717
21
0.564554
0
LINE
8
BLACK
6
CONTINUOUS
10
0.44717
20
0.564554
11
0.44703
21
0.564764
0
LINE
8
BLACK
6
CONTINUOUS
10
0.44703
20
0.564764
11
0.446195
21
0.567431
0
LINE
8
BLACK
6
CONTINUOUS
10
0.446195
20
0.567431
11
0.446934
21
0.570127
0
LINE
8
BLACK
6
CONTINUOUS
10
0.446934
20
0.570127
11
0.449013
21
0.571995
0
LINE
8
BLACK
6
CONTINUOUS
10
0.449013
20
0.571995
11
0.451154
21
0.57248
0
LINE
8
BLACK
6
CONTINUOUS
10
0.451154
20
0.57248
11
0.461915
21
0.57248
0
LINE
8
BLACK
6
CONTINUOUS
10
0.461915
20
0.57248
11
0.464299
21
0.572737
0
LINE
8
BLACK
6
CONTINUOUS
10
0.464299
20
0.572737
11
0.464299
21
0.572737
0
LINE
8
BLACK
6
CONTINUOUS
10
0.464299
20
0.572737
11
0.469693
21
0.574748
0
LINE
8
BLACK
6
CONTINUOUS
10
0.469693
20
0.574748
11
0.469693
21
0.574749
0
LINE
8
BLACK
6
CONTINUOUS
10
0.469693
20
0.574749
11
0.474302
21
0.578198
0
LINE
8
BLACK
6
CONTINUOUS
10
0.474302
20
0.578198
11
0.477751
21
0.582807
0
LINE
8
BLACK
6
CONTINUOUS
10
0.477751
20
0.582807
11
0.477752
21
0.582807
0
LINE
8
BLACK
6
CONTINUOUS
10
0.477752
20
0.582807
11
0.477827
21
0.583009
0
LINE
8
BLACK
6
CONTINUOUS
10
0.477827
20
0.583009
11
0.479763
21
0.588201
0
LINE
8
BLACK
6
CONTINUOUS
10
0.479763
20
0.588201
11
0.479763
21
0.588201
0
LINE
8
BLACK
6
CONTINUOUS
10
0.479763
20
0.588201
11
0.48002
21
0.590585
0
LINE
8
BLACK
6
CONTINUOUS
10
0.48002
20
0.590585
11
0.48002
21
0.590585
0
LINE
8
BLACK
6
CONTINUOUS
10
0.48002
20
0.590585
11
0.48002
21
0.614178
0
LINE
8
BLACK
6
CONTINUOUS
10
0.48002
20
0.614178
11
0.480109
21
0.614957
0
LINE
8
BLACK
6
CONTINUOUS
10
0.480109
20
0.614957
11
0.480095
21
0.614959
0
LINE
8
BLACK
6
CONTINUOUS
10
0.480095
20
0.614959
11
0.480127
21
0.615207
0
LINE
8
BLACK
6
CONTINUOUS
10
0.480127
20
0.615207
11
0.480127
21
0.615208
0
LINE
8
BLACK
6
CONTINUOUS
10
0.480127
20
0.615208
11
0.480321
21
0.62288
0
LINE
8
BLACK
6
CONTINUOUS
10
0.480321
20
0.62288
11
0.480097
21
0.624129
0
LINE
8
BLACK
6
CONTINUOUS
10
0.480097
20
0.624129
11
0.48002
21
0.625004
0
LINE
8
BLACK
6
CONTINUOUS
10
0.48002
20
0.625004
11
0.48002
21
0.633052
0
LINE
8
BLACK
6
CONTINUOUS
10
0.48002
20
0.633052
11
0.48002
21
0.649415
0
LINE
8
BLACK
6
CONTINUOUS
10
0.48002
20
0.649415
11
0.479892
21
0.650603
0
LINE
8
BLACK
6
CONTINUOUS
10
0.479892
20
0.650603
11
0.479763
21
0.651799
0
LINE
8
BLACK
6
CONTINUOUS
10
0.479763
20
0.651799
11
0.479763
21
0.651799
0
LINE
8
BLACK
6
CONTINUOUS
10
0.479763
20
0.651799
11
0.479487
21
0.652541
0
LINE
8
BLACK
6
CONTINUOUS
10
0.479487
20
0.652541
11
0.477752
21
0.657193
0
LINE
8
BLACK
6
CONTINUOUS
10
0.477752
20
0.657193
11
0.477691
21
0.657275
0
LINE
8
BLACK
6
CONTINUOUS
10
0.477691
20
0.657275
11
0.474302
21
0.661802
0
LINE
8
BLACK
6
CONTINUOUS
10
0.474302
20
0.661802
11
0.469693
21
0.665251
0
LINE
8
BLACK
6
CONTINUOUS
10
0.469693
20
0.665251
11
0.469693
21
0.665251
0
LINE
8
BLACK
6
CONTINUOUS
10
0.469693
20
0.665251
11
0.469693
21
0.665252
0
LINE
8
BLACK
6
CONTINUOUS
10
0.469693
20
0.665252
11
0.464299
21
0.667263
0
LINE
8
BLACK
6
CONTINUOUS
10
0.464299
20
0.667263
11
0.464299
21
0.667263
0
LINE
8
BLACK
6
CONTINUOUS
10
0.464299
20
0.667263
11
0.464299
21
0.667263
0
LINE
8
BLACK
6
CONTINUOUS
10
0.464299
20
0.667263
11
0.461915
21
0.66752
0
LINE
8
BLACK
6
CONTINUOUS
10
0.461915
20
0.66752
11
0.461915
21
0.66752
0
LINE
8
BLACK
6
CONTINUOUS
10
0.461915
20
0.66752
11
0.461915
21
0.66752
0
LINE
8
BLACK
6
CONTINUOUS
10
0.461915
20
0.66752
11
0.461915
21
0.66752
0
LINE
8
BLACK
6
CONTINUOUS
10
0.461915
20
0.66752
11
0.442148
21
0.66752
0
LINE
8
BLACK
6
CONTINUOUS
10
0.442148
20
0.66752
11
0.44115
21
0.667621
0
LINE
8
BLACK
6
CONTINUOUS
10
0.44115
20
0.667621
11
0.440493
21
0.667756
0
LINE
8
BLACK
6
CONTINUOUS
10
0.440493
20
0.667756
11
0.440312
21
0.667801
0
LINE
8
BLACK
6
CONTINUOUS
10
0.440312
20
0.667801
11
0.438092
21
0.668436
0
LINE
8
BLACK
6
CONTINUOUS
10
0.438092
20
0.668436
11
0.436809
21
0.668534
0
LINE
8
BLACK
6
CONTINUOUS
10
0.436809
20
0.668534
11
0.436498
21
0.668577
0
LINE
8
BLACK
6
CONTINUOUS
10
0.436498
20
0.668577
11
0.435237
21
0.668836
0
LINE
8
BLACK
6
CONTINUOUS
10
0.435237
20
0.668836
11
0.435237
21
0.668836
0
LINE
8
BLACK
6
CONTINUOUS
10
0.435237
20
0.668836
11
0.432929
21
0.668836
0
LINE
8
BLACK
6
CONTINUOUS
10
0.432929
20
0.668836
11
0.432741
21
0.668843
0
LINE
8
BLACK
6
CONTINUOUS
10
0.432741
20
0.668843
11
0.430439
21
0.669019
0
LINE
8
BLACK
6
CONTINUOUS
10
0.430439
20
0.669019
11
0.429163
21
0.668856
0
LINE
8
BLACK
6
CONTINUOUS
10
0.429163
20
0.668856
11
0.428849
21
0.668836
0
LINE
8
BLACK
6
CONTINUOUS
10
0.428849
20
0.668836
11
0.391856
21
0.668836
0
LINE
8
BLACK
6
CONTINUOUS
10
0.391856
20
0.668836
11
0.389174
21
0.669624
0
LINE
8
BLACK
6
CONTINUOUS
10
0.389174
20
0.669624
11
0.387884
21
0.670824
0
LINE
8
BLACK
6
CONTINUOUS
10
0.387884
20
0.670824
11
0.387752
21
0.671002
0
LINE
8
BLACK
6
CONTINUOUS
10
0.387752
20
0.671002
11
0.383143
21
0.674451
0
LINE
8
BLACK
6
CONTINUOUS
10
0.383143
20
0.674451
11
0.383143
21
0.674451
0
LINE
8
BLACK
6
CONTINUOUS
10
0.383143
20
0.674451
11
0.383143
21
0.674452
0
LINE
8
BLACK
6
CONTINUOUS
10
0.383143
20
0.674452
11
0.377749
21
0.676463
0
LINE
8
BLACK
6
CONTINUOUS
10
0.377749
20
0.676463
11
0.377749
21
0.676463
0
LINE
8
BLACK
6
CONTINUOUS
10
0.377749
20
0.676463
11
0.377749
21
0.676463
0
LINE
8
BLACK
6
CONTINUOUS
10
0.377749
20
0.676463
11
0.375365
21
0.67672
0
LINE
8
BLACK
6
CONTINUOUS
10
0.375365
20
0.67672
11
0.375365
21
0.67672
0
LINE
8
BLACK
6
CONTINUOUS
10
0.375365
20
0.67672
11
0.375365
21
0.67672
0
LINE
8
BLACK
6
CONTINUOUS
10
0.375365
20
0.67672
11
0.304635
21
0.67672
0
LINE
8
BLACK
6
CONTINUOUS
10
0.304635
20
0.67672
11
0.304635
21
0.67672
0
LINE
8
BLACK
6
CONTINUOUS
10
0.304635
20
0.67672
11
0.304635
21
0.67672
0
LINE
8
BLACK
6
CONTINUOUS
10
0.304635
20
0.67672
11
0.302251
21
0.676463
0
LINE
8
BLACK
6
CONTINUOUS
10
0.302251
20
0.676463
11
0.302251
21
0.676463
0
LINE
8
BLACK
6
CONTINUOUS
10
0.302251
20
0.676463
11
0.299183
21
0.675319
0
LINE
8
BLACK
6
CONTINUOUS
10
0.299183
20
0.675319
11
0.296857
21
0.674452
0
LINE
8
BLACK
6
CONTINUOUS
10
0.296857
20
0.674452
11
0.296857
21
0.674451
0
LINE
8
BLACK
6
CONTINUOUS
10
0.296857
20
0.674451
11
0.296857
21
0.674451
0
LINE
8
BLACK
6
CONTINUOUS
10
0.296857
20
0.674451
11
0.292248
21
0.671002
0
LINE
8
BLACK
6
CONTINUOUS
10
0.292248
20
0.671002
11
0.288799
21
0.666393
0
LINE
8
BLACK
6
CONTINUOUS
10
0.288799
20
0.666393
11
0.288798
21
0.666393
0
LINE
8
BLACK
6
CONTINUOUS
10
0.288798
20
0.666393
11
0.286787
21
0.660999
0
LINE
8
BLACK
6
CONTINUOUS
10
0.286787
20
0.660999
11
0.286787
21
0.660999
0
LINE
8
BLACK
6
CONTINUOUS
10
0.286787
20
0.660999
11
0.28653
21
0.658615
0
LINE
8
BLACK
6
CONTINUOUS
10
0.28653
20
0.658615
11
0.28653
21
0.658615
0
LINE
8
BLACK
6
CONTINUOUS
10
0.28653
20
0.658615
11
0.28653
21
0.633052
0
LINE
8
BLACK
6
CONTINUOUS
10
0.28653
20
0.633052
11
0.285743
21
0.63037
0
LINE
8
BLACK
6
CONTINUOUS
10
0.285743
20
0.63037
11
0.285077
21
0.629544
0
LINE
8
BLACK
6
CONTINUOUS
10
0.285077
20
0.629544
11
0.274722
21
0.619189
0
LINE
8
BLACK
6
CONTINUOUS
10
0.274722
20
0.619189
11
0.272269
21
0.61785
0
LINE
8
BLACK
6
CONTINUOUS
10
0.272269
20
0.61785
11
0.271214
21
0.617736
0
LINE
8
BLACK
6
CONTINUOUS
10
0.271214
20
0.617736
11
0.2417
21
0.617736
0
LINE
8
BLACK
6
CONTINUOUS
10
0.2417
20
0.617736
11
0.239018
21
0.618524
0
LINE
8
BLACK
6
CONTINUOUS
10
0.239018
20
0.618524
11
0.237728
21
0.619724
0
LINE
8
BLACK
6
CONTINUOUS
10
0.237728
20
0.619724
11
0.234302
21
0.624302
0
LINE
8
BLACK
6
CONTINUOUS
10
0.234302
20
0.624302
11
0.229693
21
0.627751
0
LINE
8
BLACK
6
CONTINUOUS
10
0.229693
20
0.627751
11
0.229693
21
0.627751
0
LINE
8
BLACK
6
CONTINUOUS
10
0.229693
20
0.627751
11
0.229693
21
0.627752
0
LINE
8
BLACK
6
CONTINUOUS
10
0.229693
20
0.627752
11
0.225041
21
0.629487
0
LINE
8
BLACK
6
CONTINUOUS
10
0.225041
20
0.629487
11
0.224299
21
0.629763
0
LINE
8
BLACK
6
CONTINUOUS
10
0.224299
20
0.629763
11
0.224299
21
0.629763
0
LINE
8
BLACK
6
CONTINUOUS
10
0.224299
20
0.629763
11
0.224299
21
0.629763
0
LINE
8
BLACK
6
CONTINUOUS
10
0.224299
20
0.629763
11
0.224299
21
0.629763
0
LINE
8
BLACK
6
CONTINUOUS
10
0.224299
20
0.629763
11
0.224299
21
0.629763
0
LINE
8
BLACK
6
CONTINUOUS
10
0.224299
20
0.629763
11
0.221915
21
0.63002
0
LINE
8
BLACK
6
CONTINUOUS
10
0.221915
20
0.63002
11
0.221915
21
0.63002
0
LINE
8
BLACK
6
CONTINUOUS
10
0.221915
20
0.63002
11
0.221915
21
0.63002
0
LINE
8
BLACK
6
CONTINUOUS
10
0.221915
20
0.63002
11
0.158085
21
0.63002
0
LINE
8
BLACK
6
CONTINUOUS
10
0.158085
20
0.63002
11
0.158085
21
0.63002
0
LINE
8
BLACK
6
CONTINUOUS
10
0.158085
20
0.63002
11
0.158085
21
0.63002
0
LINE
8
BLACK
6
CONTINUOUS
10
0.158085
20
0.63002
11
0.155701
21
0.629763
0
LINE
8
BLACK
6
CONTINUOUS
10
0.155701
20
0.629763
11
0.155701
21
0.629763
0
LINE
8
BLACK
6
CONTINUOUS
10
0.155701
20
0.629763
11
0.152633
21
0.628619
0
LINE
8
BLACK
6
CONTINUOUS
10
0.152633
20
0.628619
11
0.150307
21
0.627752
0
LINE
8
BLACK
6
CONTINUOUS
10
0.150307
20
0.627752
11
0.150307
21
0.627751
0
LINE
8
BLACK
6
CONTINUOUS
10
0.150307
20
0.627751
11
0.150307
21
0.627751
0
LINE
8
BLACK
6
CONTINUOUS
10
0.150307
20
0.627751
11
0.145698
21
0.624302
0
LINE
8
BLACK
6
CONTINUOUS
10
0.145698
20
0.624302
11
0.143971
21
0.621994
0
LINE
8
BLACK
6
CONTINUOUS
10
0.143971
20
0.621994
11
0.141734
21
0.620319
0
LINE
8
BLACK
6
CONTINUOUS
10
0.141734
20
0.620319
11
0.138946
21
0.62012
0
LINE
8
BLACK
6
CONTINUOUS
10
0.138946
20
0.62012
11
0.136492
21
0.621459
0
LINE
8
BLACK
6
CONTINUOUS
10
0.136492
20
0.621459
11
0.136029
21
0.621994
0
LINE
8
BLACK
6
CONTINUOUS
10
0.136029
20
0.621994
11
0.134302
21
0.624302
0
LINE
8
BLACK
6
CONTINUOUS
10
0.134302
20
0.624302
11
0.129693
21
0.627751
0
LINE
8
BLACK
6
CONTINUOUS
10
0.129693
20
0.627751
11
0.129693
21
0.627751
0
LINE
8
BLACK
6
CONTINUOUS
10
0.129693
20
0.627751
11
0.129693
21
0.627752
0
LINE
8
BLACK
6
CONTINUOUS
10
0.129693
20
0.627752
11
0.125041
21
0.629487
0
LINE
8
BLACK
6
CONTINUOUS
10
0.125041
20
0.629487
11
0.124299
21
0.629763
0
LINE
8
BLACK
6
CONTINUOUS
10
0.124299
20
0.629763
11
0.124299
21
0.629763
0
LINE
8
BLACK
6
CONTINUOUS
10
0.124299
20
0.629763
11
0.124299
21
0.629763
0
LINE
8
BLACK
6
CONTINUOUS
10
0.124299
20
0.629763
11
0.124299
21
0.629763
0
LINE
8
BLACK
6
CONTINUOUS
10
0.124299
20
0.629763
11
0.124299
21
0.629763
0
LINE
8
BLACK
6
CONTINUOUS
10
0.124299
20
0.629763
11
0.121915
21
0.63002
0
LINE
8
BLACK
6
CONTINUOUS
10
0.121915
20
0.63002
11
0.121915
21
0.63002
0
LINE
8
BLACK
6
CONTINUOUS
10
0.121915
20
0.63002
11
0.121915
21
0.63002
0
LINE
8
BLACK
6
CONTINUOUS
10
0.121915
20
0.63002
11
0.0580851
21
0.63002
0
LINE
8
BLACK
6
CONTINUOUS
10
0.0580851
20
0.63002
11
0.0580848
21
0.63002
0
LINE
8
BLACK
6
CONTINUOUS
10
0.0580848
20
0.63002
11
0.0580846
21
0.63002
0
LINE
8
BLACK
6
CONTINUOUS
10
0.0580846
20
0.63002
11
0.0557009
21
0.629763
0
LINE
8
BLACK
6
CONTINUOUS
10
0.0557009
20
0.629763
11
0.0557006
21
0.629763
0
LINE
8
BLACK
6
CONTINUOUS
10
0.0557006
20
0.629763
11
0.0526329
21
0.628619
0
LINE
8
BLACK
6
CONTINUOUS
10
0.0526329
20
0.628619
11
0.0503069
21
0.627752
0
LINE
8
BLACK
6
CONTINUOUS
10
0.0503069
20
0.627752
11
0.0503069
21
0.627751
0
LINE
8
BLACK
6
CONTINUOUS
10
0.0503069
20
0.627751
11
0.0503068
21
0.627751
0
LINE
8
BLACK
6
CONTINUOUS
10
0.0503068
20
0.627751
11
0.0456983
21
0.624302
0
LINE
8
BLACK
6
CONTINUOUS
10
0.0456983
20
0.624302
11
0.0422485
21
0.619693
0
LINE
8
BLACK
6
CONTINUOUS
10
0.0422485
20
0.619693
11
0.0422484
21
0.619693
0
LINE
8
BLACK
6
CONTINUOUS
10
0.0422484
20
0.619693
11
0.0402367
21
0.614299
0
LINE
8
BLACK
6
CONTINUOUS
10
0.0402367
20
0.614299
11
0.0402366
21
0.614299
0
LINE
8
BLACK
6
CONTINUOUS
10
0.0402366
20
0.614299
11
0.0399803
21
0.611915
0
LINE
8
BLACK
6
CONTINUOUS
10
0.0399803
20
0.611915
11
0.0399803
21
0.548085
0
LINE
8
BLACK
6
CONTINUOUS
10
0.0399803
20
0.548085
11
0.0402366
21
0.545701
0
CIRCLE
8
BLACK
10
0.09
20
0.68
40
0.00688976
0
CIRCLE
8
BLACK
10
0.19
20
0.68
40
0.00688976
0
CIRCLE
8
BLACK
10
0.09
20
0.58
40
0.00688976
0
CIRCLE
8
BLACK
10
0.19
20
0.58
40
0.00688976
0
CIRCLE
8
BLACK
10
0.09
20
0.48
40
0.00688976
0
CIRCLE
8
BLACK
10
0.19
20
0.48
40
0.00688976
0
CIRCLE
8
BLACK
10
0.09
20
1.14
40
0.00688976
0
CIRCLE
8
BLACK
10
0.19
20
1.14
40
0.00688976
0
CIRCLE
8
BLACK
10
0.09
20
1.04
40
0.00688976
0
CIRCLE
8
BLACK
10
0.19
20
1.04
40
0.00688976
0
CIRCLE
8
BLACK
10
0.09
20
0.94
40
0.00688976
0
CIRCLE
8
BLACK
10
0.19
20
0.94
40
0.00688976
0
CIRCLE
8
BLACK
10
0.2
20
0.2
40
0.00688976
0
CIRCLE
8
BLACK
10
0.2
20
1.4
40
0.00688976
0
CIRCLE
8
BLACK
10
0.6
20
0.2
40
0.00688976
0
CIRCLE
8
BLACK
10
0.6
20
1.4
40
0.00688976
0
CIRCLE
8
BLACK
10
0.67
20
0.52
40
0.00688976
0
CIRCLE
8
BLACK
10
0.67
20
1.12
40
0.00688976
0
CIRCLE
8
BLACK
10
0.37
20
1.12
40
0.00688976
0
CIRCLE
8
BLACK
10
0.37
20
0.52
40
0.00688976
0
CIRCLE
8
BLACK
10
0.09
20
0.84
40
0.00688976
0
CIRCLE
8
BLACK
10
0.19
20
0.84
40
0.00688976
0
CIRCLE
8
BLACK
10
0.7
20
0.82
40
0.00787402
0
CIRCLE
8
BLACK
10
0.7
20
0.82
40
0.00787402
0
CIRCLE
8
BLACK
10
0.4
20
0.98
40
0.00787402
0
CIRCLE
8
BLACK
10
0.26
20
0.96
40
0.00787402
0
CIRCLE
8
BLACK
10
0.58
20
0.68
40
0.00787402
  0
ENDSEC
  0
EOF
