  0
SECTION
  2
HEADER
  9
$ANGBASE
  50
0.0
  9
$ANGDIR
  70
1
  9
$MEASUREMENT
  70
0
  0
ENDSEC
  0
SECTION
  2
TABLES
  0
TABLE
  2
LTYPE
  70
4
  0
LTYPE
  5
40F
  2
CONTINUOUS
  70
0
  3
Solid line
  72
65
  73
0
  40
0.0
  0
LTYPE
  5
410
  2
DASHDOT
 70
0
  3
Dash Dot ____ _ ____ _
 72
65
 73
4
 40
2.0
 49
1.25
 49
-0.25
 49
0.25
 49
-0.25
  0
LTYPE
  5
411
  2
DASHED
 70
0
  3
Dashed __ __ __ __ __
 72
65
 73
2
 40
0.75
 49
0.5
 49
-0.25
  0
LTYPE
  5
43B
  2
DOTTED
 70
0
  3
Dotted .  .  .  .
 72
65
 73
2
 40
0.2
 49
0.0
 49
-0.2
  0
ENDTAB
  0
TABLE
  2
STYLE
  70
4
  0
STYLE
  2
KICAD
  70
0
  40
0
  41
1
  42
1
  50
0
  71
0
  3
isocp.shx
  0
STYLE
  2
KICADB
  70
0
  40
0
  41
1
  42
1
  50
0
  71
0
  3
isocp.shx
  0
STYLE
  2
KICADI
  70
0
  40
0
  41
1
  42
1
  50
15
  71
0
  3
isocp.shx
  0
STYLE
  2
KICADBI
  70
0
  40
0
  41
1
  42
1
  50
15
  71
0
  3
isocp.shx
  0
ENDTAB
  0
TABLE
  2
LAYER
  70
1
  0
LAYER
  2
BLACK
  70
0
  62
7
  6
CONTINUOUS
  0
ENDTAB
  0
ENDSEC
  0
SECTION
  2
ENTITIES
0
LINE
8
BLACK
6
CONTINUOUS
10
0.46
20
0.5925
11
0.425
21
0.5925
0
LINE
8
BLACK
6
CONTINUOUS
10
0.425
20
0.5925
11
0.425
21
0.6475
0
LINE
8
BLACK
6
CONTINUOUS
10
0.425
20
0.6475
11
0.46
21
0.6475
0
LINE
8
BLACK
6
CONTINUOUS
10
0.46
20
0.6475
11
0.46
21
0.5925
0
LINE
8
BLACK
6
CONTINUOUS
10
0.535
20
0.5925
11
0.5
21
0.5925
0
LINE
8
BLACK
6
CONTINUOUS
10
0.5
20
0.5925
11
0.5
21
0.6475
0
LINE
8
BLACK
6
CONTINUOUS
10
0.5
20
0.6475
11
0.535
21
0.6475
0
LINE
8
BLACK
6
CONTINUOUS
10
0.535
20
0.6475
11
0.535
21
0.5925
0
LINE
8
BLACK
6
CONTINUOUS
10
0.37345
20
0.6055
11
0.30655
21
0.6055
0
LINE
8
BLACK
6
CONTINUOUS
10
0.30655
20
0.6055
11
0.30655
21
0.6567
0
LINE
8
BLACK
6
CONTINUOUS
10
0.30655
20
0.6567
11
0.37345
21
0.6567
0
LINE
8
BLACK
6
CONTINUOUS
10
0.37345
20
0.6567
11
0.37345
21
0.6055
0
LINE
8
BLACK
6
CONTINUOUS
10
0.545236
20
0.779646
11
0.543465
21
0.779646
0
LINE
8
BLACK
6
CONTINUOUS
10
0.543465
20
0.779646
11
0.543465
21
0.747165
0
LINE
8
BLACK
6
CONTINUOUS
10
0.543465
20
0.747165
11
0.534409
21
0.747165
0
LINE
8
BLACK
6
CONTINUOUS
10
0.534409
20
0.747165
11
0.534409
21
0.744213
0
LINE
8
BLACK
6
CONTINUOUS
10
0.534409
20
0.744213
11
0.507244
21
0.744213
0
LINE
8
BLACK
6
CONTINUOUS
10
0.507244
20
0.744213
11
0.507244
21
0.717638
0
LINE
8
BLACK
6
CONTINUOUS
10
0.507244
20
0.717638
11
0.495433
21
0.717638
0
LINE
8
BLACK
6
CONTINUOUS
10
0.495433
20
0.717638
11
0.495433
21
0.697953
0
LINE
8
BLACK
6
CONTINUOUS
10
0.495433
20
0.697953
11
0.424567
21
0.697953
0
LINE
8
BLACK
6
CONTINUOUS
10
0.424567
20
0.697953
11
0.424567
21
0.717638
0
LINE
8
BLACK
6
CONTINUOUS
10
0.424567
20
0.717638
11
0.412756
21
0.717638
0
LINE
8
BLACK
6
CONTINUOUS
10
0.412756
20
0.717638
11
0.412756
21
0.776693
0
LINE
8
BLACK
6
CONTINUOUS
10
0.412756
20
0.776693
11
0.449764
21
0.776693
0
LINE
8
BLACK
6
CONTINUOUS
10
0.449764
20
0.776693
11
0.449764
21
0.797362
0
LINE
8
BLACK
6
CONTINUOUS
10
0.449764
20
0.797362
11
0.476535
21
0.797362
0
LINE
8
BLACK
6
CONTINUOUS
10
0.476535
20
0.797362
11
0.476535
21
0.80622
0
LINE
8
BLACK
6
CONTINUOUS
10
0.476535
20
0.80622
11
0.509803
21
0.80622
0
LINE
8
BLACK
6
CONTINUOUS
10
0.509803
20
0.80622
11
0.509803
21
0.811142
0
LINE
8
BLACK
6
CONTINUOUS
10
0.509803
20
0.811142
11
0.545236
21
0.811142
0
LINE
8
BLACK
6
CONTINUOUS
10
0.545236
20
0.811142
11
0.545236
21
0.779646
0
LINE
8
BLACK
6
CONTINUOUS
10
0.610197
20
0.80622
11
0.643465
21
0.80622
0
LINE
8
BLACK
6
CONTINUOUS
10
0.643465
20
0.80622
11
0.643465
21
0.797362
0
LINE
8
BLACK
6
CONTINUOUS
10
0.643465
20
0.797362
11
0.648583
21
0.797362
0
LINE
8
BLACK
6
CONTINUOUS
10
0.648583
20
0.797362
11
0.670236
21
0.797362
0
LINE
8
BLACK
6
CONTINUOUS
10
0.670236
20
0.797362
11
0.670236
21
0.776693
0
LINE
8
BLACK
6
CONTINUOUS
10
0.670236
20
0.776693
11
0.707244
21
0.776693
0
LINE
8
BLACK
6
CONTINUOUS
10
0.707244
20
0.776693
11
0.707244
21
0.717638
0
LINE
8
BLACK
6
CONTINUOUS
10
0.707244
20
0.717638
11
0.695433
21
0.717638
0
LINE
8
BLACK
6
CONTINUOUS
10
0.695433
20
0.717638
11
0.695433
21
0.697953
0
LINE
8
BLACK
6
CONTINUOUS
10
0.695433
20
0.697953
11
0.624567
21
0.697953
0
LINE
8
BLACK
6
CONTINUOUS
10
0.624567
20
0.697953
11
0.624567
21
0.717638
0
LINE
8
BLACK
6
CONTINUOUS
10
0.624567
20
0.717638
11
0.612756
21
0.717638
0
LINE
8
BLACK
6
CONTINUOUS
10
0.612756
20
0.717638
11
0.612756
21
0.744213
0
LINE
8
BLACK
6
CONTINUOUS
10
0.612756
20
0.744213
11
0.607244
21
0.744213
0
LINE
8
BLACK
6
CONTINUOUS
10
0.607244
20
0.744213
11
0.585591
21
0.744213
0
LINE
8
BLACK
6
CONTINUOUS
10
0.585591
20
0.744213
11
0.585591
21
0.747165
0
LINE
8
BLACK
6
CONTINUOUS
10
0.585591
20
0.747165
11
0.576535
21
0.747165
0
LINE
8
BLACK
6
CONTINUOUS
10
0.576535
20
0.747165
11
0.576535
21
0.779646
0
LINE
8
BLACK
6
CONTINUOUS
10
0.576535
20
0.779646
11
0.574764
21
0.779646
0
LINE
8
BLACK
6
CONTINUOUS
10
0.574764
20
0.779646
11
0.574764
21
0.811142
0
LINE
8
BLACK
6
CONTINUOUS
10
0.574764
20
0.811142
11
0.610197
21
0.811142
0
LINE
8
BLACK
6
CONTINUOUS
10
0.610197
20
0.811142
11
0.610197
21
0.80622
0
LINE
8
BLACK
6
CONTINUOUS
10
0.37345
20
0.7433
11
0.30655
21
0.7433
0
LINE
8
BLACK
6
CONTINUOUS
10
0.30655
20
0.7433
11
0.30655
21
0.7945
0
LINE
8
BLACK
6
CONTINUOUS
10
0.30655
20
0.7945
11
0.37345
21
0.7945
0
LINE
8
BLACK
6
CONTINUOUS
10
0.37345
20
0.7945
11
0.37345
21
0.7433
0
LINE
8
BLACK
6
CONTINUOUS
10
0.2975
20
0.8125
11
0.2625
21
0.8125
0
LINE
8
BLACK
6
CONTINUOUS
10
0.2625
20
0.8125
11
0.2625
21
0.8675
0
LINE
8
BLACK
6
CONTINUOUS
10
0.2625
20
0.8675
11
0.2975
21
0.8675
0
LINE
8
BLACK
6
CONTINUOUS
10
0.2975
20
0.8675
11
0.2975
21
0.8125
0
LINE
8
BLACK
6
CONTINUOUS
10
0.3725
20
0.8125
11
0.3375
21
0.8125
0
LINE
8
BLACK
6
CONTINUOUS
10
0.3375
20
0.8125
11
0.3375
21
0.8675
0
LINE
8
BLACK
6
CONTINUOUS
10
0.3375
20
0.8675
11
0.3725
21
0.8675
0
LINE
8
BLACK
6
CONTINUOUS
10
0.3725
20
0.8675
11
0.3725
21
0.8125
0
LINE
8
BLACK
6
CONTINUOUS
10
0.495433
20
0.922362
11
0.507244
21
0.922362
0
LINE
8
BLACK
6
CONTINUOUS
10
0.507244
20
0.922362
11
0.507244
21
0.895787
0
LINE
8
BLACK
6
CONTINUOUS
10
0.507244
20
0.895787
11
0.512756
21
0.895787
0
LINE
8
BLACK
6
CONTINUOUS
10
0.512756
20
0.895787
11
0.534409
21
0.895787
0
LINE
8
BLACK
6
CONTINUOUS
10
0.534409
20
0.895787
11
0.534409
21
0.892835
0
LINE
8
BLACK
6
CONTINUOUS
10
0.534409
20
0.892835
11
0.543465
21
0.892835
0
LINE
8
BLACK
6
CONTINUOUS
10
0.543465
20
0.892835
11
0.543465
21
0.860354
0
LINE
8
BLACK
6
CONTINUOUS
10
0.543465
20
0.860354
11
0.545236
21
0.860354
0
LINE
8
BLACK
6
CONTINUOUS
10
0.545236
20
0.860354
11
0.545236
21
0.828858
0
LINE
8
BLACK
6
CONTINUOUS
10
0.545236
20
0.828858
11
0.509803
21
0.828858
0
LINE
8
BLACK
6
CONTINUOUS
10
0.509803
20
0.828858
11
0.509803
21
0.83378
0
LINE
8
BLACK
6
CONTINUOUS
10
0.509803
20
0.83378
11
0.48126
21
0.83378
0
LINE
8
BLACK
6
CONTINUOUS
10
0.48126
20
0.83378
11
0.476535
21
0.83378
0
LINE
8
BLACK
6
CONTINUOUS
10
0.476535
20
0.83378
11
0.476535
21
0.842638
0
LINE
8
BLACK
6
CONTINUOUS
10
0.476535
20
0.842638
11
0.471417
21
0.842638
0
LINE
8
BLACK
6
CONTINUOUS
10
0.471417
20
0.842638
11
0.449764
21
0.842638
0
LINE
8
BLACK
6
CONTINUOUS
10
0.449764
20
0.842638
11
0.449764
21
0.863307
0
LINE
8
BLACK
6
CONTINUOUS
10
0.449764
20
0.863307
11
0.424567
21
0.863307
0
LINE
8
BLACK
6
CONTINUOUS
10
0.424567
20
0.863307
11
0.412756
21
0.863307
0
LINE
8
BLACK
6
CONTINUOUS
10
0.412756
20
0.863307
11
0.412756
21
0.922362
0
LINE
8
BLACK
6
CONTINUOUS
10
0.412756
20
0.922362
11
0.424567
21
0.922362
0
LINE
8
BLACK
6
CONTINUOUS
10
0.424567
20
0.922362
11
0.424567
21
0.942047
0
LINE
8
BLACK
6
CONTINUOUS
10
0.424567
20
0.942047
11
0.495433
21
0.942047
0
LINE
8
BLACK
6
CONTINUOUS
10
0.495433
20
0.942047
11
0.495433
21
0.922362
0
LINE
8
BLACK
6
CONTINUOUS
10
0.695433
20
0.922362
11
0.707244
21
0.922362
0
LINE
8
BLACK
6
CONTINUOUS
10
0.707244
20
0.922362
11
0.707244
21
0.863307
0
LINE
8
BLACK
6
CONTINUOUS
10
0.707244
20
0.863307
11
0.695433
21
0.863307
0
LINE
8
BLACK
6
CONTINUOUS
10
0.695433
20
0.863307
11
0.670236
21
0.863307
0
LINE
8
BLACK
6
CONTINUOUS
10
0.670236
20
0.863307
11
0.670236
21
0.842638
0
LINE
8
BLACK
6
CONTINUOUS
10
0.670236
20
0.842638
11
0.643465
21
0.842638
0
LINE
8
BLACK
6
CONTINUOUS
10
0.643465
20
0.842638
11
0.643465
21
0.83378
0
LINE
8
BLACK
6
CONTINUOUS
10
0.643465
20
0.83378
11
0.63874
21
0.83378
0
LINE
8
BLACK
6
CONTINUOUS
10
0.63874
20
0.83378
11
0.610197
21
0.83378
0
LINE
8
BLACK
6
CONTINUOUS
10
0.610197
20
0.83378
11
0.610197
21
0.828858
0
LINE
8
BLACK
6
CONTINUOUS
10
0.610197
20
0.828858
11
0.574764
21
0.828858
0
LINE
8
BLACK
6
CONTINUOUS
10
0.574764
20
0.828858
11
0.574764
21
0.860354
0
LINE
8
BLACK
6
CONTINUOUS
10
0.574764
20
0.860354
11
0.576535
21
0.860354
0
LINE
8
BLACK
6
CONTINUOUS
10
0.576535
20
0.860354
11
0.576535
21
0.892835
0
LINE
8
BLACK
6
CONTINUOUS
10
0.576535
20
0.892835
11
0.585591
21
0.892835
0
LINE
8
BLACK
6
CONTINUOUS
10
0.585591
20
0.892835
11
0.585591
21
0.895787
0
LINE
8
BLACK
6
CONTINUOUS
10
0.585591
20
0.895787
11
0.612756
21
0.895787
0
LINE
8
BLACK
6
CONTINUOUS
10
0.612756
20
0.895787
11
0.612756
21
0.922362
0
LINE
8
BLACK
6
CONTINUOUS
10
0.612756
20
0.922362
11
0.624567
21
0.922362
0
LINE
8
BLACK
6
CONTINUOUS
10
0.624567
20
0.922362
11
0.624567
21
0.942047
0
LINE
8
BLACK
6
CONTINUOUS
10
0.624567
20
0.942047
11
0.695433
21
0.942047
0
LINE
8
BLACK
6
CONTINUOUS
10
0.695433
20
0.942047
11
0.695433
21
0.922362
0
LINE
8
BLACK
6
CONTINUOUS
10
0.3475
20
0.9075
11
0.2925
21
0.9075
0
LINE
8
BLACK
6
CONTINUOUS
10
0.2925
20
0.9075
11
0.2925
21
0.9425
0
LINE
8
BLACK
6
CONTINUOUS
10
0.2925
20
0.9425
11
0.3475
21
0.9425
0
LINE
8
BLACK
6
CONTINUOUS
10
0.3475
20
0.9425
11
0.3475
21
0.9075
0
LINE
8
BLACK
6
CONTINUOUS
10
0.66
20
0.9725
11
0.625
21
0.9725
0
LINE
8
BLACK
6
CONTINUOUS
10
0.625
20
0.9725
11
0.625
21
1.0275
0
LINE
8
BLACK
6
CONTINUOUS
10
0.625
20
1.0275
11
0.66
21
1.0275
0
LINE
8
BLACK
6
CONTINUOUS
10
0.66
20
1.0275
11
0.66
21
0.9725
0
LINE
8
BLACK
6
CONTINUOUS
10
0.735
20
0.9725
11
0.7
21
0.9725
0
LINE
8
BLACK
6
CONTINUOUS
10
0.7
20
0.9725
11
0.7
21
1.0275
0
LINE
8
BLACK
6
CONTINUOUS
10
0.7
20
1.0275
11
0.735
21
1.0275
0
LINE
8
BLACK
6
CONTINUOUS
10
0.735
20
1.0275
11
0.735
21
0.9725
0
LINE
8
BLACK
6
CONTINUOUS
10
0.3475
20
0.9825
11
0.2925
21
0.9825
0
LINE
8
BLACK
6
CONTINUOUS
10
0.2925
20
0.9825
11
0.2925
21
1.0175
0
LINE
8
BLACK
6
CONTINUOUS
10
0.2925
20
1.0175
11
0.3475
21
1.0175
0
LINE
8
BLACK
6
CONTINUOUS
10
0.3475
20
1.0175
11
0.3475
21
0.9825
0
LINE
8
BLACK
6
CONTINUOUS
10
0.5875
20
0.985
11
0.5325
21
0.985
0
LINE
8
BLACK
6
CONTINUOUS
10
0.5325
20
0.985
11
0.5325
21
1.02
0
LINE
8
BLACK
6
CONTINUOUS
10
0.5325
20
1.02
11
0.5875
21
1.02
0
LINE
8
BLACK
6
CONTINUOUS
10
0.5875
20
1.02
11
0.5875
21
0.985
0
LINE
8
BLACK
6
CONTINUOUS
10
0.5875
20
1.06
11
0.5325
21
1.06
0
LINE
8
BLACK
6
CONTINUOUS
10
0.5325
20
1.06
11
0.5325
21
1.095
0
LINE
8
BLACK
6
CONTINUOUS
10
0.5325
20
1.095
11
0.5875
21
1.095
0
LINE
8
BLACK
6
CONTINUOUS
10
0.5875
20
1.095
11
0.5875
21
1.06
  0
ENDSEC
  0
EOF
