  0
SECTION
  2
HEADER
  9
$ANGBASE
  50
0.0
  9
$ANGDIR
  70
1
  9
$MEASUREMENT
  70
0
  0
ENDSEC
  0
SECTION
  2
TABLES
  0
TABLE
  2
LTYPE
  70
4
  0
LTYPE
  5
40F
  2
CONTINUOUS
  70
0
  3
Solid line
  72
65
  73
0
  40
0.0
  0
LTYPE
  5
410
  2
DASHDOT
 70
0
  3
Dash Dot ____ _ ____ _
 72
65
 73
4
 40
2.0
 49
1.25
 49
-0.25
 49
0.25
 49
-0.25
  0
LTYPE
  5
411
  2
DASHED
 70
0
  3
Dashed __ __ __ __ __
 72
65
 73
2
 40
0.75
 49
0.5
 49
-0.25
  0
LTYPE
  5
43B
  2
DOTTED
 70
0
  3
Dotted .  .  .  .
 72
65
 73
2
 40
0.2
 49
0.0
 49
-0.2
  0
ENDTAB
  0
TABLE
  2
STYLE
  70
4
  0
STYLE
  2
KICAD
  70
0
  40
0
  41
1
  42
1
  50
0
  71
0
  3
isocp.shx
  0
STYLE
  2
KICADB
  70
0
  40
0
  41
1
  42
1
  50
0
  71
0
  3
isocp.shx
  0
STYLE
  2
KICADI
  70
0
  40
0
  41
1
  42
1
  50
15
  71
0
  3
isocp.shx
  0
STYLE
  2
KICADBI
  70
0
  40
0
  41
1
  42
1
  50
15
  71
0
  3
isocp.shx
  0
ENDTAB
  0
TABLE
  2
LAYER
  70
1
  0
LAYER
  2
BLACK
  70
0
  62
7
  6
CONTINUOUS
  0
ENDTAB
  0
ENDSEC
  0
SECTION
  2
ENTITIES
0
LINE
8
BLACK
6
CONTINUOUS
10
0.214106
20
0.325192
11
0.228034
21
0.322826
0
LINE
8
BLACK
6
CONTINUOUS
10
0.228034
20
0.322826
11
0.24161
21
0.318914
0
LINE
8
BLACK
6
CONTINUOUS
10
0.24161
20
0.318914
11
0.254663
21
0.313508
0
LINE
8
BLACK
6
CONTINUOUS
10
0.254663
20
0.313508
11
0.267028
21
0.306674
0
LINE
8
BLACK
6
CONTINUOUS
10
0.267028
20
0.306674
11
0.27855
21
0.298498
0
LINE
8
BLACK
6
CONTINUOUS
10
0.27855
20
0.298498
11
0.289084
21
0.289084
0
LINE
8
BLACK
6
CONTINUOUS
10
0.289084
20
0.289084
11
0.298498
21
0.27855
0
LINE
8
BLACK
6
CONTINUOUS
10
0.298498
20
0.27855
11
0.306674
21
0.267028
0
LINE
8
BLACK
6
CONTINUOUS
10
0.306674
20
0.267028
11
0.313508
21
0.254663
0
LINE
8
BLACK
6
CONTINUOUS
10
0.313508
20
0.254663
11
0.318914
21
0.24161
0
LINE
8
BLACK
6
CONTINUOUS
10
0.318914
20
0.24161
11
0.322826
21
0.228034
0
LINE
8
BLACK
6
CONTINUOUS
10
0.322826
20
0.228034
11
0.325192
21
0.214106
0
LINE
8
BLACK
6
CONTINUOUS
10
0.325192
20
0.214106
11
0.325984
21
0.2
0
LINE
8
BLACK
6
CONTINUOUS
10
0.325984
20
0.2
11
0.325192
21
0.185894
0
LINE
8
BLACK
6
CONTINUOUS
10
0.325192
20
0.185894
11
0.322826
21
0.171966
0
LINE
8
BLACK
6
CONTINUOUS
10
0.322826
20
0.171966
11
0.318914
21
0.15839
0
LINE
8
BLACK
6
CONTINUOUS
10
0.318914
20
0.15839
11
0.313508
21
0.145337
0
LINE
8
BLACK
6
CONTINUOUS
10
0.313508
20
0.145337
11
0.306674
21
0.132972
0
LINE
8
BLACK
6
CONTINUOUS
10
0.306674
20
0.132972
11
0.298498
21
0.12145
0
LINE
8
BLACK
6
CONTINUOUS
10
0.298498
20
0.12145
11
0.289084
21
0.110916
0
LINE
8
BLACK
6
CONTINUOUS
10
0.289084
20
0.110916
11
0.27855
21
0.101502
0
LINE
8
BLACK
6
CONTINUOUS
10
0.27855
20
0.101502
11
0.267028
21
0.0933261
0
LINE
8
BLACK
6
CONTINUOUS
10
0.267028
20
0.0933261
11
0.254663
21
0.0864921
0
LINE
8
BLACK
6
CONTINUOUS
10
0.254663
20
0.0864921
11
0.24161
21
0.0810856
0
LINE
8
BLACK
6
CONTINUOUS
10
0.24161
20
0.0810856
11
0.228034
21
0.0771744
0
LINE
8
BLACK
6
CONTINUOUS
10
0.228034
20
0.0771744
11
0.214106
21
0.0748079
0
LINE
8
BLACK
6
CONTINUOUS
10
0.214106
20
0.0748079
11
0.2
21
0.0740157
0
LINE
8
BLACK
6
CONTINUOUS
10
0.2
20
0.0740157
11
0.185894
21
0.0748079
0
LINE
8
BLACK
6
CONTINUOUS
10
0.185894
20
0.0748079
11
0.171966
21
0.0771744
0
LINE
8
BLACK
6
CONTINUOUS
10
0.171966
20
0.0771744
11
0.15839
21
0.0810856
0
LINE
8
BLACK
6
CONTINUOUS
10
0.15839
20
0.0810856
11
0.145337
21
0.0864921
0
LINE
8
BLACK
6
CONTINUOUS
10
0.145337
20
0.0864921
11
0.132972
21
0.0933261
0
LINE
8
BLACK
6
CONTINUOUS
10
0.132972
20
0.0933261
11
0.12145
21
0.101502
0
LINE
8
BLACK
6
CONTINUOUS
10
0.12145
20
0.101502
11
0.110916
21
0.110916
0
LINE
8
BLACK
6
CONTINUOUS
10
0.110916
20
0.110916
11
0.101502
21
0.12145
0
LINE
8
BLACK
6
CONTINUOUS
10
0.101502
20
0.12145
11
0.0933261
21
0.132972
0
LINE
8
BLACK
6
CONTINUOUS
10
0.0933261
20
0.132972
11
0.0864921
21
0.145337
0
LINE
8
BLACK
6
CONTINUOUS
10
0.0864921
20
0.145337
11
0.0810856
21
0.15839
0
LINE
8
BLACK
6
CONTINUOUS
10
0.0810856
20
0.15839
11
0.0771744
21
0.171966
0
LINE
8
BLACK
6
CONTINUOUS
10
0.0771744
20
0.171966
11
0.0748079
21
0.185894
0
LINE
8
BLACK
6
CONTINUOUS
10
0.0748079
20
0.185894
11
0.0740157
21
0.2
0
LINE
8
BLACK
6
CONTINUOUS
10
0.0740157
20
0.2
11
0.0748079
21
0.214106
0
LINE
8
BLACK
6
CONTINUOUS
10
0.0748079
20
0.214106
11
0.0771744
21
0.228034
0
LINE
8
BLACK
6
CONTINUOUS
10
0.0771744
20
0.228034
11
0.0810856
21
0.24161
0
LINE
8
BLACK
6
CONTINUOUS
10
0.0810856
20
0.24161
11
0.0864921
21
0.254663
0
LINE
8
BLACK
6
CONTINUOUS
10
0.0864921
20
0.254663
11
0.0933261
21
0.267028
0
LINE
8
BLACK
6
CONTINUOUS
10
0.0933261
20
0.267028
11
0.101502
21
0.27855
0
LINE
8
BLACK
6
CONTINUOUS
10
0.101502
20
0.27855
11
0.110916
21
0.289084
0
LINE
8
BLACK
6
CONTINUOUS
10
0.110916
20
0.289084
11
0.12145
21
0.298498
0
LINE
8
BLACK
6
CONTINUOUS
10
0.12145
20
0.298498
11
0.132972
21
0.306674
0
LINE
8
BLACK
6
CONTINUOUS
10
0.132972
20
0.306674
11
0.145337
21
0.313508
0
LINE
8
BLACK
6
CONTINUOUS
10
0.145337
20
0.313508
11
0.15839
21
0.318914
0
LINE
8
BLACK
6
CONTINUOUS
10
0.15839
20
0.318914
11
0.171966
21
0.322826
0
LINE
8
BLACK
6
CONTINUOUS
10
0.171966
20
0.322826
11
0.185894
21
0.325192
0
LINE
8
BLACK
6
CONTINUOUS
10
0.185894
20
0.325192
11
0.2
21
0.325984
0
LINE
8
BLACK
6
CONTINUOUS
10
0.2
20
0.325984
11
0.214106
21
0.325192
0
LINE
8
BLACK
6
CONTINUOUS
10
0.614106
20
0.325192
11
0.628034
21
0.322826
0
LINE
8
BLACK
6
CONTINUOUS
10
0.628034
20
0.322826
11
0.64161
21
0.318914
0
LINE
8
BLACK
6
CONTINUOUS
10
0.64161
20
0.318914
11
0.654663
21
0.313508
0
LINE
8
BLACK
6
CONTINUOUS
10
0.654663
20
0.313508
11
0.667028
21
0.306674
0
LINE
8
BLACK
6
CONTINUOUS
10
0.667028
20
0.306674
11
0.67855
21
0.298498
0
LINE
8
BLACK
6
CONTINUOUS
10
0.67855
20
0.298498
11
0.689084
21
0.289084
0
LINE
8
BLACK
6
CONTINUOUS
10
0.689084
20
0.289084
11
0.698498
21
0.27855
0
LINE
8
BLACK
6
CONTINUOUS
10
0.698498
20
0.27855
11
0.706674
21
0.267028
0
LINE
8
BLACK
6
CONTINUOUS
10
0.706674
20
0.267028
11
0.713508
21
0.254663
0
LINE
8
BLACK
6
CONTINUOUS
10
0.713508
20
0.254663
11
0.718914
21
0.24161
0
LINE
8
BLACK
6
CONTINUOUS
10
0.718914
20
0.24161
11
0.722826
21
0.228034
0
LINE
8
BLACK
6
CONTINUOUS
10
0.722826
20
0.228034
11
0.725192
21
0.214106
0
LINE
8
BLACK
6
CONTINUOUS
10
0.725192
20
0.214106
11
0.725984
21
0.2
0
LINE
8
BLACK
6
CONTINUOUS
10
0.725984
20
0.2
11
0.725192
21
0.185894
0
LINE
8
BLACK
6
CONTINUOUS
10
0.725192
20
0.185894
11
0.722826
21
0.171966
0
LINE
8
BLACK
6
CONTINUOUS
10
0.722826
20
0.171966
11
0.718914
21
0.15839
0
LINE
8
BLACK
6
CONTINUOUS
10
0.718914
20
0.15839
11
0.713508
21
0.145337
0
LINE
8
BLACK
6
CONTINUOUS
10
0.713508
20
0.145337
11
0.706674
21
0.132972
0
LINE
8
BLACK
6
CONTINUOUS
10
0.706674
20
0.132972
11
0.698498
21
0.12145
0
LINE
8
BLACK
6
CONTINUOUS
10
0.698498
20
0.12145
11
0.689084
21
0.110916
0
LINE
8
BLACK
6
CONTINUOUS
10
0.689084
20
0.110916
11
0.67855
21
0.101502
0
LINE
8
BLACK
6
CONTINUOUS
10
0.67855
20
0.101502
11
0.667028
21
0.0933261
0
LINE
8
BLACK
6
CONTINUOUS
10
0.667028
20
0.0933261
11
0.654663
21
0.0864921
0
LINE
8
BLACK
6
CONTINUOUS
10
0.654663
20
0.0864921
11
0.64161
21
0.0810856
0
LINE
8
BLACK
6
CONTINUOUS
10
0.64161
20
0.0810856
11
0.628034
21
0.0771744
0
LINE
8
BLACK
6
CONTINUOUS
10
0.628034
20
0.0771744
11
0.614106
21
0.0748079
0
LINE
8
BLACK
6
CONTINUOUS
10
0.614106
20
0.0748079
11
0.6
21
0.0740157
0
LINE
8
BLACK
6
CONTINUOUS
10
0.6
20
0.0740157
11
0.585894
21
0.0748079
0
LINE
8
BLACK
6
CONTINUOUS
10
0.585894
20
0.0748079
11
0.571966
21
0.0771744
0
LINE
8
BLACK
6
CONTINUOUS
10
0.571966
20
0.0771744
11
0.55839
21
0.0810856
0
LINE
8
BLACK
6
CONTINUOUS
10
0.55839
20
0.0810856
11
0.545337
21
0.0864921
0
LINE
8
BLACK
6
CONTINUOUS
10
0.545337
20
0.0864921
11
0.532972
21
0.0933261
0
LINE
8
BLACK
6
CONTINUOUS
10
0.532972
20
0.0933261
11
0.52145
21
0.101502
0
LINE
8
BLACK
6
CONTINUOUS
10
0.52145
20
0.101502
11
0.510916
21
0.110916
0
LINE
8
BLACK
6
CONTINUOUS
10
0.510916
20
0.110916
11
0.501502
21
0.12145
0
LINE
8
BLACK
6
CONTINUOUS
10
0.501502
20
0.12145
11
0.493326
21
0.132972
0
LINE
8
BLACK
6
CONTINUOUS
10
0.493326
20
0.132972
11
0.486492
21
0.145337
0
LINE
8
BLACK
6
CONTINUOUS
10
0.486492
20
0.145337
11
0.481086
21
0.15839
0
LINE
8
BLACK
6
CONTINUOUS
10
0.481086
20
0.15839
11
0.477174
21
0.171966
0
LINE
8
BLACK
6
CONTINUOUS
10
0.477174
20
0.171966
11
0.474808
21
0.185894
0
LINE
8
BLACK
6
CONTINUOUS
10
0.474808
20
0.185894
11
0.474016
21
0.2
0
LINE
8
BLACK
6
CONTINUOUS
10
0.474016
20
0.2
11
0.474808
21
0.214106
0
LINE
8
BLACK
6
CONTINUOUS
10
0.474808
20
0.214106
11
0.477174
21
0.228034
0
LINE
8
BLACK
6
CONTINUOUS
10
0.477174
20
0.228034
11
0.481086
21
0.24161
0
LINE
8
BLACK
6
CONTINUOUS
10
0.481086
20
0.24161
11
0.486492
21
0.254663
0
LINE
8
BLACK
6
CONTINUOUS
10
0.486492
20
0.254663
11
0.493326
21
0.267028
0
LINE
8
BLACK
6
CONTINUOUS
10
0.493326
20
0.267028
11
0.501502
21
0.27855
0
LINE
8
BLACK
6
CONTINUOUS
10
0.501502
20
0.27855
11
0.510916
21
0.289084
0
LINE
8
BLACK
6
CONTINUOUS
10
0.510916
20
0.289084
11
0.52145
21
0.298498
0
LINE
8
BLACK
6
CONTINUOUS
10
0.52145
20
0.298498
11
0.532972
21
0.306674
0
LINE
8
BLACK
6
CONTINUOUS
10
0.532972
20
0.306674
11
0.545337
21
0.313508
0
LINE
8
BLACK
6
CONTINUOUS
10
0.545337
20
0.313508
11
0.55839
21
0.318914
0
LINE
8
BLACK
6
CONTINUOUS
10
0.55839
20
0.318914
11
0.571966
21
0.322826
0
LINE
8
BLACK
6
CONTINUOUS
10
0.571966
20
0.322826
11
0.585894
21
0.325192
0
LINE
8
BLACK
6
CONTINUOUS
10
0.585894
20
0.325192
11
0.6
21
0.325984
0
LINE
8
BLACK
6
CONTINUOUS
10
0.6
20
0.325984
11
0.614106
21
0.325192
0
LINE
8
BLACK
6
CONTINUOUS
10
0.123013
20
0.517275
11
0.125568
21
0.515568
0
LINE
8
BLACK
6
CONTINUOUS
10
0.125568
20
0.515568
11
0.127275
21
0.513013
0
LINE
8
BLACK
6
CONTINUOUS
10
0.127275
20
0.513013
11
0.127874
21
0.51
0
LINE
8
BLACK
6
CONTINUOUS
10
0.127874
20
0.51
11
0.127874
21
0.45
0
LINE
8
BLACK
6
CONTINUOUS
10
0.127874
20
0.45
11
0.127275
21
0.446987
0
LINE
8
BLACK
6
CONTINUOUS
10
0.127275
20
0.446987
11
0.125568
21
0.444432
0
LINE
8
BLACK
6
CONTINUOUS
10
0.125568
20
0.444432
11
0.123013
21
0.442725
0
LINE
8
BLACK
6
CONTINUOUS
10
0.123013
20
0.442725
11
0.12
21
0.442126
0
LINE
8
BLACK
6
CONTINUOUS
10
0.12
20
0.442126
11
0.06
21
0.442126
0
LINE
8
BLACK
6
CONTINUOUS
10
0.06
20
0.442126
11
0.0569867
21
0.442725
0
LINE
8
BLACK
6
CONTINUOUS
10
0.0569867
20
0.442725
11
0.0544322
21
0.444432
0
LINE
8
BLACK
6
CONTINUOUS
10
0.0544322
20
0.444432
11
0.0527254
21
0.446987
0
LINE
8
BLACK
6
CONTINUOUS
10
0.0527254
20
0.446987
11
0.052126
21
0.45
0
LINE
8
BLACK
6
CONTINUOUS
10
0.052126
20
0.45
11
0.052126
21
0.51
0
LINE
8
BLACK
6
CONTINUOUS
10
0.052126
20
0.51
11
0.0527254
21
0.513013
0
LINE
8
BLACK
6
CONTINUOUS
10
0.0527254
20
0.513013
11
0.0544322
21
0.515568
0
LINE
8
BLACK
6
CONTINUOUS
10
0.0544322
20
0.515568
11
0.0569867
21
0.517275
0
LINE
8
BLACK
6
CONTINUOUS
10
0.0569867
20
0.517275
11
0.06
21
0.517874
0
LINE
8
BLACK
6
CONTINUOUS
10
0.06
20
0.517874
11
0.12
21
0.517874
0
LINE
8
BLACK
6
CONTINUOUS
10
0.12
20
0.517874
11
0.123013
21
0.517275
0
LINE
8
BLACK
6
CONTINUOUS
10
0.223013
20
0.517275
11
0.225568
21
0.515568
0
LINE
8
BLACK
6
CONTINUOUS
10
0.225568
20
0.515568
11
0.227275
21
0.513013
0
LINE
8
BLACK
6
CONTINUOUS
10
0.227275
20
0.513013
11
0.227874
21
0.51
0
LINE
8
BLACK
6
CONTINUOUS
10
0.227874
20
0.51
11
0.227874
21
0.45
0
LINE
8
BLACK
6
CONTINUOUS
10
0.227874
20
0.45
11
0.227275
21
0.446987
0
LINE
8
BLACK
6
CONTINUOUS
10
0.227275
20
0.446987
11
0.225568
21
0.444432
0
LINE
8
BLACK
6
CONTINUOUS
10
0.225568
20
0.444432
11
0.223013
21
0.442725
0
LINE
8
BLACK
6
CONTINUOUS
10
0.223013
20
0.442725
11
0.22
21
0.442126
0
LINE
8
BLACK
6
CONTINUOUS
10
0.22
20
0.442126
11
0.16
21
0.442126
0
LINE
8
BLACK
6
CONTINUOUS
10
0.16
20
0.442126
11
0.156987
21
0.442725
0
LINE
8
BLACK
6
CONTINUOUS
10
0.156987
20
0.442725
11
0.154432
21
0.444432
0
LINE
8
BLACK
6
CONTINUOUS
10
0.154432
20
0.444432
11
0.152725
21
0.446987
0
LINE
8
BLACK
6
CONTINUOUS
10
0.152725
20
0.446987
11
0.152126
21
0.45
0
LINE
8
BLACK
6
CONTINUOUS
10
0.152126
20
0.45
11
0.152126
21
0.51
0
LINE
8
BLACK
6
CONTINUOUS
10
0.152126
20
0.51
11
0.152725
21
0.513013
0
LINE
8
BLACK
6
CONTINUOUS
10
0.152725
20
0.513013
11
0.154432
21
0.515568
0
LINE
8
BLACK
6
CONTINUOUS
10
0.154432
20
0.515568
11
0.156987
21
0.517275
0
LINE
8
BLACK
6
CONTINUOUS
10
0.156987
20
0.517275
11
0.16
21
0.517874
0
LINE
8
BLACK
6
CONTINUOUS
10
0.16
20
0.517874
11
0.22
21
0.517874
0
LINE
8
BLACK
6
CONTINUOUS
10
0.22
20
0.517874
11
0.223013
21
0.517275
0
LINE
8
BLACK
6
CONTINUOUS
10
0.380926
20
0.59599
11
0.391629
21
0.593662
0
LINE
8
BLACK
6
CONTINUOUS
10
0.391629
20
0.593662
11
0.401892
21
0.589834
0
LINE
8
BLACK
6
CONTINUOUS
10
0.401892
20
0.589834
11
0.411506
21
0.584584
0
LINE
8
BLACK
6
CONTINUOUS
10
0.411506
20
0.584584
11
0.420275
21
0.57802
0
LINE
8
BLACK
6
CONTINUOUS
10
0.420275
20
0.57802
11
0.42802
21
0.570275
0
LINE
8
BLACK
6
CONTINUOUS
10
0.42802
20
0.570275
11
0.434584
21
0.561506
0
LINE
8
BLACK
6
CONTINUOUS
10
0.434584
20
0.561506
11
0.439834
21
0.551892
0
LINE
8
BLACK
6
CONTINUOUS
10
0.439834
20
0.551892
11
0.443662
21
0.541629
0
LINE
8
BLACK
6
CONTINUOUS
10
0.443662
20
0.541629
11
0.44599
21
0.530926
0
LINE
8
BLACK
6
CONTINUOUS
10
0.44599
20
0.530926
11
0.446772
21
0.52
0
LINE
8
BLACK
6
CONTINUOUS
10
0.446772
20
0.52
11
0.44599
21
0.509074
0
LINE
8
BLACK
6
CONTINUOUS
10
0.44599
20
0.509074
11
0.443662
21
0.498371
0
LINE
8
BLACK
6
CONTINUOUS
10
0.443662
20
0.498371
11
0.439834
21
0.488108
0
LINE
8
BLACK
6
CONTINUOUS
10
0.439834
20
0.488108
11
0.434584
21
0.478494
0
LINE
8
BLACK
6
CONTINUOUS
10
0.434584
20
0.478494
11
0.42802
21
0.469725
0
LINE
8
BLACK
6
CONTINUOUS
10
0.42802
20
0.469725
11
0.420275
21
0.46198
0
LINE
8
BLACK
6
CONTINUOUS
10
0.420275
20
0.46198
11
0.411506
21
0.455416
0
LINE
8
BLACK
6
CONTINUOUS
10
0.411506
20
0.455416
11
0.401892
21
0.450166
0
LINE
8
BLACK
6
CONTINUOUS
10
0.401892
20
0.450166
11
0.391629
21
0.446338
0
LINE
8
BLACK
6
CONTINUOUS
10
0.391629
20
0.446338
11
0.380926
21
0.44401
0
LINE
8
BLACK
6
CONTINUOUS
10
0.380926
20
0.44401
11
0.37
21
0.443228
0
LINE
8
BLACK
6
CONTINUOUS
10
0.37
20
0.443228
11
0.359074
21
0.44401
0
LINE
8
BLACK
6
CONTINUOUS
10
0.359074
20
0.44401
11
0.348371
21
0.446338
0
LINE
8
BLACK
6
CONTINUOUS
10
0.348371
20
0.446338
11
0.338108
21
0.450166
0
LINE
8
BLACK
6
CONTINUOUS
10
0.338108
20
0.450166
11
0.328494
21
0.455416
0
LINE
8
BLACK
6
CONTINUOUS
10
0.328494
20
0.455416
11
0.319725
21
0.46198
0
LINE
8
BLACK
6
CONTINUOUS
10
0.319725
20
0.46198
11
0.31198
21
0.469725
0
LINE
8
BLACK
6
CONTINUOUS
10
0.31198
20
0.469725
11
0.305416
21
0.478494
0
LINE
8
BLACK
6
CONTINUOUS
10
0.305416
20
0.478494
11
0.300166
21
0.488108
0
LINE
8
BLACK
6
CONTINUOUS
10
0.300166
20
0.488108
11
0.296338
21
0.498371
0
LINE
8
BLACK
6
CONTINUOUS
10
0.296338
20
0.498371
11
0.29401
21
0.509074
0
LINE
8
BLACK
6
CONTINUOUS
10
0.29401
20
0.509074
11
0.293228
21
0.52
0
LINE
8
BLACK
6
CONTINUOUS
10
0.293228
20
0.52
11
0.29401
21
0.530926
0
LINE
8
BLACK
6
CONTINUOUS
10
0.29401
20
0.530926
11
0.296338
21
0.541629
0
LINE
8
BLACK
6
CONTINUOUS
10
0.296338
20
0.541629
11
0.300166
21
0.551892
0
LINE
8
BLACK
6
CONTINUOUS
10
0.300166
20
0.551892
11
0.305416
21
0.561506
0
LINE
8
BLACK
6
CONTINUOUS
10
0.305416
20
0.561506
11
0.31198
21
0.570275
0
LINE
8
BLACK
6
CONTINUOUS
10
0.31198
20
0.570275
11
0.319725
21
0.57802
0
LINE
8
BLACK
6
CONTINUOUS
10
0.319725
20
0.57802
11
0.328494
21
0.584584
0
LINE
8
BLACK
6
CONTINUOUS
10
0.328494
20
0.584584
11
0.338108
21
0.589834
0
LINE
8
BLACK
6
CONTINUOUS
10
0.338108
20
0.589834
11
0.348371
21
0.593662
0
LINE
8
BLACK
6
CONTINUOUS
10
0.348371
20
0.593662
11
0.359074
21
0.59599
0
LINE
8
BLACK
6
CONTINUOUS
10
0.359074
20
0.59599
11
0.37
21
0.596772
0
LINE
8
BLACK
6
CONTINUOUS
10
0.37
20
0.596772
11
0.380926
21
0.59599
0
LINE
8
BLACK
6
CONTINUOUS
10
0.680926
20
0.59599
11
0.691629
21
0.593662
0
LINE
8
BLACK
6
CONTINUOUS
10
0.691629
20
0.593662
11
0.701892
21
0.589834
0
LINE
8
BLACK
6
CONTINUOUS
10
0.701892
20
0.589834
11
0.711506
21
0.584584
0
LINE
8
BLACK
6
CONTINUOUS
10
0.711506
20
0.584584
11
0.720275
21
0.57802
0
LINE
8
BLACK
6
CONTINUOUS
10
0.720275
20
0.57802
11
0.72802
21
0.570275
0
LINE
8
BLACK
6
CONTINUOUS
10
0.72802
20
0.570275
11
0.734584
21
0.561506
0
LINE
8
BLACK
6
CONTINUOUS
10
0.734584
20
0.561506
11
0.739834
21
0.551892
0
LINE
8
BLACK
6
CONTINUOUS
10
0.739834
20
0.551892
11
0.743662
21
0.541629
0
LINE
8
BLACK
6
CONTINUOUS
10
0.743662
20
0.541629
11
0.74599
21
0.530926
0
LINE
8
BLACK
6
CONTINUOUS
10
0.74599
20
0.530926
11
0.746772
21
0.52
0
LINE
8
BLACK
6
CONTINUOUS
10
0.746772
20
0.52
11
0.74599
21
0.509074
0
LINE
8
BLACK
6
CONTINUOUS
10
0.74599
20
0.509074
11
0.743662
21
0.498371
0
LINE
8
BLACK
6
CONTINUOUS
10
0.743662
20
0.498371
11
0.739834
21
0.488108
0
LINE
8
BLACK
6
CONTINUOUS
10
0.739834
20
0.488108
11
0.734584
21
0.478494
0
LINE
8
BLACK
6
CONTINUOUS
10
0.734584
20
0.478494
11
0.72802
21
0.469725
0
LINE
8
BLACK
6
CONTINUOUS
10
0.72802
20
0.469725
11
0.720275
21
0.46198
0
LINE
8
BLACK
6
CONTINUOUS
10
0.720275
20
0.46198
11
0.711506
21
0.455416
0
LINE
8
BLACK
6
CONTINUOUS
10
0.711506
20
0.455416
11
0.701892
21
0.450166
0
LINE
8
BLACK
6
CONTINUOUS
10
0.701892
20
0.450166
11
0.691629
21
0.446338
0
LINE
8
BLACK
6
CONTINUOUS
10
0.691629
20
0.446338
11
0.680926
21
0.44401
0
LINE
8
BLACK
6
CONTINUOUS
10
0.680926
20
0.44401
11
0.67
21
0.443228
0
LINE
8
BLACK
6
CONTINUOUS
10
0.67
20
0.443228
11
0.659074
21
0.44401
0
LINE
8
BLACK
6
CONTINUOUS
10
0.659074
20
0.44401
11
0.648371
21
0.446338
0
LINE
8
BLACK
6
CONTINUOUS
10
0.648371
20
0.446338
11
0.638108
21
0.450166
0
LINE
8
BLACK
6
CONTINUOUS
10
0.638108
20
0.450166
11
0.628494
21
0.455416
0
LINE
8
BLACK
6
CONTINUOUS
10
0.628494
20
0.455416
11
0.619725
21
0.46198
0
LINE
8
BLACK
6
CONTINUOUS
10
0.619725
20
0.46198
11
0.61198
21
0.469725
0
LINE
8
BLACK
6
CONTINUOUS
10
0.61198
20
0.469725
11
0.605416
21
0.478494
0
LINE
8
BLACK
6
CONTINUOUS
10
0.605416
20
0.478494
11
0.600166
21
0.488108
0
LINE
8
BLACK
6
CONTINUOUS
10
0.600166
20
0.488108
11
0.596338
21
0.498371
0
LINE
8
BLACK
6
CONTINUOUS
10
0.596338
20
0.498371
11
0.59401
21
0.509074
0
LINE
8
BLACK
6
CONTINUOUS
10
0.59401
20
0.509074
11
0.593228
21
0.52
0
LINE
8
BLACK
6
CONTINUOUS
10
0.593228
20
0.52
11
0.59401
21
0.530926
0
LINE
8
BLACK
6
CONTINUOUS
10
0.59401
20
0.530926
11
0.596338
21
0.541629
0
LINE
8
BLACK
6
CONTINUOUS
10
0.596338
20
0.541629
11
0.600166
21
0.551892
0
LINE
8
BLACK
6
CONTINUOUS
10
0.600166
20
0.551892
11
0.605416
21
0.561506
0
LINE
8
BLACK
6
CONTINUOUS
10
0.605416
20
0.561506
11
0.61198
21
0.570275
0
LINE
8
BLACK
6
CONTINUOUS
10
0.61198
20
0.570275
11
0.619725
21
0.57802
0
LINE
8
BLACK
6
CONTINUOUS
10
0.619725
20
0.57802
11
0.628494
21
0.584584
0
LINE
8
BLACK
6
CONTINUOUS
10
0.628494
20
0.584584
11
0.638108
21
0.589834
0
LINE
8
BLACK
6
CONTINUOUS
10
0.638108
20
0.589834
11
0.648371
21
0.593662
0
LINE
8
BLACK
6
CONTINUOUS
10
0.648371
20
0.593662
11
0.659074
21
0.59599
0
LINE
8
BLACK
6
CONTINUOUS
10
0.659074
20
0.59599
11
0.67
21
0.596772
0
LINE
8
BLACK
6
CONTINUOUS
10
0.67
20
0.596772
11
0.680926
21
0.59599
0
LINE
8
BLACK
6
CONTINUOUS
10
0.123013
20
0.617275
11
0.125568
21
0.615568
0
LINE
8
BLACK
6
CONTINUOUS
10
0.125568
20
0.615568
11
0.127275
21
0.613013
0
LINE
8
BLACK
6
CONTINUOUS
10
0.127275
20
0.613013
11
0.127874
21
0.61
0
LINE
8
BLACK
6
CONTINUOUS
10
0.127874
20
0.61
11
0.127874
21
0.55
0
LINE
8
BLACK
6
CONTINUOUS
10
0.127874
20
0.55
11
0.127275
21
0.546987
0
LINE
8
BLACK
6
CONTINUOUS
10
0.127275
20
0.546987
11
0.125568
21
0.544432
0
LINE
8
BLACK
6
CONTINUOUS
10
0.125568
20
0.544432
11
0.123013
21
0.542725
0
LINE
8
BLACK
6
CONTINUOUS
10
0.123013
20
0.542725
11
0.12
21
0.542126
0
LINE
8
BLACK
6
CONTINUOUS
10
0.12
20
0.542126
11
0.06
21
0.542126
0
LINE
8
BLACK
6
CONTINUOUS
10
0.06
20
0.542126
11
0.0569867
21
0.542725
0
LINE
8
BLACK
6
CONTINUOUS
10
0.0569867
20
0.542725
11
0.0544322
21
0.544432
0
LINE
8
BLACK
6
CONTINUOUS
10
0.0544322
20
0.544432
11
0.0527254
21
0.546987
0
LINE
8
BLACK
6
CONTINUOUS
10
0.0527254
20
0.546987
11
0.052126
21
0.55
0
LINE
8
BLACK
6
CONTINUOUS
10
0.052126
20
0.55
11
0.052126
21
0.61
0
LINE
8
BLACK
6
CONTINUOUS
10
0.052126
20
0.61
11
0.0527254
21
0.613013
0
LINE
8
BLACK
6
CONTINUOUS
10
0.0527254
20
0.613013
11
0.0544322
21
0.615568
0
LINE
8
BLACK
6
CONTINUOUS
10
0.0544322
20
0.615568
11
0.0569867
21
0.617275
0
LINE
8
BLACK
6
CONTINUOUS
10
0.0569867
20
0.617275
11
0.06
21
0.617874
0
LINE
8
BLACK
6
CONTINUOUS
10
0.06
20
0.617874
11
0.12
21
0.617874
0
LINE
8
BLACK
6
CONTINUOUS
10
0.12
20
0.617874
11
0.123013
21
0.617275
0
LINE
8
BLACK
6
CONTINUOUS
10
0.223013
20
0.617275
11
0.225568
21
0.615568
0
LINE
8
BLACK
6
CONTINUOUS
10
0.225568
20
0.615568
11
0.227275
21
0.613013
0
LINE
8
BLACK
6
CONTINUOUS
10
0.227275
20
0.613013
11
0.227874
21
0.61
0
LINE
8
BLACK
6
CONTINUOUS
10
0.227874
20
0.61
11
0.227874
21
0.55
0
LINE
8
BLACK
6
CONTINUOUS
10
0.227874
20
0.55
11
0.227275
21
0.546987
0
LINE
8
BLACK
6
CONTINUOUS
10
0.227275
20
0.546987
11
0.225568
21
0.544432
0
LINE
8
BLACK
6
CONTINUOUS
10
0.225568
20
0.544432
11
0.223013
21
0.542725
0
LINE
8
BLACK
6
CONTINUOUS
10
0.223013
20
0.542725
11
0.22
21
0.542126
0
LINE
8
BLACK
6
CONTINUOUS
10
0.22
20
0.542126
11
0.16
21
0.542126
0
LINE
8
BLACK
6
CONTINUOUS
10
0.16
20
0.542126
11
0.156987
21
0.542725
0
LINE
8
BLACK
6
CONTINUOUS
10
0.156987
20
0.542725
11
0.154432
21
0.544432
0
LINE
8
BLACK
6
CONTINUOUS
10
0.154432
20
0.544432
11
0.152725
21
0.546987
0
LINE
8
BLACK
6
CONTINUOUS
10
0.152725
20
0.546987
11
0.152126
21
0.55
0
LINE
8
BLACK
6
CONTINUOUS
10
0.152126
20
0.55
11
0.152126
21
0.61
0
LINE
8
BLACK
6
CONTINUOUS
10
0.152126
20
0.61
11
0.152725
21
0.613013
0
LINE
8
BLACK
6
CONTINUOUS
10
0.152725
20
0.613013
11
0.154432
21
0.615568
0
LINE
8
BLACK
6
CONTINUOUS
10
0.154432
20
0.615568
11
0.156987
21
0.617275
0
LINE
8
BLACK
6
CONTINUOUS
10
0.156987
20
0.617275
11
0.16
21
0.617874
0
LINE
8
BLACK
6
CONTINUOUS
10
0.16
20
0.617874
11
0.22
21
0.617874
0
LINE
8
BLACK
6
CONTINUOUS
10
0.22
20
0.617874
11
0.223013
21
0.617275
0
LINE
8
BLACK
6
CONTINUOUS
10
0.463013
20
0.654775
11
0.465568
21
0.653068
0
LINE
8
BLACK
6
CONTINUOUS
10
0.465568
20
0.653068
11
0.467275
21
0.650513
0
LINE
8
BLACK
6
CONTINUOUS
10
0.467275
20
0.650513
11
0.467874
21
0.6475
0
LINE
8
BLACK
6
CONTINUOUS
10
0.467874
20
0.6475
11
0.467874
21
0.5925
0
LINE
8
BLACK
6
CONTINUOUS
10
0.467874
20
0.5925
11
0.467275
21
0.589487
0
LINE
8
BLACK
6
CONTINUOUS
10
0.467275
20
0.589487
11
0.465568
21
0.586932
0
LINE
8
BLACK
6
CONTINUOUS
10
0.465568
20
0.586932
11
0.463013
21
0.585225
0
LINE
8
BLACK
6
CONTINUOUS
10
0.463013
20
0.585225
11
0.46
21
0.584626
0
LINE
8
BLACK
6
CONTINUOUS
10
0.46
20
0.584626
11
0.425
21
0.584626
0
LINE
8
BLACK
6
CONTINUOUS
10
0.425
20
0.584626
11
0.421987
21
0.585225
0
LINE
8
BLACK
6
CONTINUOUS
10
0.421987
20
0.585225
11
0.419432
21
0.586932
0
LINE
8
BLACK
6
CONTINUOUS
10
0.419432
20
0.586932
11
0.417725
21
0.589487
0
LINE
8
BLACK
6
CONTINUOUS
10
0.417725
20
0.589487
11
0.417126
21
0.5925
0
LINE
8
BLACK
6
CONTINUOUS
10
0.417126
20
0.5925
11
0.417126
21
0.6475
0
LINE
8
BLACK
6
CONTINUOUS
10
0.417126
20
0.6475
11
0.417725
21
0.650513
0
LINE
8
BLACK
6
CONTINUOUS
10
0.417725
20
0.650513
11
0.419432
21
0.653068
0
LINE
8
BLACK
6
CONTINUOUS
10
0.419432
20
0.653068
11
0.421987
21
0.654775
0
LINE
8
BLACK
6
CONTINUOUS
10
0.421987
20
0.654775
11
0.425
21
0.655374
0
LINE
8
BLACK
6
CONTINUOUS
10
0.425
20
0.655374
11
0.46
21
0.655374
0
LINE
8
BLACK
6
CONTINUOUS
10
0.46
20
0.655374
11
0.463013
21
0.654775
0
LINE
8
BLACK
6
CONTINUOUS
10
0.538013
20
0.654775
11
0.540568
21
0.653068
0
LINE
8
BLACK
6
CONTINUOUS
10
0.540568
20
0.653068
11
0.542275
21
0.650513
0
LINE
8
BLACK
6
CONTINUOUS
10
0.542275
20
0.650513
11
0.542874
21
0.6475
0
LINE
8
BLACK
6
CONTINUOUS
10
0.542874
20
0.6475
11
0.542874
21
0.5925
0
LINE
8
BLACK
6
CONTINUOUS
10
0.542874
20
0.5925
11
0.542275
21
0.589487
0
LINE
8
BLACK
6
CONTINUOUS
10
0.542275
20
0.589487
11
0.540568
21
0.586932
0
LINE
8
BLACK
6
CONTINUOUS
10
0.540568
20
0.586932
11
0.538013
21
0.585225
0
LINE
8
BLACK
6
CONTINUOUS
10
0.538013
20
0.585225
11
0.535
21
0.584626
0
LINE
8
BLACK
6
CONTINUOUS
10
0.535
20
0.584626
11
0.5
21
0.584626
0
LINE
8
BLACK
6
CONTINUOUS
10
0.5
20
0.584626
11
0.496987
21
0.585225
0
LINE
8
BLACK
6
CONTINUOUS
10
0.496987
20
0.585225
11
0.494432
21
0.586932
0
LINE
8
BLACK
6
CONTINUOUS
10
0.494432
20
0.586932
11
0.492725
21
0.589487
0
LINE
8
BLACK
6
CONTINUOUS
10
0.492725
20
0.589487
11
0.492126
21
0.5925
0
LINE
8
BLACK
6
CONTINUOUS
10
0.492126
20
0.5925
11
0.492126
21
0.6475
0
LINE
8
BLACK
6
CONTINUOUS
10
0.492126
20
0.6475
11
0.492725
21
0.650513
0
LINE
8
BLACK
6
CONTINUOUS
10
0.492725
20
0.650513
11
0.494432
21
0.653068
0
LINE
8
BLACK
6
CONTINUOUS
10
0.494432
20
0.653068
11
0.496987
21
0.654775
0
LINE
8
BLACK
6
CONTINUOUS
10
0.496987
20
0.654775
11
0.5
21
0.655374
0
LINE
8
BLACK
6
CONTINUOUS
10
0.5
20
0.655374
11
0.535
21
0.655374
0
LINE
8
BLACK
6
CONTINUOUS
10
0.535
20
0.655374
11
0.538013
21
0.654775
0
LINE
8
BLACK
6
CONTINUOUS
10
0.376463
20
0.663975
11
0.379018
21
0.662268
0
LINE
8
BLACK
6
CONTINUOUS
10
0.379018
20
0.662268
11
0.380725
21
0.659713
0
LINE
8
BLACK
6
CONTINUOUS
10
0.380725
20
0.659713
11
0.381324
21
0.6567
0
LINE
8
BLACK
6
CONTINUOUS
10
0.381324
20
0.6567
11
0.381324
21
0.6055
0
LINE
8
BLACK
6
CONTINUOUS
10
0.381324
20
0.6055
11
0.380725
21
0.602487
0
LINE
8
BLACK
6
CONTINUOUS
10
0.380725
20
0.602487
11
0.379018
21
0.599932
0
LINE
8
BLACK
6
CONTINUOUS
10
0.379018
20
0.599932
11
0.376463
21
0.598225
0
LINE
8
BLACK
6
CONTINUOUS
10
0.376463
20
0.598225
11
0.37345
21
0.597626
0
LINE
8
BLACK
6
CONTINUOUS
10
0.37345
20
0.597626
11
0.30655
21
0.597626
0
LINE
8
BLACK
6
CONTINUOUS
10
0.30655
20
0.597626
11
0.303537
21
0.598225
0
LINE
8
BLACK
6
CONTINUOUS
10
0.303537
20
0.598225
11
0.300982
21
0.599932
0
LINE
8
BLACK
6
CONTINUOUS
10
0.300982
20
0.599932
11
0.299275
21
0.602487
0
LINE
8
BLACK
6
CONTINUOUS
10
0.299275
20
0.602487
11
0.298676
21
0.6055
0
LINE
8
BLACK
6
CONTINUOUS
10
0.298676
20
0.6055
11
0.298676
21
0.6567
0
LINE
8
BLACK
6
CONTINUOUS
10
0.298676
20
0.6567
11
0.299275
21
0.659713
0
LINE
8
BLACK
6
CONTINUOUS
10
0.299275
20
0.659713
11
0.300982
21
0.662268
0
LINE
8
BLACK
6
CONTINUOUS
10
0.300982
20
0.662268
11
0.303537
21
0.663975
0
LINE
8
BLACK
6
CONTINUOUS
10
0.303537
20
0.663975
11
0.30655
21
0.664574
0
LINE
8
BLACK
6
CONTINUOUS
10
0.30655
20
0.664574
11
0.37345
21
0.664574
0
LINE
8
BLACK
6
CONTINUOUS
10
0.37345
20
0.664574
11
0.376463
21
0.663975
0
LINE
8
BLACK
6
CONTINUOUS
10
0.123013
20
0.717275
11
0.125568
21
0.715568
0
LINE
8
BLACK
6
CONTINUOUS
10
0.125568
20
0.715568
11
0.127275
21
0.713013
0
LINE
8
BLACK
6
CONTINUOUS
10
0.127275
20
0.713013
11
0.127874
21
0.71
0
LINE
8
BLACK
6
CONTINUOUS
10
0.127874
20
0.71
11
0.127874
21
0.65
0
LINE
8
BLACK
6
CONTINUOUS
10
0.127874
20
0.65
11
0.127275
21
0.646987
0
LINE
8
BLACK
6
CONTINUOUS
10
0.127275
20
0.646987
11
0.125568
21
0.644432
0
LINE
8
BLACK
6
CONTINUOUS
10
0.125568
20
0.644432
11
0.123013
21
0.642725
0
LINE
8
BLACK
6
CONTINUOUS
10
0.123013
20
0.642725
11
0.12
21
0.642126
0
LINE
8
BLACK
6
CONTINUOUS
10
0.12
20
0.642126
11
0.06
21
0.642126
0
LINE
8
BLACK
6
CONTINUOUS
10
0.06
20
0.642126
11
0.0569867
21
0.642725
0
LINE
8
BLACK
6
CONTINUOUS
10
0.0569867
20
0.642725
11
0.0544322
21
0.644432
0
LINE
8
BLACK
6
CONTINUOUS
10
0.0544322
20
0.644432
11
0.0527254
21
0.646987
0
LINE
8
BLACK
6
CONTINUOUS
10
0.0527254
20
0.646987
11
0.052126
21
0.65
0
LINE
8
BLACK
6
CONTINUOUS
10
0.052126
20
0.65
11
0.052126
21
0.71
0
LINE
8
BLACK
6
CONTINUOUS
10
0.052126
20
0.71
11
0.0527254
21
0.713013
0
LINE
8
BLACK
6
CONTINUOUS
10
0.0527254
20
0.713013
11
0.0544322
21
0.715568
0
LINE
8
BLACK
6
CONTINUOUS
10
0.0544322
20
0.715568
11
0.0569867
21
0.717275
0
LINE
8
BLACK
6
CONTINUOUS
10
0.0569867
20
0.717275
11
0.06
21
0.717874
0
LINE
8
BLACK
6
CONTINUOUS
10
0.06
20
0.717874
11
0.12
21
0.717874
0
LINE
8
BLACK
6
CONTINUOUS
10
0.12
20
0.717874
11
0.123013
21
0.717275
0
LINE
8
BLACK
6
CONTINUOUS
10
0.223013
20
0.717275
11
0.225568
21
0.715568
0
LINE
8
BLACK
6
CONTINUOUS
10
0.225568
20
0.715568
11
0.227275
21
0.713013
0
LINE
8
BLACK
6
CONTINUOUS
10
0.227275
20
0.713013
11
0.227874
21
0.71
0
LINE
8
BLACK
6
CONTINUOUS
10
0.227874
20
0.71
11
0.227874
21
0.65
0
LINE
8
BLACK
6
CONTINUOUS
10
0.227874
20
0.65
11
0.227275
21
0.646987
0
LINE
8
BLACK
6
CONTINUOUS
10
0.227275
20
0.646987
11
0.225568
21
0.644432
0
LINE
8
BLACK
6
CONTINUOUS
10
0.225568
20
0.644432
11
0.223013
21
0.642725
0
LINE
8
BLACK
6
CONTINUOUS
10
0.223013
20
0.642725
11
0.22
21
0.642126
0
LINE
8
BLACK
6
CONTINUOUS
10
0.22
20
0.642126
11
0.16
21
0.642126
0
LINE
8
BLACK
6
CONTINUOUS
10
0.16
20
0.642126
11
0.156987
21
0.642725
0
LINE
8
BLACK
6
CONTINUOUS
10
0.156987
20
0.642725
11
0.154432
21
0.644432
0
LINE
8
BLACK
6
CONTINUOUS
10
0.154432
20
0.644432
11
0.152725
21
0.646987
0
LINE
8
BLACK
6
CONTINUOUS
10
0.152725
20
0.646987
11
0.152126
21
0.65
0
LINE
8
BLACK
6
CONTINUOUS
10
0.152126
20
0.65
11
0.152126
21
0.71
0
LINE
8
BLACK
6
CONTINUOUS
10
0.152126
20
0.71
11
0.152725
21
0.713013
0
LINE
8
BLACK
6
CONTINUOUS
10
0.152725
20
0.713013
11
0.154432
21
0.715568
0
LINE
8
BLACK
6
CONTINUOUS
10
0.154432
20
0.715568
11
0.156987
21
0.717275
0
LINE
8
BLACK
6
CONTINUOUS
10
0.156987
20
0.717275
11
0.16
21
0.717874
0
LINE
8
BLACK
6
CONTINUOUS
10
0.16
20
0.717874
11
0.22
21
0.717874
0
LINE
8
BLACK
6
CONTINUOUS
10
0.22
20
0.717874
11
0.223013
21
0.717275
0
LINE
8
BLACK
6
CONTINUOUS
10
0.548249
20
0.818416
11
0.550804
21
0.816709
0
LINE
8
BLACK
6
CONTINUOUS
10
0.550804
20
0.816709
11
0.552511
21
0.814155
0
LINE
8
BLACK
6
CONTINUOUS
10
0.552511
20
0.814155
11
0.55311
21
0.811142
0
LINE
8
BLACK
6
CONTINUOUS
10
0.55311
20
0.811142
11
0.55311
21
0.779646
0
LINE
8
BLACK
6
CONTINUOUS
10
0.55311
20
0.779646
11
0.552511
21
0.776632
0
LINE
8
BLACK
6
CONTINUOUS
10
0.552511
20
0.776632
11
0.551339
21
0.774878
0
LINE
8
BLACK
6
CONTINUOUS
10
0.551339
20
0.774878
11
0.551339
21
0.747165
0
LINE
8
BLACK
6
CONTINUOUS
10
0.551339
20
0.747165
11
0.550739
21
0.744152
0
LINE
8
BLACK
6
CONTINUOUS
10
0.550739
20
0.744152
11
0.549032
21
0.741598
0
LINE
8
BLACK
6
CONTINUOUS
10
0.549032
20
0.741598
11
0.546478
21
0.739891
0
LINE
8
BLACK
6
CONTINUOUS
10
0.546478
20
0.739891
11
0.543465
21
0.739291
0
LINE
8
BLACK
6
CONTINUOUS
10
0.543465
20
0.739291
11
0.540409
21
0.739291
0
LINE
8
BLACK
6
CONTINUOUS
10
0.540409
20
0.739291
11
0.539977
21
0.738645
0
LINE
8
BLACK
6
CONTINUOUS
10
0.539977
20
0.738645
11
0.537423
21
0.736938
0
LINE
8
BLACK
6
CONTINUOUS
10
0.537423
20
0.736938
11
0.534409
21
0.736339
0
LINE
8
BLACK
6
CONTINUOUS
10
0.534409
20
0.736339
11
0.515118
21
0.736339
0
LINE
8
BLACK
6
CONTINUOUS
10
0.515118
20
0.736339
11
0.515118
21
0.717638
0
LINE
8
BLACK
6
CONTINUOUS
10
0.515118
20
0.717638
11
0.514519
21
0.714625
0
LINE
8
BLACK
6
CONTINUOUS
10
0.514519
20
0.714625
11
0.512812
21
0.71207
0
LINE
8
BLACK
6
CONTINUOUS
10
0.512812
20
0.71207
11
0.510257
21
0.710363
0
LINE
8
BLACK
6
CONTINUOUS
10
0.510257
20
0.710363
11
0.507244
21
0.709764
0
LINE
8
BLACK
6
CONTINUOUS
10
0.507244
20
0.709764
11
0.503307
21
0.709764
0
LINE
8
BLACK
6
CONTINUOUS
10
0.503307
20
0.709764
11
0.503307
21
0.697953
0
LINE
8
BLACK
6
CONTINUOUS
10
0.503307
20
0.697953
11
0.502708
21
0.694939
0
LINE
8
BLACK
6
CONTINUOUS
10
0.502708
20
0.694939
11
0.501001
21
0.692385
0
LINE
8
BLACK
6
CONTINUOUS
10
0.501001
20
0.692385
11
0.498446
21
0.690678
0
LINE
8
BLACK
6
CONTINUOUS
10
0.498446
20
0.690678
11
0.495433
21
0.690079
0
LINE
8
BLACK
6
CONTINUOUS
10
0.495433
20
0.690079
11
0.424567
21
0.690079
0
LINE
8
BLACK
6
CONTINUOUS
10
0.424567
20
0.690079
11
0.421554
21
0.690678
0
LINE
8
BLACK
6
CONTINUOUS
10
0.421554
20
0.690678
11
0.418999
21
0.692385
0
LINE
8
BLACK
6
CONTINUOUS
10
0.418999
20
0.692385
11
0.417292
21
0.694939
0
LINE
8
BLACK
6
CONTINUOUS
10
0.417292
20
0.694939
11
0.416693
21
0.697953
0
LINE
8
BLACK
6
CONTINUOUS
10
0.416693
20
0.697953
11
0.416693
21
0.709764
0
LINE
8
BLACK
6
CONTINUOUS
10
0.416693
20
0.709764
11
0.412756
21
0.709764
0
LINE
8
BLACK
6
CONTINUOUS
10
0.412756
20
0.709764
11
0.409743
21
0.710363
0
LINE
8
BLACK
6
CONTINUOUS
10
0.409743
20
0.710363
11
0.407188
21
0.71207
0
LINE
8
BLACK
6
CONTINUOUS
10
0.407188
20
0.71207
11
0.405481
21
0.714625
0
LINE
8
BLACK
6
CONTINUOUS
10
0.405481
20
0.714625
11
0.404882
21
0.717638
0
LINE
8
BLACK
6
CONTINUOUS
10
0.404882
20
0.717638
11
0.404882
21
0.776693
0
LINE
8
BLACK
6
CONTINUOUS
10
0.404882
20
0.776693
11
0.405481
21
0.779706
0
LINE
8
BLACK
6
CONTINUOUS
10
0.405481
20
0.779706
11
0.407188
21
0.782261
0
LINE
8
BLACK
6
CONTINUOUS
10
0.407188
20
0.782261
11
0.409743
21
0.783968
0
LINE
8
BLACK
6
CONTINUOUS
10
0.409743
20
0.783968
11
0.412756
21
0.784567
0
LINE
8
BLACK
6
CONTINUOUS
10
0.412756
20
0.784567
11
0.44189
21
0.784567
0
LINE
8
BLACK
6
CONTINUOUS
10
0.44189
20
0.784567
11
0.44189
21
0.797362
0
LINE
8
BLACK
6
CONTINUOUS
10
0.44189
20
0.797362
11
0.442489
21
0.800375
0
LINE
8
BLACK
6
CONTINUOUS
10
0.442489
20
0.800375
11
0.444196
21
0.80293
0
LINE
8
BLACK
6
CONTINUOUS
10
0.444196
20
0.80293
11
0.446751
21
0.804637
0
LINE
8
BLACK
6
CONTINUOUS
10
0.446751
20
0.804637
11
0.449764
21
0.805236
0
LINE
8
BLACK
6
CONTINUOUS
10
0.449764
20
0.805236
11
0.468661
21
0.805236
0
LINE
8
BLACK
6
CONTINUOUS
10
0.468661
20
0.805236
11
0.468661
21
0.80622
0
LINE
8
BLACK
6
CONTINUOUS
10
0.468661
20
0.80622
11
0.469261
21
0.809234
0
LINE
8
BLACK
6
CONTINUOUS
10
0.469261
20
0.809234
11
0.470968
21
0.811788
0
LINE
8
BLACK
6
CONTINUOUS
10
0.470968
20
0.811788
11
0.473522
21
0.813495
0
LINE
8
BLACK
6
CONTINUOUS
10
0.473522
20
0.813495
11
0.476535
21
0.814094
0
LINE
8
BLACK
6
CONTINUOUS
10
0.476535
20
0.814094
11
0.502516
21
0.814094
0
LINE
8
BLACK
6
CONTINUOUS
10
0.502516
20
0.814094
11
0.502529
21
0.814155
0
LINE
8
BLACK
6
CONTINUOUS
10
0.502529
20
0.814155
11
0.504235
21
0.816709
0
LINE
8
BLACK
6
CONTINUOUS
10
0.504235
20
0.816709
11
0.50679
21
0.818416
0
LINE
8
BLACK
6
CONTINUOUS
10
0.50679
20
0.818416
11
0.509803
21
0.819016
0
LINE
8
BLACK
6
CONTINUOUS
10
0.509803
20
0.819016
11
0.545236
21
0.819016
0
LINE
8
BLACK
6
CONTINUOUS
10
0.545236
20
0.819016
11
0.548249
21
0.818416
0
LINE
8
BLACK
6
CONTINUOUS
10
0.61321
20
0.818416
11
0.615765
21
0.816709
0
LINE
8
BLACK
6
CONTINUOUS
10
0.615765
20
0.816709
11
0.617471
21
0.814155
0
LINE
8
BLACK
6
CONTINUOUS
10
0.617471
20
0.814155
11
0.617484
21
0.814094
0
LINE
8
BLACK
6
CONTINUOUS
10
0.617484
20
0.814094
11
0.643465
21
0.814094
0
LINE
8
BLACK
6
CONTINUOUS
10
0.643465
20
0.814094
11
0.646478
21
0.813495
0
LINE
8
BLACK
6
CONTINUOUS
10
0.646478
20
0.813495
11
0.649032
21
0.811788
0
LINE
8
BLACK
6
CONTINUOUS
10
0.649032
20
0.811788
11
0.650739
21
0.809234
0
LINE
8
BLACK
6
CONTINUOUS
10
0.650739
20
0.809234
11
0.651339
21
0.80622
0
LINE
8
BLACK
6
CONTINUOUS
10
0.651339
20
0.80622
11
0.651339
21
0.805236
0
LINE
8
BLACK
6
CONTINUOUS
10
0.651339
20
0.805236
11
0.670236
21
0.805236
0
LINE
8
BLACK
6
CONTINUOUS
10
0.670236
20
0.805236
11
0.673249
21
0.804637
0
LINE
8
BLACK
6
CONTINUOUS
10
0.673249
20
0.804637
11
0.675804
21
0.80293
0
LINE
8
BLACK
6
CONTINUOUS
10
0.675804
20
0.80293
11
0.677511
21
0.800375
0
LINE
8
BLACK
6
CONTINUOUS
10
0.677511
20
0.800375
11
0.67811
21
0.797362
0
LINE
8
BLACK
6
CONTINUOUS
10
0.67811
20
0.797362
11
0.67811
21
0.784567
0
LINE
8
BLACK
6
CONTINUOUS
10
0.67811
20
0.784567
11
0.707244
21
0.784567
0
LINE
8
BLACK
6
CONTINUOUS
10
0.707244
20
0.784567
11
0.710257
21
0.783968
0
LINE
8
BLACK
6
CONTINUOUS
10
0.710257
20
0.783968
11
0.712812
21
0.782261
0
LINE
8
BLACK
6
CONTINUOUS
10
0.712812
20
0.782261
11
0.714519
21
0.779706
0
LINE
8
BLACK
6
CONTINUOUS
10
0.714519
20
0.779706
11
0.715118
21
0.776693
0
LINE
8
BLACK
6
CONTINUOUS
10
0.715118
20
0.776693
11
0.715118
21
0.717638
0
LINE
8
BLACK
6
CONTINUOUS
10
0.715118
20
0.717638
11
0.714519
21
0.714625
0
LINE
8
BLACK
6
CONTINUOUS
10
0.714519
20
0.714625
11
0.712812
21
0.71207
0
LINE
8
BLACK
6
CONTINUOUS
10
0.712812
20
0.71207
11
0.710257
21
0.710363
0
LINE
8
BLACK
6
CONTINUOUS
10
0.710257
20
0.710363
11
0.707244
21
0.709764
0
LINE
8
BLACK
6
CONTINUOUS
10
0.707244
20
0.709764
11
0.703307
21
0.709764
0
LINE
8
BLACK
6
CONTINUOUS
10
0.703307
20
0.709764
11
0.703307
21
0.697953
0
LINE
8
BLACK
6
CONTINUOUS
10
0.703307
20
0.697953
11
0.702708
21
0.694939
0
LINE
8
BLACK
6
CONTINUOUS
10
0.702708
20
0.694939
11
0.701001
21
0.692385
0
LINE
8
BLACK
6
CONTINUOUS
10
0.701001
20
0.692385
11
0.698446
21
0.690678
0
LINE
8
BLACK
6
CONTINUOUS
10
0.698446
20
0.690678
11
0.695433
21
0.690079
0
LINE
8
BLACK
6
CONTINUOUS
10
0.695433
20
0.690079
11
0.624567
21
0.690079
0
LINE
8
BLACK
6
CONTINUOUS
10
0.624567
20
0.690079
11
0.621554
21
0.690678
0
LINE
8
BLACK
6
CONTINUOUS
10
0.621554
20
0.690678
11
0.618999
21
0.692385
0
LINE
8
BLACK
6
CONTINUOUS
10
0.618999
20
0.692385
11
0.617292
21
0.694939
0
LINE
8
BLACK
6
CONTINUOUS
10
0.617292
20
0.694939
11
0.616693
21
0.697953
0
LINE
8
BLACK
6
CONTINUOUS
10
0.616693
20
0.697953
11
0.616693
21
0.709764
0
LINE
8
BLACK
6
CONTINUOUS
10
0.616693
20
0.709764
11
0.612756
21
0.709764
0
LINE
8
BLACK
6
CONTINUOUS
10
0.612756
20
0.709764
11
0.609743
21
0.710363
0
LINE
8
BLACK
6
CONTINUOUS
10
0.609743
20
0.710363
11
0.607188
21
0.71207
0
LINE
8
BLACK
6
CONTINUOUS
10
0.607188
20
0.71207
11
0.605481
21
0.714625
0
LINE
8
BLACK
6
CONTINUOUS
10
0.605481
20
0.714625
11
0.604882
21
0.717638
0
LINE
8
BLACK
6
CONTINUOUS
10
0.604882
20
0.717638
11
0.604882
21
0.736339
0
LINE
8
BLACK
6
CONTINUOUS
10
0.604882
20
0.736339
11
0.585591
21
0.736339
0
LINE
8
BLACK
6
CONTINUOUS
10
0.585591
20
0.736339
11
0.582577
21
0.736938
0
LINE
8
BLACK
6
CONTINUOUS
10
0.582577
20
0.736938
11
0.580023
21
0.738645
0
LINE
8
BLACK
6
CONTINUOUS
10
0.580023
20
0.738645
11
0.579591
21
0.739291
0
LINE
8
BLACK
6
CONTINUOUS
10
0.579591
20
0.739291
11
0.576535
21
0.739291
0
LINE
8
BLACK
6
CONTINUOUS
10
0.576535
20
0.739291
11
0.573522
21
0.739891
0
LINE
8
BLACK
6
CONTINUOUS
10
0.573522
20
0.739891
11
0.570968
21
0.741598
0
LINE
8
BLACK
6
CONTINUOUS
10
0.570968
20
0.741598
11
0.569261
21
0.744152
0
LINE
8
BLACK
6
CONTINUOUS
10
0.569261
20
0.744152
11
0.568661
21
0.747165
0
LINE
8
BLACK
6
CONTINUOUS
10
0.568661
20
0.747165
11
0.568661
21
0.774878
0
LINE
8
BLACK
6
CONTINUOUS
10
0.568661
20
0.774878
11
0.567489
21
0.776632
0
LINE
8
BLACK
6
CONTINUOUS
10
0.567489
20
0.776632
11
0.56689
21
0.779646
0
LINE
8
BLACK
6
CONTINUOUS
10
0.56689
20
0.779646
11
0.56689
21
0.811142
0
LINE
8
BLACK
6
CONTINUOUS
10
0.56689
20
0.811142
11
0.567489
21
0.814155
0
LINE
8
BLACK
6
CONTINUOUS
10
0.567489
20
0.814155
11
0.569196
21
0.816709
0
LINE
8
BLACK
6
CONTINUOUS
10
0.569196
20
0.816709
11
0.571751
21
0.818416
0
LINE
8
BLACK
6
CONTINUOUS
10
0.571751
20
0.818416
11
0.574764
21
0.819016
0
LINE
8
BLACK
6
CONTINUOUS
10
0.574764
20
0.819016
11
0.610197
21
0.819016
0
LINE
8
BLACK
6
CONTINUOUS
10
0.610197
20
0.819016
11
0.61321
21
0.818416
0
LINE
8
BLACK
6
CONTINUOUS
10
0.376463
20
0.801775
11
0.379018
21
0.800068
0
LINE
8
BLACK
6
CONTINUOUS
10
0.379018
20
0.800068
11
0.380725
21
0.797513
0
LINE
8
BLACK
6
CONTINUOUS
10
0.380725
20
0.797513
11
0.381324
21
0.7945
0
LINE
8
BLACK
6
CONTINUOUS
10
0.381324
20
0.7945
11
0.381324
21
0.7433
0
LINE
8
BLACK
6
CONTINUOUS
10
0.381324
20
0.7433
11
0.380725
21
0.740287
0
LINE
8
BLACK
6
CONTINUOUS
10
0.380725
20
0.740287
11
0.379018
21
0.737732
0
LINE
8
BLACK
6
CONTINUOUS
10
0.379018
20
0.737732
11
0.376463
21
0.736025
0
LINE
8
BLACK
6
CONTINUOUS
10
0.376463
20
0.736025
11
0.37345
21
0.735426
0
LINE
8
BLACK
6
CONTINUOUS
10
0.37345
20
0.735426
11
0.30655
21
0.735426
0
LINE
8
BLACK
6
CONTINUOUS
10
0.30655
20
0.735426
11
0.303537
21
0.736025
0
LINE
8
BLACK
6
CONTINUOUS
10
0.303537
20
0.736025
11
0.300982
21
0.737732
0
LINE
8
BLACK
6
CONTINUOUS
10
0.300982
20
0.737732
11
0.299275
21
0.740287
0
LINE
8
BLACK
6
CONTINUOUS
10
0.299275
20
0.740287
11
0.298676
21
0.7433
0
LINE
8
BLACK
6
CONTINUOUS
10
0.298676
20
0.7433
11
0.298676
21
0.7945
0
LINE
8
BLACK
6
CONTINUOUS
10
0.298676
20
0.7945
11
0.299275
21
0.797513
0
LINE
8
BLACK
6
CONTINUOUS
10
0.299275
20
0.797513
11
0.300982
21
0.800068
0
LINE
8
BLACK
6
CONTINUOUS
10
0.300982
20
0.800068
11
0.303537
21
0.801775
0
LINE
8
BLACK
6
CONTINUOUS
10
0.303537
20
0.801775
11
0.30655
21
0.802374
0
LINE
8
BLACK
6
CONTINUOUS
10
0.30655
20
0.802374
11
0.37345
21
0.802374
0
LINE
8
BLACK
6
CONTINUOUS
10
0.37345
20
0.802374
11
0.376463
21
0.801775
0
LINE
8
BLACK
6
CONTINUOUS
10
0.123013
20
0.877275
11
0.125568
21
0.875568
0
LINE
8
BLACK
6
CONTINUOUS
10
0.125568
20
0.875568
11
0.127275
21
0.873013
0
LINE
8
BLACK
6
CONTINUOUS
10
0.127275
20
0.873013
11
0.127874
21
0.87
0
LINE
8
BLACK
6
CONTINUOUS
10
0.127874
20
0.87
11
0.127874
21
0.81
0
LINE
8
BLACK
6
CONTINUOUS
10
0.127874
20
0.81
11
0.127275
21
0.806987
0
LINE
8
BLACK
6
CONTINUOUS
10
0.127275
20
0.806987
11
0.125568
21
0.804432
0
LINE
8
BLACK
6
CONTINUOUS
10
0.125568
20
0.804432
11
0.123013
21
0.802725
0
LINE
8
BLACK
6
CONTINUOUS
10
0.123013
20
0.802725
11
0.12
21
0.802126
0
LINE
8
BLACK
6
CONTINUOUS
10
0.12
20
0.802126
11
0.06
21
0.802126
0
LINE
8
BLACK
6
CONTINUOUS
10
0.06
20
0.802126
11
0.0569867
21
0.802725
0
LINE
8
BLACK
6
CONTINUOUS
10
0.0569867
20
0.802725
11
0.0544322
21
0.804432
0
LINE
8
BLACK
6
CONTINUOUS
10
0.0544322
20
0.804432
11
0.0527254
21
0.806987
0
LINE
8
BLACK
6
CONTINUOUS
10
0.0527254
20
0.806987
11
0.052126
21
0.81
0
LINE
8
BLACK
6
CONTINUOUS
10
0.052126
20
0.81
11
0.052126
21
0.87
0
LINE
8
BLACK
6
CONTINUOUS
10
0.052126
20
0.87
11
0.0527254
21
0.873013
0
LINE
8
BLACK
6
CONTINUOUS
10
0.0527254
20
0.873013
11
0.0544322
21
0.875568
0
LINE
8
BLACK
6
CONTINUOUS
10
0.0544322
20
0.875568
11
0.0569867
21
0.877275
0
LINE
8
BLACK
6
CONTINUOUS
10
0.0569867
20
0.877275
11
0.06
21
0.877874
0
LINE
8
BLACK
6
CONTINUOUS
10
0.06
20
0.877874
11
0.12
21
0.877874
0
LINE
8
BLACK
6
CONTINUOUS
10
0.12
20
0.877874
11
0.123013
21
0.877275
0
LINE
8
BLACK
6
CONTINUOUS
10
0.223013
20
0.877275
11
0.225568
21
0.875568
0
LINE
8
BLACK
6
CONTINUOUS
10
0.225568
20
0.875568
11
0.227275
21
0.873013
0
LINE
8
BLACK
6
CONTINUOUS
10
0.227275
20
0.873013
11
0.227874
21
0.87
0
LINE
8
BLACK
6
CONTINUOUS
10
0.227874
20
0.87
11
0.227874
21
0.81
0
LINE
8
BLACK
6
CONTINUOUS
10
0.227874
20
0.81
11
0.227275
21
0.806987
0
LINE
8
BLACK
6
CONTINUOUS
10
0.227275
20
0.806987
11
0.225568
21
0.804432
0
LINE
8
BLACK
6
CONTINUOUS
10
0.225568
20
0.804432
11
0.223013
21
0.802725
0
LINE
8
BLACK
6
CONTINUOUS
10
0.223013
20
0.802725
11
0.22
21
0.802126
0
LINE
8
BLACK
6
CONTINUOUS
10
0.22
20
0.802126
11
0.16
21
0.802126
0
LINE
8
BLACK
6
CONTINUOUS
10
0.16
20
0.802126
11
0.156987
21
0.802725
0
LINE
8
BLACK
6
CONTINUOUS
10
0.156987
20
0.802725
11
0.154432
21
0.804432
0
LINE
8
BLACK
6
CONTINUOUS
10
0.154432
20
0.804432
11
0.152725
21
0.806987
0
LINE
8
BLACK
6
CONTINUOUS
10
0.152725
20
0.806987
11
0.152126
21
0.81
0
LINE
8
BLACK
6
CONTINUOUS
10
0.152126
20
0.81
11
0.152126
21
0.87
0
LINE
8
BLACK
6
CONTINUOUS
10
0.152126
20
0.87
11
0.152725
21
0.873013
0
LINE
8
BLACK
6
CONTINUOUS
10
0.152725
20
0.873013
11
0.154432
21
0.875568
0
LINE
8
BLACK
6
CONTINUOUS
10
0.154432
20
0.875568
11
0.156987
21
0.877275
0
LINE
8
BLACK
6
CONTINUOUS
10
0.156987
20
0.877275
11
0.16
21
0.877874
0
LINE
8
BLACK
6
CONTINUOUS
10
0.16
20
0.877874
11
0.22
21
0.877874
0
LINE
8
BLACK
6
CONTINUOUS
10
0.22
20
0.877874
11
0.223013
21
0.877275
0
LINE
8
BLACK
6
CONTINUOUS
10
0.300513
20
0.874775
11
0.303068
21
0.873068
0
LINE
8
BLACK
6
CONTINUOUS
10
0.303068
20
0.873068
11
0.304775
21
0.870513
0
LINE
8
BLACK
6
CONTINUOUS
10
0.304775
20
0.870513
11
0.305374
21
0.8675
0
LINE
8
BLACK
6
CONTINUOUS
10
0.305374
20
0.8675
11
0.305374
21
0.8125
0
LINE
8
BLACK
6
CONTINUOUS
10
0.305374
20
0.8125
11
0.304775
21
0.809487
0
LINE
8
BLACK
6
CONTINUOUS
10
0.304775
20
0.809487
11
0.303068
21
0.806932
0
LINE
8
BLACK
6
CONTINUOUS
10
0.303068
20
0.806932
11
0.300513
21
0.805225
0
LINE
8
BLACK
6
CONTINUOUS
10
0.300513
20
0.805225
11
0.2975
21
0.804626
0
LINE
8
BLACK
6
CONTINUOUS
10
0.2975
20
0.804626
11
0.2625
21
0.804626
0
LINE
8
BLACK
6
CONTINUOUS
10
0.2625
20
0.804626
11
0.259487
21
0.805225
0
LINE
8
BLACK
6
CONTINUOUS
10
0.259487
20
0.805225
11
0.256932
21
0.806932
0
LINE
8
BLACK
6
CONTINUOUS
10
0.256932
20
0.806932
11
0.255225
21
0.809487
0
LINE
8
BLACK
6
CONTINUOUS
10
0.255225
20
0.809487
11
0.254626
21
0.8125
0
LINE
8
BLACK
6
CONTINUOUS
10
0.254626
20
0.8125
11
0.254626
21
0.8675
0
LINE
8
BLACK
6
CONTINUOUS
10
0.254626
20
0.8675
11
0.255225
21
0.870513
0
LINE
8
BLACK
6
CONTINUOUS
10
0.255225
20
0.870513
11
0.256932
21
0.873068
0
LINE
8
BLACK
6
CONTINUOUS
10
0.256932
20
0.873068
11
0.259487
21
0.874775
0
LINE
8
BLACK
6
CONTINUOUS
10
0.259487
20
0.874775
11
0.2625
21
0.875374
0
LINE
8
BLACK
6
CONTINUOUS
10
0.2625
20
0.875374
11
0.2975
21
0.875374
0
LINE
8
BLACK
6
CONTINUOUS
10
0.2975
20
0.875374
11
0.300513
21
0.874775
0
LINE
8
BLACK
6
CONTINUOUS
10
0.375513
20
0.874775
11
0.378068
21
0.873068
0
LINE
8
BLACK
6
CONTINUOUS
10
0.378068
20
0.873068
11
0.379775
21
0.870513
0
LINE
8
BLACK
6
CONTINUOUS
10
0.379775
20
0.870513
11
0.380374
21
0.8675
0
LINE
8
BLACK
6
CONTINUOUS
10
0.380374
20
0.8675
11
0.380374
21
0.8125
0
LINE
8
BLACK
6
CONTINUOUS
10
0.380374
20
0.8125
11
0.379775
21
0.809487
0
LINE
8
BLACK
6
CONTINUOUS
10
0.379775
20
0.809487
11
0.378068
21
0.806932
0
LINE
8
BLACK
6
CONTINUOUS
10
0.378068
20
0.806932
11
0.375513
21
0.805225
0
LINE
8
BLACK
6
CONTINUOUS
10
0.375513
20
0.805225
11
0.3725
21
0.804626
0
LINE
8
BLACK
6
CONTINUOUS
10
0.3725
20
0.804626
11
0.3375
21
0.804626
0
LINE
8
BLACK
6
CONTINUOUS
10
0.3375
20
0.804626
11
0.334487
21
0.805225
0
LINE
8
BLACK
6
CONTINUOUS
10
0.334487
20
0.805225
11
0.331932
21
0.806932
0
LINE
8
BLACK
6
CONTINUOUS
10
0.331932
20
0.806932
11
0.330225
21
0.809487
0
LINE
8
BLACK
6
CONTINUOUS
10
0.330225
20
0.809487
11
0.329626
21
0.8125
0
LINE
8
BLACK
6
CONTINUOUS
10
0.329626
20
0.8125
11
0.329626
21
0.8675
0
LINE
8
BLACK
6
CONTINUOUS
10
0.329626
20
0.8675
11
0.330225
21
0.870513
0
LINE
8
BLACK
6
CONTINUOUS
10
0.330225
20
0.870513
11
0.331932
21
0.873068
0
LINE
8
BLACK
6
CONTINUOUS
10
0.331932
20
0.873068
11
0.334487
21
0.874775
0
LINE
8
BLACK
6
CONTINUOUS
10
0.334487
20
0.874775
11
0.3375
21
0.875374
0
LINE
8
BLACK
6
CONTINUOUS
10
0.3375
20
0.875374
11
0.3725
21
0.875374
0
LINE
8
BLACK
6
CONTINUOUS
10
0.3725
20
0.875374
11
0.375513
21
0.874775
0
LINE
8
BLACK
6
CONTINUOUS
10
0.498446
20
0.949322
11
0.501001
21
0.947615
0
LINE
8
BLACK
6
CONTINUOUS
10
0.501001
20
0.947615
11
0.502708
21
0.945061
0
LINE
8
BLACK
6
CONTINUOUS
10
0.502708
20
0.945061
11
0.503307
21
0.942047
0
LINE
8
BLACK
6
CONTINUOUS
10
0.503307
20
0.942047
11
0.503307
21
0.930236
0
LINE
8
BLACK
6
CONTINUOUS
10
0.503307
20
0.930236
11
0.507244
21
0.930236
0
LINE
8
BLACK
6
CONTINUOUS
10
0.507244
20
0.930236
11
0.510257
21
0.929637
0
LINE
8
BLACK
6
CONTINUOUS
10
0.510257
20
0.929637
11
0.512812
21
0.92793
0
LINE
8
BLACK
6
CONTINUOUS
10
0.512812
20
0.92793
11
0.514519
21
0.925375
0
LINE
8
BLACK
6
CONTINUOUS
10
0.514519
20
0.925375
11
0.515118
21
0.922362
0
LINE
8
BLACK
6
CONTINUOUS
10
0.515118
20
0.922362
11
0.515118
21
0.903661
0
LINE
8
BLACK
6
CONTINUOUS
10
0.515118
20
0.903661
11
0.534409
21
0.903661
0
LINE
8
BLACK
6
CONTINUOUS
10
0.534409
20
0.903661
11
0.537423
21
0.903062
0
LINE
8
BLACK
6
CONTINUOUS
10
0.537423
20
0.903062
11
0.539977
21
0.901355
0
LINE
8
BLACK
6
CONTINUOUS
10
0.539977
20
0.901355
11
0.540409
21
0.900709
0
LINE
8
BLACK
6
CONTINUOUS
10
0.540409
20
0.900709
11
0.543465
21
0.900709
0
LINE
8
BLACK
6
CONTINUOUS
10
0.543465
20
0.900709
11
0.546478
21
0.900109
0
LINE
8
BLACK
6
CONTINUOUS
10
0.546478
20
0.900109
11
0.549032
21
0.898402
0
LINE
8
BLACK
6
CONTINUOUS
10
0.549032
20
0.898402
11
0.550739
21
0.895848
0
LINE
8
BLACK
6
CONTINUOUS
10
0.550739
20
0.895848
11
0.551339
21
0.892835
0
LINE
8
BLACK
6
CONTINUOUS
10
0.551339
20
0.892835
11
0.551339
21
0.865122
0
LINE
8
BLACK
6
CONTINUOUS
10
0.551339
20
0.865122
11
0.552511
21
0.863368
0
LINE
8
BLACK
6
CONTINUOUS
10
0.552511
20
0.863368
11
0.55311
21
0.860354
0
LINE
8
BLACK
6
CONTINUOUS
10
0.55311
20
0.860354
11
0.55311
21
0.828858
0
LINE
8
BLACK
6
CONTINUOUS
10
0.55311
20
0.828858
11
0.552511
21
0.825845
0
LINE
8
BLACK
6
CONTINUOUS
10
0.552511
20
0.825845
11
0.550804
21
0.823291
0
LINE
8
BLACK
6
CONTINUOUS
10
0.550804
20
0.823291
11
0.548249
21
0.821584
0
LINE
8
BLACK
6
CONTINUOUS
10
0.548249
20
0.821584
11
0.545236
21
0.820984
0
LINE
8
BLACK
6
CONTINUOUS
10
0.545236
20
0.820984
11
0.509803
21
0.820984
0
LINE
8
BLACK
6
CONTINUOUS
10
0.509803
20
0.820984
11
0.50679
21
0.821584
0
LINE
8
BLACK
6
CONTINUOUS
10
0.50679
20
0.821584
11
0.504235
21
0.823291
0
LINE
8
BLACK
6
CONTINUOUS
10
0.504235
20
0.823291
11
0.502529
21
0.825845
0
LINE
8
BLACK
6
CONTINUOUS
10
0.502529
20
0.825845
11
0.502516
21
0.825906
0
LINE
8
BLACK
6
CONTINUOUS
10
0.502516
20
0.825906
11
0.48126
21
0.825906
0
LINE
8
BLACK
6
CONTINUOUS
10
0.48126
20
0.825906
11
0.476535
21
0.825906
0
LINE
8
BLACK
6
CONTINUOUS
10
0.476535
20
0.825906
11
0.473522
21
0.826505
0
LINE
8
BLACK
6
CONTINUOUS
10
0.473522
20
0.826505
11
0.470968
21
0.828212
0
LINE
8
BLACK
6
CONTINUOUS
10
0.470968
20
0.828212
11
0.469261
21
0.830766
0
LINE
8
BLACK
6
CONTINUOUS
10
0.469261
20
0.830766
11
0.468661
21
0.83378
0
LINE
8
BLACK
6
CONTINUOUS
10
0.468661
20
0.83378
11
0.468661
21
0.834764
0
LINE
8
BLACK
6
CONTINUOUS
10
0.468661
20
0.834764
11
0.449764
21
0.834764
0
LINE
8
BLACK
6
CONTINUOUS
10
0.449764
20
0.834764
11
0.446751
21
0.835363
0
LINE
8
BLACK
6
CONTINUOUS
10
0.446751
20
0.835363
11
0.444196
21
0.83707
0
LINE
8
BLACK
6
CONTINUOUS
10
0.444196
20
0.83707
11
0.442489
21
0.839625
0
LINE
8
BLACK
6
CONTINUOUS
10
0.442489
20
0.839625
11
0.44189
21
0.842638
0
LINE
8
BLACK
6
CONTINUOUS
10
0.44189
20
0.842638
11
0.44189
21
0.855433
0
LINE
8
BLACK
6
CONTINUOUS
10
0.44189
20
0.855433
11
0.424567
21
0.855433
0
LINE
8
BLACK
6
CONTINUOUS
10
0.424567
20
0.855433
11
0.412756
21
0.855433
0
LINE
8
BLACK
6
CONTINUOUS
10
0.412756
20
0.855433
11
0.409743
21
0.856032
0
LINE
8
BLACK
6
CONTINUOUS
10
0.409743
20
0.856032
11
0.407188
21
0.857739
0
LINE
8
BLACK
6
CONTINUOUS
10
0.407188
20
0.857739
11
0.405481
21
0.860294
0
LINE
8
BLACK
6
CONTINUOUS
10
0.405481
20
0.860294
11
0.404882
21
0.863307
0
LINE
8
BLACK
6
CONTINUOUS
10
0.404882
20
0.863307
11
0.404882
21
0.922362
0
LINE
8
BLACK
6
CONTINUOUS
10
0.404882
20
0.922362
11
0.405481
21
0.925375
0
LINE
8
BLACK
6
CONTINUOUS
10
0.405481
20
0.925375
11
0.407188
21
0.92793
0
LINE
8
BLACK
6
CONTINUOUS
10
0.407188
20
0.92793
11
0.409743
21
0.929637
0
LINE
8
BLACK
6
CONTINUOUS
10
0.409743
20
0.929637
11
0.412756
21
0.930236
0
LINE
8
BLACK
6
CONTINUOUS
10
0.412756
20
0.930236
11
0.416693
21
0.930236
0
LINE
8
BLACK
6
CONTINUOUS
10
0.416693
20
0.930236
11
0.416693
21
0.942047
0
LINE
8
BLACK
6
CONTINUOUS
10
0.416693
20
0.942047
11
0.417292
21
0.945061
0
LINE
8
BLACK
6
CONTINUOUS
10
0.417292
20
0.945061
11
0.418999
21
0.947615
0
LINE
8
BLACK
6
CONTINUOUS
10
0.418999
20
0.947615
11
0.421554
21
0.949322
0
LINE
8
BLACK
6
CONTINUOUS
10
0.421554
20
0.949322
11
0.424567
21
0.949921
0
LINE
8
BLACK
6
CONTINUOUS
10
0.424567
20
0.949921
11
0.495433
21
0.949921
0
LINE
8
BLACK
6
CONTINUOUS
10
0.495433
20
0.949921
11
0.498446
21
0.949322
0
LINE
8
BLACK
6
CONTINUOUS
10
0.698446
20
0.949322
11
0.701001
21
0.947615
0
LINE
8
BLACK
6
CONTINUOUS
10
0.701001
20
0.947615
11
0.702708
21
0.945061
0
LINE
8
BLACK
6
CONTINUOUS
10
0.702708
20
0.945061
11
0.703307
21
0.942047
0
LINE
8
BLACK
6
CONTINUOUS
10
0.703307
20
0.942047
11
0.703307
21
0.930236
0
LINE
8
BLACK
6
CONTINUOUS
10
0.703307
20
0.930236
11
0.707244
21
0.930236
0
LINE
8
BLACK
6
CONTINUOUS
10
0.707244
20
0.930236
11
0.710257
21
0.929637
0
LINE
8
BLACK
6
CONTINUOUS
10
0.710257
20
0.929637
11
0.712812
21
0.92793
0
LINE
8
BLACK
6
CONTINUOUS
10
0.712812
20
0.92793
11
0.714519
21
0.925375
0
LINE
8
BLACK
6
CONTINUOUS
10
0.714519
20
0.925375
11
0.715118
21
0.922362
0
LINE
8
BLACK
6
CONTINUOUS
10
0.715118
20
0.922362
11
0.715118
21
0.863307
0
LINE
8
BLACK
6
CONTINUOUS
10
0.715118
20
0.863307
11
0.714519
21
0.860294
0
LINE
8
BLACK
6
CONTINUOUS
10
0.714519
20
0.860294
11
0.712812
21
0.857739
0
LINE
8
BLACK
6
CONTINUOUS
10
0.712812
20
0.857739
11
0.710257
21
0.856032
0
LINE
8
BLACK
6
CONTINUOUS
10
0.710257
20
0.856032
11
0.707244
21
0.855433
0
LINE
8
BLACK
6
CONTINUOUS
10
0.707244
20
0.855433
11
0.695433
21
0.855433
0
LINE
8
BLACK
6
CONTINUOUS
10
0.695433
20
0.855433
11
0.67811
21
0.855433
0
LINE
8
BLACK
6
CONTINUOUS
10
0.67811
20
0.855433
11
0.67811
21
0.842638
0
LINE
8
BLACK
6
CONTINUOUS
10
0.67811
20
0.842638
11
0.677511
21
0.839625
0
LINE
8
BLACK
6
CONTINUOUS
10
0.677511
20
0.839625
11
0.675804
21
0.83707
0
LINE
8
BLACK
6
CONTINUOUS
10
0.675804
20
0.83707
11
0.673249
21
0.835363
0
LINE
8
BLACK
6
CONTINUOUS
10
0.673249
20
0.835363
11
0.670236
21
0.834764
0
LINE
8
BLACK
6
CONTINUOUS
10
0.670236
20
0.834764
11
0.651339
21
0.834764
0
LINE
8
BLACK
6
CONTINUOUS
10
0.651339
20
0.834764
11
0.651339
21
0.83378
0
LINE
8
BLACK
6
CONTINUOUS
10
0.651339
20
0.83378
11
0.650739
21
0.830766
0
LINE
8
BLACK
6
CONTINUOUS
10
0.650739
20
0.830766
11
0.649032
21
0.828212
0
LINE
8
BLACK
6
CONTINUOUS
10
0.649032
20
0.828212
11
0.646478
21
0.826505
0
LINE
8
BLACK
6
CONTINUOUS
10
0.646478
20
0.826505
11
0.643465
21
0.825906
0
LINE
8
BLACK
6
CONTINUOUS
10
0.643465
20
0.825906
11
0.63874
21
0.825906
0
LINE
8
BLACK
6
CONTINUOUS
10
0.63874
20
0.825906
11
0.617484
21
0.825906
0
LINE
8
BLACK
6
CONTINUOUS
10
0.617484
20
0.825906
11
0.617471
21
0.825845
0
LINE
8
BLACK
6
CONTINUOUS
10
0.617471
20
0.825845
11
0.615765
21
0.823291
0
LINE
8
BLACK
6
CONTINUOUS
10
0.615765
20
0.823291
11
0.61321
21
0.821584
0
LINE
8
BLACK
6
CONTINUOUS
10
0.61321
20
0.821584
11
0.610197
21
0.820984
0
LINE
8
BLACK
6
CONTINUOUS
10
0.610197
20
0.820984
11
0.574764
21
0.820984
0
LINE
8
BLACK
6
CONTINUOUS
10
0.574764
20
0.820984
11
0.571751
21
0.821584
0
LINE
8
BLACK
6
CONTINUOUS
10
0.571751
20
0.821584
11
0.569196
21
0.823291
0
LINE
8
BLACK
6
CONTINUOUS
10
0.569196
20
0.823291
11
0.567489
21
0.825845
0
LINE
8
BLACK
6
CONTINUOUS
10
0.567489
20
0.825845
11
0.56689
21
0.828858
0
LINE
8
BLACK
6
CONTINUOUS
10
0.56689
20
0.828858
11
0.56689
21
0.860354
0
LINE
8
BLACK
6
CONTINUOUS
10
0.56689
20
0.860354
11
0.567489
21
0.863368
0
LINE
8
BLACK
6
CONTINUOUS
10
0.567489
20
0.863368
11
0.568661
21
0.865122
0
LINE
8
BLACK
6
CONTINUOUS
10
0.568661
20
0.865122
11
0.568661
21
0.892835
0
LINE
8
BLACK
6
CONTINUOUS
10
0.568661
20
0.892835
11
0.569261
21
0.895848
0
LINE
8
BLACK
6
CONTINUOUS
10
0.569261
20
0.895848
11
0.570968
21
0.898402
0
LINE
8
BLACK
6
CONTINUOUS
10
0.570968
20
0.898402
11
0.573522
21
0.900109
0
LINE
8
BLACK
6
CONTINUOUS
10
0.573522
20
0.900109
11
0.576535
21
0.900709
0
LINE
8
BLACK
6
CONTINUOUS
10
0.576535
20
0.900709
11
0.579591
21
0.900709
0
LINE
8
BLACK
6
CONTINUOUS
10
0.579591
20
0.900709
11
0.580023
21
0.901355
0
LINE
8
BLACK
6
CONTINUOUS
10
0.580023
20
0.901355
11
0.582577
21
0.903062
0
LINE
8
BLACK
6
CONTINUOUS
10
0.582577
20
0.903062
11
0.585591
21
0.903661
0
LINE
8
BLACK
6
CONTINUOUS
10
0.585591
20
0.903661
11
0.604882
21
0.903661
0
LINE
8
BLACK
6
CONTINUOUS
10
0.604882
20
0.903661
11
0.604882
21
0.922362
0
LINE
8
BLACK
6
CONTINUOUS
10
0.604882
20
0.922362
11
0.605481
21
0.925375
0
LINE
8
BLACK
6
CONTINUOUS
10
0.605481
20
0.925375
11
0.607188
21
0.92793
0
LINE
8
BLACK
6
CONTINUOUS
10
0.607188
20
0.92793
11
0.609743
21
0.929637
0
LINE
8
BLACK
6
CONTINUOUS
10
0.609743
20
0.929637
11
0.612756
21
0.930236
0
LINE
8
BLACK
6
CONTINUOUS
10
0.612756
20
0.930236
11
0.616693
21
0.930236
0
LINE
8
BLACK
6
CONTINUOUS
10
0.616693
20
0.930236
11
0.616693
21
0.942047
0
LINE
8
BLACK
6
CONTINUOUS
10
0.616693
20
0.942047
11
0.617292
21
0.945061
0
LINE
8
BLACK
6
CONTINUOUS
10
0.617292
20
0.945061
11
0.618999
21
0.947615
0
LINE
8
BLACK
6
CONTINUOUS
10
0.618999
20
0.947615
11
0.621554
21
0.949322
0
LINE
8
BLACK
6
CONTINUOUS
10
0.621554
20
0.949322
11
0.624567
21
0.949921
0
LINE
8
BLACK
6
CONTINUOUS
10
0.624567
20
0.949921
11
0.695433
21
0.949921
0
LINE
8
BLACK
6
CONTINUOUS
10
0.695433
20
0.949921
11
0.698446
21
0.949322
0
LINE
8
BLACK
6
CONTINUOUS
10
0.350513
20
0.949775
11
0.353068
21
0.948068
0
LINE
8
BLACK
6
CONTINUOUS
10
0.353068
20
0.948068
11
0.354775
21
0.945513
0
LINE
8
BLACK
6
CONTINUOUS
10
0.354775
20
0.945513
11
0.355374
21
0.9425
0
LINE
8
BLACK
6
CONTINUOUS
10
0.355374
20
0.9425
11
0.355374
21
0.9075
0
LINE
8
BLACK
6
CONTINUOUS
10
0.355374
20
0.9075
11
0.354775
21
0.904487
0
LINE
8
BLACK
6
CONTINUOUS
10
0.354775
20
0.904487
11
0.353068
21
0.901932
0
LINE
8
BLACK
6
CONTINUOUS
10
0.353068
20
0.901932
11
0.350513
21
0.900225
0
LINE
8
BLACK
6
CONTINUOUS
10
0.350513
20
0.900225
11
0.3475
21
0.899626
0
LINE
8
BLACK
6
CONTINUOUS
10
0.3475
20
0.899626
11
0.2925
21
0.899626
0
LINE
8
BLACK
6
CONTINUOUS
10
0.2925
20
0.899626
11
0.289487
21
0.900225
0
LINE
8
BLACK
6
CONTINUOUS
10
0.289487
20
0.900225
11
0.286932
21
0.901932
0
LINE
8
BLACK
6
CONTINUOUS
10
0.286932
20
0.901932
11
0.285225
21
0.904487
0
LINE
8
BLACK
6
CONTINUOUS
10
0.285225
20
0.904487
11
0.284626
21
0.9075
0
LINE
8
BLACK
6
CONTINUOUS
10
0.284626
20
0.9075
11
0.284626
21
0.9425
0
LINE
8
BLACK
6
CONTINUOUS
10
0.284626
20
0.9425
11
0.285225
21
0.945513
0
LINE
8
BLACK
6
CONTINUOUS
10
0.285225
20
0.945513
11
0.286932
21
0.948068
0
LINE
8
BLACK
6
CONTINUOUS
10
0.286932
20
0.948068
11
0.289487
21
0.949775
0
LINE
8
BLACK
6
CONTINUOUS
10
0.289487
20
0.949775
11
0.2925
21
0.950374
0
LINE
8
BLACK
6
CONTINUOUS
10
0.2925
20
0.950374
11
0.3475
21
0.950374
0
LINE
8
BLACK
6
CONTINUOUS
10
0.3475
20
0.950374
11
0.350513
21
0.949775
0
LINE
8
BLACK
6
CONTINUOUS
10
0.123013
20
0.977275
11
0.125568
21
0.975568
0
LINE
8
BLACK
6
CONTINUOUS
10
0.125568
20
0.975568
11
0.127275
21
0.973013
0
LINE
8
BLACK
6
CONTINUOUS
10
0.127275
20
0.973013
11
0.127874
21
0.97
0
LINE
8
BLACK
6
CONTINUOUS
10
0.127874
20
0.97
11
0.127874
21
0.91
0
LINE
8
BLACK
6
CONTINUOUS
10
0.127874
20
0.91
11
0.127275
21
0.906987
0
LINE
8
BLACK
6
CONTINUOUS
10
0.127275
20
0.906987
11
0.125568
21
0.904432
0
LINE
8
BLACK
6
CONTINUOUS
10
0.125568
20
0.904432
11
0.123013
21
0.902725
0
LINE
8
BLACK
6
CONTINUOUS
10
0.123013
20
0.902725
11
0.12
21
0.902126
0
LINE
8
BLACK
6
CONTINUOUS
10
0.12
20
0.902126
11
0.06
21
0.902126
0
LINE
8
BLACK
6
CONTINUOUS
10
0.06
20
0.902126
11
0.0569867
21
0.902725
0
LINE
8
BLACK
6
CONTINUOUS
10
0.0569867
20
0.902725
11
0.0544322
21
0.904432
0
LINE
8
BLACK
6
CONTINUOUS
10
0.0544322
20
0.904432
11
0.0527254
21
0.906987
0
LINE
8
BLACK
6
CONTINUOUS
10
0.0527254
20
0.906987
11
0.052126
21
0.91
0
LINE
8
BLACK
6
CONTINUOUS
10
0.052126
20
0.91
11
0.052126
21
0.97
0
LINE
8
BLACK
6
CONTINUOUS
10
0.052126
20
0.97
11
0.0527254
21
0.973013
0
LINE
8
BLACK
6
CONTINUOUS
10
0.0527254
20
0.973013
11
0.0544322
21
0.975568
0
LINE
8
BLACK
6
CONTINUOUS
10
0.0544322
20
0.975568
11
0.0569867
21
0.977275
0
LINE
8
BLACK
6
CONTINUOUS
10
0.0569867
20
0.977275
11
0.06
21
0.977874
0
LINE
8
BLACK
6
CONTINUOUS
10
0.06
20
0.977874
11
0.12
21
0.977874
0
LINE
8
BLACK
6
CONTINUOUS
10
0.12
20
0.977874
11
0.123013
21
0.977275
0
LINE
8
BLACK
6
CONTINUOUS
10
0.223013
20
0.977275
11
0.225568
21
0.975568
0
LINE
8
BLACK
6
CONTINUOUS
10
0.225568
20
0.975568
11
0.227275
21
0.973013
0
LINE
8
BLACK
6
CONTINUOUS
10
0.227275
20
0.973013
11
0.227874
21
0.97
0
LINE
8
BLACK
6
CONTINUOUS
10
0.227874
20
0.97
11
0.227874
21
0.91
0
LINE
8
BLACK
6
CONTINUOUS
10
0.227874
20
0.91
11
0.227275
21
0.906987
0
LINE
8
BLACK
6
CONTINUOUS
10
0.227275
20
0.906987
11
0.225568
21
0.904432
0
LINE
8
BLACK
6
CONTINUOUS
10
0.225568
20
0.904432
11
0.223013
21
0.902725
0
LINE
8
BLACK
6
CONTINUOUS
10
0.223013
20
0.902725
11
0.22
21
0.902126
0
LINE
8
BLACK
6
CONTINUOUS
10
0.22
20
0.902126
11
0.16
21
0.902126
0
LINE
8
BLACK
6
CONTINUOUS
10
0.16
20
0.902126
11
0.156987
21
0.902725
0
LINE
8
BLACK
6
CONTINUOUS
10
0.156987
20
0.902725
11
0.154432
21
0.904432
0
LINE
8
BLACK
6
CONTINUOUS
10
0.154432
20
0.904432
11
0.152725
21
0.906987
0
LINE
8
BLACK
6
CONTINUOUS
10
0.152725
20
0.906987
11
0.152126
21
0.91
0
LINE
8
BLACK
6
CONTINUOUS
10
0.152126
20
0.91
11
0.152126
21
0.97
0
LINE
8
BLACK
6
CONTINUOUS
10
0.152126
20
0.97
11
0.152725
21
0.973013
0
LINE
8
BLACK
6
CONTINUOUS
10
0.152725
20
0.973013
11
0.154432
21
0.975568
0
LINE
8
BLACK
6
CONTINUOUS
10
0.154432
20
0.975568
11
0.156987
21
0.977275
0
LINE
8
BLACK
6
CONTINUOUS
10
0.156987
20
0.977275
11
0.16
21
0.977874
0
LINE
8
BLACK
6
CONTINUOUS
10
0.16
20
0.977874
11
0.22
21
0.977874
0
LINE
8
BLACK
6
CONTINUOUS
10
0.22
20
0.977874
11
0.223013
21
0.977275
0
LINE
8
BLACK
6
CONTINUOUS
10
0.663013
20
1.03477
11
0.665568
21
1.03307
0
LINE
8
BLACK
6
CONTINUOUS
10
0.665568
20
1.03307
11
0.667275
21
1.03051
0
LINE
8
BLACK
6
CONTINUOUS
10
0.667275
20
1.03051
11
0.667874
21
1.0275
0
LINE
8
BLACK
6
CONTINUOUS
10
0.667874
20
1.0275
11
0.667874
21
0.9725
0
LINE
8
BLACK
6
CONTINUOUS
10
0.667874
20
0.9725
11
0.667275
21
0.969487
0
LINE
8
BLACK
6
CONTINUOUS
10
0.667275
20
0.969487
11
0.665568
21
0.966932
0
LINE
8
BLACK
6
CONTINUOUS
10
0.665568
20
0.966932
11
0.663013
21
0.965225
0
LINE
8
BLACK
6
CONTINUOUS
10
0.663013
20
0.965225
11
0.66
21
0.964626
0
LINE
8
BLACK
6
CONTINUOUS
10
0.66
20
0.964626
11
0.625
21
0.964626
0
LINE
8
BLACK
6
CONTINUOUS
10
0.625
20
0.964626
11
0.621987
21
0.965225
0
LINE
8
BLACK
6
CONTINUOUS
10
0.621987
20
0.965225
11
0.619432
21
0.966932
0
LINE
8
BLACK
6
CONTINUOUS
10
0.619432
20
0.966932
11
0.617725
21
0.969487
0
LINE
8
BLACK
6
CONTINUOUS
10
0.617725
20
0.969487
11
0.617126
21
0.9725
0
LINE
8
BLACK
6
CONTINUOUS
10
0.617126
20
0.9725
11
0.617126
21
1.0275
0
LINE
8
BLACK
6
CONTINUOUS
10
0.617126
20
1.0275
11
0.617725
21
1.03051
0
LINE
8
BLACK
6
CONTINUOUS
10
0.617725
20
1.03051
11
0.619432
21
1.03307
0
LINE
8
BLACK
6
CONTINUOUS
10
0.619432
20
1.03307
11
0.621987
21
1.03477
0
LINE
8
BLACK
6
CONTINUOUS
10
0.621987
20
1.03477
11
0.625
21
1.03537
0
LINE
8
BLACK
6
CONTINUOUS
10
0.625
20
1.03537
11
0.66
21
1.03537
0
LINE
8
BLACK
6
CONTINUOUS
10
0.66
20
1.03537
11
0.663013
21
1.03477
0
LINE
8
BLACK
6
CONTINUOUS
10
0.738013
20
1.03477
11
0.740568
21
1.03307
0
LINE
8
BLACK
6
CONTINUOUS
10
0.740568
20
1.03307
11
0.742275
21
1.03051
0
LINE
8
BLACK
6
CONTINUOUS
10
0.742275
20
1.03051
11
0.742874
21
1.0275
0
LINE
8
BLACK
6
CONTINUOUS
10
0.742874
20
1.0275
11
0.742874
21
0.9725
0
LINE
8
BLACK
6
CONTINUOUS
10
0.742874
20
0.9725
11
0.742275
21
0.969487
0
LINE
8
BLACK
6
CONTINUOUS
10
0.742275
20
0.969487
11
0.740568
21
0.966932
0
LINE
8
BLACK
6
CONTINUOUS
10
0.740568
20
0.966932
11
0.738013
21
0.965225
0
LINE
8
BLACK
6
CONTINUOUS
10
0.738013
20
0.965225
11
0.735
21
0.964626
0
LINE
8
BLACK
6
CONTINUOUS
10
0.735
20
0.964626
11
0.7
21
0.964626
0
LINE
8
BLACK
6
CONTINUOUS
10
0.7
20
0.964626
11
0.696987
21
0.965225
0
LINE
8
BLACK
6
CONTINUOUS
10
0.696987
20
0.965225
11
0.694432
21
0.966932
0
LINE
8
BLACK
6
CONTINUOUS
10
0.694432
20
0.966932
11
0.692725
21
0.969487
0
LINE
8
BLACK
6
CONTINUOUS
10
0.692725
20
0.969487
11
0.692126
21
0.9725
0
LINE
8
BLACK
6
CONTINUOUS
10
0.692126
20
0.9725
11
0.692126
21
1.0275
0
LINE
8
BLACK
6
CONTINUOUS
10
0.692126
20
1.0275
11
0.692725
21
1.03051
0
LINE
8
BLACK
6
CONTINUOUS
10
0.692725
20
1.03051
11
0.694432
21
1.03307
0
LINE
8
BLACK
6
CONTINUOUS
10
0.694432
20
1.03307
11
0.696987
21
1.03477
0
LINE
8
BLACK
6
CONTINUOUS
10
0.696987
20
1.03477
11
0.7
21
1.03537
0
LINE
8
BLACK
6
CONTINUOUS
10
0.7
20
1.03537
11
0.735
21
1.03537
0
LINE
8
BLACK
6
CONTINUOUS
10
0.735
20
1.03537
11
0.738013
21
1.03477
0
LINE
8
BLACK
6
CONTINUOUS
10
0.350513
20
1.02477
11
0.353068
21
1.02307
0
LINE
8
BLACK
6
CONTINUOUS
10
0.353068
20
1.02307
11
0.354775
21
1.02051
0
LINE
8
BLACK
6
CONTINUOUS
10
0.354775
20
1.02051
11
0.355374
21
1.0175
0
LINE
8
BLACK
6
CONTINUOUS
10
0.355374
20
1.0175
11
0.355374
21
0.9825
0
LINE
8
BLACK
6
CONTINUOUS
10
0.355374
20
0.9825
11
0.354775
21
0.979487
0
LINE
8
BLACK
6
CONTINUOUS
10
0.354775
20
0.979487
11
0.353068
21
0.976932
0
LINE
8
BLACK
6
CONTINUOUS
10
0.353068
20
0.976932
11
0.350513
21
0.975225
0
LINE
8
BLACK
6
CONTINUOUS
10
0.350513
20
0.975225
11
0.3475
21
0.974626
0
LINE
8
BLACK
6
CONTINUOUS
10
0.3475
20
0.974626
11
0.2925
21
0.974626
0
LINE
8
BLACK
6
CONTINUOUS
10
0.2925
20
0.974626
11
0.289487
21
0.975225
0
LINE
8
BLACK
6
CONTINUOUS
10
0.289487
20
0.975225
11
0.286932
21
0.976932
0
LINE
8
BLACK
6
CONTINUOUS
10
0.286932
20
0.976932
11
0.285225
21
0.979487
0
LINE
8
BLACK
6
CONTINUOUS
10
0.285225
20
0.979487
11
0.284626
21
0.9825
0
LINE
8
BLACK
6
CONTINUOUS
10
0.284626
20
0.9825
11
0.284626
21
1.0175
0
LINE
8
BLACK
6
CONTINUOUS
10
0.284626
20
1.0175
11
0.285225
21
1.02051
0
LINE
8
BLACK
6
CONTINUOUS
10
0.285225
20
1.02051
11
0.286932
21
1.02307
0
LINE
8
BLACK
6
CONTINUOUS
10
0.286932
20
1.02307
11
0.289487
21
1.02477
0
LINE
8
BLACK
6
CONTINUOUS
10
0.289487
20
1.02477
11
0.2925
21
1.02537
0
LINE
8
BLACK
6
CONTINUOUS
10
0.2925
20
1.02537
11
0.3475
21
1.02537
0
LINE
8
BLACK
6
CONTINUOUS
10
0.3475
20
1.02537
11
0.350513
21
1.02477
0
LINE
8
BLACK
6
CONTINUOUS
10
0.590513
20
1.02727
11
0.593068
21
1.02557
0
LINE
8
BLACK
6
CONTINUOUS
10
0.593068
20
1.02557
11
0.594775
21
1.02301
0
LINE
8
BLACK
6
CONTINUOUS
10
0.594775
20
1.02301
11
0.595374
21
1.02
0
LINE
8
BLACK
6
CONTINUOUS
10
0.595374
20
1.02
11
0.595374
21
0.985
0
LINE
8
BLACK
6
CONTINUOUS
10
0.595374
20
0.985
11
0.594775
21
0.981987
0
LINE
8
BLACK
6
CONTINUOUS
10
0.594775
20
0.981987
11
0.593068
21
0.979432
0
LINE
8
BLACK
6
CONTINUOUS
10
0.593068
20
0.979432
11
0.590513
21
0.977725
0
LINE
8
BLACK
6
CONTINUOUS
10
0.590513
20
0.977725
11
0.5875
21
0.977126
0
LINE
8
BLACK
6
CONTINUOUS
10
0.5875
20
0.977126
11
0.5325
21
0.977126
0
LINE
8
BLACK
6
CONTINUOUS
10
0.5325
20
0.977126
11
0.529487
21
0.977725
0
LINE
8
BLACK
6
CONTINUOUS
10
0.529487
20
0.977725
11
0.526932
21
0.979432
0
LINE
8
BLACK
6
CONTINUOUS
10
0.526932
20
0.979432
11
0.525225
21
0.981987
0
LINE
8
BLACK
6
CONTINUOUS
10
0.525225
20
0.981987
11
0.524626
21
0.985
0
LINE
8
BLACK
6
CONTINUOUS
10
0.524626
20
0.985
11
0.524626
21
1.02
0
LINE
8
BLACK
6
CONTINUOUS
10
0.524626
20
1.02
11
0.525225
21
1.02301
0
LINE
8
BLACK
6
CONTINUOUS
10
0.525225
20
1.02301
11
0.526932
21
1.02557
0
LINE
8
BLACK
6
CONTINUOUS
10
0.526932
20
1.02557
11
0.529487
21
1.02727
0
LINE
8
BLACK
6
CONTINUOUS
10
0.529487
20
1.02727
11
0.5325
21
1.02787
0
LINE
8
BLACK
6
CONTINUOUS
10
0.5325
20
1.02787
11
0.5875
21
1.02787
0
LINE
8
BLACK
6
CONTINUOUS
10
0.5875
20
1.02787
11
0.590513
21
1.02727
0
LINE
8
BLACK
6
CONTINUOUS
10
0.123013
20
1.07727
11
0.125568
21
1.07557
0
LINE
8
BLACK
6
CONTINUOUS
10
0.125568
20
1.07557
11
0.127275
21
1.07301
0
LINE
8
BLACK
6
CONTINUOUS
10
0.127275
20
1.07301
11
0.127874
21
1.07
0
LINE
8
BLACK
6
CONTINUOUS
10
0.127874
20
1.07
11
0.127874
21
1.01
0
LINE
8
BLACK
6
CONTINUOUS
10
0.127874
20
1.01
11
0.127275
21
1.00699
0
LINE
8
BLACK
6
CONTINUOUS
10
0.127275
20
1.00699
11
0.125568
21
1.00443
0
LINE
8
BLACK
6
CONTINUOUS
10
0.125568
20
1.00443
11
0.123013
21
1.00273
0
LINE
8
BLACK
6
CONTINUOUS
10
0.123013
20
1.00273
11
0.12
21
1.00213
0
LINE
8
BLACK
6
CONTINUOUS
10
0.12
20
1.00213
11
0.06
21
1.00213
0
LINE
8
BLACK
6
CONTINUOUS
10
0.06
20
1.00213
11
0.0569867
21
1.00273
0
LINE
8
BLACK
6
CONTINUOUS
10
0.0569867
20
1.00273
11
0.0544322
21
1.00443
0
LINE
8
BLACK
6
CONTINUOUS
10
0.0544322
20
1.00443
11
0.0527254
21
1.00699
0
LINE
8
BLACK
6
CONTINUOUS
10
0.0527254
20
1.00699
11
0.052126
21
1.01
0
LINE
8
BLACK
6
CONTINUOUS
10
0.052126
20
1.01
11
0.052126
21
1.07
0
LINE
8
BLACK
6
CONTINUOUS
10
0.052126
20
1.07
11
0.0527254
21
1.07301
0
LINE
8
BLACK
6
CONTINUOUS
10
0.0527254
20
1.07301
11
0.0544322
21
1.07557
0
LINE
8
BLACK
6
CONTINUOUS
10
0.0544322
20
1.07557
11
0.0569867
21
1.07727
0
LINE
8
BLACK
6
CONTINUOUS
10
0.0569867
20
1.07727
11
0.06
21
1.07787
0
LINE
8
BLACK
6
CONTINUOUS
10
0.06
20
1.07787
11
0.12
21
1.07787
0
LINE
8
BLACK
6
CONTINUOUS
10
0.12
20
1.07787
11
0.123013
21
1.07727
0
LINE
8
BLACK
6
CONTINUOUS
10
0.223013
20
1.07727
11
0.225568
21
1.07557
0
LINE
8
BLACK
6
CONTINUOUS
10
0.225568
20
1.07557
11
0.227275
21
1.07301
0
LINE
8
BLACK
6
CONTINUOUS
10
0.227275
20
1.07301
11
0.227874
21
1.07
0
LINE
8
BLACK
6
CONTINUOUS
10
0.227874
20
1.07
11
0.227874
21
1.01
0
LINE
8
BLACK
6
CONTINUOUS
10
0.227874
20
1.01
11
0.227275
21
1.00699
0
LINE
8
BLACK
6
CONTINUOUS
10
0.227275
20
1.00699
11
0.225568
21
1.00443
0
LINE
8
BLACK
6
CONTINUOUS
10
0.225568
20
1.00443
11
0.223013
21
1.00273
0
LINE
8
BLACK
6
CONTINUOUS
10
0.223013
20
1.00273
11
0.22
21
1.00213
0
LINE
8
BLACK
6
CONTINUOUS
10
0.22
20
1.00213
11
0.16
21
1.00213
0
LINE
8
BLACK
6
CONTINUOUS
10
0.16
20
1.00213
11
0.156987
21
1.00273
0
LINE
8
BLACK
6
CONTINUOUS
10
0.156987
20
1.00273
11
0.154432
21
1.00443
0
LINE
8
BLACK
6
CONTINUOUS
10
0.154432
20
1.00443
11
0.152725
21
1.00699
0
LINE
8
BLACK
6
CONTINUOUS
10
0.152725
20
1.00699
11
0.152126
21
1.01
0
LINE
8
BLACK
6
CONTINUOUS
10
0.152126
20
1.01
11
0.152126
21
1.07
0
LINE
8
BLACK
6
CONTINUOUS
10
0.152126
20
1.07
11
0.152725
21
1.07301
0
LINE
8
BLACK
6
CONTINUOUS
10
0.152725
20
1.07301
11
0.154432
21
1.07557
0
LINE
8
BLACK
6
CONTINUOUS
10
0.154432
20
1.07557
11
0.156987
21
1.07727
0
LINE
8
BLACK
6
CONTINUOUS
10
0.156987
20
1.07727
11
0.16
21
1.07787
0
LINE
8
BLACK
6
CONTINUOUS
10
0.16
20
1.07787
11
0.22
21
1.07787
0
LINE
8
BLACK
6
CONTINUOUS
10
0.22
20
1.07787
11
0.223013
21
1.07727
0
LINE
8
BLACK
6
CONTINUOUS
10
0.380926
20
1.19599
11
0.391629
21
1.19366
0
LINE
8
BLACK
6
CONTINUOUS
10
0.391629
20
1.19366
11
0.401892
21
1.18983
0
LINE
8
BLACK
6
CONTINUOUS
10
0.401892
20
1.18983
11
0.411506
21
1.18458
0
LINE
8
BLACK
6
CONTINUOUS
10
0.411506
20
1.18458
11
0.420275
21
1.17802
0
LINE
8
BLACK
6
CONTINUOUS
10
0.420275
20
1.17802
11
0.42802
21
1.17027
0
LINE
8
BLACK
6
CONTINUOUS
10
0.42802
20
1.17027
11
0.434584
21
1.16151
0
LINE
8
BLACK
6
CONTINUOUS
10
0.434584
20
1.16151
11
0.439834
21
1.15189
0
LINE
8
BLACK
6
CONTINUOUS
10
0.439834
20
1.15189
11
0.443662
21
1.14163
0
LINE
8
BLACK
6
CONTINUOUS
10
0.443662
20
1.14163
11
0.44599
21
1.13093
0
LINE
8
BLACK
6
CONTINUOUS
10
0.44599
20
1.13093
11
0.446772
21
1.12
0
LINE
8
BLACK
6
CONTINUOUS
10
0.446772
20
1.12
11
0.44599
21
1.10907
0
LINE
8
BLACK
6
CONTINUOUS
10
0.44599
20
1.10907
11
0.443662
21
1.09837
0
LINE
8
BLACK
6
CONTINUOUS
10
0.443662
20
1.09837
11
0.439834
21
1.08811
0
LINE
8
BLACK
6
CONTINUOUS
10
0.439834
20
1.08811
11
0.434584
21
1.07849
0
LINE
8
BLACK
6
CONTINUOUS
10
0.434584
20
1.07849
11
0.42802
21
1.06973
0
LINE
8
BLACK
6
CONTINUOUS
10
0.42802
20
1.06973
11
0.420275
21
1.06198
0
LINE
8
BLACK
6
CONTINUOUS
10
0.420275
20
1.06198
11
0.411506
21
1.05542
0
LINE
8
BLACK
6
CONTINUOUS
10
0.411506
20
1.05542
11
0.401892
21
1.05017
0
LINE
8
BLACK
6
CONTINUOUS
10
0.401892
20
1.05017
11
0.391629
21
1.04634
0
LINE
8
BLACK
6
CONTINUOUS
10
0.391629
20
1.04634
11
0.380926
21
1.04401
0
LINE
8
BLACK
6
CONTINUOUS
10
0.380926
20
1.04401
11
0.37
21
1.04323
0
LINE
8
BLACK
6
CONTINUOUS
10
0.37
20
1.04323
11
0.359074
21
1.04401
0
LINE
8
BLACK
6
CONTINUOUS
10
0.359074
20
1.04401
11
0.348371
21
1.04634
0
LINE
8
BLACK
6
CONTINUOUS
10
0.348371
20
1.04634
11
0.338108
21
1.05017
0
LINE
8
BLACK
6
CONTINUOUS
10
0.338108
20
1.05017
11
0.328494
21
1.05542
0
LINE
8
BLACK
6
CONTINUOUS
10
0.328494
20
1.05542
11
0.319725
21
1.06198
0
LINE
8
BLACK
6
CONTINUOUS
10
0.319725
20
1.06198
11
0.31198
21
1.06973
0
LINE
8
BLACK
6
CONTINUOUS
10
0.31198
20
1.06973
11
0.305416
21
1.07849
0
LINE
8
BLACK
6
CONTINUOUS
10
0.305416
20
1.07849
11
0.300166
21
1.08811
0
LINE
8
BLACK
6
CONTINUOUS
10
0.300166
20
1.08811
11
0.296338
21
1.09837
0
LINE
8
BLACK
6
CONTINUOUS
10
0.296338
20
1.09837
11
0.29401
21
1.10907
0
LINE
8
BLACK
6
CONTINUOUS
10
0.29401
20
1.10907
11
0.293228
21
1.12
0
LINE
8
BLACK
6
CONTINUOUS
10
0.293228
20
1.12
11
0.29401
21
1.13093
0
LINE
8
BLACK
6
CONTINUOUS
10
0.29401
20
1.13093
11
0.296338
21
1.14163
0
LINE
8
BLACK
6
CONTINUOUS
10
0.296338
20
1.14163
11
0.300166
21
1.15189
0
LINE
8
BLACK
6
CONTINUOUS
10
0.300166
20
1.15189
11
0.305416
21
1.16151
0
LINE
8
BLACK
6
CONTINUOUS
10
0.305416
20
1.16151
11
0.31198
21
1.17027
0
LINE
8
BLACK
6
CONTINUOUS
10
0.31198
20
1.17027
11
0.319725
21
1.17802
0
LINE
8
BLACK
6
CONTINUOUS
10
0.319725
20
1.17802
11
0.328494
21
1.18458
0
LINE
8
BLACK
6
CONTINUOUS
10
0.328494
20
1.18458
11
0.338108
21
1.18983
0
LINE
8
BLACK
6
CONTINUOUS
10
0.338108
20
1.18983
11
0.348371
21
1.19366
0
LINE
8
BLACK
6
CONTINUOUS
10
0.348371
20
1.19366
11
0.359074
21
1.19599
0
LINE
8
BLACK
6
CONTINUOUS
10
0.359074
20
1.19599
11
0.37
21
1.19677
0
LINE
8
BLACK
6
CONTINUOUS
10
0.37
20
1.19677
11
0.380926
21
1.19599
0
LINE
8
BLACK
6
CONTINUOUS
10
0.680926
20
1.19599
11
0.691629
21
1.19366
0
LINE
8
BLACK
6
CONTINUOUS
10
0.691629
20
1.19366
11
0.701892
21
1.18983
0
LINE
8
BLACK
6
CONTINUOUS
10
0.701892
20
1.18983
11
0.711506
21
1.18458
0
LINE
8
BLACK
6
CONTINUOUS
10
0.711506
20
1.18458
11
0.720275
21
1.17802
0
LINE
8
BLACK
6
CONTINUOUS
10
0.720275
20
1.17802
11
0.72802
21
1.17027
0
LINE
8
BLACK
6
CONTINUOUS
10
0.72802
20
1.17027
11
0.734584
21
1.16151
0
LINE
8
BLACK
6
CONTINUOUS
10
0.734584
20
1.16151
11
0.739834
21
1.15189
0
LINE
8
BLACK
6
CONTINUOUS
10
0.739834
20
1.15189
11
0.743662
21
1.14163
0
LINE
8
BLACK
6
CONTINUOUS
10
0.743662
20
1.14163
11
0.74599
21
1.13093
0
LINE
8
BLACK
6
CONTINUOUS
10
0.74599
20
1.13093
11
0.746772
21
1.12
0
LINE
8
BLACK
6
CONTINUOUS
10
0.746772
20
1.12
11
0.74599
21
1.10907
0
LINE
8
BLACK
6
CONTINUOUS
10
0.74599
20
1.10907
11
0.743662
21
1.09837
0
LINE
8
BLACK
6
CONTINUOUS
10
0.743662
20
1.09837
11
0.739834
21
1.08811
0
LINE
8
BLACK
6
CONTINUOUS
10
0.739834
20
1.08811
11
0.734584
21
1.07849
0
LINE
8
BLACK
6
CONTINUOUS
10
0.734584
20
1.07849
11
0.72802
21
1.06973
0
LINE
8
BLACK
6
CONTINUOUS
10
0.72802
20
1.06973
11
0.720275
21
1.06198
0
LINE
8
BLACK
6
CONTINUOUS
10
0.720275
20
1.06198
11
0.711506
21
1.05542
0
LINE
8
BLACK
6
CONTINUOUS
10
0.711506
20
1.05542
11
0.701892
21
1.05017
0
LINE
8
BLACK
6
CONTINUOUS
10
0.701892
20
1.05017
11
0.691629
21
1.04634
0
LINE
8
BLACK
6
CONTINUOUS
10
0.691629
20
1.04634
11
0.680926
21
1.04401
0
LINE
8
BLACK
6
CONTINUOUS
10
0.680926
20
1.04401
11
0.67
21
1.04323
0
LINE
8
BLACK
6
CONTINUOUS
10
0.67
20
1.04323
11
0.659074
21
1.04401
0
LINE
8
BLACK
6
CONTINUOUS
10
0.659074
20
1.04401
11
0.648371
21
1.04634
0
LINE
8
BLACK
6
CONTINUOUS
10
0.648371
20
1.04634
11
0.638108
21
1.05017
0
LINE
8
BLACK
6
CONTINUOUS
10
0.638108
20
1.05017
11
0.628494
21
1.05542
0
LINE
8
BLACK
6
CONTINUOUS
10
0.628494
20
1.05542
11
0.619725
21
1.06198
0
LINE
8
BLACK
6
CONTINUOUS
10
0.619725
20
1.06198
11
0.61198
21
1.06973
0
LINE
8
BLACK
6
CONTINUOUS
10
0.61198
20
1.06973
11
0.605416
21
1.07849
0
LINE
8
BLACK
6
CONTINUOUS
10
0.605416
20
1.07849
11
0.600166
21
1.08811
0
LINE
8
BLACK
6
CONTINUOUS
10
0.600166
20
1.08811
11
0.596338
21
1.09837
0
LINE
8
BLACK
6
CONTINUOUS
10
0.596338
20
1.09837
11
0.59401
21
1.10907
0
LINE
8
BLACK
6
CONTINUOUS
10
0.59401
20
1.10907
11
0.593228
21
1.12
0
LINE
8
BLACK
6
CONTINUOUS
10
0.593228
20
1.12
11
0.59401
21
1.13093
0
LINE
8
BLACK
6
CONTINUOUS
10
0.59401
20
1.13093
11
0.596338
21
1.14163
0
LINE
8
BLACK
6
CONTINUOUS
10
0.596338
20
1.14163
11
0.600166
21
1.15189
0
LINE
8
BLACK
6
CONTINUOUS
10
0.600166
20
1.15189
11
0.605416
21
1.16151
0
LINE
8
BLACK
6
CONTINUOUS
10
0.605416
20
1.16151
11
0.61198
21
1.17027
0
LINE
8
BLACK
6
CONTINUOUS
10
0.61198
20
1.17027
11
0.619725
21
1.17802
0
LINE
8
BLACK
6
CONTINUOUS
10
0.619725
20
1.17802
11
0.628494
21
1.18458
0
LINE
8
BLACK
6
CONTINUOUS
10
0.628494
20
1.18458
11
0.638108
21
1.18983
0
LINE
8
BLACK
6
CONTINUOUS
10
0.638108
20
1.18983
11
0.648371
21
1.19366
0
LINE
8
BLACK
6
CONTINUOUS
10
0.648371
20
1.19366
11
0.659074
21
1.19599
0
LINE
8
BLACK
6
CONTINUOUS
10
0.659074
20
1.19599
11
0.67
21
1.19677
0
LINE
8
BLACK
6
CONTINUOUS
10
0.67
20
1.19677
11
0.680926
21
1.19599
0
LINE
8
BLACK
6
CONTINUOUS
10
0.590513
20
1.10227
11
0.593068
21
1.10057
0
LINE
8
BLACK
6
CONTINUOUS
10
0.593068
20
1.10057
11
0.594775
21
1.09801
0
LINE
8
BLACK
6
CONTINUOUS
10
0.594775
20
1.09801
11
0.595374
21
1.095
0
LINE
8
BLACK
6
CONTINUOUS
10
0.595374
20
1.095
11
0.595374
21
1.06
0
LINE
8
BLACK
6
CONTINUOUS
10
0.595374
20
1.06
11
0.594775
21
1.05699
0
LINE
8
BLACK
6
CONTINUOUS
10
0.594775
20
1.05699
11
0.593068
21
1.05443
0
LINE
8
BLACK
6
CONTINUOUS
10
0.593068
20
1.05443
11
0.590513
21
1.05273
0
LINE
8
BLACK
6
CONTINUOUS
10
0.590513
20
1.05273
11
0.5875
21
1.05213
0
LINE
8
BLACK
6
CONTINUOUS
10
0.5875
20
1.05213
11
0.5325
21
1.05213
0
LINE
8
BLACK
6
CONTINUOUS
10
0.5325
20
1.05213
11
0.529487
21
1.05273
0
LINE
8
BLACK
6
CONTINUOUS
10
0.529487
20
1.05273
11
0.526932
21
1.05443
0
LINE
8
BLACK
6
CONTINUOUS
10
0.526932
20
1.05443
11
0.525225
21
1.05699
0
LINE
8
BLACK
6
CONTINUOUS
10
0.525225
20
1.05699
11
0.524626
21
1.06
0
LINE
8
BLACK
6
CONTINUOUS
10
0.524626
20
1.06
11
0.524626
21
1.095
0
LINE
8
BLACK
6
CONTINUOUS
10
0.524626
20
1.095
11
0.525225
21
1.09801
0
LINE
8
BLACK
6
CONTINUOUS
10
0.525225
20
1.09801
11
0.526932
21
1.10057
0
LINE
8
BLACK
6
CONTINUOUS
10
0.526932
20
1.10057
11
0.529487
21
1.10227
0
LINE
8
BLACK
6
CONTINUOUS
10
0.529487
20
1.10227
11
0.5325
21
1.10287
0
LINE
8
BLACK
6
CONTINUOUS
10
0.5325
20
1.10287
11
0.5875
21
1.10287
0
LINE
8
BLACK
6
CONTINUOUS
10
0.5875
20
1.10287
11
0.590513
21
1.10227
0
LINE
8
BLACK
6
CONTINUOUS
10
0.123013
20
1.17727
11
0.125568
21
1.17557
0
LINE
8
BLACK
6
CONTINUOUS
10
0.125568
20
1.17557
11
0.127275
21
1.17301
0
LINE
8
BLACK
6
CONTINUOUS
10
0.127275
20
1.17301
11
0.127874
21
1.17
0
LINE
8
BLACK
6
CONTINUOUS
10
0.127874
20
1.17
11
0.127874
21
1.11
0
LINE
8
BLACK
6
CONTINUOUS
10
0.127874
20
1.11
11
0.127275
21
1.10699
0
LINE
8
BLACK
6
CONTINUOUS
10
0.127275
20
1.10699
11
0.125568
21
1.10443
0
LINE
8
BLACK
6
CONTINUOUS
10
0.125568
20
1.10443
11
0.123013
21
1.10273
0
LINE
8
BLACK
6
CONTINUOUS
10
0.123013
20
1.10273
11
0.12
21
1.10213
0
LINE
8
BLACK
6
CONTINUOUS
10
0.12
20
1.10213
11
0.06
21
1.10213
0
LINE
8
BLACK
6
CONTINUOUS
10
0.06
20
1.10213
11
0.0569867
21
1.10273
0
LINE
8
BLACK
6
CONTINUOUS
10
0.0569867
20
1.10273
11
0.0544322
21
1.10443
0
LINE
8
BLACK
6
CONTINUOUS
10
0.0544322
20
1.10443
11
0.0527254
21
1.10699
0
LINE
8
BLACK
6
CONTINUOUS
10
0.0527254
20
1.10699
11
0.052126
21
1.11
0
LINE
8
BLACK
6
CONTINUOUS
10
0.052126
20
1.11
11
0.052126
21
1.17
0
LINE
8
BLACK
6
CONTINUOUS
10
0.052126
20
1.17
11
0.0527254
21
1.17301
0
LINE
8
BLACK
6
CONTINUOUS
10
0.0527254
20
1.17301
11
0.0544322
21
1.17557
0
LINE
8
BLACK
6
CONTINUOUS
10
0.0544322
20
1.17557
11
0.0569867
21
1.17727
0
LINE
8
BLACK
6
CONTINUOUS
10
0.0569867
20
1.17727
11
0.06
21
1.17787
0
LINE
8
BLACK
6
CONTINUOUS
10
0.06
20
1.17787
11
0.12
21
1.17787
0
LINE
8
BLACK
6
CONTINUOUS
10
0.12
20
1.17787
11
0.123013
21
1.17727
0
LINE
8
BLACK
6
CONTINUOUS
10
0.223013
20
1.17727
11
0.225568
21
1.17557
0
LINE
8
BLACK
6
CONTINUOUS
10
0.225568
20
1.17557
11
0.227275
21
1.17301
0
LINE
8
BLACK
6
CONTINUOUS
10
0.227275
20
1.17301
11
0.227874
21
1.17
0
LINE
8
BLACK
6
CONTINUOUS
10
0.227874
20
1.17
11
0.227874
21
1.11
0
LINE
8
BLACK
6
CONTINUOUS
10
0.227874
20
1.11
11
0.227275
21
1.10699
0
LINE
8
BLACK
6
CONTINUOUS
10
0.227275
20
1.10699
11
0.225568
21
1.10443
0
LINE
8
BLACK
6
CONTINUOUS
10
0.225568
20
1.10443
11
0.223013
21
1.10273
0
LINE
8
BLACK
6
CONTINUOUS
10
0.223013
20
1.10273
11
0.22
21
1.10213
0
LINE
8
BLACK
6
CONTINUOUS
10
0.22
20
1.10213
11
0.16
21
1.10213
0
LINE
8
BLACK
6
CONTINUOUS
10
0.16
20
1.10213
11
0.156987
21
1.10273
0
LINE
8
BLACK
6
CONTINUOUS
10
0.156987
20
1.10273
11
0.154432
21
1.10443
0
LINE
8
BLACK
6
CONTINUOUS
10
0.154432
20
1.10443
11
0.152725
21
1.10699
0
LINE
8
BLACK
6
CONTINUOUS
10
0.152725
20
1.10699
11
0.152126
21
1.11
0
LINE
8
BLACK
6
CONTINUOUS
10
0.152126
20
1.11
11
0.152126
21
1.17
0
LINE
8
BLACK
6
CONTINUOUS
10
0.152126
20
1.17
11
0.152725
21
1.17301
0
LINE
8
BLACK
6
CONTINUOUS
10
0.152725
20
1.17301
11
0.154432
21
1.17557
0
LINE
8
BLACK
6
CONTINUOUS
10
0.154432
20
1.17557
11
0.156987
21
1.17727
0
LINE
8
BLACK
6
CONTINUOUS
10
0.156987
20
1.17727
11
0.16
21
1.17787
0
LINE
8
BLACK
6
CONTINUOUS
10
0.16
20
1.17787
11
0.22
21
1.17787
0
LINE
8
BLACK
6
CONTINUOUS
10
0.22
20
1.17787
11
0.223013
21
1.17727
0
LINE
8
BLACK
6
CONTINUOUS
10
0.214106
20
1.52519
11
0.228034
21
1.52283
0
LINE
8
BLACK
6
CONTINUOUS
10
0.228034
20
1.52283
11
0.24161
21
1.51891
0
LINE
8
BLACK
6
CONTINUOUS
10
0.24161
20
1.51891
11
0.254663
21
1.51351
0
LINE
8
BLACK
6
CONTINUOUS
10
0.254663
20
1.51351
11
0.267028
21
1.50667
0
LINE
8
BLACK
6
CONTINUOUS
10
0.267028
20
1.50667
11
0.27855
21
1.4985
0
LINE
8
BLACK
6
CONTINUOUS
10
0.27855
20
1.4985
11
0.289084
21
1.48908
0
LINE
8
BLACK
6
CONTINUOUS
10
0.289084
20
1.48908
11
0.298498
21
1.47855
0
LINE
8
BLACK
6
CONTINUOUS
10
0.298498
20
1.47855
11
0.306674
21
1.46703
0
LINE
8
BLACK
6
CONTINUOUS
10
0.306674
20
1.46703
11
0.313508
21
1.45466
0
LINE
8
BLACK
6
CONTINUOUS
10
0.313508
20
1.45466
11
0.318914
21
1.44161
0
LINE
8
BLACK
6
CONTINUOUS
10
0.318914
20
1.44161
11
0.322826
21
1.42803
0
LINE
8
BLACK
6
CONTINUOUS
10
0.322826
20
1.42803
11
0.325192
21
1.41411
0
LINE
8
BLACK
6
CONTINUOUS
10
0.325192
20
1.41411
11
0.325984
21
1.4
0
LINE
8
BLACK
6
CONTINUOUS
10
0.325984
20
1.4
11
0.325192
21
1.38589
0
LINE
8
BLACK
6
CONTINUOUS
10
0.325192
20
1.38589
11
0.322826
21
1.37197
0
LINE
8
BLACK
6
CONTINUOUS
10
0.322826
20
1.37197
11
0.318914
21
1.35839
0
LINE
8
BLACK
6
CONTINUOUS
10
0.318914
20
1.35839
11
0.313508
21
1.34534
0
LINE
8
BLACK
6
CONTINUOUS
10
0.313508
20
1.34534
11
0.306674
21
1.33297
0
LINE
8
BLACK
6
CONTINUOUS
10
0.306674
20
1.33297
11
0.298498
21
1.32145
0
LINE
8
BLACK
6
CONTINUOUS
10
0.298498
20
1.32145
11
0.289084
21
1.31092
0
LINE
8
BLACK
6
CONTINUOUS
10
0.289084
20
1.31092
11
0.27855
21
1.3015
0
LINE
8
BLACK
6
CONTINUOUS
10
0.27855
20
1.3015
11
0.267028
21
1.29333
0
LINE
8
BLACK
6
CONTINUOUS
10
0.267028
20
1.29333
11
0.254663
21
1.28649
0
LINE
8
BLACK
6
CONTINUOUS
10
0.254663
20
1.28649
11
0.24161
21
1.28109
0
LINE
8
BLACK
6
CONTINUOUS
10
0.24161
20
1.28109
11
0.228034
21
1.27717
0
LINE
8
BLACK
6
CONTINUOUS
10
0.228034
20
1.27717
11
0.214106
21
1.27481
0
LINE
8
BLACK
6
CONTINUOUS
10
0.214106
20
1.27481
11
0.2
21
1.27402
0
LINE
8
BLACK
6
CONTINUOUS
10
0.2
20
1.27402
11
0.185894
21
1.27481
0
LINE
8
BLACK
6
CONTINUOUS
10
0.185894
20
1.27481
11
0.171966
21
1.27717
0
LINE
8
BLACK
6
CONTINUOUS
10
0.171966
20
1.27717
11
0.15839
21
1.28109
0
LINE
8
BLACK
6
CONTINUOUS
10
0.15839
20
1.28109
11
0.145337
21
1.28649
0
LINE
8
BLACK
6
CONTINUOUS
10
0.145337
20
1.28649
11
0.132972
21
1.29333
0
LINE
8
BLACK
6
CONTINUOUS
10
0.132972
20
1.29333
11
0.12145
21
1.3015
0
LINE
8
BLACK
6
CONTINUOUS
10
0.12145
20
1.3015
11
0.110916
21
1.31092
0
LINE
8
BLACK
6
CONTINUOUS
10
0.110916
20
1.31092
11
0.101502
21
1.32145
0
LINE
8
BLACK
6
CONTINUOUS
10
0.101502
20
1.32145
11
0.0933261
21
1.33297
0
LINE
8
BLACK
6
CONTINUOUS
10
0.0933261
20
1.33297
11
0.0864921
21
1.34534
0
LINE
8
BLACK
6
CONTINUOUS
10
0.0864921
20
1.34534
11
0.0810856
21
1.35839
0
LINE
8
BLACK
6
CONTINUOUS
10
0.0810856
20
1.35839
11
0.0771744
21
1.37197
0
LINE
8
BLACK
6
CONTINUOUS
10
0.0771744
20
1.37197
11
0.0748079
21
1.38589
0
LINE
8
BLACK
6
CONTINUOUS
10
0.0748079
20
1.38589
11
0.0740157
21
1.4
0
LINE
8
BLACK
6
CONTINUOUS
10
0.0740157
20
1.4
11
0.0748079
21
1.41411
0
LINE
8
BLACK
6
CONTINUOUS
10
0.0748079
20
1.41411
11
0.0771744
21
1.42803
0
LINE
8
BLACK
6
CONTINUOUS
10
0.0771744
20
1.42803
11
0.0810856
21
1.44161
0
LINE
8
BLACK
6
CONTINUOUS
10
0.0810856
20
1.44161
11
0.0864921
21
1.45466
0
LINE
8
BLACK
6
CONTINUOUS
10
0.0864921
20
1.45466
11
0.0933261
21
1.46703
0
LINE
8
BLACK
6
CONTINUOUS
10
0.0933261
20
1.46703
11
0.101502
21
1.47855
0
LINE
8
BLACK
6
CONTINUOUS
10
0.101502
20
1.47855
11
0.110916
21
1.48908
0
LINE
8
BLACK
6
CONTINUOUS
10
0.110916
20
1.48908
11
0.12145
21
1.4985
0
LINE
8
BLACK
6
CONTINUOUS
10
0.12145
20
1.4985
11
0.132972
21
1.50667
0
LINE
8
BLACK
6
CONTINUOUS
10
0.132972
20
1.50667
11
0.145337
21
1.51351
0
LINE
8
BLACK
6
CONTINUOUS
10
0.145337
20
1.51351
11
0.15839
21
1.51891
0
LINE
8
BLACK
6
CONTINUOUS
10
0.15839
20
1.51891
11
0.171966
21
1.52283
0
LINE
8
BLACK
6
CONTINUOUS
10
0.171966
20
1.52283
11
0.185894
21
1.52519
0
LINE
8
BLACK
6
CONTINUOUS
10
0.185894
20
1.52519
11
0.2
21
1.52598
0
LINE
8
BLACK
6
CONTINUOUS
10
0.2
20
1.52598
11
0.214106
21
1.52519
0
LINE
8
BLACK
6
CONTINUOUS
10
0.614106
20
1.52519
11
0.628034
21
1.52283
0
LINE
8
BLACK
6
CONTINUOUS
10
0.628034
20
1.52283
11
0.64161
21
1.51891
0
LINE
8
BLACK
6
CONTINUOUS
10
0.64161
20
1.51891
11
0.654663
21
1.51351
0
LINE
8
BLACK
6
CONTINUOUS
10
0.654663
20
1.51351
11
0.667028
21
1.50667
0
LINE
8
BLACK
6
CONTINUOUS
10
0.667028
20
1.50667
11
0.67855
21
1.4985
0
LINE
8
BLACK
6
CONTINUOUS
10
0.67855
20
1.4985
11
0.689084
21
1.48908
0
LINE
8
BLACK
6
CONTINUOUS
10
0.689084
20
1.48908
11
0.698498
21
1.47855
0
LINE
8
BLACK
6
CONTINUOUS
10
0.698498
20
1.47855
11
0.706674
21
1.46703
0
LINE
8
BLACK
6
CONTINUOUS
10
0.706674
20
1.46703
11
0.713508
21
1.45466
0
LINE
8
BLACK
6
CONTINUOUS
10
0.713508
20
1.45466
11
0.718914
21
1.44161
0
LINE
8
BLACK
6
CONTINUOUS
10
0.718914
20
1.44161
11
0.722826
21
1.42803
0
LINE
8
BLACK
6
CONTINUOUS
10
0.722826
20
1.42803
11
0.725192
21
1.41411
0
LINE
8
BLACK
6
CONTINUOUS
10
0.725192
20
1.41411
11
0.725984
21
1.4
0
LINE
8
BLACK
6
CONTINUOUS
10
0.725984
20
1.4
11
0.725192
21
1.38589
0
LINE
8
BLACK
6
CONTINUOUS
10
0.725192
20
1.38589
11
0.722826
21
1.37197
0
LINE
8
BLACK
6
CONTINUOUS
10
0.722826
20
1.37197
11
0.718914
21
1.35839
0
LINE
8
BLACK
6
CONTINUOUS
10
0.718914
20
1.35839
11
0.713508
21
1.34534
0
LINE
8
BLACK
6
CONTINUOUS
10
0.713508
20
1.34534
11
0.706674
21
1.33297
0
LINE
8
BLACK
6
CONTINUOUS
10
0.706674
20
1.33297
11
0.698498
21
1.32145
0
LINE
8
BLACK
6
CONTINUOUS
10
0.698498
20
1.32145
11
0.689084
21
1.31092
0
LINE
8
BLACK
6
CONTINUOUS
10
0.689084
20
1.31092
11
0.67855
21
1.3015
0
LINE
8
BLACK
6
CONTINUOUS
10
0.67855
20
1.3015
11
0.667028
21
1.29333
0
LINE
8
BLACK
6
CONTINUOUS
10
0.667028
20
1.29333
11
0.654663
21
1.28649
0
LINE
8
BLACK
6
CONTINUOUS
10
0.654663
20
1.28649
11
0.64161
21
1.28109
0
LINE
8
BLACK
6
CONTINUOUS
10
0.64161
20
1.28109
11
0.628034
21
1.27717
0
LINE
8
BLACK
6
CONTINUOUS
10
0.628034
20
1.27717
11
0.614106
21
1.27481
0
LINE
8
BLACK
6
CONTINUOUS
10
0.614106
20
1.27481
11
0.6
21
1.27402
0
LINE
8
BLACK
6
CONTINUOUS
10
0.6
20
1.27402
11
0.585894
21
1.27481
0
LINE
8
BLACK
6
CONTINUOUS
10
0.585894
20
1.27481
11
0.571966
21
1.27717
0
LINE
8
BLACK
6
CONTINUOUS
10
0.571966
20
1.27717
11
0.55839
21
1.28109
0
LINE
8
BLACK
6
CONTINUOUS
10
0.55839
20
1.28109
11
0.545337
21
1.28649
0
LINE
8
BLACK
6
CONTINUOUS
10
0.545337
20
1.28649
11
0.532972
21
1.29333
0
LINE
8
BLACK
6
CONTINUOUS
10
0.532972
20
1.29333
11
0.52145
21
1.3015
0
LINE
8
BLACK
6
CONTINUOUS
10
0.52145
20
1.3015
11
0.510916
21
1.31092
0
LINE
8
BLACK
6
CONTINUOUS
10
0.510916
20
1.31092
11
0.501502
21
1.32145
0
LINE
8
BLACK
6
CONTINUOUS
10
0.501502
20
1.32145
11
0.493326
21
1.33297
0
LINE
8
BLACK
6
CONTINUOUS
10
0.493326
20
1.33297
11
0.486492
21
1.34534
0
LINE
8
BLACK
6
CONTINUOUS
10
0.486492
20
1.34534
11
0.481086
21
1.35839
0
LINE
8
BLACK
6
CONTINUOUS
10
0.481086
20
1.35839
11
0.477174
21
1.37197
0
LINE
8
BLACK
6
CONTINUOUS
10
0.477174
20
1.37197
11
0.474808
21
1.38589
0
LINE
8
BLACK
6
CONTINUOUS
10
0.474808
20
1.38589
11
0.474016
21
1.4
0
LINE
8
BLACK
6
CONTINUOUS
10
0.474016
20
1.4
11
0.474808
21
1.41411
0
LINE
8
BLACK
6
CONTINUOUS
10
0.474808
20
1.41411
11
0.477174
21
1.42803
0
LINE
8
BLACK
6
CONTINUOUS
10
0.477174
20
1.42803
11
0.481086
21
1.44161
0
LINE
8
BLACK
6
CONTINUOUS
10
0.481086
20
1.44161
11
0.486492
21
1.45466
0
LINE
8
BLACK
6
CONTINUOUS
10
0.486492
20
1.45466
11
0.493326
21
1.46703
0
LINE
8
BLACK
6
CONTINUOUS
10
0.493326
20
1.46703
11
0.501502
21
1.47855
0
LINE
8
BLACK
6
CONTINUOUS
10
0.501502
20
1.47855
11
0.510916
21
1.48908
0
LINE
8
BLACK
6
CONTINUOUS
10
0.510916
20
1.48908
11
0.52145
21
1.4985
0
LINE
8
BLACK
6
CONTINUOUS
10
0.52145
20
1.4985
11
0.532972
21
1.50667
0
LINE
8
BLACK
6
CONTINUOUS
10
0.532972
20
1.50667
11
0.545337
21
1.51351
0
LINE
8
BLACK
6
CONTINUOUS
10
0.545337
20
1.51351
11
0.55839
21
1.51891
0
LINE
8
BLACK
6
CONTINUOUS
10
0.55839
20
1.51891
11
0.571966
21
1.52283
0
LINE
8
BLACK
6
CONTINUOUS
10
0.571966
20
1.52283
11
0.585894
21
1.52519
0
LINE
8
BLACK
6
CONTINUOUS
10
0.585894
20
1.52519
11
0.6
21
1.52598
0
LINE
8
BLACK
6
CONTINUOUS
10
0.6
20
1.52598
11
0.614106
21
1.52519
  0
ENDSEC
  0
EOF
