  0
SECTION
  2
HEADER
  9
$ANGBASE
  50
0.0
  9
$ANGDIR
  70
1
  9
$MEASUREMENT
  70
0
  0
ENDSEC
  0
SECTION
  2
TABLES
  0
TABLE
  2
LTYPE
  70
4
  0
LTYPE
  5
40F
  2
CONTINUOUS
  70
0
  3
Solid line
  72
65
  73
0
  40
0.0
  0
LTYPE
  5
410
  2
DASHDOT
 70
0
  3
Dash Dot ____ _ ____ _
 72
65
 73
4
 40
2.0
 49
1.25
 49
-0.25
 49
0.25
 49
-0.25
  0
LTYPE
  5
411
  2
DASHED
 70
0
  3
Dashed __ __ __ __ __
 72
65
 73
2
 40
0.75
 49
0.5
 49
-0.25
  0
LTYPE
  5
43B
  2
DOTTED
 70
0
  3
Dotted .  .  .  .
 72
65
 73
2
 40
0.2
 49
0.0
 49
-0.2
  0
ENDTAB
  0
TABLE
  2
STYLE
  70
4
  0
STYLE
  2
KICAD
  70
0
  40
0
  41
1
  42
1
  50
0
  71
0
  3
isocp.shx
  0
STYLE
  2
KICADB
  70
0
  40
0
  41
1
  42
1
  50
0
  71
0
  3
isocp.shx
  0
STYLE
  2
KICADI
  70
0
  40
0
  41
1
  42
1
  50
15
  71
0
  3
isocp.shx
  0
STYLE
  2
KICADBI
  70
0
  40
0
  41
1
  42
1
  50
15
  71
0
  3
isocp.shx
  0
ENDTAB
  0
TABLE
  2
LAYER
  70
1
  0
LAYER
  2
BLACK
  70
0
  62
7
  6
CONTINUOUS
  0
ENDTAB
  0
ENDSEC
  0
SECTION
  2
ENTITIES
0
LINE
8
BLACK
6
CONTINUOUS
10
0.214106
20
0.325192
11
0.228034
21
0.322826
0
LINE
8
BLACK
6
CONTINUOUS
10
0.228034
20
0.322826
11
0.24161
21
0.318914
0
LINE
8
BLACK
6
CONTINUOUS
10
0.24161
20
0.318914
11
0.254663
21
0.313508
0
LINE
8
BLACK
6
CONTINUOUS
10
0.254663
20
0.313508
11
0.267028
21
0.306674
0
LINE
8
BLACK
6
CONTINUOUS
10
0.267028
20
0.306674
11
0.27855
21
0.298498
0
LINE
8
BLACK
6
CONTINUOUS
10
0.27855
20
0.298498
11
0.289084
21
0.289084
0
LINE
8
BLACK
6
CONTINUOUS
10
0.289084
20
0.289084
11
0.298498
21
0.27855
0
LINE
8
BLACK
6
CONTINUOUS
10
0.298498
20
0.27855
11
0.306674
21
0.267028
0
LINE
8
BLACK
6
CONTINUOUS
10
0.306674
20
0.267028
11
0.313508
21
0.254663
0
LINE
8
BLACK
6
CONTINUOUS
10
0.313508
20
0.254663
11
0.318914
21
0.24161
0
LINE
8
BLACK
6
CONTINUOUS
10
0.318914
20
0.24161
11
0.322826
21
0.228034
0
LINE
8
BLACK
6
CONTINUOUS
10
0.322826
20
0.228034
11
0.325192
21
0.214106
0
LINE
8
BLACK
6
CONTINUOUS
10
0.325192
20
0.214106
11
0.325984
21
0.2
0
LINE
8
BLACK
6
CONTINUOUS
10
0.325984
20
0.2
11
0.325192
21
0.185894
0
LINE
8
BLACK
6
CONTINUOUS
10
0.325192
20
0.185894
11
0.322826
21
0.171966
0
LINE
8
BLACK
6
CONTINUOUS
10
0.322826
20
0.171966
11
0.318914
21
0.15839
0
LINE
8
BLACK
6
CONTINUOUS
10
0.318914
20
0.15839
11
0.313508
21
0.145337
0
LINE
8
BLACK
6
CONTINUOUS
10
0.313508
20
0.145337
11
0.306674
21
0.132972
0
LINE
8
BLACK
6
CONTINUOUS
10
0.306674
20
0.132972
11
0.298498
21
0.12145
0
LINE
8
BLACK
6
CONTINUOUS
10
0.298498
20
0.12145
11
0.289084
21
0.110916
0
LINE
8
BLACK
6
CONTINUOUS
10
0.289084
20
0.110916
11
0.27855
21
0.101502
0
LINE
8
BLACK
6
CONTINUOUS
10
0.27855
20
0.101502
11
0.267028
21
0.0933261
0
LINE
8
BLACK
6
CONTINUOUS
10
0.267028
20
0.0933261
11
0.254663
21
0.0864921
0
LINE
8
BLACK
6
CONTINUOUS
10
0.254663
20
0.0864921
11
0.24161
21
0.0810856
0
LINE
8
BLACK
6
CONTINUOUS
10
0.24161
20
0.0810856
11
0.228034
21
0.0771744
0
LINE
8
BLACK
6
CONTINUOUS
10
0.228034
20
0.0771744
11
0.214106
21
0.0748079
0
LINE
8
BLACK
6
CONTINUOUS
10
0.214106
20
0.0748079
11
0.2
21
0.0740157
0
LINE
8
BLACK
6
CONTINUOUS
10
0.2
20
0.0740157
11
0.185894
21
0.0748079
0
LINE
8
BLACK
6
CONTINUOUS
10
0.185894
20
0.0748079
11
0.171966
21
0.0771744
0
LINE
8
BLACK
6
CONTINUOUS
10
0.171966
20
0.0771744
11
0.15839
21
0.0810856
0
LINE
8
BLACK
6
CONTINUOUS
10
0.15839
20
0.0810856
11
0.145337
21
0.0864921
0
LINE
8
BLACK
6
CONTINUOUS
10
0.145337
20
0.0864921
11
0.132972
21
0.0933261
0
LINE
8
BLACK
6
CONTINUOUS
10
0.132972
20
0.0933261
11
0.12145
21
0.101502
0
LINE
8
BLACK
6
CONTINUOUS
10
0.12145
20
0.101502
11
0.110916
21
0.110916
0
LINE
8
BLACK
6
CONTINUOUS
10
0.110916
20
0.110916
11
0.101502
21
0.12145
0
LINE
8
BLACK
6
CONTINUOUS
10
0.101502
20
0.12145
11
0.0933261
21
0.132972
0
LINE
8
BLACK
6
CONTINUOUS
10
0.0933261
20
0.132972
11
0.0864921
21
0.145337
0
LINE
8
BLACK
6
CONTINUOUS
10
0.0864921
20
0.145337
11
0.0810856
21
0.15839
0
LINE
8
BLACK
6
CONTINUOUS
10
0.0810856
20
0.15839
11
0.0771744
21
0.171966
0
LINE
8
BLACK
6
CONTINUOUS
10
0.0771744
20
0.171966
11
0.0748079
21
0.185894
0
LINE
8
BLACK
6
CONTINUOUS
10
0.0748079
20
0.185894
11
0.0740157
21
0.2
0
LINE
8
BLACK
6
CONTINUOUS
10
0.0740157
20
0.2
11
0.0748079
21
0.214106
0
LINE
8
BLACK
6
CONTINUOUS
10
0.0748079
20
0.214106
11
0.0771744
21
0.228034
0
LINE
8
BLACK
6
CONTINUOUS
10
0.0771744
20
0.228034
11
0.0810856
21
0.24161
0
LINE
8
BLACK
6
CONTINUOUS
10
0.0810856
20
0.24161
11
0.0864921
21
0.254663
0
LINE
8
BLACK
6
CONTINUOUS
10
0.0864921
20
0.254663
11
0.0933261
21
0.267028
0
LINE
8
BLACK
6
CONTINUOUS
10
0.0933261
20
0.267028
11
0.101502
21
0.27855
0
LINE
8
BLACK
6
CONTINUOUS
10
0.101502
20
0.27855
11
0.110916
21
0.289084
0
LINE
8
BLACK
6
CONTINUOUS
10
0.110916
20
0.289084
11
0.12145
21
0.298498
0
LINE
8
BLACK
6
CONTINUOUS
10
0.12145
20
0.298498
11
0.132972
21
0.306674
0
LINE
8
BLACK
6
CONTINUOUS
10
0.132972
20
0.306674
11
0.145337
21
0.313508
0
LINE
8
BLACK
6
CONTINUOUS
10
0.145337
20
0.313508
11
0.15839
21
0.318914
0
LINE
8
BLACK
6
CONTINUOUS
10
0.15839
20
0.318914
11
0.171966
21
0.322826
0
LINE
8
BLACK
6
CONTINUOUS
10
0.171966
20
0.322826
11
0.185894
21
0.325192
0
LINE
8
BLACK
6
CONTINUOUS
10
0.185894
20
0.325192
11
0.2
21
0.325984
0
LINE
8
BLACK
6
CONTINUOUS
10
0.2
20
0.325984
11
0.214106
21
0.325192
0
LINE
8
BLACK
6
CONTINUOUS
10
0.614106
20
0.325192
11
0.628034
21
0.322826
0
LINE
8
BLACK
6
CONTINUOUS
10
0.628034
20
0.322826
11
0.64161
21
0.318914
0
LINE
8
BLACK
6
CONTINUOUS
10
0.64161
20
0.318914
11
0.654663
21
0.313508
0
LINE
8
BLACK
6
CONTINUOUS
10
0.654663
20
0.313508
11
0.667028
21
0.306674
0
LINE
8
BLACK
6
CONTINUOUS
10
0.667028
20
0.306674
11
0.67855
21
0.298498
0
LINE
8
BLACK
6
CONTINUOUS
10
0.67855
20
0.298498
11
0.689084
21
0.289084
0
LINE
8
BLACK
6
CONTINUOUS
10
0.689084
20
0.289084
11
0.698498
21
0.27855
0
LINE
8
BLACK
6
CONTINUOUS
10
0.698498
20
0.27855
11
0.706674
21
0.267028
0
LINE
8
BLACK
6
CONTINUOUS
10
0.706674
20
0.267028
11
0.713508
21
0.254663
0
LINE
8
BLACK
6
CONTINUOUS
10
0.713508
20
0.254663
11
0.718914
21
0.24161
0
LINE
8
BLACK
6
CONTINUOUS
10
0.718914
20
0.24161
11
0.722826
21
0.228034
0
LINE
8
BLACK
6
CONTINUOUS
10
0.722826
20
0.228034
11
0.725192
21
0.214106
0
LINE
8
BLACK
6
CONTINUOUS
10
0.725192
20
0.214106
11
0.725984
21
0.2
0
LINE
8
BLACK
6
CONTINUOUS
10
0.725984
20
0.2
11
0.725192
21
0.185894
0
LINE
8
BLACK
6
CONTINUOUS
10
0.725192
20
0.185894
11
0.722826
21
0.171966
0
LINE
8
BLACK
6
CONTINUOUS
10
0.722826
20
0.171966
11
0.718914
21
0.15839
0
LINE
8
BLACK
6
CONTINUOUS
10
0.718914
20
0.15839
11
0.713508
21
0.145337
0
LINE
8
BLACK
6
CONTINUOUS
10
0.713508
20
0.145337
11
0.706674
21
0.132972
0
LINE
8
BLACK
6
CONTINUOUS
10
0.706674
20
0.132972
11
0.698498
21
0.12145
0
LINE
8
BLACK
6
CONTINUOUS
10
0.698498
20
0.12145
11
0.689084
21
0.110916
0
LINE
8
BLACK
6
CONTINUOUS
10
0.689084
20
0.110916
11
0.67855
21
0.101502
0
LINE
8
BLACK
6
CONTINUOUS
10
0.67855
20
0.101502
11
0.667028
21
0.0933261
0
LINE
8
BLACK
6
CONTINUOUS
10
0.667028
20
0.0933261
11
0.654663
21
0.0864921
0
LINE
8
BLACK
6
CONTINUOUS
10
0.654663
20
0.0864921
11
0.64161
21
0.0810856
0
LINE
8
BLACK
6
CONTINUOUS
10
0.64161
20
0.0810856
11
0.628034
21
0.0771744
0
LINE
8
BLACK
6
CONTINUOUS
10
0.628034
20
0.0771744
11
0.614106
21
0.0748079
0
LINE
8
BLACK
6
CONTINUOUS
10
0.614106
20
0.0748079
11
0.6
21
0.0740157
0
LINE
8
BLACK
6
CONTINUOUS
10
0.6
20
0.0740157
11
0.585894
21
0.0748079
0
LINE
8
BLACK
6
CONTINUOUS
10
0.585894
20
0.0748079
11
0.571966
21
0.0771744
0
LINE
8
BLACK
6
CONTINUOUS
10
0.571966
20
0.0771744
11
0.55839
21
0.0810856
0
LINE
8
BLACK
6
CONTINUOUS
10
0.55839
20
0.0810856
11
0.545337
21
0.0864921
0
LINE
8
BLACK
6
CONTINUOUS
10
0.545337
20
0.0864921
11
0.532972
21
0.0933261
0
LINE
8
BLACK
6
CONTINUOUS
10
0.532972
20
0.0933261
11
0.52145
21
0.101502
0
LINE
8
BLACK
6
CONTINUOUS
10
0.52145
20
0.101502
11
0.510916
21
0.110916
0
LINE
8
BLACK
6
CONTINUOUS
10
0.510916
20
0.110916
11
0.501502
21
0.12145
0
LINE
8
BLACK
6
CONTINUOUS
10
0.501502
20
0.12145
11
0.493326
21
0.132972
0
LINE
8
BLACK
6
CONTINUOUS
10
0.493326
20
0.132972
11
0.486492
21
0.145337
0
LINE
8
BLACK
6
CONTINUOUS
10
0.486492
20
0.145337
11
0.481086
21
0.15839
0
LINE
8
BLACK
6
CONTINUOUS
10
0.481086
20
0.15839
11
0.477174
21
0.171966
0
LINE
8
BLACK
6
CONTINUOUS
10
0.477174
20
0.171966
11
0.474808
21
0.185894
0
LINE
8
BLACK
6
CONTINUOUS
10
0.474808
20
0.185894
11
0.474016
21
0.2
0
LINE
8
BLACK
6
CONTINUOUS
10
0.474016
20
0.2
11
0.474808
21
0.214106
0
LINE
8
BLACK
6
CONTINUOUS
10
0.474808
20
0.214106
11
0.477174
21
0.228034
0
LINE
8
BLACK
6
CONTINUOUS
10
0.477174
20
0.228034
11
0.481086
21
0.24161
0
LINE
8
BLACK
6
CONTINUOUS
10
0.481086
20
0.24161
11
0.486492
21
0.254663
0
LINE
8
BLACK
6
CONTINUOUS
10
0.486492
20
0.254663
11
0.493326
21
0.267028
0
LINE
8
BLACK
6
CONTINUOUS
10
0.493326
20
0.267028
11
0.501502
21
0.27855
0
LINE
8
BLACK
6
CONTINUOUS
10
0.501502
20
0.27855
11
0.510916
21
0.289084
0
LINE
8
BLACK
6
CONTINUOUS
10
0.510916
20
0.289084
11
0.52145
21
0.298498
0
LINE
8
BLACK
6
CONTINUOUS
10
0.52145
20
0.298498
11
0.532972
21
0.306674
0
LINE
8
BLACK
6
CONTINUOUS
10
0.532972
20
0.306674
11
0.545337
21
0.313508
0
LINE
8
BLACK
6
CONTINUOUS
10
0.545337
20
0.313508
11
0.55839
21
0.318914
0
LINE
8
BLACK
6
CONTINUOUS
10
0.55839
20
0.318914
11
0.571966
21
0.322826
0
LINE
8
BLACK
6
CONTINUOUS
10
0.571966
20
0.322826
11
0.585894
21
0.325192
0
LINE
8
BLACK
6
CONTINUOUS
10
0.585894
20
0.325192
11
0.6
21
0.325984
0
LINE
8
BLACK
6
CONTINUOUS
10
0.6
20
0.325984
11
0.614106
21
0.325192
0
LINE
8
BLACK
6
CONTINUOUS
10
0.123013
20
0.517275
11
0.125568
21
0.515568
0
LINE
8
BLACK
6
CONTINUOUS
10
0.125568
20
0.515568
11
0.127275
21
0.513013
0
LINE
8
BLACK
6
CONTINUOUS
10
0.127275
20
0.513013
11
0.127874
21
0.51
0
LINE
8
BLACK
6
CONTINUOUS
10
0.127874
20
0.51
11
0.127874
21
0.45
0
LINE
8
BLACK
6
CONTINUOUS
10
0.127874
20
0.45
11
0.127275
21
0.446987
0
LINE
8
BLACK
6
CONTINUOUS
10
0.127275
20
0.446987
11
0.125568
21
0.444432
0
LINE
8
BLACK
6
CONTINUOUS
10
0.125568
20
0.444432
11
0.123013
21
0.442725
0
LINE
8
BLACK
6
CONTINUOUS
10
0.123013
20
0.442725
11
0.12
21
0.442126
0
LINE
8
BLACK
6
CONTINUOUS
10
0.12
20
0.442126
11
0.06
21
0.442126
0
LINE
8
BLACK
6
CONTINUOUS
10
0.06
20
0.442126
11
0.0569867
21
0.442725
0
LINE
8
BLACK
6
CONTINUOUS
10
0.0569867
20
0.442725
11
0.0544322
21
0.444432
0
LINE
8
BLACK
6
CONTINUOUS
10
0.0544322
20
0.444432
11
0.0527254
21
0.446987
0
LINE
8
BLACK
6
CONTINUOUS
10
0.0527254
20
0.446987
11
0.052126
21
0.45
0
LINE
8
BLACK
6
CONTINUOUS
10
0.052126
20
0.45
11
0.052126
21
0.51
0
LINE
8
BLACK
6
CONTINUOUS
10
0.052126
20
0.51
11
0.0527254
21
0.513013
0
LINE
8
BLACK
6
CONTINUOUS
10
0.0527254
20
0.513013
11
0.0544322
21
0.515568
0
LINE
8
BLACK
6
CONTINUOUS
10
0.0544322
20
0.515568
11
0.0569867
21
0.517275
0
LINE
8
BLACK
6
CONTINUOUS
10
0.0569867
20
0.517275
11
0.06
21
0.517874
0
LINE
8
BLACK
6
CONTINUOUS
10
0.06
20
0.517874
11
0.12
21
0.517874
0
LINE
8
BLACK
6
CONTINUOUS
10
0.12
20
0.517874
11
0.123013
21
0.517275
0
LINE
8
BLACK
6
CONTINUOUS
10
0.223013
20
0.517275
11
0.225568
21
0.515568
0
LINE
8
BLACK
6
CONTINUOUS
10
0.225568
20
0.515568
11
0.227275
21
0.513013
0
LINE
8
BLACK
6
CONTINUOUS
10
0.227275
20
0.513013
11
0.227874
21
0.51
0
LINE
8
BLACK
6
CONTINUOUS
10
0.227874
20
0.51
11
0.227874
21
0.45
0
LINE
8
BLACK
6
CONTINUOUS
10
0.227874
20
0.45
11
0.227275
21
0.446987
0
LINE
8
BLACK
6
CONTINUOUS
10
0.227275
20
0.446987
11
0.225568
21
0.444432
0
LINE
8
BLACK
6
CONTINUOUS
10
0.225568
20
0.444432
11
0.223013
21
0.442725
0
LINE
8
BLACK
6
CONTINUOUS
10
0.223013
20
0.442725
11
0.22
21
0.442126
0
LINE
8
BLACK
6
CONTINUOUS
10
0.22
20
0.442126
11
0.16
21
0.442126
0
LINE
8
BLACK
6
CONTINUOUS
10
0.16
20
0.442126
11
0.156987
21
0.442725
0
LINE
8
BLACK
6
CONTINUOUS
10
0.156987
20
0.442725
11
0.154432
21
0.444432
0
LINE
8
BLACK
6
CONTINUOUS
10
0.154432
20
0.444432
11
0.152725
21
0.446987
0
LINE
8
BLACK
6
CONTINUOUS
10
0.152725
20
0.446987
11
0.152126
21
0.45
0
LINE
8
BLACK
6
CONTINUOUS
10
0.152126
20
0.45
11
0.152126
21
0.51
0
LINE
8
BLACK
6
CONTINUOUS
10
0.152126
20
0.51
11
0.152725
21
0.513013
0
LINE
8
BLACK
6
CONTINUOUS
10
0.152725
20
0.513013
11
0.154432
21
0.515568
0
LINE
8
BLACK
6
CONTINUOUS
10
0.154432
20
0.515568
11
0.156987
21
0.517275
0
LINE
8
BLACK
6
CONTINUOUS
10
0.156987
20
0.517275
11
0.16
21
0.517874
0
LINE
8
BLACK
6
CONTINUOUS
10
0.16
20
0.517874
11
0.22
21
0.517874
0
LINE
8
BLACK
6
CONTINUOUS
10
0.22
20
0.517874
11
0.223013
21
0.517275
0
LINE
8
BLACK
6
CONTINUOUS
10
0.380926
20
0.59599
11
0.391629
21
0.593662
0
LINE
8
BLACK
6
CONTINUOUS
10
0.391629
20
0.593662
11
0.401892
21
0.589834
0
LINE
8
BLACK
6
CONTINUOUS
10
0.401892
20
0.589834
11
0.411506
21
0.584584
0
LINE
8
BLACK
6
CONTINUOUS
10
0.411506
20
0.584584
11
0.420275
21
0.57802
0
LINE
8
BLACK
6
CONTINUOUS
10
0.420275
20
0.57802
11
0.42802
21
0.570275
0
LINE
8
BLACK
6
CONTINUOUS
10
0.42802
20
0.570275
11
0.434584
21
0.561506
0
LINE
8
BLACK
6
CONTINUOUS
10
0.434584
20
0.561506
11
0.439834
21
0.551892
0
LINE
8
BLACK
6
CONTINUOUS
10
0.439834
20
0.551892
11
0.443662
21
0.541629
0
LINE
8
BLACK
6
CONTINUOUS
10
0.443662
20
0.541629
11
0.44599
21
0.530926
0
LINE
8
BLACK
6
CONTINUOUS
10
0.44599
20
0.530926
11
0.446772
21
0.52
0
LINE
8
BLACK
6
CONTINUOUS
10
0.446772
20
0.52
11
0.44599
21
0.509074
0
LINE
8
BLACK
6
CONTINUOUS
10
0.44599
20
0.509074
11
0.443662
21
0.498371
0
LINE
8
BLACK
6
CONTINUOUS
10
0.443662
20
0.498371
11
0.439834
21
0.488108
0
LINE
8
BLACK
6
CONTINUOUS
10
0.439834
20
0.488108
11
0.434584
21
0.478494
0
LINE
8
BLACK
6
CONTINUOUS
10
0.434584
20
0.478494
11
0.42802
21
0.469725
0
LINE
8
BLACK
6
CONTINUOUS
10
0.42802
20
0.469725
11
0.420275
21
0.46198
0
LINE
8
BLACK
6
CONTINUOUS
10
0.420275
20
0.46198
11
0.411506
21
0.455416
0
LINE
8
BLACK
6
CONTINUOUS
10
0.411506
20
0.455416
11
0.401892
21
0.450166
0
LINE
8
BLACK
6
CONTINUOUS
10
0.401892
20
0.450166
11
0.391629
21
0.446338
0
LINE
8
BLACK
6
CONTINUOUS
10
0.391629
20
0.446338
11
0.380926
21
0.44401
0
LINE
8
BLACK
6
CONTINUOUS
10
0.380926
20
0.44401
11
0.37
21
0.443228
0
LINE
8
BLACK
6
CONTINUOUS
10
0.37
20
0.443228
11
0.359074
21
0.44401
0
LINE
8
BLACK
6
CONTINUOUS
10
0.359074
20
0.44401
11
0.348371
21
0.446338
0
LINE
8
BLACK
6
CONTINUOUS
10
0.348371
20
0.446338
11
0.338108
21
0.450166
0
LINE
8
BLACK
6
CONTINUOUS
10
0.338108
20
0.450166
11
0.328494
21
0.455416
0
LINE
8
BLACK
6
CONTINUOUS
10
0.328494
20
0.455416
11
0.319725
21
0.46198
0
LINE
8
BLACK
6
CONTINUOUS
10
0.319725
20
0.46198
11
0.31198
21
0.469725
0
LINE
8
BLACK
6
CONTINUOUS
10
0.31198
20
0.469725
11
0.305416
21
0.478494
0
LINE
8
BLACK
6
CONTINUOUS
10
0.305416
20
0.478494
11
0.300166
21
0.488108
0
LINE
8
BLACK
6
CONTINUOUS
10
0.300166
20
0.488108
11
0.296338
21
0.498371
0
LINE
8
BLACK
6
CONTINUOUS
10
0.296338
20
0.498371
11
0.29401
21
0.509074
0
LINE
8
BLACK
6
CONTINUOUS
10
0.29401
20
0.509074
11
0.293228
21
0.52
0
LINE
8
BLACK
6
CONTINUOUS
10
0.293228
20
0.52
11
0.29401
21
0.530926
0
LINE
8
BLACK
6
CONTINUOUS
10
0.29401
20
0.530926
11
0.296338
21
0.541629
0
LINE
8
BLACK
6
CONTINUOUS
10
0.296338
20
0.541629
11
0.300166
21
0.551892
0
LINE
8
BLACK
6
CONTINUOUS
10
0.300166
20
0.551892
11
0.305416
21
0.561506
0
LINE
8
BLACK
6
CONTINUOUS
10
0.305416
20
0.561506
11
0.31198
21
0.570275
0
LINE
8
BLACK
6
CONTINUOUS
10
0.31198
20
0.570275
11
0.319725
21
0.57802
0
LINE
8
BLACK
6
CONTINUOUS
10
0.319725
20
0.57802
11
0.328494
21
0.584584
0
LINE
8
BLACK
6
CONTINUOUS
10
0.328494
20
0.584584
11
0.338108
21
0.589834
0
LINE
8
BLACK
6
CONTINUOUS
10
0.338108
20
0.589834
11
0.348371
21
0.593662
0
LINE
8
BLACK
6
CONTINUOUS
10
0.348371
20
0.593662
11
0.359074
21
0.59599
0
LINE
8
BLACK
6
CONTINUOUS
10
0.359074
20
0.59599
11
0.37
21
0.596772
0
LINE
8
BLACK
6
CONTINUOUS
10
0.37
20
0.596772
11
0.380926
21
0.59599
0
LINE
8
BLACK
6
CONTINUOUS
10
0.680926
20
0.59599
11
0.691629
21
0.593662
0
LINE
8
BLACK
6
CONTINUOUS
10
0.691629
20
0.593662
11
0.701892
21
0.589834
0
LINE
8
BLACK
6
CONTINUOUS
10
0.701892
20
0.589834
11
0.711506
21
0.584584
0
LINE
8
BLACK
6
CONTINUOUS
10
0.711506
20
0.584584
11
0.720275
21
0.57802
0
LINE
8
BLACK
6
CONTINUOUS
10
0.720275
20
0.57802
11
0.72802
21
0.570275
0
LINE
8
BLACK
6
CONTINUOUS
10
0.72802
20
0.570275
11
0.734584
21
0.561506
0
LINE
8
BLACK
6
CONTINUOUS
10
0.734584
20
0.561506
11
0.739834
21
0.551892
0
LINE
8
BLACK
6
CONTINUOUS
10
0.739834
20
0.551892
11
0.743662
21
0.541629
0
LINE
8
BLACK
6
CONTINUOUS
10
0.743662
20
0.541629
11
0.74599
21
0.530926
0
LINE
8
BLACK
6
CONTINUOUS
10
0.74599
20
0.530926
11
0.746772
21
0.52
0
LINE
8
BLACK
6
CONTINUOUS
10
0.746772
20
0.52
11
0.74599
21
0.509074
0
LINE
8
BLACK
6
CONTINUOUS
10
0.74599
20
0.509074
11
0.743662
21
0.498371
0
LINE
8
BLACK
6
CONTINUOUS
10
0.743662
20
0.498371
11
0.739834
21
0.488108
0
LINE
8
BLACK
6
CONTINUOUS
10
0.739834
20
0.488108
11
0.734584
21
0.478494
0
LINE
8
BLACK
6
CONTINUOUS
10
0.734584
20
0.478494
11
0.72802
21
0.469725
0
LINE
8
BLACK
6
CONTINUOUS
10
0.72802
20
0.469725
11
0.720275
21
0.46198
0
LINE
8
BLACK
6
CONTINUOUS
10
0.720275
20
0.46198
11
0.711506
21
0.455416
0
LINE
8
BLACK
6
CONTINUOUS
10
0.711506
20
0.455416
11
0.701892
21
0.450166
0
LINE
8
BLACK
6
CONTINUOUS
10
0.701892
20
0.450166
11
0.691629
21
0.446338
0
LINE
8
BLACK
6
CONTINUOUS
10
0.691629
20
0.446338
11
0.680926
21
0.44401
0
LINE
8
BLACK
6
CONTINUOUS
10
0.680926
20
0.44401
11
0.67
21
0.443228
0
LINE
8
BLACK
6
CONTINUOUS
10
0.67
20
0.443228
11
0.659074
21
0.44401
0
LINE
8
BLACK
6
CONTINUOUS
10
0.659074
20
0.44401
11
0.648371
21
0.446338
0
LINE
8
BLACK
6
CONTINUOUS
10
0.648371
20
0.446338
11
0.638108
21
0.450166
0
LINE
8
BLACK
6
CONTINUOUS
10
0.638108
20
0.450166
11
0.628494
21
0.455416
0
LINE
8
BLACK
6
CONTINUOUS
10
0.628494
20
0.455416
11
0.619725
21
0.46198
0
LINE
8
BLACK
6
CONTINUOUS
10
0.619725
20
0.46198
11
0.61198
21
0.469725
0
LINE
8
BLACK
6
CONTINUOUS
10
0.61198
20
0.469725
11
0.605416
21
0.478494
0
LINE
8
BLACK
6
CONTINUOUS
10
0.605416
20
0.478494
11
0.600166
21
0.488108
0
LINE
8
BLACK
6
CONTINUOUS
10
0.600166
20
0.488108
11
0.596338
21
0.498371
0
LINE
8
BLACK
6
CONTINUOUS
10
0.596338
20
0.498371
11
0.59401
21
0.509074
0
LINE
8
BLACK
6
CONTINUOUS
10
0.59401
20
0.509074
11
0.593228
21
0.52
0
LINE
8
BLACK
6
CONTINUOUS
10
0.593228
20
0.52
11
0.59401
21
0.530926
0
LINE
8
BLACK
6
CONTINUOUS
10
0.59401
20
0.530926
11
0.596338
21
0.541629
0
LINE
8
BLACK
6
CONTINUOUS
10
0.596338
20
0.541629
11
0.600166
21
0.551892
0
LINE
8
BLACK
6
CONTINUOUS
10
0.600166
20
0.551892
11
0.605416
21
0.561506
0
LINE
8
BLACK
6
CONTINUOUS
10
0.605416
20
0.561506
11
0.61198
21
0.570275
0
LINE
8
BLACK
6
CONTINUOUS
10
0.61198
20
0.570275
11
0.619725
21
0.57802
0
LINE
8
BLACK
6
CONTINUOUS
10
0.619725
20
0.57802
11
0.628494
21
0.584584
0
LINE
8
BLACK
6
CONTINUOUS
10
0.628494
20
0.584584
11
0.638108
21
0.589834
0
LINE
8
BLACK
6
CONTINUOUS
10
0.638108
20
0.589834
11
0.648371
21
0.593662
0
LINE
8
BLACK
6
CONTINUOUS
10
0.648371
20
0.593662
11
0.659074
21
0.59599
0
LINE
8
BLACK
6
CONTINUOUS
10
0.659074
20
0.59599
11
0.67
21
0.596772
0
LINE
8
BLACK
6
CONTINUOUS
10
0.67
20
0.596772
11
0.680926
21
0.59599
0
LINE
8
BLACK
6
CONTINUOUS
10
0.123013
20
0.617275
11
0.125568
21
0.615568
0
LINE
8
BLACK
6
CONTINUOUS
10
0.125568
20
0.615568
11
0.127275
21
0.613013
0
LINE
8
BLACK
6
CONTINUOUS
10
0.127275
20
0.613013
11
0.127874
21
0.61
0
LINE
8
BLACK
6
CONTINUOUS
10
0.127874
20
0.61
11
0.127874
21
0.55
0
LINE
8
BLACK
6
CONTINUOUS
10
0.127874
20
0.55
11
0.127275
21
0.546987
0
LINE
8
BLACK
6
CONTINUOUS
10
0.127275
20
0.546987
11
0.125568
21
0.544432
0
LINE
8
BLACK
6
CONTINUOUS
10
0.125568
20
0.544432
11
0.123013
21
0.542725
0
LINE
8
BLACK
6
CONTINUOUS
10
0.123013
20
0.542725
11
0.12
21
0.542126
0
LINE
8
BLACK
6
CONTINUOUS
10
0.12
20
0.542126
11
0.06
21
0.542126
0
LINE
8
BLACK
6
CONTINUOUS
10
0.06
20
0.542126
11
0.0569867
21
0.542725
0
LINE
8
BLACK
6
CONTINUOUS
10
0.0569867
20
0.542725
11
0.0544322
21
0.544432
0
LINE
8
BLACK
6
CONTINUOUS
10
0.0544322
20
0.544432
11
0.0527254
21
0.546987
0
LINE
8
BLACK
6
CONTINUOUS
10
0.0527254
20
0.546987
11
0.052126
21
0.55
0
LINE
8
BLACK
6
CONTINUOUS
10
0.052126
20
0.55
11
0.052126
21
0.61
0
LINE
8
BLACK
6
CONTINUOUS
10
0.052126
20
0.61
11
0.0527254
21
0.613013
0
LINE
8
BLACK
6
CONTINUOUS
10
0.0527254
20
0.613013
11
0.0544322
21
0.615568
0
LINE
8
BLACK
6
CONTINUOUS
10
0.0544322
20
0.615568
11
0.0569867
21
0.617275
0
LINE
8
BLACK
6
CONTINUOUS
10
0.0569867
20
0.617275
11
0.06
21
0.617874
0
LINE
8
BLACK
6
CONTINUOUS
10
0.06
20
0.617874
11
0.12
21
0.617874
0
LINE
8
BLACK
6
CONTINUOUS
10
0.12
20
0.617874
11
0.123013
21
0.617275
0
LINE
8
BLACK
6
CONTINUOUS
10
0.223013
20
0.617275
11
0.225568
21
0.615568
0
LINE
8
BLACK
6
CONTINUOUS
10
0.225568
20
0.615568
11
0.227275
21
0.613013
0
LINE
8
BLACK
6
CONTINUOUS
10
0.227275
20
0.613013
11
0.227874
21
0.61
0
LINE
8
BLACK
6
CONTINUOUS
10
0.227874
20
0.61
11
0.227874
21
0.55
0
LINE
8
BLACK
6
CONTINUOUS
10
0.227874
20
0.55
11
0.227275
21
0.546987
0
LINE
8
BLACK
6
CONTINUOUS
10
0.227275
20
0.546987
11
0.225568
21
0.544432
0
LINE
8
BLACK
6
CONTINUOUS
10
0.225568
20
0.544432
11
0.223013
21
0.542725
0
LINE
8
BLACK
6
CONTINUOUS
10
0.223013
20
0.542725
11
0.22
21
0.542126
0
LINE
8
BLACK
6
CONTINUOUS
10
0.22
20
0.542126
11
0.16
21
0.542126
0
LINE
8
BLACK
6
CONTINUOUS
10
0.16
20
0.542126
11
0.156987
21
0.542725
0
LINE
8
BLACK
6
CONTINUOUS
10
0.156987
20
0.542725
11
0.154432
21
0.544432
0
LINE
8
BLACK
6
CONTINUOUS
10
0.154432
20
0.544432
11
0.152725
21
0.546987
0
LINE
8
BLACK
6
CONTINUOUS
10
0.152725
20
0.546987
11
0.152126
21
0.55
0
LINE
8
BLACK
6
CONTINUOUS
10
0.152126
20
0.55
11
0.152126
21
0.61
0
LINE
8
BLACK
6
CONTINUOUS
10
0.152126
20
0.61
11
0.152725
21
0.613013
0
LINE
8
BLACK
6
CONTINUOUS
10
0.152725
20
0.613013
11
0.154432
21
0.615568
0
LINE
8
BLACK
6
CONTINUOUS
10
0.154432
20
0.615568
11
0.156987
21
0.617275
0
LINE
8
BLACK
6
CONTINUOUS
10
0.156987
20
0.617275
11
0.16
21
0.617874
0
LINE
8
BLACK
6
CONTINUOUS
10
0.16
20
0.617874
11
0.22
21
0.617874
0
LINE
8
BLACK
6
CONTINUOUS
10
0.22
20
0.617874
11
0.223013
21
0.617275
0
LINE
8
BLACK
6
CONTINUOUS
10
0.123013
20
0.717275
11
0.125568
21
0.715568
0
LINE
8
BLACK
6
CONTINUOUS
10
0.125568
20
0.715568
11
0.127275
21
0.713013
0
LINE
8
BLACK
6
CONTINUOUS
10
0.127275
20
0.713013
11
0.127874
21
0.71
0
LINE
8
BLACK
6
CONTINUOUS
10
0.127874
20
0.71
11
0.127874
21
0.65
0
LINE
8
BLACK
6
CONTINUOUS
10
0.127874
20
0.65
11
0.127275
21
0.646987
0
LINE
8
BLACK
6
CONTINUOUS
10
0.127275
20
0.646987
11
0.125568
21
0.644432
0
LINE
8
BLACK
6
CONTINUOUS
10
0.125568
20
0.644432
11
0.123013
21
0.642725
0
LINE
8
BLACK
6
CONTINUOUS
10
0.123013
20
0.642725
11
0.12
21
0.642126
0
LINE
8
BLACK
6
CONTINUOUS
10
0.12
20
0.642126
11
0.06
21
0.642126
0
LINE
8
BLACK
6
CONTINUOUS
10
0.06
20
0.642126
11
0.0569867
21
0.642725
0
LINE
8
BLACK
6
CONTINUOUS
10
0.0569867
20
0.642725
11
0.0544322
21
0.644432
0
LINE
8
BLACK
6
CONTINUOUS
10
0.0544322
20
0.644432
11
0.0527254
21
0.646987
0
LINE
8
BLACK
6
CONTINUOUS
10
0.0527254
20
0.646987
11
0.052126
21
0.65
0
LINE
8
BLACK
6
CONTINUOUS
10
0.052126
20
0.65
11
0.052126
21
0.71
0
LINE
8
BLACK
6
CONTINUOUS
10
0.052126
20
0.71
11
0.0527254
21
0.713013
0
LINE
8
BLACK
6
CONTINUOUS
10
0.0527254
20
0.713013
11
0.0544322
21
0.715568
0
LINE
8
BLACK
6
CONTINUOUS
10
0.0544322
20
0.715568
11
0.0569867
21
0.717275
0
LINE
8
BLACK
6
CONTINUOUS
10
0.0569867
20
0.717275
11
0.06
21
0.717874
0
LINE
8
BLACK
6
CONTINUOUS
10
0.06
20
0.717874
11
0.12
21
0.717874
0
LINE
8
BLACK
6
CONTINUOUS
10
0.12
20
0.717874
11
0.123013
21
0.717275
0
LINE
8
BLACK
6
CONTINUOUS
10
0.223013
20
0.717275
11
0.225568
21
0.715568
0
LINE
8
BLACK
6
CONTINUOUS
10
0.225568
20
0.715568
11
0.227275
21
0.713013
0
LINE
8
BLACK
6
CONTINUOUS
10
0.227275
20
0.713013
11
0.227874
21
0.71
0
LINE
8
BLACK
6
CONTINUOUS
10
0.227874
20
0.71
11
0.227874
21
0.65
0
LINE
8
BLACK
6
CONTINUOUS
10
0.227874
20
0.65
11
0.227275
21
0.646987
0
LINE
8
BLACK
6
CONTINUOUS
10
0.227275
20
0.646987
11
0.225568
21
0.644432
0
LINE
8
BLACK
6
CONTINUOUS
10
0.225568
20
0.644432
11
0.223013
21
0.642725
0
LINE
8
BLACK
6
CONTINUOUS
10
0.223013
20
0.642725
11
0.22
21
0.642126
0
LINE
8
BLACK
6
CONTINUOUS
10
0.22
20
0.642126
11
0.16
21
0.642126
0
LINE
8
BLACK
6
CONTINUOUS
10
0.16
20
0.642126
11
0.156987
21
0.642725
0
LINE
8
BLACK
6
CONTINUOUS
10
0.156987
20
0.642725
11
0.154432
21
0.644432
0
LINE
8
BLACK
6
CONTINUOUS
10
0.154432
20
0.644432
11
0.152725
21
0.646987
0
LINE
8
BLACK
6
CONTINUOUS
10
0.152725
20
0.646987
11
0.152126
21
0.65
0
LINE
8
BLACK
6
CONTINUOUS
10
0.152126
20
0.65
11
0.152126
21
0.71
0
LINE
8
BLACK
6
CONTINUOUS
10
0.152126
20
0.71
11
0.152725
21
0.713013
0
LINE
8
BLACK
6
CONTINUOUS
10
0.152725
20
0.713013
11
0.154432
21
0.715568
0
LINE
8
BLACK
6
CONTINUOUS
10
0.154432
20
0.715568
11
0.156987
21
0.717275
0
LINE
8
BLACK
6
CONTINUOUS
10
0.156987
20
0.717275
11
0.16
21
0.717874
0
LINE
8
BLACK
6
CONTINUOUS
10
0.16
20
0.717874
11
0.22
21
0.717874
0
LINE
8
BLACK
6
CONTINUOUS
10
0.22
20
0.717874
11
0.223013
21
0.717275
0
LINE
8
BLACK
6
CONTINUOUS
10
0.123013
20
0.877275
11
0.125568
21
0.875568
0
LINE
8
BLACK
6
CONTINUOUS
10
0.125568
20
0.875568
11
0.127275
21
0.873013
0
LINE
8
BLACK
6
CONTINUOUS
10
0.127275
20
0.873013
11
0.127874
21
0.87
0
LINE
8
BLACK
6
CONTINUOUS
10
0.127874
20
0.87
11
0.127874
21
0.81
0
LINE
8
BLACK
6
CONTINUOUS
10
0.127874
20
0.81
11
0.127275
21
0.806987
0
LINE
8
BLACK
6
CONTINUOUS
10
0.127275
20
0.806987
11
0.125568
21
0.804432
0
LINE
8
BLACK
6
CONTINUOUS
10
0.125568
20
0.804432
11
0.123013
21
0.802725
0
LINE
8
BLACK
6
CONTINUOUS
10
0.123013
20
0.802725
11
0.12
21
0.802126
0
LINE
8
BLACK
6
CONTINUOUS
10
0.12
20
0.802126
11
0.06
21
0.802126
0
LINE
8
BLACK
6
CONTINUOUS
10
0.06
20
0.802126
11
0.0569867
21
0.802725
0
LINE
8
BLACK
6
CONTINUOUS
10
0.0569867
20
0.802725
11
0.0544322
21
0.804432
0
LINE
8
BLACK
6
CONTINUOUS
10
0.0544322
20
0.804432
11
0.0527254
21
0.806987
0
LINE
8
BLACK
6
CONTINUOUS
10
0.0527254
20
0.806987
11
0.052126
21
0.81
0
LINE
8
BLACK
6
CONTINUOUS
10
0.052126
20
0.81
11
0.052126
21
0.87
0
LINE
8
BLACK
6
CONTINUOUS
10
0.052126
20
0.87
11
0.0527254
21
0.873013
0
LINE
8
BLACK
6
CONTINUOUS
10
0.0527254
20
0.873013
11
0.0544322
21
0.875568
0
LINE
8
BLACK
6
CONTINUOUS
10
0.0544322
20
0.875568
11
0.0569867
21
0.877275
0
LINE
8
BLACK
6
CONTINUOUS
10
0.0569867
20
0.877275
11
0.06
21
0.877874
0
LINE
8
BLACK
6
CONTINUOUS
10
0.06
20
0.877874
11
0.12
21
0.877874
0
LINE
8
BLACK
6
CONTINUOUS
10
0.12
20
0.877874
11
0.123013
21
0.877275
0
LINE
8
BLACK
6
CONTINUOUS
10
0.223013
20
0.877275
11
0.225568
21
0.875568
0
LINE
8
BLACK
6
CONTINUOUS
10
0.225568
20
0.875568
11
0.227275
21
0.873013
0
LINE
8
BLACK
6
CONTINUOUS
10
0.227275
20
0.873013
11
0.227874
21
0.87
0
LINE
8
BLACK
6
CONTINUOUS
10
0.227874
20
0.87
11
0.227874
21
0.81
0
LINE
8
BLACK
6
CONTINUOUS
10
0.227874
20
0.81
11
0.227275
21
0.806987
0
LINE
8
BLACK
6
CONTINUOUS
10
0.227275
20
0.806987
11
0.225568
21
0.804432
0
LINE
8
BLACK
6
CONTINUOUS
10
0.225568
20
0.804432
11
0.223013
21
0.802725
0
LINE
8
BLACK
6
CONTINUOUS
10
0.223013
20
0.802725
11
0.22
21
0.802126
0
LINE
8
BLACK
6
CONTINUOUS
10
0.22
20
0.802126
11
0.16
21
0.802126
0
LINE
8
BLACK
6
CONTINUOUS
10
0.16
20
0.802126
11
0.156987
21
0.802725
0
LINE
8
BLACK
6
CONTINUOUS
10
0.156987
20
0.802725
11
0.154432
21
0.804432
0
LINE
8
BLACK
6
CONTINUOUS
10
0.154432
20
0.804432
11
0.152725
21
0.806987
0
LINE
8
BLACK
6
CONTINUOUS
10
0.152725
20
0.806987
11
0.152126
21
0.81
0
LINE
8
BLACK
6
CONTINUOUS
10
0.152126
20
0.81
11
0.152126
21
0.87
0
LINE
8
BLACK
6
CONTINUOUS
10
0.152126
20
0.87
11
0.152725
21
0.873013
0
LINE
8
BLACK
6
CONTINUOUS
10
0.152725
20
0.873013
11
0.154432
21
0.875568
0
LINE
8
BLACK
6
CONTINUOUS
10
0.154432
20
0.875568
11
0.156987
21
0.877275
0
LINE
8
BLACK
6
CONTINUOUS
10
0.156987
20
0.877275
11
0.16
21
0.877874
0
LINE
8
BLACK
6
CONTINUOUS
10
0.16
20
0.877874
11
0.22
21
0.877874
0
LINE
8
BLACK
6
CONTINUOUS
10
0.22
20
0.877874
11
0.223013
21
0.877275
0
LINE
8
BLACK
6
CONTINUOUS
10
0.123013
20
0.977275
11
0.125568
21
0.975568
0
LINE
8
BLACK
6
CONTINUOUS
10
0.125568
20
0.975568
11
0.127275
21
0.973013
0
LINE
8
BLACK
6
CONTINUOUS
10
0.127275
20
0.973013
11
0.127874
21
0.97
0
LINE
8
BLACK
6
CONTINUOUS
10
0.127874
20
0.97
11
0.127874
21
0.91
0
LINE
8
BLACK
6
CONTINUOUS
10
0.127874
20
0.91
11
0.127275
21
0.906987
0
LINE
8
BLACK
6
CONTINUOUS
10
0.127275
20
0.906987
11
0.125568
21
0.904432
0
LINE
8
BLACK
6
CONTINUOUS
10
0.125568
20
0.904432
11
0.123013
21
0.902725
0
LINE
8
BLACK
6
CONTINUOUS
10
0.123013
20
0.902725
11
0.12
21
0.902126
0
LINE
8
BLACK
6
CONTINUOUS
10
0.12
20
0.902126
11
0.06
21
0.902126
0
LINE
8
BLACK
6
CONTINUOUS
10
0.06
20
0.902126
11
0.0569867
21
0.902725
0
LINE
8
BLACK
6
CONTINUOUS
10
0.0569867
20
0.902725
11
0.0544322
21
0.904432
0
LINE
8
BLACK
6
CONTINUOUS
10
0.0544322
20
0.904432
11
0.0527254
21
0.906987
0
LINE
8
BLACK
6
CONTINUOUS
10
0.0527254
20
0.906987
11
0.052126
21
0.91
0
LINE
8
BLACK
6
CONTINUOUS
10
0.052126
20
0.91
11
0.052126
21
0.97
0
LINE
8
BLACK
6
CONTINUOUS
10
0.052126
20
0.97
11
0.0527254
21
0.973013
0
LINE
8
BLACK
6
CONTINUOUS
10
0.0527254
20
0.973013
11
0.0544322
21
0.975568
0
LINE
8
BLACK
6
CONTINUOUS
10
0.0544322
20
0.975568
11
0.0569867
21
0.977275
0
LINE
8
BLACK
6
CONTINUOUS
10
0.0569867
20
0.977275
11
0.06
21
0.977874
0
LINE
8
BLACK
6
CONTINUOUS
10
0.06
20
0.977874
11
0.12
21
0.977874
0
LINE
8
BLACK
6
CONTINUOUS
10
0.12
20
0.977874
11
0.123013
21
0.977275
0
LINE
8
BLACK
6
CONTINUOUS
10
0.223013
20
0.977275
11
0.225568
21
0.975568
0
LINE
8
BLACK
6
CONTINUOUS
10
0.225568
20
0.975568
11
0.227275
21
0.973013
0
LINE
8
BLACK
6
CONTINUOUS
10
0.227275
20
0.973013
11
0.227874
21
0.97
0
LINE
8
BLACK
6
CONTINUOUS
10
0.227874
20
0.97
11
0.227874
21
0.91
0
LINE
8
BLACK
6
CONTINUOUS
10
0.227874
20
0.91
11
0.227275
21
0.906987
0
LINE
8
BLACK
6
CONTINUOUS
10
0.227275
20
0.906987
11
0.225568
21
0.904432
0
LINE
8
BLACK
6
CONTINUOUS
10
0.225568
20
0.904432
11
0.223013
21
0.902725
0
LINE
8
BLACK
6
CONTINUOUS
10
0.223013
20
0.902725
11
0.22
21
0.902126
0
LINE
8
BLACK
6
CONTINUOUS
10
0.22
20
0.902126
11
0.16
21
0.902126
0
LINE
8
BLACK
6
CONTINUOUS
10
0.16
20
0.902126
11
0.156987
21
0.902725
0
LINE
8
BLACK
6
CONTINUOUS
10
0.156987
20
0.902725
11
0.154432
21
0.904432
0
LINE
8
BLACK
6
CONTINUOUS
10
0.154432
20
0.904432
11
0.152725
21
0.906987
0
LINE
8
BLACK
6
CONTINUOUS
10
0.152725
20
0.906987
11
0.152126
21
0.91
0
LINE
8
BLACK
6
CONTINUOUS
10
0.152126
20
0.91
11
0.152126
21
0.97
0
LINE
8
BLACK
6
CONTINUOUS
10
0.152126
20
0.97
11
0.152725
21
0.973013
0
LINE
8
BLACK
6
CONTINUOUS
10
0.152725
20
0.973013
11
0.154432
21
0.975568
0
LINE
8
BLACK
6
CONTINUOUS
10
0.154432
20
0.975568
11
0.156987
21
0.977275
0
LINE
8
BLACK
6
CONTINUOUS
10
0.156987
20
0.977275
11
0.16
21
0.977874
0
LINE
8
BLACK
6
CONTINUOUS
10
0.16
20
0.977874
11
0.22
21
0.977874
0
LINE
8
BLACK
6
CONTINUOUS
10
0.22
20
0.977874
11
0.223013
21
0.977275
0
LINE
8
BLACK
6
CONTINUOUS
10
0.123013
20
1.07727
11
0.125568
21
1.07557
0
LINE
8
BLACK
6
CONTINUOUS
10
0.125568
20
1.07557
11
0.127275
21
1.07301
0
LINE
8
BLACK
6
CONTINUOUS
10
0.127275
20
1.07301
11
0.127874
21
1.07
0
LINE
8
BLACK
6
CONTINUOUS
10
0.127874
20
1.07
11
0.127874
21
1.01
0
LINE
8
BLACK
6
CONTINUOUS
10
0.127874
20
1.01
11
0.127275
21
1.00699
0
LINE
8
BLACK
6
CONTINUOUS
10
0.127275
20
1.00699
11
0.125568
21
1.00443
0
LINE
8
BLACK
6
CONTINUOUS
10
0.125568
20
1.00443
11
0.123013
21
1.00273
0
LINE
8
BLACK
6
CONTINUOUS
10
0.123013
20
1.00273
11
0.12
21
1.00213
0
LINE
8
BLACK
6
CONTINUOUS
10
0.12
20
1.00213
11
0.06
21
1.00213
0
LINE
8
BLACK
6
CONTINUOUS
10
0.06
20
1.00213
11
0.0569867
21
1.00273
0
LINE
8
BLACK
6
CONTINUOUS
10
0.0569867
20
1.00273
11
0.0544322
21
1.00443
0
LINE
8
BLACK
6
CONTINUOUS
10
0.0544322
20
1.00443
11
0.0527254
21
1.00699
0
LINE
8
BLACK
6
CONTINUOUS
10
0.0527254
20
1.00699
11
0.052126
21
1.01
0
LINE
8
BLACK
6
CONTINUOUS
10
0.052126
20
1.01
11
0.052126
21
1.07
0
LINE
8
BLACK
6
CONTINUOUS
10
0.052126
20
1.07
11
0.0527254
21
1.07301
0
LINE
8
BLACK
6
CONTINUOUS
10
0.0527254
20
1.07301
11
0.0544322
21
1.07557
0
LINE
8
BLACK
6
CONTINUOUS
10
0.0544322
20
1.07557
11
0.0569867
21
1.07727
0
LINE
8
BLACK
6
CONTINUOUS
10
0.0569867
20
1.07727
11
0.06
21
1.07787
0
LINE
8
BLACK
6
CONTINUOUS
10
0.06
20
1.07787
11
0.12
21
1.07787
0
LINE
8
BLACK
6
CONTINUOUS
10
0.12
20
1.07787
11
0.123013
21
1.07727
0
LINE
8
BLACK
6
CONTINUOUS
10
0.223013
20
1.07727
11
0.225568
21
1.07557
0
LINE
8
BLACK
6
CONTINUOUS
10
0.225568
20
1.07557
11
0.227275
21
1.07301
0
LINE
8
BLACK
6
CONTINUOUS
10
0.227275
20
1.07301
11
0.227874
21
1.07
0
LINE
8
BLACK
6
CONTINUOUS
10
0.227874
20
1.07
11
0.227874
21
1.01
0
LINE
8
BLACK
6
CONTINUOUS
10
0.227874
20
1.01
11
0.227275
21
1.00699
0
LINE
8
BLACK
6
CONTINUOUS
10
0.227275
20
1.00699
11
0.225568
21
1.00443
0
LINE
8
BLACK
6
CONTINUOUS
10
0.225568
20
1.00443
11
0.223013
21
1.00273
0
LINE
8
BLACK
6
CONTINUOUS
10
0.223013
20
1.00273
11
0.22
21
1.00213
0
LINE
8
BLACK
6
CONTINUOUS
10
0.22
20
1.00213
11
0.16
21
1.00213
0
LINE
8
BLACK
6
CONTINUOUS
10
0.16
20
1.00213
11
0.156987
21
1.00273
0
LINE
8
BLACK
6
CONTINUOUS
10
0.156987
20
1.00273
11
0.154432
21
1.00443
0
LINE
8
BLACK
6
CONTINUOUS
10
0.154432
20
1.00443
11
0.152725
21
1.00699
0
LINE
8
BLACK
6
CONTINUOUS
10
0.152725
20
1.00699
11
0.152126
21
1.01
0
LINE
8
BLACK
6
CONTINUOUS
10
0.152126
20
1.01
11
0.152126
21
1.07
0
LINE
8
BLACK
6
CONTINUOUS
10
0.152126
20
1.07
11
0.152725
21
1.07301
0
LINE
8
BLACK
6
CONTINUOUS
10
0.152725
20
1.07301
11
0.154432
21
1.07557
0
LINE
8
BLACK
6
CONTINUOUS
10
0.154432
20
1.07557
11
0.156987
21
1.07727
0
LINE
8
BLACK
6
CONTINUOUS
10
0.156987
20
1.07727
11
0.16
21
1.07787
0
LINE
8
BLACK
6
CONTINUOUS
10
0.16
20
1.07787
11
0.22
21
1.07787
0
LINE
8
BLACK
6
CONTINUOUS
10
0.22
20
1.07787
11
0.223013
21
1.07727
0
LINE
8
BLACK
6
CONTINUOUS
10
0.380926
20
1.19599
11
0.391629
21
1.19366
0
LINE
8
BLACK
6
CONTINUOUS
10
0.391629
20
1.19366
11
0.401892
21
1.18983
0
LINE
8
BLACK
6
CONTINUOUS
10
0.401892
20
1.18983
11
0.411506
21
1.18458
0
LINE
8
BLACK
6
CONTINUOUS
10
0.411506
20
1.18458
11
0.420275
21
1.17802
0
LINE
8
BLACK
6
CONTINUOUS
10
0.420275
20
1.17802
11
0.42802
21
1.17027
0
LINE
8
BLACK
6
CONTINUOUS
10
0.42802
20
1.17027
11
0.434584
21
1.16151
0
LINE
8
BLACK
6
CONTINUOUS
10
0.434584
20
1.16151
11
0.439834
21
1.15189
0
LINE
8
BLACK
6
CONTINUOUS
10
0.439834
20
1.15189
11
0.443662
21
1.14163
0
LINE
8
BLACK
6
CONTINUOUS
10
0.443662
20
1.14163
11
0.44599
21
1.13093
0
LINE
8
BLACK
6
CONTINUOUS
10
0.44599
20
1.13093
11
0.446772
21
1.12
0
LINE
8
BLACK
6
CONTINUOUS
10
0.446772
20
1.12
11
0.44599
21
1.10907
0
LINE
8
BLACK
6
CONTINUOUS
10
0.44599
20
1.10907
11
0.443662
21
1.09837
0
LINE
8
BLACK
6
CONTINUOUS
10
0.443662
20
1.09837
11
0.439834
21
1.08811
0
LINE
8
BLACK
6
CONTINUOUS
10
0.439834
20
1.08811
11
0.434584
21
1.07849
0
LINE
8
BLACK
6
CONTINUOUS
10
0.434584
20
1.07849
11
0.42802
21
1.06973
0
LINE
8
BLACK
6
CONTINUOUS
10
0.42802
20
1.06973
11
0.420275
21
1.06198
0
LINE
8
BLACK
6
CONTINUOUS
10
0.420275
20
1.06198
11
0.411506
21
1.05542
0
LINE
8
BLACK
6
CONTINUOUS
10
0.411506
20
1.05542
11
0.401892
21
1.05017
0
LINE
8
BLACK
6
CONTINUOUS
10
0.401892
20
1.05017
11
0.391629
21
1.04634
0
LINE
8
BLACK
6
CONTINUOUS
10
0.391629
20
1.04634
11
0.380926
21
1.04401
0
LINE
8
BLACK
6
CONTINUOUS
10
0.380926
20
1.04401
11
0.37
21
1.04323
0
LINE
8
BLACK
6
CONTINUOUS
10
0.37
20
1.04323
11
0.359074
21
1.04401
0
LINE
8
BLACK
6
CONTINUOUS
10
0.359074
20
1.04401
11
0.348371
21
1.04634
0
LINE
8
BLACK
6
CONTINUOUS
10
0.348371
20
1.04634
11
0.338108
21
1.05017
0
LINE
8
BLACK
6
CONTINUOUS
10
0.338108
20
1.05017
11
0.328494
21
1.05542
0
LINE
8
BLACK
6
CONTINUOUS
10
0.328494
20
1.05542
11
0.319725
21
1.06198
0
LINE
8
BLACK
6
CONTINUOUS
10
0.319725
20
1.06198
11
0.31198
21
1.06973
0
LINE
8
BLACK
6
CONTINUOUS
10
0.31198
20
1.06973
11
0.305416
21
1.07849
0
LINE
8
BLACK
6
CONTINUOUS
10
0.305416
20
1.07849
11
0.300166
21
1.08811
0
LINE
8
BLACK
6
CONTINUOUS
10
0.300166
20
1.08811
11
0.296338
21
1.09837
0
LINE
8
BLACK
6
CONTINUOUS
10
0.296338
20
1.09837
11
0.29401
21
1.10907
0
LINE
8
BLACK
6
CONTINUOUS
10
0.29401
20
1.10907
11
0.293228
21
1.12
0
LINE
8
BLACK
6
CONTINUOUS
10
0.293228
20
1.12
11
0.29401
21
1.13093
0
LINE
8
BLACK
6
CONTINUOUS
10
0.29401
20
1.13093
11
0.296338
21
1.14163
0
LINE
8
BLACK
6
CONTINUOUS
10
0.296338
20
1.14163
11
0.300166
21
1.15189
0
LINE
8
BLACK
6
CONTINUOUS
10
0.300166
20
1.15189
11
0.305416
21
1.16151
0
LINE
8
BLACK
6
CONTINUOUS
10
0.305416
20
1.16151
11
0.31198
21
1.17027
0
LINE
8
BLACK
6
CONTINUOUS
10
0.31198
20
1.17027
11
0.319725
21
1.17802
0
LINE
8
BLACK
6
CONTINUOUS
10
0.319725
20
1.17802
11
0.328494
21
1.18458
0
LINE
8
BLACK
6
CONTINUOUS
10
0.328494
20
1.18458
11
0.338108
21
1.18983
0
LINE
8
BLACK
6
CONTINUOUS
10
0.338108
20
1.18983
11
0.348371
21
1.19366
0
LINE
8
BLACK
6
CONTINUOUS
10
0.348371
20
1.19366
11
0.359074
21
1.19599
0
LINE
8
BLACK
6
CONTINUOUS
10
0.359074
20
1.19599
11
0.37
21
1.19677
0
LINE
8
BLACK
6
CONTINUOUS
10
0.37
20
1.19677
11
0.380926
21
1.19599
0
LINE
8
BLACK
6
CONTINUOUS
10
0.680926
20
1.19599
11
0.691629
21
1.19366
0
LINE
8
BLACK
6
CONTINUOUS
10
0.691629
20
1.19366
11
0.701892
21
1.18983
0
LINE
8
BLACK
6
CONTINUOUS
10
0.701892
20
1.18983
11
0.711506
21
1.18458
0
LINE
8
BLACK
6
CONTINUOUS
10
0.711506
20
1.18458
11
0.720275
21
1.17802
0
LINE
8
BLACK
6
CONTINUOUS
10
0.720275
20
1.17802
11
0.72802
21
1.17027
0
LINE
8
BLACK
6
CONTINUOUS
10
0.72802
20
1.17027
11
0.734584
21
1.16151
0
LINE
8
BLACK
6
CONTINUOUS
10
0.734584
20
1.16151
11
0.739834
21
1.15189
0
LINE
8
BLACK
6
CONTINUOUS
10
0.739834
20
1.15189
11
0.743662
21
1.14163
0
LINE
8
BLACK
6
CONTINUOUS
10
0.743662
20
1.14163
11
0.74599
21
1.13093
0
LINE
8
BLACK
6
CONTINUOUS
10
0.74599
20
1.13093
11
0.746772
21
1.12
0
LINE
8
BLACK
6
CONTINUOUS
10
0.746772
20
1.12
11
0.74599
21
1.10907
0
LINE
8
BLACK
6
CONTINUOUS
10
0.74599
20
1.10907
11
0.743662
21
1.09837
0
LINE
8
BLACK
6
CONTINUOUS
10
0.743662
20
1.09837
11
0.739834
21
1.08811
0
LINE
8
BLACK
6
CONTINUOUS
10
0.739834
20
1.08811
11
0.734584
21
1.07849
0
LINE
8
BLACK
6
CONTINUOUS
10
0.734584
20
1.07849
11
0.72802
21
1.06973
0
LINE
8
BLACK
6
CONTINUOUS
10
0.72802
20
1.06973
11
0.720275
21
1.06198
0
LINE
8
BLACK
6
CONTINUOUS
10
0.720275
20
1.06198
11
0.711506
21
1.05542
0
LINE
8
BLACK
6
CONTINUOUS
10
0.711506
20
1.05542
11
0.701892
21
1.05017
0
LINE
8
BLACK
6
CONTINUOUS
10
0.701892
20
1.05017
11
0.691629
21
1.04634
0
LINE
8
BLACK
6
CONTINUOUS
10
0.691629
20
1.04634
11
0.680926
21
1.04401
0
LINE
8
BLACK
6
CONTINUOUS
10
0.680926
20
1.04401
11
0.67
21
1.04323
0
LINE
8
BLACK
6
CONTINUOUS
10
0.67
20
1.04323
11
0.659074
21
1.04401
0
LINE
8
BLACK
6
CONTINUOUS
10
0.659074
20
1.04401
11
0.648371
21
1.04634
0
LINE
8
BLACK
6
CONTINUOUS
10
0.648371
20
1.04634
11
0.638108
21
1.05017
0
LINE
8
BLACK
6
CONTINUOUS
10
0.638108
20
1.05017
11
0.628494
21
1.05542
0
LINE
8
BLACK
6
CONTINUOUS
10
0.628494
20
1.05542
11
0.619725
21
1.06198
0
LINE
8
BLACK
6
CONTINUOUS
10
0.619725
20
1.06198
11
0.61198
21
1.06973
0
LINE
8
BLACK
6
CONTINUOUS
10
0.61198
20
1.06973
11
0.605416
21
1.07849
0
LINE
8
BLACK
6
CONTINUOUS
10
0.605416
20
1.07849
11
0.600166
21
1.08811
0
LINE
8
BLACK
6
CONTINUOUS
10
0.600166
20
1.08811
11
0.596338
21
1.09837
0
LINE
8
BLACK
6
CONTINUOUS
10
0.596338
20
1.09837
11
0.59401
21
1.10907
0
LINE
8
BLACK
6
CONTINUOUS
10
0.59401
20
1.10907
11
0.593228
21
1.12
0
LINE
8
BLACK
6
CONTINUOUS
10
0.593228
20
1.12
11
0.59401
21
1.13093
0
LINE
8
BLACK
6
CONTINUOUS
10
0.59401
20
1.13093
11
0.596338
21
1.14163
0
LINE
8
BLACK
6
CONTINUOUS
10
0.596338
20
1.14163
11
0.600166
21
1.15189
0
LINE
8
BLACK
6
CONTINUOUS
10
0.600166
20
1.15189
11
0.605416
21
1.16151
0
LINE
8
BLACK
6
CONTINUOUS
10
0.605416
20
1.16151
11
0.61198
21
1.17027
0
LINE
8
BLACK
6
CONTINUOUS
10
0.61198
20
1.17027
11
0.619725
21
1.17802
0
LINE
8
BLACK
6
CONTINUOUS
10
0.619725
20
1.17802
11
0.628494
21
1.18458
0
LINE
8
BLACK
6
CONTINUOUS
10
0.628494
20
1.18458
11
0.638108
21
1.18983
0
LINE
8
BLACK
6
CONTINUOUS
10
0.638108
20
1.18983
11
0.648371
21
1.19366
0
LINE
8
BLACK
6
CONTINUOUS
10
0.648371
20
1.19366
11
0.659074
21
1.19599
0
LINE
8
BLACK
6
CONTINUOUS
10
0.659074
20
1.19599
11
0.67
21
1.19677
0
LINE
8
BLACK
6
CONTINUOUS
10
0.67
20
1.19677
11
0.680926
21
1.19599
0
LINE
8
BLACK
6
CONTINUOUS
10
0.123013
20
1.17727
11
0.125568
21
1.17557
0
LINE
8
BLACK
6
CONTINUOUS
10
0.125568
20
1.17557
11
0.127275
21
1.17301
0
LINE
8
BLACK
6
CONTINUOUS
10
0.127275
20
1.17301
11
0.127874
21
1.17
0
LINE
8
BLACK
6
CONTINUOUS
10
0.127874
20
1.17
11
0.127874
21
1.11
0
LINE
8
BLACK
6
CONTINUOUS
10
0.127874
20
1.11
11
0.127275
21
1.10699
0
LINE
8
BLACK
6
CONTINUOUS
10
0.127275
20
1.10699
11
0.125568
21
1.10443
0
LINE
8
BLACK
6
CONTINUOUS
10
0.125568
20
1.10443
11
0.123013
21
1.10273
0
LINE
8
BLACK
6
CONTINUOUS
10
0.123013
20
1.10273
11
0.12
21
1.10213
0
LINE
8
BLACK
6
CONTINUOUS
10
0.12
20
1.10213
11
0.06
21
1.10213
0
LINE
8
BLACK
6
CONTINUOUS
10
0.06
20
1.10213
11
0.0569867
21
1.10273
0
LINE
8
BLACK
6
CONTINUOUS
10
0.0569867
20
1.10273
11
0.0544322
21
1.10443
0
LINE
8
BLACK
6
CONTINUOUS
10
0.0544322
20
1.10443
11
0.0527254
21
1.10699
0
LINE
8
BLACK
6
CONTINUOUS
10
0.0527254
20
1.10699
11
0.052126
21
1.11
0
LINE
8
BLACK
6
CONTINUOUS
10
0.052126
20
1.11
11
0.052126
21
1.17
0
LINE
8
BLACK
6
CONTINUOUS
10
0.052126
20
1.17
11
0.0527254
21
1.17301
0
LINE
8
BLACK
6
CONTINUOUS
10
0.0527254
20
1.17301
11
0.0544322
21
1.17557
0
LINE
8
BLACK
6
CONTINUOUS
10
0.0544322
20
1.17557
11
0.0569867
21
1.17727
0
LINE
8
BLACK
6
CONTINUOUS
10
0.0569867
20
1.17727
11
0.06
21
1.17787
0
LINE
8
BLACK
6
CONTINUOUS
10
0.06
20
1.17787
11
0.12
21
1.17787
0
LINE
8
BLACK
6
CONTINUOUS
10
0.12
20
1.17787
11
0.123013
21
1.17727
0
LINE
8
BLACK
6
CONTINUOUS
10
0.223013
20
1.17727
11
0.225568
21
1.17557
0
LINE
8
BLACK
6
CONTINUOUS
10
0.225568
20
1.17557
11
0.227275
21
1.17301
0
LINE
8
BLACK
6
CONTINUOUS
10
0.227275
20
1.17301
11
0.227874
21
1.17
0
LINE
8
BLACK
6
CONTINUOUS
10
0.227874
20
1.17
11
0.227874
21
1.11
0
LINE
8
BLACK
6
CONTINUOUS
10
0.227874
20
1.11
11
0.227275
21
1.10699
0
LINE
8
BLACK
6
CONTINUOUS
10
0.227275
20
1.10699
11
0.225568
21
1.10443
0
LINE
8
BLACK
6
CONTINUOUS
10
0.225568
20
1.10443
11
0.223013
21
1.10273
0
LINE
8
BLACK
6
CONTINUOUS
10
0.223013
20
1.10273
11
0.22
21
1.10213
0
LINE
8
BLACK
6
CONTINUOUS
10
0.22
20
1.10213
11
0.16
21
1.10213
0
LINE
8
BLACK
6
CONTINUOUS
10
0.16
20
1.10213
11
0.156987
21
1.10273
0
LINE
8
BLACK
6
CONTINUOUS
10
0.156987
20
1.10273
11
0.154432
21
1.10443
0
LINE
8
BLACK
6
CONTINUOUS
10
0.154432
20
1.10443
11
0.152725
21
1.10699
0
LINE
8
BLACK
6
CONTINUOUS
10
0.152725
20
1.10699
11
0.152126
21
1.11
0
LINE
8
BLACK
6
CONTINUOUS
10
0.152126
20
1.11
11
0.152126
21
1.17
0
LINE
8
BLACK
6
CONTINUOUS
10
0.152126
20
1.17
11
0.152725
21
1.17301
0
LINE
8
BLACK
6
CONTINUOUS
10
0.152725
20
1.17301
11
0.154432
21
1.17557
0
LINE
8
BLACK
6
CONTINUOUS
10
0.154432
20
1.17557
11
0.156987
21
1.17727
0
LINE
8
BLACK
6
CONTINUOUS
10
0.156987
20
1.17727
11
0.16
21
1.17787
0
LINE
8
BLACK
6
CONTINUOUS
10
0.16
20
1.17787
11
0.22
21
1.17787
0
LINE
8
BLACK
6
CONTINUOUS
10
0.22
20
1.17787
11
0.223013
21
1.17727
0
LINE
8
BLACK
6
CONTINUOUS
10
0.214106
20
1.52519
11
0.228034
21
1.52283
0
LINE
8
BLACK
6
CONTINUOUS
10
0.228034
20
1.52283
11
0.24161
21
1.51891
0
LINE
8
BLACK
6
CONTINUOUS
10
0.24161
20
1.51891
11
0.254663
21
1.51351
0
LINE
8
BLACK
6
CONTINUOUS
10
0.254663
20
1.51351
11
0.267028
21
1.50667
0
LINE
8
BLACK
6
CONTINUOUS
10
0.267028
20
1.50667
11
0.27855
21
1.4985
0
LINE
8
BLACK
6
CONTINUOUS
10
0.27855
20
1.4985
11
0.289084
21
1.48908
0
LINE
8
BLACK
6
CONTINUOUS
10
0.289084
20
1.48908
11
0.298498
21
1.47855
0
LINE
8
BLACK
6
CONTINUOUS
10
0.298498
20
1.47855
11
0.306674
21
1.46703
0
LINE
8
BLACK
6
CONTINUOUS
10
0.306674
20
1.46703
11
0.313508
21
1.45466
0
LINE
8
BLACK
6
CONTINUOUS
10
0.313508
20
1.45466
11
0.318914
21
1.44161
0
LINE
8
BLACK
6
CONTINUOUS
10
0.318914
20
1.44161
11
0.322826
21
1.42803
0
LINE
8
BLACK
6
CONTINUOUS
10
0.322826
20
1.42803
11
0.325192
21
1.41411
0
LINE
8
BLACK
6
CONTINUOUS
10
0.325192
20
1.41411
11
0.325984
21
1.4
0
LINE
8
BLACK
6
CONTINUOUS
10
0.325984
20
1.4
11
0.325192
21
1.38589
0
LINE
8
BLACK
6
CONTINUOUS
10
0.325192
20
1.38589
11
0.322826
21
1.37197
0
LINE
8
BLACK
6
CONTINUOUS
10
0.322826
20
1.37197
11
0.318914
21
1.35839
0
LINE
8
BLACK
6
CONTINUOUS
10
0.318914
20
1.35839
11
0.313508
21
1.34534
0
LINE
8
BLACK
6
CONTINUOUS
10
0.313508
20
1.34534
11
0.306674
21
1.33297
0
LINE
8
BLACK
6
CONTINUOUS
10
0.306674
20
1.33297
11
0.298498
21
1.32145
0
LINE
8
BLACK
6
CONTINUOUS
10
0.298498
20
1.32145
11
0.289084
21
1.31092
0
LINE
8
BLACK
6
CONTINUOUS
10
0.289084
20
1.31092
11
0.27855
21
1.3015
0
LINE
8
BLACK
6
CONTINUOUS
10
0.27855
20
1.3015
11
0.267028
21
1.29333
0
LINE
8
BLACK
6
CONTINUOUS
10
0.267028
20
1.29333
11
0.254663
21
1.28649
0
LINE
8
BLACK
6
CONTINUOUS
10
0.254663
20
1.28649
11
0.24161
21
1.28109
0
LINE
8
BLACK
6
CONTINUOUS
10
0.24161
20
1.28109
11
0.228034
21
1.27717
0
LINE
8
BLACK
6
CONTINUOUS
10
0.228034
20
1.27717
11
0.214106
21
1.27481
0
LINE
8
BLACK
6
CONTINUOUS
10
0.214106
20
1.27481
11
0.2
21
1.27402
0
LINE
8
BLACK
6
CONTINUOUS
10
0.2
20
1.27402
11
0.185894
21
1.27481
0
LINE
8
BLACK
6
CONTINUOUS
10
0.185894
20
1.27481
11
0.171966
21
1.27717
0
LINE
8
BLACK
6
CONTINUOUS
10
0.171966
20
1.27717
11
0.15839
21
1.28109
0
LINE
8
BLACK
6
CONTINUOUS
10
0.15839
20
1.28109
11
0.145337
21
1.28649
0
LINE
8
BLACK
6
CONTINUOUS
10
0.145337
20
1.28649
11
0.132972
21
1.29333
0
LINE
8
BLACK
6
CONTINUOUS
10
0.132972
20
1.29333
11
0.12145
21
1.3015
0
LINE
8
BLACK
6
CONTINUOUS
10
0.12145
20
1.3015
11
0.110916
21
1.31092
0
LINE
8
BLACK
6
CONTINUOUS
10
0.110916
20
1.31092
11
0.101502
21
1.32145
0
LINE
8
BLACK
6
CONTINUOUS
10
0.101502
20
1.32145
11
0.0933261
21
1.33297
0
LINE
8
BLACK
6
CONTINUOUS
10
0.0933261
20
1.33297
11
0.0864921
21
1.34534
0
LINE
8
BLACK
6
CONTINUOUS
10
0.0864921
20
1.34534
11
0.0810856
21
1.35839
0
LINE
8
BLACK
6
CONTINUOUS
10
0.0810856
20
1.35839
11
0.0771744
21
1.37197
0
LINE
8
BLACK
6
CONTINUOUS
10
0.0771744
20
1.37197
11
0.0748079
21
1.38589
0
LINE
8
BLACK
6
CONTINUOUS
10
0.0748079
20
1.38589
11
0.0740157
21
1.4
0
LINE
8
BLACK
6
CONTINUOUS
10
0.0740157
20
1.4
11
0.0748079
21
1.41411
0
LINE
8
BLACK
6
CONTINUOUS
10
0.0748079
20
1.41411
11
0.0771744
21
1.42803
0
LINE
8
BLACK
6
CONTINUOUS
10
0.0771744
20
1.42803
11
0.0810856
21
1.44161
0
LINE
8
BLACK
6
CONTINUOUS
10
0.0810856
20
1.44161
11
0.0864921
21
1.45466
0
LINE
8
BLACK
6
CONTINUOUS
10
0.0864921
20
1.45466
11
0.0933261
21
1.46703
0
LINE
8
BLACK
6
CONTINUOUS
10
0.0933261
20
1.46703
11
0.101502
21
1.47855
0
LINE
8
BLACK
6
CONTINUOUS
10
0.101502
20
1.47855
11
0.110916
21
1.48908
0
LINE
8
BLACK
6
CONTINUOUS
10
0.110916
20
1.48908
11
0.12145
21
1.4985
0
LINE
8
BLACK
6
CONTINUOUS
10
0.12145
20
1.4985
11
0.132972
21
1.50667
0
LINE
8
BLACK
6
CONTINUOUS
10
0.132972
20
1.50667
11
0.145337
21
1.51351
0
LINE
8
BLACK
6
CONTINUOUS
10
0.145337
20
1.51351
11
0.15839
21
1.51891
0
LINE
8
BLACK
6
CONTINUOUS
10
0.15839
20
1.51891
11
0.171966
21
1.52283
0
LINE
8
BLACK
6
CONTINUOUS
10
0.171966
20
1.52283
11
0.185894
21
1.52519
0
LINE
8
BLACK
6
CONTINUOUS
10
0.185894
20
1.52519
11
0.2
21
1.52598
0
LINE
8
BLACK
6
CONTINUOUS
10
0.2
20
1.52598
11
0.214106
21
1.52519
0
LINE
8
BLACK
6
CONTINUOUS
10
0.614106
20
1.52519
11
0.628034
21
1.52283
0
LINE
8
BLACK
6
CONTINUOUS
10
0.628034
20
1.52283
11
0.64161
21
1.51891
0
LINE
8
BLACK
6
CONTINUOUS
10
0.64161
20
1.51891
11
0.654663
21
1.51351
0
LINE
8
BLACK
6
CONTINUOUS
10
0.654663
20
1.51351
11
0.667028
21
1.50667
0
LINE
8
BLACK
6
CONTINUOUS
10
0.667028
20
1.50667
11
0.67855
21
1.4985
0
LINE
8
BLACK
6
CONTINUOUS
10
0.67855
20
1.4985
11
0.689084
21
1.48908
0
LINE
8
BLACK
6
CONTINUOUS
10
0.689084
20
1.48908
11
0.698498
21
1.47855
0
LINE
8
BLACK
6
CONTINUOUS
10
0.698498
20
1.47855
11
0.706674
21
1.46703
0
LINE
8
BLACK
6
CONTINUOUS
10
0.706674
20
1.46703
11
0.713508
21
1.45466
0
LINE
8
BLACK
6
CONTINUOUS
10
0.713508
20
1.45466
11
0.718914
21
1.44161
0
LINE
8
BLACK
6
CONTINUOUS
10
0.718914
20
1.44161
11
0.722826
21
1.42803
0
LINE
8
BLACK
6
CONTINUOUS
10
0.722826
20
1.42803
11
0.725192
21
1.41411
0
LINE
8
BLACK
6
CONTINUOUS
10
0.725192
20
1.41411
11
0.725984
21
1.4
0
LINE
8
BLACK
6
CONTINUOUS
10
0.725984
20
1.4
11
0.725192
21
1.38589
0
LINE
8
BLACK
6
CONTINUOUS
10
0.725192
20
1.38589
11
0.722826
21
1.37197
0
LINE
8
BLACK
6
CONTINUOUS
10
0.722826
20
1.37197
11
0.718914
21
1.35839
0
LINE
8
BLACK
6
CONTINUOUS
10
0.718914
20
1.35839
11
0.713508
21
1.34534
0
LINE
8
BLACK
6
CONTINUOUS
10
0.713508
20
1.34534
11
0.706674
21
1.33297
0
LINE
8
BLACK
6
CONTINUOUS
10
0.706674
20
1.33297
11
0.698498
21
1.32145
0
LINE
8
BLACK
6
CONTINUOUS
10
0.698498
20
1.32145
11
0.689084
21
1.31092
0
LINE
8
BLACK
6
CONTINUOUS
10
0.689084
20
1.31092
11
0.67855
21
1.3015
0
LINE
8
BLACK
6
CONTINUOUS
10
0.67855
20
1.3015
11
0.667028
21
1.29333
0
LINE
8
BLACK
6
CONTINUOUS
10
0.667028
20
1.29333
11
0.654663
21
1.28649
0
LINE
8
BLACK
6
CONTINUOUS
10
0.654663
20
1.28649
11
0.64161
21
1.28109
0
LINE
8
BLACK
6
CONTINUOUS
10
0.64161
20
1.28109
11
0.628034
21
1.27717
0
LINE
8
BLACK
6
CONTINUOUS
10
0.628034
20
1.27717
11
0.614106
21
1.27481
0
LINE
8
BLACK
6
CONTINUOUS
10
0.614106
20
1.27481
11
0.6
21
1.27402
0
LINE
8
BLACK
6
CONTINUOUS
10
0.6
20
1.27402
11
0.585894
21
1.27481
0
LINE
8
BLACK
6
CONTINUOUS
10
0.585894
20
1.27481
11
0.571966
21
1.27717
0
LINE
8
BLACK
6
CONTINUOUS
10
0.571966
20
1.27717
11
0.55839
21
1.28109
0
LINE
8
BLACK
6
CONTINUOUS
10
0.55839
20
1.28109
11
0.545337
21
1.28649
0
LINE
8
BLACK
6
CONTINUOUS
10
0.545337
20
1.28649
11
0.532972
21
1.29333
0
LINE
8
BLACK
6
CONTINUOUS
10
0.532972
20
1.29333
11
0.52145
21
1.3015
0
LINE
8
BLACK
6
CONTINUOUS
10
0.52145
20
1.3015
11
0.510916
21
1.31092
0
LINE
8
BLACK
6
CONTINUOUS
10
0.510916
20
1.31092
11
0.501502
21
1.32145
0
LINE
8
BLACK
6
CONTINUOUS
10
0.501502
20
1.32145
11
0.493326
21
1.33297
0
LINE
8
BLACK
6
CONTINUOUS
10
0.493326
20
1.33297
11
0.486492
21
1.34534
0
LINE
8
BLACK
6
CONTINUOUS
10
0.486492
20
1.34534
11
0.481086
21
1.35839
0
LINE
8
BLACK
6
CONTINUOUS
10
0.481086
20
1.35839
11
0.477174
21
1.37197
0
LINE
8
BLACK
6
CONTINUOUS
10
0.477174
20
1.37197
11
0.474808
21
1.38589
0
LINE
8
BLACK
6
CONTINUOUS
10
0.474808
20
1.38589
11
0.474016
21
1.4
0
LINE
8
BLACK
6
CONTINUOUS
10
0.474016
20
1.4
11
0.474808
21
1.41411
0
LINE
8
BLACK
6
CONTINUOUS
10
0.474808
20
1.41411
11
0.477174
21
1.42803
0
LINE
8
BLACK
6
CONTINUOUS
10
0.477174
20
1.42803
11
0.481086
21
1.44161
0
LINE
8
BLACK
6
CONTINUOUS
10
0.481086
20
1.44161
11
0.486492
21
1.45466
0
LINE
8
BLACK
6
CONTINUOUS
10
0.486492
20
1.45466
11
0.493326
21
1.46703
0
LINE
8
BLACK
6
CONTINUOUS
10
0.493326
20
1.46703
11
0.501502
21
1.47855
0
LINE
8
BLACK
6
CONTINUOUS
10
0.501502
20
1.47855
11
0.510916
21
1.48908
0
LINE
8
BLACK
6
CONTINUOUS
10
0.510916
20
1.48908
11
0.52145
21
1.4985
0
LINE
8
BLACK
6
CONTINUOUS
10
0.52145
20
1.4985
11
0.532972
21
1.50667
0
LINE
8
BLACK
6
CONTINUOUS
10
0.532972
20
1.50667
11
0.545337
21
1.51351
0
LINE
8
BLACK
6
CONTINUOUS
10
0.545337
20
1.51351
11
0.55839
21
1.51891
0
LINE
8
BLACK
6
CONTINUOUS
10
0.55839
20
1.51891
11
0.571966
21
1.52283
0
LINE
8
BLACK
6
CONTINUOUS
10
0.571966
20
1.52283
11
0.585894
21
1.52519
0
LINE
8
BLACK
6
CONTINUOUS
10
0.585894
20
1.52519
11
0.6
21
1.52598
0
LINE
8
BLACK
6
CONTINUOUS
10
0.6
20
1.52598
11
0.614106
21
1.52519
  0
ENDSEC
  0
EOF
