%TF.GenerationSoftware,KiCad,Pcbnew,7.0.7-7.0.7~ubuntu23.04.1*%
%TF.CreationDate,2023-09-17T08:07:36+00:00*%
%TF.ProjectId,CLKGEN02,434c4b47-454e-4303-922e-6b696361645f,rev?*%
%TF.SameCoordinates,Original*%
%TF.FileFunction,Copper,L2,Bot*%
%TF.FilePolarity,Positive*%
%FSLAX46Y46*%
G04 Gerber Fmt 4.6, Leading zero omitted, Abs format (unit mm)*
G04 Created by KiCad (PCBNEW 7.0.7-7.0.7~ubuntu23.04.1) date 2023-09-17 08:07:36*
%MOMM*%
%LPD*%
G01*
G04 APERTURE LIST*
%TA.AperFunction,ComponentPad*%
%ADD10R,1.524000X1.524000*%
%TD*%
%TA.AperFunction,ComponentPad*%
%ADD11C,6.000000*%
%TD*%
%TA.AperFunction,ComponentPad*%
%ADD12C,3.500000*%
%TD*%
%TA.AperFunction,SMDPad,CuDef*%
%ADD13R,1.397000X0.889000*%
%TD*%
%TA.AperFunction,SMDPad,CuDef*%
%ADD14R,0.889000X1.397000*%
%TD*%
%TA.AperFunction,SMDPad,CuDef*%
%ADD15R,1.699260X1.300480*%
%TD*%
%TA.AperFunction,SMDPad,CuDef*%
%ADD16R,1.700000X1.500000*%
%TD*%
%TA.AperFunction,SMDPad,CuDef*%
%ADD17R,1.800000X2.000000*%
%TD*%
%TA.AperFunction,SMDPad,CuDef*%
%ADD18R,1.600000X1.350000*%
%TD*%
%TA.AperFunction,SMDPad,CuDef*%
%ADD19R,1.400000X1.300000*%
%TD*%
%TA.AperFunction,SMDPad,CuDef*%
%ADD20R,2.400000X1.500000*%
%TD*%
%TA.AperFunction,SMDPad,CuDef*%
%ADD21R,0.900000X0.800000*%
%TD*%
%TA.AperFunction,ViaPad*%
%ADD22C,0.600000*%
%TD*%
%TA.AperFunction,ViaPad*%
%ADD23C,0.800000*%
%TD*%
%TA.AperFunction,Conductor*%
%ADD24C,0.900000*%
%TD*%
%TA.AperFunction,Conductor*%
%ADD25C,0.300000*%
%TD*%
G04 APERTURE END LIST*
D10*
%TO.P,J1,1*%
%TO.N,GND*%
X2286000Y17272000D03*
%TO.P,J1,2*%
X4826000Y17272000D03*
%TO.P,J1,3*%
%TO.N,VCC*%
X2286000Y14732000D03*
%TO.P,J1,4*%
X4826000Y14732000D03*
%TO.P,J1,5*%
%TO.N,GND*%
X2286000Y12192000D03*
%TO.P,J1,6*%
X4826000Y12192000D03*
%TD*%
%TO.P,J3,1*%
%TO.N,GND*%
X2286000Y28956000D03*
%TO.P,J3,2*%
X4826000Y28956000D03*
%TO.P,J3,3*%
%TO.N,/OUT*%
X2286000Y26416000D03*
%TO.P,J3,4*%
X4826000Y26416000D03*
%TO.P,J3,5*%
%TO.N,GND*%
X2286000Y23876000D03*
%TO.P,J3,6*%
X4826000Y23876000D03*
%TD*%
D11*
%TO.P,M1,1*%
%TO.N,GND*%
X5080000Y5080000D03*
%TD*%
%TO.P,M2,1*%
%TO.N,GND*%
X5080000Y35560000D03*
%TD*%
%TO.P,M3,1*%
%TO.N,GND*%
X15240000Y5080000D03*
%TD*%
%TO.P,M4,1*%
%TO.N,GND*%
X15240000Y35560000D03*
%TD*%
D12*
%TO.P,X9,1*%
%TO.N,/EN*%
X17018000Y13208000D03*
%TO.P,X9,2*%
%TO.N,GND*%
X17018000Y28448000D03*
%TO.P,X9,3*%
%TO.N,/OUT*%
X9398000Y28448000D03*
%TO.P,X9,4*%
%TO.N,VCC*%
X9398000Y13208000D03*
%TD*%
D10*
%TO.P,J2,1*%
%TO.N,/EN*%
X2286000Y21336000D03*
%TO.P,J2,2*%
X4826000Y21336000D03*
%TD*%
D13*
%TO.P,C1,1*%
%TO.N,VCC*%
X14224000Y25463500D03*
%TO.P,C1,2*%
%TO.N,GND*%
X14224000Y27368500D03*
%TD*%
D14*
%TO.P,C2,1*%
%TO.N,VCC*%
X16319500Y25400000D03*
%TO.P,C2,2*%
%TO.N,GND*%
X18224500Y25400000D03*
%TD*%
%TO.P,C3,1*%
%TO.N,VCC*%
X11239500Y15748000D03*
%TO.P,C3,2*%
%TO.N,GND*%
X13144500Y15748000D03*
%TD*%
D15*
%TO.P,D1,1*%
%TO.N,VCC*%
X8636000Y16029940D03*
%TO.P,D1,2*%
%TO.N,GND*%
X8636000Y19530060D03*
%TD*%
D13*
%TO.P,R1,1*%
%TO.N,VCC*%
X8128000Y25400000D03*
%TO.P,R1,2*%
%TO.N,/EN*%
X8128000Y23495000D03*
%TD*%
D14*
%TO.P,R2,1*%
%TO.N,/EN*%
X7112000Y21336000D03*
%TO.P,R2,2*%
%TO.N,GND*%
X9017000Y21336000D03*
%TD*%
D16*
%TO.P,X1,1*%
%TO.N,/EN*%
X15494000Y19728000D03*
%TO.P,X1,2*%
%TO.N,GND*%
X12954000Y19728000D03*
%TO.P,X1,3*%
%TO.N,/OUT*%
X12954000Y21928000D03*
%TO.P,X1,4*%
%TO.N,VCC*%
X15494000Y21928000D03*
%TD*%
D17*
%TO.P,X2,1*%
%TO.N,/EN*%
X16764000Y18728000D03*
%TO.P,X2,2*%
%TO.N,GND*%
X11684000Y18728000D03*
%TO.P,X2,3*%
%TO.N,/OUT*%
X11684000Y22928000D03*
%TO.P,X2,4*%
%TO.N,VCC*%
X16764000Y22928000D03*
%TD*%
D18*
%TO.P,X3,1*%
%TO.N,/EN*%
X15674000Y19578000D03*
%TO.P,X3,2*%
%TO.N,GND*%
X12774000Y19578000D03*
%TO.P,X3,3*%
%TO.N,/OUT*%
X12774000Y22078000D03*
%TO.P,X3,4*%
%TO.N,VCC*%
X15674000Y22078000D03*
%TD*%
D19*
%TO.P,X4,1*%
%TO.N,/EN*%
X15524000Y19828000D03*
%TO.P,X4,2*%
%TO.N,GND*%
X12924000Y19828000D03*
%TO.P,X4,3*%
%TO.N,/OUT*%
X12924000Y21828000D03*
%TO.P,X4,4*%
%TO.N,VCC*%
X15524000Y21828000D03*
%TD*%
D18*
%TO.P,X6,1*%
%TO.N,/EN*%
X16224000Y19578000D03*
%TO.P,X6,2*%
%TO.N,GND*%
X12224000Y19578000D03*
%TO.P,X6,3*%
%TO.N,/OUT*%
X12224000Y22078000D03*
%TO.P,X6,4*%
%TO.N,VCC*%
X16224000Y22078000D03*
%TD*%
D20*
%TO.P,X7,1*%
%TO.N,/EN*%
X16764000Y18978000D03*
%TO.P,X7,2*%
%TO.N,GND*%
X11684000Y18978000D03*
%TO.P,X7,3*%
%TO.N,/OUT*%
X11684000Y22678000D03*
%TO.P,X7,4*%
%TO.N,VCC*%
X16764000Y22678000D03*
%TD*%
D21*
%TO.P,X8,1*%
%TO.N,/EN*%
X15049000Y20203000D03*
%TO.P,X8,2*%
%TO.N,GND*%
X13399000Y20203000D03*
%TO.P,X8,3*%
%TO.N,/OUT*%
X13399000Y21453000D03*
%TO.P,X8,4*%
%TO.N,VCC*%
X15049000Y21453000D03*
%TD*%
D22*
%TO.N,VCC*%
X17780000Y20828000D03*
D23*
X17780000Y20828000D03*
X10160000Y24892000D03*
%TO.N,GND*%
X6604000Y24384000D03*
%TO.N,/EN*%
X14732000Y17272000D03*
%TD*%
D24*
%TO.N,VCC*%
X16319500Y25400000D02*
X14287500Y25400000D01*
X16319500Y25400000D02*
X16319500Y23122500D01*
X17780000Y21662000D02*
X16764000Y22678000D01*
X7874000Y14732000D02*
X9398000Y13208000D01*
X2286000Y14732000D02*
X4826000Y14732000D01*
X8128000Y25400000D02*
X9652000Y25400000D01*
X7338060Y14732000D02*
X8636000Y16029940D01*
X14287500Y25400000D02*
X14224000Y25463500D01*
X4826000Y14732000D02*
X7874000Y14732000D01*
X16319500Y23122500D02*
X16764000Y22678000D01*
X4826000Y14732000D02*
X7338060Y14732000D01*
X8636000Y16029940D02*
X8636000Y13970000D01*
X8636000Y16029940D02*
X10957560Y16029940D01*
X17780000Y20828000D02*
X17780000Y21662000D01*
X9652000Y25400000D02*
X10160000Y24892000D01*
X8636000Y13970000D02*
X9398000Y13208000D01*
X10957560Y16029940D02*
X11239500Y15748000D01*
%TO.N,GND*%
X12224000Y19578000D02*
X12224000Y19518000D01*
D25*
X1224000Y28956000D02*
X2286000Y28956000D01*
X1224000Y23876000D02*
X1016000Y23668000D01*
X1016000Y28748000D02*
X1224000Y28956000D01*
X1016000Y19604000D02*
X2286000Y18334000D01*
X2286000Y23876000D02*
X1224000Y23876000D01*
X1224000Y23876000D02*
X1016000Y24084000D01*
X1016000Y24084000D02*
X1016000Y28748000D01*
D24*
X12224000Y19518000D02*
X11684000Y18978000D01*
D25*
X1016000Y23668000D02*
X1016000Y19604000D01*
X2286000Y18334000D02*
X2286000Y17272000D01*
D24*
%TO.N,/EN*%
X7112000Y21336000D02*
X4826000Y21336000D01*
X16764000Y13462000D02*
X17018000Y13208000D01*
X4826000Y21336000D02*
X2286000Y21336000D01*
X16764000Y18978000D02*
X16764000Y13462000D01*
X7112000Y21336000D02*
X7112000Y22479000D01*
X16438000Y18978000D02*
X14732000Y17272000D01*
X7112000Y22479000D02*
X8128000Y23495000D01*
X16764000Y18978000D02*
X16438000Y18978000D01*
%TO.N,/OUT*%
X4826000Y26416000D02*
X2286000Y26416000D01*
X6923127Y28448000D02*
X6604000Y28128873D01*
X6604000Y28128873D02*
X6604000Y26924000D01*
X6604000Y26924000D02*
X6096000Y26416000D01*
X6096000Y26416000D02*
X4826000Y26416000D01*
X9398000Y28448000D02*
X6923127Y28448000D01*
X11684000Y22678000D02*
X11684000Y26162000D01*
X11684000Y26162000D02*
X9398000Y28448000D01*
%TD*%
%TA.AperFunction,Conductor*%
%TO.N,GND*%
G36*
X19932621Y40290498D02*
G01*
X19979114Y40236842D01*
X19990500Y40184500D01*
X19990500Y17697999D01*
X19374535Y451003D01*
X19352114Y383639D01*
X19296833Y339091D01*
X19248615Y329500D01*
X455500Y329500D01*
X387379Y349502D01*
X340886Y403158D01*
X329500Y455500D01*
X329500Y13921350D01*
X1015500Y13921350D01*
X1022009Y13860803D01*
X1022011Y13860795D01*
X1073110Y13723797D01*
X1073112Y13723792D01*
X1160738Y13606738D01*
X1277792Y13519112D01*
X1277797Y13519110D01*
X1414795Y13468011D01*
X1414803Y13468009D01*
X1475350Y13461500D01*
X1475362Y13461500D01*
X3096649Y13461500D01*
X3157196Y13468009D01*
X3157204Y13468011D01*
X3294202Y13519110D01*
X3294207Y13519112D01*
X3411261Y13606739D01*
X3455133Y13665343D01*
X3511969Y13707889D01*
X3582784Y13712953D01*
X3645096Y13678928D01*
X3656867Y13665343D01*
X3700738Y13606739D01*
X3817792Y13519112D01*
X3817797Y13519110D01*
X3954795Y13468011D01*
X3954803Y13468009D01*
X4015350Y13461500D01*
X4015362Y13461500D01*
X5636649Y13461500D01*
X5697196Y13468009D01*
X5697204Y13468011D01*
X5834202Y13519110D01*
X5834207Y13519112D01*
X5951261Y13606738D01*
X6038300Y13723009D01*
X6095136Y13765556D01*
X6139168Y13773500D01*
X7054207Y13773500D01*
X7122328Y13753498D01*
X7168821Y13699842D01*
X7178925Y13629568D01*
X7177786Y13622918D01*
X7154018Y13503435D01*
X7154016Y13503421D01*
X7134654Y13208003D01*
X7134654Y13207996D01*
X7154016Y12912578D01*
X7154018Y12912564D01*
X7211776Y12622204D01*
X7211778Y12622194D01*
X7306938Y12341862D01*
X7306944Y12341848D01*
X7437883Y12076329D01*
X7602359Y11830172D01*
X7602364Y11830165D01*
X7602367Y11830162D01*
X7797573Y11607573D01*
X8020162Y11412367D01*
X8020165Y11412364D01*
X8020172Y11412359D01*
X8266329Y11247883D01*
X8531848Y11116944D01*
X8531862Y11116938D01*
X8812194Y11021778D01*
X8812201Y11021776D01*
X8812203Y11021776D01*
X8860818Y11012105D01*
X9102564Y10964018D01*
X9102578Y10964016D01*
X9397997Y10944654D01*
X9398000Y10944654D01*
X9398003Y10944654D01*
X9693421Y10964016D01*
X9693435Y10964018D01*
X9886566Y11002435D01*
X9983797Y11021776D01*
X9983799Y11021776D01*
X9983805Y11021778D01*
X10264137Y11116938D01*
X10264140Y11116939D01*
X10264145Y11116941D01*
X10283591Y11126531D01*
X10529670Y11247883D01*
X10775827Y11412359D01*
X10775830Y11412361D01*
X10775838Y11412367D01*
X10998427Y11607573D01*
X11193633Y11830162D01*
X11358115Y12076327D01*
X11489059Y12341855D01*
X11584224Y12622203D01*
X11641983Y12912574D01*
X11661346Y13208000D01*
X11641983Y13503426D01*
X11584224Y13793797D01*
X11489059Y14074145D01*
X11358115Y14339673D01*
X11354556Y14344998D01*
X11333342Y14412750D01*
X11352125Y14481217D01*
X11404941Y14528661D01*
X11459322Y14541000D01*
X11732649Y14541000D01*
X11793196Y14547509D01*
X11793204Y14547511D01*
X11930202Y14598610D01*
X11930207Y14598612D01*
X12047261Y14686238D01*
X12134887Y14803292D01*
X12134889Y14803297D01*
X12136803Y14808427D01*
X12185989Y14940299D01*
X12185990Y14940303D01*
X12192499Y15000850D01*
X12192500Y15000867D01*
X12192500Y15600123D01*
X12194764Y15619903D01*
X12194415Y15619948D01*
X12195219Y15626269D01*
X12195222Y15626280D01*
X12200161Y15821158D01*
X12194475Y15852873D01*
X12192499Y15875104D01*
X12192499Y16079523D01*
X12192500Y16495138D01*
X12189256Y16525316D01*
X12185990Y16555696D01*
X12185988Y16555704D01*
X12178960Y16574545D01*
X12134889Y16692704D01*
X12133339Y16694774D01*
X12047261Y16809761D01*
X11930207Y16897387D01*
X11930206Y16897387D01*
X11930204Y16897389D01*
X11793201Y16948489D01*
X11793199Y16948489D01*
X11793196Y16948490D01*
X11732649Y16954999D01*
X11732645Y16954999D01*
X11732638Y16955000D01*
X11732632Y16955000D01*
X11230562Y16955000D01*
X11205212Y16957576D01*
X11188525Y16961005D01*
X11183917Y16962136D01*
X11127531Y16978271D01*
X11094938Y16980753D01*
X11087055Y16981858D01*
X11055030Y16988440D01*
X11055026Y16988440D01*
X10996396Y16988440D01*
X10991614Y16988621D01*
X10933153Y16993074D01*
X10900728Y16988944D01*
X10892771Y16988440D01*
X9953135Y16988440D01*
X9885014Y17008442D01*
X9852265Y17038934D01*
X9848891Y17043441D01*
X9731837Y17131067D01*
X9731836Y17131067D01*
X9731834Y17131069D01*
X9594831Y17182169D01*
X9594829Y17182169D01*
X9594826Y17182170D01*
X9534279Y17188679D01*
X9534275Y17188679D01*
X9534268Y17188680D01*
X7737732Y17188680D01*
X7737725Y17188679D01*
X7737720Y17188679D01*
X7677173Y17182170D01*
X7677165Y17182168D01*
X7599245Y17153104D01*
X7540166Y17131069D01*
X7540164Y17131068D01*
X7540162Y17131067D01*
X7423108Y17043441D01*
X7335482Y16926387D01*
X7335480Y16926382D01*
X7284381Y16789384D01*
X7284379Y16789376D01*
X7277870Y16728829D01*
X7277869Y16728812D01*
X7277869Y16079523D01*
X7257867Y16011402D01*
X7240964Y15990428D01*
X6977941Y15727405D01*
X6915629Y15693379D01*
X6888846Y15690500D01*
X6139168Y15690500D01*
X6071047Y15710502D01*
X6038300Y15740991D01*
X5951261Y15857261D01*
X5834207Y15944887D01*
X5834206Y15944887D01*
X5834204Y15944889D01*
X5716045Y15988960D01*
X5697204Y15995988D01*
X5697203Y15995988D01*
X5697201Y15995989D01*
X5697199Y15995989D01*
X5697196Y15995990D01*
X5636649Y16002499D01*
X5636645Y16002499D01*
X5636638Y16002500D01*
X4015362Y16002500D01*
X4015355Y16002499D01*
X4015350Y16002499D01*
X3954803Y15995990D01*
X3954795Y15995988D01*
X3876875Y15966924D01*
X3817796Y15944889D01*
X3817794Y15944888D01*
X3817792Y15944887D01*
X3700738Y15857261D01*
X3656868Y15798657D01*
X3600032Y15756110D01*
X3529216Y15751046D01*
X3466904Y15785071D01*
X3455132Y15798657D01*
X3411261Y15857261D01*
X3294207Y15944887D01*
X3294206Y15944887D01*
X3294204Y15944889D01*
X3176045Y15988960D01*
X3157204Y15995988D01*
X3157203Y15995988D01*
X3157201Y15995989D01*
X3157199Y15995989D01*
X3157196Y15995990D01*
X3096649Y16002499D01*
X3096645Y16002499D01*
X3096638Y16002500D01*
X1475362Y16002500D01*
X1475355Y16002499D01*
X1475350Y16002499D01*
X1414803Y15995990D01*
X1414795Y15995988D01*
X1336875Y15966924D01*
X1277796Y15944889D01*
X1277794Y15944888D01*
X1277792Y15944887D01*
X1160738Y15857261D01*
X1073112Y15740207D01*
X1073110Y15740202D01*
X1022011Y15603204D01*
X1022009Y15603196D01*
X1015500Y15542649D01*
X1015500Y13921350D01*
X329500Y13921350D01*
X329500Y20525350D01*
X1015500Y20525350D01*
X1022009Y20464803D01*
X1022011Y20464795D01*
X1073110Y20327797D01*
X1073112Y20327792D01*
X1160738Y20210738D01*
X1277792Y20123112D01*
X1277797Y20123110D01*
X1414795Y20072011D01*
X1414803Y20072009D01*
X1475350Y20065500D01*
X1475362Y20065500D01*
X3096649Y20065500D01*
X3157196Y20072009D01*
X3157204Y20072011D01*
X3294202Y20123110D01*
X3294207Y20123112D01*
X3411261Y20210739D01*
X3455133Y20269343D01*
X3511969Y20311889D01*
X3582784Y20316953D01*
X3645096Y20282928D01*
X3656867Y20269343D01*
X3700738Y20210739D01*
X3817792Y20123112D01*
X3817797Y20123110D01*
X3954795Y20072011D01*
X3954803Y20072009D01*
X4015350Y20065500D01*
X4015362Y20065500D01*
X5636649Y20065500D01*
X5697196Y20072009D01*
X5697204Y20072011D01*
X5834202Y20123110D01*
X5834207Y20123112D01*
X5951261Y20210738D01*
X6038300Y20327009D01*
X6095136Y20369556D01*
X6139168Y20377500D01*
X6163868Y20377500D01*
X6231989Y20357498D01*
X6264737Y20327008D01*
X6304239Y20274238D01*
X6421292Y20186612D01*
X6421297Y20186610D01*
X6558295Y20135511D01*
X6558303Y20135509D01*
X6618850Y20129000D01*
X6618862Y20129000D01*
X7605149Y20129000D01*
X7665696Y20135509D01*
X7665704Y20135511D01*
X7802702Y20186610D01*
X7802707Y20186612D01*
X7919761Y20274238D01*
X8007387Y20391292D01*
X8007389Y20391297D01*
X8019946Y20424961D01*
X8034803Y20464795D01*
X8058488Y20528295D01*
X8058490Y20528303D01*
X8064999Y20588850D01*
X8065000Y20588867D01*
X8065000Y21198955D01*
X8067580Y21224323D01*
X8070499Y21238527D01*
X8070500Y21238531D01*
X8070500Y21310126D01*
X8070581Y21313318D01*
X8072231Y21345842D01*
X8074206Y21384798D01*
X8071952Y21399506D01*
X8070500Y21418585D01*
X8070500Y22029786D01*
X8090502Y22097907D01*
X8107405Y22118881D01*
X8493619Y22505095D01*
X8555931Y22539121D01*
X8582714Y22542000D01*
X8875149Y22542000D01*
X8935696Y22548509D01*
X8935704Y22548511D01*
X9072702Y22599610D01*
X9072707Y22599612D01*
X9189761Y22687238D01*
X9277387Y22804292D01*
X9277389Y22804297D01*
X9328488Y22941295D01*
X9328490Y22941303D01*
X9334999Y23001850D01*
X9335000Y23001867D01*
X9335000Y23988132D01*
X9334999Y23988149D01*
X9327740Y24055673D01*
X9340346Y24125541D01*
X9388725Y24177503D01*
X9457516Y24195061D01*
X9524879Y24172640D01*
X9532642Y24166794D01*
X9629828Y24087549D01*
X9802606Y23997298D01*
X9802617Y23997294D01*
X9990025Y23943669D01*
X9990032Y23943668D01*
X9992796Y23943458D01*
X9994227Y23942916D01*
X9996322Y23942541D01*
X9996252Y23942150D01*
X10059201Y23918341D01*
X10101485Y23861310D01*
X10106224Y23790471D01*
X10084096Y23742313D01*
X10033112Y23674207D01*
X10033110Y23674202D01*
X9982011Y23537204D01*
X9982009Y23537196D01*
X9975500Y23476649D01*
X9975500Y21879350D01*
X9982009Y21818803D01*
X9982011Y21818795D01*
X10033110Y21681797D01*
X10033112Y21681792D01*
X10120738Y21564738D01*
X10237792Y21477112D01*
X10237797Y21477110D01*
X10374795Y21426011D01*
X10374803Y21426009D01*
X10435350Y21419500D01*
X10435362Y21419500D01*
X10735362Y21419500D01*
X10795317Y21419500D01*
X10863438Y21399498D01*
X10909931Y21345842D01*
X10920595Y21306966D01*
X10922009Y21293804D01*
X10922011Y21293795D01*
X10973110Y21156797D01*
X10973112Y21156792D01*
X11060738Y21039738D01*
X11177792Y20952112D01*
X11177797Y20952110D01*
X11314795Y20901011D01*
X11314803Y20901009D01*
X11375350Y20894500D01*
X11375362Y20894500D01*
X11617960Y20894500D01*
X11686081Y20874498D01*
X11718829Y20844008D01*
X11740739Y20814738D01*
X11857792Y20727112D01*
X11857797Y20727110D01*
X11994795Y20676011D01*
X11994803Y20676009D01*
X12055350Y20669500D01*
X12055362Y20669500D01*
X12175362Y20669500D01*
X12570838Y20669500D01*
X12638959Y20649498D01*
X12646347Y20644368D01*
X12702792Y20602112D01*
X12702797Y20602110D01*
X12839795Y20551011D01*
X12839803Y20551009D01*
X12900350Y20544500D01*
X12900362Y20544500D01*
X13897632Y20544500D01*
X13897638Y20544500D01*
X13897642Y20544500D01*
X13897654Y20544501D01*
X13951034Y20550239D01*
X14020902Y20537632D01*
X14072863Y20489253D01*
X14090500Y20424961D01*
X14090500Y19754350D01*
X14097009Y19693803D01*
X14097010Y19693799D01*
X14127556Y19611904D01*
X14135500Y19567872D01*
X14135500Y18929350D01*
X14142009Y18868803D01*
X14142011Y18868795D01*
X14193110Y18731797D01*
X14193112Y18731792D01*
X14280738Y18614738D01*
X14397797Y18527109D01*
X14401292Y18525201D01*
X14404106Y18522386D01*
X14405010Y18521710D01*
X14404912Y18521580D01*
X14451492Y18474997D01*
X14466581Y18405622D01*
X14441767Y18339103D01*
X14429998Y18325521D01*
X14019867Y17915391D01*
X13978567Y17864740D01*
X13927552Y17802175D01*
X13837296Y17629390D01*
X13815888Y17554574D01*
X13795065Y17481796D01*
X13783668Y17441966D01*
X13768866Y17247593D01*
X13768866Y17247583D01*
X13793493Y17054223D01*
X13793494Y17054217D01*
X13793495Y17054216D01*
X13818606Y16980751D01*
X13856545Y16869753D01*
X13856545Y16869752D01*
X13955439Y16701758D01*
X14086120Y16557114D01*
X14086123Y16557111D01*
X14243244Y16441734D01*
X14243247Y16441732D01*
X14420385Y16360343D01*
X14610280Y16316277D01*
X14805157Y16311339D01*
X14805158Y16311339D01*
X14805159Y16311339D01*
X14953940Y16338005D01*
X14997039Y16345730D01*
X14997044Y16345731D01*
X15178066Y16418041D01*
X15178071Y16418043D01*
X15340840Y16525316D01*
X15340842Y16525318D01*
X15340845Y16525320D01*
X15590405Y16774880D01*
X15652717Y16808906D01*
X15723532Y16803841D01*
X15780368Y16761294D01*
X15805179Y16694774D01*
X15805500Y16685785D01*
X15805500Y15181456D01*
X15785498Y15113335D01*
X15749503Y15076692D01*
X15640162Y15003633D01*
X15417573Y14808427D01*
X15222367Y14585838D01*
X15222361Y14585830D01*
X15222359Y14585827D01*
X15057883Y14339670D01*
X14926944Y14074151D01*
X14926938Y14074137D01*
X14831778Y13793805D01*
X14831776Y13793799D01*
X14831776Y13793797D01*
X14823760Y13753498D01*
X14774018Y13503435D01*
X14774016Y13503421D01*
X14754654Y13208003D01*
X14754654Y13207996D01*
X14774016Y12912578D01*
X14774018Y12912564D01*
X14831776Y12622204D01*
X14831778Y12622194D01*
X14926938Y12341862D01*
X14926944Y12341848D01*
X15057883Y12076329D01*
X15222359Y11830172D01*
X15222364Y11830165D01*
X15222367Y11830162D01*
X15417573Y11607573D01*
X15640162Y11412367D01*
X15640165Y11412364D01*
X15640172Y11412359D01*
X15886329Y11247883D01*
X16151848Y11116944D01*
X16151862Y11116938D01*
X16432194Y11021778D01*
X16432201Y11021776D01*
X16432203Y11021776D01*
X16480818Y11012105D01*
X16722564Y10964018D01*
X16722578Y10964016D01*
X17017997Y10944654D01*
X17018000Y10944654D01*
X17018003Y10944654D01*
X17313421Y10964016D01*
X17313435Y10964018D01*
X17506566Y11002435D01*
X17603797Y11021776D01*
X17603799Y11021776D01*
X17603805Y11021778D01*
X17884137Y11116938D01*
X17884140Y11116939D01*
X17884145Y11116941D01*
X17903591Y11126531D01*
X18149670Y11247883D01*
X18395827Y11412359D01*
X18395830Y11412361D01*
X18395838Y11412367D01*
X18618427Y11607573D01*
X18813633Y11830162D01*
X18978115Y12076327D01*
X19109059Y12341855D01*
X19204224Y12622203D01*
X19261983Y12912574D01*
X19281346Y13208000D01*
X19261983Y13503426D01*
X19204224Y13793797D01*
X19109059Y14074145D01*
X18978115Y14339673D01*
X18813633Y14585838D01*
X18618427Y14808427D01*
X18395838Y15003633D01*
X18149673Y15168115D01*
X17884145Y15299059D01*
X17807999Y15324906D01*
X17749923Y15365743D01*
X17723144Y15431495D01*
X17722500Y15444220D01*
X17722500Y17119617D01*
X17742502Y17187738D01*
X17796158Y17234231D01*
X17804467Y17237672D01*
X17910202Y17277110D01*
X17910207Y17277112D01*
X18027261Y17364738D01*
X18114887Y17481792D01*
X18114889Y17481797D01*
X18165988Y17618795D01*
X18165990Y17618803D01*
X18172499Y17679350D01*
X18172500Y17679367D01*
X18172500Y17685814D01*
X18192502Y17753935D01*
X18222990Y17786682D01*
X18327262Y17864740D01*
X18414887Y17981792D01*
X18414889Y17981797D01*
X18465988Y18118795D01*
X18465990Y18118803D01*
X18472499Y18179350D01*
X18472500Y18179367D01*
X18472500Y19776632D01*
X18472499Y19776649D01*
X18465990Y19837196D01*
X18465988Y19837204D01*
X18414891Y19974198D01*
X18414889Y19974204D01*
X18414884Y19974210D01*
X18412824Y19977984D01*
X18411906Y19982200D01*
X18411740Y19982647D01*
X18411804Y19982670D01*
X18397730Y20047358D01*
X18422538Y20113879D01*
X18436599Y20129698D01*
X18511020Y20200440D01*
X18518188Y20210738D01*
X18622382Y20360437D01*
X18635625Y20391297D01*
X18699259Y20539581D01*
X18738500Y20730530D01*
X18738500Y21649873D01*
X18740661Y21735157D01*
X18730314Y21792880D01*
X18729652Y21797609D01*
X18723721Y21855940D01*
X18719819Y21868373D01*
X18713937Y21887123D01*
X18712033Y21894880D01*
X18706271Y21927031D01*
X18706270Y21927039D01*
X18684519Y21981490D01*
X18682912Y21986003D01*
X18665364Y22041935D01*
X18665363Y22041939D01*
X18649490Y22070534D01*
X18646085Y22077706D01*
X18633957Y22108071D01*
X18601676Y22157049D01*
X18599219Y22161105D01*
X18570759Y22212384D01*
X18549474Y22237178D01*
X18544666Y22243555D01*
X18526685Y22270839D01*
X18509407Y22288117D01*
X18475380Y22350428D01*
X18472500Y22377214D01*
X18472500Y23476632D01*
X18472499Y23476649D01*
X18465990Y23537196D01*
X18465988Y23537204D01*
X18458960Y23556045D01*
X18414889Y23674204D01*
X18327261Y23791261D01*
X18222991Y23869317D01*
X18180444Y23926153D01*
X18172500Y23970185D01*
X18172500Y23976632D01*
X18172499Y23976649D01*
X18165990Y24037196D01*
X18165988Y24037204D01*
X18147208Y24087553D01*
X18114889Y24174204D01*
X18112419Y24177503D01*
X18027261Y24291261D01*
X17910207Y24378887D01*
X17910206Y24378887D01*
X17910204Y24378889D01*
X17773201Y24429989D01*
X17773199Y24429989D01*
X17773196Y24429990D01*
X17712649Y24436499D01*
X17712645Y24436499D01*
X17712638Y24436500D01*
X17712632Y24436500D01*
X17404000Y24436500D01*
X17335879Y24456502D01*
X17289386Y24510158D01*
X17278000Y24562500D01*
X17278000Y25374126D01*
X17278081Y25377318D01*
X17279627Y25407792D01*
X17281706Y25448798D01*
X17273952Y25499407D01*
X17272500Y25518486D01*
X17272500Y26147132D01*
X17272499Y26147149D01*
X17265990Y26207696D01*
X17265988Y26207704D01*
X17239018Y26280011D01*
X17214889Y26344704D01*
X17206476Y26355942D01*
X17127261Y26461761D01*
X17010207Y26549387D01*
X17010206Y26549387D01*
X17010204Y26549389D01*
X16873201Y26600489D01*
X16873199Y26600489D01*
X16873196Y26600490D01*
X16812649Y26606999D01*
X16812645Y26606999D01*
X16812638Y26607000D01*
X15826362Y26607000D01*
X15826355Y26606999D01*
X15826350Y26606999D01*
X15765803Y26600490D01*
X15765795Y26600488D01*
X15704759Y26577722D01*
X15628796Y26549389D01*
X15628794Y26549388D01*
X15628792Y26549387D01*
X15511842Y26461838D01*
X15511739Y26461761D01*
X15472983Y26409988D01*
X15472237Y26408992D01*
X15415401Y26366445D01*
X15371368Y26358500D01*
X15192481Y26358500D01*
X15148448Y26366444D01*
X15031701Y26409989D01*
X15031696Y26409989D01*
X15031696Y26409990D01*
X14971149Y26416499D01*
X14971145Y26416499D01*
X14971138Y26416500D01*
X14971132Y26416500D01*
X14335055Y26416500D01*
X14330274Y26416681D01*
X14199593Y26426634D01*
X14123984Y26417004D01*
X14116028Y26416500D01*
X13476862Y26416500D01*
X13476855Y26416499D01*
X13476850Y26416499D01*
X13416303Y26409990D01*
X13416295Y26409988D01*
X13338375Y26380924D01*
X13279296Y26358889D01*
X13279294Y26358888D01*
X13279292Y26358887D01*
X13162238Y26271261D01*
X13074612Y26154207D01*
X13074610Y26154202D01*
X13023511Y26017204D01*
X13023509Y26017196D01*
X13017000Y25956649D01*
X13017000Y24970350D01*
X13023509Y24909803D01*
X13023511Y24909795D01*
X13074610Y24772797D01*
X13074612Y24772792D01*
X13162238Y24655738D01*
X13279292Y24568112D01*
X13279297Y24568110D01*
X13416295Y24517011D01*
X13416303Y24517009D01*
X13476850Y24510500D01*
X13476862Y24510500D01*
X13894253Y24510500D01*
X13928920Y24505637D01*
X13961527Y24496305D01*
X13969044Y24493629D01*
X13999074Y24480743D01*
X13999080Y24480741D01*
X14056502Y24468939D01*
X14061150Y24467799D01*
X14117523Y24451669D01*
X14117536Y24451667D01*
X14150121Y24449185D01*
X14158018Y24448077D01*
X14190030Y24441500D01*
X14248662Y24441500D01*
X14253442Y24441318D01*
X14288536Y24438645D01*
X14311906Y24436866D01*
X14311908Y24436866D01*
X14311913Y24436866D01*
X14326975Y24438784D01*
X14344334Y24440995D01*
X14352291Y24441500D01*
X15235000Y24441500D01*
X15303121Y24421498D01*
X15349614Y24367842D01*
X15361000Y24315500D01*
X15361000Y24031174D01*
X15360639Y24024435D01*
X15355500Y23976646D01*
X15355500Y23970185D01*
X15335498Y23902064D01*
X15305009Y23869317D01*
X15200738Y23791261D01*
X15113112Y23674207D01*
X15113110Y23674202D01*
X15062011Y23537204D01*
X15062009Y23537196D01*
X15055500Y23476649D01*
X15055500Y23387500D01*
X15035498Y23319379D01*
X14981842Y23272886D01*
X14929500Y23261500D01*
X14825362Y23261500D01*
X14825355Y23261499D01*
X14825350Y23261499D01*
X14764803Y23254990D01*
X14764795Y23254988D01*
X14686875Y23225924D01*
X14627796Y23203889D01*
X14627793Y23203886D01*
X14619882Y23199568D01*
X14618385Y23202309D01*
X14571741Y23183961D01*
X14534803Y23179990D01*
X14534795Y23179988D01*
X14456875Y23150924D01*
X14397796Y23128889D01*
X14299507Y23055311D01*
X14232989Y23030501D01*
X14163615Y23045592D01*
X14148497Y23055306D01*
X14050204Y23128889D01*
X13913201Y23179989D01*
X13913199Y23179989D01*
X13913196Y23179990D01*
X13876258Y23183961D01*
X13829619Y23202317D01*
X13828118Y23199568D01*
X13820209Y23203884D01*
X13820204Y23203889D01*
X13683201Y23254989D01*
X13683199Y23254989D01*
X13683196Y23254990D01*
X13622649Y23261499D01*
X13622645Y23261499D01*
X13622638Y23261500D01*
X13622632Y23261500D01*
X13518500Y23261500D01*
X13450379Y23281502D01*
X13403886Y23335158D01*
X13392500Y23387500D01*
X13392500Y23476632D01*
X13392499Y23476649D01*
X13385990Y23537196D01*
X13385988Y23537204D01*
X13378960Y23556045D01*
X13334889Y23674204D01*
X13247261Y23791261D01*
X13142989Y23869318D01*
X13100443Y23926152D01*
X13092500Y23970192D01*
X13092500Y23976638D01*
X13092499Y23976649D01*
X13085990Y24037196D01*
X13085988Y24037204D01*
X13067208Y24087553D01*
X13034889Y24174204D01*
X13032419Y24177503D01*
X12947261Y24291261D01*
X12830207Y24378887D01*
X12830206Y24378887D01*
X12830204Y24378889D01*
X12724463Y24418328D01*
X12667631Y24460873D01*
X12642820Y24527393D01*
X12642499Y24536382D01*
X12642500Y26149873D01*
X12642610Y26154207D01*
X12644661Y26235157D01*
X12634314Y26292880D01*
X12633652Y26297609D01*
X12627721Y26355940D01*
X12622367Y26373002D01*
X12617937Y26387123D01*
X12616033Y26394880D01*
X12613504Y26408992D01*
X12610270Y26427039D01*
X12588519Y26481490D01*
X12586912Y26486003D01*
X12583483Y26496932D01*
X12569363Y26541939D01*
X12553490Y26570534D01*
X12550085Y26577706D01*
X12537957Y26608071D01*
X12505685Y26657034D01*
X12503213Y26661117D01*
X12474759Y26712384D01*
X12453469Y26737181D01*
X12448669Y26743547D01*
X12430683Y26770840D01*
X12389213Y26812308D01*
X12385982Y26815796D01*
X12358702Y26847574D01*
X12347780Y26860297D01*
X12321924Y26880309D01*
X12315954Y26885567D01*
X11577559Y27623962D01*
X11543535Y27686272D01*
X11547343Y27753557D01*
X11584222Y27862197D01*
X11584223Y27862201D01*
X11584224Y27862203D01*
X11641983Y28152574D01*
X11655415Y28357510D01*
X11661346Y28447996D01*
X11661346Y28448003D01*
X11644413Y28706346D01*
X11641983Y28743426D01*
X11584224Y29033797D01*
X11489059Y29314145D01*
X11358115Y29579673D01*
X11193633Y29825838D01*
X10998427Y30048427D01*
X10775838Y30243633D01*
X10529673Y30408115D01*
X10264145Y30539059D01*
X9983797Y30634224D01*
X9693426Y30691983D01*
X9508784Y30704084D01*
X9398003Y30711346D01*
X9397997Y30711346D01*
X9271388Y30703047D01*
X9102574Y30691983D01*
X8812203Y30634224D01*
X8531855Y30539059D01*
X8266327Y30408115D01*
X8020162Y30243633D01*
X7797573Y30048427D01*
X7602367Y29825838D01*
X7602361Y29825830D01*
X7602359Y29825827D01*
X7437884Y29579673D01*
X7387139Y29476771D01*
X7339070Y29424523D01*
X7274133Y29406500D01*
X6935253Y29406500D01*
X6849970Y29408661D01*
X6840664Y29406993D01*
X6792261Y29398318D01*
X6787519Y29397653D01*
X6767603Y29395627D01*
X6729187Y29391721D01*
X6729181Y29391719D01*
X6729180Y29391719D01*
X6717879Y29388173D01*
X6698000Y29381935D01*
X6690259Y29380035D01*
X6658088Y29374270D01*
X6630880Y29363401D01*
X6603639Y29352520D01*
X6599129Y29350914D01*
X6543188Y29333363D01*
X6514609Y29317500D01*
X6507411Y29314082D01*
X6477056Y29301957D01*
X6477053Y29301955D01*
X6428099Y29269691D01*
X6424004Y29267210D01*
X6372743Y29238759D01*
X6347937Y29217464D01*
X6341584Y29212674D01*
X6320476Y29198763D01*
X6314285Y29194683D01*
X6314284Y29194682D01*
X6293559Y29173956D01*
X6272821Y29153218D01*
X6269323Y29149976D01*
X6224830Y29111780D01*
X6204820Y29085930D01*
X6199556Y29079953D01*
X5934804Y28815201D01*
X5872980Y28756433D01*
X5839484Y28708308D01*
X5836601Y28704485D01*
X5799551Y28659047D01*
X5784421Y28630083D01*
X5780285Y28623256D01*
X5761615Y28596432D01*
X5738491Y28542547D01*
X5736437Y28538222D01*
X5709298Y28486266D01*
X5709294Y28486256D01*
X5700306Y28454845D01*
X5697629Y28447327D01*
X5684741Y28417294D01*
X5684741Y28417292D01*
X5672935Y28359851D01*
X5671794Y28355203D01*
X5655670Y28298847D01*
X5655668Y28298838D01*
X5653186Y28266255D01*
X5652079Y28258360D01*
X5645500Y28226343D01*
X5645500Y28226338D01*
X5645500Y28167708D01*
X5645318Y28162922D01*
X5640866Y28104466D01*
X5640866Y28104460D01*
X5643145Y28086566D01*
X5644995Y28072041D01*
X5645500Y28064083D01*
X5645500Y27812500D01*
X5625498Y27744379D01*
X5571842Y27697886D01*
X5519500Y27686500D01*
X4015362Y27686500D01*
X4015355Y27686499D01*
X4015350Y27686499D01*
X3954803Y27679990D01*
X3954795Y27679988D01*
X3876875Y27650924D01*
X3817796Y27628889D01*
X3817794Y27628888D01*
X3817792Y27628887D01*
X3700738Y27541261D01*
X3656868Y27482657D01*
X3600032Y27440110D01*
X3529216Y27435046D01*
X3466904Y27469071D01*
X3455132Y27482657D01*
X3411261Y27541261D01*
X3294207Y27628887D01*
X3294206Y27628887D01*
X3294204Y27628889D01*
X3157201Y27679989D01*
X3157199Y27679989D01*
X3157196Y27679990D01*
X3096649Y27686499D01*
X3096645Y27686499D01*
X3096638Y27686500D01*
X1475362Y27686500D01*
X1475355Y27686499D01*
X1475350Y27686499D01*
X1414803Y27679990D01*
X1414795Y27679988D01*
X1336875Y27650924D01*
X1277796Y27628889D01*
X1277794Y27628888D01*
X1277792Y27628887D01*
X1160738Y27541261D01*
X1073112Y27424207D01*
X1073110Y27424202D01*
X1022011Y27287204D01*
X1022009Y27287196D01*
X1015500Y27226649D01*
X1015500Y25605350D01*
X1022009Y25544803D01*
X1022011Y25544795D01*
X1073110Y25407797D01*
X1073112Y25407792D01*
X1160738Y25290738D01*
X1277792Y25203112D01*
X1277797Y25203110D01*
X1414795Y25152011D01*
X1414803Y25152009D01*
X1475350Y25145500D01*
X1475362Y25145500D01*
X3096649Y25145500D01*
X3157196Y25152009D01*
X3157204Y25152011D01*
X3294202Y25203110D01*
X3294207Y25203112D01*
X3411261Y25290739D01*
X3455133Y25349343D01*
X3511969Y25391889D01*
X3582784Y25396953D01*
X3645096Y25362928D01*
X3656867Y25349343D01*
X3700738Y25290739D01*
X3817792Y25203112D01*
X3817797Y25203110D01*
X3954795Y25152011D01*
X3954803Y25152009D01*
X4015350Y25145500D01*
X4015362Y25145500D01*
X5636649Y25145500D01*
X5697196Y25152009D01*
X5697204Y25152011D01*
X5834202Y25203110D01*
X5834207Y25203112D01*
X5951261Y25290738D01*
X6037241Y25405594D01*
X6094077Y25448141D01*
X6141297Y25456044D01*
X6169157Y25455339D01*
X6169159Y25455339D01*
X6226871Y25465682D01*
X6231613Y25466347D01*
X6289932Y25472277D01*
X6289945Y25472280D01*
X6321123Y25482061D01*
X6328870Y25483963D01*
X6361041Y25489730D01*
X6415489Y25511480D01*
X6419990Y25513082D01*
X6443620Y25520497D01*
X6475938Y25530636D01*
X6475942Y25530638D01*
X6504513Y25546496D01*
X6511720Y25549919D01*
X6516593Y25551866D01*
X6542069Y25562041D01*
X6584906Y25590274D01*
X6591033Y25594311D01*
X6595122Y25596789D01*
X6610547Y25605350D01*
X6646384Y25625241D01*
X6671176Y25646523D01*
X6677547Y25651327D01*
X6697895Y25664739D01*
X6704840Y25669316D01*
X6704841Y25669317D01*
X6704846Y25669321D01*
X6705905Y25670380D01*
X6706630Y25670776D01*
X6709796Y25673357D01*
X6710276Y25672767D01*
X6768217Y25704406D01*
X6839032Y25699341D01*
X6895868Y25656794D01*
X6920679Y25590274D01*
X6921000Y25581285D01*
X6921000Y24906850D01*
X6927509Y24846303D01*
X6927511Y24846295D01*
X6978610Y24709297D01*
X6978612Y24709292D01*
X7066239Y24592238D01*
X7124843Y24548367D01*
X7167389Y24491531D01*
X7172453Y24420716D01*
X7138428Y24358404D01*
X7124843Y24346633D01*
X7066239Y24302761D01*
X6978612Y24185707D01*
X6978610Y24185702D01*
X6927511Y24048704D01*
X6927509Y24048696D01*
X6921000Y23988149D01*
X6921000Y23695714D01*
X6900998Y23627593D01*
X6884099Y23606623D01*
X6612634Y23335158D01*
X6442804Y23165328D01*
X6380980Y23106560D01*
X6347484Y23058435D01*
X6344606Y23054618D01*
X6324941Y23030501D01*
X6307551Y23009174D01*
X6292421Y22980210D01*
X6288285Y22973383D01*
X6269615Y22946559D01*
X6246491Y22892674D01*
X6244437Y22888349D01*
X6217298Y22836393D01*
X6217294Y22836383D01*
X6208306Y22804972D01*
X6205629Y22797454D01*
X6192741Y22767421D01*
X6192741Y22767419D01*
X6180935Y22709978D01*
X6179794Y22705330D01*
X6163670Y22648974D01*
X6163668Y22648965D01*
X6161186Y22616382D01*
X6160079Y22608487D01*
X6153500Y22576470D01*
X6153500Y22576465D01*
X6153500Y22561582D01*
X6133498Y22493461D01*
X6079842Y22446968D01*
X6009568Y22436864D01*
X5951990Y22460714D01*
X5951263Y22461258D01*
X5951261Y22461261D01*
X5834204Y22548889D01*
X5698217Y22599610D01*
X5697204Y22599988D01*
X5697203Y22599988D01*
X5697201Y22599989D01*
X5697199Y22599989D01*
X5697196Y22599990D01*
X5636649Y22606499D01*
X5636645Y22606499D01*
X5636638Y22606500D01*
X4015362Y22606500D01*
X4015355Y22606499D01*
X4015350Y22606499D01*
X3954803Y22599990D01*
X3954795Y22599988D01*
X3891743Y22576470D01*
X3817796Y22548889D01*
X3817794Y22548888D01*
X3817792Y22548887D01*
X3700738Y22461261D01*
X3656868Y22402657D01*
X3600032Y22360110D01*
X3529216Y22355046D01*
X3466904Y22389071D01*
X3455132Y22402657D01*
X3411261Y22461261D01*
X3294207Y22548887D01*
X3294206Y22548887D01*
X3294204Y22548889D01*
X3158217Y22599610D01*
X3157204Y22599988D01*
X3157203Y22599988D01*
X3157201Y22599989D01*
X3157199Y22599989D01*
X3157196Y22599990D01*
X3096649Y22606499D01*
X3096645Y22606499D01*
X3096638Y22606500D01*
X1475362Y22606500D01*
X1475355Y22606499D01*
X1475350Y22606499D01*
X1414803Y22599990D01*
X1414795Y22599988D01*
X1351743Y22576470D01*
X1277796Y22548889D01*
X1277794Y22548888D01*
X1277792Y22548887D01*
X1160738Y22461261D01*
X1073112Y22344207D01*
X1073110Y22344202D01*
X1022011Y22207204D01*
X1022009Y22207196D01*
X1015500Y22146649D01*
X1015500Y20525350D01*
X329500Y20525350D01*
X329500Y40184500D01*
X349502Y40252621D01*
X403158Y40299114D01*
X455500Y40310500D01*
X19864500Y40310500D01*
X19932621Y40290498D01*
G37*
%TD.AperFunction*%
%TD*%
M02*
