%TF.GenerationSoftware,KiCad,Pcbnew,7.0.7-7.0.7~ubuntu23.04.1*%
%TF.CreationDate,2023-09-17T08:07:36+00:00*%
%TF.ProjectId,CLKGEN02,434c4b47-454e-4303-922e-6b696361645f,rev?*%
%TF.SameCoordinates,Original*%
%TF.FileFunction,Soldermask,Bot*%
%TF.FilePolarity,Negative*%
%FSLAX46Y46*%
G04 Gerber Fmt 4.6, Leading zero omitted, Abs format (unit mm)*
G04 Created by KiCad (PCBNEW 7.0.7-7.0.7~ubuntu23.04.1) date 2023-09-17 08:07:36*
%MOMM*%
%LPD*%
G01*
G04 APERTURE LIST*
G04 Aperture macros list*
%AMRoundRect*
0 Rectangle with rounded corners*
0 $1 Rounding radius*
0 $2 $3 $4 $5 $6 $7 $8 $9 X,Y pos of 4 corners*
0 Add a 4 corners polygon primitive as box body*
4,1,4,$2,$3,$4,$5,$6,$7,$8,$9,$2,$3,0*
0 Add four circle primitives for the rounded corners*
1,1,$1+$1,$2,$3*
1,1,$1+$1,$4,$5*
1,1,$1+$1,$6,$7*
1,1,$1+$1,$8,$9*
0 Add four rect primitives between the rounded corners*
20,1,$1+$1,$2,$3,$4,$5,0*
20,1,$1+$1,$4,$5,$6,$7,0*
20,1,$1+$1,$6,$7,$8,$9,0*
20,1,$1+$1,$8,$9,$2,$3,0*%
G04 Aperture macros list end*
%ADD10RoundRect,0.200000X-0.762000X-0.762000X0.762000X-0.762000X0.762000X0.762000X-0.762000X0.762000X0*%
%ADD11C,6.400000*%
%ADD12C,3.900000*%
%ADD13RoundRect,0.200000X0.762000X-0.762000X0.762000X0.762000X-0.762000X0.762000X-0.762000X-0.762000X0*%
%ADD14RoundRect,0.200000X0.698500X-0.444500X0.698500X0.444500X-0.698500X0.444500X-0.698500X-0.444500X0*%
%ADD15RoundRect,0.200000X-0.444500X-0.698500X0.444500X-0.698500X0.444500X0.698500X-0.444500X0.698500X0*%
%ADD16RoundRect,0.200000X-0.849630X0.650240X-0.849630X-0.650240X0.849630X-0.650240X0.849630X0.650240X0*%
%ADD17RoundRect,0.200000X-0.698500X0.444500X-0.698500X-0.444500X0.698500X-0.444500X0.698500X0.444500X0*%
%ADD18RoundRect,0.200000X0.850000X0.750000X-0.850000X0.750000X-0.850000X-0.750000X0.850000X-0.750000X0*%
%ADD19RoundRect,0.200000X0.900000X1.000000X-0.900000X1.000000X-0.900000X-1.000000X0.900000X-1.000000X0*%
%ADD20RoundRect,0.200000X0.800000X0.675000X-0.800000X0.675000X-0.800000X-0.675000X0.800000X-0.675000X0*%
%ADD21RoundRect,0.200000X0.700000X0.650000X-0.700000X0.650000X-0.700000X-0.650000X0.700000X-0.650000X0*%
%ADD22RoundRect,0.200000X1.200000X0.750000X-1.200000X0.750000X-1.200000X-0.750000X1.200000X-0.750000X0*%
%ADD23RoundRect,0.200000X0.450000X0.400000X-0.450000X0.400000X-0.450000X-0.400000X0.450000X-0.400000X0*%
G04 APERTURE END LIST*
D10*
%TO.C,J1*%
X2286000Y17272000D03*
X4826000Y17272000D03*
X2286000Y14732000D03*
X4826000Y14732000D03*
X2286000Y12192000D03*
X4826000Y12192000D03*
%TD*%
%TO.C,J3*%
X2286000Y28956000D03*
X4826000Y28956000D03*
X2286000Y26416000D03*
X4826000Y26416000D03*
X2286000Y23876000D03*
X4826000Y23876000D03*
%TD*%
D11*
%TO.C,M1*%
X5080000Y5080000D03*
%TD*%
%TO.C,M2*%
X5080000Y35560000D03*
%TD*%
%TO.C,M3*%
X15240000Y5080000D03*
%TD*%
%TO.C,M4*%
X15240000Y35560000D03*
%TD*%
D12*
%TO.C,X9*%
X17018000Y13208000D03*
X17018000Y28448000D03*
X9398000Y28448000D03*
X9398000Y13208000D03*
%TD*%
D13*
%TO.C,J2*%
X2286000Y21336000D03*
X4826000Y21336000D03*
%TD*%
D14*
%TO.C,C1*%
X14224000Y25463500D03*
X14224000Y27368500D03*
%TD*%
D15*
%TO.C,C2*%
X16319500Y25400000D03*
X18224500Y25400000D03*
%TD*%
%TO.C,C3*%
X11239500Y15748000D03*
X13144500Y15748000D03*
%TD*%
D16*
%TO.C,D1*%
X8636000Y16029940D03*
X8636000Y19530060D03*
%TD*%
D17*
%TO.C,R1*%
X8128000Y25400000D03*
X8128000Y23495000D03*
%TD*%
D15*
%TO.C,R2*%
X7112000Y21336000D03*
X9017000Y21336000D03*
%TD*%
D18*
%TO.C,X1*%
X15494000Y19728000D03*
X12954000Y19728000D03*
X12954000Y21928000D03*
X15494000Y21928000D03*
%TD*%
D19*
%TO.C,X2*%
X16764000Y18728000D03*
X11684000Y18728000D03*
X11684000Y22928000D03*
X16764000Y22928000D03*
%TD*%
D20*
%TO.C,X3*%
X15674000Y19578000D03*
X12774000Y19578000D03*
X12774000Y22078000D03*
X15674000Y22078000D03*
%TD*%
D21*
%TO.C,X4*%
X15524000Y19828000D03*
X12924000Y19828000D03*
X12924000Y21828000D03*
X15524000Y21828000D03*
%TD*%
D20*
%TO.C,X6*%
X16224000Y19578000D03*
X12224000Y19578000D03*
X12224000Y22078000D03*
X16224000Y22078000D03*
%TD*%
D22*
%TO.C,X7*%
X16764000Y18978000D03*
X11684000Y18978000D03*
X11684000Y22678000D03*
X16764000Y22678000D03*
%TD*%
D23*
%TO.C,X8*%
X15049000Y20203000D03*
X13399000Y20203000D03*
X13399000Y21453000D03*
X15049000Y21453000D03*
%TD*%
M02*
