%TF.GenerationSoftware,KiCad,Pcbnew,7.0.7-7.0.7~ubuntu23.04.1*%
%TF.CreationDate,2023-09-17T08:07:36+00:00*%
%TF.ProjectId,CLKGEN02,434c4b47-454e-4303-922e-6b696361645f,rev?*%
%TF.SameCoordinates,Original*%
%TF.FileFunction,Legend,Top*%
%TF.FilePolarity,Positive*%
%FSLAX46Y46*%
G04 Gerber Fmt 4.6, Leading zero omitted, Abs format (unit mm)*
G04 Created by KiCad (PCBNEW 7.0.7-7.0.7~ubuntu23.04.1) date 2023-09-17 08:07:36*
%MOMM*%
%LPD*%
G01*
G04 APERTURE LIST*
%ADD10C,0.300000*%
%ADD11C,0.050000*%
%ADD12C,0.150000*%
%ADD13R,1.524000X1.524000*%
G04 APERTURE END LIST*
D10*
X1569619Y9066195D02*
X1569619Y10366195D01*
X1569619Y10366195D02*
X2064857Y10366195D01*
X2064857Y10366195D02*
X2188667Y10304290D01*
X2188667Y10304290D02*
X2250572Y10242385D01*
X2250572Y10242385D02*
X2312476Y10118576D01*
X2312476Y10118576D02*
X2312476Y9932861D01*
X2312476Y9932861D02*
X2250572Y9809052D01*
X2250572Y9809052D02*
X2188667Y9747147D01*
X2188667Y9747147D02*
X2064857Y9685242D01*
X2064857Y9685242D02*
X1569619Y9685242D01*
X3117238Y10366195D02*
X3364857Y10366195D01*
X3364857Y10366195D02*
X3488667Y10304290D01*
X3488667Y10304290D02*
X3612476Y10180480D01*
X3612476Y10180480D02*
X3674381Y9932861D01*
X3674381Y9932861D02*
X3674381Y9499528D01*
X3674381Y9499528D02*
X3612476Y9251909D01*
X3612476Y9251909D02*
X3488667Y9128100D01*
X3488667Y9128100D02*
X3364857Y9066195D01*
X3364857Y9066195D02*
X3117238Y9066195D01*
X3117238Y9066195D02*
X2993429Y9128100D01*
X2993429Y9128100D02*
X2869619Y9251909D01*
X2869619Y9251909D02*
X2807715Y9499528D01*
X2807715Y9499528D02*
X2807715Y9932861D01*
X2807715Y9932861D02*
X2869619Y10180480D01*
X2869619Y10180480D02*
X2993429Y10304290D01*
X2993429Y10304290D02*
X3117238Y10366195D01*
X4107715Y10366195D02*
X4417239Y9066195D01*
X4417239Y9066195D02*
X4664858Y9994766D01*
X4664858Y9994766D02*
X4912477Y9066195D01*
X4912477Y9066195D02*
X5222001Y10366195D01*
X5717238Y9747147D02*
X6150572Y9747147D01*
X6336286Y9066195D02*
X5717238Y9066195D01*
X5717238Y9066195D02*
X5717238Y10366195D01*
X5717238Y10366195D02*
X6336286Y10366195D01*
X7636285Y9066195D02*
X7202952Y9685242D01*
X6893428Y9066195D02*
X6893428Y10366195D01*
X6893428Y10366195D02*
X7388666Y10366195D01*
X7388666Y10366195D02*
X7512476Y10304290D01*
X7512476Y10304290D02*
X7574381Y10242385D01*
X7574381Y10242385D02*
X7636285Y10118576D01*
X7636285Y10118576D02*
X7636285Y9932861D01*
X7636285Y9932861D02*
X7574381Y9809052D01*
X7574381Y9809052D02*
X7512476Y9747147D01*
X7512476Y9747147D02*
X7388666Y9685242D01*
X7388666Y9685242D02*
X6893428Y9685242D01*
X14685995Y15831904D02*
X14747900Y15770000D01*
X14747900Y15770000D02*
X14809804Y15584285D01*
X14809804Y15584285D02*
X14809804Y15460476D01*
X14809804Y15460476D02*
X14747900Y15274762D01*
X14747900Y15274762D02*
X14624090Y15150952D01*
X14624090Y15150952D02*
X14500280Y15089047D01*
X14500280Y15089047D02*
X14252661Y15027143D01*
X14252661Y15027143D02*
X14066947Y15027143D01*
X14066947Y15027143D02*
X13819328Y15089047D01*
X13819328Y15089047D02*
X13695519Y15150952D01*
X13695519Y15150952D02*
X13571709Y15274762D01*
X13571709Y15274762D02*
X13509804Y15460476D01*
X13509804Y15460476D02*
X13509804Y15584285D01*
X13509804Y15584285D02*
X13571709Y15770000D01*
X13571709Y15770000D02*
X13633614Y15831904D01*
X14809804Y17008095D02*
X14809804Y16389047D01*
X14809804Y16389047D02*
X13509804Y16389047D01*
X14809804Y17441428D02*
X13509804Y17441428D01*
X14809804Y18184285D02*
X14066947Y17627143D01*
X13509804Y18184285D02*
X14252661Y17441428D01*
X13571709Y19422381D02*
X13509804Y19298571D01*
X13509804Y19298571D02*
X13509804Y19112857D01*
X13509804Y19112857D02*
X13571709Y18927143D01*
X13571709Y18927143D02*
X13695519Y18803333D01*
X13695519Y18803333D02*
X13819328Y18741428D01*
X13819328Y18741428D02*
X14066947Y18679524D01*
X14066947Y18679524D02*
X14252661Y18679524D01*
X14252661Y18679524D02*
X14500280Y18741428D01*
X14500280Y18741428D02*
X14624090Y18803333D01*
X14624090Y18803333D02*
X14747900Y18927143D01*
X14747900Y18927143D02*
X14809804Y19112857D01*
X14809804Y19112857D02*
X14809804Y19236666D01*
X14809804Y19236666D02*
X14747900Y19422381D01*
X14747900Y19422381D02*
X14685995Y19484285D01*
X14685995Y19484285D02*
X14252661Y19484285D01*
X14252661Y19484285D02*
X14252661Y19236666D01*
X14128852Y20041428D02*
X14128852Y20474762D01*
X14809804Y20660476D02*
X14809804Y20041428D01*
X14809804Y20041428D02*
X13509804Y20041428D01*
X13509804Y20041428D02*
X13509804Y20660476D01*
X14809804Y21217618D02*
X13509804Y21217618D01*
X13509804Y21217618D02*
X14809804Y21960475D01*
X14809804Y21960475D02*
X13509804Y21960475D01*
X13509804Y22827142D02*
X13509804Y22950952D01*
X13509804Y22950952D02*
X13571709Y23074761D01*
X13571709Y23074761D02*
X13633614Y23136666D01*
X13633614Y23136666D02*
X13757423Y23198571D01*
X13757423Y23198571D02*
X14005042Y23260476D01*
X14005042Y23260476D02*
X14314566Y23260476D01*
X14314566Y23260476D02*
X14562185Y23198571D01*
X14562185Y23198571D02*
X14685995Y23136666D01*
X14685995Y23136666D02*
X14747900Y23074761D01*
X14747900Y23074761D02*
X14809804Y22950952D01*
X14809804Y22950952D02*
X14809804Y22827142D01*
X14809804Y22827142D02*
X14747900Y22703333D01*
X14747900Y22703333D02*
X14685995Y22641428D01*
X14685995Y22641428D02*
X14562185Y22579523D01*
X14562185Y22579523D02*
X14314566Y22517619D01*
X14314566Y22517619D02*
X14005042Y22517619D01*
X14005042Y22517619D02*
X13757423Y22579523D01*
X13757423Y22579523D02*
X13633614Y22641428D01*
X13633614Y22641428D02*
X13571709Y22703333D01*
X13571709Y22703333D02*
X13509804Y22827142D01*
X13633614Y23755714D02*
X13571709Y23817618D01*
X13571709Y23817618D02*
X13509804Y23941428D01*
X13509804Y23941428D02*
X13509804Y24250952D01*
X13509804Y24250952D02*
X13571709Y24374761D01*
X13571709Y24374761D02*
X13633614Y24436666D01*
X13633614Y24436666D02*
X13757423Y24498571D01*
X13757423Y24498571D02*
X13881233Y24498571D01*
X13881233Y24498571D02*
X14066947Y24436666D01*
X14066947Y24436666D02*
X14809804Y23693809D01*
X14809804Y23693809D02*
X14809804Y24498571D01*
X14438376Y24993809D02*
X14438376Y25612856D01*
X14809804Y24869999D02*
X13509804Y25303332D01*
X13509804Y25303332D02*
X14809804Y25736666D01*
X12777804Y16574761D02*
X11477804Y16574761D01*
X11477804Y16574761D02*
X12406376Y17008095D01*
X12406376Y17008095D02*
X11477804Y17441428D01*
X11477804Y17441428D02*
X12777804Y17441428D01*
X12777804Y18679523D02*
X12777804Y18060475D01*
X12777804Y18060475D02*
X11477804Y18060475D01*
X12406376Y19050952D02*
X12406376Y19669999D01*
X12777804Y18927142D02*
X11477804Y19360475D01*
X11477804Y19360475D02*
X12777804Y19793809D01*
X12096852Y20660476D02*
X12158757Y20846190D01*
X12158757Y20846190D02*
X12220661Y20908095D01*
X12220661Y20908095D02*
X12344471Y20969999D01*
X12344471Y20969999D02*
X12530185Y20969999D01*
X12530185Y20969999D02*
X12653995Y20908095D01*
X12653995Y20908095D02*
X12715900Y20846190D01*
X12715900Y20846190D02*
X12777804Y20722380D01*
X12777804Y20722380D02*
X12777804Y20227142D01*
X12777804Y20227142D02*
X11477804Y20227142D01*
X11477804Y20227142D02*
X11477804Y20660476D01*
X11477804Y20660476D02*
X11539709Y20784285D01*
X11539709Y20784285D02*
X11601614Y20846190D01*
X11601614Y20846190D02*
X11725423Y20908095D01*
X11725423Y20908095D02*
X11849233Y20908095D01*
X11849233Y20908095D02*
X11973042Y20846190D01*
X11973042Y20846190D02*
X12034947Y20784285D01*
X12034947Y20784285D02*
X12096852Y20660476D01*
X12096852Y20660476D02*
X12096852Y20227142D01*
X12653995Y21527142D02*
X12715900Y21589047D01*
X12715900Y21589047D02*
X12777804Y21527142D01*
X12777804Y21527142D02*
X12715900Y21465238D01*
X12715900Y21465238D02*
X12653995Y21527142D01*
X12653995Y21527142D02*
X12777804Y21527142D01*
X12653995Y22889047D02*
X12715900Y22827143D01*
X12715900Y22827143D02*
X12777804Y22641428D01*
X12777804Y22641428D02*
X12777804Y22517619D01*
X12777804Y22517619D02*
X12715900Y22331905D01*
X12715900Y22331905D02*
X12592090Y22208095D01*
X12592090Y22208095D02*
X12468280Y22146190D01*
X12468280Y22146190D02*
X12220661Y22084286D01*
X12220661Y22084286D02*
X12034947Y22084286D01*
X12034947Y22084286D02*
X11787328Y22146190D01*
X11787328Y22146190D02*
X11663519Y22208095D01*
X11663519Y22208095D02*
X11539709Y22331905D01*
X11539709Y22331905D02*
X11477804Y22517619D01*
X11477804Y22517619D02*
X11477804Y22641428D01*
X11477804Y22641428D02*
X11539709Y22827143D01*
X11539709Y22827143D02*
X11601614Y22889047D01*
X11477804Y23322381D02*
X11477804Y24189047D01*
X11477804Y24189047D02*
X12777804Y23322381D01*
X12777804Y23322381D02*
X12777804Y24189047D01*
X7618891Y21431147D02*
X8052225Y21431147D01*
X8237939Y20750195D02*
X7618891Y20750195D01*
X7618891Y20750195D02*
X7618891Y22050195D01*
X7618891Y22050195D02*
X8237939Y22050195D01*
X8795081Y20750195D02*
X8795081Y22050195D01*
X8795081Y22050195D02*
X9537938Y20750195D01*
X9537938Y20750195D02*
X9537938Y22050195D01*
X7866510Y26114195D02*
X8114129Y26114195D01*
X8114129Y26114195D02*
X8237939Y26052290D01*
X8237939Y26052290D02*
X8361748Y25928480D01*
X8361748Y25928480D02*
X8423653Y25680861D01*
X8423653Y25680861D02*
X8423653Y25247528D01*
X8423653Y25247528D02*
X8361748Y24999909D01*
X8361748Y24999909D02*
X8237939Y24876100D01*
X8237939Y24876100D02*
X8114129Y24814195D01*
X8114129Y24814195D02*
X7866510Y24814195D01*
X7866510Y24814195D02*
X7742701Y24876100D01*
X7742701Y24876100D02*
X7618891Y24999909D01*
X7618891Y24999909D02*
X7556987Y25247528D01*
X7556987Y25247528D02*
X7556987Y25680861D01*
X7556987Y25680861D02*
X7618891Y25928480D01*
X7618891Y25928480D02*
X7742701Y26052290D01*
X7742701Y26052290D02*
X7866510Y26114195D01*
X8980796Y26114195D02*
X8980796Y25061814D01*
X8980796Y25061814D02*
X9042701Y24938004D01*
X9042701Y24938004D02*
X9104606Y24876100D01*
X9104606Y24876100D02*
X9228415Y24814195D01*
X9228415Y24814195D02*
X9476034Y24814195D01*
X9476034Y24814195D02*
X9599844Y24876100D01*
X9599844Y24876100D02*
X9661749Y24938004D01*
X9661749Y24938004D02*
X9723653Y25061814D01*
X9723653Y25061814D02*
X9723653Y26114195D01*
X10156987Y26114195D02*
X10899844Y26114195D01*
X10528416Y24814195D02*
X10528416Y26114195D01*
X9445804Y2696666D02*
X10374376Y2696666D01*
X10374376Y2696666D02*
X10560090Y2634761D01*
X10560090Y2634761D02*
X10683900Y2510952D01*
X10683900Y2510952D02*
X10745804Y2325237D01*
X10745804Y2325237D02*
X10745804Y2201428D01*
X10374376Y3253809D02*
X10374376Y3872856D01*
X10745804Y3129999D02*
X9445804Y3563332D01*
X9445804Y3563332D02*
X10745804Y3996666D01*
X10621995Y5172856D02*
X10683900Y5110952D01*
X10683900Y5110952D02*
X10745804Y4925237D01*
X10745804Y4925237D02*
X10745804Y4801428D01*
X10745804Y4801428D02*
X10683900Y4615714D01*
X10683900Y4615714D02*
X10560090Y4491904D01*
X10560090Y4491904D02*
X10436280Y4429999D01*
X10436280Y4429999D02*
X10188661Y4368095D01*
X10188661Y4368095D02*
X10002947Y4368095D01*
X10002947Y4368095D02*
X9755328Y4429999D01*
X9755328Y4429999D02*
X9631519Y4491904D01*
X9631519Y4491904D02*
X9507709Y4615714D01*
X9507709Y4615714D02*
X9445804Y4801428D01*
X9445804Y4801428D02*
X9445804Y4925237D01*
X9445804Y4925237D02*
X9507709Y5110952D01*
X9507709Y5110952D02*
X9569614Y5172856D01*
X10745804Y5729999D02*
X9445804Y5729999D01*
X10064852Y5729999D02*
X10064852Y6472856D01*
X10745804Y6472856D02*
X9445804Y6472856D01*
X9445804Y7339523D02*
X9445804Y7587142D01*
X9445804Y7587142D02*
X9507709Y7710952D01*
X9507709Y7710952D02*
X9631519Y7834761D01*
X9631519Y7834761D02*
X9879138Y7896666D01*
X9879138Y7896666D02*
X10312471Y7896666D01*
X10312471Y7896666D02*
X10560090Y7834761D01*
X10560090Y7834761D02*
X10683900Y7710952D01*
X10683900Y7710952D02*
X10745804Y7587142D01*
X10745804Y7587142D02*
X10745804Y7339523D01*
X10745804Y7339523D02*
X10683900Y7215714D01*
X10683900Y7215714D02*
X10560090Y7091904D01*
X10560090Y7091904D02*
X10312471Y7030000D01*
X10312471Y7030000D02*
X9879138Y7030000D01*
X9879138Y7030000D02*
X9631519Y7091904D01*
X9631519Y7091904D02*
X9507709Y7215714D01*
X9507709Y7215714D02*
X9445804Y7339523D01*
X8299844Y24020290D02*
X8176034Y24082195D01*
X8176034Y24082195D02*
X7990320Y24082195D01*
X7990320Y24082195D02*
X7804606Y24020290D01*
X7804606Y24020290D02*
X7680796Y23896480D01*
X7680796Y23896480D02*
X7618891Y23772671D01*
X7618891Y23772671D02*
X7556987Y23525052D01*
X7556987Y23525052D02*
X7556987Y23339338D01*
X7556987Y23339338D02*
X7618891Y23091719D01*
X7618891Y23091719D02*
X7680796Y22967909D01*
X7680796Y22967909D02*
X7804606Y22844100D01*
X7804606Y22844100D02*
X7990320Y22782195D01*
X7990320Y22782195D02*
X8114129Y22782195D01*
X8114129Y22782195D02*
X8299844Y22844100D01*
X8299844Y22844100D02*
X8361748Y22906004D01*
X8361748Y22906004D02*
X8361748Y23339338D01*
X8361748Y23339338D02*
X8114129Y23339338D01*
X8918891Y22782195D02*
X8918891Y24082195D01*
X8918891Y24082195D02*
X9661748Y22782195D01*
X9661748Y22782195D02*
X9661748Y24082195D01*
X10280796Y22782195D02*
X10280796Y24082195D01*
X10280796Y24082195D02*
X10590320Y24082195D01*
X10590320Y24082195D02*
X10776034Y24020290D01*
X10776034Y24020290D02*
X10899844Y23896480D01*
X10899844Y23896480D02*
X10961749Y23772671D01*
X10961749Y23772671D02*
X11023653Y23525052D01*
X11023653Y23525052D02*
X11023653Y23339338D01*
X11023653Y23339338D02*
X10961749Y23091719D01*
X10961749Y23091719D02*
X10899844Y22967909D01*
X10899844Y22967909D02*
X10776034Y22844100D01*
X10776034Y22844100D02*
X10590320Y22782195D01*
X10590320Y22782195D02*
X10280796Y22782195D01*
X9569614Y33331429D02*
X9507709Y33393333D01*
X9507709Y33393333D02*
X9445804Y33517143D01*
X9445804Y33517143D02*
X9445804Y33826667D01*
X9445804Y33826667D02*
X9507709Y33950476D01*
X9507709Y33950476D02*
X9569614Y34012381D01*
X9569614Y34012381D02*
X9693423Y34074286D01*
X9693423Y34074286D02*
X9817233Y34074286D01*
X9817233Y34074286D02*
X10002947Y34012381D01*
X10002947Y34012381D02*
X10745804Y33269524D01*
X10745804Y33269524D02*
X10745804Y34074286D01*
X9445804Y34879047D02*
X9445804Y35002857D01*
X9445804Y35002857D02*
X9507709Y35126666D01*
X9507709Y35126666D02*
X9569614Y35188571D01*
X9569614Y35188571D02*
X9693423Y35250476D01*
X9693423Y35250476D02*
X9941042Y35312381D01*
X9941042Y35312381D02*
X10250566Y35312381D01*
X10250566Y35312381D02*
X10498185Y35250476D01*
X10498185Y35250476D02*
X10621995Y35188571D01*
X10621995Y35188571D02*
X10683900Y35126666D01*
X10683900Y35126666D02*
X10745804Y35002857D01*
X10745804Y35002857D02*
X10745804Y34879047D01*
X10745804Y34879047D02*
X10683900Y34755238D01*
X10683900Y34755238D02*
X10621995Y34693333D01*
X10621995Y34693333D02*
X10498185Y34631428D01*
X10498185Y34631428D02*
X10250566Y34569524D01*
X10250566Y34569524D02*
X9941042Y34569524D01*
X9941042Y34569524D02*
X9693423Y34631428D01*
X9693423Y34631428D02*
X9569614Y34693333D01*
X9569614Y34693333D02*
X9507709Y34755238D01*
X9507709Y34755238D02*
X9445804Y34879047D01*
X10745804Y36550476D02*
X10745804Y35807619D01*
X10745804Y36179047D02*
X9445804Y36179047D01*
X9445804Y36179047D02*
X9631519Y36055238D01*
X9631519Y36055238D02*
X9755328Y35931428D01*
X9755328Y35931428D02*
X9817233Y35807619D01*
X9445804Y37664761D02*
X9445804Y37417142D01*
X9445804Y37417142D02*
X9507709Y37293333D01*
X9507709Y37293333D02*
X9569614Y37231428D01*
X9569614Y37231428D02*
X9755328Y37107618D01*
X9755328Y37107618D02*
X10002947Y37045714D01*
X10002947Y37045714D02*
X10498185Y37045714D01*
X10498185Y37045714D02*
X10621995Y37107618D01*
X10621995Y37107618D02*
X10683900Y37169523D01*
X10683900Y37169523D02*
X10745804Y37293333D01*
X10745804Y37293333D02*
X10745804Y37540952D01*
X10745804Y37540952D02*
X10683900Y37664761D01*
X10683900Y37664761D02*
X10621995Y37726666D01*
X10621995Y37726666D02*
X10498185Y37788571D01*
X10498185Y37788571D02*
X10188661Y37788571D01*
X10188661Y37788571D02*
X10064852Y37726666D01*
X10064852Y37726666D02*
X10002947Y37664761D01*
X10002947Y37664761D02*
X9941042Y37540952D01*
X9941042Y37540952D02*
X9941042Y37293333D01*
X9941042Y37293333D02*
X10002947Y37169523D01*
X10002947Y37169523D02*
X10064852Y37107618D01*
X10064852Y37107618D02*
X10188661Y37045714D01*
X2711844Y32148290D02*
X2588034Y32210195D01*
X2588034Y32210195D02*
X2402320Y32210195D01*
X2402320Y32210195D02*
X2216606Y32148290D01*
X2216606Y32148290D02*
X2092796Y32024480D01*
X2092796Y32024480D02*
X2030891Y31900671D01*
X2030891Y31900671D02*
X1968987Y31653052D01*
X1968987Y31653052D02*
X1968987Y31467338D01*
X1968987Y31467338D02*
X2030891Y31219719D01*
X2030891Y31219719D02*
X2092796Y31095909D01*
X2092796Y31095909D02*
X2216606Y30972100D01*
X2216606Y30972100D02*
X2402320Y30910195D01*
X2402320Y30910195D02*
X2526129Y30910195D01*
X2526129Y30910195D02*
X2711844Y30972100D01*
X2711844Y30972100D02*
X2773748Y31034004D01*
X2773748Y31034004D02*
X2773748Y31467338D01*
X2773748Y31467338D02*
X2526129Y31467338D01*
X3330891Y30910195D02*
X3330891Y32210195D01*
X3330891Y32210195D02*
X4073748Y30910195D01*
X4073748Y30910195D02*
X4073748Y32210195D01*
X4692796Y30910195D02*
X4692796Y32210195D01*
X4692796Y32210195D02*
X5002320Y32210195D01*
X5002320Y32210195D02*
X5188034Y32148290D01*
X5188034Y32148290D02*
X5311844Y32024480D01*
X5311844Y32024480D02*
X5373749Y31900671D01*
X5373749Y31900671D02*
X5435653Y31653052D01*
X5435653Y31653052D02*
X5435653Y31467338D01*
X5435653Y31467338D02*
X5373749Y31219719D01*
X5373749Y31219719D02*
X5311844Y31095909D01*
X5311844Y31095909D02*
X5188034Y30972100D01*
X5188034Y30972100D02*
X5002320Y30910195D01*
X5002320Y30910195D02*
X4692796Y30910195D01*
D11*
X777857Y17043290D02*
X492143Y17043290D01*
X635000Y17043290D02*
X635000Y17543290D01*
X635000Y17543290D02*
X587381Y17471861D01*
X587381Y17471861D02*
X539762Y17424242D01*
X539762Y17424242D02*
X492143Y17400433D01*
X777857Y28727290D02*
X492143Y28727290D01*
X635000Y28727290D02*
X635000Y29227290D01*
X635000Y29227290D02*
X587381Y29155861D01*
X587381Y29155861D02*
X539762Y29108242D01*
X539762Y29108242D02*
X492143Y29084433D01*
D12*
X12398476Y30517180D02*
X13065142Y29517180D01*
X13065142Y30517180D02*
X12398476Y29517180D01*
X13493714Y29517180D02*
X13684190Y29517180D01*
X13684190Y29517180D02*
X13779428Y29564800D01*
X13779428Y29564800D02*
X13827047Y29612419D01*
X13827047Y29612419D02*
X13922285Y29755276D01*
X13922285Y29755276D02*
X13969904Y29945752D01*
X13969904Y29945752D02*
X13969904Y30326704D01*
X13969904Y30326704D02*
X13922285Y30421942D01*
X13922285Y30421942D02*
X13874666Y30469561D01*
X13874666Y30469561D02*
X13779428Y30517180D01*
X13779428Y30517180D02*
X13588952Y30517180D01*
X13588952Y30517180D02*
X13493714Y30469561D01*
X13493714Y30469561D02*
X13446095Y30421942D01*
X13446095Y30421942D02*
X13398476Y30326704D01*
X13398476Y30326704D02*
X13398476Y30088609D01*
X13398476Y30088609D02*
X13446095Y29993371D01*
X13446095Y29993371D02*
X13493714Y29945752D01*
X13493714Y29945752D02*
X13588952Y29898133D01*
X13588952Y29898133D02*
X13779428Y29898133D01*
X13779428Y29898133D02*
X13874666Y29945752D01*
X13874666Y29945752D02*
X13922285Y29993371D01*
X13922285Y29993371D02*
X13969904Y30088609D01*
X18771519Y11353800D02*
X19009614Y11353800D01*
X18914376Y11115705D02*
X19009614Y11353800D01*
X19009614Y11353800D02*
X18914376Y11591895D01*
X19200090Y11210943D02*
X19009614Y11353800D01*
X19009614Y11353800D02*
X19200090Y11496657D01*
%TO.C,J1*%
X1016000Y18542000D02*
X6096000Y18542000D01*
X1016000Y10922000D02*
X1016000Y18542000D01*
X6096000Y18542000D02*
X6096000Y10922000D01*
X6096000Y10922000D02*
X1016000Y10922000D01*
%TO.C,J3*%
X1016000Y30226000D02*
X6096000Y30226000D01*
X1016000Y22606000D02*
X1016000Y30226000D01*
X6096000Y30226000D02*
X6096000Y22606000D01*
X6096000Y22606000D02*
X1016000Y22606000D01*
%TO.C,X9*%
X6758000Y10628000D02*
X6758000Y31028000D01*
X19658000Y10628000D02*
X6758000Y10628000D01*
X6758000Y31028000D02*
X19658000Y31028000D01*
X19658000Y31028000D02*
X19658000Y10628000D01*
%TO.C,J2*%
X1016000Y20066000D02*
X1016000Y22606000D01*
X6096000Y20066000D02*
X1016000Y20066000D01*
X1016000Y22606000D02*
X6096000Y22606000D01*
X6096000Y22606000D02*
X6096000Y20066000D01*
%TD*%
D13*
%TO.C,J1*%
X2286000Y17272000D03*
X4826000Y17272000D03*
X2286000Y14732000D03*
X4826000Y14732000D03*
X2286000Y12192000D03*
X4826000Y12192000D03*
%TD*%
%TO.C,J3*%
X2286000Y28956000D03*
X4826000Y28956000D03*
X2286000Y26416000D03*
X4826000Y26416000D03*
X2286000Y23876000D03*
X4826000Y23876000D03*
%TD*%
%TO.C,J2*%
X2286000Y21336000D03*
X4826000Y21336000D03*
%TD*%
M02*
