M48
; DRILL file {KiCad 7.0.7-7.0.7~ubuntu23.04.1} date Sun Sep 17 08:07:36 2023
; FORMAT={3:3/ absolute / metric / suppress leading zeros}
; #@! TF.CreationDate,2023-09-17T08:07:36+00:00
; #@! TF.GenerationSoftware,Kicad,Pcbnew,7.0.7-7.0.7~ubuntu23.04.1
; #@! TF.FileFunction,Plated,1,2,PTH
FMAT,2
METRIC,TZ
; #@! TA.AperFunction,Plated,PTH,ViaDrill
T1C0.400
; #@! TA.AperFunction,Plated,PTH,ComponentDrill
T2C0.600
; #@! TA.AperFunction,Plated,PTH,ComponentDrill
T3C0.889
; #@! TA.AperFunction,Plated,PTH,ComponentDrill
T4C3.000
%
G90
G05
T1
X6604Y24384
X10160Y24892
X14732Y17272
X17780Y20828
X17780Y20828
T2
X9398Y28448
X9398Y13208
X17018Y28448
X17018Y13208
T3
X2286Y28956
X2286Y26416
X2286Y23876
X2286Y21336
X2286Y17272
X2286Y14732
X2286Y12192
X4826Y28956
X4826Y26416
X4826Y23876
X4826Y21336
X4826Y17272
X4826Y14732
X4826Y12192
T4
X5080Y35560
X5080Y5080
X15240Y35560
X15240Y5080
T0
M30
