%TF.GenerationSoftware,KiCad,Pcbnew,7.0.7-7.0.7~ubuntu23.04.1*%
%TF.CreationDate,2023-09-17T08:07:36+00:00*%
%TF.ProjectId,CLKGEN02,434c4b47-454e-4303-922e-6b696361645f,rev?*%
%TF.SameCoordinates,Original*%
%TF.FileFunction,Paste,Bot*%
%TF.FilePolarity,Positive*%
%FSLAX46Y46*%
G04 Gerber Fmt 4.6, Leading zero omitted, Abs format (unit mm)*
G04 Created by KiCad (PCBNEW 7.0.7-7.0.7~ubuntu23.04.1) date 2023-09-17 08:07:36*
%MOMM*%
%LPD*%
G01*
G04 APERTURE LIST*
%ADD10R,1.397000X0.889000*%
%ADD11R,0.889000X1.397000*%
%ADD12R,1.699260X1.300480*%
%ADD13R,1.700000X1.500000*%
%ADD14R,1.800000X2.000000*%
%ADD15R,1.600000X1.350000*%
%ADD16R,1.400000X1.300000*%
%ADD17R,2.400000X1.500000*%
%ADD18R,0.900000X0.800000*%
G04 APERTURE END LIST*
D10*
%TO.C,C1*%
X14224000Y25463500D03*
X14224000Y27368500D03*
%TD*%
D11*
%TO.C,C2*%
X16319500Y25400000D03*
X18224500Y25400000D03*
%TD*%
%TO.C,C3*%
X11239500Y15748000D03*
X13144500Y15748000D03*
%TD*%
D12*
%TO.C,D1*%
X8636000Y16029940D03*
X8636000Y19530060D03*
%TD*%
D10*
%TO.C,R1*%
X8128000Y25400000D03*
X8128000Y23495000D03*
%TD*%
D11*
%TO.C,R2*%
X7112000Y21336000D03*
X9017000Y21336000D03*
%TD*%
D13*
%TO.C,X1*%
X15494000Y19728000D03*
X12954000Y19728000D03*
X12954000Y21928000D03*
X15494000Y21928000D03*
%TD*%
D14*
%TO.C,X2*%
X16764000Y18728000D03*
X11684000Y18728000D03*
X11684000Y22928000D03*
X16764000Y22928000D03*
%TD*%
D15*
%TO.C,X3*%
X15674000Y19578000D03*
X12774000Y19578000D03*
X12774000Y22078000D03*
X15674000Y22078000D03*
%TD*%
D16*
%TO.C,X4*%
X15524000Y19828000D03*
X12924000Y19828000D03*
X12924000Y21828000D03*
X15524000Y21828000D03*
%TD*%
D15*
%TO.C,X6*%
X16224000Y19578000D03*
X12224000Y19578000D03*
X12224000Y22078000D03*
X16224000Y22078000D03*
%TD*%
D17*
%TO.C,X7*%
X16764000Y18978000D03*
X11684000Y18978000D03*
X11684000Y22678000D03*
X16764000Y22678000D03*
%TD*%
D18*
%TO.C,X8*%
X15049000Y20203000D03*
X13399000Y20203000D03*
X13399000Y21453000D03*
X15049000Y21453000D03*
%TD*%
M02*
