%TF.GenerationSoftware,KiCad,Pcbnew,7.0.7-7.0.7~ubuntu23.04.1*%
%TF.CreationDate,2023-09-17T08:07:36+00:00*%
%TF.ProjectId,CLKGEN02,434c4b47-454e-4303-922e-6b696361645f,rev?*%
%TF.SameCoordinates,Original*%
%TF.FileFunction,Copper,L1,Top*%
%TF.FilePolarity,Positive*%
%FSLAX46Y46*%
G04 Gerber Fmt 4.6, Leading zero omitted, Abs format (unit mm)*
G04 Created by KiCad (PCBNEW 7.0.7-7.0.7~ubuntu23.04.1) date 2023-09-17 08:07:36*
%MOMM*%
%LPD*%
G01*
G04 APERTURE LIST*
%TA.AperFunction,ComponentPad*%
%ADD10R,1.524000X1.524000*%
%TD*%
%TA.AperFunction,ComponentPad*%
%ADD11C,6.000000*%
%TD*%
%TA.AperFunction,ComponentPad*%
%ADD12C,3.500000*%
%TD*%
%TA.AperFunction,ViaPad*%
%ADD13C,0.600000*%
%TD*%
%TA.AperFunction,ViaPad*%
%ADD14C,0.800000*%
%TD*%
%TA.AperFunction,Conductor*%
%ADD15C,0.900000*%
%TD*%
%TA.AperFunction,Conductor*%
%ADD16C,0.300000*%
%TD*%
G04 APERTURE END LIST*
D10*
%TO.P,J1,1*%
%TO.N,GND*%
X2286000Y17272000D03*
%TO.P,J1,2*%
X4826000Y17272000D03*
%TO.P,J1,3*%
%TO.N,VCC*%
X2286000Y14732000D03*
%TO.P,J1,4*%
X4826000Y14732000D03*
%TO.P,J1,5*%
%TO.N,GND*%
X2286000Y12192000D03*
%TO.P,J1,6*%
X4826000Y12192000D03*
%TD*%
%TO.P,J3,1*%
%TO.N,GND*%
X2286000Y28956000D03*
%TO.P,J3,2*%
X4826000Y28956000D03*
%TO.P,J3,3*%
%TO.N,/OUT*%
X2286000Y26416000D03*
%TO.P,J3,4*%
X4826000Y26416000D03*
%TO.P,J3,5*%
%TO.N,GND*%
X2286000Y23876000D03*
%TO.P,J3,6*%
X4826000Y23876000D03*
%TD*%
D11*
%TO.P,M1,1*%
%TO.N,GND*%
X5080000Y5080000D03*
%TD*%
%TO.P,M2,1*%
%TO.N,GND*%
X5080000Y35560000D03*
%TD*%
%TO.P,M3,1*%
%TO.N,GND*%
X15240000Y5080000D03*
%TD*%
%TO.P,M4,1*%
%TO.N,GND*%
X15240000Y35560000D03*
%TD*%
D12*
%TO.P,X9,1*%
%TO.N,/EN*%
X17018000Y13208000D03*
%TO.P,X9,2*%
%TO.N,GND*%
X17018000Y28448000D03*
%TO.P,X9,3*%
%TO.N,/OUT*%
X9398000Y28448000D03*
%TO.P,X9,4*%
%TO.N,VCC*%
X9398000Y13208000D03*
%TD*%
D10*
%TO.P,J2,1*%
%TO.N,/EN*%
X2286000Y21336000D03*
%TO.P,J2,2*%
X4826000Y21336000D03*
%TD*%
D13*
%TO.N,VCC*%
X17780000Y20828000D03*
D14*
X17780000Y20828000D03*
X10160000Y24892000D03*
%TO.N,GND*%
X6604000Y24384000D03*
%TO.N,/EN*%
X14732000Y17272000D03*
%TD*%
D15*
%TO.N,VCC*%
X13747648Y14732000D02*
X14763648Y15748000D01*
X17780000Y17780000D02*
X17780000Y20828000D01*
X15832009Y15832009D02*
X17780000Y17780000D01*
X4826000Y14732000D02*
X13747648Y14732000D01*
X10160000Y24892000D02*
X10668000Y24384000D01*
X15748000Y15748000D02*
X15832009Y15832009D01*
X14763648Y15748000D02*
X15748000Y15748000D01*
X14224000Y24384000D02*
X17780000Y20828000D01*
X10668000Y24384000D02*
X14224000Y24384000D01*
D16*
%TO.N,GND*%
X1016000Y19604000D02*
X2286000Y18334000D01*
X1016000Y17064000D02*
X1016000Y12400000D01*
X1016000Y23668000D02*
X1016000Y19604000D01*
X1016000Y12400000D02*
X1224000Y12192000D01*
X2286000Y17272000D02*
X1224000Y17272000D01*
X2286000Y28956000D02*
X1224000Y28956000D01*
D15*
X4826000Y23876000D02*
X6096000Y23876000D01*
D16*
X1224000Y17272000D02*
X1016000Y17064000D01*
D15*
X6096000Y23876000D02*
X6604000Y24384000D01*
D16*
X1016000Y28748000D02*
X1016000Y24084000D01*
X1016000Y24084000D02*
X1224000Y23876000D01*
X1224000Y23876000D02*
X2286000Y23876000D01*
X1224000Y23876000D02*
X1016000Y23668000D01*
X1224000Y12192000D02*
X2286000Y12192000D01*
X1224000Y28956000D02*
X1016000Y28748000D01*
X2286000Y18334000D02*
X2286000Y17272000D01*
D15*
%TO.N,/EN*%
X14732000Y17272000D02*
X10668000Y21336000D01*
X10668000Y21336000D02*
X4826000Y21336000D01*
%TD*%
%TA.AperFunction,Conductor*%
%TO.N,GND*%
G36*
X19932621Y40290498D02*
G01*
X19979114Y40236842D01*
X19990500Y40184500D01*
X19990500Y455500D01*
X19970498Y387379D01*
X19916842Y340886D01*
X19864500Y329500D01*
X455500Y329500D01*
X387379Y349502D01*
X340886Y403158D01*
X329500Y455500D01*
X329500Y13921350D01*
X1015500Y13921350D01*
X1022009Y13860803D01*
X1022011Y13860795D01*
X1073110Y13723797D01*
X1073112Y13723792D01*
X1160738Y13606738D01*
X1277792Y13519112D01*
X1277797Y13519110D01*
X1414795Y13468011D01*
X1414803Y13468009D01*
X1475350Y13461500D01*
X1475362Y13461500D01*
X3096649Y13461500D01*
X3157196Y13468009D01*
X3157204Y13468011D01*
X3294202Y13519110D01*
X3294207Y13519112D01*
X3411261Y13606739D01*
X3455133Y13665343D01*
X3511969Y13707889D01*
X3582784Y13712953D01*
X3645096Y13678928D01*
X3656867Y13665343D01*
X3700738Y13606739D01*
X3817792Y13519112D01*
X3817797Y13519110D01*
X3954795Y13468011D01*
X3954803Y13468009D01*
X4015350Y13461500D01*
X4015362Y13461500D01*
X5636649Y13461500D01*
X5697196Y13468009D01*
X5697204Y13468011D01*
X5834202Y13519110D01*
X5834207Y13519112D01*
X5951261Y13606738D01*
X6038300Y13723009D01*
X6095136Y13765556D01*
X6139168Y13773500D01*
X7054207Y13773500D01*
X7122328Y13753498D01*
X7168821Y13699842D01*
X7178925Y13629568D01*
X7177786Y13622918D01*
X7154018Y13503435D01*
X7154016Y13503421D01*
X7134654Y13208003D01*
X7134654Y13207996D01*
X7154016Y12912578D01*
X7154018Y12912564D01*
X7211776Y12622204D01*
X7211778Y12622194D01*
X7306938Y12341862D01*
X7306944Y12341848D01*
X7437883Y12076329D01*
X7602359Y11830172D01*
X7602364Y11830165D01*
X7602367Y11830162D01*
X7797573Y11607573D01*
X8020162Y11412367D01*
X8020165Y11412364D01*
X8020172Y11412359D01*
X8266329Y11247883D01*
X8531848Y11116944D01*
X8531862Y11116938D01*
X8812194Y11021778D01*
X8812201Y11021776D01*
X8812203Y11021776D01*
X8860818Y11012105D01*
X9102564Y10964018D01*
X9102578Y10964016D01*
X9397997Y10944654D01*
X9398000Y10944654D01*
X9398003Y10944654D01*
X9693421Y10964016D01*
X9693435Y10964018D01*
X9886566Y11002435D01*
X9983797Y11021776D01*
X9983799Y11021776D01*
X9983805Y11021778D01*
X10264137Y11116938D01*
X10264140Y11116939D01*
X10264145Y11116941D01*
X10283591Y11126531D01*
X10529670Y11247883D01*
X10775827Y11412359D01*
X10775830Y11412361D01*
X10775838Y11412367D01*
X10998427Y11607573D01*
X11193633Y11830162D01*
X11358115Y12076327D01*
X11489059Y12341855D01*
X11584224Y12622203D01*
X11641983Y12912574D01*
X11661346Y13208000D01*
X11641983Y13503426D01*
X11618214Y13622918D01*
X11624542Y13693632D01*
X11668096Y13749699D01*
X11735048Y13773319D01*
X11741793Y13773500D01*
X13735522Y13773500D01*
X13820805Y13771339D01*
X13820808Y13771339D01*
X13878519Y13781682D01*
X13883261Y13782347D01*
X13941580Y13788277D01*
X13941593Y13788280D01*
X13972771Y13798061D01*
X13980518Y13799963D01*
X14012689Y13805730D01*
X14067137Y13827480D01*
X14071638Y13829082D01*
X14095268Y13836497D01*
X14127586Y13846636D01*
X14127590Y13846638D01*
X14156161Y13862496D01*
X14163368Y13865919D01*
X14168241Y13867866D01*
X14193717Y13878041D01*
X14223586Y13897727D01*
X14242681Y13910311D01*
X14246770Y13912789D01*
X14253837Y13916711D01*
X14298032Y13941241D01*
X14322824Y13962523D01*
X14329195Y13967327D01*
X14349543Y13980739D01*
X14356488Y13985316D01*
X14356489Y13985317D01*
X14356493Y13985320D01*
X14377218Y14006046D01*
X14397957Y14026785D01*
X14401446Y14030019D01*
X14445945Y14068220D01*
X14465948Y14094062D01*
X14471217Y14100045D01*
X14855895Y14484723D01*
X14918207Y14518749D01*
X14989022Y14513684D01*
X15045858Y14471137D01*
X15070669Y14404617D01*
X15057996Y14339900D01*
X14926944Y14074151D01*
X14926938Y14074137D01*
X14831778Y13793805D01*
X14831776Y13793799D01*
X14831776Y13793797D01*
X14823760Y13753498D01*
X14774018Y13503435D01*
X14774016Y13503421D01*
X14754654Y13208003D01*
X14754654Y13207996D01*
X14774016Y12912578D01*
X14774018Y12912564D01*
X14831776Y12622204D01*
X14831778Y12622194D01*
X14926938Y12341862D01*
X14926944Y12341848D01*
X15057883Y12076329D01*
X15222359Y11830172D01*
X15222364Y11830165D01*
X15222367Y11830162D01*
X15417573Y11607573D01*
X15640162Y11412367D01*
X15640165Y11412364D01*
X15640172Y11412359D01*
X15886329Y11247883D01*
X16151848Y11116944D01*
X16151862Y11116938D01*
X16432194Y11021778D01*
X16432201Y11021776D01*
X16432203Y11021776D01*
X16480818Y11012105D01*
X16722564Y10964018D01*
X16722578Y10964016D01*
X17017997Y10944654D01*
X17018000Y10944654D01*
X17018003Y10944654D01*
X17313421Y10964016D01*
X17313435Y10964018D01*
X17506566Y11002435D01*
X17603797Y11021776D01*
X17603799Y11021776D01*
X17603805Y11021778D01*
X17884137Y11116938D01*
X17884140Y11116939D01*
X17884145Y11116941D01*
X17903591Y11126531D01*
X18149670Y11247883D01*
X18395827Y11412359D01*
X18395830Y11412361D01*
X18395838Y11412367D01*
X18618427Y11607573D01*
X18813633Y11830162D01*
X18978115Y12076327D01*
X19109059Y12341855D01*
X19204224Y12622203D01*
X19261983Y12912574D01*
X19281346Y13208000D01*
X19261983Y13503426D01*
X19204224Y13793797D01*
X19109059Y14074145D01*
X18978115Y14339673D01*
X18813633Y14585838D01*
X18618427Y14808427D01*
X18395838Y15003633D01*
X18149673Y15168115D01*
X17884145Y15299059D01*
X17603797Y15394224D01*
X17313426Y15451983D01*
X17116117Y15464915D01*
X17049452Y15489329D01*
X17006567Y15545911D01*
X17001081Y15616695D01*
X17034735Y15679209D01*
X17035264Y15679740D01*
X18449195Y17093671D01*
X18511020Y17152440D01*
X18544515Y17200563D01*
X18547382Y17204367D01*
X18571664Y17234146D01*
X18584448Y17249824D01*
X18591386Y17263107D01*
X18599578Y17278791D01*
X18603712Y17285615D01*
X18622383Y17312439D01*
X18645512Y17366339D01*
X18647550Y17370631D01*
X18665022Y17404078D01*
X18674702Y17422608D01*
X18674703Y17422611D01*
X18683694Y17454035D01*
X18686366Y17461538D01*
X18699259Y17491581D01*
X18711066Y17549035D01*
X18712205Y17553674D01*
X18728331Y17610029D01*
X18730812Y17642607D01*
X18731921Y17650513D01*
X18738500Y17682529D01*
X18738500Y17741163D01*
X18738682Y17745949D01*
X18743134Y17804407D01*
X18739004Y17836832D01*
X18738500Y17844788D01*
X18738500Y20815891D01*
X18740661Y20901158D01*
X18730318Y20958866D01*
X18729653Y20963609D01*
X18727617Y20983624D01*
X18723721Y21021940D01*
X18719819Y21034373D01*
X18713937Y21053123D01*
X18712033Y21060880D01*
X18706271Y21093032D01*
X18706270Y21093039D01*
X18684511Y21147510D01*
X18682920Y21151980D01*
X18665363Y21207939D01*
X18649501Y21236513D01*
X18646083Y21243710D01*
X18633957Y21274072D01*
X18601674Y21323053D01*
X18599227Y21327093D01*
X18570759Y21378384D01*
X18549468Y21403182D01*
X18544673Y21409541D01*
X18526683Y21436840D01*
X18485213Y21478308D01*
X18481982Y21481796D01*
X18479524Y21484658D01*
X18443780Y21526297D01*
X18417918Y21546314D01*
X18411958Y21551563D01*
X14910329Y25053194D01*
X14851560Y25115020D01*
X14819074Y25137630D01*
X14803432Y25148518D01*
X14799632Y25151382D01*
X14754175Y25188448D01*
X14725196Y25203584D01*
X14718392Y25207706D01*
X14691561Y25226383D01*
X14637659Y25249512D01*
X14633371Y25251549D01*
X14581389Y25278704D01*
X14549965Y25287694D01*
X14542452Y25290370D01*
X14512419Y25303259D01*
X14512415Y25303259D01*
X14512415Y25303260D01*
X14512416Y25303260D01*
X14480921Y25309731D01*
X14454973Y25315063D01*
X14450351Y25316198D01*
X14393971Y25332331D01*
X14361378Y25334813D01*
X14353495Y25335918D01*
X14321470Y25342500D01*
X14321466Y25342500D01*
X14262836Y25342500D01*
X14258054Y25342681D01*
X14199593Y25347134D01*
X14167168Y25343004D01*
X14159211Y25342500D01*
X11117214Y25342500D01*
X11049093Y25362502D01*
X11028123Y25379400D01*
X10803391Y25604133D01*
X10690175Y25696448D01*
X10517389Y25786704D01*
X10329971Y25840331D01*
X10135593Y25855134D01*
X10135585Y25855133D01*
X10135583Y25855133D01*
X9942223Y25830506D01*
X9942222Y25830505D01*
X9942216Y25830505D01*
X9757754Y25767455D01*
X9589760Y25668562D01*
X9589758Y25668560D01*
X9445114Y25537879D01*
X9445111Y25537876D01*
X9329734Y25380755D01*
X9329732Y25380752D01*
X9248343Y25203614D01*
X9204277Y25013719D01*
X9199339Y24818841D01*
X9199339Y24818840D01*
X9233731Y24626955D01*
X9306041Y24445933D01*
X9306043Y24445929D01*
X9413316Y24283160D01*
X9413318Y24283157D01*
X9981671Y23714804D01*
X10040443Y23652976D01*
X10088559Y23619485D01*
X10092380Y23616605D01*
X10137817Y23579557D01*
X10137828Y23579550D01*
X10166789Y23564422D01*
X10173613Y23560287D01*
X10200435Y23541619D01*
X10200444Y23541614D01*
X10254323Y23518492D01*
X10258646Y23516439D01*
X10310609Y23489297D01*
X10310614Y23489295D01*
X10342025Y23480307D01*
X10349541Y23477631D01*
X10379581Y23464741D01*
X10437012Y23452937D01*
X10441659Y23451797D01*
X10498032Y23435668D01*
X10530617Y23433186D01*
X10538513Y23432078D01*
X10570530Y23425500D01*
X10629164Y23425500D01*
X10633945Y23425318D01*
X10664302Y23423006D01*
X10692405Y23420866D01*
X10692407Y23420866D01*
X10692411Y23420866D01*
X10705405Y23422521D01*
X10724831Y23424995D01*
X10732789Y23425500D01*
X13774786Y23425500D01*
X13842907Y23405498D01*
X13863881Y23388595D01*
X16784595Y20467881D01*
X16818621Y20405569D01*
X16821500Y20378786D01*
X16821499Y18229213D01*
X16801497Y18161092D01*
X16784594Y18140118D01*
X15907583Y17263107D01*
X15845271Y17229081D01*
X15774456Y17234146D01*
X15717620Y17276693D01*
X15694241Y17338948D01*
X15693788Y17338867D01*
X15693346Y17341331D01*
X15692850Y17342653D01*
X15692660Y17345134D01*
X15692661Y17345157D01*
X15658270Y17537039D01*
X15585957Y17718071D01*
X15478684Y17880840D01*
X11354328Y22005195D01*
X11295560Y22067020D01*
X11263074Y22089630D01*
X11247432Y22100518D01*
X11243632Y22103382D01*
X11198175Y22140448D01*
X11169196Y22155584D01*
X11162392Y22159706D01*
X11135561Y22178383D01*
X11081659Y22201512D01*
X11077371Y22203549D01*
X11025389Y22230704D01*
X10993965Y22239694D01*
X10986452Y22242370D01*
X10956419Y22255259D01*
X10956415Y22255259D01*
X10956415Y22255260D01*
X10956416Y22255260D01*
X10924921Y22261731D01*
X10898973Y22267063D01*
X10894351Y22268198D01*
X10837971Y22284331D01*
X10805378Y22286813D01*
X10797495Y22287918D01*
X10765470Y22294500D01*
X10765466Y22294500D01*
X10706836Y22294500D01*
X10702054Y22294681D01*
X10643593Y22299134D01*
X10611168Y22295004D01*
X10603211Y22294500D01*
X6139168Y22294500D01*
X6071047Y22314502D01*
X6038300Y22344991D01*
X5951261Y22461261D01*
X5834207Y22548887D01*
X5834206Y22548887D01*
X5834204Y22548889D01*
X5697201Y22599989D01*
X5697199Y22599989D01*
X5697196Y22599990D01*
X5636649Y22606499D01*
X5636645Y22606499D01*
X5636638Y22606500D01*
X4015362Y22606500D01*
X4015355Y22606499D01*
X4015350Y22606499D01*
X3954803Y22599990D01*
X3954795Y22599988D01*
X3876875Y22570924D01*
X3817796Y22548889D01*
X3817794Y22548888D01*
X3817792Y22548887D01*
X3700738Y22461261D01*
X3656868Y22402657D01*
X3600032Y22360110D01*
X3529216Y22355046D01*
X3466904Y22389071D01*
X3455132Y22402657D01*
X3411261Y22461261D01*
X3294207Y22548887D01*
X3294206Y22548887D01*
X3294204Y22548889D01*
X3157201Y22599989D01*
X3157199Y22599989D01*
X3157196Y22599990D01*
X3096649Y22606499D01*
X3096645Y22606499D01*
X3096638Y22606500D01*
X1475362Y22606500D01*
X1475355Y22606499D01*
X1475350Y22606499D01*
X1414803Y22599990D01*
X1414795Y22599988D01*
X1336875Y22570924D01*
X1277796Y22548889D01*
X1277794Y22548888D01*
X1277792Y22548887D01*
X1160738Y22461261D01*
X1073112Y22344207D01*
X1073110Y22344202D01*
X1022011Y22207204D01*
X1022009Y22207196D01*
X1015500Y22146649D01*
X1015500Y20525350D01*
X1022009Y20464803D01*
X1022011Y20464795D01*
X1073110Y20327797D01*
X1073112Y20327792D01*
X1160738Y20210738D01*
X1277792Y20123112D01*
X1277797Y20123110D01*
X1414795Y20072011D01*
X1414803Y20072009D01*
X1475350Y20065500D01*
X1475362Y20065500D01*
X3096649Y20065500D01*
X3157196Y20072009D01*
X3157204Y20072011D01*
X3294202Y20123110D01*
X3294207Y20123112D01*
X3411261Y20210739D01*
X3455133Y20269343D01*
X3511969Y20311889D01*
X3582784Y20316953D01*
X3645096Y20282928D01*
X3656867Y20269343D01*
X3700738Y20210739D01*
X3817792Y20123112D01*
X3817797Y20123110D01*
X3954795Y20072011D01*
X3954803Y20072009D01*
X4015350Y20065500D01*
X4015362Y20065500D01*
X5636649Y20065500D01*
X5697196Y20072009D01*
X5697204Y20072011D01*
X5834202Y20123110D01*
X5834207Y20123112D01*
X5951261Y20210738D01*
X6038300Y20327009D01*
X6095136Y20369556D01*
X6139168Y20377500D01*
X10218786Y20377500D01*
X10286907Y20357498D01*
X10307881Y20340595D01*
X14061986Y16586488D01*
X14096012Y16524176D01*
X14090947Y16453360D01*
X14068489Y16417428D01*
X14069262Y16416831D01*
X14065354Y16411782D01*
X14065351Y16411780D01*
X14045341Y16385930D01*
X14040077Y16379953D01*
X13662624Y16002500D01*
X13387529Y15727405D01*
X13325217Y15693379D01*
X13298434Y15690500D01*
X6139168Y15690500D01*
X6071047Y15710502D01*
X6038300Y15740991D01*
X5951261Y15857261D01*
X5834207Y15944887D01*
X5834206Y15944887D01*
X5834204Y15944889D01*
X5697201Y15995989D01*
X5697199Y15995989D01*
X5697196Y15995990D01*
X5636649Y16002499D01*
X5636645Y16002499D01*
X5636638Y16002500D01*
X4015362Y16002500D01*
X4015355Y16002499D01*
X4015350Y16002499D01*
X3954803Y15995990D01*
X3954795Y15995988D01*
X3876875Y15966924D01*
X3817796Y15944889D01*
X3817794Y15944888D01*
X3817792Y15944887D01*
X3700738Y15857261D01*
X3656868Y15798657D01*
X3600032Y15756110D01*
X3529216Y15751046D01*
X3466904Y15785071D01*
X3455132Y15798657D01*
X3411261Y15857261D01*
X3294207Y15944887D01*
X3294206Y15944887D01*
X3294204Y15944889D01*
X3157201Y15995989D01*
X3157199Y15995989D01*
X3157196Y15995990D01*
X3096649Y16002499D01*
X3096645Y16002499D01*
X3096638Y16002500D01*
X1475362Y16002500D01*
X1475355Y16002499D01*
X1475350Y16002499D01*
X1414803Y15995990D01*
X1414795Y15995988D01*
X1336875Y15966924D01*
X1277796Y15944889D01*
X1277794Y15944888D01*
X1277792Y15944887D01*
X1160738Y15857261D01*
X1073112Y15740207D01*
X1073110Y15740202D01*
X1022011Y15603204D01*
X1022009Y15603196D01*
X1015500Y15542649D01*
X1015500Y13921350D01*
X329500Y13921350D01*
X329500Y25605350D01*
X1015500Y25605350D01*
X1022009Y25544803D01*
X1022011Y25544795D01*
X1073110Y25407797D01*
X1073112Y25407792D01*
X1160738Y25290738D01*
X1277792Y25203112D01*
X1277797Y25203110D01*
X1414795Y25152011D01*
X1414803Y25152009D01*
X1475350Y25145500D01*
X1475362Y25145500D01*
X3096649Y25145500D01*
X3157196Y25152009D01*
X3157204Y25152011D01*
X3294202Y25203110D01*
X3294207Y25203112D01*
X3411261Y25290739D01*
X3455133Y25349343D01*
X3511969Y25391889D01*
X3582784Y25396953D01*
X3645096Y25362928D01*
X3656867Y25349343D01*
X3700738Y25290739D01*
X3817792Y25203112D01*
X3817797Y25203110D01*
X3954795Y25152011D01*
X3954803Y25152009D01*
X4015350Y25145500D01*
X4015362Y25145500D01*
X5636649Y25145500D01*
X5697196Y25152009D01*
X5697204Y25152011D01*
X5834202Y25203110D01*
X5834207Y25203112D01*
X5951261Y25290738D01*
X6038887Y25407792D01*
X6038889Y25407797D01*
X6089988Y25544795D01*
X6089990Y25544803D01*
X6096499Y25605350D01*
X6096500Y25605367D01*
X6096500Y27226632D01*
X6096499Y27226649D01*
X6089990Y27287196D01*
X6089988Y27287204D01*
X6079125Y27316329D01*
X6038889Y27424204D01*
X5951261Y27541261D01*
X5834204Y27628889D01*
X5697201Y27679989D01*
X5697199Y27679989D01*
X5697196Y27679990D01*
X5636649Y27686499D01*
X5636645Y27686499D01*
X5636638Y27686500D01*
X4015362Y27686500D01*
X4015355Y27686499D01*
X4015350Y27686499D01*
X3954803Y27679990D01*
X3954795Y27679988D01*
X3876875Y27650924D01*
X3817796Y27628889D01*
X3817794Y27628888D01*
X3817792Y27628887D01*
X3700738Y27541261D01*
X3656868Y27482657D01*
X3600032Y27440110D01*
X3529216Y27435046D01*
X3466904Y27469071D01*
X3455132Y27482657D01*
X3411261Y27541261D01*
X3294207Y27628887D01*
X3294206Y27628887D01*
X3294204Y27628889D01*
X3157201Y27679989D01*
X3157199Y27679989D01*
X3157196Y27679990D01*
X3096649Y27686499D01*
X3096645Y27686499D01*
X3096638Y27686500D01*
X1475362Y27686500D01*
X1475355Y27686499D01*
X1475350Y27686499D01*
X1414803Y27679990D01*
X1414795Y27679988D01*
X1336875Y27650924D01*
X1277796Y27628889D01*
X1277794Y27628888D01*
X1277792Y27628887D01*
X1160738Y27541261D01*
X1073112Y27424207D01*
X1073110Y27424202D01*
X1022011Y27287204D01*
X1022009Y27287196D01*
X1015500Y27226649D01*
X1015500Y25605350D01*
X329500Y25605350D01*
X329500Y28447996D01*
X7134654Y28447996D01*
X7154016Y28152578D01*
X7154018Y28152564D01*
X7211776Y27862204D01*
X7211778Y27862194D01*
X7306938Y27581862D01*
X7306944Y27581848D01*
X7437883Y27316329D01*
X7602359Y27070172D01*
X7602364Y27070165D01*
X7602367Y27070162D01*
X7797573Y26847573D01*
X8020162Y26652367D01*
X8020165Y26652364D01*
X8020172Y26652359D01*
X8266329Y26487883D01*
X8531848Y26356944D01*
X8531862Y26356938D01*
X8812194Y26261778D01*
X8812201Y26261776D01*
X8812203Y26261776D01*
X8860818Y26252105D01*
X9102564Y26204018D01*
X9102578Y26204016D01*
X9397997Y26184654D01*
X9398000Y26184654D01*
X9398003Y26184654D01*
X9693421Y26204016D01*
X9693435Y26204018D01*
X9886566Y26242435D01*
X9983797Y26261776D01*
X9983799Y26261776D01*
X9983805Y26261778D01*
X10264137Y26356938D01*
X10264140Y26356939D01*
X10264145Y26356941D01*
X10283591Y26366531D01*
X10529670Y26487883D01*
X10775827Y26652359D01*
X10775830Y26652361D01*
X10775838Y26652367D01*
X10998427Y26847573D01*
X11193633Y27070162D01*
X11358115Y27316327D01*
X11489059Y27581855D01*
X11584224Y27862203D01*
X11641983Y28152574D01*
X11661346Y28448000D01*
X11641983Y28743426D01*
X11584224Y29033797D01*
X11489059Y29314145D01*
X11358115Y29579673D01*
X11193633Y29825838D01*
X10998427Y30048427D01*
X10775838Y30243633D01*
X10529673Y30408115D01*
X10264145Y30539059D01*
X9983797Y30634224D01*
X9693426Y30691983D01*
X9508784Y30704084D01*
X9398003Y30711346D01*
X9397997Y30711346D01*
X9271388Y30703047D01*
X9102574Y30691983D01*
X8812203Y30634224D01*
X8531855Y30539059D01*
X8266327Y30408115D01*
X8020162Y30243633D01*
X7797573Y30048427D01*
X7602367Y29825838D01*
X7602361Y29825830D01*
X7602359Y29825827D01*
X7437883Y29579670D01*
X7306944Y29314151D01*
X7306938Y29314137D01*
X7211778Y29033805D01*
X7211776Y29033795D01*
X7154018Y28743435D01*
X7154016Y28743421D01*
X7134654Y28448003D01*
X7134654Y28447996D01*
X329500Y28447996D01*
X329500Y40184500D01*
X349502Y40252621D01*
X403158Y40299114D01*
X455500Y40310500D01*
X19864500Y40310500D01*
X19932621Y40290498D01*
G37*
%TD.AperFunction*%
%TD*%
M02*
