%TF.GenerationSoftware,KiCad,Pcbnew,7.0.7-7.0.7~ubuntu23.04.1*%
%TF.CreationDate,2023-09-17T08:07:36+00:00*%
%TF.ProjectId,CLKGEN02,434c4b47-454e-4303-922e-6b696361645f,rev?*%
%TF.SameCoordinates,Original*%
%TF.FileFunction,Legend,Bot*%
%TF.FilePolarity,Positive*%
%FSLAX46Y46*%
G04 Gerber Fmt 4.6, Leading zero omitted, Abs format (unit mm)*
G04 Created by KiCad (PCBNEW 7.0.7-7.0.7~ubuntu23.04.1) date 2023-09-17 08:07:36*
%MOMM*%
%LPD*%
G01*
G04 APERTURE LIST*
%ADD10C,0.109220*%
%ADD11C,0.304800*%
%ADD12C,0.099060*%
%ADD13C,0.150000*%
G04 APERTURE END LIST*
D10*
X14719650Y26499396D02*
X14743478Y26523224D01*
X14743478Y26523224D02*
X14767305Y26594706D01*
X14767305Y26594706D02*
X14767305Y26642362D01*
X14767305Y26642362D02*
X14743478Y26713845D01*
X14743478Y26713845D02*
X14695822Y26761500D01*
X14695822Y26761500D02*
X14648167Y26785327D01*
X14648167Y26785327D02*
X14552857Y26809155D01*
X14552857Y26809155D02*
X14481374Y26809155D01*
X14481374Y26809155D02*
X14386063Y26785327D01*
X14386063Y26785327D02*
X14338408Y26761500D01*
X14338408Y26761500D02*
X14290753Y26713845D01*
X14290753Y26713845D02*
X14266925Y26642362D01*
X14266925Y26642362D02*
X14266925Y26594706D01*
X14266925Y26594706D02*
X14290753Y26523224D01*
X14290753Y26523224D02*
X14314580Y26499396D01*
X14767305Y26022844D02*
X14767305Y26308775D01*
X14767305Y26165809D02*
X14266925Y26165809D01*
X14266925Y26165809D02*
X14338408Y26213465D01*
X14338408Y26213465D02*
X14386063Y26261120D01*
X14386063Y26261120D02*
X14409891Y26308775D01*
X14068805Y27079121D02*
X14068805Y27365052D01*
X14068805Y27222086D02*
X13568425Y27222086D01*
X13568425Y27222086D02*
X13639908Y27269742D01*
X13639908Y27269742D02*
X13687563Y27317397D01*
X13687563Y27317397D02*
X13711391Y27365052D01*
X13568425Y26769362D02*
X13568425Y26721707D01*
X13568425Y26721707D02*
X13592253Y26674051D01*
X13592253Y26674051D02*
X13616080Y26650224D01*
X13616080Y26650224D02*
X13663736Y26626396D01*
X13663736Y26626396D02*
X13759046Y26602569D01*
X13759046Y26602569D02*
X13878184Y26602569D01*
X13878184Y26602569D02*
X13973495Y26626396D01*
X13973495Y26626396D02*
X14021150Y26650224D01*
X14021150Y26650224D02*
X14044978Y26674051D01*
X14044978Y26674051D02*
X14068805Y26721707D01*
X14068805Y26721707D02*
X14068805Y26769362D01*
X14068805Y26769362D02*
X14044978Y26817017D01*
X14044978Y26817017D02*
X14021150Y26840845D01*
X14021150Y26840845D02*
X13973495Y26864672D01*
X13973495Y26864672D02*
X13878184Y26888500D01*
X13878184Y26888500D02*
X13759046Y26888500D01*
X13759046Y26888500D02*
X13663736Y26864672D01*
X13663736Y26864672D02*
X13616080Y26840845D01*
X13616080Y26840845D02*
X13592253Y26817017D01*
X13592253Y26817017D02*
X13568425Y26769362D01*
X13735218Y26388120D02*
X14068805Y26388120D01*
X13782874Y26388120D02*
X13759046Y26364293D01*
X13759046Y26364293D02*
X13735218Y26316638D01*
X13735218Y26316638D02*
X13735218Y26245155D01*
X13735218Y26245155D02*
X13759046Y26197499D01*
X13759046Y26197499D02*
X13806701Y26173672D01*
X13806701Y26173672D02*
X14068805Y26173672D01*
X13806701Y25768602D02*
X13806701Y25935395D01*
X14068805Y25935395D02*
X13568425Y25935395D01*
X13568425Y25935395D02*
X13568425Y25697119D01*
X17355396Y24904349D02*
X17379224Y24880522D01*
X17379224Y24880522D02*
X17450706Y24856694D01*
X17450706Y24856694D02*
X17498362Y24856694D01*
X17498362Y24856694D02*
X17569845Y24880522D01*
X17569845Y24880522D02*
X17617500Y24928177D01*
X17617500Y24928177D02*
X17641327Y24975832D01*
X17641327Y24975832D02*
X17665155Y25071142D01*
X17665155Y25071142D02*
X17665155Y25142625D01*
X17665155Y25142625D02*
X17641327Y25237936D01*
X17641327Y25237936D02*
X17617500Y25285591D01*
X17617500Y25285591D02*
X17569845Y25333246D01*
X17569845Y25333246D02*
X17498362Y25357074D01*
X17498362Y25357074D02*
X17450706Y25357074D01*
X17450706Y25357074D02*
X17379224Y25333246D01*
X17379224Y25333246D02*
X17355396Y25309419D01*
X17164775Y25309419D02*
X17140947Y25333246D01*
X17140947Y25333246D02*
X17093292Y25357074D01*
X17093292Y25357074D02*
X16974154Y25357074D01*
X16974154Y25357074D02*
X16926499Y25333246D01*
X16926499Y25333246D02*
X16902671Y25309419D01*
X16902671Y25309419D02*
X16878844Y25261763D01*
X16878844Y25261763D02*
X16878844Y25214108D01*
X16878844Y25214108D02*
X16902671Y25142625D01*
X16902671Y25142625D02*
X17188603Y24856694D01*
X17188603Y24856694D02*
X16878844Y24856694D01*
X18173397Y25555194D02*
X18459328Y25555194D01*
X18316362Y25555194D02*
X18316362Y26055574D01*
X18316362Y26055574D02*
X18364018Y25984091D01*
X18364018Y25984091D02*
X18411673Y25936436D01*
X18411673Y25936436D02*
X18459328Y25912608D01*
X17863638Y26055574D02*
X17815983Y26055574D01*
X17815983Y26055574D02*
X17768327Y26031746D01*
X17768327Y26031746D02*
X17744500Y26007919D01*
X17744500Y26007919D02*
X17720672Y25960263D01*
X17720672Y25960263D02*
X17696845Y25864953D01*
X17696845Y25864953D02*
X17696845Y25745815D01*
X17696845Y25745815D02*
X17720672Y25650504D01*
X17720672Y25650504D02*
X17744500Y25602849D01*
X17744500Y25602849D02*
X17768327Y25579022D01*
X17768327Y25579022D02*
X17815983Y25555194D01*
X17815983Y25555194D02*
X17863638Y25555194D01*
X17863638Y25555194D02*
X17911293Y25579022D01*
X17911293Y25579022D02*
X17935121Y25602849D01*
X17935121Y25602849D02*
X17958948Y25650504D01*
X17958948Y25650504D02*
X17982776Y25745815D01*
X17982776Y25745815D02*
X17982776Y25864953D01*
X17982776Y25864953D02*
X17958948Y25960263D01*
X17958948Y25960263D02*
X17935121Y26007919D01*
X17935121Y26007919D02*
X17911293Y26031746D01*
X17911293Y26031746D02*
X17863638Y26055574D01*
X17387086Y26055574D02*
X17339431Y26055574D01*
X17339431Y26055574D02*
X17291775Y26031746D01*
X17291775Y26031746D02*
X17267948Y26007919D01*
X17267948Y26007919D02*
X17244120Y25960263D01*
X17244120Y25960263D02*
X17220293Y25864953D01*
X17220293Y25864953D02*
X17220293Y25745815D01*
X17220293Y25745815D02*
X17244120Y25650504D01*
X17244120Y25650504D02*
X17267948Y25602849D01*
X17267948Y25602849D02*
X17291775Y25579022D01*
X17291775Y25579022D02*
X17339431Y25555194D01*
X17339431Y25555194D02*
X17387086Y25555194D01*
X17387086Y25555194D02*
X17434741Y25579022D01*
X17434741Y25579022D02*
X17458569Y25602849D01*
X17458569Y25602849D02*
X17482396Y25650504D01*
X17482396Y25650504D02*
X17506224Y25745815D01*
X17506224Y25745815D02*
X17506224Y25864953D01*
X17506224Y25864953D02*
X17482396Y25960263D01*
X17482396Y25960263D02*
X17458569Y26007919D01*
X17458569Y26007919D02*
X17434741Y26031746D01*
X17434741Y26031746D02*
X17387086Y26055574D01*
X17005844Y25888781D02*
X17005844Y25555194D01*
X17005844Y25841125D02*
X16982017Y25864953D01*
X16982017Y25864953D02*
X16934362Y25888781D01*
X16934362Y25888781D02*
X16862879Y25888781D01*
X16862879Y25888781D02*
X16815223Y25864953D01*
X16815223Y25864953D02*
X16791396Y25817298D01*
X16791396Y25817298D02*
X16791396Y25555194D01*
X16386326Y25817298D02*
X16553119Y25817298D01*
X16553119Y25555194D02*
X16553119Y26055574D01*
X16553119Y26055574D02*
X16314843Y26055574D01*
X12275396Y15252349D02*
X12299224Y15228522D01*
X12299224Y15228522D02*
X12370706Y15204694D01*
X12370706Y15204694D02*
X12418362Y15204694D01*
X12418362Y15204694D02*
X12489845Y15228522D01*
X12489845Y15228522D02*
X12537500Y15276177D01*
X12537500Y15276177D02*
X12561327Y15323832D01*
X12561327Y15323832D02*
X12585155Y15419142D01*
X12585155Y15419142D02*
X12585155Y15490625D01*
X12585155Y15490625D02*
X12561327Y15585936D01*
X12561327Y15585936D02*
X12537500Y15633591D01*
X12537500Y15633591D02*
X12489845Y15681246D01*
X12489845Y15681246D02*
X12418362Y15705074D01*
X12418362Y15705074D02*
X12370706Y15705074D01*
X12370706Y15705074D02*
X12299224Y15681246D01*
X12299224Y15681246D02*
X12275396Y15657419D01*
X12108603Y15705074D02*
X11798844Y15705074D01*
X11798844Y15705074D02*
X11965637Y15514453D01*
X11965637Y15514453D02*
X11894154Y15514453D01*
X11894154Y15514453D02*
X11846499Y15490625D01*
X11846499Y15490625D02*
X11822671Y15466798D01*
X11822671Y15466798D02*
X11798844Y15419142D01*
X11798844Y15419142D02*
X11798844Y15300004D01*
X11798844Y15300004D02*
X11822671Y15252349D01*
X11822671Y15252349D02*
X11846499Y15228522D01*
X11846499Y15228522D02*
X11894154Y15204694D01*
X11894154Y15204694D02*
X12037120Y15204694D01*
X12037120Y15204694D02*
X12084775Y15228522D01*
X12084775Y15228522D02*
X12108603Y15252349D01*
X12855121Y15903194D02*
X13141052Y15903194D01*
X12998086Y15903194D02*
X12998086Y16403574D01*
X12998086Y16403574D02*
X13045742Y16332091D01*
X13045742Y16332091D02*
X13093397Y16284436D01*
X13093397Y16284436D02*
X13141052Y16260608D01*
X12545362Y16403574D02*
X12497707Y16403574D01*
X12497707Y16403574D02*
X12450051Y16379746D01*
X12450051Y16379746D02*
X12426224Y16355919D01*
X12426224Y16355919D02*
X12402396Y16308263D01*
X12402396Y16308263D02*
X12378569Y16212953D01*
X12378569Y16212953D02*
X12378569Y16093815D01*
X12378569Y16093815D02*
X12402396Y15998504D01*
X12402396Y15998504D02*
X12426224Y15950849D01*
X12426224Y15950849D02*
X12450051Y15927022D01*
X12450051Y15927022D02*
X12497707Y15903194D01*
X12497707Y15903194D02*
X12545362Y15903194D01*
X12545362Y15903194D02*
X12593017Y15927022D01*
X12593017Y15927022D02*
X12616845Y15950849D01*
X12616845Y15950849D02*
X12640672Y15998504D01*
X12640672Y15998504D02*
X12664500Y16093815D01*
X12664500Y16093815D02*
X12664500Y16212953D01*
X12664500Y16212953D02*
X12640672Y16308263D01*
X12640672Y16308263D02*
X12616845Y16355919D01*
X12616845Y16355919D02*
X12593017Y16379746D01*
X12593017Y16379746D02*
X12545362Y16403574D01*
X11949672Y16236781D02*
X11949672Y15903194D01*
X12164120Y16236781D02*
X12164120Y15974677D01*
X12164120Y15974677D02*
X12140293Y15927022D01*
X12140293Y15927022D02*
X12092638Y15903194D01*
X12092638Y15903194D02*
X12021155Y15903194D01*
X12021155Y15903194D02*
X11973499Y15927022D01*
X11973499Y15927022D02*
X11949672Y15950849D01*
X11544602Y16165298D02*
X11711395Y16165298D01*
X11711395Y15903194D02*
X11711395Y16403574D01*
X11711395Y16403574D02*
X11473119Y16403574D01*
D11*
X6785181Y18904856D02*
X5261181Y18904856D01*
X5261181Y18904856D02*
X5261181Y18541999D01*
X5261181Y18541999D02*
X5333752Y18324285D01*
X5333752Y18324285D02*
X5478895Y18179142D01*
X5478895Y18179142D02*
X5624038Y18106571D01*
X5624038Y18106571D02*
X5914324Y18033999D01*
X5914324Y18033999D02*
X6132038Y18033999D01*
X6132038Y18033999D02*
X6422324Y18106571D01*
X6422324Y18106571D02*
X6567467Y18179142D01*
X6567467Y18179142D02*
X6712610Y18324285D01*
X6712610Y18324285D02*
X6785181Y18541999D01*
X6785181Y18541999D02*
X6785181Y18904856D01*
X6785181Y16582571D02*
X6785181Y17453428D01*
X6785181Y17017999D02*
X5261181Y17017999D01*
X5261181Y17017999D02*
X5478895Y17163142D01*
X5478895Y17163142D02*
X5624038Y17308285D01*
X5624038Y17308285D02*
X5696610Y17453428D01*
D12*
X10268767Y19699997D02*
X10268767Y19461721D01*
X10411733Y19747652D02*
X9911353Y19580859D01*
X9911353Y19580859D02*
X10411733Y19414066D01*
X10411733Y16110191D02*
X9911353Y16110191D01*
X10411733Y15824260D02*
X10125802Y16038709D01*
X9911353Y15824260D02*
X10197285Y16110191D01*
D10*
X8036305Y24530896D02*
X7798029Y24697689D01*
X8036305Y24816827D02*
X7535925Y24816827D01*
X7535925Y24816827D02*
X7535925Y24626206D01*
X7535925Y24626206D02*
X7559753Y24578551D01*
X7559753Y24578551D02*
X7583580Y24554724D01*
X7583580Y24554724D02*
X7631236Y24530896D01*
X7631236Y24530896D02*
X7702718Y24530896D01*
X7702718Y24530896D02*
X7750374Y24554724D01*
X7750374Y24554724D02*
X7774201Y24578551D01*
X7774201Y24578551D02*
X7798029Y24626206D01*
X7798029Y24626206D02*
X7798029Y24816827D01*
X8036305Y24054344D02*
X8036305Y24340275D01*
X8036305Y24197309D02*
X7535925Y24197309D01*
X7535925Y24197309D02*
X7607408Y24244965D01*
X7607408Y24244965D02*
X7655063Y24292620D01*
X7655063Y24292620D02*
X7678891Y24340275D01*
X8734805Y24165620D02*
X8496529Y24332413D01*
X8734805Y24451551D02*
X8234425Y24451551D01*
X8234425Y24451551D02*
X8234425Y24260930D01*
X8234425Y24260930D02*
X8258253Y24213275D01*
X8258253Y24213275D02*
X8282080Y24189448D01*
X8282080Y24189448D02*
X8329736Y24165620D01*
X8329736Y24165620D02*
X8401218Y24165620D01*
X8401218Y24165620D02*
X8448874Y24189448D01*
X8448874Y24189448D02*
X8472701Y24213275D01*
X8472701Y24213275D02*
X8496529Y24260930D01*
X8496529Y24260930D02*
X8496529Y24451551D01*
X8147896Y20792694D02*
X8314689Y21030970D01*
X8433827Y20792694D02*
X8433827Y21293074D01*
X8433827Y21293074D02*
X8243206Y21293074D01*
X8243206Y21293074D02*
X8195551Y21269246D01*
X8195551Y21269246D02*
X8171724Y21245419D01*
X8171724Y21245419D02*
X8147896Y21197763D01*
X8147896Y21197763D02*
X8147896Y21126281D01*
X8147896Y21126281D02*
X8171724Y21078625D01*
X8171724Y21078625D02*
X8195551Y21054798D01*
X8195551Y21054798D02*
X8243206Y21030970D01*
X8243206Y21030970D02*
X8433827Y21030970D01*
X7957275Y21245419D02*
X7933447Y21269246D01*
X7933447Y21269246D02*
X7885792Y21293074D01*
X7885792Y21293074D02*
X7766654Y21293074D01*
X7766654Y21293074D02*
X7718999Y21269246D01*
X7718999Y21269246D02*
X7695171Y21245419D01*
X7695171Y21245419D02*
X7671344Y21197763D01*
X7671344Y21197763D02*
X7671344Y21150108D01*
X7671344Y21150108D02*
X7695171Y21078625D01*
X7695171Y21078625D02*
X7981103Y20792694D01*
X7981103Y20792694D02*
X7671344Y20792694D01*
X8036620Y21491194D02*
X8203413Y21729470D01*
X8322551Y21491194D02*
X8322551Y21991574D01*
X8322551Y21991574D02*
X8131930Y21991574D01*
X8131930Y21991574D02*
X8084275Y21967746D01*
X8084275Y21967746D02*
X8060448Y21943919D01*
X8060448Y21943919D02*
X8036620Y21896263D01*
X8036620Y21896263D02*
X8036620Y21824781D01*
X8036620Y21824781D02*
X8060448Y21777125D01*
X8060448Y21777125D02*
X8084275Y21753298D01*
X8084275Y21753298D02*
X8131930Y21729470D01*
X8131930Y21729470D02*
X8322551Y21729470D01*
D13*
X15963899Y20179380D02*
X15963899Y19941285D01*
X16201994Y20036523D02*
X15963899Y19941285D01*
X15963899Y19941285D02*
X15725804Y20036523D01*
X16106756Y19750809D02*
X15963899Y19941285D01*
X15963899Y19941285D02*
X15821042Y19750809D01*
X16802099Y19468180D02*
X16802099Y19230085D01*
X17040194Y19325323D02*
X16802099Y19230085D01*
X16802099Y19230085D02*
X16564004Y19325323D01*
X16944956Y19039609D02*
X16802099Y19230085D01*
X16802099Y19230085D02*
X16659242Y19039609D01*
X16027399Y20166680D02*
X16027399Y19928585D01*
X16265494Y20023823D02*
X16027399Y19928585D01*
X16027399Y19928585D02*
X15789304Y20023823D01*
X16170256Y19738109D02*
X16027399Y19928585D01*
X16027399Y19928585D02*
X15884542Y19738109D01*
X15227299Y20369880D02*
X15227299Y20131785D01*
X15465394Y20227023D02*
X15227299Y20131785D01*
X15227299Y20131785D02*
X14989204Y20227023D01*
X15370156Y19941309D02*
X15227299Y20131785D01*
X15227299Y20131785D02*
X15084442Y19941309D01*
X15989299Y20090480D02*
X15989299Y19852385D01*
X16227394Y19947623D02*
X15989299Y19852385D01*
X15989299Y19852385D02*
X15751204Y19947623D01*
X16132156Y19661909D02*
X15989299Y19852385D01*
X15989299Y19852385D02*
X15846442Y19661909D01*
X16802099Y19391980D02*
X16802099Y19153885D01*
X17040194Y19249123D02*
X16802099Y19153885D01*
X16802099Y19153885D02*
X16564004Y19249123D01*
X16944956Y18963409D02*
X16802099Y19153885D01*
X16802099Y19153885D02*
X16659242Y18963409D01*
X14973299Y20611180D02*
X14973299Y20373085D01*
X15211394Y20468323D02*
X14973299Y20373085D01*
X14973299Y20373085D02*
X14735204Y20468323D01*
X15116156Y20182609D02*
X14973299Y20373085D01*
X14973299Y20373085D02*
X14830442Y20182609D01*
%TO.C,C1*%
X13462000Y24892000D02*
X14986000Y24892000D01*
X14986000Y24892000D02*
X14986000Y25908000D01*
X13462000Y25908000D02*
X13462000Y24892000D01*
X14986000Y26924000D02*
X14986000Y27940000D01*
X13462000Y27940000D02*
X13462000Y26924000D01*
X14986000Y27940000D02*
X13462000Y27940000D01*
X13589000Y24765000D02*
G75*
G03*
X13589000Y24765000I-127000J0D01*
G01*
%TO.C,C2*%
X15748000Y26162000D02*
X15748000Y24638000D01*
X15748000Y24638000D02*
X16764000Y24638000D01*
X16764000Y26162000D02*
X15748000Y26162000D01*
X17780000Y24638000D02*
X18796000Y24638000D01*
X18796000Y26162000D02*
X17780000Y26162000D01*
X18796000Y24638000D02*
X18796000Y26162000D01*
X15748000Y26162000D02*
G75*
G03*
X15748000Y26162000I-127000J0D01*
G01*
%TO.C,C3*%
X10668000Y16510000D02*
X10668000Y14986000D01*
X10668000Y14986000D02*
X11684000Y14986000D01*
X11684000Y16510000D02*
X10668000Y16510000D01*
X12700000Y14986000D02*
X13716000Y14986000D01*
X13716000Y16510000D02*
X12700000Y16510000D01*
X13716000Y14986000D02*
X13716000Y16510000D01*
X10668000Y16510000D02*
G75*
G03*
X10668000Y16510000I-127000J0D01*
G01*
%TO.C,D1*%
X9636760Y18130520D02*
X8636000Y17129760D01*
X7635240Y18130520D02*
X9636760Y18130520D01*
X8686800Y17129760D02*
X7635240Y18130520D01*
X7586980Y17129760D02*
X9685020Y17129760D01*
%TO.C,R1*%
X8890000Y25971500D02*
X7366000Y25971500D01*
X7366000Y25971500D02*
X7366000Y24955500D01*
X8890000Y24955500D02*
X8890000Y25971500D01*
X7366000Y23939500D02*
X7366000Y22923500D01*
X8890000Y22923500D02*
X8890000Y23939500D01*
X7366000Y22923500D02*
X8890000Y22923500D01*
X9017000Y26098500D02*
G75*
G03*
X9017000Y26098500I-127000J0D01*
G01*
%TO.C,R2*%
X6540500Y22098000D02*
X6540500Y20574000D01*
X6540500Y20574000D02*
X7556500Y20574000D01*
X7556500Y22098000D02*
X6540500Y22098000D01*
X8572500Y20574000D02*
X9588500Y20574000D01*
X9588500Y22098000D02*
X8572500Y22098000D01*
X9588500Y20574000D02*
X9588500Y22098000D01*
X6540500Y22098000D02*
G75*
G03*
X6540500Y22098000I-127000J0D01*
G01*
%TO.C,X1*%
X16724000Y19228000D02*
X16724000Y22428000D01*
X16724000Y22428000D02*
X11724000Y22428000D01*
X11724000Y19228000D02*
X16724000Y19228000D01*
X11724000Y22428000D02*
X11724000Y19228000D01*
%TO.C,X2*%
X17724000Y18328000D02*
X17724000Y23328000D01*
X17724000Y23328000D02*
X10724000Y23328000D01*
X10724000Y18328000D02*
X17724000Y18328000D01*
X10724000Y23328000D02*
X10724000Y18328000D01*
%TO.C,X3*%
X16724000Y19228000D02*
X16724000Y22428000D01*
X16724000Y22428000D02*
X11724000Y22428000D01*
X11724000Y19228000D02*
X16724000Y19228000D01*
X11724000Y22428000D02*
X11724000Y19228000D01*
%TO.C,X4*%
X15824000Y19578000D02*
X15824000Y22078000D01*
X15824000Y22078000D02*
X12624000Y22078000D01*
X12624000Y19578000D02*
X15824000Y19578000D01*
X12624000Y22078000D02*
X12624000Y19578000D01*
%TO.C,X6*%
X16724000Y19228000D02*
X16724000Y22428000D01*
X16724000Y22428000D02*
X11724000Y22428000D01*
X11724000Y19228000D02*
X16724000Y19228000D01*
X11724000Y22428000D02*
X11724000Y19228000D01*
%TO.C,X7*%
X17724000Y18328000D02*
X17724000Y23328000D01*
X17724000Y23328000D02*
X10724000Y23328000D01*
X10724000Y18328000D02*
X17724000Y18328000D01*
X10724000Y23328000D02*
X10724000Y18328000D01*
%TO.C,X8*%
X15474000Y19828000D02*
X15474000Y21828000D01*
X15474000Y21828000D02*
X12974000Y21828000D01*
X12974000Y19828000D02*
X15474000Y19828000D01*
X12974000Y21828000D02*
X12974000Y19828000D01*
%TD*%
M02*
